<svg xmlns="http://www.w3.org/2000/svg" xmlns:xlink="http://www.w3.org/1999/xlink" xmlns:lucid="lucid" width="1760" height="1360"><g transform="translate(0 0)" lucid:page-tab-id="0_0"><path d="M0 0h1760v1360H0z" fill="#fff"/><path d="M875.04 414.94a8 8 0 0 1 8-8h24a8 8 0 0 1 8 8V1272a8 8 0 0 1-8 8h-24a8 8 0 0 1-8-8z" stroke="#f2f2f2" fill="#ced4db"/><path d="M1460.36 353.5v9.76m0 9.75v19.53m0 9.75v19.52m0 9.75v19.52m0 9.75v19.52m0 9.75v19.5m0 9.76v19.52m0 9.75v19.52m0 9.75v19.52m0 9.75v19.52m0 9.75v19.5m0 9.76v19.53m0 9.75v19.52m0 9.75v19.52m0 9.75v19.52m0 9.75v19.5m0 9.77V821.88l-.02.02-.02.03-.02.02-.02.02h-.02l-.03.02h-.11l-.02.02h-.03l-.02.03-.02.02v.03l-.02.02v9.81m0 9.76v19.5m0 9.76v19.5m0 9.77v19.5m0 9.77V949m0 9.77v19.5m0 9.77v19.5m0 9.77v19.53m0 9.75v19.52m0 9.75v19.52m0 9.75v19.52m0 9.75v19.5m0 9.76v19.52m0 9.75v19.52m0 9.75v19.52m0 9.75V1271m0 9.74v9.76M1460.36 353.5v-.5M1460 1290.5v.5" stroke="#333" fill="none"/><path d="M800 224.86a8 8 0 0 1 8-8h174.08a8 8 0 0 1 8 8v106a8 8 0 0 1-8 8H808a8 8 0 0 1-8-8z" stroke="#000" stroke-opacity="0" fill="#ffaf28"/><use xlink:href="#a" transform="matrix(1,0,0,1,808,224.86302210076497) translate(30.413580246913583 56.55555555555555)"/><use xlink:href="#b" transform="matrix(1,0,0,1,808,224.86302210076497) translate(71.74691358024691 56.55555555555555)"/><path d="M319.75 210.75c0 10.9-8.84 19.75-19.75 19.75-10.9 0-19.75-8.84-19.75-19.75 0-10.9 8.84-19.75 19.75-19.75 10.9 0 19.75 8.84 19.75 19.75z" stroke="#333" fill="#1775e5"/><path d="M300 230.5v47.3a27.6 27.6 0 0 0 4.28 14.76L340 349m-40-63.2L260 349m0-98.75h80" stroke="#333" fill="none"/><path d="M260 199a8 8 0 0 1 8-8h64a8 8 0 0 1 8 8v164a8 8 0 0 1-8 8h-64a8 8 0 0 1-8-8z" fill="none"/><use xlink:href="#c" transform="matrix(1,0,0,1,180,349) translate(63.50617283950616 14.555555555555555)"/><use xlink:href="#d" transform="matrix(1,0,0,1,180,349) translate(124.59259259259258 14.555555555555555)"/><path d="M453.15 76a8 8 0 0 1 8-8h836.75a8 8 0 0 1 8 8v25.16a8 8 0 0 1-8 8H461.15a8 8 0 0 1-8-8z" stroke="#000" stroke-opacity="0" stroke-width="2" fill="#fff" fill-opacity="0"/><use xlink:href="#e" transform="matrix(1,0,0,1,457.14655278534315,72) translate(295.75506172839505 25.782777777777778)"/><use xlink:href="#f" transform="matrix(1,0,0,1,457.14655278534315,72) translate(407.63654320987655 25.782777777777778)"/><path d="M725.02 107.8h318.26M725.04 107.8h-1.02M1043.26 107.8h1.02" stroke="#a9afb8" stroke-width="2" fill="none"/><path d="M1439.75 210.75c0 10.9-8.84 19.75-19.75 19.75-10.9 0-19.75-8.84-19.75-19.75 0-10.9 8.84-19.75 19.75-19.75 10.9 0 19.75 8.84 19.75 19.75z" stroke="#333" fill="#008a0e"/><path d="M1420 230.5v47.3a27.6 27.6 0 0 0 4.28 14.76L1460 349m-40-63.2l-40 63.2m0-98.75h80" stroke="#333" fill="none"/><path d="M1380 199a8 8 0 0 1 8-8h64a8 8 0 0 1 8 8v164a8 8 0 0 1-8 8h-64a8 8 0 0 1-8-8z" fill="none"/><use xlink:href="#g" transform="matrix(1,0,0,1,1300,349) translate(84.07499999999999 14.6)"/><path d="M1519.75 210.75c0 10.9-8.84 19.75-19.75 19.75-10.9 0-19.75-8.84-19.75-19.75 0-10.9 8.84-19.75 19.75-19.75 10.9 0 19.75 8.84 19.75 19.75z" stroke="#333" fill="#008a0e"/><path d="M1500 230.5v47.3a27.6 27.6 0 0 0 4.28 14.76L1540 349m-40-63.2l-40 63.2m0-98.75h80" stroke="#333" fill="none"/><path d="M1460 199a8 8 0 0 1 8-8h64a8 8 0 0 1 8 8v164a8 8 0 0 1-8 8h-64a8 8 0 0 1-8-8z" fill="none"/><use xlink:href="#h" transform="matrix(1,0,0,1,1380,349) translate(82.07499999999999 14.6)"/><path d="M340 348.56v10.13m0 10.1v20.25m0 10.12v20.25m0 10.12v20.24m0 10.12v20.24m0 10.13v20.24m0 10.13v20.24m0 10.12v20.24m0 10.12v20.24m0 10.12v20.25m0 10.12v20.23m0 10.12v20.25m0 10.12v20.24m0 10.12v20.24m0 10.13v20.24m0 10.1v20.25m0 10.13v20.24m0 10.12v20.24m0 10.12v20.25m0 10.12v20.24m0 10.13v20.25m0 10.12v20.24m0 10.12v20.24m0 10.13v20.24m0 10.12v20.23m0 10.13v20.24m0 10.12v20.24m0 10.12v20.25m0 10.12v20.24m0 10.1v20.26m0 10.12v10.12" stroke="#333" fill="none"/><path stroke="#333" stroke-width=".05" fill="#333"/><path d="M340 1259.5v.5" stroke="#333" fill="none"/><path d="M858.15 476H340.5" stroke="#3a414a" fill="none"/><path d="M872.92 476l-14.27 4.63v-9.27z" stroke="#3a414a" fill="#3a414a"/><path d="M340.5 476h-.5" stroke="#3a414a" fill="none"/><use xlink:href="#i" transform="matrix(1,0,0,1,446.7938345324609,450.39799999999923) translate(0.0049999999999954525 14.4)"/><use xlink:href="#j" transform="matrix(1,0,0,1,446.7938345324609,450.39799999999923) translate(219.80499999999998 14.4)"/><path d="M858.15 553H340.5" stroke="#3a414a" fill="none"/><path d="M872.92 553l-14.27 4.64v-9.27z" stroke="#3a414a" fill="#3a414a"/><path d="M340.5 553h-.5" stroke="#3a414a" fill="none"/><use xlink:href="#k" transform="matrix(1,0,0,1,356.04380982468894,522.7660075056941) translate(0.0049999999999954525 14.4)"/><use xlink:href="#l" transform="matrix(1,0,0,1,356.04380982468894,522.7660075056941) translate(274.75499999999994 14.4)"/><use xlink:href="#m" transform="matrix(1,0,0,1,356.04380982468894,522.7660075056941) translate(432.7049999999999 14.4)"/><path d="M858.15 617.07H340.5" stroke="#3a414a" fill="none"/><path d="M872.92 617.07l-14.27 4.63v-9.27z" stroke="#3a414a" fill="#3a414a"/><path d="M340.5 617.07h-.5" stroke="#3a414a" fill="none"/><use xlink:href="#n" transform="matrix(1,0,0,1,495.06882132408293,591.4646666666672) translate(0.0049999999999954525 14.4)"/><use xlink:href="#o" transform="matrix(1,0,0,1,495.06882132408293,591.4646666666672) translate(154.655 14.4)"/><path d="M858.15 680H340.5" stroke="#3a414a" fill="none"/><path d="M872.92 680l-14.27 4.63v-9.26z" stroke="#3a414a" fill="#3a414a"/><path d="M340.5 680h-.5" stroke="#3a414a" fill="none"/><use xlink:href="#p" transform="matrix(1,0,0,1,435.7438335251368,654.3990002912608) translate(0.0049999999999954525 14.4)"/><use xlink:href="#q" transform="matrix(1,0,0,1,435.7438335251368,654.3990002912608) translate(238.35499999999996 14.4)"/><path d="M319.75 814.25c0 10.9-8.84 19.75-19.75 19.75-10.9 0-19.75-8.85-19.75-19.75S289.1 794.5 300 794.5c10.9 0 19.75 8.84 19.75 19.75z" stroke="#333" fill="#cc4e00"/><path d="M300 834v47.3a27.6 27.6 0 0 0 4.28 14.76L340 952.5m-40-63.2l-40 63.2m0-98.75h80" stroke="#333" fill="none"/><path d="M260 802.5a8 8 0 0 1 8-8h64a8 8 0 0 1 8 8v164a8 8 0 0 1-8 8h-64a8 8 0 0 1-8-8z" fill="none"/><use xlink:href="#r" transform="matrix(1,0,0,1,180,952.4961036727149) translate(77.77777777777777 14.555555555555555)"/><path d="M858.15 1140.4H340.5" stroke="#3a414a" fill="none"/><path d="M872.92 1140.4l-14.27 4.64v-9.27z" stroke="#3a414a" fill="#3a414a"/><path d="M340.5 1140.4h-.5" stroke="#3a414a" fill="none"/><use xlink:href="#s" transform="matrix(1,0,0,1,428.3688518554212,1114.8067467747353) translate(0.0049999999999954525 14.4)"/><use xlink:href="#t" transform="matrix(1,0,0,1,428.3688518554212,1114.8067467747353) translate(195.55499999999998 14.4)"/><use xlink:href="#u" transform="matrix(1,0,0,1,428.3688518554212,1114.8067467747353) translate(242.505 14.4)"/><use xlink:href="#v" transform="matrix(1,0,0,1,428.3688518554212,1114.8067467747353) translate(269.405 14.4)"/><path d="M858.15 1199.1H340.5" stroke="#3a414a" fill="none"/><path d="M872.92 1199.1l-14.27 4.62v-9.27z" stroke="#3a414a" fill="#3a414a"/><path d="M340.5 1199.1h-.5" stroke="#3a414a" fill="none"/><use xlink:href="#w" transform="matrix(1,0,0,1,433.1438636867804,1173.487727186922) translate(0.0049999999999954525 14.4)"/><use xlink:href="#x" transform="matrix(1,0,0,1,433.1438636867804,1173.487727186922) translate(175.655 14.4)"/><path d="M858.15 879.65H340.5" stroke="#3a414a" fill="none"/><path d="M872.92 879.65l-14.27 4.63V875z" stroke="#3a414a" fill="#3a414a"/><path d="M340.5 879.65h-.5" stroke="#3a414a" fill="none"/><g><use xlink:href="#y" transform="matrix(1,0,0,1,541.4688366429502,854.0475832575021) translate(0.0049999999999954525 14.4)"/></g><path d="M858.15 941.06H340.5" stroke="#3a414a" fill="none"/><path d="M872.92 941.06l-14.27 4.64v-9.28z" stroke="#3a414a" fill="#3a414a"/><path d="M340.5 941.06h-.5" stroke="#3a414a" fill="none"/><g><use xlink:href="#z" transform="matrix(1,0,0,1,547.3938626680869,915.4590195172324) translate(0.005000000000002558 14.4)"/></g><path d="M1459.86 720H931.92M1459.84 720h.52" stroke="#3a414a" fill="none"/><path d="M917.16 720l14.26-4.63v9.26z" stroke="#3a414a" fill="#3a414a"/><g><use xlink:href="#A" transform="matrix(1,0,0,1,936.7214300030546,694.4) translate(0.0049999999999954525 14.4)"/><use xlink:href="#B" transform="matrix(1,0,0,1,936.7214300030546,694.4) translate(274.75499999999994 14.4)"/><use xlink:href="#C" transform="matrix(1,0,0,1,936.7214300030546,694.4) translate(432.7049999999999 14.4)"/></g><g><use xlink:href="#D" transform="matrix(1,0,0,1,1446.8553053476198,694.4) translate(0 14.4)"/></g><defs><path fill="#333" d="M175 0l-63-112-37 21L58 0H6l48-248h52L83-135l134-113h65L150-139 232 0h-57" id="E"/><path fill="#333" d="M240-76C239 26 104-5 6 0l48-248c79 4 193-21 193 58 0 38-25 53-57 60 29 5 49 21 50 54zm-45-106c0-40-58-24-96-27l-12 61c45-3 108 12 108-34zm-7 105c0-44-65-31-109-33L66-38c51-3 122 14 122-39" id="F"/><path fill="#333" d="M157-208L117 0H65l40-208H25l8-40h212l-8 40h-80" id="G"/><g id="a"><use transform="matrix(0.04938271604938272,0,0,0.04938271604938272,0,0)" xlink:href="#E"/><use transform="matrix(0.04938271604938272,0,0,0.04938271604938272,12.790123456790125,0)" xlink:href="#F"/><use transform="matrix(0.04938271604938272,0,0,0.04938271604938272,25.58024691358025,0)" xlink:href="#G"/><path fill="#333" d="M-.9.95h43.12v1.87H-.88z"/></g><path fill="#333" d="M161-211c-63 0-91 46-91 110 0 39 17 65 58 64 38-1 60-20 74-45l40 20C220-23 184 0 125 4 9 13-10-144 57-208c33-50 166-62 196-1 4 8 9 18 11 27l-48 12c-6-24-25-41-55-41" id="H"/><path fill="#333" d="M124-194c51 0 84 22 84 74C207-44 167 4 94 4 43 4 11-23 11-74c0-74 41-120 113-120zM99-30c46 0 58-42 58-86 0-27-11-44-37-44-44 0-55 40-57 84-1 27 10 45 36 46" id="I"/><path fill="#333" d="M151-194c95 0 34 128 28 194h-49l25-134c0-29-45-25-59-9C67-111 69-48 56 0H6l36-190h47l-4 32c15-20 33-36 66-36" id="J"/><path fill="#333" d="M72-63c-8 23 5 39 32 30L98-1C54 14 12-6 23-64l18-93H15l7-33h28l24-45h31l-8 45h35l-6 33H90" id="K"/><path fill="#333" d="M84-151c13-25 34-51 72-40l-8 41C67-170 71-64 56 0H6l36-190h47" id="L"/><path fill="#333" d="M166-52c-4 17 5 29 24 23l-3 27c-30 11-74 1-67-34C105-15 91 4 56 4 23 4 3-15 2-49c0-64 63-67 128-67 10-22 3-53-29-45-13 3-22 10-25 24l-46-5c5-64 156-77 153 0-1 33-11 60-17 90zM97-88c-44-9-64 57-19 57 31 0 42-28 47-57H97" id="M"/><path fill="#333" d="M67-101c-8 29-7 73 27 71 23-2 32-16 39-37l48 9C170-19 141 4 91 4 36 4 7-28 12-86c6-75 61-124 140-103 26 7 40 29 43 59l-50 4c-1-20-9-34-29-34-35 0-41 29-49 59" id="N"/><g id="b"><use transform="matrix(0.04938271604938272,0,0,0.04938271604938272,0,0)" xlink:href="#H"/><use transform="matrix(0.04938271604938272,0,0,0.04938271604938272,12.790123456790125,0)" xlink:href="#I"/><use transform="matrix(0.04938271604938272,0,0,0.04938271604938272,23.60493827160494,0)" xlink:href="#J"/><use transform="matrix(0.04938271604938272,0,0,0.04938271604938272,34.41975308641975,0)" xlink:href="#K"/><use transform="matrix(0.04938271604938272,0,0,0.04938271604938272,40.2962962962963,0)" xlink:href="#L"/><use transform="matrix(0.04938271604938272,0,0,0.04938271604938272,47.20987654320988,0)" xlink:href="#M"/><use transform="matrix(0.04938271604938272,0,0,0.04938271604938272,57.086419753086425,0)" xlink:href="#N"/><use transform="matrix(0.04938271604938272,0,0,0.04938271604938272,66.96296296296296,0)" xlink:href="#K"/><path fill="#333" d="M-.9.95h74.63v1.87H-.9z"/></g><path fill="#1775e5" d="M168 0l21-106H79L58 0H6l48-248h52l-19 99h110l19-99h50L218 0h-50" id="O"/><path fill="#1775e5" d="M124-194c51 0 84 22 84 74C207-44 167 4 94 4 43 4 11-23 11-74c0-74 41-120 113-120zM99-30c46 0 58-42 58-86 0-27-11-44-37-44-44 0-55 40-57 84-1 27 10 45 36 46" id="P"/><path fill="#1775e5" d="M6 0l51-261h49L55 0H6" id="Q"/><path fill="#1775e5" d="M132-28C118-9 101 4 69 4 30 4 10-23 10-62c0-70 24-129 92-132 31-1 47 14 56 35l19-102h49L179 0h-49zM62-69c0 22 7 39 29 39 45-2 54-45 57-90 2-27-10-40-33-40-44 0-53 48-53 91" id="R"/><path fill="#1775e5" d="M114-194c63-2 87 48 72 110H63c-3 28 1 55 31 54 21-1 32-13 37-29l44 13C160-14 137 4 91 4 41 4 11-22 11-73c0-71 33-119 103-121zm30 77c14-47-50-61-67-22-3 6-6 13-8 22h75" id="S"/><path fill="#1775e5" d="M84-151c13-25 34-51 72-40l-8 41C67-170 71-64 56 0H6l36-190h47" id="T"/><g id="c"><use transform="matrix(0.04938271604938272,0,0,0.04938271604938272,0,0)" xlink:href="#O"/><use transform="matrix(0.04938271604938272,0,0,0.04938271604938272,12.790123456790125,0)" xlink:href="#P"/><use transform="matrix(0.04938271604938272,0,0,0.04938271604938272,23.60493827160494,0)" xlink:href="#Q"/><use transform="matrix(0.04938271604938272,0,0,0.04938271604938272,28.543209876543212,0)" xlink:href="#R"/><use transform="matrix(0.04938271604938272,0,0,0.04938271604938272,39.358024691358025,0)" xlink:href="#S"/><use transform="matrix(0.04938271604938272,0,0,0.04938271604938272,49.23456790123457,0)" xlink:href="#T"/></g><path fill="#1775e5" d="M253 0h-61l-6-196c-25 68-54 131-82 196H42L26-248h50l7 204 86-204h55l8 204 82-204h51" id="U"/><path fill="#1775e5" d="M166-52c-4 17 5 29 24 23l-3 27c-30 11-74 1-67-34C105-15 91 4 56 4 23 4 3-15 2-49c0-64 63-67 128-67 10-22 3-53-29-45-13 3-22 10-25 24l-46-5c5-64 156-77 153 0-1 33-11 60-17 90zM97-88c-44-9-64 57-19 57 31 0 42-28 47-57H97" id="V"/><path fill="#1775e5" d="M72-63c-8 23 5 39 32 30L98-1C54 14 12-6 23-64l18-93H15l7-33h28l24-45h31l-8 45h35l-6 33H90" id="W"/><g id="d"><use transform="matrix(0.04938271604938272,0,0,0.04938271604938272,0,0)" xlink:href="#U"/><use transform="matrix(0.04938271604938272,0,0,0.04938271604938272,16.39506172839506,0)" xlink:href="#V"/><use transform="matrix(0.04938271604938272,0,0,0.04938271604938272,26.271604938271608,0)" xlink:href="#Q"/><use transform="matrix(0.04938271604938272,0,0,0.04938271604938272,31.20987654320988,0)" xlink:href="#Q"/><use transform="matrix(0.04938271604938272,0,0,0.04938271604938272,36.14814814814815,0)" xlink:href="#S"/><use transform="matrix(0.04938271604938272,0,0,0.04938271604938272,46.0246913580247,0)" xlink:href="#W"/></g><path fill="#a9afb8" d="M195 0l-88-114-31 24V0H24v-248h52v113l112-113h60L142-143 257 0h-62" id="X"/><path fill="#a9afb8" d="M182-130c37 4 62 22 62 59C244 23 116-4 24 0v-248c84 5 203-23 205 63 0 31-19 50-47 55zM76-148c40-3 101 13 101-30 0-44-60-28-101-31v61zm0 110c48-3 116 14 116-37 0-48-69-32-116-35v72" id="Y"/><path fill="#a9afb8" d="M136-208V0H84v-208H4v-40h212v40h-80" id="Z"/><path fill="#a9afb8" d="M14-72v-43h91v43H14" id="aa"/><path fill="#a9afb8" d="M52 0c1-96 47-148 87-207H15v-41h169v40c-36 62-79 113-81 208H52" id="ab"/><path fill="#a9afb8" d="M182-182c0 78-84 86-111 141h115V0H12c-6-101 99-100 120-180 1-22-12-31-33-32-23 0-32 14-35 34l-49-3c5-45 32-70 84-70 51 0 83 22 83 69" id="ac"/><path fill="#a9afb8" d="M23 0v-37h61v-169l-59 37v-38l62-41h46v211h57V0H23" id="ad"/><g id="e"><use transform="matrix(0.0728395061728395,0,0,0.0728395061728395,0,0)" xlink:href="#X"/><use transform="matrix(0.0728395061728395,0,0,0.0728395061728395,18.86543209876543,0)" xlink:href="#Y"/><use transform="matrix(0.0728395061728395,0,0,0.0728395061728395,37.73086419753086,0)" xlink:href="#Z"/><use transform="matrix(0.0728395061728395,0,0,0.0728395061728395,52.22592592592593,0)" xlink:href="#aa"/><use transform="matrix(0.0728395061728395,0,0,0.0728395061728395,60.89382716049382,0)" xlink:href="#ab"/><use transform="matrix(0.0728395061728395,0,0,0.0728395061728395,75.46172839506173,0)" xlink:href="#ac"/><use transform="matrix(0.0728395061728395,0,0,0.0728395061728395,90.02962962962962,0)" xlink:href="#ad"/></g><path fill="#a9afb8" d="M24 0v-248h52V0H24" id="ae"/><path fill="#a9afb8" d="M135-194c87-1 58 113 63 194h-50c-7-57 23-157-34-157-59 0-34 97-39 157H25l-1-190h47c2 12-1 28 3 38 12-26 28-41 61-42" id="af"/><path fill="#a9afb8" d="M115-3C79 11 28 4 28-45v-112H4v-33h27l15-45h31v45h36v33H77v99c-1 23 16 31 38 25v30" id="ag"/><path fill="#a9afb8" d="M185-48c-13 30-37 53-82 52C43 2 14-33 14-96s30-98 90-98c62 0 83 45 84 108H66c0 31 8 55 39 56 18 0 30-7 34-22zm-45-69c5-46-57-63-70-21-2 6-4 13-4 21h74" id="ah"/><path fill="#a9afb8" d="M135-150c-39-12-60 13-60 57V0H25l-1-190h47c2 13-1 29 3 40 6-28 27-53 61-41v41" id="ai"/><path fill="#a9afb8" d="M133-34C117-15 103 5 69 4 32 3 11-16 11-54c-1-60 55-63 116-61 1-26-3-47-28-47-18 1-26 9-28 27l-52-2c7-38 36-58 82-57s74 22 75 68l1 82c-1 14 12 18 25 15v27c-30 8-71 5-69-32zm-48 3c29 0 43-24 42-57-32 0-66-3-65 30 0 17 8 27 23 27" id="aj"/><path fill="#a9afb8" d="M190-63c-7 42-38 67-86 67-59 0-84-38-90-98-12-110 154-137 174-36l-49 2c-2-19-15-32-35-32-30 0-35 28-38 64-6 74 65 87 74 30" id="ak"/><path fill="#a9afb8" d="M25-224v-37h50v37H25zM25 0v-190h50V0H25" id="al"/><path fill="#a9afb8" d="M110-194c64 0 96 36 96 99 0 64-35 99-97 99-61 0-95-36-95-99 0-62 34-99 96-99zm-1 164c35 0 45-28 45-65 0-40-10-65-43-65-34 0-45 26-45 65 0 36 10 65 43 65" id="am"/><path fill="#a9afb8" d="M137-138c1-29-70-34-71-4 15 46 118 7 119 86 1 83-164 76-172 9l43-7c4 19 20 25 44 25 33 8 57-30 24-41C81-84 22-81 20-136c-2-80 154-74 161-7" id="an"/><g id="f"><use transform="matrix(0.0728395061728395,0,0,0.0728395061728395,0,0)" xlink:href="#ae"/><use transform="matrix(0.0728395061728395,0,0,0.0728395061728395,7.28395061728395,0)" xlink:href="#af"/><use transform="matrix(0.0728395061728395,0,0,0.0728395061728395,23.235802469135802,0)" xlink:href="#ag"/><use transform="matrix(0.0728395061728395,0,0,0.0728395061728395,31.90370370370371,0)" xlink:href="#ah"/><use transform="matrix(0.0728395061728395,0,0,0.0728395061728395,46.471604938271604,0)" xlink:href="#ai"/><use transform="matrix(0.0728395061728395,0,0,0.0728395061728395,56.669135802469135,0)" xlink:href="#aj"/><use transform="matrix(0.0728395061728395,0,0,0.0728395061728395,71.23703703703704,0)" xlink:href="#ak"/><use transform="matrix(0.0728395061728395,0,0,0.0728395061728395,85.80493827160494,0)" xlink:href="#ag"/><use transform="matrix(0.0728395061728395,0,0,0.0728395061728395,94.47283950617286,0)" xlink:href="#al"/><use transform="matrix(0.0728395061728395,0,0,0.0728395061728395,101.75679012345678,0)" xlink:href="#am"/><use transform="matrix(0.0728395061728395,0,0,0.0728395061728395,117.70864197530865,0)" xlink:href="#af"/><use transform="matrix(0.0728395061728395,0,0,0.0728395061728395,133.6604938271605,0)" xlink:href="#an"/></g><path fill="#008a0e" d="M169-182c-1-43-94-46-97-3 18 66 151 10 154 114 3 95-165 93-204 36-6-8-10-19-12-30l50-8c3 46 112 56 116 5-17-69-150-10-154-114-4-87 153-88 188-35 5 8 8 18 10 28" id="ao"/><path fill="#008a0e" d="M135-194c53 0 70 44 70 98 0 56-19 98-73 100-31 1-45-17-59-34 3 33 2 69 2 105H25l-1-265h48c2 10 0 23 3 31 11-24 29-35 60-35zM114-30c33 0 39-31 40-66 0-38-9-64-40-64-56 0-55 130 0 130" id="ap"/><path fill="#008a0e" d="M185-48c-13 30-37 53-82 52C43 2 14-33 14-96s30-98 90-98c62 0 83 45 84 108H66c0 31 8 55 39 56 18 0 30-7 34-22zm-45-69c5-46-57-63-70-21-2 6-4 13-4 21h74" id="aq"/><path fill="#008a0e" d="M135-194c87-1 58 113 63 194h-50c-7-57 23-157-34-157-59 0-34 97-39 157H25l-1-190h47c2 12-1 28 3 38 12-26 28-41 61-42" id="ar"/><path fill="#008a0e" d="M88-194c31-1 46 15 58 34l-1-101h50l1 261h-48c-2-10 0-23-3-31C134-8 116 4 84 4 32 4 16-41 15-95c0-56 19-97 73-99zm17 164c33 0 40-30 41-66 1-37-9-64-41-64s-38 30-39 65c0 43 13 65 39 65" id="as"/><path fill="#008a0e" d="M135-150c-39-12-60 13-60 57V0H25l-1-190h47c2 13-1 29 3 40 6-28 27-53 61-41v41" id="at"/><g id="g"><use transform="matrix(0.05,0,0,0.05,0,0)" xlink:href="#ao"/><use transform="matrix(0.05,0,0,0.05,12,0)" xlink:href="#ap"/><use transform="matrix(0.05,0,0,0.05,22.950000000000003,0)" xlink:href="#aq"/><use transform="matrix(0.05,0,0,0.05,32.95,0)" xlink:href="#ar"/><use transform="matrix(0.05,0,0,0.05,43.900000000000006,0)" xlink:href="#as"/><use transform="matrix(0.05,0,0,0.05,54.85,0)" xlink:href="#aq"/><use transform="matrix(0.05,0,0,0.05,64.85000000000001,0)" xlink:href="#at"/></g><path fill="#008a0e" d="M140-251c80 0 125 45 125 126S219 4 139 4C58 4 15-44 15-125s44-126 125-126zm-1 214c52 0 73-35 73-88 0-50-21-86-72-86-52 0-73 35-73 86s22 88 72 88" id="au"/><path fill="#008a0e" d="M133-34C117-15 103 5 69 4 32 3 11-16 11-54c-1-60 55-63 116-61 1-26-3-47-28-47-18 1-26 9-28 27l-52-2c7-38 36-58 82-57s74 22 75 68l1 82c-1 14 12 18 25 15v27c-30 8-71 5-69-32zm-48 3c29 0 43-24 42-57-32 0-66-3-65 30 0 17 8 27 23 27" id="av"/><path fill="#008a0e" d="M115-3C79 11 28 4 28-45v-112H4v-33h27l15-45h31v45h36v33H77v99c-1 23 16 31 38 25v30" id="aw"/><path fill="#008a0e" d="M110-194c64 0 96 36 96 99 0 64-35 99-97 99-61 0-95-36-95-99 0-62 34-99 96-99zm-1 164c35 0 45-28 45-65 0-40-10-65-43-65-34 0-45 26-45 65 0 36 10 65 43 65" id="ax"/><g id="h"><use transform="matrix(0.05,0,0,0.05,0,0)" xlink:href="#au"/><use transform="matrix(0.05,0,0,0.05,14,0)" xlink:href="#ap"/><use transform="matrix(0.05,0,0,0.05,24.950000000000003,0)" xlink:href="#aq"/><use transform="matrix(0.05,0,0,0.05,34.95,0)" xlink:href="#at"/><use transform="matrix(0.05,0,0,0.05,41.95,0)" xlink:href="#av"/><use transform="matrix(0.05,0,0,0.05,51.95,0)" xlink:href="#aw"/><use transform="matrix(0.05,0,0,0.05,57.900000000000006,0)" xlink:href="#ax"/><use transform="matrix(0.05,0,0,0.05,68.85000000000001,0)" xlink:href="#at"/></g><path fill="#1775e5" d="M133-34C117-15 103 5 69 4 32 3 11-16 11-54c-1-60 55-63 116-61 1-26-3-47-28-47-18 1-26 9-28 27l-52-2c7-38 36-58 82-57s74 22 75 68l1 82c-1 14 12 18 25 15v27c-30 8-71 5-69-32zm-48 3c29 0 43-24 42-57-32 0-66-3-65 30 0 17 8 27 23 27" id="ay"/><path fill="#1775e5" d="M88-194c31-1 46 15 58 34l-1-101h50l1 261h-48c-2-10 0-23-3-31C134-8 116 4 84 4 32 4 16-41 15-95c0-56 19-97 73-99zm17 164c33 0 40-30 41-66 1-37-9-64-41-64s-38 30-39 65c0 43 13 65 39 65" id="az"/><path fill="#1775e5" d="M182-130c37 4 62 22 62 59C244 23 116-4 24 0v-248c84 5 203-23 205 63 0 31-19 50-47 55zM76-148c40-3 101 13 101-30 0-44-60-28-101-31v61zm0 110c48-3 116 14 116-37 0-48-69-32-116-35v72" id="aA"/><path fill="#1775e5" d="M25-224v-37h50v37H25zM25 0v-190h50V0H25" id="aB"/><path fill="#1775e5" d="M135-194c87-1 58 113 63 194h-50c-7-57 23-157-34-157-59 0-34 97-39 157H25l-1-190h47c2 12-1 28 3 38 12-26 28-41 61-42" id="aC"/><path fill="#1775e5" d="M195-6C206 82 75 100 31 46c-4-6-6-13-8-21l49-6c3 16 16 24 34 25 40 0 42-37 40-79-11 22-30 35-61 35-53 0-70-43-70-97 0-56 18-96 73-97 30 0 46 14 59 34l2-30h47zm-90-29c32 0 41-27 41-63 0-35-9-62-40-62-32 0-39 29-40 63 0 36 9 62 39 62" id="aD"/><path fill="#1775e5" d="M137-138c1-29-70-34-71-4 15 46 118 7 119 86 1 83-164 76-172 9l43-7c4 19 20 25 44 25 33 8 57-30 24-41C81-84 22-81 20-136c-2-80 154-74 161-7" id="aE"/><path fill="#1775e5" d="M67-93c0 74 22 123 53 168H70C40 30 18-18 18-93s22-123 52-168h50c-32 44-53 94-53 168" id="aF"/><path fill="#1775e5" d="M195 0l-88-114-31 24V0H24v-248h52v113l112-113h60L142-143 257 0h-62" id="aG"/><path fill="#1775e5" d="M185-48c-13 30-37 53-82 52C43 2 14-33 14-96s30-98 90-98c62 0 83 45 84 108H66c0 31 8 55 39 56 18 0 30-7 34-22zm-45-69c5-46-57-63-70-21-2 6-4 13-4 21h74" id="aH"/><path fill="#1775e5" d="M123 10C108 53 80 86 19 72V37c35 8 53-11 59-39L3-190h52l48 148c12-52 28-100 44-148h51" id="aI"/><path fill="#1775e5" d="M275 0h-61l-44-196L126 0H64L0-248h53L97-49l45-199h58l43 199 44-199h52" id="aJ"/><path fill="#1775e5" d="M25 0v-261h50V0H25" id="aK"/><path fill="#1775e5" d="M115-3C79 11 28 4 28-45v-112H4v-33h27l15-45h31v45h36v33H77v99c-1 23 16 31 38 25v30" id="aL"/><path fill="#1775e5" d="M23 0v-37h61v-169l-59 37v-38l62-41h46v211h57V0H23" id="aM"/><path fill="#1775e5" d="M76-54c-1 42 2 86-19 110H24C36 42 46 24 48 0H25v-54h51" id="aN"/><g id="i"><use transform="matrix(0.05,0,0,0.05,0,0)" xlink:href="#ay"/><use transform="matrix(0.05,0,0,0.05,10,0)" xlink:href="#az"/><use transform="matrix(0.05,0,0,0.05,20.950000000000003,0)" xlink:href="#az"/><use transform="matrix(0.05,0,0,0.05,31.900000000000006,0)" xlink:href="#aA"/><use transform="matrix(0.05,0,0,0.05,44.85000000000001,0)" xlink:href="#aB"/><use transform="matrix(0.05,0,0,0.05,49.85000000000001,0)" xlink:href="#aC"/><use transform="matrix(0.05,0,0,0.05,60.80000000000001,0)" xlink:href="#az"/><use transform="matrix(0.05,0,0,0.05,71.75000000000001,0)" xlink:href="#aB"/><use transform="matrix(0.05,0,0,0.05,76.75000000000001,0)" xlink:href="#aC"/><use transform="matrix(0.05,0,0,0.05,87.70000000000002,0)" xlink:href="#aD"/><use transform="matrix(0.05,0,0,0.05,98.65000000000002,0)" xlink:href="#aE"/><use transform="matrix(0.05,0,0,0.05,108.65000000000003,0)" xlink:href="#aF"/><use transform="matrix(0.05,0,0,0.05,114.60000000000002,0)" xlink:href="#aG"/><use transform="matrix(0.05,0,0,0.05,127.55000000000003,0)" xlink:href="#aH"/><use transform="matrix(0.05,0,0,0.05,137.55,0)" xlink:href="#aI"/><use transform="matrix(0.05,0,0,0.05,147.55,0)" xlink:href="#aJ"/><use transform="matrix(0.05,0,0,0.05,163.85,0)" xlink:href="#ay"/><use transform="matrix(0.05,0,0,0.05,173.85,0)" xlink:href="#aK"/><use transform="matrix(0.05,0,0,0.05,178.85,0)" xlink:href="#aK"/><use transform="matrix(0.05,0,0,0.05,183.85,0)" xlink:href="#aH"/><use transform="matrix(0.05,0,0,0.05,193.85,0)" xlink:href="#aL"/><use transform="matrix(0.05,0,0,0.05,199.79999999999998,0)" xlink:href="#aM"/><use transform="matrix(0.05,0,0,0.05,209.79999999999995,0)" xlink:href="#aN"/></g><path fill="#1775e5" d="M182-182c0 78-84 86-111 141h115V0H12c-6-101 99-100 120-180 1-22-12-31-33-32-23 0-32 14-35 34l-49-3c5-45 32-70 84-70 51 0 83 22 83 69" id="aO"/><path fill="#1775e5" d="M102-93c0 74-22 123-52 168H0C30 29 54-18 53-93c0-74-22-123-53-168h50c30 45 52 94 52 168" id="aP"/><g id="j"><use transform="matrix(0.05,0,0,0.05,0,0)" xlink:href="#aG"/><use transform="matrix(0.05,0,0,0.05,12.950000000000001,0)" xlink:href="#aH"/><use transform="matrix(0.05,0,0,0.05,22.950000000000003,0)" xlink:href="#aI"/><use transform="matrix(0.05,0,0,0.05,32.95,0)" xlink:href="#aJ"/><use transform="matrix(0.05,0,0,0.05,49.25,0)" xlink:href="#ay"/><use transform="matrix(0.05,0,0,0.05,59.25,0)" xlink:href="#aK"/><use transform="matrix(0.05,0,0,0.05,64.25,0)" xlink:href="#aK"/><use transform="matrix(0.05,0,0,0.05,69.25,0)" xlink:href="#aH"/><use transform="matrix(0.05,0,0,0.05,79.25,0)" xlink:href="#aL"/><use transform="matrix(0.05,0,0,0.05,85.2,0)" xlink:href="#aO"/><use transform="matrix(0.05,0,0,0.05,95.2,0)" xlink:href="#aP"/></g><path fill="#1775e5" d="M121-226c-27-7-43 5-38 36h38v33H83V0H34v-157H6v-33h28c-9-59 32-81 87-68v32" id="aQ"/><path fill="#1775e5" d="M136-208V0H84v-208H4v-40h212v40h-80" id="aR"/><path fill="#1775e5" d="M135-150c-39-12-60 13-60 57V0H25l-1-190h47c2 13-1 29 3 40 6-28 27-53 61-41v41" id="aS"/><path fill="#1775e5" d="M76-208v77h127v40H76V0H24v-248h183v40H76" id="aT"/><path fill="#1775e5" d="M110-194c64 0 96 36 96 99 0 64-35 99-97 99-61 0-95-36-95-99 0-62 34-99 96-99zm-1 164c35 0 45-28 45-65 0-40-10-65-43-65-34 0-45 26-45 65 0 36 10 65 43 65" id="aU"/><path fill="#1775e5" d="M220-157c-53 9-28 100-34 157h-49v-107c1-27-5-49-29-50C55-147 81-57 75 0H25l-1-190h47c2 12-1 28 3 38 10-53 101-56 108 0 13-22 24-43 59-42 82 1 51 116 57 194h-49v-107c-1-25-5-48-29-50" id="aV"/><path fill="#1775e5" d="M114-157C55-157 80-60 75 0H25v-261h50l-1 109c12-26 28-41 61-42 86-1 58 113 63 194h-50c-7-57 23-157-34-157" id="aW"/><g id="k"><use transform="matrix(0.05,0,0,0.05,0,0)" xlink:href="#aE"/><use transform="matrix(0.05,0,0,0.05,10,0)" xlink:href="#ay"/><use transform="matrix(0.05,0,0,0.05,20,0)" xlink:href="#aQ"/><use transform="matrix(0.05,0,0,0.05,25.950000000000003,0)" xlink:href="#aH"/><use transform="matrix(0.05,0,0,0.05,35.95,0)" xlink:href="#aR"/><use transform="matrix(0.05,0,0,0.05,45.900000000000006,0)" xlink:href="#aS"/><use transform="matrix(0.05,0,0,0.05,52.900000000000006,0)" xlink:href="#ay"/><use transform="matrix(0.05,0,0,0.05,62.900000000000006,0)" xlink:href="#aC"/><use transform="matrix(0.05,0,0,0.05,73.85000000000001,0)" xlink:href="#aE"/><use transform="matrix(0.05,0,0,0.05,83.85000000000001,0)" xlink:href="#aQ"/><use transform="matrix(0.05,0,0,0.05,89.80000000000001,0)" xlink:href="#aH"/><use transform="matrix(0.05,0,0,0.05,99.80000000000001,0)" xlink:href="#aS"/><use transform="matrix(0.05,0,0,0.05,106.80000000000001,0)" xlink:href="#aT"/><use transform="matrix(0.05,0,0,0.05,117.75,0)" xlink:href="#aS"/><use transform="matrix(0.05,0,0,0.05,124.75,0)" xlink:href="#aU"/><use transform="matrix(0.05,0,0,0.05,135.70000000000002,0)" xlink:href="#aV"/><use transform="matrix(0.05,0,0,0.05,151.70000000000002,0)" xlink:href="#aF"/><use transform="matrix(0.05,0,0,0.05,157.65,0)" xlink:href="#aW"/><use transform="matrix(0.05,0,0,0.05,168.6,0)" xlink:href="#aU"/><use transform="matrix(0.05,0,0,0.05,179.54999999999998,0)" xlink:href="#aK"/><use transform="matrix(0.05,0,0,0.05,184.54999999999998,0)" xlink:href="#az"/><use transform="matrix(0.05,0,0,0.05,195.49999999999997,0)" xlink:href="#aH"/><use transform="matrix(0.05,0,0,0.05,205.49999999999997,0)" xlink:href="#aS"/><use transform="matrix(0.05,0,0,0.05,212.49999999999997,0)" xlink:href="#aJ"/><use transform="matrix(0.05,0,0,0.05,228.79999999999995,0)" xlink:href="#ay"/><use transform="matrix(0.05,0,0,0.05,238.79999999999995,0)" xlink:href="#aK"/><use transform="matrix(0.05,0,0,0.05,243.79999999999995,0)" xlink:href="#aK"/><use transform="matrix(0.05,0,0,0.05,248.79999999999995,0)" xlink:href="#aH"/><use transform="matrix(0.05,0,0,0.05,258.79999999999995,0)" xlink:href="#aL"/><use transform="matrix(0.05,0,0,0.05,264.74999999999994,0)" xlink:href="#aN"/></g><g id="l"><use transform="matrix(0.05,0,0,0.05,0,0)" xlink:href="#az"/><use transform="matrix(0.05,0,0,0.05,10.950000000000001,0)" xlink:href="#aH"/><use transform="matrix(0.05,0,0,0.05,20.950000000000003,0)" xlink:href="#aE"/><use transform="matrix(0.05,0,0,0.05,30.950000000000003,0)" xlink:href="#aL"/><use transform="matrix(0.05,0,0,0.05,36.900000000000006,0)" xlink:href="#aB"/><use transform="matrix(0.05,0,0,0.05,41.900000000000006,0)" xlink:href="#aC"/><use transform="matrix(0.05,0,0,0.05,52.85,0)" xlink:href="#ay"/><use transform="matrix(0.05,0,0,0.05,62.85,0)" xlink:href="#aL"/><use transform="matrix(0.05,0,0,0.05,68.80000000000001,0)" xlink:href="#aB"/><use transform="matrix(0.05,0,0,0.05,73.80000000000001,0)" xlink:href="#aU"/><use transform="matrix(0.05,0,0,0.05,84.75000000000001,0)" xlink:href="#aC"/><use transform="matrix(0.05,0,0,0.05,95.70000000000002,0)" xlink:href="#aJ"/><use transform="matrix(0.05,0,0,0.05,112,0)" xlink:href="#ay"/><use transform="matrix(0.05,0,0,0.05,122,0)" xlink:href="#aK"/><use transform="matrix(0.05,0,0,0.05,127,0)" xlink:href="#aK"/><use transform="matrix(0.05,0,0,0.05,132,0)" xlink:href="#aH"/><use transform="matrix(0.05,0,0,0.05,142,0)" xlink:href="#aL"/><use transform="matrix(0.05,0,0,0.05,147.95,0)" xlink:href="#aN"/></g><path fill="#1775e5" d="M147 0L96-86 75-71V0H25v-261h50v150l67-79h53l-66 74L201 0h-54" id="aX"/><path fill="#1775e5" d="M24 0v-248h52V0H24" id="aY"/><g id="m"><use transform="matrix(0.05,0,0,0.05,0,0)" xlink:href="#aL"/><use transform="matrix(0.05,0,0,0.05,5.95,0)" xlink:href="#aU"/><use transform="matrix(0.05,0,0,0.05,16.900000000000002,0)" xlink:href="#aX"/><use transform="matrix(0.05,0,0,0.05,26.900000000000002,0)" xlink:href="#aH"/><use transform="matrix(0.05,0,0,0.05,36.900000000000006,0)" xlink:href="#aC"/><use transform="matrix(0.05,0,0,0.05,47.85000000000001,0)" xlink:href="#aY"/><use transform="matrix(0.05,0,0,0.05,52.85,0)" xlink:href="#az"/><use transform="matrix(0.05,0,0,0.05,63.80000000000001,0)" xlink:href="#aP"/></g><path fill="#1775e5" d="M135-194c53 0 70 44 70 98 0 56-19 98-73 100-31 1-45-17-59-34 3 33 2 69 2 105H25l-1-265h48c2 10 0 23 3 31 11-24 29-35 60-35zM114-30c33 0 39-31 40-66 0-38-9-64-40-64-56 0-55 130 0 130" id="aZ"/><path fill="#1775e5" d="M128 0H69L1-190h53L99-40l48-150h52" id="ba"/><g id="n"><use transform="matrix(0.05,0,0,0.05,0,0)" xlink:href="#ay"/><use transform="matrix(0.05,0,0,0.05,10,0)" xlink:href="#aZ"/><use transform="matrix(0.05,0,0,0.05,20.950000000000003,0)" xlink:href="#aZ"/><use transform="matrix(0.05,0,0,0.05,31.900000000000006,0)" xlink:href="#aS"/><use transform="matrix(0.05,0,0,0.05,38.900000000000006,0)" xlink:href="#aU"/><use transform="matrix(0.05,0,0,0.05,49.85000000000001,0)" xlink:href="#ba"/><use transform="matrix(0.05,0,0,0.05,59.85,0)" xlink:href="#aH"/><use transform="matrix(0.05,0,0,0.05,69.85000000000001,0)" xlink:href="#aF"/><use transform="matrix(0.05,0,0,0.05,75.80000000000001,0)" xlink:href="#aE"/><use transform="matrix(0.05,0,0,0.05,85.80000000000001,0)" xlink:href="#aZ"/><use transform="matrix(0.05,0,0,0.05,96.75000000000001,0)" xlink:href="#aH"/><use transform="matrix(0.05,0,0,0.05,106.75,0)" xlink:href="#aC"/><use transform="matrix(0.05,0,0,0.05,117.7,0)" xlink:href="#az"/><use transform="matrix(0.05,0,0,0.05,128.65,0)" xlink:href="#aH"/><use transform="matrix(0.05,0,0,0.05,138.65,0)" xlink:href="#aS"/><use transform="matrix(0.05,0,0,0.05,144.65,0)" xlink:href="#aN"/></g><g id="o"><use transform="matrix(0.05,0,0,0.05,0,0)" xlink:href="#aL"/><use transform="matrix(0.05,0,0,0.05,5.95,0)" xlink:href="#aU"/><use transform="matrix(0.05,0,0,0.05,16.900000000000002,0)" xlink:href="#aX"/><use transform="matrix(0.05,0,0,0.05,26.900000000000002,0)" xlink:href="#aH"/><use transform="matrix(0.05,0,0,0.05,36.900000000000006,0)" xlink:href="#aC"/><use transform="matrix(0.05,0,0,0.05,47.85000000000001,0)" xlink:href="#aY"/><use transform="matrix(0.05,0,0,0.05,52.85,0)" xlink:href="#az"/><use transform="matrix(0.05,0,0,0.05,63.80000000000001,0)" xlink:href="#aP"/></g><path fill="#1775e5" d="M199 0l-22-63H83L61 0H9l90-248h61L250 0h-51zm-33-102l-36-108c-10 38-24 72-36 108h72" id="bb"/><g id="p"><use transform="matrix(0.05,0,0,0.05,0,0)" xlink:href="#aE"/><use transform="matrix(0.05,0,0,0.05,10,0)" xlink:href="#aH"/><use transform="matrix(0.05,0,0,0.05,20,0)" xlink:href="#aL"/><use transform="matrix(0.05,0,0,0.05,25.950000000000003,0)" xlink:href="#bb"/><use transform="matrix(0.05,0,0,0.05,38.9,0)" xlink:href="#aZ"/><use transform="matrix(0.05,0,0,0.05,49.85,0)" xlink:href="#aZ"/><use transform="matrix(0.05,0,0,0.05,60.800000000000004,0)" xlink:href="#aS"/><use transform="matrix(0.05,0,0,0.05,67.80000000000001,0)" xlink:href="#aU"/><use transform="matrix(0.05,0,0,0.05,78.75000000000001,0)" xlink:href="#ba"/><use transform="matrix(0.05,0,0,0.05,88.75000000000001,0)" xlink:href="#aH"/><use transform="matrix(0.05,0,0,0.05,98.75000000000001,0)" xlink:href="#aT"/><use transform="matrix(0.05,0,0,0.05,109.7,0)" xlink:href="#aU"/><use transform="matrix(0.05,0,0,0.05,120.65000000000003,0)" xlink:href="#aS"/><use transform="matrix(0.05,0,0,0.05,127.65000000000003,0)" xlink:href="#bb"/><use transform="matrix(0.05,0,0,0.05,140.60000000000002,0)" xlink:href="#aK"/><use transform="matrix(0.05,0,0,0.05,145.60000000000002,0)" xlink:href="#aK"/><use transform="matrix(0.05,0,0,0.05,150.60000000000002,0)" xlink:href="#aF"/><use transform="matrix(0.05,0,0,0.05,156.55,0)" xlink:href="#aU"/><use transform="matrix(0.05,0,0,0.05,167.5,0)" xlink:href="#aZ"/><use transform="matrix(0.05,0,0,0.05,178.45,0)" xlink:href="#aH"/><use transform="matrix(0.05,0,0,0.05,188.45,0)" xlink:href="#aS"/><use transform="matrix(0.05,0,0,0.05,195.45,0)" xlink:href="#ay"/><use transform="matrix(0.05,0,0,0.05,205.44999999999996,0)" xlink:href="#aL"/><use transform="matrix(0.05,0,0,0.05,211.39999999999998,0)" xlink:href="#aU"/><use transform="matrix(0.05,0,0,0.05,222.34999999999997,0)" xlink:href="#aS"/><use transform="matrix(0.05,0,0,0.05,228.34999999999997,0)" xlink:href="#aN"/></g><g id="q"><use transform="matrix(0.05,0,0,0.05,0,0)" xlink:href="#aB"/><use transform="matrix(0.05,0,0,0.05,5,0)" xlink:href="#aE"/><use transform="matrix(0.05,0,0,0.05,15,0)" xlink:href="#bb"/><use transform="matrix(0.05,0,0,0.05,27.950000000000003,0)" xlink:href="#aZ"/><use transform="matrix(0.05,0,0,0.05,38.900000000000006,0)" xlink:href="#aZ"/><use transform="matrix(0.05,0,0,0.05,49.85000000000001,0)" xlink:href="#aS"/><use transform="matrix(0.05,0,0,0.05,56.85,0)" xlink:href="#aU"/><use transform="matrix(0.05,0,0,0.05,67.80000000000001,0)" xlink:href="#ba"/><use transform="matrix(0.05,0,0,0.05,77.80000000000001,0)" xlink:href="#aH"/><use transform="matrix(0.05,0,0,0.05,87.80000000000001,0)" xlink:href="#az"/><use transform="matrix(0.05,0,0,0.05,98.75000000000001,0)" xlink:href="#aP"/></g><path fill="#cc4e00" d="M175 0l-63-112-37 21L58 0H6l48-248h52L83-135l134-113h65L150-139 232 0h-57" id="bc"/><path fill="#cc4e00" d="M114-194c63-2 87 48 72 110H63c-3 28 1 55 31 54 21-1 32-13 37-29l44 13C160-14 137 4 91 4 41 4 11-22 11-73c0-71 33-119 103-121zm30 77c14-47-50-61-67-22-3 6-6 13-8 22h75" id="bd"/><path fill="#cc4e00" d="M100 10C77 47 50 87-15 72l7-35c37 9 51-18 65-41L20-190h51L89-44l73-146h53" id="be"/><path fill="#cc4e00" d="M253 0h-61l-6-196c-25 68-54 131-82 196H42L26-248h50l7 204 86-204h55l8 204 82-204h51" id="bf"/><path fill="#cc4e00" d="M166-52c-4 17 5 29 24 23l-3 27c-30 11-74 1-67-34C105-15 91 4 56 4 23 4 3-15 2-49c0-64 63-67 128-67 10-22 3-53-29-45-13 3-22 10-25 24l-46-5c5-64 156-77 153 0-1 33-11 60-17 90zM97-88c-44-9-64 57-19 57 31 0 42-28 47-57H97" id="bg"/><path fill="#cc4e00" d="M6 0l51-261h49L55 0H6" id="bh"/><path fill="#cc4e00" d="M72-63c-8 23 5 39 32 30L98-1C54 14 12-6 23-64l18-93H15l7-33h28l24-45h31l-8 45h35l-6 33H90" id="bi"/><g id="r"><use transform="matrix(0.04938271604938272,0,0,0.04938271604938272,0,0)" xlink:href="#bc"/><use transform="matrix(0.04938271604938272,0,0,0.04938271604938272,12.790123456790125,0)" xlink:href="#bd"/><use transform="matrix(0.04938271604938272,0,0,0.04938271604938272,22.66666666666667,0)" xlink:href="#be"/><use transform="matrix(0.04938271604938272,0,0,0.04938271604938272,32.543209876543216,0)" xlink:href="#bf"/><use transform="matrix(0.04938271604938272,0,0,0.04938271604938272,48.93827160493828,0)" xlink:href="#bg"/><use transform="matrix(0.04938271604938272,0,0,0.04938271604938272,58.81481481481482,0)" xlink:href="#bh"/><use transform="matrix(0.04938271604938272,0,0,0.04938271604938272,63.75308641975309,0)" xlink:href="#bh"/><use transform="matrix(0.04938271604938272,0,0,0.04938271604938272,68.69135802469137,0)" xlink:href="#bd"/><use transform="matrix(0.04938271604938272,0,0,0.04938271604938272,78.56790123456791,0)" xlink:href="#bi"/></g><path fill="#cc4e00" d="M133-34C117-15 103 5 69 4 32 3 11-16 11-54c-1-60 55-63 116-61 1-26-3-47-28-47-18 1-26 9-28 27l-52-2c7-38 36-58 82-57s74 22 75 68l1 82c-1 14 12 18 25 15v27c-30 8-71 5-69-32zm-48 3c29 0 43-24 42-57-32 0-66-3-65 30 0 17 8 27 23 27" id="bj"/><path fill="#cc4e00" d="M25 0v-261h50V0H25" id="bk"/><path fill="#cc4e00" d="M110-194c64 0 96 36 96 99 0 64-35 99-97 99-61 0-95-36-95-99 0-62 34-99 96-99zm-1 164c35 0 45-28 45-65 0-40-10-65-43-65-34 0-45 26-45 65 0 36 10 65 43 65" id="bl"/><path fill="#cc4e00" d="M231 0h-52l-39-155L100 0H48L-1-190h46L77-45c9-52 24-97 36-145h53l37 145 32-145h46" id="bm"/><path fill="#cc4e00" d="M136-208V0H84v-208H4v-40h212v40h-80" id="bn"/><path fill="#cc4e00" d="M135-150c-39-12-60 13-60 57V0H25l-1-190h47c2 13-1 29 3 40 6-28 27-53 61-41v41" id="bo"/><path fill="#cc4e00" d="M135-194c87-1 58 113 63 194h-50c-7-57 23-157-34-157-59 0-34 97-39 157H25l-1-190h47c2 12-1 28 3 38 12-26 28-41 61-42" id="bp"/><path fill="#cc4e00" d="M137-138c1-29-70-34-71-4 15 46 118 7 119 86 1 83-164 76-172 9l43-7c4 19 20 25 44 25 33 8 57-30 24-41C81-84 22-81 20-136c-2-80 154-74 161-7" id="bq"/><path fill="#cc4e00" d="M121-226c-27-7-43 5-38 36h38v33H83V0H34v-157H6v-33h28c-9-59 32-81 87-68v32" id="br"/><path fill="#cc4e00" d="M185-48c-13 30-37 53-82 52C43 2 14-33 14-96s30-98 90-98c62 0 83 45 84 108H66c0 31 8 55 39 56 18 0 30-7 34-22zm-45-69c5-46-57-63-70-21-2 6-4 13-4 21h74" id="bs"/><path fill="#cc4e00" d="M67-93c0 74 22 123 53 168H70C40 30 18-18 18-93s22-123 52-168h50c-32 44-53 94-53 168" id="bt"/><path fill="#cc4e00" d="M115-3C79 11 28 4 28-45v-112H4v-33h27l15-45h31v45h36v33H77v99c-1 23 16 31 38 25v30" id="bu"/><path fill="#cc4e00" d="M147 0L96-86 75-71V0H25v-261h50v150l67-79h53l-66 74L201 0h-54" id="bv"/><path fill="#cc4e00" d="M24 0v-248h52V0H24" id="bw"/><path fill="#cc4e00" d="M88-194c31-1 46 15 58 34l-1-101h50l1 261h-48c-2-10 0-23-3-31C134-8 116 4 84 4 32 4 16-41 15-95c0-56 19-97 73-99zm17 164c33 0 40-30 41-66 1-37-9-64-41-64s-38 30-39 65c0 43 13 65 39 65" id="bx"/><path fill="#cc4e00" d="M76-54c-1 42 2 86-19 110H24C36 42 46 24 48 0H25v-54h51" id="by"/><g id="s"><use transform="matrix(0.05,0,0,0.05,0,0)" xlink:href="#bj"/><use transform="matrix(0.05,0,0,0.05,10,0)" xlink:href="#bk"/><use transform="matrix(0.05,0,0,0.05,15,0)" xlink:href="#bk"/><use transform="matrix(0.05,0,0,0.05,20,0)" xlink:href="#bl"/><use transform="matrix(0.05,0,0,0.05,30.950000000000003,0)" xlink:href="#bm"/><use transform="matrix(0.05,0,0,0.05,44.95,0)" xlink:href="#bn"/><use transform="matrix(0.05,0,0,0.05,54.900000000000006,0)" xlink:href="#bo"/><use transform="matrix(0.05,0,0,0.05,61.900000000000006,0)" xlink:href="#bj"/><use transform="matrix(0.05,0,0,0.05,71.9,0)" xlink:href="#bp"/><use transform="matrix(0.05,0,0,0.05,82.85000000000001,0)" xlink:href="#bq"/><use transform="matrix(0.05,0,0,0.05,92.85000000000001,0)" xlink:href="#br"/><use transform="matrix(0.05,0,0,0.05,98.80000000000001,0)" xlink:href="#bs"/><use transform="matrix(0.05,0,0,0.05,108.80000000000001,0)" xlink:href="#bo"/><use transform="matrix(0.05,0,0,0.05,115.80000000000001,0)" xlink:href="#bt"/><use transform="matrix(0.05,0,0,0.05,121.75,0)" xlink:href="#bu"/><use transform="matrix(0.05,0,0,0.05,127.7,0)" xlink:href="#bl"/><use transform="matrix(0.05,0,0,0.05,138.65,0)" xlink:href="#bv"/><use transform="matrix(0.05,0,0,0.05,148.65,0)" xlink:href="#bs"/><use transform="matrix(0.05,0,0,0.05,158.65,0)" xlink:href="#bp"/><use transform="matrix(0.05,0,0,0.05,169.6,0)" xlink:href="#bw"/><use transform="matrix(0.05,0,0,0.05,174.6,0)" xlink:href="#bx"/><use transform="matrix(0.05,0,0,0.05,185.54999999999998,0)" xlink:href="#by"/></g><path fill="#cc4e00" d="M25-224v-37h50v37H25zM25 0v-190h50V0H25" id="bz"/><path fill="#cc4e00" d="M220-157c-53 9-28 100-34 157h-49v-107c1-27-5-49-29-50C55-147 81-57 75 0H25l-1-190h47c2 12-1 28 3 38 10-53 101-56 108 0 13-22 24-43 59-42 82 1 51 116 57 194h-49v-107c-1-25-5-48-29-50" id="bA"/><g id="t"><use transform="matrix(0.05,0,0,0.05,0,0)" xlink:href="#bu"/><use transform="matrix(0.05,0,0,0.05,5.95,0)" xlink:href="#bz"/><use transform="matrix(0.05,0,0,0.05,10.95,0)" xlink:href="#bA"/><use transform="matrix(0.05,0,0,0.05,26.950000000000003,0)" xlink:href="#bs"/><use transform="matrix(0.05,0,0,0.05,36.95,0)" xlink:href="#by"/></g><g id="u"><use transform="matrix(0.05,0,0,0.05,0,0)" xlink:href="#bu"/><use transform="matrix(0.05,0,0,0.05,5.95,0)" xlink:href="#bl"/><use transform="matrix(0.05,0,0,0.05,16.900000000000002,0)" xlink:href="#by"/></g><path fill="#cc4e00" d="M123 10C108 53 80 86 19 72V37c35 8 53-11 59-39L3-190h52l48 148c12-52 28-100 44-148h51" id="bB"/><path fill="#cc4e00" d="M102-93c0 74-22 123-52 168H0C30 29 54-18 53-93c0-74-22-123-53-168h50c30 45 52 94 52 168" id="bC"/><g id="v"><use transform="matrix(0.05,0,0,0.05,0,0)" xlink:href="#bj"/><use transform="matrix(0.05,0,0,0.05,10,0)" xlink:href="#bp"/><use transform="matrix(0.05,0,0,0.05,20.950000000000003,0)" xlink:href="#bB"/><use transform="matrix(0.05,0,0,0.05,30.950000000000003,0)" xlink:href="#bn"/><use transform="matrix(0.05,0,0,0.05,40.550000000000004,0)" xlink:href="#bl"/><use transform="matrix(0.05,0,0,0.05,51.5,0)" xlink:href="#bv"/><use transform="matrix(0.05,0,0,0.05,61.5,0)" xlink:href="#bs"/><use transform="matrix(0.05,0,0,0.05,71.5,0)" xlink:href="#bp"/><use transform="matrix(0.05,0,0,0.05,82.45,0)" xlink:href="#bC"/></g><path fill="#cc4e00" d="M199 0l-22-63H83L61 0H9l90-248h61L250 0h-51zm-33-102l-36-108c-10 38-24 72-36 108h72" id="bD"/><path fill="#cc4e00" d="M135-194c53 0 70 44 70 98 0 56-19 98-73 100-31 1-45-17-59-34 3 33 2 69 2 105H25l-1-265h48c2 10 0 23 3 31 11-24 29-35 60-35zM114-30c33 0 39-31 40-66 0-38-9-64-40-64-56 0-55 130 0 130" id="bE"/><path fill="#cc4e00" d="M128 0H69L1-190h53L99-40l48-150h52" id="bF"/><g id="w"><use transform="matrix(0.05,0,0,0.05,0,0)" xlink:href="#bj"/><use transform="matrix(0.05,0,0,0.05,10,0)" xlink:href="#bk"/><use transform="matrix(0.05,0,0,0.05,15,0)" xlink:href="#bk"/><use transform="matrix(0.05,0,0,0.05,20,0)" xlink:href="#bl"/><use transform="matrix(0.05,0,0,0.05,30.950000000000003,0)" xlink:href="#bm"/><use transform="matrix(0.05,0,0,0.05,44.95,0)" xlink:href="#bD"/><use transform="matrix(0.05,0,0,0.05,57.900000000000006,0)" xlink:href="#bE"/><use transform="matrix(0.05,0,0,0.05,68.85000000000001,0)" xlink:href="#bE"/><use transform="matrix(0.05,0,0,0.05,79.80000000000001,0)" xlink:href="#bo"/><use transform="matrix(0.05,0,0,0.05,86.80000000000001,0)" xlink:href="#bl"/><use transform="matrix(0.05,0,0,0.05,97.75000000000001,0)" xlink:href="#bF"/><use transform="matrix(0.05,0,0,0.05,107.75,0)" xlink:href="#bj"/><use transform="matrix(0.05,0,0,0.05,117.75,0)" xlink:href="#bk"/><use transform="matrix(0.05,0,0,0.05,122.75,0)" xlink:href="#bt"/><use transform="matrix(0.05,0,0,0.05,128.70000000000002,0)" xlink:href="#bu"/><use transform="matrix(0.05,0,0,0.05,134.65,0)" xlink:href="#bz"/><use transform="matrix(0.05,0,0,0.05,139.65,0)" xlink:href="#bA"/><use transform="matrix(0.05,0,0,0.05,155.65,0)" xlink:href="#bs"/><use transform="matrix(0.05,0,0,0.05,165.65,0)" xlink:href="#by"/></g><path fill="#cc4e00" d="M85 4C-2 5 27-109 22-190h50c7 57-23 150 33 157 60-5 35-97 40-157h50l1 190h-47c-2-12 1-28-3-38-12 25-28 42-61 42" id="bG"/><path fill="#cc4e00" d="M135-194c52 0 70 43 70 98 0 56-19 99-73 100-30 1-46-15-58-35L72 0H24l1-261h50v104c11-23 29-37 60-37zM114-30c31 0 40-27 40-66 0-37-7-63-39-63s-41 28-41 65c0 36 8 64 40 64" id="bH"/><path fill="#cc4e00" d="M140-251c80 0 125 45 125 126S219 4 139 4C58 4 15-44 15-125s44-126 125-126zm-1 214c52 0 73-35 73-88 0-50-21-86-72-86-52 0-73 35-73 86s22 88 72 88" id="bI"/><g id="x"><use transform="matrix(0.05,0,0,0.05,0,0)" xlink:href="#bp"/><use transform="matrix(0.05,0,0,0.05,10.950000000000001,0)" xlink:href="#bG"/><use transform="matrix(0.05,0,0,0.05,21.900000000000002,0)" xlink:href="#bA"/><use transform="matrix(0.05,0,0,0.05,37.900000000000006,0)" xlink:href="#bH"/><use transform="matrix(0.05,0,0,0.05,48.85000000000001,0)" xlink:href="#bs"/><use transform="matrix(0.05,0,0,0.05,58.85,0)" xlink:href="#bo"/><use transform="matrix(0.05,0,0,0.05,65.85000000000001,0)" xlink:href="#bI"/><use transform="matrix(0.05,0,0,0.05,79.85000000000001,0)" xlink:href="#br"/><use transform="matrix(0.05,0,0,0.05,85.80000000000001,0)" xlink:href="#bn"/><use transform="matrix(0.05,0,0,0.05,95.75000000000001,0)" xlink:href="#bo"/><use transform="matrix(0.05,0,0,0.05,102.75,0)" xlink:href="#bj"/><use transform="matrix(0.05,0,0,0.05,112.75,0)" xlink:href="#bp"/><use transform="matrix(0.05,0,0,0.05,123.7,0)" xlink:href="#bq"/><use transform="matrix(0.05,0,0,0.05,133.70000000000002,0)" xlink:href="#br"/><use transform="matrix(0.05,0,0,0.05,139.65,0)" xlink:href="#bs"/><use transform="matrix(0.05,0,0,0.05,149.65,0)" xlink:href="#bo"/><use transform="matrix(0.05,0,0,0.05,156.65,0)" xlink:href="#bq"/><use transform="matrix(0.05,0,0,0.05,166.65,0)" xlink:href="#bC"/></g><path fill="#cc4e00" d="M182-130c37 4 62 22 62 59C244 23 116-4 24 0v-248c84 5 203-23 205 63 0 31-19 50-47 55zM76-148c40-3 101 13 101-30 0-44-60-28-101-31v61zm0 110c48-3 116 14 116-37 0-48-69-32-116-35v72" id="bJ"/><path fill="#cc4e00" d="M195-6C206 82 75 100 31 46c-4-6-6-13-8-21l49-6c3 16 16 24 34 25 40 0 42-37 40-79-11 22-30 35-61 35-53 0-70-43-70-97 0-56 18-96 73-97 30 0 46 14 59 34l2-30h47zm-90-29c32 0 41-27 41-63 0-35-9-62-40-62-32 0-39 29-40 63 0 36 9 62 39 62" id="bK"/><g id="y"><use transform="matrix(0.05,0,0,0.05,0,0)" xlink:href="#bo"/><use transform="matrix(0.05,0,0,0.05,7,0)" xlink:href="#bs"/><use transform="matrix(0.05,0,0,0.05,17,0)" xlink:href="#bq"/><use transform="matrix(0.05,0,0,0.05,27,0)" xlink:href="#bs"/><use transform="matrix(0.05,0,0,0.05,37,0)" xlink:href="#bu"/><use transform="matrix(0.05,0,0,0.05,42.95,0)" xlink:href="#bJ"/><use transform="matrix(0.05,0,0,0.05,55.900000000000006,0)" xlink:href="#bz"/><use transform="matrix(0.05,0,0,0.05,60.900000000000006,0)" xlink:href="#bp"/><use transform="matrix(0.05,0,0,0.05,71.85000000000001,0)" xlink:href="#bx"/><use transform="matrix(0.05,0,0,0.05,82.80000000000001,0)" xlink:href="#bz"/><use transform="matrix(0.05,0,0,0.05,87.80000000000001,0)" xlink:href="#bp"/><use transform="matrix(0.05,0,0,0.05,98.75000000000001,0)" xlink:href="#bK"/><use transform="matrix(0.05,0,0,0.05,109.7,0)" xlink:href="#bq"/><use transform="matrix(0.05,0,0,0.05,119.7,0)" xlink:href="#bt"/><use transform="matrix(0.05,0,0,0.05,125.65000000000003,0)" xlink:href="#bC"/></g><path fill="#cc4e00" d="M76-208v77h127v40H76V0H24v-248h183v40H76" id="bL"/><path fill="#cc4e00" d="M190-63c-7 42-38 67-86 67-59 0-84-38-90-98-12-110 154-137 174-36l-49 2c-2-19-15-32-35-32-30 0-35 28-38 64-6 74 65 87 74 30" id="bM"/><g id="z"><use transform="matrix(0.05,0,0,0.05,0,0)" xlink:href="#bq"/><use transform="matrix(0.05,0,0,0.05,10,0)" xlink:href="#bj"/><use transform="matrix(0.05,0,0,0.05,20,0)" xlink:href="#br"/><use transform="matrix(0.05,0,0,0.05,25.950000000000003,0)" xlink:href="#bs"/><use transform="matrix(0.05,0,0,0.05,35.95,0)" xlink:href="#bL"/><use transform="matrix(0.05,0,0,0.05,46.900000000000006,0)" xlink:href="#bj"/><use transform="matrix(0.05,0,0,0.05,56.900000000000006,0)" xlink:href="#bk"/><use transform="matrix(0.05,0,0,0.05,61.900000000000006,0)" xlink:href="#bk"/><use transform="matrix(0.05,0,0,0.05,66.9,0)" xlink:href="#bH"/><use transform="matrix(0.05,0,0,0.05,77.85000000000001,0)" xlink:href="#bj"/><use transform="matrix(0.05,0,0,0.05,87.85000000000001,0)" xlink:href="#bM"/><use transform="matrix(0.05,0,0,0.05,97.85000000000001,0)" xlink:href="#bv"/><use transform="matrix(0.05,0,0,0.05,107.85000000000001,0)" xlink:href="#bt"/><use transform="matrix(0.05,0,0,0.05,113.80000000000001,0)" xlink:href="#bC"/></g><path fill="#008a0e" d="M137-138c1-29-70-34-71-4 15 46 118 7 119 86 1 83-164 76-172 9l43-7c4 19 20 25 44 25 33 8 57-30 24-41C81-84 22-81 20-136c-2-80 154-74 161-7" id="bN"/><path fill="#008a0e" d="M121-226c-27-7-43 5-38 36h38v33H83V0H34v-157H6v-33h28c-9-59 32-81 87-68v32" id="bO"/><path fill="#008a0e" d="M136-208V0H84v-208H4v-40h212v40h-80" id="bP"/><path fill="#008a0e" d="M76-208v77h127v40H76V0H24v-248h183v40H76" id="bQ"/><path fill="#008a0e" d="M220-157c-53 9-28 100-34 157h-49v-107c1-27-5-49-29-50C55-147 81-57 75 0H25l-1-190h47c2 12-1 28 3 38 10-53 101-56 108 0 13-22 24-43 59-42 82 1 51 116 57 194h-49v-107c-1-25-5-48-29-50" id="bR"/><path fill="#008a0e" d="M67-93c0 74 22 123 53 168H70C40 30 18-18 18-93s22-123 52-168h50c-32 44-53 94-53 168" id="bS"/><path fill="#008a0e" d="M114-157C55-157 80-60 75 0H25v-261h50l-1 109c12-26 28-41 61-42 86-1 58 113 63 194h-50c-7-57 23-157-34-157" id="bT"/><path fill="#008a0e" d="M25 0v-261h50V0H25" id="bU"/><path fill="#008a0e" d="M275 0h-61l-44-196L126 0H64L0-248h53L97-49l45-199h58l43 199 44-199h52" id="bV"/><path fill="#008a0e" d="M76-54c-1 42 2 86-19 110H24C36 42 46 24 48 0H25v-54h51" id="bW"/><g id="A"><use transform="matrix(0.05,0,0,0.05,0,0)" xlink:href="#bN"/><use transform="matrix(0.05,0,0,0.05,10,0)" xlink:href="#av"/><use transform="matrix(0.05,0,0,0.05,20,0)" xlink:href="#bO"/><use transform="matrix(0.05,0,0,0.05,25.950000000000003,0)" xlink:href="#aq"/><use transform="matrix(0.05,0,0,0.05,35.95,0)" xlink:href="#bP"/><use transform="matrix(0.05,0,0,0.05,45.900000000000006,0)" xlink:href="#at"/><use transform="matrix(0.05,0,0,0.05,52.900000000000006,0)" xlink:href="#av"/><use transform="matrix(0.05,0,0,0.05,62.900000000000006,0)" xlink:href="#ar"/><use transform="matrix(0.05,0,0,0.05,73.85000000000001,0)" xlink:href="#bN"/><use transform="matrix(0.05,0,0,0.05,83.85000000000001,0)" xlink:href="#bO"/><use transform="matrix(0.05,0,0,0.05,89.80000000000001,0)" xlink:href="#aq"/><use transform="matrix(0.05,0,0,0.05,99.80000000000001,0)" xlink:href="#at"/><use transform="matrix(0.05,0,0,0.05,106.80000000000001,0)" xlink:href="#bQ"/><use transform="matrix(0.05,0,0,0.05,117.75,0)" xlink:href="#at"/><use transform="matrix(0.05,0,0,0.05,124.75,0)" xlink:href="#ax"/><use transform="matrix(0.05,0,0,0.05,135.70000000000002,0)" xlink:href="#bR"/><use transform="matrix(0.05,0,0,0.05,151.70000000000002,0)" xlink:href="#bS"/><use transform="matrix(0.05,0,0,0.05,157.65,0)" xlink:href="#bT"/><use transform="matrix(0.05,0,0,0.05,168.6,0)" xlink:href="#ax"/><use transform="matrix(0.05,0,0,0.05,179.54999999999998,0)" xlink:href="#bU"/><use transform="matrix(0.05,0,0,0.05,184.54999999999998,0)" xlink:href="#as"/><use transform="matrix(0.05,0,0,0.05,195.49999999999997,0)" xlink:href="#aq"/><use transform="matrix(0.05,0,0,0.05,205.49999999999997,0)" xlink:href="#at"/><use transform="matrix(0.05,0,0,0.05,212.49999999999997,0)" xlink:href="#bV"/><use transform="matrix(0.05,0,0,0.05,228.79999999999995,0)" xlink:href="#av"/><use transform="matrix(0.05,0,0,0.05,238.79999999999995,0)" xlink:href="#bU"/><use transform="matrix(0.05,0,0,0.05,243.79999999999995,0)" xlink:href="#bU"/><use transform="matrix(0.05,0,0,0.05,248.79999999999995,0)" xlink:href="#aq"/><use transform="matrix(0.05,0,0,0.05,258.79999999999995,0)" xlink:href="#aw"/><use transform="matrix(0.05,0,0,0.05,264.74999999999994,0)" xlink:href="#bW"/></g><path fill="#008a0e" d="M25-224v-37h50v37H25zM25 0v-190h50V0H25" id="bX"/><g id="B"><use transform="matrix(0.05,0,0,0.05,0,0)" xlink:href="#as"/><use transform="matrix(0.05,0,0,0.05,10.950000000000001,0)" xlink:href="#aq"/><use transform="matrix(0.05,0,0,0.05,20.950000000000003,0)" xlink:href="#bN"/><use transform="matrix(0.05,0,0,0.05,30.950000000000003,0)" xlink:href="#aw"/><use transform="matrix(0.05,0,0,0.05,36.900000000000006,0)" xlink:href="#bX"/><use transform="matrix(0.05,0,0,0.05,41.900000000000006,0)" xlink:href="#ar"/><use transform="matrix(0.05,0,0,0.05,52.85,0)" xlink:href="#av"/><use transform="matrix(0.05,0,0,0.05,62.85,0)" xlink:href="#aw"/><use transform="matrix(0.05,0,0,0.05,68.80000000000001,0)" xlink:href="#bX"/><use transform="matrix(0.05,0,0,0.05,73.80000000000001,0)" xlink:href="#ax"/><use transform="matrix(0.05,0,0,0.05,84.75000000000001,0)" xlink:href="#ar"/><use transform="matrix(0.05,0,0,0.05,95.70000000000002,0)" xlink:href="#bV"/><use transform="matrix(0.05,0,0,0.05,112,0)" xlink:href="#av"/><use transform="matrix(0.05,0,0,0.05,122,0)" xlink:href="#bU"/><use transform="matrix(0.05,0,0,0.05,127,0)" xlink:href="#bU"/><use transform="matrix(0.05,0,0,0.05,132,0)" xlink:href="#aq"/><use transform="matrix(0.05,0,0,0.05,142,0)" xlink:href="#aw"/><use transform="matrix(0.05,0,0,0.05,147.95,0)" xlink:href="#bW"/></g><path fill="#008a0e" d="M147 0L96-86 75-71V0H25v-261h50v150l67-79h53l-66 74L201 0h-54" id="bY"/><path fill="#008a0e" d="M24 0v-248h52V0H24" id="bZ"/><path fill="#008a0e" d="M102-93c0 74-22 123-52 168H0C30 29 54-18 53-93c0-74-22-123-53-168h50c30 45 52 94 52 168" id="ca"/><g id="C"><use transform="matrix(0.05,0,0,0.05,0,0)" xlink:href="#aw"/><use transform="matrix(0.05,0,0,0.05,5.95,0)" xlink:href="#ax"/><use transform="matrix(0.05,0,0,0.05,16.900000000000002,0)" xlink:href="#bY"/><use transform="matrix(0.05,0,0,0.05,26.900000000000002,0)" xlink:href="#aq"/><use transform="matrix(0.05,0,0,0.05,36.900000000000006,0)" xlink:href="#ar"/><use transform="matrix(0.05,0,0,0.05,47.85000000000001,0)" xlink:href="#bZ"/><use transform="matrix(0.05,0,0,0.05,52.85,0)" xlink:href="#as"/><use transform="matrix(0.05,0,0,0.05,63.80000000000001,0)" xlink:href="#ca"/></g><path fill="#008a0e" d="M101-251c68 0 85 55 85 127S166 4 100 4C33 4 14-52 14-124c0-73 17-127 87-127zm-1 229c47 0 54-49 54-102s-4-102-53-102c-51 0-55 48-55 102 0 53 5 102 54 102" id="cb"/><path fill="#008a0e" d="M33 0v-38h34V0H33" id="cc"/><path fill="#008a0e" d="M80-196l47-18 7 23-49 13 32 44-20 13-27-46-27 45-21-12 33-44-49-13 8-23 47 19-2-53h23" id="cd"/><g id="D"><use transform="matrix(0.05,0,0,0.05,0,0)" xlink:href="#cb"/><use transform="matrix(0.05,0,0,0.05,10,0)" xlink:href="#cc"/><use transform="matrix(0.05,0,0,0.05,15,0)" xlink:href="#cc"/><use transform="matrix(0.05,0,0,0.05,20,0)" xlink:href="#cd"/></g></defs></g></svg>