<?xml version="1.0" standalone="no"?>
<!DOCTYPE svg PUBLIC "-//W3C//DTD SVG 20010904//EN"
 "http://www.w3.org/TR/2001/REC-SVG-20010904/DTD/svg10.dtd">
<svg version="1.0" xmlns="http://www.w3.org/2000/svg"
 width="1148.000000pt" height="1148.000000pt" viewBox="0 0 1148.000000 1148.000000"
 preserveAspectRatio="xMidYMid meet">
<metadata>
Created by potrace 1.14, written by Peter Selinger 2001-2017
</metadata>
<g transform="translate(0.000000,1148.000000) scale(0.100000,-0.100000)"
fill="#000000" stroke="none">
<path d="M5669 11465 c-1 -3 -3 -14 -4 -25 -1 -11 -3 -24 -4 -28 0 -4 -8 -17
-16 -27 -19 -24 -64 -94 -129 -200 -28 -44 -53 -82 -57 -85 -3 -3 -16 -24 -28
-47 -12 -24 -25 -43 -30 -43 -5 0 -14 -12 -20 -27 -6 -16 -49 -86 -95 -158
-105 -162 -190 -296 -195 -310 -2 -5 -7 -12 -11 -15 -4 -3 -30 -40 -56 -83
-27 -43 -60 -96 -74 -118 -14 -21 -43 -67 -64 -101 -22 -35 -67 -106 -101
-158 -34 -52 -81 -126 -106 -165 -24 -38 -47 -71 -51 -73 -5 -2 -8 -8 -8 -13
0 -6 -18 -37 -40 -69 -22 -32 -40 -62 -40 -65 0 -6 -40 -66 -51 -75 -3 -3 -20
-30 -37 -60 -18 -30 -73 -118 -123 -195 -49 -77 -108 -169 -131 -205 -22 -36
-58 -91 -79 -123 -22 -32 -39 -60 -39 -64 0 -3 -16 -28 -35 -54 -19 -27 -35
-52 -35 -55 0 -3 -12 -21 -26 -40 -15 -19 -24 -34 -20 -34 3 0 -3 -10 -14 -22
-16 -20 -113 -169 -214 -333 -17 -27 -34 -51 -38 -53 -5 -2 -8 -9 -8 -16 0 -7
-8 -21 -19 -32 -10 -11 -22 -30 -25 -42 -4 -12 -12 -22 -17 -22 -5 0 -9 -5 -9
-10 0 -12 -72 -124 -82 -128 -5 -2 -8 -8 -8 -13 0 -5 -34 -61 -75 -124 -41
-64 -75 -120 -75 -125 0 -6 -4 -10 -9 -10 -5 0 -14 -13 -21 -30 -7 -16 -16
-30 -21 -30 -5 0 -9 -6 -9 -14 0 -7 -6 -19 -14 -25 -8 -7 -21 -26 -30 -44 -19
-37 -39 -70 -46 -77 -12 -11 -130 -202 -130 -210 0 -4 -4 -10 -8 -12 -7 -3
-65 -90 -97 -146 -5 -10 -31 -49 -56 -87 -25 -39 -86 -133 -135 -210 -48 -77
-92 -143 -97 -146 -5 -3 -8 -9 -8 -13 1 -6 -25 -47 -136 -219 -35 -54 -63
-102 -63 -107 0 -6 -4 -10 -10 -10 -5 0 -10 -5 -10 -10 0 -6 -5 -16 -10 -23
-10 -12 -21 -28 -120 -187 -25 -39 -51 -78 -57 -85 -7 -8 -13 -16 -13 -19 0
-4 -28 -50 -63 -104 -35 -53 -74 -115 -87 -137 -13 -22 -27 -42 -30 -45 -6 -5
-23 -31 -85 -135 -11 -19 -30 -45 -43 -59 -18 -21 -22 -38 -22 -91 0 -36 2
-65 5 -65 2 0 15 5 29 11 25 12 32 9 187 -79 20 -11 47 -26 60 -34 13 -7 26
-15 29 -18 3 -3 19 -12 35 -20 17 -8 58 -32 93 -52 34 -21 64 -38 67 -38 2 0
58 -32 124 -70 66 -38 125 -70 131 -70 5 0 10 -4 10 -10 0 -5 6 -10 14 -10 7
0 19 -7 26 -15 7 -9 15 -14 17 -11 2 2 41 -18 86 -45 45 -27 88 -49 95 -49 6
0 12 -4 12 -10 0 -5 7 -10 15 -10 8 0 15 -4 15 -8 0 -5 16 -14 35 -22 19 -8
35 -18 35 -22 0 -5 4 -7 9 -3 5 3 12 1 15 -4 6 -8 115 -74 126 -76 3 0 16 -8
30 -17 14 -9 53 -31 87 -49 34 -19 104 -58 155 -88 51 -30 118 -67 148 -84 30
-17 67 -38 82 -49 14 -10 29 -18 32 -18 3 0 29 -14 58 -31 29 -18 76 -44 103
-59 28 -15 111 -62 185 -105 74 -42 164 -93 200 -112 36 -20 72 -41 80 -47 8
-6 29 -18 45 -27 70 -38 149 -82 299 -168 87 -50 162 -91 167 -91 5 0 9 -4 9
-10 0 -5 4 -10 9 -10 5 0 51 -24 103 -54 51 -29 113 -64 138 -78 25 -14 63
-36 85 -48 22 -13 87 -50 145 -83 168 -95 189 -107 238 -136 28 -16 48 -35 48
-47 1 -10 2 -27 3 -37 1 -18 2 -18 28 1 27 20 28 20 64 2 l36 -19 -2 35 c-1
33 2 37 57 70 33 18 62 34 64 34 3 0 18 8 32 19 15 10 50 31 77 45 28 15 77
43 110 62 33 19 71 40 85 46 14 7 27 15 30 18 7 7 35 24 91 54 25 14 66 36 90
51 24 14 52 28 62 32 9 3 17 9 17 14 0 5 6 9 13 9 7 0 29 11 50 25 20 14 37
22 37 18 0 -4 4 -3 8 2 4 6 18 16 31 23 13 8 38 22 55 31 99 56 130 73 218
125 54 31 102 56 108 56 5 0 10 4 10 9 0 5 8 11 18 15 9 3 44 21 77 41 33 19
72 40 88 46 15 6 27 15 27 20 0 5 4 9 10 9 12 0 383 211 391 223 3 5 9 8 13 8
6 -1 52 22 88 44 9 5 56 32 105 60 48 27 97 55 108 62 11 7 27 15 35 19 8 4
31 18 51 30 20 13 40 20 43 17 3 -4 6 -2 6 4 0 6 26 23 58 39 31 16 59 31 62
35 3 3 41 25 85 49 44 24 82 46 85 49 3 3 40 24 83 46 42 22 77 42 77 45 0 3
15 12 33 19 17 8 59 31 92 51 33 19 77 44 98 55 20 11 37 23 37 26 0 4 14 10
30 14 17 4 30 11 30 16 0 5 4 9 9 9 9 0 50 23 271 150 36 21 118 68 183 105
l119 67 39 -15 39 -15 0 70 c0 60 -3 71 -19 75 -10 3 -31 26 -45 51 -23 41
-142 229 -163 258 -15 20 -33 49 -40 64 -4 8 -9 17 -12 20 -9 8 -61 89 -61 95
0 8 -44 69 -52 73 -5 2 -8 8 -8 13 0 10 -5 17 -68 111 -18 25 -32 51 -32 57 0
6 -4 11 -8 11 -5 0 -15 12 -23 28 -24 46 -133 217 -141 220 -5 2 -8 7 -8 12 0
5 -22 43 -50 84 -27 42 -50 80 -50 85 0 5 -3 11 -8 13 -4 2 -36 48 -70 103
-35 55 -98 154 -140 220 -42 66 -83 133 -91 148 -8 15 -18 27 -23 27 -4 0 -8
6 -8 13 0 8 -9 22 -20 32 -11 10 -17 21 -15 26 3 4 0 11 -8 16 -7 4 -18 19
-25 33 -6 14 -34 59 -62 100 -28 41 -53 82 -58 90 -4 9 -23 40 -43 70 -94 144
-149 231 -149 240 0 4 -4 10 -8 12 -7 3 -46 61 -147 223 -22 36 -85 134 -140
220 -55 85 -116 180 -135 211 -19 31 -42 67 -50 80 -63 96 -198 309 -210 332
-8 15 -18 29 -21 32 -3 3 -50 75 -104 160 -54 85 -130 205 -170 265 -39 61
-74 117 -78 125 -6 13 -125 199 -144 226 -5 5 -12 18 -18 27 -23 38 -165 261
-242 380 -46 70 -83 131 -83 136 0 5 -4 11 -8 13 -4 2 -32 41 -61 88 -69 112
-197 312 -208 325 -4 6 -17 27 -28 48 -11 20 -23 37 -27 37 -5 0 -8 4 -8 10 0
5 -26 49 -57 97 -32 48 -62 96 -68 106 -5 9 -45 71 -87 137 -43 66 -78 125
-78 130 0 6 -3 10 -8 10 -12 0 -46 70 -45 91 2 17 -5 19 -63 19 -35 0 -65 -2
-65 -5z"/>
<path d="M2008 5017 c-43 -46 -46 -59 -18 -87 11 -11 20 -23 20 -26 0 -7 63
-88 73 -92 4 -2 7 -10 7 -18 0 -8 4 -14 9 -14 5 0 20 -17 32 -37 13 -21 31
-45 41 -54 10 -9 18 -21 18 -27 0 -6 3 -12 8 -14 5 -2 122 -153 164 -213 4 -5
21 -26 38 -46 16 -20 30 -41 30 -47 0 -6 4 -12 8 -14 5 -1 57 -68 117 -148 60
-80 114 -150 119 -157 30 -34 36 -43 36 -52 0 -5 3 -11 8 -13 4 -1 68 -84 142
-183 74 -99 137 -182 140 -185 3 -3 34 -45 70 -94 36 -48 72 -96 80 -105 8 -9
40 -50 70 -91 30 -41 58 -77 62 -78 5 -2 8 -10 8 -17 0 -7 3 -15 8 -17 4 -1
26 -28 49 -58 24 -30 46 -59 51 -65 4 -5 18 -26 32 -45 13 -19 27 -37 30 -40
5 -4 149 -195 472 -625 53 -71 101 -134 105 -140 5 -5 42 -55 83 -110 41 -55
77 -102 80 -105 3 -3 39 -50 80 -105 41 -55 78 -104 83 -110 30 -38 236 -313
254 -338 50 -72 304 -404 329 -432 16 -16 27 -32 25 -33 -2 -2 20 -32 48 -68
28 -35 51 -66 51 -69 0 -3 8 -13 18 -23 9 -11 26 -32 37 -47 11 -16 38 -52 60
-81 22 -29 49 -65 60 -80 22 -29 100 -133 113 -149 48 -60 295 -391 303 -407
6 -11 9 -29 6 -39 -5 -18 0 -20 61 -17 66 3 66 3 73 35 5 25 258 379 314 439
6 6 21 27 35 47 14 20 28 37 33 37 4 0 7 4 7 10 0 9 51 80 82 115 7 8 26 31
41 52 16 21 78 103 138 183 60 80 121 161 134 180 23 32 194 260 229 305 9 11
43 56 77 100 33 44 65 87 72 95 7 8 30 40 52 70 21 30 47 64 57 75 9 11 74 96
143 188 68 93 132 175 140 183 8 9 15 19 15 23 0 4 8 16 18 27 10 10 29 35 42
54 14 19 30 42 37 50 7 8 26 33 42 55 17 22 34 45 39 50 4 6 55 73 113 150 57
77 188 250 289 383 102 134 194 257 205 272 51 73 350 465 357 468 5 2 8 10 8
17 0 7 4 15 9 17 9 3 81 95 81 103 0 4 21 31 45 59 6 6 28 36 50 66 22 30 42
57 45 60 3 3 46 59 95 125 49 66 92 122 95 125 3 3 37 48 75 100 38 52 72 97
75 100 3 3 18 23 35 45 16 22 33 45 37 50 5 6 47 62 95 125 47 63 90 117 94
118 5 2 9 8 9 12 0 5 32 50 70 101 39 50 70 93 70 95 0 11 -80 84 -92 84 -7 0
-22 -6 -33 -14 -40 -28 -297 -176 -306 -176 -5 0 -9 -4 -9 -9 0 -5 -11 -12
-25 -15 -14 -4 -25 -11 -25 -16 0 -6 -9 -10 -19 -10 -11 0 -21 -4 -23 -8 -1
-4 -55 -38 -118 -74 -63 -36 -166 -96 -229 -132 -62 -36 -117 -66 -122 -66 -5
0 -9 -4 -9 -10 0 -5 -11 -12 -25 -16 -14 -3 -25 -10 -25 -15 0 -5 -5 -9 -10
-9 -6 0 -43 -19 -83 -43 -39 -24 -126 -75 -192 -113 -66 -38 -129 -74 -140
-81 -11 -7 -27 -15 -35 -19 -8 -4 -32 -18 -53 -31 -21 -13 -54 -33 -73 -44
-64 -36 -99 -57 -184 -107 -47 -28 -102 -59 -122 -69 -21 -10 -38 -21 -38 -25
0 -5 -4 -8 -9 -8 -5 0 -45 -21 -88 -46 -83 -50 -126 -75 -185 -108 -20 -12
-83 -48 -140 -81 -56 -33 -107 -62 -113 -64 -5 -2 -12 -7 -15 -10 -3 -3 -25
-17 -50 -30 -25 -14 -48 -29 -52 -35 -4 -6 -8 -7 -8 -3 0 4 -20 -6 -45 -23
-25 -17 -45 -27 -45 -23 0 4 -4 3 -8 -3 -4 -6 -50 -35 -102 -64 -52 -30 -102
-60 -111 -67 -9 -7 -19 -10 -22 -6 -4 3 -7 1 -7 -5 0 -7 -7 -12 -15 -12 -8 0
-15 -4 -15 -10 0 -5 -5 -10 -11 -10 -6 0 -56 -27 -111 -60 -54 -33 -101 -60
-104 -60 -2 0 -21 -11 -42 -23 -77 -49 -285 -167 -293 -167 -5 0 -9 -4 -9 -9
0 -5 -12 -14 -27 -20 -29 -11 -36 -15 -110 -64 -25 -16 -43 -23 -43 -16 0 7
-3 9 -7 6 -3 -4 -12 -2 -20 4 -19 16 -73 47 -105 62 -16 6 -28 15 -28 19 0 4
-4 8 -9 8 -5 0 -45 21 -88 46 -80 48 -114 68 -193 112 -24 14 -84 49 -133 78
-49 30 -91 54 -93 54 -3 0 -122 70 -154 90 -8 6 -26 15 -40 21 -13 5 -27 13
-30 17 -3 4 -70 45 -150 91 -170 98 -199 115 -242 140 -18 10 -89 51 -158 91
-69 40 -136 79 -150 88 -14 9 -27 17 -30 17 -3 0 -19 10 -37 23 -17 12 -33 22
-36 22 -7 0 -150 82 -157 89 -6 7 -24 17 -108 63 -31 16 -68 38 -82 48 -14 9
-29 19 -35 21 -26 10 -150 84 -153 91 -2 4 -7 8 -12 8 -5 0 -154 85 -332 188
-178 104 -350 204 -383 222 -33 18 -62 36 -65 39 -3 3 -18 13 -35 21 -16 8
-54 30 -83 48 -28 18 -60 35 -70 39 -9 3 -24 12 -32 18 -8 7 -35 24 -60 37
-25 14 -85 48 -133 77 -49 28 -92 51 -97 51 -5 0 -10 4 -12 8 -1 4 -32 24 -68
43 l-65 35 -37 -39z"/>
</g>
</svg>
