<svg xmlns="http://www.w3.org/2000/svg" xmlns:xlink="http://www.w3.org/1999/xlink" id="Layer_1" x="0" y="0" version="1.1" viewBox="0 0 595.3 841.9" xml:space="preserve" style="enable-background:new 0 0 595.3 841.9"><style type="text/css">.st0{fill:#c99d66}</style><g><path d="M410.1,329.9c20,0,39.1,0.1,58.3-0.1c4.2,0,5.6,0.4,4.8,5.3c-2.5,14.1-4.4,28.3-6.3,42.5 c-0.5,3.6-2,4.5-5.5,4.5c-28.3-0.1-56.7,0-85-0.2c-4,0-6.2,1.3-8.3,4.6c-9.6,14.8-18.6,30-26.7,45.6c-0.5,1-0.9,2.1-1.6,3.7 c2.4,0,4.1,0,5.9,0c35.5,0,71,0.1,106.5-0.1c4.5,0,6.3,0.2,5.3,5.8c-2.7,14.2-4.6,28.6-6.4,43c-0.6,4.4-2.1,5.6-6.6,5.6 c-41.2-0.2-82.3-0.1-123.5-0.2c-3.6,0-5.1,1.1-6.2,4.5c-13.7,38.9-22.8,78.9-28.7,119.6c-2.8,19.1-5.9,38.2-8.6,57.3 c-0.5,3.4-1.8,3.8-4.7,3.8c-31.8-0.1-63.7,0-95.5-0.1c-1.5,0-4.1,1.4-3.5-2.6c7.5-48.5,13-97.3,27.4-144.5 c3.8-12.5,8-24.9,12.8-37.9c-7.6,0-14.7,0-21.8,0c-14.7,0-29.3-0.2-44,0.1c-4.1,0.1-4.6-1.3-4.1-4.9c2.5-15.4,4.9-30.9,7-46.4 c0.5-3.4,2.3-3,4.5-3c12.2,0,24.3,0,36.5,0c14.2,0,28.3,0,42.5,0c2.2,0,4.1,0,5.4-2.5c9.2-17.5,20-34.1,31.5-51.4c-2.3,0-4,0-5.8,0 c-33.7,0-67.3-0.1-101,0.1c-4.4,0-5.3-1.2-4.6-5.2c2.3-14,4.6-27.9,6.3-42c0.6-4.6,2.5-5,6.4-5c44.2,0.1,88.3,0,132.5,0.2 c3.7,0,6-1.1,8.3-4c23.2-28.6,48.2-55.6,74.4-81.6c1.2-1.2,2.9-2,4.4-3c-0.3-0.5-0.7-1-1-1.5c-1.8,0-3.5,0-5.3,0 c-83.5,0-167,0-250.5,0.1c-3.9,0-5.7,0.1-4.8-5.2c3.8-23.5,7.1-47.1,10.3-70.6c0.5-4.1,2.5-4.1,5.7-4.1c82.3,0.1,164.7,0,247,0 c35.2,0,70.3,0.1,105.5-0.1c3.8,0,5,0.5,4.3,4.8c-3.7,23.7-7.1,47.4-10.4,71.1c-0.4,3-1.8,5.2-3.9,7.2 c-27.1,26.8-53,54.8-77.3,84.3C411.5,328,411.1,328.5,410.1,329.9z" class="st0"/></g></svg>