<svg xmlns="http://www.w3.org/2000/svg" xmlns:xlink="http://www.w3.org/1999/xlink" xmlns:lucid="lucid" width="1760" height="1360"><g transform="translate(0 0)" lucid:page-tab-id="5GFAErBiO9JN"><path d="M0 0h1760v1360H0z" fill="#fff"/><path d="M1340 180h360v221h-360z" stroke="#333" stroke-width="2" fill="#fff"/><path d="M1340 217.6h360m-360 102.3h360" stroke="#333" stroke-width="2" fill="none"/><use xlink:href="#a" transform="matrix(1,0,0,1,1348,188) translate(136.55 14.6)"/><use xlink:href="#b" transform="matrix(1,0,0,1,1352,225.6) translate(104.05 25.5)"/><use xlink:href="#c" transform="matrix(1,0,0,1,1352,225.6) translate(109.05 25.5)"/><use xlink:href="#d" transform="matrix(1,0,0,1,1352,225.6) translate(53.14999999999999 47.1)"/><use xlink:href="#e" transform="matrix(1,0,0,1,1352,225.6) translate(146.05 47.1)"/><use xlink:href="#f" transform="matrix(1,0,0,1,1352,225.6) translate(167 47.1)"/><use xlink:href="#g" transform="matrix(1,0,0,1,1352,225.6) translate(193 47.1)"/><use xlink:href="#h" transform="matrix(1,0,0,1,1352,225.6) translate(213.95 47.1)"/><use xlink:href="#i" transform="matrix(1,0,0,1,1352,225.6) translate(168 68.7)"/><use xlink:href="#j" transform="matrix(1,0,0,1,1352,327.9) translate(114.55 25.299999999999997)"/><use xlink:href="#k" transform="matrix(1,0,0,1,1352,327.9) translate(160.5 46.9)"/><path d="M740 189h360v203H740z" stroke="#333" stroke-width="2" fill="#fff"/><path d="M740 230.6h360m-360 80.7h360" stroke="#333" stroke-width="2" fill="none"/><use xlink:href="#l" transform="matrix(1,0,0,1,748,197) translate(142.05 17.266666666666666)"/><use xlink:href="#m" transform="matrix(1,0,0,1,752,238.60000000000002) translate(95.57499999999999 25.299999999999997)"/><use xlink:href="#n" transform="matrix(1,0,0,1,752,238.60000000000002) translate(176.475 25.299999999999997)"/><use xlink:href="#o" transform="matrix(1,0,0,1,752,238.60000000000002) translate(114.55 46.9)"/><use xlink:href="#p" transform="matrix(1,0,0,1,752,238.60000000000002) translate(157.5 46.9)"/><use xlink:href="#q" transform="matrix(1,0,0,1,752,319.3) translate(51.20000000000002 25.299999999999997)"/><use xlink:href="#r" transform="matrix(1,0,0,1,752,319.3) translate(82.19999999999999 46.9)"/><use xlink:href="#s" transform="matrix(1,0,0,1,752,319.3) translate(215 46.9)"/><path d="M980 648.75h360v156H980z" stroke="#333" stroke-width="2" fill="#fff"/><path d="M980 686.35h360m-360 59.1h360" stroke="#333" stroke-width="2" fill="none"/><use xlink:href="#t" transform="matrix(1,0,0,1,988,656.75) translate(140.05 14.6)"/><use xlink:href="#m" transform="matrix(1,0,0,1,992,694.35) translate(95.57499999999999 25.6)"/><use xlink:href="#p" transform="matrix(1,0,0,1,992,694.35) translate(176.475 25.6)"/><use xlink:href="#u" transform="matrix(1,0,0,1,992,753.45) translate(67.625 25.6)"/><use xlink:href="#v" transform="matrix(1,0,0,1,992,753.45) translate(136.525 25.6)"/><use xlink:href="#w" transform="matrix(1,0,0,1,992,753.45) translate(196.425 25.6)"/><path d="M980 956.75h360v199H980z" stroke="#333" stroke-width="2" fill="#fff"/><path d="M980 994.35h360m-360 80.7h360" stroke="#333" stroke-width="2" fill="none"/><use xlink:href="#x" transform="matrix(1,0,0,1,988,964.75) translate(132.525 14.6)"/><use xlink:href="#y" transform="matrix(1,0,0,1,992,1002.35) translate(87.57499999999999 25.299999999999997)"/><use xlink:href="#n" transform="matrix(1,0,0,1,992,1002.35) translate(184.475 25.299999999999997)"/><use xlink:href="#z" transform="matrix(1,0,0,1,992,1002.35) translate(94.1 46.9)"/><use xlink:href="#p" transform="matrix(1,0,0,1,992,1002.35) translate(177.95 46.9)"/><use xlink:href="#A" transform="matrix(1,0,0,1,992,1083.05) translate(137.025 25.299999999999997)"/><use xlink:href="#B" transform="matrix(1,0,0,1,992,1083.05) translate(127.025 46.9)"/><path d="M540 648.75h360v507H540z" stroke="#333" stroke-width="2" fill="#fff"/><path d="M540 686.35h360m-360 366.92h360" stroke="#333" stroke-width="2" fill="none"/><use xlink:href="#C" transform="matrix(1,0,0,1,548,656.75) translate(60.15000000000002 14.6)"/><use xlink:href="#D" transform="matrix(1,0,0,1,552,694.35) translate(36.01 23.585763888888863)"/><use xlink:href="#E" transform="matrix(1,0,0,1,552,694.35) translate(74.41624999999999 23.585763888888863)"/><use xlink:href="#F" transform="matrix(1,0,0,1,552,694.35) translate(141.6271875 23.585763888888863)"/><use xlink:href="#G" transform="matrix(1,0,0,1,552,694.35) translate(218.4396875 23.585763888888863)"/><use xlink:href="#H" transform="matrix(1,0,0,1,552,694.35) translate(36.01 45.80798611111109)"/><use xlink:href="#I" transform="matrix(1,0,0,1,552,694.35) translate(0 61.80798611111109)"/><use xlink:href="#J" transform="matrix(1,0,0,1,552,694.35) translate(67.2109375 61.80798611111109)"/><use xlink:href="#F" transform="matrix(1,0,0,1,552,694.35) translate(153.625 61.80798611111109)"/><use xlink:href="#G" transform="matrix(1,0,0,1,552,694.35) translate(230.4375 61.80798611111109)"/><use xlink:href="#H" transform="matrix(1,0,0,1,552,694.35) translate(36.01 77.80798611111109)"/><use xlink:href="#H" transform="matrix(1,0,0,1,552,694.35) translate(36.01 93.80798611111109)"/><use xlink:href="#D" transform="matrix(1,0,0,1,552,694.35) translate(36.01 109.80798611111109)"/><use xlink:href="#K" transform="matrix(1,0,0,1,552,694.35) translate(74.41624999999999 109.80798611111109)"/><use xlink:href="#L" transform="matrix(1,0,0,1,552,694.35) translate(160.8303125 109.80798611111109)"/><use xlink:href="#M" transform="matrix(1,0,0,1,552,694.35) translate(0 125.80798611111109)"/><use xlink:href="#N" transform="matrix(1,0,0,1,552,694.35) translate(153.625 125.80798611111109)"/><use xlink:href="#O" transform="matrix(1,0,0,1,552,694.35) translate(182.4296875 125.80798611111109)"/><use xlink:href="#P" transform="matrix(1,0,0,1,552,694.35) translate(0 143.94444444444443)"/><use xlink:href="#Q" transform="matrix(1,0,0,1,552,694.35) translate(36.01 166.34444444444443)"/><use xlink:href="#R" transform="matrix(1,0,0,1,552,694.35) translate(45.6115625 166.34444444444443)"/><use xlink:href="#S" transform="matrix(1,0,0,1,552,694.35) translate(151.22875 166.34444444444443)"/><use xlink:href="#T" transform="matrix(1,0,0,1,552,694.35) translate(0 186.6079861111111)"/><use xlink:href="#N" transform="matrix(1,0,0,1,552,694.35) translate(153.625 186.6079861111111)"/><use xlink:href="#U" transform="matrix(1,0,0,1,552,694.35) translate(182.4296875 186.6079861111111)"/><use xlink:href="#H" transform="matrix(1,0,0,1,552,694.35) translate(36.01 202.6079861111111)"/><use xlink:href="#V" transform="matrix(1,0,0,1,552,694.35) translate(36.01 218.6079861111111)"/><use xlink:href="#W" transform="matrix(1,0,0,1,552,694.35) translate(55.213125 218.6079861111111)"/><use xlink:href="#L" transform="matrix(1,0,0,1,552,694.35) translate(218.4396875 218.6079861111111)"/><use xlink:href="#X" transform="matrix(1,0,0,1,552,694.35) translate(0 236.74444444444444)"/><use xlink:href="#N" transform="matrix(1,0,0,1,552,694.35) translate(153.625 236.74444444444444)"/><use xlink:href="#Y" transform="matrix(1,0,0,1,552,694.35) translate(182.4296875 236.74444444444444)"/><use xlink:href="#Z" transform="matrix(1,0,0,1,552,694.35) translate(252.01 236.74444444444444)"/><use xlink:href="#P" transform="matrix(1,0,0,1,552,694.35) translate(0 259.14444444444445)"/><use xlink:href="#D" transform="matrix(1,0,0,1,552,694.35) translate(36.01 279.4079861111111)"/><use xlink:href="#aa" transform="matrix(1,0,0,1,552,694.35) translate(74.41624999999999 279.4079861111111)"/><use xlink:href="#ab" transform="matrix(1,0,0,1,552,694.35) translate(266.4475 279.4079861111111)"/><use xlink:href="#ac" transform="matrix(1,0,0,1,552,694.35) translate(0 295.4079861111111)"/><use xlink:href="#N" transform="matrix(1,0,0,1,552,694.35) translate(153.625 295.4079861111111)"/><use xlink:href="#ad" transform="matrix(1,0,0,1,552,694.35) translate(182.4296875 295.4079861111111)"/><use xlink:href="#N" transform="matrix(1,0,0,1,552,694.35) translate(0 311.4079861111111)"/><use xlink:href="#ae" transform="matrix(1,0,0,1,552,694.35) translate(28.8046875 311.4079861111111)"/><use xlink:href="#af" transform="matrix(1,0,0,1,552,694.35) translate(36.01 314.6111111111111)"/><use xlink:href="#ag" transform="matrix(1,0,0,1,552,694.35) translate(0 331.67777777777775)"/><g><use xlink:href="#ah" transform="matrix(1,0,0,1,552,1061.2722222222224) translate(151.05 25.5)"/><use xlink:href="#ai" transform="matrix(1,0,0,1,552,1061.2722222222224) translate(80.1 47.1)"/><use xlink:href="#aj" transform="matrix(1,0,0,1,552,1061.2722222222224) translate(191 47.1)"/><use xlink:href="#ak" transform="matrix(1,0,0,1,552,1061.2722222222224) translate(63.125 68.7)"/><use xlink:href="#al" transform="matrix(1,0,0,1,552,1061.2722222222224) translate(207.925 68.7)"/></g><path d="M1338.5 290.5h-221.12" stroke="#333" fill="none"/><path d="M1339 291h-.5v-1h.5z" stroke="#333" stroke-width=".05" fill="#333"/><path d="M1102.62 290.5l14.26-4.64v9.28z" stroke="#333" fill="#333"/><path d="M1160 647.25V532.37a12 12 0 0 0-12-12H932a12 12 0 0 1-12-12v-99" stroke="#333" fill="none"/><path d="M1160.5 647.75h-1v-.5h1z" stroke="#333" stroke-width=".05" fill="#333"/><path d="M920 394.62l4.64 14.26h-9.28z" stroke="#333" fill="#333"/><path d="M720 647.25V532.37a12 12 0 0 1 12-12h176a12 12 0 0 0 12-12v-99" stroke="#333" fill="none"/><path d="M720.5 647.75h-1v-.5h1z" stroke="#333" stroke-width=".05" fill="#333"/><path d="M920 394.62l4.64 14.26h-9.28z" stroke="#333" fill="#333"/><path d="M1160 806.25v133.12" stroke="#333" fill="none"/><path d="M1160.5 806.26h-1v-.5h1z" stroke="#333" stroke-width=".05" fill="#333"/><path d="M1160 954.13l-4.64-14.26h9.28z" stroke="#333" fill="#333"/><path d="M80 580.5h360v199H80z" stroke="#333" stroke-width="2" fill="#fff"/><path d="M80 618.1h360M80 698.8h360" stroke="#333" stroke-width="2" fill="none"/><g><use xlink:href="#am" transform="matrix(1,0,0,1,88,588.5) translate(88.1 14.6)"/></g><g><use xlink:href="#an" transform="matrix(1,0,0,1,92,626.1) translate(95.57499999999999 25.299999999999997)"/><use xlink:href="#ao" transform="matrix(1,0,0,1,92,626.1) translate(176.475 25.299999999999997)"/><use xlink:href="#ap" transform="matrix(1,0,0,1,92,626.1) translate(114.55 46.9)"/><use xlink:href="#aq" transform="matrix(1,0,0,1,92,626.1) translate(157.5 46.9)"/></g><g><use xlink:href="#ar" transform="matrix(1,0,0,1,92,706.8000000000001) translate(12.225000000000023 25.299999999999997)"/><use xlink:href="#as" transform="matrix(1,0,0,1,92,706.8000000000001) translate(257.92499999999995 25.299999999999997)"/><use xlink:href="#at" transform="matrix(1,0,0,1,92,706.8000000000001) translate(118.05 46.9)"/></g><path d="M80 967h360v177H80z" stroke="#333" stroke-width="2" fill="#fff"/><path d="M80 1004.6h360m-360 59.1h360" stroke="#333" stroke-width="2" fill="none"/><g><use xlink:href="#au" transform="matrix(1,0,0,1,88,975) translate(93.625 14.6)"/></g><g><use xlink:href="#av" transform="matrix(1,0,0,1,92,1012.6) translate(86.57499999999999 25.6)"/><use xlink:href="#aq" transform="matrix(1,0,0,1,92,1012.6) translate(185.475 25.6)"/></g><g><use xlink:href="#aw" transform="matrix(1,0,0,1,92,1071.7) translate(27.724999999999994 25.299999999999997)"/><use xlink:href="#ax" transform="matrix(1,0,0,1,92,1071.7) translate(142.525 25.299999999999997)"/><use xlink:href="#ay" transform="matrix(1,0,0,1,92,1071.7) translate(212.475 25.299999999999997)"/><use xlink:href="#az" transform="matrix(1,0,0,1,92,1071.7) translate(264.375 25.299999999999997)"/><use xlink:href="#aA" transform="matrix(1,0,0,1,92,1071.7) translate(16.725000000000023 46.9)"/><use xlink:href="#aB" transform="matrix(1,0,0,1,92,1071.7) translate(253.42499999999998 46.9)"/></g><path d="M260 965.5V796.88" stroke="#333" fill="none"/><path d="M260.5 966h-1v-.5h1z" stroke="#333" stroke-width=".05" fill="#333"/><path d="M260 782.12l4.64 14.26h-9.28z" stroke="#333" fill="#333"/><path d="M720 1157.25v27.5a12 12 0 0 1-12 12H270.5a12 12 0 0 1-12-12v-23.37" stroke="#333" fill="none"/><path d="M720.5 1157.26h-1v-.5h1z" stroke="#333" stroke-width=".05" fill="#333"/><path d="M258.5 1146.62l4.65 14.26h-9.28z" stroke="#333" fill="#333"/><defs><path fill="#333" d="M240 0l2-218c-23 76-54 145-80 218h-23L58-218 59 0H30v-248h44l77 211c21-75 51-140 76-211h43V0h-30" id="aC"/><path fill="#333" d="M141-36C126-15 110 5 73 4 37 3 15-17 15-53c-1-64 63-63 125-63 3-35-9-54-41-54-24 1-41 7-42 31l-33-3c5-37 33-52 76-52 45 0 72 20 72 64v82c-1 20 7 32 28 27v20c-31 9-61-2-59-35zM48-53c0 20 12 33 32 33 41-3 63-29 60-74-43 2-92-5-92 41" id="aD"/><path fill="#333" d="M117-194c89-4 53 116 60 194h-32v-121c0-31-8-49-39-48C34-167 62-67 57 0H25l-1-190h30c1 10-1 24 2 32 11-22 29-35 61-36" id="aE"/><path fill="#333" d="M177-190C167-65 218 103 67 71c-23-6-38-20-44-43l32-5c15 47 100 32 89-28v-30C133-14 115 1 83 1 29 1 15-40 15-95c0-56 16-97 71-98 29-1 48 16 59 35 1-10 0-23 2-32h30zM94-22c36 0 50-32 50-73 0-42-14-75-50-75-39 0-46 34-46 75s6 73 46 73" id="aF"/><path fill="#333" d="M100-194c63 0 86 42 84 106H49c0 40 14 67 53 68 26 1 43-12 49-29l28 8c-11 28-37 45-77 45C44 4 14-33 15-96c1-61 26-98 85-98zm52 81c6-60-76-77-97-28-3 7-6 17-6 28h103" id="aG"/><path fill="#333" d="M114-163C36-179 61-72 57 0H25l-1-190h30c1 12-1 29 2 39 6-27 23-49 58-41v29" id="aH"/><g id="a"><use transform="matrix(0.05,0,0,0.05,0,0)" xlink:href="#aC"/><use transform="matrix(0.05,0,0,0.05,14.950000000000001,0)" xlink:href="#aD"/><use transform="matrix(0.05,0,0,0.05,24.950000000000003,0)" xlink:href="#aE"/><use transform="matrix(0.05,0,0,0.05,34.95,0)" xlink:href="#aD"/><use transform="matrix(0.05,0,0,0.05,44.95,0)" xlink:href="#aF"/><use transform="matrix(0.05,0,0,0.05,54.95,0)" xlink:href="#aG"/><use transform="matrix(0.05,0,0,0.05,64.95,0)" xlink:href="#aH"/></g><path fill="#333" d="M101-234c-31-9-42 10-38 44h38v23H63V0H32v-167H5v-23h27c-7-52 17-82 69-68v24" id="aI"/><path fill="#333" d="M96-169c-40 0-48 33-48 73s9 75 48 75c24 0 41-14 43-38l32 2c-6 37-31 61-74 61-59 0-76-41-82-99-10-93 101-131 147-64 4 7 5 14 7 22l-32 3c-4-21-16-35-41-35" id="aJ"/><path fill="#333" d="M59-47c-2 24 18 29 38 22v24C64 9 27 4 27-40v-127H5v-23h24l9-43h21v43h35v23H59v120" id="aK"/><path fill="#333" d="M100-194c62-1 85 37 85 99 1 63-27 99-86 99S16-35 15-95c0-66 28-99 85-99zM99-20c44 1 53-31 53-75 0-43-8-75-51-75s-53 32-53 75 10 74 51 75" id="aL"/><path fill="#333" d="M179-190L93 31C79 59 56 82 12 73V49c39 6 53-20 64-50L1-190h34L92-34l54-156h33" id="aM"/><path fill="#333" d="M33-154v-36h34v36H33zM33 0v-36h34V0H33" id="aN"/><path fill="#333" d="M85-194c31 0 48 13 60 33l-1-100h32l1 261h-30c-2-10 0-23-3-31C134-8 116 4 85 4 32 4 16-35 15-94c0-66 23-100 70-100zm9 24c-40 0-46 34-46 75 0 40 6 74 45 74 42 0 51-32 51-76 0-42-9-74-50-73" id="aO"/><path fill="#333" d="M135-143c-3-34-86-38-87 0 15 53 115 12 119 90S17 21 10-45l28-5c4 36 97 45 98 0-10-56-113-15-118-90-4-57 82-63 122-42 12 7 21 19 24 35" id="aP"/><g id="c"><use transform="matrix(0.05,0,0,0.05,0,0)" xlink:href="#aI"/><use transform="matrix(0.05,0,0,0.05,5,0)" xlink:href="#aD"/><use transform="matrix(0.05,0,0,0.05,15,0)" xlink:href="#aJ"/><use transform="matrix(0.05,0,0,0.05,24,0)" xlink:href="#aK"/><use transform="matrix(0.05,0,0,0.05,29,0)" xlink:href="#aL"/><use transform="matrix(0.05,0,0,0.05,39,0)" xlink:href="#aH"/><use transform="matrix(0.05,0,0,0.05,44.95,0)" xlink:href="#aM"/><use transform="matrix(0.05,0,0,0.05,53.95,0)" xlink:href="#aN"/><use transform="matrix(0.05,0,0,0.05,58.95,0)" xlink:href="#aD"/><use transform="matrix(0.05,0,0,0.05,68.95,0)" xlink:href="#aO"/><use transform="matrix(0.05,0,0,0.05,78.95,0)" xlink:href="#aO"/><use transform="matrix(0.05,0,0,0.05,88.95,0)" xlink:href="#aH"/><use transform="matrix(0.05,0,0,0.05,94.9,0)" xlink:href="#aG"/><use transform="matrix(0.05,0,0,0.05,104.9,0)" xlink:href="#aP"/><use transform="matrix(0.05,0,0,0.05,113.9,0)" xlink:href="#aP"/></g><path fill="#333" d="M18-100v-36l175-74v27L42-118l151 64v27" id="aQ"/><path fill="#333" d="M-5 72V49h209v23H-5" id="aR"/><path fill="#333" d="M18-27v-27l151-64-151-65v-27l175 74v36" id="aS"/><path fill="#333" d="M212-179c-10-28-35-45-73-45-59 0-87 40-87 99 0 60 29 101 89 101 43 0 62-24 78-52l27 14C228-24 195 4 139 4 59 4 22-46 18-125c-6-104 99-153 187-111 19 9 31 26 39 46" id="aT"/><path fill="#333" d="M24-231v-30h32v30H24zM24 0v-190h32V0H24" id="aU"/><g id="d"><use transform="matrix(0.05,0,0,0.05,0,0)" xlink:href="#aQ"/><use transform="matrix(0.05,0,0,0.05,10.5,0)" xlink:href="#aR"/><use transform="matrix(0.05,0,0,0.05,20.5,0)" xlink:href="#aS"/><use transform="matrix(0.05,0,0,0.05,31,0)" xlink:href="#aT"/><use transform="matrix(0.05,0,0,0.05,43.95,0)" xlink:href="#aL"/><use transform="matrix(0.05,0,0,0.05,53.95,0)" xlink:href="#aE"/><use transform="matrix(0.05,0,0,0.05,63.95,0)" xlink:href="#aI"/><use transform="matrix(0.05,0,0,0.05,68.95,0)" xlink:href="#aU"/><use transform="matrix(0.05,0,0,0.05,72.9,0)" xlink:href="#aF"/><use transform="matrix(0.05,0,0,0.05,82.9,0)" xlink:href="#aN"/></g><path fill="#333" d="M87 75C49 33 22-17 22-94c0-76 28-126 65-167h31c-38 41-64 92-64 168S80 34 118 75H87" id="aV"/><g id="e"><use transform="matrix(0.05,0,0,0.05,0,0)" xlink:href="#aV"/><use transform="matrix(0.05,0,0,0.05,5.95,0)" xlink:href="#aR"/></g><path fill="#333" d="M18-150v-26h174v26H18zm0 90v-26h174v26H18" id="aW"/><g id="f"><use transform="matrix(0.05,0,0,0.05,0,0)" xlink:href="#aW"/><use transform="matrix(0.05,0,0,0.05,10.5,0)" xlink:href="#aS"/></g><path fill="#333" d="M33-261c38 41 65 92 65 168S71 34 33 75H2C39 34 66-17 66-93S39-220 2-261h31" id="aX"/><g id="g"><use transform="matrix(0.05,0,0,0.05,0,0)" xlink:href="#aR"/><use transform="matrix(0.05,0,0,0.05,10,0)" xlink:href="#aX"/></g><path fill="#333" d="M210-169c-67 3-38 105-44 169h-31v-121c0-29-5-50-35-48C34-165 62-65 56 0H25l-1-190h30c1 10-1 24 2 32 10-44 99-50 107 0 11-21 27-35 58-36 85-2 47 119 55 194h-31v-121c0-29-5-49-35-48" id="aY"/><path fill="#333" d="M115-194c55 1 70 41 70 98S169 2 115 4C84 4 66-9 55-30l1 105H24l-1-265h31l2 30c10-21 28-34 59-34zm-8 174c40 0 45-34 45-75s-6-73-45-74c-42 0-51 32-51 76 0 43 10 73 51 73" id="aZ"/><g id="h"><use transform="matrix(0.05,0,0,0.05,0,0)" xlink:href="#aY"/><use transform="matrix(0.05,0,0,0.05,14.950000000000001,0)" xlink:href="#aD"/><use transform="matrix(0.05,0,0,0.05,24.950000000000003,0)" xlink:href="#aZ"/><use transform="matrix(0.05,0,0,0.05,34.95,0)" xlink:href="#aZ"/><use transform="matrix(0.05,0,0,0.05,44.95,0)" xlink:href="#aU"/><use transform="matrix(0.05,0,0,0.05,48.900000000000006,0)" xlink:href="#aE"/><use transform="matrix(0.05,0,0,0.05,58.900000000000006,0)" xlink:href="#aF"/></g><g id="j"><use transform="matrix(0.05,0,0,0.05,0,0)" xlink:href="#aP"/><use transform="matrix(0.05,0,0,0.05,9,0)" xlink:href="#aG"/><use transform="matrix(0.05,0,0,0.05,19,0)" xlink:href="#aK"/><use transform="matrix(0.05,0,0,0.05,24,0)" xlink:href="#aQ"/><use transform="matrix(0.05,0,0,0.05,34.5,0)" xlink:href="#aR"/><use transform="matrix(0.05,0,0,0.05,44.5,0)" xlink:href="#aS"/><use transform="matrix(0.05,0,0,0.05,55,0)" xlink:href="#aT"/><use transform="matrix(0.05,0,0,0.05,67.95,0)" xlink:href="#aL"/><use transform="matrix(0.05,0,0,0.05,77.95,0)" xlink:href="#aE"/><use transform="matrix(0.05,0,0,0.05,87.95,0)" xlink:href="#aI"/><use transform="matrix(0.05,0,0,0.05,92.95,0)" xlink:href="#aU"/><use transform="matrix(0.05,0,0,0.05,96.9,0)" xlink:href="#aF"/></g><path fill="#333" d="M33 0v-38h34V0H33" id="ba"/><g id="k"><use transform="matrix(0.05,0,0,0.05,0,0)" xlink:href="#ba"/><use transform="matrix(0.05,0,0,0.05,5,0)" xlink:href="#ba"/><use transform="matrix(0.05,0,0,0.05,10,0)" xlink:href="#ba"/></g><path fill="#333" d="M63-220v92h138v28H63V0H30v-248h175v28H63" id="bb"/><g id="l"><use transform="matrix(0.05,0,0,0.05,0,0)" xlink:href="#bb"/><use transform="matrix(0.05,0,0,0.05,10.950000000000001,0)" xlink:href="#aD"/><use transform="matrix(0.05,0,0,0.05,20.950000000000003,0)" xlink:href="#aJ"/><use transform="matrix(0.05,0,0,0.05,29.950000000000003,0)" xlink:href="#aK"/><use transform="matrix(0.05,0,0,0.05,34.95,0)" xlink:href="#aL"/><use transform="matrix(0.05,0,0,0.05,44.95,0)" xlink:href="#aH"/><use transform="matrix(0.05,0,0,0.05,50.900000000000006,0)" xlink:href="#aM"/></g><g id="m"><use transform="matrix(0.05,0,0,0.05,0,0)" xlink:href="#aY"/><use transform="matrix(0.05,0,0,0.05,14.950000000000001,0)" xlink:href="#aD"/><use transform="matrix(0.05,0,0,0.05,24.950000000000003,0)" xlink:href="#aE"/><use transform="matrix(0.05,0,0,0.05,34.95,0)" xlink:href="#aD"/><use transform="matrix(0.05,0,0,0.05,44.95,0)" xlink:href="#aF"/><use transform="matrix(0.05,0,0,0.05,54.95,0)" xlink:href="#aG"/><use transform="matrix(0.05,0,0,0.05,64.95,0)" xlink:href="#aH"/><use transform="matrix(0.05,0,0,0.05,70.9,0)" xlink:href="#aN"/></g><g id="n"><use transform="matrix(0.05,0,0,0.05,0,0)" xlink:href="#aD"/><use transform="matrix(0.05,0,0,0.05,10,0)" xlink:href="#aO"/><use transform="matrix(0.05,0,0,0.05,20,0)" xlink:href="#aO"/><use transform="matrix(0.05,0,0,0.05,30,0)" xlink:href="#aH"/><use transform="matrix(0.05,0,0,0.05,35.95,0)" xlink:href="#aG"/><use transform="matrix(0.05,0,0,0.05,45.95,0)" xlink:href="#aP"/><use transform="matrix(0.05,0,0,0.05,54.95,0)" xlink:href="#aP"/></g><path fill="#333" d="M205 0l-28-72H64L36 0H1l101-248h38L239 0h-34zm-38-99l-47-123c-12 45-31 82-46 123h93" id="bc"/><path fill="#333" d="M160-131c35 5 61 23 61 61C221 17 115-2 30 0v-248c76 3 177-17 177 60 0 33-19 50-47 57zm-97-11c50-1 110 9 110-42 0-47-63-36-110-37v79zm0 115c55-2 124 14 124-45 0-56-70-42-124-44v89" id="bd"/><path fill="#333" d="M127-220V0H93v-220H8v-28h204v28h-85" id="be"/><g id="o"><use transform="matrix(0.05,0,0,0.05,0,0)" xlink:href="#bc"/><use transform="matrix(0.05,0,0,0.05,12,0)" xlink:href="#bd"/><use transform="matrix(0.05,0,0,0.05,24,0)" xlink:href="#be"/><use transform="matrix(0.05,0,0,0.05,32.95,0)" xlink:href="#aN"/></g><g id="p"><use transform="matrix(0.05,0,0,0.05,0,0)" xlink:href="#aD"/><use transform="matrix(0.05,0,0,0.05,10,0)" xlink:href="#aO"/><use transform="matrix(0.05,0,0,0.05,20,0)" xlink:href="#aO"/><use transform="matrix(0.05,0,0,0.05,30,0)" xlink:href="#aH"/><use transform="matrix(0.05,0,0,0.05,35.95,0)" xlink:href="#aG"/><use transform="matrix(0.05,0,0,0.05,45.95,0)" xlink:href="#aP"/><use transform="matrix(0.05,0,0,0.05,54.95,0)" xlink:href="#aP"/></g><g id="q"><use transform="matrix(0.05,0,0,0.05,0,0)" xlink:href="#aJ"/><use transform="matrix(0.05,0,0,0.05,9,0)" xlink:href="#aH"/><use transform="matrix(0.05,0,0,0.05,14.949999999999998,0)" xlink:href="#aG"/><use transform="matrix(0.05,0,0,0.05,24.95,0)" xlink:href="#aD"/><use transform="matrix(0.05,0,0,0.05,34.95,0)" xlink:href="#aK"/><use transform="matrix(0.05,0,0,0.05,39.95,0)" xlink:href="#aG"/><use transform="matrix(0.05,0,0,0.05,49.95,0)" xlink:href="#bb"/><use transform="matrix(0.05,0,0,0.05,60.900000000000006,0)" xlink:href="#aU"/><use transform="matrix(0.05,0,0,0.05,64.85000000000001,0)" xlink:href="#aE"/><use transform="matrix(0.05,0,0,0.05,74.85000000000001,0)" xlink:href="#aD"/><use transform="matrix(0.05,0,0,0.05,84.85000000000001,0)" xlink:href="#aE"/><use transform="matrix(0.05,0,0,0.05,94.85000000000001,0)" xlink:href="#aJ"/><use transform="matrix(0.05,0,0,0.05,103.85000000000001,0)" xlink:href="#aG"/><use transform="matrix(0.05,0,0,0.05,113.85000000000001,0)" xlink:href="#aV"/><use transform="matrix(0.05,0,0,0.05,119.80000000000001,0)" xlink:href="#aY"/><use transform="matrix(0.05,0,0,0.05,134.75,0)" xlink:href="#aD"/><use transform="matrix(0.05,0,0,0.05,144.75,0)" xlink:href="#aE"/><use transform="matrix(0.05,0,0,0.05,154.75,0)" xlink:href="#aD"/><use transform="matrix(0.05,0,0,0.05,164.75,0)" xlink:href="#aF"/><use transform="matrix(0.05,0,0,0.05,174.75,0)" xlink:href="#aG"/><use transform="matrix(0.05,0,0,0.05,184.75,0)" xlink:href="#aH"/><use transform="matrix(0.05,0,0,0.05,190.7,0)" xlink:href="#bc"/><use transform="matrix(0.05,0,0,0.05,202.7,0)" xlink:href="#aH"/><use transform="matrix(0.05,0,0,0.05,208.64999999999998,0)" xlink:href="#aF"/><use transform="matrix(0.05,0,0,0.05,218.64999999999998,0)" xlink:href="#aP"/><use transform="matrix(0.05,0,0,0.05,227.64999999999998,0)" xlink:href="#aX"/></g><path fill="#333" d="M33 0v-248h34V0H33" id="bf"/><path fill="#333" d="M24 0v-261h32V0H24" id="bg"/><g id="r"><use transform="matrix(0.05,0,0,0.05,0,0)" xlink:href="#aP"/><use transform="matrix(0.05,0,0,0.05,9,0)" xlink:href="#aG"/><use transform="matrix(0.05,0,0,0.05,19,0)" xlink:href="#aK"/><use transform="matrix(0.05,0,0,0.05,24,0)" xlink:href="#bf"/><use transform="matrix(0.05,0,0,0.05,29,0)" xlink:href="#aY"/><use transform="matrix(0.05,0,0,0.05,43.95,0)" xlink:href="#aZ"/><use transform="matrix(0.05,0,0,0.05,53.95,0)" xlink:href="#bg"/><use transform="matrix(0.05,0,0,0.05,57.900000000000006,0)" xlink:href="#aV"/><use transform="matrix(0.05,0,0,0.05,63.85,0)" xlink:href="#aD"/><use transform="matrix(0.05,0,0,0.05,73.85000000000001,0)" xlink:href="#aO"/><use transform="matrix(0.05,0,0,0.05,83.85000000000001,0)" xlink:href="#aO"/><use transform="matrix(0.05,0,0,0.05,93.85000000000001,0)" xlink:href="#aH"/><use transform="matrix(0.05,0,0,0.05,99.80000000000001,0)" xlink:href="#aG"/><use transform="matrix(0.05,0,0,0.05,109.80000000000001,0)" xlink:href="#aP"/><use transform="matrix(0.05,0,0,0.05,118.80000000000001,0)" xlink:href="#aP"/></g><g id="s"><use transform="matrix(0.05,0,0,0.05,0,0)" xlink:href="#aU"/><use transform="matrix(0.05,0,0,0.05,3.95,0)" xlink:href="#aY"/><use transform="matrix(0.05,0,0,0.05,18.900000000000002,0)" xlink:href="#aZ"/><use transform="matrix(0.05,0,0,0.05,28.900000000000002,0)" xlink:href="#bg"/><use transform="matrix(0.05,0,0,0.05,32.85,0)" xlink:href="#aX"/></g><g id="t"><use transform="matrix(0.05,0,0,0.05,0,0)" xlink:href="#bb"/><use transform="matrix(0.05,0,0,0.05,10.950000000000001,0)" xlink:href="#aU"/><use transform="matrix(0.05,0,0,0.05,14.9,0)" xlink:href="#aE"/><use transform="matrix(0.05,0,0,0.05,24.900000000000002,0)" xlink:href="#aD"/><use transform="matrix(0.05,0,0,0.05,34.900000000000006,0)" xlink:href="#aE"/><use transform="matrix(0.05,0,0,0.05,44.900000000000006,0)" xlink:href="#aJ"/><use transform="matrix(0.05,0,0,0.05,53.900000000000006,0)" xlink:href="#aG"/></g><g id="u"><use transform="matrix(0.05,0,0,0.05,0,0)" xlink:href="#bb"/><use transform="matrix(0.05,0,0,0.05,10.950000000000001,0)" xlink:href="#aU"/><use transform="matrix(0.05,0,0,0.05,14.9,0)" xlink:href="#aE"/><use transform="matrix(0.05,0,0,0.05,24.900000000000002,0)" xlink:href="#aD"/><use transform="matrix(0.05,0,0,0.05,34.900000000000006,0)" xlink:href="#aE"/><use transform="matrix(0.05,0,0,0.05,44.900000000000006,0)" xlink:href="#aJ"/><use transform="matrix(0.05,0,0,0.05,53.900000000000006,0)" xlink:href="#aG"/></g><g id="v"><use transform="matrix(0.05,0,0,0.05,0,0)" xlink:href="#aH"/><use transform="matrix(0.05,0,0,0.05,5.95,0)" xlink:href="#aG"/><use transform="matrix(0.05,0,0,0.05,15.949999999999998,0)" xlink:href="#bg"/><use transform="matrix(0.05,0,0,0.05,19.9,0)" xlink:href="#aD"/><use transform="matrix(0.05,0,0,0.05,29.899999999999995,0)" xlink:href="#aK"/><use transform="matrix(0.05,0,0,0.05,34.9,0)" xlink:href="#aG"/><use transform="matrix(0.05,0,0,0.05,44.9,0)" xlink:href="#aO"/></g><path fill="#333" d="M84 4C-5 8 30-112 23-190h32v120c0 31 7 50 39 49 72-2 45-101 50-169h31l1 190h-30c-1-10 1-25-2-33-11 22-28 36-60 37" id="bh"/><g id="w"><use transform="matrix(0.05,0,0,0.05,0,0)" xlink:href="#aI"/><use transform="matrix(0.05,0,0,0.05,5,0)" xlink:href="#bh"/><use transform="matrix(0.05,0,0,0.05,15,0)" xlink:href="#aE"/><use transform="matrix(0.05,0,0,0.05,25,0)" xlink:href="#aJ"/><use transform="matrix(0.05,0,0,0.05,34,0)" xlink:href="#aK"/><use transform="matrix(0.05,0,0,0.05,39,0)" xlink:href="#aU"/><use transform="matrix(0.05,0,0,0.05,42.95,0)" xlink:href="#aL"/><use transform="matrix(0.05,0,0,0.05,52.95,0)" xlink:href="#aE"/><use transform="matrix(0.05,0,0,0.05,62.95,0)" xlink:href="#aP"/></g><path fill="#333" d="M30 0v-248h187v28H63v79h144v27H63v87h162V0H30" id="bi"/><path fill="#333" d="M141 0L90-78 38 0H4l68-98-65-92h35l48 74 47-74h35l-64 92 68 98h-35" id="bj"/><g id="x"><use transform="matrix(0.05,0,0,0.05,0,0)" xlink:href="#bi"/><use transform="matrix(0.05,0,0,0.05,12,0)" xlink:href="#bj"/><use transform="matrix(0.05,0,0,0.05,21,0)" xlink:href="#aK"/><use transform="matrix(0.05,0,0,0.05,26,0)" xlink:href="#aG"/><use transform="matrix(0.05,0,0,0.05,36,0)" xlink:href="#aE"/><use transform="matrix(0.05,0,0,0.05,46,0)" xlink:href="#aP"/><use transform="matrix(0.05,0,0,0.05,55,0)" xlink:href="#aU"/><use transform="matrix(0.05,0,0,0.05,58.95,0)" xlink:href="#aL"/><use transform="matrix(0.05,0,0,0.05,68.95,0)" xlink:href="#aE"/></g><path fill="#333" d="M108 0H70L1-190h34L89-25l56-165h34" id="bk"/><g id="y"><use transform="matrix(0.05,0,0,0.05,0,0)" xlink:href="#aJ"/><use transform="matrix(0.05,0,0,0.05,9,0)" xlink:href="#aL"/><use transform="matrix(0.05,0,0,0.05,19,0)" xlink:href="#aE"/><use transform="matrix(0.05,0,0,0.05,29,0)" xlink:href="#bk"/><use transform="matrix(0.05,0,0,0.05,38,0)" xlink:href="#aG"/><use transform="matrix(0.05,0,0,0.05,48,0)" xlink:href="#aH"/><use transform="matrix(0.05,0,0,0.05,53.95,0)" xlink:href="#aP"/><use transform="matrix(0.05,0,0,0.05,62.95,0)" xlink:href="#aU"/><use transform="matrix(0.05,0,0,0.05,66.9,0)" xlink:href="#aL"/><use transform="matrix(0.05,0,0,0.05,76.9,0)" xlink:href="#aE"/><use transform="matrix(0.05,0,0,0.05,86.9,0)" xlink:href="#aN"/></g><g id="z"><use transform="matrix(0.05,0,0,0.05,0,0)" xlink:href="#aH"/><use transform="matrix(0.05,0,0,0.05,5.95,0)" xlink:href="#aG"/><use transform="matrix(0.05,0,0,0.05,15.949999999999998,0)" xlink:href="#bk"/><use transform="matrix(0.05,0,0,0.05,24.95,0)" xlink:href="#aG"/><use transform="matrix(0.05,0,0,0.05,34.95,0)" xlink:href="#aH"/><use transform="matrix(0.05,0,0,0.05,40.900000000000006,0)" xlink:href="#aP"/><use transform="matrix(0.05,0,0,0.05,49.900000000000006,0)" xlink:href="#aU"/><use transform="matrix(0.05,0,0,0.05,53.85,0)" xlink:href="#aL"/><use transform="matrix(0.05,0,0,0.05,63.85,0)" xlink:href="#aE"/><use transform="matrix(0.05,0,0,0.05,73.85000000000001,0)" xlink:href="#aN"/></g><g id="A"><use transform="matrix(0.05,0,0,0.05,0,0)" xlink:href="#aD"/><use transform="matrix(0.05,0,0,0.05,10,0)" xlink:href="#aJ"/><use transform="matrix(0.05,0,0,0.05,19,0)" xlink:href="#aK"/><use transform="matrix(0.05,0,0,0.05,24,0)" xlink:href="#aU"/><use transform="matrix(0.05,0,0,0.05,27.950000000000003,0)" xlink:href="#bk"/><use transform="matrix(0.05,0,0,0.05,36.95,0)" xlink:href="#aD"/><use transform="matrix(0.05,0,0,0.05,46.95,0)" xlink:href="#aK"/><use transform="matrix(0.05,0,0,0.05,51.95,0)" xlink:href="#aG"/></g><g id="B"><use transform="matrix(0.05,0,0,0.05,0,0)" xlink:href="#aO"/><use transform="matrix(0.05,0,0,0.05,10,0)" xlink:href="#aG"/><use transform="matrix(0.05,0,0,0.05,20,0)" xlink:href="#aD"/><use transform="matrix(0.05,0,0,0.05,30,0)" xlink:href="#aJ"/><use transform="matrix(0.05,0,0,0.05,39,0)" xlink:href="#aK"/><use transform="matrix(0.05,0,0,0.05,44,0)" xlink:href="#aU"/><use transform="matrix(0.05,0,0,0.05,47.95,0)" xlink:href="#bk"/><use transform="matrix(0.05,0,0,0.05,56.95,0)" xlink:href="#aD"/><use transform="matrix(0.05,0,0,0.05,66.95,0)" xlink:href="#aK"/><use transform="matrix(0.05,0,0,0.05,71.95,0)" xlink:href="#aG"/></g><path fill="#333" d="M16-82v-28h88v28H16" id="bl"/><path fill="#333" d="M143 0L79-87 56-68V0H24v-261h32v163l83-92h37l-77 82L181 0h-38" id="bm"/><g id="C"><use transform="matrix(0.05,0,0,0.05,0,0)" xlink:href="#bc"/><use transform="matrix(0.05,0,0,0.05,12,0)" xlink:href="#aJ"/><use transform="matrix(0.05,0,0,0.05,21,0)" xlink:href="#aJ"/><use transform="matrix(0.05,0,0,0.05,30,0)" xlink:href="#aL"/><use transform="matrix(0.05,0,0,0.05,40,0)" xlink:href="#bh"/><use transform="matrix(0.05,0,0,0.05,50,0)" xlink:href="#aE"/><use transform="matrix(0.05,0,0,0.05,60,0)" xlink:href="#aK"/><use transform="matrix(0.05,0,0,0.05,65,0)" xlink:href="#bl"/><use transform="matrix(0.05,0,0,0.05,70.95,0)" xlink:href="#bd"/><use transform="matrix(0.05,0,0,0.05,82.95,0)" xlink:href="#aL"/><use transform="matrix(0.05,0,0,0.05,92.95,0)" xlink:href="#bh"/><use transform="matrix(0.05,0,0,0.05,102.95,0)" xlink:href="#aE"/><use transform="matrix(0.05,0,0,0.05,112.95,0)" xlink:href="#aO"/><use transform="matrix(0.05,0,0,0.05,122.95,0)" xlink:href="#bl"/><use transform="matrix(0.05,0,0,0.05,128.9,0)" xlink:href="#be"/><use transform="matrix(0.05,0,0,0.05,137.85,0)" xlink:href="#aL"/><use transform="matrix(0.05,0,0,0.05,147.85,0)" xlink:href="#bm"/><use transform="matrix(0.05,0,0,0.05,156.85,0)" xlink:href="#aG"/><use transform="matrix(0.05,0,0,0.05,166.85,0)" xlink:href="#aE"/><use transform="matrix(0.05,0,0,0.05,176.85,0)" xlink:href="#aV"/><use transform="matrix(0.05,0,0,0.05,182.79999999999998,0)" xlink:href="#bc"/><use transform="matrix(0.05,0,0,0.05,194.79999999999998,0)" xlink:href="#bd"/><use transform="matrix(0.05,0,0,0.05,206.79999999999995,0)" xlink:href="#be"/><use transform="matrix(0.05,0,0,0.05,217.74999999999997,0)" xlink:href="#aX"/></g><path fill="#24292f" d="M-5 220v-96h1238v96H-5" id="bn"/><path fill="#24292f" d="M706-1102c241 0 344 136 343 381V0H868v-695c1-168-57-273-220-268-190 6-283 138-283 336V0H185c-3-360 6-732-6-1082h170c4 54 7 126 8 185h3c63-121 164-204 346-205" id="bo"/><path fill="#24292f" d="M1000-272c3 95 12 159 101 161 21 0 41-3 59-7V-6c-44 10-86 16-139 16-141 2-191-84-197-217h-6C748-76 648 20 446 20c-207 0-318-120-318-322 0-266 194-348 454-354l236-4c12-191-40-305-222-305-140 0-220 47-232 172l-188-17c33-204 181-292 423-292 255 0 401 118 401 364v466zm-683-27c0 109 63 184 175 182 166-3 259-96 306-217 24-65 20-120 20-200-232 7-501-28-501 235" id="bp"/><path fill="#24292f" d="M904-1102c199 0 220 177 220 381V0H956v-686c-3-114 0-215-60-264-70-33-125-4-158 71-26 56-39 140-39 252V0H531v-686c-3-114-1-215-61-264-78-41-136 24-157 84-24 69-39 159-39 259V0H105c-3-360 6-732-6-1082h149c6 50 3 123 8 175 36-100 83-195 216-195 135 0 166 79 196 196 42-105 93-196 236-196" id="bq"/><path fill="#24292f" d="M617-1102c355 0 481 238 477 599H322c5 222 84 388 301 388 144 0 244-59 284-166l158 45C1002-72 854 20 623 20c-342 0-490-220-490-568 0-346 151-554 484-554zm291 461c-18-192-90-328-289-328-194 0-287 128-295 328h584" id="br"/><path fill="#24292f" d="M496 0v-299h235V0H496zm0-783v-299h235v299H496" id="bs"/><g id="E"><use transform="matrix(0.0078125,0,0,0.0078125,0,0)" xlink:href="#bn"/><use transform="matrix(0.0078125,0,0,0.0078125,9.6015625,0)" xlink:href="#bo"/><use transform="matrix(0.0078125,0,0,0.0078125,19.203125,0)" xlink:href="#bp"/><use transform="matrix(0.0078125,0,0,0.0078125,28.8046875,0)" xlink:href="#bq"/><use transform="matrix(0.0078125,0,0,0.0078125,38.40625,0)" xlink:href="#br"/><use transform="matrix(0.0078125,0,0,0.0078125,48.0078125,0)" xlink:href="#bs"/></g><path fill="#24292f" d="M698-1104c312 3 392 244 392 558 0 315-82 566-392 566-169 0-277-65-331-184h-5c8 188 2 394 4 589H185V-858c0-76-1-156-6-224h175c6 52 9 120 10 178h4c58-122 150-202 330-200zm-49 991c225 0 255-203 255-433 0-225-32-419-253-419-236 0-285 192-285 441 0 237 53 411 283 411" id="bt"/><path fill="#24292f" d="M839-1102c70 0 148 7 206 17v167c-112-18-268-36-363 15-129 69-208 203-208 395V0H294c-10-367 32-789-52-1082h171c21 75 41 161 48 250h5c67-152 152-270 373-270" id="bu"/><path fill="#24292f" d="M745-142h380V0H143v-142h422v-798H246v-142h499v940zM545-1292v-192h200v192H545" id="bv"/><path fill="#24292f" d="M715 0H502L69-1082h202c94 253 197 500 285 758 19 57 36 126 52 183 96-335 234-626 350-941h201" id="bw"/><path fill="#24292f" d="M682 16c-209 0-323-80-324-285v-671H190v-142h170l58-282h120v282h432v142H538v652c2 114 60 155 182 155 106 0 209-16 297-34v137C921-4 806 16 682 16" id="bx"/><g id="F"><use transform="matrix(0.0078125,0,0,0.0078125,0,0)" xlink:href="#bt"/><use transform="matrix(0.0078125,0,0,0.0078125,9.6015625,0)" xlink:href="#bu"/><use transform="matrix(0.0078125,0,0,0.0078125,19.203125,0)" xlink:href="#bv"/><use transform="matrix(0.0078125,0,0,0.0078125,28.8046875,0)" xlink:href="#bw"/><use transform="matrix(0.0078125,0,0,0.0078125,38.40625,0)" xlink:href="#bp"/><use transform="matrix(0.0078125,0,0,0.0078125,48.0078125,0)" xlink:href="#bx"/><use transform="matrix(0.0078125,0,0,0.0078125,57.609375,0)" xlink:href="#br"/></g><path fill="#24292f" d="M873-819c-18-114-119-146-250-146-163 0-245 50-245 151 0 151 170 148 294 185 182 54 388 94 388 320 0 240-189 325-439 329-245 4-410-69-454-268l159-31c24 133 136 168 295 165 144-2 270-31 270-171 0-164-195-160-331-202-167-52-350-87-350-299 0-218 173-315 413-313 220 2 373 77 412 260" id="by"/><path fill="#24292f" d="M1048-32c-2 300-135 456-433 456-222-1-358-88-400-267l184-25c22 99 100 157 222 156 184-2 248-125 248-315 0-64 3-133-2-194C807-100 706-13 524-12c-306 0-381-228-381-537 0-318 85-550 400-550 164 0 271 83 325 202h3c1-60 3-134 12-185h171c-13 339-4 702-6 1050zM585-145c210-8 284-178 284-406 0-192-52-331-177-392-33-16-69-22-104-22-223 2-259 184-259 414 0 229 31 415 256 406" id="bz"/><g id="G"><use transform="matrix(0.0078125,0,0,0.0078125,0,0)" xlink:href="#by"/><use transform="matrix(0.0078125,0,0,0.0078125,9.6015625,0)" xlink:href="#bx"/><use transform="matrix(0.0078125,0,0,0.0078125,19.203125,0)" xlink:href="#bu"/><use transform="matrix(0.0078125,0,0,0.0078125,28.8046875,0)" xlink:href="#bv"/><use transform="matrix(0.0078125,0,0,0.0078125,38.40625,0)" xlink:href="#bo"/><use transform="matrix(0.0078125,0,0,0.0078125,48.0078125,0)" xlink:href="#bz"/></g><path fill="#24292f" d="M168 279c222 39 310-114 368-290L66-1082h192c120 299 249 590 362 896 115-301 235-597 351-896h190L705 0c-65 164-130 320-275 396-67 36-177 35-262 18V279" id="bA"/><path fill="#24292f" d="M365-904c58-129 161-200 334-200 130 0 228 46 293 138s98 233 98 420c0 189-34 331-102 425S824 20 698 20c-170 0-275-64-336-184 0 55-3 116-9 164H179c5-68 6-147 6-223v-1261h180c-2 193 4 394-4 580h4zm283 791c221 0 256-197 256-427 0-229-34-425-254-425-236 0-285 195-285 441 0 237 53 411 283 411" id="bB"/><path fill="#24292f" d="M615-1102c343 0 484 203 482 560-1 347-147 562-488 562-336 0-475-219-479-562-4-349 156-560 485-560zm-8 989c240 0 301-180 301-429 0-245-55-427-290-427-236 0-299 181-299 427 0 243 61 429 288 429" id="bC"/><path fill="#24292f" d="M736-142h380V0H134v-142h422v-1200H267v-142h469v1342" id="bD"/><g id="J"><use transform="matrix(0.0078125,0,0,0.0078125,0,0)" xlink:href="#bn"/><use transform="matrix(0.0078125,0,0,0.0078125,9.6015625,0)" xlink:href="#by"/><use transform="matrix(0.0078125,0,0,0.0078125,19.203125,0)" xlink:href="#bA"/><use transform="matrix(0.0078125,0,0,0.0078125,28.8046875,0)" xlink:href="#bq"/><use transform="matrix(0.0078125,0,0,0.0078125,38.40625,0)" xlink:href="#bB"/><use transform="matrix(0.0078125,0,0,0.0078125,48.0078125,0)" xlink:href="#bC"/><use transform="matrix(0.0078125,0,0,0.0078125,57.609375,0)" xlink:href="#bD"/><use transform="matrix(0.0078125,0,0,0.0078125,67.2109375,0)" xlink:href="#bs"/></g><path fill="#24292f" d="M1018 0H814c-67-224-138-444-200-673C552-442 476-224 407 0H204L21-1082h178c43 310 105 601 126 933 54-225 128-425 193-638h193c63 212 134 415 185 638 22-336 90-622 136-933h176" id="bE"/><g id="K"><use transform="matrix(0.0078125,0,0,0.0078125,0,0)" xlink:href="#bn"/><use transform="matrix(0.0078125,0,0,0.0078125,9.6015625,0)" xlink:href="#bC"/><use transform="matrix(0.0078125,0,0,0.0078125,19.203125,0)" xlink:href="#bE"/><use transform="matrix(0.0078125,0,0,0.0078125,28.8046875,0)" xlink:href="#bo"/><use transform="matrix(0.0078125,0,0,0.0078125,38.40625,0)" xlink:href="#br"/><use transform="matrix(0.0078125,0,0,0.0078125,48.0078125,0)" xlink:href="#bu"/><use transform="matrix(0.0078125,0,0,0.0078125,57.609375,0)" xlink:href="#by"/><use transform="matrix(0.0078125,0,0,0.0078125,67.2109375,0)" xlink:href="#bs"/></g><g id="L"><use transform="matrix(0.0078125,0,0,0.0078125,0,0)" xlink:href="#bt"/><use transform="matrix(0.0078125,0,0,0.0078125,9.6015625,0)" xlink:href="#bu"/><use transform="matrix(0.0078125,0,0,0.0078125,19.203125,0)" xlink:href="#bv"/><use transform="matrix(0.0078125,0,0,0.0078125,28.8046875,0)" xlink:href="#bw"/><use transform="matrix(0.0078125,0,0,0.0078125,38.40625,0)" xlink:href="#bp"/><use transform="matrix(0.0078125,0,0,0.0078125,48.0078125,0)" xlink:href="#bx"/><use transform="matrix(0.0078125,0,0,0.0078125,57.609375,0)" xlink:href="#br"/></g><path fill="#24292f" d="M891-1484c-201 251-362 514-362 954 0 441 161 704 362 955H701C500 176 342-90 342-532c0-440 159-704 359-952h190" id="bF"/><path fill="#24292f" d="M528 20c-247 0-343-132-343-381v-721h180v686c-4 177 45 284 224 277 194-8 279-136 279-336v-627h181c3 360-6 732 6 1082H885c-4-54-7-126-8-185h-3C809-64 714 20 528 20" id="bG"/><path fill="#24292f" d="M611-1370c266 0 451 106 451 368 0 147-77 243-154 327-132 144-316 255-451 395-42 44-75 87-96 134h723V0H144v-117c124-264 387-411 582-603 73-72 151-147 151-271 0-161-104-231-266-231-163 0-249 90-268 238l-184-17c35-233 185-369 452-369" id="bH"/><path fill="#24292f" d="M353-779c69-51 166-92 291-90 218 3 357 100 423 255 21 52 32 109 32 170 0 305-189 464-500 464-268 0-424-116-471-335l182-21c35 130 124 212 293 209 198-4 309-114 309-313 0-182-118-282-305-282-120 0-198 45-262 101H169l47-728h801v145H382" id="bI"/><path fill="#24292f" d="M672-881c271 0 424 163 424 435 0 291-160 466-455 466-367 0-490-287-490-662 0-324 85-568 293-680 129-70 351-59 460 16 73 50 125 123 153 223l-172 31c-31-108-107-172-232-172-259 0-316 252-323 529 59-113 178-186 342-186zm-37 756c186 0 278-124 278-313s-96-304-284-304c-163 0-281 93-281 261 0 157 65 270 168 327 35 19 75 29 119 29" id="bJ"/><g id="M"><use transform="matrix(0.0078125,0,0,0.0078125,0,0)" xlink:href="#bq"/><use transform="matrix(0.0078125,0,0,0.0078125,9.6015625,0)" xlink:href="#bp"/><use transform="matrix(0.0078125,0,0,0.0078125,19.203125,0)" xlink:href="#bt"/><use transform="matrix(0.0078125,0,0,0.0078125,28.8046875,0)" xlink:href="#bt"/><use transform="matrix(0.0078125,0,0,0.0078125,38.40625,0)" xlink:href="#bv"/><use transform="matrix(0.0078125,0,0,0.0078125,48.0078125,0)" xlink:href="#bo"/><use transform="matrix(0.0078125,0,0,0.0078125,57.609375,0)" xlink:href="#bz"/><use transform="matrix(0.0078125,0,0,0.0078125,67.2109375,0)" xlink:href="#bF"/><use transform="matrix(0.0078125,0,0,0.0078125,76.8125,0)" xlink:href="#bG"/><use transform="matrix(0.0078125,0,0,0.0078125,86.4140625,0)" xlink:href="#bv"/><use transform="matrix(0.0078125,0,0,0.0078125,96.015625,0)" xlink:href="#bo"/><use transform="matrix(0.0078125,0,0,0.0078125,105.6171875,0)" xlink:href="#bx"/><use transform="matrix(0.0078125,0,0,0.0078125,115.21875,0)" xlink:href="#bH"/><use transform="matrix(0.0078125,0,0,0.0078125,124.8203125,0)" xlink:href="#bI"/><use transform="matrix(0.0078125,0,0,0.0078125,134.421875,0)" xlink:href="#bJ"/></g><path fill="#24292f" d="M116-856v-148h995v148H116zm0 512v-148h995v148H116" id="bK"/><path fill="#24292f" d="M116-154v-153l858-367-858-366v-154l995 418v205" id="bL"/><g id="N"><use transform="matrix(0.0078125,0,0,0.0078125,0,0)" xlink:href="#bK"/><use transform="matrix(0.0078125,0,0,0.0078125,9.6015625,0)" xlink:href="#bL"/></g><path fill="#24292f" d="M865-914c-3-187-2-380-2-570h180v1261c0 76 1 155 6 223H877c-8-49-9-116-10-174h-5C801-44 708 26 530 26c-135 0-234-46-297-139s-95-232-95-419c0-377 131-566 392-566 176 0 271 63 335 184zm-286-51c-222 0-255 197-255 427 0 229 31 425 253 425 237 0 286-195 286-441 0-238-52-411-284-411" id="bM"/><path fill="#24292f" d="M528-1484c201 248 357 511 357 952 0 442-156 709-357 957H336C537 174 700-89 700-530c0-440-163-703-364-954h192" id="bN"/><g id="O"><use transform="matrix(0.0078125,0,0,0.0078125,0,0)" xlink:href="#bp"/><use transform="matrix(0.0078125,0,0,0.0078125,9.6015625,0)" xlink:href="#bM"/><use transform="matrix(0.0078125,0,0,0.0078125,19.203125,0)" xlink:href="#bM"/><use transform="matrix(0.0078125,0,0,0.0078125,28.8046875,0)" xlink:href="#bu"/><use transform="matrix(0.0078125,0,0,0.0078125,38.40625,0)" xlink:href="#br"/><use transform="matrix(0.0078125,0,0,0.0078125,48.0078125,0)" xlink:href="#by"/><use transform="matrix(0.0078125,0,0,0.0078125,57.609375,0)" xlink:href="#by"/><use transform="matrix(0.0078125,0,0,0.0078125,67.2109375,0)" xlink:href="#bN"/></g><path fill="#24292f" d="M631 20c-350 0-501-215-501-562 0-355 162-560 502-560 250 0 399 118 446 323l-192 14c-23-124-109-196-262-196-242 0-305 171-305 415 1 245 61 427 304 427 151 0 248-77 267-215l190 12C1039-107 883 20 631 20" id="bO"/><g id="R"><use transform="matrix(0.0078125,0,0,0.0078125,0,0)" xlink:href="#bn"/><use transform="matrix(0.0078125,0,0,0.0078125,9.6015625,0)" xlink:href="#bB"/><use transform="matrix(0.0078125,0,0,0.0078125,19.203125,0)" xlink:href="#bp"/><use transform="matrix(0.0078125,0,0,0.0078125,28.8046875,0)" xlink:href="#bD"/><use transform="matrix(0.0078125,0,0,0.0078125,38.40625,0)" xlink:href="#bp"/><use transform="matrix(0.0078125,0,0,0.0078125,48.0078125,0)" xlink:href="#bo"/><use transform="matrix(0.0078125,0,0,0.0078125,57.609375,0)" xlink:href="#bO"/><use transform="matrix(0.0078125,0,0,0.0078125,67.2109375,0)" xlink:href="#br"/><use transform="matrix(0.0078125,0,0,0.0078125,76.8125,0)" xlink:href="#by"/><use transform="matrix(0.0078125,0,0,0.0078125,86.4140625,0)" xlink:href="#bs"/></g><g id="S"><use transform="matrix(0.0078125,0,0,0.0078125,0,0)" xlink:href="#bt"/><use transform="matrix(0.0078125,0,0,0.0078125,9.6015625,0)" xlink:href="#bu"/><use transform="matrix(0.0078125,0,0,0.0078125,19.203125,0)" xlink:href="#bv"/><use transform="matrix(0.0078125,0,0,0.0078125,28.8046875,0)" xlink:href="#bw"/><use transform="matrix(0.0078125,0,0,0.0078125,38.40625,0)" xlink:href="#bp"/><use transform="matrix(0.0078125,0,0,0.0078125,48.0078125,0)" xlink:href="#bx"/><use transform="matrix(0.0078125,0,0,0.0078125,57.609375,0)" xlink:href="#br"/></g><g id="T"><use transform="matrix(0.0078125,0,0,0.0078125,0,0)" xlink:href="#bq"/><use transform="matrix(0.0078125,0,0,0.0078125,9.6015625,0)" xlink:href="#bp"/><use transform="matrix(0.0078125,0,0,0.0078125,19.203125,0)" xlink:href="#bt"/><use transform="matrix(0.0078125,0,0,0.0078125,28.8046875,0)" xlink:href="#bt"/><use transform="matrix(0.0078125,0,0,0.0078125,38.40625,0)" xlink:href="#bv"/><use transform="matrix(0.0078125,0,0,0.0078125,48.0078125,0)" xlink:href="#bo"/><use transform="matrix(0.0078125,0,0,0.0078125,57.609375,0)" xlink:href="#bz"/><use transform="matrix(0.0078125,0,0,0.0078125,67.2109375,0)" xlink:href="#bF"/><use transform="matrix(0.0078125,0,0,0.0078125,76.8125,0)" xlink:href="#bp"/><use transform="matrix(0.0078125,0,0,0.0078125,86.4140625,0)" xlink:href="#bM"/><use transform="matrix(0.0078125,0,0,0.0078125,96.015625,0)" xlink:href="#bM"/><use transform="matrix(0.0078125,0,0,0.0078125,105.6171875,0)" xlink:href="#bu"/><use transform="matrix(0.0078125,0,0,0.0078125,115.21875,0)" xlink:href="#br"/><use transform="matrix(0.0078125,0,0,0.0078125,124.8203125,0)" xlink:href="#by"/><use transform="matrix(0.0078125,0,0,0.0078125,134.421875,0)" xlink:href="#by"/></g><g id="U"><use transform="matrix(0.0078125,0,0,0.0078125,0,0)" xlink:href="#bG"/><use transform="matrix(0.0078125,0,0,0.0078125,9.6015625,0)" xlink:href="#bv"/><use transform="matrix(0.0078125,0,0,0.0078125,19.203125,0)" xlink:href="#bo"/><use transform="matrix(0.0078125,0,0,0.0078125,28.8046875,0)" xlink:href="#bx"/><use transform="matrix(0.0078125,0,0,0.0078125,38.40625,0)" xlink:href="#bH"/><use transform="matrix(0.0078125,0,0,0.0078125,48.0078125,0)" xlink:href="#bI"/><use transform="matrix(0.0078125,0,0,0.0078125,57.609375,0)" xlink:href="#bJ"/><use transform="matrix(0.0078125,0,0,0.0078125,67.2109375,0)" xlink:href="#bN"/></g><path fill="#24292f" d="M914 0L548-499l-132 98V0H236v-1484h180v927l475-525h211L663-617 1125 0H914" id="bP"/><path fill="#24292f" d="M1034 0L896-382H333L196 0H0l510-1349h217L1228 0h-194zM847-531c-77-225-157-447-231-674-69 231-154 451-232 674h463" id="bQ"/><g id="W"><use transform="matrix(0.0078125,0,0,0.0078125,0,0)" xlink:href="#bn"/><use transform="matrix(0.0078125,0,0,0.0078125,9.6015625,0)" xlink:href="#bx"/><use transform="matrix(0.0078125,0,0,0.0078125,19.203125,0)" xlink:href="#bC"/><use transform="matrix(0.0078125,0,0,0.0078125,28.8046875,0)" xlink:href="#bP"/><use transform="matrix(0.0078125,0,0,0.0078125,38.40625,0)" xlink:href="#br"/><use transform="matrix(0.0078125,0,0,0.0078125,48.0078125,0)" xlink:href="#bo"/><use transform="matrix(0.0078125,0,0,0.0078125,57.609375,0)" xlink:href="#bQ"/><use transform="matrix(0.0078125,0,0,0.0078125,67.2109375,0)" xlink:href="#bt"/><use transform="matrix(0.0078125,0,0,0.0078125,76.8125,0)" xlink:href="#bt"/><use transform="matrix(0.0078125,0,0,0.0078125,86.4140625,0)" xlink:href="#bu"/><use transform="matrix(0.0078125,0,0,0.0078125,96.015625,0)" xlink:href="#bC"/><use transform="matrix(0.0078125,0,0,0.0078125,105.6171875,0)" xlink:href="#bw"/><use transform="matrix(0.0078125,0,0,0.0078125,115.21875,0)" xlink:href="#bp"/><use transform="matrix(0.0078125,0,0,0.0078125,124.8203125,0)" xlink:href="#bD"/><use transform="matrix(0.0078125,0,0,0.0078125,134.421875,0)" xlink:href="#by"/><use transform="matrix(0.0078125,0,0,0.0078125,144.0234375,0)" xlink:href="#bs"/></g><g id="X"><use transform="matrix(0.0078125,0,0,0.0078125,0,0)" xlink:href="#bq"/><use transform="matrix(0.0078125,0,0,0.0078125,9.6015625,0)" xlink:href="#bp"/><use transform="matrix(0.0078125,0,0,0.0078125,19.203125,0)" xlink:href="#bt"/><use transform="matrix(0.0078125,0,0,0.0078125,28.8046875,0)" xlink:href="#bt"/><use transform="matrix(0.0078125,0,0,0.0078125,38.40625,0)" xlink:href="#bv"/><use transform="matrix(0.0078125,0,0,0.0078125,48.0078125,0)" xlink:href="#bo"/><use transform="matrix(0.0078125,0,0,0.0078125,57.609375,0)" xlink:href="#bz"/><use transform="matrix(0.0078125,0,0,0.0078125,67.2109375,0)" xlink:href="#bF"/><use transform="matrix(0.0078125,0,0,0.0078125,76.8125,0)" xlink:href="#bG"/><use transform="matrix(0.0078125,0,0,0.0078125,86.4140625,0)" xlink:href="#bv"/><use transform="matrix(0.0078125,0,0,0.0078125,96.015625,0)" xlink:href="#bo"/><use transform="matrix(0.0078125,0,0,0.0078125,105.6171875,0)" xlink:href="#bx"/><use transform="matrix(0.0078125,0,0,0.0078125,115.21875,0)" xlink:href="#bH"/><use transform="matrix(0.0078125,0,0,0.0078125,124.8203125,0)" xlink:href="#bI"/><use transform="matrix(0.0078125,0,0,0.0078125,134.421875,0)" xlink:href="#bJ"/></g><g id="Y"><use transform="matrix(0.0078125,0,0,0.0078125,0,0)" xlink:href="#bp"/><use transform="matrix(0.0078125,0,0,0.0078125,9.6015625,0)" xlink:href="#bM"/><use transform="matrix(0.0078125,0,0,0.0078125,19.203125,0)" xlink:href="#bM"/><use transform="matrix(0.0078125,0,0,0.0078125,28.8046875,0)" xlink:href="#bu"/><use transform="matrix(0.0078125,0,0,0.0078125,38.40625,0)" xlink:href="#br"/><use transform="matrix(0.0078125,0,0,0.0078125,48.0078125,0)" xlink:href="#by"/><use transform="matrix(0.0078125,0,0,0.0078125,57.609375,0)" xlink:href="#by"/></g><path fill="#24292f" d="M33-261c38 41 65 92 65 168S71 34 33 75H2C39 34 66-17 66-93S39-220 2-261h31" id="bR"/><use transform="matrix(0.05185185185185186,0,0,0.05185185185185186,0,0)" xlink:href="#bR" id="Z"/><g id="aa"><use transform="matrix(0.0078125,0,0,0.0078125,0,0)" xlink:href="#bn"/><use transform="matrix(0.0078125,0,0,0.0078125,9.6015625,0)" xlink:href="#bC"/><use transform="matrix(0.0078125,0,0,0.0078125,19.203125,0)" xlink:href="#bt"/><use transform="matrix(0.0078125,0,0,0.0078125,28.8046875,0)" xlink:href="#br"/><use transform="matrix(0.0078125,0,0,0.0078125,38.40625,0)" xlink:href="#bu"/><use transform="matrix(0.0078125,0,0,0.0078125,48.0078125,0)" xlink:href="#bp"/><use transform="matrix(0.0078125,0,0,0.0078125,57.609375,0)" xlink:href="#bx"/><use transform="matrix(0.0078125,0,0,0.0078125,67.2109375,0)" xlink:href="#bC"/><use transform="matrix(0.0078125,0,0,0.0078125,76.8125,0)" xlink:href="#bu"/><use transform="matrix(0.0078125,0,0,0.0078125,86.4140625,0)" xlink:href="#bQ"/><use transform="matrix(0.0078125,0,0,0.0078125,96.015625,0)" xlink:href="#bt"/><use transform="matrix(0.0078125,0,0,0.0078125,105.6171875,0)" xlink:href="#bt"/><use transform="matrix(0.0078125,0,0,0.0078125,115.21875,0)" xlink:href="#bu"/><use transform="matrix(0.0078125,0,0,0.0078125,124.8203125,0)" xlink:href="#bC"/><use transform="matrix(0.0078125,0,0,0.0078125,134.421875,0)" xlink:href="#bw"/><use transform="matrix(0.0078125,0,0,0.0078125,144.0234375,0)" xlink:href="#bp"/><use transform="matrix(0.0078125,0,0,0.0078125,153.625,0)" xlink:href="#bD"/><use transform="matrix(0.0078125,0,0,0.0078125,163.2265625,0)" xlink:href="#by"/><use transform="matrix(0.0078125,0,0,0.0078125,172.828125,0)" xlink:href="#bs"/></g><g id="ab"><use transform="matrix(0.0078125,0,0,0.0078125,0,0)" xlink:href="#bt"/><use transform="matrix(0.0078125,0,0,0.0078125,9.6015625,0)" xlink:href="#bu"/><use transform="matrix(0.0078125,0,0,0.0078125,19.203125,0)" xlink:href="#bv"/><use transform="matrix(0.0078125,0,0,0.0078125,28.8046875,0)" xlink:href="#bw"/><use transform="matrix(0.0078125,0,0,0.0078125,38.40625,0)" xlink:href="#bp"/><use transform="matrix(0.0078125,0,0,0.0078125,48.0078125,0)" xlink:href="#bx"/><use transform="matrix(0.0078125,0,0,0.0078125,57.609375,0)" xlink:href="#br"/></g><g id="ac"><use transform="matrix(0.0078125,0,0,0.0078125,0,0)" xlink:href="#bq"/><use transform="matrix(0.0078125,0,0,0.0078125,9.6015625,0)" xlink:href="#bp"/><use transform="matrix(0.0078125,0,0,0.0078125,19.203125,0)" xlink:href="#bt"/><use transform="matrix(0.0078125,0,0,0.0078125,28.8046875,0)" xlink:href="#bt"/><use transform="matrix(0.0078125,0,0,0.0078125,38.40625,0)" xlink:href="#bv"/><use transform="matrix(0.0078125,0,0,0.0078125,48.0078125,0)" xlink:href="#bo"/><use transform="matrix(0.0078125,0,0,0.0078125,57.609375,0)" xlink:href="#bz"/><use transform="matrix(0.0078125,0,0,0.0078125,67.2109375,0)" xlink:href="#bF"/><use transform="matrix(0.0078125,0,0,0.0078125,76.8125,0)" xlink:href="#bp"/><use transform="matrix(0.0078125,0,0,0.0078125,86.4140625,0)" xlink:href="#bM"/><use transform="matrix(0.0078125,0,0,0.0078125,96.015625,0)" xlink:href="#bM"/><use transform="matrix(0.0078125,0,0,0.0078125,105.6171875,0)" xlink:href="#bu"/><use transform="matrix(0.0078125,0,0,0.0078125,115.21875,0)" xlink:href="#br"/><use transform="matrix(0.0078125,0,0,0.0078125,124.8203125,0)" xlink:href="#by"/><use transform="matrix(0.0078125,0,0,0.0078125,134.421875,0)" xlink:href="#by"/></g><g id="ad"><use transform="matrix(0.0078125,0,0,0.0078125,0,0)" xlink:href="#bq"/><use transform="matrix(0.0078125,0,0,0.0078125,9.6015625,0)" xlink:href="#bp"/><use transform="matrix(0.0078125,0,0,0.0078125,19.203125,0)" xlink:href="#bt"/><use transform="matrix(0.0078125,0,0,0.0078125,28.8046875,0)" xlink:href="#bt"/><use transform="matrix(0.0078125,0,0,0.0078125,38.40625,0)" xlink:href="#bv"/><use transform="matrix(0.0078125,0,0,0.0078125,48.0078125,0)" xlink:href="#bo"/><use transform="matrix(0.0078125,0,0,0.0078125,57.609375,0)" xlink:href="#bz"/><use transform="matrix(0.0078125,0,0,0.0078125,67.2109375,0)" xlink:href="#bF"/><use transform="matrix(0.0078125,0,0,0.0078125,76.8125,0)" xlink:href="#bp"/><use transform="matrix(0.0078125,0,0,0.0078125,86.4140625,0)" xlink:href="#bM"/><use transform="matrix(0.0078125,0,0,0.0078125,96.015625,0)" xlink:href="#bM"/><use transform="matrix(0.0078125,0,0,0.0078125,105.6171875,0)" xlink:href="#bu"/><use transform="matrix(0.0078125,0,0,0.0078125,115.21875,0)" xlink:href="#br"/><use transform="matrix(0.0078125,0,0,0.0078125,124.8203125,0)" xlink:href="#by"/><use transform="matrix(0.0078125,0,0,0.0078125,134.421875,0)" xlink:href="#by"/></g><g id="ae"><use transform="matrix(0.0078125,0,0,0.0078125,0,0)" xlink:href="#bB"/><use transform="matrix(0.0078125,0,0,0.0078125,9.6015625,0)" xlink:href="#bC"/><use transform="matrix(0.0078125,0,0,0.0078125,19.203125,0)" xlink:href="#bC"/><use transform="matrix(0.0078125,0,0,0.0078125,28.8046875,0)" xlink:href="#bD"/><use transform="matrix(0.0078125,0,0,0.0078125,38.40625,0)" xlink:href="#bN"/><use transform="matrix(0.0078125,0,0,0.0078125,48.0078125,0)" xlink:href="#bN"/></g><g id="ah"><use transform="matrix(0.05,0,0,0.05,0,0)" xlink:href="#aY"/><use transform="matrix(0.05,0,0,0.05,14.950000000000001,0)" xlink:href="#aU"/><use transform="matrix(0.05,0,0,0.05,18.900000000000002,0)" xlink:href="#aE"/><use transform="matrix(0.05,0,0,0.05,28.900000000000002,0)" xlink:href="#aK"/></g><path fill="#333" d="M115-194c53 0 69 39 70 98 0 66-23 100-70 100C84 3 66-7 56-30L54 0H23l1-261h32v101c10-23 28-34 59-34zm-8 174c40 0 45-34 45-75 0-40-5-75-45-74-42 0-51 32-51 76 0 43 10 73 51 73" id="bS"/><g id="ai"><use transform="matrix(0.05,0,0,0.05,0,0)" xlink:href="#bS"/><use transform="matrix(0.05,0,0,0.05,10,0)" xlink:href="#bh"/><use transform="matrix(0.05,0,0,0.05,20,0)" xlink:href="#aH"/><use transform="matrix(0.05,0,0,0.05,25.950000000000003,0)" xlink:href="#aE"/><use transform="matrix(0.05,0,0,0.05,35.95,0)" xlink:href="#aV"/><use transform="matrix(0.05,0,0,0.05,41.900000000000006,0)" xlink:href="#aK"/><use transform="matrix(0.05,0,0,0.05,46.900000000000006,0)" xlink:href="#aL"/><use transform="matrix(0.05,0,0,0.05,56.900000000000006,0)" xlink:href="#bm"/><use transform="matrix(0.05,0,0,0.05,65.9,0)" xlink:href="#aG"/><use transform="matrix(0.05,0,0,0.05,75.9,0)" xlink:href="#aE"/><use transform="matrix(0.05,0,0,0.05,85.9,0)" xlink:href="#bf"/><use transform="matrix(0.05,0,0,0.05,90.9,0)" xlink:href="#aO"/><use transform="matrix(0.05,0,0,0.05,100.9,0)" xlink:href="#aN"/></g><path fill="#333" d="M101-251c82-7 93 87 43 132L82-64C71-53 59-42 53-27h129V0H18c2-99 128-94 128-182 0-28-16-43-45-43s-46 15-49 41l-32-3c6-41 34-60 81-64" id="bT"/><path fill="#333" d="M54-142c48-35 137-8 131 61C196 18 31 33 14-55l32-4c7 23 22 37 52 37 35-1 51-22 54-58 4-55-73-65-99-34H22l8-134h141v27H59" id="bU"/><path fill="#333" d="M110-160c48 1 74 30 74 79 0 53-28 85-80 85-65 0-83-55-86-122-5-90 50-162 133-122 14 7 22 21 27 39l-31 6c-5-40-67-38-82-6-9 19-15 44-15 74 11-20 30-34 60-33zm-7 138c34 0 49-23 49-58s-16-56-50-56c-29 0-50 16-49 49 1 36 15 65 50 65" id="bV"/><g id="aj"><use transform="matrix(0.05,0,0,0.05,0,0)" xlink:href="#bh"/><use transform="matrix(0.05,0,0,0.05,10,0)" xlink:href="#aU"/><use transform="matrix(0.05,0,0,0.05,13.949999999999998,0)" xlink:href="#aE"/><use transform="matrix(0.05,0,0,0.05,23.95,0)" xlink:href="#aK"/><use transform="matrix(0.05,0,0,0.05,28.950000000000003,0)" xlink:href="#bT"/><use transform="matrix(0.05,0,0,0.05,38.95,0)" xlink:href="#bU"/><use transform="matrix(0.05,0,0,0.05,48.95,0)" xlink:href="#bV"/><use transform="matrix(0.05,0,0,0.05,58.95,0)" xlink:href="#aX"/></g><path fill="#333" d="M232-93c-1 65-40 97-104 97C67 4 28-28 28-90v-158h33c8 89-33 224 67 224 102 0 64-133 71-224h33v155" id="bW"/><path fill="#333" d="M233-177c-1 41-23 64-60 70L243 0h-38l-65-103H63V0H30v-248c88 3 205-21 203 71zM63-129c60-2 137 13 137-47 0-61-80-42-137-45v92" id="bX"/><g id="ak"><use transform="matrix(0.05,0,0,0.05,0,0)" xlink:href="#aK"/><use transform="matrix(0.05,0,0,0.05,5,0)" xlink:href="#aL"/><use transform="matrix(0.05,0,0,0.05,15,0)" xlink:href="#bm"/><use transform="matrix(0.05,0,0,0.05,24,0)" xlink:href="#aG"/><use transform="matrix(0.05,0,0,0.05,34,0)" xlink:href="#aE"/><use transform="matrix(0.05,0,0,0.05,44,0)" xlink:href="#bW"/><use transform="matrix(0.05,0,0,0.05,56.95,0)" xlink:href="#bX"/><use transform="matrix(0.05,0,0,0.05,69.9,0)" xlink:href="#bf"/><use transform="matrix(0.05,0,0,0.05,74.9,0)" xlink:href="#aV"/><use transform="matrix(0.05,0,0,0.05,80.85000000000001,0)" xlink:href="#bh"/><use transform="matrix(0.05,0,0,0.05,90.85000000000001,0)" xlink:href="#aU"/><use transform="matrix(0.05,0,0,0.05,94.80000000000001,0)" xlink:href="#aE"/><use transform="matrix(0.05,0,0,0.05,104.80000000000001,0)" xlink:href="#aK"/><use transform="matrix(0.05,0,0,0.05,109.80000000000001,0)" xlink:href="#bT"/><use transform="matrix(0.05,0,0,0.05,119.80000000000001,0)" xlink:href="#bU"/><use transform="matrix(0.05,0,0,0.05,129.8,0)" xlink:href="#bV"/></g><g id="al"><use transform="matrix(0.05,0,0,0.05,0,0)" xlink:href="#aK"/><use transform="matrix(0.05,0,0,0.05,5,0)" xlink:href="#aL"/><use transform="matrix(0.05,0,0,0.05,15,0)" xlink:href="#bm"/><use transform="matrix(0.05,0,0,0.05,24,0)" xlink:href="#aG"/><use transform="matrix(0.05,0,0,0.05,34,0)" xlink:href="#aE"/><use transform="matrix(0.05,0,0,0.05,44,0)" xlink:href="#bf"/><use transform="matrix(0.05,0,0,0.05,49,0)" xlink:href="#aO"/><use transform="matrix(0.05,0,0,0.05,59,0)" xlink:href="#aX"/></g><g id="am"><use transform="matrix(0.05,0,0,0.05,0,0)" xlink:href="#aC"/><use transform="matrix(0.05,0,0,0.05,14.950000000000001,0)" xlink:href="#aG"/><use transform="matrix(0.05,0,0,0.05,24.950000000000003,0)" xlink:href="#aK"/><use transform="matrix(0.05,0,0,0.05,29.950000000000003,0)" xlink:href="#aD"/><use transform="matrix(0.05,0,0,0.05,39.95,0)" xlink:href="#aO"/><use transform="matrix(0.05,0,0,0.05,49.95,0)" xlink:href="#aD"/><use transform="matrix(0.05,0,0,0.05,59.95,0)" xlink:href="#aK"/><use transform="matrix(0.05,0,0,0.05,64.95,0)" xlink:href="#aD"/><use transform="matrix(0.05,0,0,0.05,74.95,0)" xlink:href="#aT"/><use transform="matrix(0.05,0,0,0.05,87.9,0)" xlink:href="#aL"/><use transform="matrix(0.05,0,0,0.05,97.9,0)" xlink:href="#aE"/><use transform="matrix(0.05,0,0,0.05,107.9,0)" xlink:href="#aP"/><use transform="matrix(0.05,0,0,0.05,116.9,0)" xlink:href="#aK"/><use transform="matrix(0.05,0,0,0.05,121.9,0)" xlink:href="#aH"/><use transform="matrix(0.05,0,0,0.05,127.85000000000001,0)" xlink:href="#bh"/><use transform="matrix(0.05,0,0,0.05,137.85000000000002,0)" xlink:href="#aJ"/><use transform="matrix(0.05,0,0,0.05,146.85000000000002,0)" xlink:href="#aK"/><use transform="matrix(0.05,0,0,0.05,151.85000000000002,0)" xlink:href="#aL"/><use transform="matrix(0.05,0,0,0.05,161.85000000000002,0)" xlink:href="#aH"/></g><g id="an"><use transform="matrix(0.05,0,0,0.05,0,0)" xlink:href="#aY"/><use transform="matrix(0.05,0,0,0.05,14.950000000000001,0)" xlink:href="#aD"/><use transform="matrix(0.05,0,0,0.05,24.950000000000003,0)" xlink:href="#aE"/><use transform="matrix(0.05,0,0,0.05,34.95,0)" xlink:href="#aD"/><use transform="matrix(0.05,0,0,0.05,44.95,0)" xlink:href="#aF"/><use transform="matrix(0.05,0,0,0.05,54.95,0)" xlink:href="#aG"/><use transform="matrix(0.05,0,0,0.05,64.95,0)" xlink:href="#aH"/><use transform="matrix(0.05,0,0,0.05,70.9,0)" xlink:href="#aN"/></g><g id="ao"><use transform="matrix(0.05,0,0,0.05,0,0)" xlink:href="#aD"/><use transform="matrix(0.05,0,0,0.05,10,0)" xlink:href="#aO"/><use transform="matrix(0.05,0,0,0.05,20,0)" xlink:href="#aO"/><use transform="matrix(0.05,0,0,0.05,30,0)" xlink:href="#aH"/><use transform="matrix(0.05,0,0,0.05,35.95,0)" xlink:href="#aG"/><use transform="matrix(0.05,0,0,0.05,45.95,0)" xlink:href="#aP"/><use transform="matrix(0.05,0,0,0.05,54.95,0)" xlink:href="#aP"/></g><g id="ap"><use transform="matrix(0.05,0,0,0.05,0,0)" xlink:href="#bc"/><use transform="matrix(0.05,0,0,0.05,12,0)" xlink:href="#bd"/><use transform="matrix(0.05,0,0,0.05,24,0)" xlink:href="#be"/><use transform="matrix(0.05,0,0,0.05,32.95,0)" xlink:href="#aN"/></g><g id="aq"><use transform="matrix(0.05,0,0,0.05,0,0)" xlink:href="#aD"/><use transform="matrix(0.05,0,0,0.05,10,0)" xlink:href="#aO"/><use transform="matrix(0.05,0,0,0.05,20,0)" xlink:href="#aO"/><use transform="matrix(0.05,0,0,0.05,30,0)" xlink:href="#aH"/><use transform="matrix(0.05,0,0,0.05,35.95,0)" xlink:href="#aG"/><use transform="matrix(0.05,0,0,0.05,45.95,0)" xlink:href="#aP"/><use transform="matrix(0.05,0,0,0.05,54.95,0)" xlink:href="#aP"/></g><path fill="#333" d="M185-189c-5-48-123-54-124 2 14 75 158 14 163 119 3 78-121 87-175 55-17-10-28-26-33-46l33-7c5 56 141 63 141-1 0-78-155-14-162-118-5-82 145-84 179-34 5 7 8 16 11 25" id="bY"/><path fill="#333" d="M137 0h-34L2-248h35l83 218 83-218h36" id="bZ"/><path fill="#333" d="M143 4C61 4 22-44 18-125c-5-107 100-154 193-111 17 8 29 25 37 43l-32 9c-13-25-37-40-76-40-61 0-88 39-88 99 0 61 29 100 91 101 35 0 62-11 79-27v-45h-74v-28h105v86C228-13 192 4 143 4" id="ca"/><path fill="#333" d="M30-248c87 1 191-15 191 75 0 78-77 80-158 76V0H30v-248zm33 125c57 0 124 11 124-50 0-59-68-47-124-48v98" id="cb"/><g id="ar"><use transform="matrix(0.05,0,0,0.05,0,0)" xlink:href="#aJ"/><use transform="matrix(0.05,0,0,0.05,9,0)" xlink:href="#aL"/><use transform="matrix(0.05,0,0,0.05,19,0)" xlink:href="#aE"/><use transform="matrix(0.05,0,0,0.05,29,0)" xlink:href="#aP"/><use transform="matrix(0.05,0,0,0.05,38,0)" xlink:href="#aK"/><use transform="matrix(0.05,0,0,0.05,43,0)" xlink:href="#aH"/><use transform="matrix(0.05,0,0,0.05,48.95,0)" xlink:href="#bh"/><use transform="matrix(0.05,0,0,0.05,58.95,0)" xlink:href="#aJ"/><use transform="matrix(0.05,0,0,0.05,67.95,0)" xlink:href="#aK"/><use transform="matrix(0.05,0,0,0.05,72.95,0)" xlink:href="#bY"/><use transform="matrix(0.05,0,0,0.05,84.95,0)" xlink:href="#bZ"/><use transform="matrix(0.05,0,0,0.05,96.95,0)" xlink:href="#ca"/><use transform="matrix(0.05,0,0,0.05,110.95,0)" xlink:href="#cb"/><use transform="matrix(0.05,0,0,0.05,122.95,0)" xlink:href="#aD"/><use transform="matrix(0.05,0,0,0.05,132.95,0)" xlink:href="#aH"/><use transform="matrix(0.05,0,0,0.05,138.89999999999998,0)" xlink:href="#aD"/><use transform="matrix(0.05,0,0,0.05,148.89999999999998,0)" xlink:href="#aY"/><use transform="matrix(0.05,0,0,0.05,163.84999999999997,0)" xlink:href="#aP"/><use transform="matrix(0.05,0,0,0.05,172.84999999999997,0)" xlink:href="#aV"/><use transform="matrix(0.05,0,0,0.05,178.79999999999995,0)" xlink:href="#cb"/><use transform="matrix(0.05,0,0,0.05,190.79999999999995,0)" xlink:href="#aD"/><use transform="matrix(0.05,0,0,0.05,200.79999999999995,0)" xlink:href="#aH"/><use transform="matrix(0.05,0,0,0.05,206.74999999999991,0)" xlink:href="#aD"/><use transform="matrix(0.05,0,0,0.05,216.74999999999991,0)" xlink:href="#aY"/><use transform="matrix(0.05,0,0,0.05,231.69999999999993,0)" xlink:href="#aP"/></g><g id="as"><use transform="matrix(0.05,0,0,0.05,0,0)" xlink:href="#aZ"/><use transform="matrix(0.05,0,0,0.05,10,0)" xlink:href="#aD"/><use transform="matrix(0.05,0,0,0.05,20,0)" xlink:href="#aH"/><use transform="matrix(0.05,0,0,0.05,25.950000000000003,0)" xlink:href="#aD"/><use transform="matrix(0.05,0,0,0.05,35.95,0)" xlink:href="#aY"/><use transform="matrix(0.05,0,0,0.05,50.900000000000006,0)" xlink:href="#aP"/><use transform="matrix(0.05,0,0,0.05,59.900000000000006,0)" xlink:href="#aX"/></g><g id="at"><use transform="matrix(0.05,0,0,0.05,0,0)" xlink:href="#bY"/><use transform="matrix(0.05,0,0,0.05,12,0)" xlink:href="#bZ"/><use transform="matrix(0.05,0,0,0.05,24,0)" xlink:href="#ca"/><use transform="matrix(0.05,0,0,0.05,38,0)" xlink:href="#cb"/><use transform="matrix(0.05,0,0,0.05,50,0)" xlink:href="#aD"/><use transform="matrix(0.05,0,0,0.05,60,0)" xlink:href="#aH"/><use transform="matrix(0.05,0,0,0.05,65.95,0)" xlink:href="#aD"/><use transform="matrix(0.05,0,0,0.05,75.95,0)" xlink:href="#aY"/><use transform="matrix(0.05,0,0,0.05,90.9,0)" xlink:href="#aP"/></g><path fill="#333" d="M30-248c118-7 216 8 213 122C240-48 200 0 122 0H30v-248zM63-27c89 8 146-16 146-99s-60-101-146-95v194" id="cc"/><g id="au"><use transform="matrix(0.05,0,0,0.05,0,0)" xlink:href="#aC"/><use transform="matrix(0.05,0,0,0.05,14.950000000000001,0)" xlink:href="#aG"/><use transform="matrix(0.05,0,0,0.05,24.950000000000003,0)" xlink:href="#aK"/><use transform="matrix(0.05,0,0,0.05,29.950000000000003,0)" xlink:href="#aD"/><use transform="matrix(0.05,0,0,0.05,39.95,0)" xlink:href="#aO"/><use transform="matrix(0.05,0,0,0.05,49.95,0)" xlink:href="#aD"/><use transform="matrix(0.05,0,0,0.05,59.95,0)" xlink:href="#aK"/><use transform="matrix(0.05,0,0,0.05,64.95,0)" xlink:href="#aD"/><use transform="matrix(0.05,0,0,0.05,74.95,0)" xlink:href="#cc"/><use transform="matrix(0.05,0,0,0.05,87.9,0)" xlink:href="#aG"/><use transform="matrix(0.05,0,0,0.05,97.9,0)" xlink:href="#aP"/><use transform="matrix(0.05,0,0,0.05,106.9,0)" xlink:href="#aJ"/><use transform="matrix(0.05,0,0,0.05,115.9,0)" xlink:href="#aH"/><use transform="matrix(0.05,0,0,0.05,121.85000000000001,0)" xlink:href="#aU"/><use transform="matrix(0.05,0,0,0.05,125.80000000000001,0)" xlink:href="#aZ"/><use transform="matrix(0.05,0,0,0.05,135.8,0)" xlink:href="#aK"/><use transform="matrix(0.05,0,0,0.05,140.8,0)" xlink:href="#aL"/><use transform="matrix(0.05,0,0,0.05,150.8,0)" xlink:href="#aH"/></g><g id="av"><use transform="matrix(0.05,0,0,0.05,0,0)" xlink:href="#aJ"/><use transform="matrix(0.05,0,0,0.05,9,0)" xlink:href="#aL"/><use transform="matrix(0.05,0,0,0.05,19,0)" xlink:href="#aE"/><use transform="matrix(0.05,0,0,0.05,29,0)" xlink:href="#aP"/><use transform="matrix(0.05,0,0,0.05,38,0)" xlink:href="#aK"/><use transform="matrix(0.05,0,0,0.05,43,0)" xlink:href="#aH"/><use transform="matrix(0.05,0,0,0.05,48.95,0)" xlink:href="#bh"/><use transform="matrix(0.05,0,0,0.05,58.95,0)" xlink:href="#aJ"/><use transform="matrix(0.05,0,0,0.05,67.95,0)" xlink:href="#aK"/><use transform="matrix(0.05,0,0,0.05,72.95,0)" xlink:href="#aL"/><use transform="matrix(0.05,0,0,0.05,82.95,0)" xlink:href="#aH"/><use transform="matrix(0.05,0,0,0.05,88.9,0)" xlink:href="#aN"/></g><g id="aw"><use transform="matrix(0.05,0,0,0.05,0,0)" xlink:href="#aK"/><use transform="matrix(0.05,0,0,0.05,5,0)" xlink:href="#aL"/><use transform="matrix(0.05,0,0,0.05,15,0)" xlink:href="#bm"/><use transform="matrix(0.05,0,0,0.05,24,0)" xlink:href="#aG"/><use transform="matrix(0.05,0,0,0.05,34,0)" xlink:href="#aE"/><use transform="matrix(0.05,0,0,0.05,44,0)" xlink:href="#bW"/><use transform="matrix(0.05,0,0,0.05,56.95,0)" xlink:href="#bX"/><use transform="matrix(0.05,0,0,0.05,69.9,0)" xlink:href="#bf"/><use transform="matrix(0.05,0,0,0.05,74.9,0)" xlink:href="#aV"/><use transform="matrix(0.05,0,0,0.05,80.85000000000001,0)" xlink:href="#bh"/><use transform="matrix(0.05,0,0,0.05,90.85000000000001,0)" xlink:href="#aU"/><use transform="matrix(0.05,0,0,0.05,94.80000000000001,0)" xlink:href="#aE"/><use transform="matrix(0.05,0,0,0.05,104.80000000000001,0)" xlink:href="#aK"/></g><g id="ax"><use transform="matrix(0.05,0,0,0.05,0,0)" xlink:href="#aK"/><use transform="matrix(0.05,0,0,0.05,5,0)" xlink:href="#aL"/><use transform="matrix(0.05,0,0,0.05,15,0)" xlink:href="#bm"/><use transform="matrix(0.05,0,0,0.05,24,0)" xlink:href="#aG"/><use transform="matrix(0.05,0,0,0.05,34,0)" xlink:href="#aE"/><use transform="matrix(0.05,0,0,0.05,44,0)" xlink:href="#bf"/><use transform="matrix(0.05,0,0,0.05,49,0)" xlink:href="#aO"/><use transform="matrix(0.05,0,0,0.05,59,0)" xlink:href="#aX"/></g><g id="ay"><use transform="matrix(0.05,0,0,0.05,0,0)" xlink:href="#aZ"/><use transform="matrix(0.05,0,0,0.05,10,0)" xlink:href="#bh"/><use transform="matrix(0.05,0,0,0.05,20,0)" xlink:href="#bS"/><use transform="matrix(0.05,0,0,0.05,30,0)" xlink:href="#bg"/><use transform="matrix(0.05,0,0,0.05,33.95,0)" xlink:href="#aU"/><use transform="matrix(0.05,0,0,0.05,37.900000000000006,0)" xlink:href="#aJ"/></g><g id="az"><use transform="matrix(0.05,0,0,0.05,0,0)" xlink:href="#aP"/><use transform="matrix(0.05,0,0,0.05,9,0)" xlink:href="#aK"/><use transform="matrix(0.05,0,0,0.05,14,0)" xlink:href="#aH"/><use transform="matrix(0.05,0,0,0.05,19.95,0)" xlink:href="#aU"/><use transform="matrix(0.05,0,0,0.05,23.9,0)" xlink:href="#aE"/><use transform="matrix(0.05,0,0,0.05,33.9,0)" xlink:href="#aF"/></g><g id="aA"><use transform="matrix(0.05,0,0,0.05,0,0)" xlink:href="#aI"/><use transform="matrix(0.05,0,0,0.05,5,0)" xlink:href="#aL"/><use transform="matrix(0.05,0,0,0.05,15,0)" xlink:href="#aH"/><use transform="matrix(0.05,0,0,0.05,20.95,0)" xlink:href="#aY"/><use transform="matrix(0.05,0,0,0.05,35.9,0)" xlink:href="#aD"/><use transform="matrix(0.05,0,0,0.05,45.9,0)" xlink:href="#aK"/><use transform="matrix(0.05,0,0,0.05,50.9,0)" xlink:href="#aC"/><use transform="matrix(0.05,0,0,0.05,65.85,0)" xlink:href="#aG"/><use transform="matrix(0.05,0,0,0.05,75.85,0)" xlink:href="#aK"/><use transform="matrix(0.05,0,0,0.05,80.85,0)" xlink:href="#aD"/><use transform="matrix(0.05,0,0,0.05,90.85,0)" xlink:href="#aO"/><use transform="matrix(0.05,0,0,0.05,100.85,0)" xlink:href="#aD"/><use transform="matrix(0.05,0,0,0.05,110.84999999999998,0)" xlink:href="#aK"/><use transform="matrix(0.05,0,0,0.05,115.84999999999998,0)" xlink:href="#aD"/><use transform="matrix(0.05,0,0,0.05,125.84999999999998,0)" xlink:href="#aV"/><use transform="matrix(0.05,0,0,0.05,131.79999999999998,0)" xlink:href="#bY"/><use transform="matrix(0.05,0,0,0.05,143.79999999999998,0)" xlink:href="#bZ"/><use transform="matrix(0.05,0,0,0.05,155.79999999999998,0)" xlink:href="#ca"/><use transform="matrix(0.05,0,0,0.05,169.79999999999998,0)" xlink:href="#cb"/><use transform="matrix(0.05,0,0,0.05,181.79999999999998,0)" xlink:href="#aD"/><use transform="matrix(0.05,0,0,0.05,191.79999999999998,0)" xlink:href="#aH"/><use transform="matrix(0.05,0,0,0.05,197.74999999999997,0)" xlink:href="#aD"/><use transform="matrix(0.05,0,0,0.05,207.74999999999997,0)" xlink:href="#aY"/><use transform="matrix(0.05,0,0,0.05,222.69999999999996,0)" xlink:href="#aP"/></g><g id="aB"><use transform="matrix(0.05,0,0,0.05,0,0)" xlink:href="#aZ"/><use transform="matrix(0.05,0,0,0.05,10,0)" xlink:href="#aD"/><use transform="matrix(0.05,0,0,0.05,20,0)" xlink:href="#aH"/><use transform="matrix(0.05,0,0,0.05,25.950000000000003,0)" xlink:href="#aD"/><use transform="matrix(0.05,0,0,0.05,35.95,0)" xlink:href="#aY"/><use transform="matrix(0.05,0,0,0.05,50.900000000000006,0)" xlink:href="#aP"/><use transform="matrix(0.05,0,0,0.05,59.900000000000006,0)" xlink:href="#aX"/></g></defs></g></svg>