<svg version="1.1" xmlns="http://www.w3.org/2000/svg" viewBox="0 0 1284.6298828125005 1171.0818058753275" width="1284.6298828125005" height="1171.0818058753275">
  <!-- svg-source:excalidraw -->
  
  <defs>
    <style class="style-fonts">
      @font-face {
        font-family: "Virgil";
        src: url("https://excalidraw.com/Virgil.woff2");
      }
      @font-face {
        font-family: "Cascadia";
        src: url("https://excalidraw.com/Cascadia.woff2");
      }
    </style>
    
  </defs>
  <rect x="0" y="0" width="1284.6298828125005" height="1171.0818058753275" fill="#ffffff"></rect><g mask="url(#mask-_ytCEee9buCieGOzh8hfG)" stroke-linecap="round"><g transform="translate(907.1450027046035 162.7115245482414) rotate(0 0.35217493241867714 384.8401217860476)"><path d="M0.15 1.09 C0.58 11.59, 1.43 -67.84, 1.73 62.68 C2.02 193.2, 1.76 664.09, 1.93 784.2 M-1.23 0.61 C-0.78 10.82, 1 -69.3, 1.38 61 C1.76 191.29, 0.71 661.79, 1.04 782.37" stroke="#1e1e1e" stroke-width="1" fill="none"></path></g><g transform="translate(907.1450027046035 162.7115245482414) rotate(0 0.35217493241867714 384.8401217860476)"><path d="M-7.41 756.09 C-5.59 760.19, -2.98 768.01, 1.24 782.02 M-9.27 753.3 C-7.26 760.97, -4.03 768.98, 0.28 783.22" stroke="#1e1e1e" stroke-width="1" fill="none"></path></g><g transform="translate(907.1450027046035 162.7115245482414) rotate(0 0.35217493241867714 384.8401217860476)"><path d="M13.11 756.09 C10.26 760.22, 8.2 768.04, 1.24 782.02 M11.25 753.3 C7.81 760.84, 5.6 768.85, 0.28 783.22" stroke="#1e1e1e" stroke-width="1" fill="none"></path></g></g><mask id="mask-_ytCEee9buCieGOzh8hfG"><rect x="0" y="0" fill="#fff" width="1009.3144698655889" height="1045.9133005837402"></rect><rect x="861.6111482579752" y="213.06320659097673" fill="#000" width="92.236328125" height="23" opacity="1"></rect></mask><g transform="translate(861.6111482579752 213.06320659097673) rotate(0 45.88602937904699 334.48843974331226)"><text x="46.1181640625" y="0" font-family="Helvetica, Segoe UI Emoji" font-size="20px" fill="#1e1e1e" text-anchor="middle" style="white-space: pre;" direction="ltr" dominant-baseline="text-before-edge">Direct Call</text></g><g mask="url(#mask-Z9xv0RDcG3SHnGRBdpQw6)" stroke-linecap="round"><g transform="translate(332.16617447424744 164.97758005529522) rotate(0 -0.6608931530657287 170.44390373424972)"><path d="M-0.24 0.99 C-0.67 10.57, -1.63 1.9, -1.43 58.29 C-1.23 114.68, 0.62 292.54, 0.98 339.32 M-1.82 0.47 C-2.46 10.19, -2.38 3.23, -2.06 59.89 C-1.74 116.55, -0.36 293.79, 0.1 340.42" stroke="#1e1e1e" stroke-width="1" fill="none"></path></g><g transform="translate(332.16617447424744 164.97758005529522) rotate(0 -0.6608931530657287 170.44390373424972)"><path d="M-8.75 313.33 C-5.86 323.09, -2.6 333.76, -1.19 340.31 M-10.55 312.09 C-9.13 319.18, -6.01 324.29, 0.31 341.02" stroke="#1e1e1e" stroke-width="1" fill="none"></path></g><g transform="translate(332.16617447424744 164.97758005529522) rotate(0 -0.6608931530657287 170.44390373424972)"><path d="M11.77 313.15 C6.55 322.94, 1.71 333.68, -1.19 340.31 M9.97 311.91 C7.05 318.88, 5.83 324.03, 0.31 341.02" stroke="#1e1e1e" stroke-width="1" fill="none"></path></g></g><mask id="mask-Z9xv0RDcG3SHnGRBdpQw6"><rect x="0" y="0" fill="#fff" width="435.39371353674744" height="604.7118431426452"></rect><rect x="279.5400695707358" y="211.6503197051452" fill="#000" width="101.181640625" height="23" opacity="1"></rect></mask><g transform="translate(279.5400695707358 211.6503197051452) rotate(0 51.96521175044592 123.77116408439974)"><text x="50.5908203125" y="0" font-family="Helvetica, Segoe UI Emoji" font-size="20px" fill="#1e1e1e" text-anchor="middle" style="white-space: pre;" direction="ltr" dominant-baseline="text-before-edge">1 validation</text></g><g mask="url(#mask-D7JyIk96xQktX2XhRN908)" stroke-linecap="round"><g transform="translate(583.7765387999134 129.3147351373359) rotate(0 20.47547202610673 407.6712507190416)"><path d="M-0.21 -0.42 C6.59 15.01, 36.03 -43.47, 41.43 92.64 C46.83 228.76, 33.85 695.63, 32.19 816.26 M-1.78 -1.68 C4.77 13.87, 34.7 -42.68, 40.23 93.77 C45.76 230.22, 32.88 696.48, 31.39 817.02" stroke="#1e1e1e" stroke-width="1" fill="none"></path></g><g transform="translate(583.7765387999134 129.3147351373359) rotate(0 20.47547202610673 407.6712507190416)"><path d="M20.99 787.85 C23.82 798.5, 26.74 807.24, 29.86 816.72 M21.82 788.65 C24.37 797.02, 26.16 803.34, 31.02 816.3" stroke="#1e1e1e" stroke-width="1" fill="none"></path></g><g transform="translate(583.7765387999134 129.3147351373359) rotate(0 20.47547202610673 407.6712507190416)"><path d="M41.51 788.25 C37.15 798.72, 32.88 807.32, 29.86 816.72 M42.33 789.05 C39.2 797.49, 35.31 803.69, 31.02 816.3" stroke="#1e1e1e" stroke-width="1" fill="none"></path></g></g><mask id="mask-D7JyIk96xQktX2XhRN908"><rect x="0" y="0" fill="#fff" width="725.6776964290668" height="1046.6404890919198"></rect><rect x="570.6435167415668" y="211.23170839423665" fill="#000" width="110.068359375" height="23" opacity="1"></rect></mask><g transform="translate(570.6435167415667 211.23170839423665) rotate(0 33.6084940844533 325.75427746214086)"><text x="55.0341796875" y="0" font-family="Helvetica, Segoe UI Emoji" font-size="20px" fill="#1e1e1e" text-anchor="middle" style="white-space: pre;" direction="ltr" dominant-baseline="text-before-edge">2. Execution</text></g><g stroke-linecap="round" transform="translate(10 255.76832931282752) rotate(0 632.3149414062502 452.65673828125)"><path d="M7.86 8.16 C7.86 8.16, 7.86 8.16, 7.86 8.16 M7.86 8.16 C7.86 8.16, 7.86 8.16, 7.86 8.16 M3.66 19.09 C5.71 16.97, 10.41 11.99, 18.1 2.48 M3.66 19.09 C8.67 12.47, 14.31 6.54, 18.1 2.48 M2.75 26.24 C9.18 19.28, 12.6 12.86, 24.4 1.33 M2.75 26.24 C11.73 17.27, 20.16 6.93, 24.4 1.33 M1.83 33.39 C10.91 22.63, 19.5 14.52, 30.7 0.18 M1.83 33.39 C11.61 22.29, 20.88 9.94, 30.7 0.18 M1.57 39.79 C12.17 27.12, 24.6 16.22, 34.37 2.05 M1.57 39.79 C9.71 30.22, 19.14 18.95, 34.37 2.05 M1.96 45.43 C14.36 32.74, 22 19.07, 39.36 2.41 M1.96 45.43 C10.17 37.42, 17.1 28.42, 39.36 2.41 M1.7 51.83 C10.07 41.91, 18.83 31.86, 45 2.02 M1.7 51.83 C12.6 39.64, 23.68 26.76, 45 2.02 M1.44 58.23 C15.78 43.14, 28.53 24.62, 49.99 2.38 M1.44 58.23 C17.27 39.3, 33.83 21.5, 49.99 2.38 M1.83 63.87 C17.78 46.87, 32.75 28.95, 55.63 1.98 M1.83 63.87 C15.11 47.71, 27.92 31.77, 55.63 1.98 M1.57 70.27 C15.67 53.44, 33.22 36.46, 60.62 2.34 M1.57 70.27 C23.47 45.06, 45.23 19.32, 60.62 2.34 M1.97 75.91 C24.31 53.47, 41.99 28.31, 66.26 1.95 M1.97 75.91 C25.4 48.57, 47.79 24.14, 66.26 1.95 M1.71 82.31 C20 61.29, 39.55 40.69, 71.25 2.31 M1.71 82.31 C25.57 53.49, 50.92 24.58, 71.25 2.31 M1.44 88.71 C16.09 69.24, 32.52 54.27, 76.89 1.91 M1.44 88.71 C20.54 67.77, 40.38 44.83, 76.89 1.91 M1.84 94.35 C23.66 71.06, 41.88 45.56, 81.88 2.27 M1.84 94.35 C34.21 58.24, 64.52 21.54, 81.88 2.27 M1.58 100.75 C17.96 81.16, 35.38 59.71, 87.52 1.88 M1.58 100.75 C37.27 61.33, 70.77 21.47, 87.52 1.88 M1.97 106.39 C28.55 75.5, 58.56 41.16, 92.51 2.24 M1.97 106.39 C37.17 68.78, 70.27 29.03, 92.51 2.24 M1.71 112.79 C26.87 83.36, 50.88 54.21, 98.15 1.85 M1.71 112.79 C26.9 84.68, 51.03 55.84, 98.15 1.85 M1.45 119.19 C35.85 81.54, 69.67 39.25, 103.14 2.21 M1.45 119.19 C27.68 85.5, 56.38 53.65, 103.14 2.21 M1.84 124.83 C35.29 82.05, 71.05 43.68, 108.78 1.81 M1.84 124.83 C27.26 93.34, 53.59 64.28, 108.78 1.81 M1.58 131.23 C45.49 80.73, 88.72 31.76, 113.77 2.17 M1.58 131.23 C28.89 97.3, 58.39 64.34, 113.77 2.17 M1.98 136.87 C32.77 100.93, 65.21 65.49, 119.41 1.78 M1.98 136.87 C46.53 82.41, 91.65 30.28, 119.41 1.78 M1.72 143.27 C47.93 89.59, 94.54 35.22, 124.4 2.14 M1.72 143.27 C45.65 91.5, 90.99 42.02, 124.4 2.14 M1.45 149.67 C39.61 105.15, 76.18 61.15, 130.04 1.74 M1.45 149.67 C35.33 110.39, 69.29 70.97, 130.04 1.74 M1.85 155.31 C46.93 102.22, 92.79 51.79, 135.03 2.1 M1.85 155.31 C30.84 124.23, 57.52 92.05, 135.03 2.1 M1.59 161.71 C48.27 109.11, 96.51 52.99, 140.67 1.71 M1.59 161.71 C38.45 118.81, 76.05 74.78, 140.67 1.71 M1.98 167.35 C55.13 106.48, 108.84 42.71, 145.66 2.07 M1.98 167.35 C45.72 116.67, 90.72 64.61, 145.66 2.07 M1.72 173.75 C50.01 116.65, 97.26 61.33, 150.65 2.43 M1.72 173.75 C53.22 113.9, 104.3 54.17, 150.65 2.43 M1.46 180.14 C43.45 130.02, 89.31 80.15, 156.29 2.03 M1.46 180.14 C57.33 115, 113.84 50.47, 156.29 2.03 M1.85 185.79 C44.13 139.38, 83.32 91.38, 161.28 2.39 M1.85 185.79 C43.17 136.13, 83.95 88.91, 161.28 2.39 M1.59 192.19 C59.95 124.47, 118.93 54.82, 166.92 2 M1.59 192.19 C56.53 131.95, 109.44 68.95, 166.92 2 M1.99 197.83 C59 133.2, 119.52 66.42, 171.91 2.36 M1.99 197.83 C54.19 136.1, 109.52 72.87, 171.91 2.36 M1.72 204.23 C34.82 162.33, 70.12 122.07, 177.55 1.96 M1.72 204.23 C66.03 131.18, 128.95 58.32, 177.55 1.96 M1.46 210.62 C54.51 152.1, 102.73 96.92, 182.54 2.32 M1.46 210.62 C48.66 158.19, 93.43 105.83, 182.54 2.32 M1.86 216.27 C53.82 160, 103.73 100.91, 188.18 1.93 M1.86 216.27 C58.36 149.46, 116.19 82.26, 188.18 1.93 M1.6 222.66 C69.32 145.17, 136.31 68.56, 193.17 2.29 M1.6 222.66 C65.3 151.83, 127.82 78.88, 193.17 2.29 M1.99 228.31 C72.68 147.78, 142.65 64.77, 198.81 1.9 M1.99 228.31 C80.3 139.19, 158.27 50.26, 198.81 1.9 M1.73 234.71 C68.69 158.36, 137.46 80.26, 203.8 2.26 M1.73 234.71 C52.15 177.77, 100.83 121.43, 203.8 2.26 M1.47 241.1 C62.08 168.23, 127.22 96.16, 209.44 1.86 M1.47 241.1 C65.35 165.24, 130.32 90.18, 209.44 1.86 M1.86 246.75 C45.35 199.13, 88.19 147.78, 214.43 2.22 M1.86 246.75 C52.61 186.82, 104.26 128.13, 214.43 2.22 M1.6 253.14 C63.49 179.4, 126.52 107.96, 220.07 1.83 M1.6 253.14 C77.56 165.23, 155.18 75.64, 220.07 1.83 M2 258.79 C52.92 199.15, 103.09 141.05, 225.06 2.19 M2 258.79 C86.85 162.58, 170.96 65.07, 225.06 2.19 M1.73 265.19 C79.32 174.43, 156.19 86.8, 230.7 1.79 M1.73 265.19 C69.75 186.66, 136.44 111.01, 230.7 1.79 M1.47 271.58 C62.53 202.26, 123.66 131.41, 235.69 2.15 M1.47 271.58 C62.44 203.52, 122.38 134.71, 235.69 2.15 M1.87 277.23 C53.47 219.23, 103.22 162.74, 241.33 1.76 M1.87 277.23 C68.49 202.64, 134.79 126.7, 241.33 1.76 M1.61 283.62 C61.69 212.84, 120.8 141.21, 246.32 2.12 M1.61 283.62 C77.69 195.74, 152.83 109.04, 246.32 2.12 M2 289.27 C82.06 196.1, 159.7 106.9, 251.96 1.72 M2 289.27 C86.72 190.71, 172.24 93.91, 251.96 1.72 M1.74 295.66 C84.18 197.95, 170.81 101.09, 256.95 2.08 M1.74 295.66 C78.04 208.17, 154.01 120.58, 256.95 2.08 M1.48 302.06 C55 239.37, 109.34 175.62, 262.59 1.69 M1.48 302.06 C81.42 209.08, 160.38 118.43, 262.59 1.69 M1.87 307.71 C93.96 199.95, 186.6 93.19, 267.58 2.05 M1.87 307.71 C60.47 242.19, 118.84 175.53, 267.58 2.05 M1.61 314.1 C75.83 229.41, 150.49 145.66, 272.56 2.41 M1.61 314.1 C72.75 231.94, 145.93 147.19, 272.56 2.41 M2.01 319.75 C91.68 218.15, 177.78 118.27, 278.21 2.01 M2.01 319.75 C56.63 254.39, 113 189.43, 278.21 2.01 M1.74 326.14 C71.02 248.05, 140.86 166.26, 283.19 2.37 M1.74 326.14 C92.89 221.48, 182.78 117.3, 283.19 2.37 M1.48 332.54 C105.01 212.6, 207.45 93.11, 288.84 1.98 M1.48 332.54 C65.64 260.59, 127.56 188.95, 288.84 1.98 M1.88 338.19 C90.02 237.26, 179.95 134.27, 293.82 2.34 M1.88 338.19 C68.85 261.19, 134.42 185.84, 293.82 2.34 M1.62 344.58 C114.97 214.39, 229.65 82.88, 299.47 1.94 M1.62 344.58 C107.59 222.1, 212.29 101.59, 299.47 1.94 M2.01 350.23 C111.88 223.31, 223.77 95.37, 304.45 2.3 M2.01 350.23 C101.02 235.94, 200.49 121.53, 304.45 2.3 M1.75 356.62 C123.71 219.13, 244.62 80.45, 310.1 1.91 M1.75 356.62 C107.83 235.38, 213.49 115.03, 310.1 1.91 M1.49 363.02 C123.46 222.42, 244.11 82.36, 315.08 2.27 M1.49 363.02 C84.82 266.3, 169.29 169.65, 315.08 2.27 M1.88 368.66 C121.6 231.71, 241.66 93.61, 320.73 1.88 M1.88 368.66 C79.15 279.63, 155.28 191.66, 320.73 1.88 M1.62 375.06 C91.58 272.19, 181.66 168.71, 325.71 2.24 M1.62 375.06 C86.12 279.16, 169.54 183.15, 325.71 2.24 M2.02 380.71 C76.38 297.66, 150.94 212.4, 331.36 1.84 M2.02 380.71 C115.61 249.3, 228.88 117.69, 331.36 1.84 M1.75 387.1 C127.56 243.89, 253.47 99.22, 336.34 2.2 M1.75 387.1 C133.56 235.27, 265.29 84.17, 336.34 2.2 M1.49 393.5 C73.36 312.23, 145.29 228.8, 341.99 1.81 M1.49 393.5 C97.53 283.33, 194.86 171.56, 341.99 1.81 M1.89 399.14 C127.1 254.71, 253.18 107.97, 346.97 2.17 M1.89 399.14 C124.28 259.52, 246.71 118.2, 346.97 2.17 M1.63 405.54 C111.97 280.07, 221.12 154.13, 352.62 1.77 M1.63 405.54 C111.88 278.28, 223.07 150.36, 352.62 1.77 M2.02 411.18 C138.81 253.68, 275.7 95.56, 357.6 2.13 M2.02 411.18 C113.5 284.34, 223.77 157.66, 357.6 2.13 M1.76 417.58 C103.42 297.71, 208.57 177.8, 363.25 1.74 M1.76 417.58 C85.96 318.81, 170.65 221.57, 363.25 1.74 M1.5 423.98 C111.03 297.57, 220.13 169.67, 368.23 2.1 M1.5 423.98 C76.95 337.75, 150.64 252.94, 368.23 2.1 M1.89 429.62 C146.64 261.7, 291.71 95.5, 373.88 1.7 M1.89 429.62 C98.76 318.26, 197.08 205.42, 373.88 1.7 M1.63 436.02 C84.87 336.74, 169.49 238.8, 378.86 2.06 M1.63 436.02 C98.92 322.45, 197.35 209.44, 378.86 2.06 M2.02 441.66 C104.76 322.13, 209.25 202.56, 383.85 2.42 M2.02 441.66 C139.14 284.26, 276.57 125.59, 383.85 2.42 M1.76 448.06 C86.19 352.86, 169.43 257.77, 389.49 2.03 M1.76 448.06 C119.02 316.67, 234.66 182.97, 389.49 2.03 M1.5 454.46 C107.46 334.78, 212.74 213.33, 394.48 2.39 M1.5 454.46 C127.13 311.23, 252.15 168.04, 394.48 2.39 M1.9 460.1 C147.76 290.9, 294.22 121.81, 400.12 1.99 M1.9 460.1 C85.71 364.68, 169.7 268.22, 400.12 1.99 M1.64 466.5 C123.6 324.55, 247.52 181, 405.11 2.35 M1.64 466.5 C107.03 345.19, 211.42 225.8, 405.11 2.35 M2.03 472.14 C135.16 320.8, 267.52 168.44, 410.75 1.96 M2.03 472.14 C114.2 343.41, 226.18 214.18, 410.75 1.96 M1.77 478.54 C92.48 374.74, 182.2 271.43, 415.74 2.32 M1.77 478.54 C143.81 317.42, 284.17 155.88, 415.74 2.32 M1.51 484.94 C156.02 309.26, 308.99 133.35, 421.38 1.93 M1.51 484.94 C106.96 366, 211.89 244.88, 421.38 1.93 M1.9 490.58 C92.18 385.08, 184.24 278.1, 426.37 2.29 M1.9 490.58 C109.39 367.49, 216.21 245.8, 426.37 2.29 M1.64 496.98 C138.14 339.49, 274 184.3, 432.01 1.89 M1.64 496.98 C124.27 358.54, 244.99 219.17, 432.01 1.89 M2.03 502.62 C91.82 400.13, 180.53 296.15, 437 2.25 M2.03 502.62 C139.74 345.59, 276.54 188.66, 437 2.25 M1.77 509.02 C110.61 388.36, 217.21 264.85, 442.64 1.86 M1.77 509.02 C175.71 310.62, 348.89 111.07, 442.64 1.86 M1.51 515.42 C129.47 367.51, 259.6 218.71, 447.63 2.22 M1.51 515.42 C172.14 318.51, 343 122.34, 447.63 2.22 M1.91 521.06 C162.4 338.75, 321.16 154.62, 453.27 1.82 M1.91 521.06 C181.08 313.96, 360.28 108.23, 453.27 1.82 M1.64 527.46 C119.38 390.6, 237.85 253.98, 458.26 2.18 M1.64 527.46 C159.12 344.64, 317.73 162.77, 458.26 2.18 M2.04 533.1 C138.32 375.05, 276.52 216.58, 463.9 1.79 M2.04 533.1 C177.41 329.2, 353.5 126.78, 463.9 1.79 M1.78 539.5 C144.33 377.43, 285.89 215.63, 468.89 2.15 M1.78 539.5 C106.38 419.37, 211.84 297.61, 468.89 2.15 M1.52 545.9 C132.23 395.71, 261.04 247.04, 474.53 1.75 M1.52 545.9 C108.85 424.88, 214.01 303.18, 474.53 1.75 M1.91 551.54 C138.43 395.2, 276.23 235.66, 479.52 2.11 M1.91 551.54 C134.2 399.66, 264.71 249.61, 479.52 2.11 M1.65 557.94 C152.85 384.76, 303.14 210.38, 485.17 1.72 M1.65 557.94 C135.59 404.86, 270.15 250.54, 485.17 1.72 M2.04 563.58 C147.2 398.24, 289.05 234.88, 490.15 2.08 M2.04 563.58 C136.22 407.8, 271.01 252.7, 490.15 2.08 M1.78 569.98 C192.59 347.2, 384.78 124.49, 495.8 1.68 M1.78 569.98 C143.26 406.26, 285.2 242.86, 495.8 1.68 M1.52 576.38 C138.39 418.91, 274.03 262.81, 500.78 2.04 M1.52 576.38 C129.69 429.04, 256.55 284.21, 500.78 2.04 M1.92 582.02 C169.08 390.74, 335 198.73, 505.77 2.4 M1.92 582.02 C142.42 424.58, 280.44 265.25, 505.77 2.4 M1.65 588.42 C198.13 364.65, 394.63 140.7, 511.41 2.01 M1.65 588.42 C183.37 380.7, 364.44 171.93, 511.41 2.01 M2.05 594.06 C153.05 419.21, 304.81 247.37, 516.4 2.37 M2.05 594.06 C128.21 448.84, 253.06 304.54, 516.4 2.37 M1.79 600.46 C142.85 441.98, 282.16 280.38, 522.04 1.98 M1.79 600.46 C195.12 379.03, 386.93 158.13, 522.04 1.98 M1.53 606.86 C149.29 436.81, 295.86 267.26, 527.03 2.34 M1.53 606.86 C151.72 435.15, 301.29 263.05, 527.03 2.34 M1.92 612.5 C197.8 388.53, 392.98 165.21, 532.67 1.94 M1.92 612.5 C111.83 482.86, 223.61 354.63, 532.67 1.94 M1.66 618.9 C129.33 467.77, 259.41 319.47, 537.66 2.3 M1.66 618.9 C146.69 452.61, 290.09 286.56, 537.66 2.3 M2.05 624.54 C115.13 496.18, 227.34 366.15, 543.3 1.91 M2.05 624.54 C128.82 479.86, 253.5 336.36, 543.3 1.91 M1.79 630.94 C202.35 404.37, 400.22 175.2, 548.29 2.27 M1.79 630.94 C194.69 410.61, 386.07 191.25, 548.29 2.27 M1.53 637.34 C177.64 439.6, 350.05 239.62, 553.93 1.87 M1.53 637.34 C172.13 438, 344.46 240.13, 553.93 1.87 M1.93 642.98 C210.18 401.12, 420.83 160.79, 558.92 2.23 M1.93 642.98 C147.21 473.53, 295.1 303.35, 558.92 2.23 M1.66 649.38 C170.55 453.66, 338.81 260.55, 564.56 1.84 M1.66 649.38 C211.69 409.03, 419.82 169.82, 564.56 1.84 M1.4 655.78 C147.43 486.41, 291.24 320.34, 569.55 2.2 M1.4 655.78 C135.45 505.01, 268.44 351.86, 569.55 2.2 M1.8 661.42 C212.46 420.93, 423.17 178.04, 575.19 1.8 M1.8 661.42 C148.12 494.72, 294.6 326.15, 575.19 1.8 M1.54 667.82 C184.45 461.22, 364.16 253.29, 580.18 2.16 M1.54 667.82 C151.64 493.46, 301.89 320.66, 580.18 2.16 M1.93 673.46 C133.26 525.51, 263.58 375.99, 585.82 1.77 M1.93 673.46 C146.83 505.83, 291.03 339.42, 585.82 1.77 M1.67 679.86 C180.04 472.91, 359.29 266.22, 590.81 2.13 M1.67 679.86 C136.83 527.47, 270.97 373.16, 590.81 2.13 M1.41 686.26 C212.87 448.97, 420.55 208.79, 596.45 1.73 M1.41 686.26 C215.75 440.32, 431.34 192.54, 596.45 1.73 M1.8 691.9 C203.9 463.14, 403.2 231.59, 601.44 2.09 M1.8 691.9 C124.55 547.69, 248.52 405.07, 601.44 2.09 M1.54 698.3 C202.48 465.23, 404.27 232.4, 607.08 1.7 M1.54 698.3 C150.62 527.97, 300.21 356.55, 607.08 1.7 M1.94 703.94 C207 467.53, 414.37 230.19, 612.07 2.06 M1.94 703.94 C210.88 464, 421.92 220.49, 612.07 2.06 M1.67 710.34 C218.3 463.3, 435.32 213.81, 617.06 2.42 M1.67 710.34 C172.28 513.59, 345.4 315.51, 617.06 2.42 M1.41 716.73 C129.91 568.26, 257.51 420.91, 622.7 2.02 M1.41 716.73 C239.15 446.58, 476.11 173.9, 622.7 2.02 M1.81 722.38 C170.03 525.98, 339.3 333.3, 627.69 2.38 M1.81 722.38 C177.22 523.35, 349.91 324.61, 627.69 2.38 M1.55 728.78 C165.66 539.22, 329.59 352.58, 633.33 1.99 M1.55 728.78 C210.69 490.84, 418.3 251.63, 633.33 1.99 M1.94 734.42 C223.88 483.83, 442.87 231.38, 638.32 2.35 M1.94 734.42 C241.4 454.82, 483.08 176.94, 638.32 2.35 M1.68 740.82 C233.53 472.22, 468.98 202.86, 643.96 1.96 M1.68 740.82 C249.98 453.31, 498.81 167.37, 643.96 1.96 M1.42 747.21 C216.66 499.6, 432.11 253.99, 648.95 2.32 M1.42 747.21 C242.48 474.17, 481.18 199.69, 648.95 2.32 M1.81 752.86 C155.49 573.94, 310.7 396.23, 654.59 1.92 M1.81 752.86 C157.02 569.5, 314.17 388.57, 654.59 1.92 M1.55 759.26 C244.95 476.05, 491.24 194.01, 659.58 2.28 M1.55 759.26 C239.36 489.19, 473.88 219, 659.58 2.28 M1.94 764.9 C218.6 514.31, 434.61 265.35, 665.22 1.89 M1.94 764.9 C235.19 492.68, 469.62 223.9, 665.22 1.89 M1.68 771.3 C204.56 535.63, 409.11 301.35, 670.21 2.25 M1.68 771.3 C191.97 550.57, 383.38 330.71, 670.21 2.25 M1.42 777.69 C223.91 523.46, 445.97 268.68, 675.85 1.85 M1.42 777.69 C185.64 566.67, 370.06 355, 675.85 1.85 M1.82 783.34 C242.81 506.39, 483.25 228.96, 680.84 2.21 M1.82 783.34 C161.26 600.46, 319.07 418.8, 680.84 2.21 M1.56 789.73 C193.56 572.21, 384.97 353.63, 686.48 1.82 M1.56 789.73 C224.68 527.3, 451.14 267.93, 686.48 1.82 M1.95 795.38 C169.3 602.58, 337.33 409.76, 691.47 2.18 M1.95 795.38 C217.21 549.22, 430.24 303.91, 691.47 2.18 M1.69 801.78 C177.73 595.74, 355.83 391.16, 697.11 1.78 M1.69 801.78 C237.91 528.77, 473.81 257.42, 697.11 1.78 M1.43 808.17 C200.09 580.61, 400.84 352.46, 702.1 2.14 M1.43 808.17 C250.27 522.31, 499.05 235.99, 702.1 2.14 M1.82 813.82 C200.48 584.17, 398.54 354.2, 707.74 1.75 M1.82 813.82 C210.77 571.92, 420.06 331.03, 707.74 1.75 M1.56 820.21 C201.72 591.17, 401.94 359.44, 712.73 2.11 M1.56 820.21 C174.31 616.94, 350.42 414.18, 712.73 2.11 M1.95 825.86 C158.15 646.01, 316 465.09, 718.37 1.71 M1.95 825.86 C203.57 597.35, 404.47 366.2, 718.37 1.71 M1.69 832.25 C170.62 638.58, 338.74 444.52, 723.36 2.07 M1.69 832.25 C285.92 507.81, 569.7 181.08, 723.36 2.07 M1.43 838.65 C202.07 608.55, 402.47 377.61, 729 1.68 M1.43 838.65 C258.29 540.08, 515.42 244.1, 729 1.68 M1.83 844.3 C164.28 652.37, 330.85 461.85, 733.99 2.04 M1.83 844.3 C171.41 643.71, 343.4 445.9, 733.99 2.04 M1.56 850.69 C218.49 600.53, 437.22 348.18, 738.98 2.4 M1.56 850.69 C195.71 628.59, 388.03 407.87, 738.98 2.4 M1.96 856.34 C259.14 565.76, 514.37 271.99, 744.62 2.01 M1.96 856.34 C257.65 563.57, 514.15 269.39, 744.62 2.01 M1.7 862.73 C207.61 625.69, 412.45 390.86, 749.61 2.37 M1.7 862.73 C246.12 576.21, 492.92 292.21, 749.61 2.37 M1.44 869.13 C270.71 561.73, 539.07 251.4, 755.25 1.97 M1.44 869.13 C249.14 583.83, 498.32 297.25, 755.25 1.97 M1.83 874.78 C182.69 671, 363.92 463.02, 760.24 2.33 M1.83 874.78 C284.04 552.13, 565.71 227.92, 760.24 2.33 M2.23 880.42 C181.66 676.26, 359.41 469.89, 765.88 1.94 M2.23 880.42 C255 588.58, 508.19 297.75, 765.88 1.94 M3.28 885.31 C278.21 565.12, 556.97 245.11, 770.87 2.3 M3.28 885.31 C293.76 552.62, 583.57 218.84, 770.87 2.3 M4.98 889.44 C188.67 679.84, 367.41 472.73, 776.51 1.9 M4.98 889.44 C252.85 608.8, 498.41 326.64, 776.51 1.9 M6.03 894.33 C208.9 657.77, 414.99 420.23, 781.5 2.26 M6.03 894.33 C179.57 689.58, 354.91 487.59, 781.5 2.26 M9.05 896.95 C168.19 714.98, 325.49 534.65, 787.14 1.87 M9.05 896.95 C319.79 540.68, 628.63 185.57, 787.14 1.87 M12.07 899.58 C253.81 622.9, 492.18 346.92, 792.13 2.23 M12.07 899.58 C301.9 560.56, 594.94 223.82, 792.13 2.23 M14.43 902.96 C234.49 646.74, 458 390.2, 797.77 1.83 M14.43 902.96 C251.6 630.14, 491.86 354.13, 797.77 1.83 M18.77 904.07 C245.6 644.83, 469.15 388.92, 802.76 2.19 M18.77 904.07 C306.88 571.89, 594.54 241.04, 802.76 2.19 M23.1 905.19 C192.63 708.77, 360.72 514.73, 808.4 1.8 M23.1 905.19 C270.17 621.03, 518.19 336.63, 808.4 1.8 M26.77 907.06 C300.25 596.78, 569.68 286.33, 813.39 2.16 M26.77 907.06 C279.55 615.79, 534.93 321.13, 813.39 2.16 M33.07 905.91 C204.9 704.99, 376.95 507.09, 819.03 1.76 M33.07 905.91 C288.41 609.86, 546.67 313.3, 819.03 1.76 M38.06 906.27 C246.3 660.84, 458.29 416.67, 824.02 2.12 M38.06 906.27 C237.57 672.94, 440.14 441.03, 824.02 2.12 M43.7 905.87 C292.63 621.27, 541.05 335.74, 829.66 1.73 M43.7 905.87 C346.68 564.14, 646.42 218.81, 829.66 1.73 M48.69 906.23 C351.1 557.8, 656.21 207.41, 834.65 2.09 M48.69 906.23 C325.9 586.19, 603.35 267.39, 834.65 2.09 M54.33 905.84 C229.5 709.7, 400.44 512.66, 840.29 1.69 M54.33 905.84 C321.48 594.89, 592.32 283.89, 840.29 1.69 M59.32 906.2 C268.89 666.28, 478.92 423.18, 845.28 2.06 M59.32 906.2 C282.51 648.06, 508.48 388.88, 845.28 2.06 M64.96 905.8 C241.84 698.38, 419.91 492.79, 850.26 2.42 M64.96 905.8 C238.63 710.71, 408.84 514.56, 850.26 2.42 M69.95 906.16 C247.14 704.32, 423.06 500.29, 855.91 2.02 M69.95 906.16 C315.48 619.99, 562.42 336.56, 855.91 2.02 M75.59 905.77 C345.02 598.26, 611.35 290.57, 860.89 2.38 M75.59 905.77 C258.8 691.4, 444.46 477.69, 860.89 2.38 M80.58 906.13 C245.16 716.41, 410.67 527.02, 866.54 1.99 M80.58 906.13 C371.99 568.77, 664.51 232.56, 866.54 1.99 M86.22 905.73 C353.58 599.97, 621.85 291.87, 871.52 2.35 M86.22 905.73 C377.62 572.9, 667.56 239.77, 871.52 2.35 M91.21 906.09 C344.3 620.65, 594.03 330.7, 877.17 1.95 M91.21 906.09 C389.39 558.69, 690.89 211.92, 877.17 1.95 M96.19 906.45 C340.18 621.3, 586.04 337.78, 882.15 2.31 M96.19 906.45 C262.36 713.29, 431.17 518.95, 882.15 2.31 M101.84 906.06 C332.96 641.12, 561.99 376.56, 887.8 1.92 M101.84 906.06 C375.37 585.98, 651.79 268.09, 887.8 1.92 M106.82 906.42 C368.42 606.91, 625.54 310.8, 892.78 2.28 M106.82 906.42 C349.46 629.11, 590.66 350.97, 892.78 2.28 M112.47 906.02 C273.16 713.58, 437.6 524.51, 898.43 1.88 M112.47 906.02 C318.16 664.03, 526.22 424.65, 898.43 1.88 M117.45 906.38 C392.63 592.8, 666.63 277.09, 903.41 2.24 M117.45 906.38 C283.11 712.19, 450 519.39, 903.41 2.24 M123.1 905.99 C432.01 553.03, 738.94 198.35, 909.06 1.85 M123.1 905.99 C429.51 548.65, 736.82 194.89, 909.06 1.85 M128.08 906.35 C386.8 609.86, 646.88 310.19, 914.04 2.21 M128.08 906.35 C305.25 695.94, 485.24 488.45, 914.04 2.21 M133.73 905.96 C371.78 625.39, 612.66 347.16, 919.69 1.81 M133.73 905.96 C434.12 557.7, 736.69 208.76, 919.69 1.81 M138.71 906.32 C392.67 610.57, 648.48 317.53, 924.67 2.17 M138.71 906.32 C366.44 647.6, 593.45 386.44, 924.67 2.17 M144.36 905.92 C347.49 671.19, 553.25 435.21, 930.32 1.78 M144.36 905.92 C444.66 562.72, 744.16 217.98, 930.32 1.78 M149.35 906.28 C443.08 571.19, 735 236.12, 935.3 2.14 M149.35 906.28 C349.64 677.75, 550.68 446.3, 935.3 2.14 M154.99 905.89 C394.49 634.71, 630.93 360.76, 940.95 1.74 M154.99 905.89 C390.7 635.69, 624.77 366.07, 940.95 1.74 M159.98 906.25 C317.79 722.84, 474.56 541.41, 945.93 2.1 M159.98 906.25 C338.92 700.89, 518.07 495.03, 945.93 2.1 M165.62 905.85 C416.38 612.11, 669.34 320.29, 951.58 1.71 M165.62 905.85 C428.54 602.72, 692.47 298.78, 951.58 1.71 M170.61 906.21 C434.95 598.7, 702.31 290.18, 956.56 2.07 M170.61 906.21 C353.11 694.49, 536.53 483.13, 956.56 2.07 M176.25 905.82 C456.31 581.35, 736.35 260.97, 961.55 2.43 M176.25 905.82 C395.71 653.34, 616.16 400.08, 961.55 2.43 M181.24 906.18 C345.29 719.53, 506.89 532.08, 967.19 2.04 M181.24 906.18 C446.16 602.76, 711.28 298.75, 967.19 2.04 M186.88 905.78 C405.43 657.22, 624.19 405.81, 972.18 2.4 M186.88 905.78 C495.68 548.27, 807.61 190.26, 972.18 2.4 M191.87 906.14 C358.95 719.52, 523.78 528.68, 977.82 2 M191.87 906.14 C456 607.37, 717.72 306.54, 977.82 2 M197.51 905.75 C438.97 626.28, 680.01 348.04, 982.81 2.36 M197.51 905.75 C461.44 604.33, 723.77 302.26, 982.81 2.36 M202.5 906.11 C399.09 682.66, 595.54 454.07, 988.45 1.97 M202.5 906.11 C398.42 680.61, 595.46 454.19, 988.45 1.97 M207.48 906.47 C446.37 629.88, 684.23 354, 993.44 2.33 M207.48 906.47 C388.46 701.41, 566.2 496.1, 993.44 2.33 M213.13 906.07 C388.05 705.7, 565.37 504.18, 999.08 1.93 M213.13 906.07 C411.68 678.46, 608.82 451.28, 999.08 1.93 M218.11 906.43 C429.16 664.17, 641.56 419.15, 1004.07 2.29 M218.11 906.43 C520.25 554.01, 825.47 203.04, 1004.07 2.29 M223.76 906.04 C471.44 621.48, 719.41 336.07, 1009.71 1.9 M223.76 906.04 C481.43 607.58, 739.05 311.37, 1009.71 1.9 M228.74 906.4 C424.97 680.68, 621.41 454.21, 1014.7 2.26 M228.74 906.4 C398.62 712.64, 569.67 516.32, 1014.7 2.26 M234.39 906.01 C472.43 635.55, 708.43 363, 1020.34 1.86 M234.39 906.01 C400.62 715.3, 564.14 526.09, 1020.34 1.86 M239.37 906.37 C422.33 697.4, 604.44 489.32, 1025.33 2.22 M239.37 906.37 C467.82 641.48, 699.69 375.06, 1025.33 2.22 M245.02 905.97 C447.16 676.97, 646.98 448.37, 1030.97 1.83 M245.02 905.97 C447.17 675.48, 645.42 446.85, 1030.97 1.83 M250 906.33 C441.58 689.26, 632.7 470.58, 1035.96 2.19 M250 906.33 C472.55 650.91, 695.43 395.25, 1035.96 2.19 M255.65 905.94 C441.26 693.84, 627.81 480.5, 1041.6 1.79 M255.65 905.94 C533.06 589.8, 809.66 271.08, 1041.6 1.79 M260.63 906.3 C460.72 677.74, 661.64 446.51, 1046.59 2.15 M260.63 906.3 C444.37 696.68, 625.52 488.75, 1046.59 2.15 M266.28 905.9 C426.15 724.03, 584.3 540.12, 1052.23 1.76 M266.28 905.9 C449.79 697.99, 632.75 486.83, 1052.23 1.76 M271.26 906.26 C495.23 655.38, 716.96 400.58, 1057.22 2.12 M271.26 906.26 C479.6 669.54, 687.04 430.52, 1057.22 2.12 M276.91 905.87 C511.15 635.72, 744.77 366.56, 1062.86 1.73 M276.91 905.87 C558.01 587.33, 835.92 267.71, 1062.86 1.73 M281.89 906.23 C498.14 655.02, 716.05 402.78, 1067.85 2.09 M281.89 906.23 C513.13 633.88, 747.51 364.56, 1067.85 2.09 M287.54 905.83 C572.56 577.28, 859.02 246.78, 1073.49 1.69 M287.54 905.83 C447.41 720.64, 607.85 536.37, 1073.49 1.69 M292.52 906.19 C480.02 686.85, 669.85 469.15, 1078.48 2.05 M292.52 906.19 C549.41 609.58, 806.15 315.25, 1078.48 2.05 M298.17 905.8 C477.65 695.72, 661.12 485.28, 1083.47 2.41 M298.17 905.8 C462.86 720.5, 626.41 532.58, 1083.47 2.41 M303.15 906.16 C547.84 623.69, 793.77 340.6, 1089.11 2.02 M303.15 906.16 C562.15 609.35, 818.1 315.16, 1089.11 2.02 M308.8 905.76 C481.08 699.07, 657.81 496.01, 1094.1 2.38 M308.8 905.76 C485.8 703.3, 661.66 502.04, 1094.1 2.38 M313.78 906.12 C529.99 653.75, 746.3 405.3, 1099.74 1.98 M313.78 906.12 C593.83 583.28, 874.95 259.97, 1099.74 1.98 M319.43 905.73 C522.58 675.03, 725.9 442.27, 1104.73 2.34 M319.43 905.73 C502.92 690.02, 689.92 475.27, 1104.73 2.34 M324.41 906.09 C521.31 678.47, 719.28 450.91, 1110.37 1.95 M324.41 906.09 C532.74 665.32, 741.21 425.37, 1110.37 1.95 M329.4 906.45 C598.14 601.65, 864.52 295.94, 1115.36 2.31 M329.4 906.45 C542.86 658.54, 758.92 410.23, 1115.36 2.31 M335.04 906.05 C500.11 716.56, 661.97 530.23, 1121 1.91 M335.04 906.05 C632.64 565.95, 927.33 226.87, 1121 1.91 M340.03 906.42 C546.26 666.35, 757.39 423.97, 1125.99 2.27 M340.03 906.42 C569.73 644.07, 796.38 383.36, 1125.99 2.27 M345.67 906.02 C545.88 677.74, 744.21 449.31, 1131.63 1.88 M345.67 906.02 C654.6 549.03, 964.6 191.97, 1131.63 1.88 M350.66 906.38 C614.25 603.87, 879.21 298.65, 1136.62 2.24 M350.66 906.38 C561.95 666.74, 772.38 424.78, 1136.62 2.24 M356.3 905.99 C624.83 596.75, 891.69 291.91, 1142.26 1.84 M356.3 905.99 C603.35 616.15, 852.82 329.2, 1142.26 1.84 M361.29 906.35 C546.15 698.93, 727.94 489.2, 1147.25 2.2 M361.29 906.35 C624.15 604.69, 885.26 304.1, 1147.25 2.2 M366.93 905.95 C646.32 581.78, 927.44 258.29, 1152.89 1.81 M366.93 905.95 C614.85 617.8, 864.53 331.31, 1152.89 1.81 M371.92 906.31 C630.13 612.19, 887.67 315.3, 1157.88 2.17 M371.92 906.31 C554.35 692.64, 739.94 480.16, 1157.88 2.17 M377.56 905.92 C570.07 685.21, 762.38 464.78, 1163.52 1.77 M377.56 905.92 C575.45 676.8, 771.95 449.95, 1163.52 1.77 M382.55 906.28 C691.56 551.66, 1001.61 193.98, 1168.51 2.14 M382.55 906.28 C592.29 664.67, 800.45 425.96, 1168.51 2.14 M388.19 905.88 C607.72 658.62, 824.7 408.32, 1174.15 1.74 M388.19 905.88 C672.02 579.37, 953.68 254.66, 1174.15 1.74 M393.18 906.24 C625.15 643.75, 855.95 379.29, 1179.14 2.1 M393.18 906.24 C655.82 603.58, 921.31 298.24, 1179.14 2.1 M398.82 905.85 C694.01 567.35, 987.28 228.32, 1184.78 1.71 M398.82 905.85 C684.57 577.46, 970.42 248.12, 1184.78 1.71 M403.81 906.21 C619.88 655.01, 837.37 404.84, 1189.77 2.07 M403.81 906.21 C647.39 626.08, 888.24 348.99, 1189.77 2.07 M409.45 905.81 C722.64 545.67, 1035.87 186.09, 1194.76 2.43 M409.45 905.81 C703.85 567.82, 996.79 230.99, 1194.76 2.43 M414.44 906.17 C641.34 647.71, 868.48 385.06, 1200.4 2.03 M414.44 906.17 C618.34 671.7, 819.84 439.92, 1200.4 2.03 M420.08 905.78 C618.48 674.34, 817.76 444.29, 1205.39 2.39 M420.08 905.78 C712.02 570.1, 1005.27 232.51, 1205.39 2.39 M425.07 906.14 C640.67 659.17, 852.46 415.27, 1211.03 2 M425.07 906.14 C584.52 723.27, 745.81 538.21, 1211.03 2 M430.71 905.74 C734.41 553.63, 1037.73 202.97, 1216.02 2.36 M430.71 905.74 C694.32 601.49, 959 296.44, 1216.02 2.36 M435.7 906.1 C634.27 679.72, 829.82 456.1, 1221.66 1.96 M435.7 906.1 C596.87 724.06, 755.33 540.77, 1221.66 1.96 M440.69 906.46 C668.02 644.45, 894.66 384.83, 1226.65 2.32 M440.69 906.46 C691.65 618.46, 942.48 330.27, 1226.65 2.32 M446.33 906.07 C638.84 682.16, 831.95 459.31, 1233.6 0.42 M446.33 906.07 C625.34 697.99, 807.49 488.62, 1233.6 0.42 M451.32 906.43 C750.62 559.59, 1052.65 213.68, 1238.59 0.78 M451.32 906.43 C728.87 585.47, 1007.49 264.99, 1238.59 0.78 M456.96 906.04 C754.95 562.65, 1051.05 222.05, 1242.26 2.65 M456.96 906.04 C697.68 624.78, 939.73 347.06, 1242.26 2.65 M461.95 906.4 C733.06 596.15, 1004.19 283.47, 1246.6 3.76 M461.95 906.4 C746.77 577.65, 1032.18 249.16, 1246.6 3.76 M467.59 906 C740.24 590.96, 1012.63 277.06, 1250.93 4.88 M467.59 906 C769.17 564.87, 1068.46 220.86, 1250.93 4.88 M472.58 906.36 C781.47 552.69, 1088.92 199.48, 1254.6 6.75 M472.58 906.36 C665.99 680.14, 861.5 455.07, 1254.6 6.75 M478.22 905.97 C753.86 587.46, 1031.92 268.01, 1257.62 9.37 M478.22 905.97 C660.21 697.89, 841.69 489.64, 1257.62 9.37 M483.21 906.33 C778.97 564.44, 1076.66 223.59, 1259.98 12.75 M483.21 906.33 C793.04 549.58, 1103.13 191.68, 1259.98 12.75 M488.85 905.93 C796.07 556.68, 1101.55 206.14, 1261.69 16.88 M488.85 905.93 C777.58 569.45, 1068.58 234.14, 1261.69 16.88 M493.84 906.29 C736.26 628.09, 975.33 351.41, 1264.71 19.51 M493.84 906.29 C786.82 566.62, 1079.64 230.04, 1264.71 19.51 M499.48 905.9 C760.93 598.96, 1025.85 294.48, 1265.1 25.15 M499.48 905.9 C771.32 590, 1047.09 272.47, 1265.1 25.15 M504.47 906.26 C673.33 711.84, 842.52 517.72, 1266.15 30.04 M504.47 906.26 C688.65 692.46, 873.4 481.08, 1266.15 30.04 M510.11 905.86 C721.57 661.53, 936.38 414.11, 1267.86 34.17 M510.11 905.86 C710.29 678.18, 909.51 448.03, 1267.86 34.17 M515.1 906.22 C738.23 649.81, 963.21 391.83, 1267.6 40.57 M515.1 906.22 C676.41 715.81, 841.88 526.25, 1267.6 40.57 M520.74 905.83 C801.18 585.35, 1081.8 264.43, 1267.34 46.97 M520.74 905.83 C820.97 561.33, 1118.83 218.15, 1267.34 46.97 M525.73 906.19 C797.76 592.09, 1067.8 279.91, 1267.73 52.61 M525.73 906.19 C699.25 708.24, 869.61 512.61, 1267.73 52.61 M531.37 905.79 C808.2 582.25, 1086.99 261.12, 1267.47 59.01 M531.37 905.79 C690.29 724.49, 846.68 544.03, 1267.47 59.01 M536.36 906.15 C821.76 578.29, 1107.48 249.58, 1267.87 64.65 M536.36 906.15 C810.44 596.58, 1082.16 284.08, 1267.87 64.65 M542 905.76 C797.57 611.65, 1051.61 320.37, 1267.6 71.05 M542 905.76 C823.32 585.01, 1101.08 264.86, 1267.6 71.05 M546.99 906.12 C825.28 584.03, 1104.59 264.16, 1267.34 77.45 M546.99 906.12 C707.97 716.53, 872.48 527.59, 1267.34 77.45 M552.63 905.73 C790.12 632.03, 1025.21 361.74, 1267.74 83.09 M552.63 905.73 C785.11 641.35, 1014.93 376.48, 1267.74 83.09 M557.62 906.09 C773.61 655.9, 990.68 406.8, 1267.48 89.49 M557.62 906.09 C819.24 608.09, 1076.93 311.09, 1267.48 89.49 M562.61 906.45 C740.51 700.93, 919.58 495.13, 1267.87 95.13 M562.61 906.45 C755.98 687.67, 947.49 467.35, 1267.87 95.13 M568.25 906.05 C806.54 633.57, 1043.54 361.02, 1267.61 101.53 M568.25 906.05 C730.04 722.33, 888.58 540.41, 1267.61 101.53 M573.24 906.41 C749.54 705.97, 926.07 505.21, 1267.35 107.93 M573.24 906.41 C720.57 740.39, 866.94 572.38, 1267.35 107.93 M578.88 906.02 C735.32 729.18, 891.97 548.76, 1267.74 113.57 M578.88 906.02 C750.87 710, 922.62 512.73, 1267.74 113.57 M583.87 906.38 C818.56 634.36, 1053.23 363.18, 1267.48 119.97 M583.87 906.38 C821.17 633.1, 1058.89 359.58, 1267.48 119.97 M589.51 905.98 C824.51 638.33, 1059.31 366.99, 1267.22 126.37 M589.51 905.98 C821.06 641.59, 1052.59 375, 1267.22 126.37 M594.5 906.34 C823.46 640.79, 1053.62 375.66, 1267.61 132.01 M594.5 906.34 C747.2 728.78, 900.09 553.73, 1267.61 132.01 M600.14 905.95 C745.45 735.42, 892.06 566.77, 1267.35 138.41 M600.14 905.95 C733.15 749.41, 869.53 592.82, 1267.35 138.41 M605.13 906.31 C839.95 639.4, 1074.43 372.3, 1267.75 144.05 M605.13 906.31 C751.52 740.25, 898.93 571.35, 1267.75 144.05 M610.77 905.91 C748.89 747.33, 886.93 588.32, 1267.48 150.45 M610.77 905.91 C753.23 744.09, 893.29 583.21, 1267.48 150.45 M615.76 906.27 C790.83 702.26, 966.25 500.69, 1267.22 156.85 M615.76 906.27 C773.07 724.15, 929.51 543.74, 1267.22 156.85 M621.4 905.88 C763.6 739.43, 907.28 574.82, 1267.62 162.49 M621.4 905.88 C836.96 661.09, 1052.14 414.42, 1267.62 162.49 M626.39 906.24 C810.77 694.23, 993.05 485.12, 1267.36 168.89 M626.39 906.24 C770.74 741.47, 914.67 575.57, 1267.36 168.89 M632.03 905.84 C764.37 754.76, 894.48 604.12, 1267.75 174.53 M632.03 905.84 C760.71 754.01, 891.21 604.41, 1267.75 174.53 M637.02 906.2 C873.37 634.51, 1111.31 360.51, 1267.49 180.93 M637.02 906.2 C792.81 725.5, 949.44 545.69, 1267.49 180.93 M642.66 905.81 C799.06 728.85, 953.52 552, 1267.23 187.33 M642.66 905.81 C803.23 720.64, 965.61 533.57, 1267.23 187.33 M647.65 906.17 C782.89 745.77, 921.09 588.81, 1267.62 192.97 M647.65 906.17 C782.29 752.92, 917.16 598, 1267.62 192.97 M653.29 905.77 C827.03 709.6, 1000.15 511.13, 1267.36 199.37 M653.29 905.77 C778.97 758.12, 906.43 610.95, 1267.36 199.37 M658.28 906.13 C834.93 707.31, 1008.38 506.6, 1267.76 205.01 M658.28 906.13 C883.54 646.27, 1110.28 385.8, 1267.76 205.01 M663.92 905.74 C891.79 640.9, 1122.16 375.5, 1267.49 211.41 M663.92 905.74 C867.72 667.41, 1073.93 429.45, 1267.49 211.41 M668.91 906.1 C861.42 685.6, 1054.51 462.89, 1267.23 217.81 M668.91 906.1 C899.35 640.23, 1129.05 376.19, 1267.23 217.81 M673.89 906.46 C833.61 723.47, 991.86 542.03, 1267.63 223.45 M673.89 906.46 C815.95 742.49, 957.04 581.02, 1267.63 223.45 M679.54 906.07 C845.86 709.36, 1014.35 515.59, 1267.37 229.85 M679.54 906.07 C828.32 730.92, 979.39 557.02, 1267.37 229.85 M684.52 906.43 C911.79 645.41, 1139.27 381.68, 1267.76 235.49 M684.52 906.43 C830.62 738, 978.84 567.98, 1267.76 235.49 M690.17 906.03 C816.56 761.41, 943.49 615.75, 1267.5 241.89 M690.17 906.03 C824.65 750.77, 957.99 597.23, 1267.5 241.89 M695.15 906.39 C840.77 735.96, 988.32 565.75, 1267.24 248.28 M695.15 906.39 C826.38 752.57, 958.76 600.18, 1267.24 248.28 M700.8 906 C900.4 677.17, 1099.83 445.52, 1267.63 253.93 M700.8 906 C856.24 726.08, 1012.64 546.45, 1267.63 253.93 M705.78 906.36 C881.67 705.97, 1055.38 504.27, 1267.37 260.33 M705.78 906.36 C930.12 648.49, 1153.93 391.56, 1267.37 260.33 M711.43 905.96 C831.29 767.12, 952.25 628.47, 1267.77 265.97 M711.43 905.96 C929.3 651.7, 1148.33 399.45, 1267.77 265.97 M716.41 906.32 C844.01 757.29, 974.13 607.84, 1267.5 272.37 M716.41 906.32 C860.21 744.64, 1002.32 580.96, 1267.5 272.37 M722.06 905.93 C898.77 699.02, 1078.16 493.78, 1267.24 278.76 M722.06 905.93 C897.13 703.29, 1073.53 499.79, 1267.24 278.76 M727.04 906.29 C866.55 744.31, 1005.64 584.08, 1267.64 284.41 M727.04 906.29 C889.94 717.1, 1054.03 528.21, 1267.64 284.41 M732.69 905.89 C890.34 721.91, 1050.15 538.88, 1267.38 290.81 M732.69 905.89 C857.1 765.11, 981.27 621.75, 1267.38 290.81 M737.67 906.25 C869.36 756.63, 1000.71 607.07, 1267.77 296.45 M737.67 906.25 C900.03 719.76, 1062.02 533.4, 1267.77 296.45 M743.32 905.86 C916.36 709.03, 1088.13 510.31, 1267.51 302.85 M743.32 905.86 C860.7 772.07, 976.53 638.1, 1267.51 302.85 M748.3 906.22 C859.31 776.1, 970.93 647.58, 1267.25 309.24 M748.3 906.22 C863.79 775.79, 978.79 644.01, 1267.25 309.24 M753.95 905.82 C915.82 719.58, 1080.11 530.93, 1267.64 314.89 M753.95 905.82 C873.49 770.3, 990.24 635.29, 1267.64 314.89 M758.94 906.18 C868.49 778.77, 978.91 651.15, 1267.38 321.28 M758.94 906.18 C905.91 738.83, 1053.09 569.58, 1267.38 321.28 M764.58 905.79 C944.52 700.1, 1122.02 496.63, 1267.78 326.93 M764.58 905.79 C926.22 720.77, 1085.91 536.75, 1267.78 326.93 M769.57 906.15 C893.16 763.18, 1017.9 620.91, 1267.51 333.33 M769.57 906.15 C934.02 718.02, 1098.4 528.56, 1267.51 333.33 M775.21 905.76 C880.66 787.29, 985.92 666.3, 1267.25 339.72 M775.21 905.76 C965.82 685.29, 1158.76 464.06, 1267.25 339.72 M780.2 906.12 C948.25 709, 1118.74 514.27, 1267.65 345.37 M780.2 906.12 C902.3 764.82, 1023.86 625.38, 1267.65 345.37 M785.84 905.72 C913.38 758.11, 1043.16 609.52, 1267.39 351.76 M785.84 905.72 C922.71 750.08, 1058.73 593.72, 1267.39 351.76 M790.83 906.08 C932.27 743.58, 1074.01 580.02, 1267.78 357.41 M790.83 906.08 C949.94 724.64, 1108.01 542.02, 1267.78 357.41 M795.81 906.44 C976.67 695.65, 1159.11 486.51, 1267.52 363.81 M795.81 906.44 C915.9 769.65, 1035.7 631.49, 1267.52 363.81 M801.46 906.05 C947.45 737.27, 1096.54 567.55, 1267.26 370.2 M801.46 906.05 C964.21 716.78, 1127.34 528.94, 1267.26 370.2 M806.44 906.41 C908.51 789.28, 1010.42 673.2, 1267.65 375.85 M806.44 906.41 C948.54 740.39, 1091.84 576.33, 1267.65 375.85 M812.09 906.01 C981.1 711.73, 1151.1 516.82, 1267.39 382.24 M812.09 906.01 C928.05 774.05, 1043.98 640.48, 1267.39 382.24 M817.07 906.37 C960.57 740.85, 1104.21 575.37, 1267.79 387.89 M817.07 906.37 C943.33 760.51, 1068.65 616.51, 1267.79 387.89 M822.72 905.98 C941.4 767.68, 1063.24 628.59, 1267.52 394.28 M822.72 905.98 C946.71 760.89, 1072.04 616.2, 1267.52 394.28 M827.7 906.34 C925.18 791.64, 1024 677.5, 1267.26 400.68 M827.7 906.34 C970.68 742.19, 1113.49 578.61, 1267.26 400.68 M833.35 905.94 C992.16 722.73, 1151.13 542.06, 1267.66 406.33 M833.35 905.94 C943.97 779.66, 1052.72 653.75, 1267.66 406.33 M838.33 906.3 C998.77 723.05, 1158.48 540.9, 1267.4 412.72 M838.33 906.3 C944.79 785.35, 1049.74 664.62, 1267.4 412.72 M843.98 905.91 C944.34 790.44, 1045.45 674.31, 1267.79 418.37 M843.98 905.91 C952.86 778.75, 1064.15 650.77, 1267.79 418.37 M848.96 906.27 C1005.97 722.88, 1165.5 539.62, 1267.53 424.76 M848.96 906.27 C1004.68 726.78, 1160.01 548.29, 1267.53 424.76 M854.61 905.87 C949.2 795.48, 1043.74 684.69, 1267.27 431.16 M854.61 905.87 C1018.32 716.5, 1182.54 527.95, 1267.27 431.16 M859.59 906.23 C1013.12 731.03, 1164.26 557.16, 1267.66 436.8 M859.59 906.23 C967.77 781.46, 1075.55 657.18, 1267.66 436.8 M865.24 905.84 C995.09 757.4, 1122.49 610.91, 1267.4 443.2 M865.24 905.84 C954.85 799.95, 1046.14 694.82, 1267.4 443.2 M870.22 906.2 C972.84 791.06, 1072.26 675.42, 1267.79 448.85 M870.22 906.2 C959.01 805.13, 1046.63 704.77, 1267.79 448.85 M875.87 905.81 C962.44 806.35, 1046.29 709.1, 1267.53 455.24 M875.87 905.81 C991.61 770.4, 1108.25 636.59, 1267.53 455.24 M880.85 906.17 C967.65 803.68, 1054.89 702.72, 1267.27 461.64 M880.85 906.17 C1022.82 741.8, 1165.09 577.62, 1267.27 461.64 M886.5 905.77 C995.84 778.46, 1105.12 652.8, 1267.67 467.28 M886.5 905.77 C980.61 799.34, 1073.48 692.19, 1267.67 467.28 M891.48 906.13 C999.46 781.53, 1108.58 655.83, 1267.4 473.68 M891.48 906.13 C1030.23 745.23, 1169.69 585.99, 1267.4 473.68 M897.13 905.74 C982.21 806.64, 1067.08 707.41, 1267.8 479.33 M897.13 905.74 C999.07 787.84, 1102.57 669.27, 1267.8 479.33 M902.11 906.1 C1019.56 768.08, 1137.59 633.04, 1267.54 485.72 M902.11 906.1 C1017.22 772.17, 1133.18 638.66, 1267.54 485.72 M907.1 906.46 C1049.39 742.13, 1192.61 578.22, 1267.28 492.12 M907.1 906.46 C1015.74 782.35, 1123.88 657.65, 1267.28 492.12 M912.74 906.06 C987.31 821.2, 1060.84 735.33, 1267.67 497.76 M912.74 906.06 C997.28 806.97, 1082.34 708.47, 1267.67 497.76 M917.73 906.42 C1010.84 800.79, 1103.36 694.04, 1267.41 504.16 M917.73 906.42 C1055.82 749.66, 1193.03 592.03, 1267.41 504.16 M923.37 906.03 C1029.92 781.72, 1137.74 658.96, 1267.8 509.8 M923.37 906.03 C1058.35 749.51, 1195.28 592.6, 1267.8 509.8 M928.36 906.39 C1054.5 764.34, 1179.66 621.7, 1267.54 516.2 M928.36 906.39 C1035.61 781.85, 1142.8 659.08, 1267.54 516.2 M934 905.99 C1002.61 827.28, 1069.84 749.74, 1267.28 522.6 M934 905.99 C1060.51 760.91, 1186.08 616.04, 1267.28 522.6 M938.99 906.35 C1061.74 763.13, 1185.92 620.57, 1267.68 528.24 M938.99 906.35 C1011.83 825.52, 1083.08 743.61, 1267.68 528.24 M944.63 905.96 C1049.98 784.51, 1156.54 660.6, 1267.41 534.64 M944.63 905.96 C1011.36 827.34, 1080.12 748.47, 1267.41 534.64 M949.62 906.32 C1014.88 830.28, 1081.26 755.05, 1267.81 540.28 M949.62 906.32 C1053.33 786.43, 1157.15 666.96, 1267.81 540.28 M955.26 905.92 C1064.17 782.28, 1170.69 658.58, 1267.55 546.68 M955.26 905.92 C1034.15 813.79, 1114.19 722.55, 1267.55 546.68 M960.25 906.28 C1052.81 796.14, 1147.8 688.25, 1267.29 553.08 M960.25 906.28 C1038.61 816.35, 1116.79 725.97, 1267.29 553.08 M965.89 905.89 C1081.66 772.36, 1195.97 639.23, 1267.68 558.72 M965.89 905.89 C1056.03 801.72, 1145.49 697.73, 1267.68 558.72 M970.88 906.25 C1085.79 774.55, 1199.89 643.94, 1267.42 565.12 M970.88 906.25 C1059.29 804.15, 1147.65 701.65, 1267.42 565.12 M976.52 905.85 C1087.37 779.13, 1196.07 654.49, 1267.81 570.76 M976.52 905.85 C1053.88 816.27, 1131.53 727.64, 1267.81 570.76 M981.51 906.21 C1061.15 817.79, 1138.08 727.16, 1267.55 577.16 M981.51 906.21 C1077.06 794.86, 1173.38 685.26, 1267.55 577.16 M987.15 905.82 C1086.23 792.82, 1182.57 680.27, 1267.29 583.56 M987.15 905.82 C1073.97 803.72, 1162.29 702.58, 1267.29 583.56 M992.14 906.18 C1063.66 826.06, 1132.39 745.75, 1267.69 589.2 M992.14 906.18 C1081.65 802.68, 1171.07 699.56, 1267.69 589.2 M997.78 905.79 C1081.48 809.83, 1166.59 711.71, 1267.42 595.6 M997.78 905.79 C1086.18 801.21, 1176.15 698.23, 1267.42 595.6 M1002.77 906.15 C1098.75 796.39, 1190.87 688.98, 1267.82 601.24 M1002.77 906.15 C1056.4 842.5, 1111.73 779.21, 1267.82 601.24 M1008.41 905.75 C1108.76 788.99, 1209.45 672.99, 1267.56 607.64 M1008.41 905.75 C1072.29 832.35, 1135.31 758.79, 1267.56 607.64 M1013.4 906.11 C1074.57 833.99, 1135.93 764.93, 1267.3 614.04 M1013.4 906.11 C1068.89 844.49, 1123.05 782.3, 1267.3 614.04 M1018.39 906.47 C1082.97 829.97, 1150 755.32, 1267.69 619.68 M1018.39 906.47 C1092.13 817.63, 1167.91 731.37, 1267.69 619.68 M1024.03 906.08 C1101.38 816.81, 1177.83 725.31, 1267.43 626.08 M1024.03 906.08 C1111.84 807.32, 1197.13 708.64, 1267.43 626.08 M1029.02 906.44 C1107.71 813.5, 1187.41 723.47, 1267.82 631.72 M1029.02 906.44 C1123 797.44, 1217.62 689.3, 1267.82 631.72 M1034.66 906.04 C1093.15 841.79, 1149.56 774.78, 1267.56 638.12 M1034.66 906.04 C1107.55 821.34, 1180.24 737.62, 1267.56 638.12 M1039.65 906.4 C1125.5 807.58, 1211.63 707.72, 1267.3 644.52 M1039.65 906.4 C1117.54 816.01, 1195.61 724.75, 1267.3 644.52 M1045.29 906.01 C1090.87 852.58, 1136.51 797.39, 1267.7 650.16 M1045.29 906.01 C1125.69 811.89, 1207.74 716.79, 1267.7 650.16 M1050.28 906.37 C1112.06 836.99, 1172.57 764.17, 1267.43 656.56 M1050.28 906.37 C1096.04 853.48, 1141.45 801.73, 1267.43 656.56 M1055.92 905.97 C1108.91 845.3, 1160.1 785.67, 1267.83 662.2 M1055.92 905.97 C1115.66 837.01, 1175.16 767.93, 1267.83 662.2 M1060.91 906.33 C1124.71 831.83, 1189.41 756.89, 1267.57 668.6 M1060.91 906.33 C1133.95 820.22, 1209.16 734.86, 1267.57 668.6 M1066.55 905.94 C1132.37 828.37, 1198.62 752.47, 1267.31 675 M1066.55 905.94 C1143.43 815.7, 1220.96 725.72, 1267.31 675 M1071.54 906.3 C1117.3 855.78, 1160.86 803.18, 1267.7 680.64 M1071.54 906.3 C1118.17 855.88, 1162.73 804.12, 1267.7 680.64 M1077.18 905.9 C1133.08 844.24, 1187.82 780.56, 1267.44 687.04 M1077.18 905.9 C1136 837.88, 1196.02 769.77, 1267.44 687.04 M1082.17 906.26 C1155.36 823.91, 1224.98 739.81, 1267.83 692.68 M1082.17 906.26 C1149.12 827.78, 1216.36 749.57, 1267.83 692.68 M1087.81 905.87 C1137.05 851.31, 1185.39 793.64, 1267.57 699.08 M1087.81 905.87 C1136.27 853.97, 1183.19 800.2, 1267.57 699.08 M1092.8 906.23 C1131.56 860.86, 1169.57 814.27, 1267.31 705.48 M1092.8 906.23 C1153.73 834.82, 1215.49 764.42, 1267.31 705.48 M1098.44 905.84 C1149.48 846.97, 1200.29 790.78, 1267.71 711.12 M1098.44 905.84 C1152.91 845.08, 1207.65 781.3, 1267.71 711.12 M1103.43 906.2 C1167.52 832.79, 1233.74 757.18, 1267.44 717.52 M1103.43 906.2 C1153.73 847.32, 1203.44 789.55, 1267.44 717.52 M1109.07 905.8 C1159.06 848.81, 1205.41 796.39, 1267.84 723.16 M1109.07 905.8 C1166.71 839.13, 1224.21 772.72, 1267.84 723.16 M1114.06 906.16 C1146.34 866.83, 1179.02 833.38, 1267.58 729.56 M1114.06 906.16 C1171.65 837.93, 1230.32 770.08, 1267.58 729.56 M1119.7 905.77 C1161.72 860.02, 1201.24 811.11, 1267.32 735.96 M1119.7 905.77 C1169.4 847.55, 1219.69 789.04, 1267.32 735.96 M1124.69 906.13 C1180.92 840.84, 1236.18 777.71, 1267.71 741.6 M1124.69 906.13 C1161.9 861.75, 1199.24 820.45, 1267.71 741.6 M1130.33 905.73 C1179.71 851.66, 1227.99 794.36, 1267.45 748 M1130.33 905.73 C1158.53 874.14, 1185.95 842.95, 1267.45 748 M1135.32 906.09 C1185.56 847.14, 1237.01 790.99, 1267.84 753.64 M1135.32 906.09 C1169.07 869.2, 1202.62 829.58, 1267.84 753.64 M1140.31 906.45 C1176.53 861.82, 1218.78 815.31, 1267.58 760.04 M1140.31 906.45 C1185.54 855.7, 1230.72 805.33, 1267.58 760.04 M1145.95 906.06 C1186.62 856.6, 1227.76 807.62, 1267.32 766.44 M1145.95 906.06 C1172.43 876.73, 1197.46 847.03, 1267.32 766.44 M1150.94 906.42 C1181.76 874.37, 1208.28 841.12, 1267.71 772.08 M1150.94 906.42 C1196.43 851.01, 1243.55 798.22, 1267.71 772.08 M1156.58 906.02 C1178.55 878.87, 1205.14 850.45, 1267.45 778.48 M1156.58 906.02 C1179.62 877.01, 1204.61 847.9, 1267.45 778.48 M1161.57 906.38 C1195.08 864.77, 1232.68 826.63, 1267.85 784.12 M1161.57 906.38 C1186.87 877.04, 1211.29 849.42, 1267.85 784.12 M1167.21 905.99 C1192.31 875.59, 1221.48 845.98, 1267.59 790.52 M1167.21 905.99 C1197.43 870.83, 1227.85 836.55, 1267.59 790.52 M1172.2 906.35 C1194.53 878.91, 1218.79 848.79, 1267.33 796.92 M1172.2 906.35 C1202.5 873, 1231.53 839.03, 1267.33 796.92 M1177.84 905.95 C1202.38 878.99, 1225.75 850.5, 1267.72 802.56 M1177.84 905.95 C1204.16 877.63, 1229.49 847.39, 1267.72 802.56 M1182.83 906.31 C1214.88 871.84, 1244.95 832.66, 1267.46 808.96 M1182.83 906.31 C1217.22 868.45, 1250.37 829.38, 1267.46 808.96 M1188.47 905.92 C1208.19 885.11, 1223.24 865.08, 1267.85 814.6 M1188.47 905.92 C1216.96 873.08, 1246.01 840.81, 1267.85 814.6 M1193.46 906.28 C1219.06 876.95, 1244.83 844.08, 1267.59 821 M1193.46 906.28 C1209.87 888.17, 1226.19 869.35, 1267.59 821 M1199.1 905.89 C1224.4 875.66, 1254.39 845.38, 1267.33 827.4 M1199.1 905.89 C1220.12 880.05, 1244.51 853.9, 1267.33 827.4 M1204.09 906.25 C1227.36 880.14, 1246.12 854.48, 1267.72 833.04 M1204.09 906.25 C1229 878.82, 1253.07 849.53, 1267.72 833.04 M1209.73 905.85 C1221.94 888.75, 1237.44 874.63, 1267.46 839.44 M1209.73 905.85 C1229.54 882.92, 1250.08 858.66, 1267.46 839.44 M1214.72 906.21 C1237.39 884.56, 1256.49 859.14, 1267.86 845.08 M1214.72 906.21 C1231.78 887.5, 1247.65 866.65, 1267.86 845.08 M1220.36 905.82 C1234.44 892.44, 1246.14 874.01, 1267.6 851.48 M1220.36 905.82 C1230.18 893.46, 1239.19 883.83, 1267.6 851.48 M1225.35 906.18 C1233.37 897.99, 1242.94 887.99, 1267.33 857.87 M1225.35 906.18 C1237.73 894.13, 1248.06 879.68, 1267.33 857.87 M1230.99 905.78 C1243.16 893.81, 1252.22 881.36, 1267.73 863.52 M1230.99 905.78 C1245.71 888.36, 1259.96 872.6, 1267.73 863.52 M1234.66 907.65 C1243.68 897.99, 1252.38 887.48, 1267.47 869.92 M1234.66 907.65 C1245.85 894.89, 1256.56 881.91, 1267.47 869.92 M1240.96 906.5 C1251.12 898.48, 1258.79 884.62, 1267.86 875.56 M1240.96 906.5 C1248.27 899.19, 1255.58 890.31, 1267.86 875.56 M1247.92 904.6 C1252.58 901.2, 1257.14 895.2, 1266.94 882.71 M1247.92 904.6 C1251.79 898.6, 1256.35 894.79, 1266.94 882.71" stroke="#e9ecef" stroke-width="0.5" fill="none"></path><path d="M32 0 M32 0 C472.91 1.92, 915.05 1.17, 1232.63 0 M32 0 C387.7 -2.68, 743.49 -2.59, 1232.63 0 M1232.63 0 C1254.81 -1.2, 1263.6 11.9, 1264.63 32 M1232.63 0 C1252.37 0.37, 1262.8 11.24, 1264.63 32 M1264.63 32 C1264.4 293.17, 1263.2 553.83, 1264.63 873.31 M1264.63 32 C1263.07 307.33, 1263.37 582.35, 1264.63 873.31 M1264.63 873.31 C1265.78 895.75, 1255.56 905.97, 1232.63 905.31 M1264.63 873.31 C1262.44 896.36, 1254.07 903.85, 1232.63 905.31 M1232.63 905.31 C769.78 905.28, 305.98 904.74, 32 905.31 M1232.63 905.31 C940.56 903.49, 647.71 903.35, 32 905.31 M32 905.31 C9.92 904.25, -1.36 895.41, 0 873.31 M32 905.31 C11.59 903.16, -0.2 894.7, 0 873.31 M0 873.31 C2.81 540.95, 2.79 207.71, 0 32 M0 873.31 C2.46 581.71, 2.56 290.47, 0 32 M0 32 C-0.37 12.21, 9.06 -1.76, 32 0 M0 32 C0.89 10.04, 12.19 1.48, 32 0" stroke="#1e1e1e" stroke-width="1" fill="none"></path></g><g transform="translate(15 1091.6818058753279) rotate(0 124.5029296875 32.19999999999982)"><text x="0" y="0" font-family="Helvetica, Segoe UI Emoji" font-size="28px" fill="#1e1e1e" text-anchor="start" style="white-space: pre;" direction="ltr" dominant-baseline="text-before-edge">     Modular Account</text><text x="0" y="32.199999999999996" font-family="Helvetica, Segoe UI Emoji" font-size="28px" fill="#1e1e1e" text-anchor="start" style="white-space: pre;" direction="ltr" dominant-baseline="text-before-edge"></text></g><g stroke-linecap="round" transform="translate(44.870769133704016 282.8433601068127) rotate(0 280.5 159.5)"><path d="M32 0 M32 0 C148.34 -0.32, 265.74 0.41, 529 0 M32 0 C181.45 -1.6, 331.3 -1.51, 529 0 M529 0 C552.01 -0.1, 561.54 12.54, 561 32 M529 0 C550.49 1.31, 559.47 10.69, 561 32 M561 32 C562.63 91.61, 563.23 148.33, 561 287 M561 32 C560.22 99.79, 560.4 168.62, 561 287 M561 287 C562.16 308.56, 550.54 317.08, 529 319 M561 287 C562.2 308.1, 550 318.34, 529 319 M529 319 C332.95 320.37, 136.63 319.78, 32 319 M529 319 C397.42 317.02, 266.24 317.35, 32 319 M32 319 C11.77 318.62, 1.8 307.47, 0 287 M32 319 C8.98 321.04, -1.17 308.83, 0 287 M0 287 C-0.26 211.32, -3.06 134.89, 0 32 M0 287 C-0.67 235.48, -1.26 183.07, 0 32 M0 32 C-1.73 10.21, 11.55 -0.99, 32 0 M0 32 C1.05 8.97, 12.39 -1.05, 32 0" stroke="#868e96" stroke-width="1" fill="none"></path></g><g transform="translate(49.870769133704016 287.8433601068127) rotate(0 93.75 24)"><text x="0" y="0" font-family="Cascadia, Segoe UI Emoji" font-size="20px" fill="#868e96" text-anchor="start" style="white-space: pre;" direction="ltr" dominant-baseline="text-before-edge"></text><text x="0" y="24" font-family="Cascadia, Segoe UI Emoji" font-size="20px" fill="#868e96" text-anchor="start" style="white-space: pre;" direction="ltr" dominant-baseline="text-before-edge">  validateUserOp</text></g><g stroke-linecap="round" transform="translate(81.96541303956838 356.99537194539334) rotate(0 252 40)"><path d="M18.47 1.69 L488.96 0.34 L499.42 6.21 L501.38 9.37 L503.26 18.55 L505.37 64.59 L499.54 76.88 L492.89 79.89 L482.67 80.02 L13.9 80.9 L6.7 77.65 L2.68 69.96 L-0.73 59.33 L-1.06 21.82 L2.02 10.69 L6.22 6.44 L12.41 1.47 L20.21 -1.92" stroke="none" stroke-width="0" fill="#ebfbee"></path><path d="M20 0 M20 0 C183.22 1.19, 347.39 0.93, 484 0 M20 0 C178.15 -1.24, 337.07 -1.5, 484 0 M484 0 C496.13 -0.56, 503.57 7.73, 504 20 M484 0 C498.61 -0.44, 506.07 5.68, 504 20 M504 20 C504.79 29.01, 505.88 37.77, 504 60 M504 20 C503.55 34.31, 504.65 50.84, 504 60 M504 60 C505.63 75.18, 497.51 81.49, 484 80 M504 60 C502.01 72.81, 498.35 78.86, 484 80 M484 80 C323.14 81.74, 163.46 81.56, 20 80 M484 80 C314.91 81.13, 145.53 80.99, 20 80 M20 80 C7.77 78.57, -0.88 73.99, 0 60 M20 80 C7.72 78.91, -0.17 72.03, 0 60 M0 60 C-0.01 46.14, 0.53 33.93, 0 20 M0 60 C0.4 47.48, -0.09 34.52, 0 20 M0 20 C-1.63 4.95, 5.79 0.97, 20 0 M0 20 C-0.85 5.86, 7.07 1.99, 20 0" stroke="#1e1e1e" stroke-width="1" fill="none"></path></g><g transform="translate(115.99342817628713 382.23837441744536) rotate(0 217.97198486328125 14.75699752794776)"><text x="217.97198486328125" y="0" font-family="Helvetica, Segoe UI Emoji" font-size="25.664343526865803px" fill="#1e1e1e" text-anchor="middle" style="white-space: pre;" direction="ltr" dominant-baseline="text-before-edge">Pre User Operation Validation Hook(s)</text></g><g stroke-linecap="round" transform="translate(81.82098935552858 498.4681464318446) rotate(0 252 40)"><path d="M20.42 1.21 L487.32 -1.57 L498.26 3.55 L504.43 11.15 L504.54 21.88 L503.83 65.82 L497.67 75.02 L491.33 79.97 L482.88 80.46 L16.75 80.89 L7.09 76.52 L0.19 70.57 L0.77 59.44 L1.22 21.44 L2.41 11.47 L5.21 3.08 L12.3 1.05 L19.71 -0.57" stroke="none" stroke-width="0" fill="#fff9db"></path><path d="M20 0 M20 0 C203.73 -1.42, 387.16 -2.08, 484 0 M20 0 C142.34 1.85, 265.13 2.22, 484 0 M484 0 C498.44 -0.38, 505.8 5.81, 504 20 M484 0 C495.65 2.04, 502.83 7.16, 504 20 M504 20 C505.94 31.88, 502.47 42.85, 504 60 M504 20 C505.08 29.12, 504.35 37.14, 504 60 M504 60 C502.27 72.88, 498.22 79.01, 484 80 M504 60 C505.05 71.63, 499.05 78.95, 484 80 M484 80 C338.14 79.94, 191.5 79.88, 20 80 M484 80 C325.95 79.88, 167.2 80.36, 20 80 M20 80 C7.58 79.05, -0.15 72.2, 0 60 M20 80 C7.41 80.52, -0.34 73.43, 0 60 M0 60 C0.11 49.39, -1.07 39.18, 0 20 M0 60 C-0.8 47.36, -0.42 36.93, 0 20 M0 20 C-0.74 5.97, 7.02 1.73, 20 0 M0 20 C0.88 8.38, 8.94 -0.8, 20 0" stroke="#1e1e1e" stroke-width="1" fill="none"></path></g><g transform="translate(135.08145688482546 523.7111489038966) rotate(0 198.73953247070312 14.75699752794776)"><text x="198.73953247070312" y="0" font-family="Helvetica, Segoe UI Emoji" font-size="25.664343526865803px" fill="#1e1e1e" text-anchor="middle" style="white-space: pre;" direction="ltr" dominant-baseline="text-before-edge">User Operation Validation Function</text></g><g stroke-linecap="round" transform="translate(82.95565432816147 639.6652514372117) rotate(0 559.40869140625 40.5)"><path d="M19.51 -1.45 L1100.25 -0.1 L1111.45 4.72 L1117.69 12.53 L1117.49 20.27 L1117.4 61.97 L1116.44 70.07 L1115.19 77.14 L1106.7 79.07 L1097.51 82.82 L21.02 80.44 L12.61 81.17 L6.22 76.16 L1.48 67.68 L1.05 60.55 L-0.29 19.68 L3.17 12.31 L9.25 3.68 L20.28 1.01" stroke="none" stroke-width="0" fill="#ebfbee"></path><path d="M20.25 0 M20.25 0 C267.51 -1.75, 516.02 -1.45, 1098.57 0 M20.25 0 C401.36 0.65, 781.45 1.18, 1098.57 0 M1098.57 0 C1111.05 0.43, 1118.75 8.28, 1118.82 20.25 M1098.57 0 C1111.64 1.88, 1118.83 4.64, 1118.82 20.25 M1118.82 20.25 C1119.06 32.22, 1120.28 41.1, 1118.82 60.75 M1118.82 20.25 C1118.91 34.92, 1118.93 49.83, 1118.82 60.75 M1118.82 60.75 C1120.31 73.34, 1112.38 81.75, 1098.57 81 M1118.82 60.75 C1118.73 75.73, 1112.13 82.01, 1098.57 81 M1098.57 81 C779.34 78.34, 459.37 77.54, 20.25 81 M1098.57 81 C739.56 78.72, 380.75 79.04, 20.25 81 M20.25 81 C6.46 81.08, -0.57 74.87, 0 60.75 M20.25 81 C7.33 81.27, 0.29 73.16, 0 60.75 M0 60.75 C-1.08 45.16, -1.7 31.95, 0 20.25 M0 60.75 C0.33 47.5, 0.53 33.28, 0 20.25 M0 20.25 C1.97 6.06, 7.64 0.05, 20.25 0 M0 20.25 C0.2 6.15, 7.36 0.97, 20.25 0" stroke="#1e1e1e" stroke-width="1" fill="none"></path></g><g transform="translate(513.9142572334349 665.3973794533881) rotate(0 128.45008850097656 14.767871983823625)"><text x="128.45008850097656" y="0" font-family="Helvetica, Segoe UI Emoji" font-size="25.68325562404122px" fill="#1e1e1e" text-anchor="middle" style="white-space: pre;" direction="ltr" dominant-baseline="text-before-edge">Pre Execution Hook(s)</text></g><g stroke-linecap="round" transform="translate(82.26597217585004 782.3772596271733) rotate(0 562.3369140625 40)"><path d="M20.54 1.88 L1104.81 1.14 L1115.53 2.83 L1122.01 12.47 L1123.56 20.46 L1126.11 61.21 L1122.7 68.08 L1118.62 76.82 L1114.2 78.19 L1105.89 81.44 L21.16 80.22 L11.46 76.83 L6.05 74.8 L0.96 68.18 L1.9 60.92 L1.34 20.83 L1.28 12.26 L6.41 2.1 L20.59 -1.85" stroke="none" stroke-width="0" fill="#e7f5ff"></path><path d="M20 0 M20 0 C280.7 1.38, 540.39 1.66, 1104.67 0 M20 0 C298.65 -3.76, 577.69 -3.54, 1104.67 0 M1104.67 0 C1117.63 1.63, 1124.68 4.83, 1124.67 20 M1104.67 0 C1116.98 -2.19, 1126.16 7.38, 1124.67 20 M1124.67 20 C1126.53 33.54, 1124.59 51.42, 1124.67 60 M1124.67 20 C1125.6 29.56, 1125.01 40.41, 1124.67 60 M1124.67 60 C1124.59 74.62, 1118.06 80.88, 1104.67 80 M1124.67 60 C1124.58 74.28, 1116.35 80.23, 1104.67 80 M1104.67 80 C719.63 78.46, 333.69 78.03, 20 80 M1104.67 80 C840.75 81, 576.83 81.11, 20 80 M20 80 C7.17 80.23, 0.25 72.39, 0 60 M20 80 C7.7 79.87, -0.09 72.07, 0 60 M0 60 C1.31 50.53, -0.35 42.89, 0 20 M0 60 C0.83 44.19, 0.29 29.11, 0 20 M0 20 C0.18 6.14, 7.19 0.84, 20 0 M0 20 C-1.14 8.59, 8.24 -1.87, 20 0" stroke="#1e1e1e" stroke-width="1" fill="none"></path></g><g transform="translate(380.74863819147504 807.6202620992253) rotate(0 263.854248046875 14.75699752794776)"><text x="263.854248046875" y="0" font-family="Helvetica, Segoe UI Emoji" font-size="25.664343526865803px" fill="#1e1e1e" text-anchor="middle" style="white-space: pre;" direction="ltr" dominant-baseline="text-before-edge">Native Function  /  (Plugin) Execution Function</text></g><g stroke-linecap="round" transform="translate(84.97271505171625 951.5122052878019) rotate(0 561.7685546875 40)"><path d="M18.67 0.02 L1102.12 1.22 L1114.61 3.27 L1123.72 12.46 L1122.81 19.33 L1122.48 61.82 L1123.06 68.19 L1119.76 76.44 L1113.45 78.97 L1103.75 78.08 L21.05 79.8 L10.96 78.18 L6.9 75.92 L2.59 69.58 L0.03 61.01 L-1.4 19.29 L1.84 9.4 L6.61 2.26 L19.57 1.06" stroke="none" stroke-width="0" fill="#ebfbee"></path><path d="M20 0 M20 0 C404.72 -4.5, 790.84 -4.32, 1103.54 0 M20 0 C368.35 -2.98, 716.86 -3.68, 1103.54 0 M1103.54 0 C1115.98 -1.9, 1124.83 7.29, 1123.54 20 M1103.54 0 C1118.75 2.12, 1123.74 8.38, 1123.54 20 M1123.54 20 C1122.45 29.46, 1121.97 38.58, 1123.54 60 M1123.54 20 C1123.56 30.82, 1123.62 40.79, 1123.54 60 M1123.54 60 C1123.46 74.16, 1115.43 80.2, 1103.54 80 M1123.54 60 C1124.81 71.69, 1115.86 80.76, 1103.54 80 M1103.54 80 C728.46 79.93, 354.48 79.55, 20 80 M1103.54 80 C774.04 81.4, 444.39 81.16, 20 80 M20 80 C7.56 79.89, -0.08 72.23, 0 60 M20 80 C4.79 78.02, -1.01 74.45, 0 60 M0 60 C1.87 50.24, 1.63 40.92, 0 20 M0 60 C-0.09 49.13, 0.08 39.2, 0 20 M0 20 C-0.99 8.34, 8.04 -1.62, 20 0 M0 20 C0.4 7.8, 6.65 2.09, 20 0" stroke="#1e1e1e" stroke-width="1" fill="none"></path></g><g transform="translate(512.6841713505444 976.7552077598539) rotate(0 134.05709838867188 14.75699752794776)"><text x="134.05709838867188" y="0" font-family="Helvetica, Segoe UI Emoji" font-size="25.664343526865803px" fill="#1e1e1e" text-anchor="middle" style="white-space: pre;" direction="ltr" dominant-baseline="text-before-edge">Post Execution Hook(s)</text></g><g stroke-linecap="round" transform="translate(82.25349897706838 80.06006265422593) rotate(0 252 40)"><path d="M5.32 4.63 C5.32 4.63, 5.32 4.63, 5.32 4.63 M5.32 4.63 C5.32 4.63, 5.32 4.63, 5.32 4.63 M3.09 13.29 C5.91 9.76, 8.5 8.01, 12.28 2.72 M3.09 13.29 C6.21 9.95, 8.89 5.69, 12.28 2.72 M1.52 21.2 C6.77 14.4, 14.01 9.47, 18.58 1.57 M1.52 21.2 C5.4 16.64, 10.42 10.46, 18.58 1.57 M1.26 27.59 C9.13 20.25, 12.09 11.95, 22.91 2.69 M1.26 27.59 C6.35 23.35, 10.06 18.06, 22.91 2.69 M1.65 33.24 C6.48 27.43, 11.73 21.4, 28.55 2.29 M1.65 33.24 C8.41 25.91, 15.32 17.83, 28.55 2.29 M1.39 39.64 C10.96 30.02, 18.85 17.09, 33.54 2.65 M1.39 39.64 C11.85 26.91, 22.95 15.39, 33.54 2.65 M1.13 46.03 C12.59 34.16, 23.06 21.41, 39.18 2.26 M1.13 46.03 C10.51 34.44, 19.34 23.08, 39.18 2.26 M1.53 51.68 C11.51 39.62, 24.86 27.47, 44.17 2.62 M1.53 51.68 C17.46 33.47, 33.08 14.81, 44.17 2.62 M1.26 58.07 C18.33 41.71, 30.66 22.71, 49.16 2.98 M1.26 58.07 C18.97 37.47, 35.62 19.64, 49.16 2.98 M2.97 62.21 C16.71 46.53, 31.54 31.36, 54.8 2.59 M2.97 62.21 C20.61 40.61, 39.63 18.99, 54.8 2.59 M2.05 69.36 C12.83 54.09, 25.55 43.39, 59.79 2.95 M2.05 69.36 C16.69 53.49, 32.08 35.68, 59.79 2.95 M4.42 72.74 C21.2 55.22, 34.47 35.41, 65.43 2.55 M4.42 72.74 C29.28 45.35, 52.12 17.25, 65.43 2.55 M6.78 76.12 C18.62 61.69, 31.54 45.41, 70.42 2.91 M6.78 76.12 C33.44 46.83, 58.08 17.18, 70.42 2.91 M9.8 78.74 C28.9 56.48, 51.38 30.8, 76.06 2.52 M9.8 78.74 C35.68 51.4, 59.72 22.06, 76.06 2.52 M14.13 79.86 C31.3 59.32, 47.64 38.99, 81.05 2.88 M14.13 79.86 C31.7 60.58, 48.15 40.58, 81.05 2.88 M17.8 81.73 C41.46 56.75, 64.33 27.07, 86.69 2.48 M17.8 81.73 C35.3 58.63, 55.01 37.14, 86.69 2.48 M22.79 82.09 C43.9 54.09, 66.94 30.35, 91.68 2.84 M22.79 82.09 C39.06 61.49, 56.09 43.14, 91.68 2.84 M28.43 81.69 C55.35 50.53, 81.71 20.98, 97.32 2.45 M28.43 81.69 C45.08 60.89, 63.5 40.7, 97.32 2.45 M33.42 82.05 C51.77 60.99, 71.24 40.47, 102.31 2.81 M33.42 82.05 C59.54 49.76, 85.79 19.34, 102.31 2.81 M39.06 81.66 C64.5 51.34, 90.74 20.42, 107.95 2.41 M39.06 81.66 C63.58 52.36, 89.58 25.14, 107.95 2.41 M44.05 82.02 C64.54 57.93, 83.61 34.07, 112.94 2.77 M44.05 82.02 C62.31 60.81, 80.58 39.43, 112.94 2.77 M49.69 81.62 C72.63 53.61, 96.4 28.86, 118.58 2.38 M49.69 81.62 C65.05 65.66, 78.11 48.98, 118.58 2.38 M54.68 81.98 C77.26 56.59, 101.87 27.56, 123.57 2.74 M54.68 81.98 C72.49 61.07, 91.11 38.77, 123.57 2.74 M60.32 81.59 C84.94 53.27, 111.07 20.94, 129.21 2.34 M60.32 81.59 C80.71 57.68, 102.25 32.55, 129.21 2.34 M65.31 81.95 C87.65 54.63, 108.94 29.03, 134.2 2.7 M65.31 81.95 C89.07 54.52, 112.22 26.77, 134.2 2.7 M70.95 81.55 C88.73 59.7, 110.44 38.16, 139.84 2.31 M70.95 81.55 C95.47 52.72, 121.04 23.87, 139.84 2.31 M75.94 81.91 C94.54 62.83, 110.19 41.31, 144.83 2.67 M75.94 81.91 C94.25 59.82, 110.88 40.31, 144.83 2.67 M81.58 81.52 C104.83 53.59, 128.99 23.58, 149.81 3.03 M81.58 81.52 C104.92 57.28, 125.95 30.46, 149.81 3.03 M86.57 81.88 C108.43 56.9, 134.93 29.96, 155.46 2.64 M86.57 81.88 C106.95 57.16, 130.08 31.06, 155.46 2.64 M92.21 81.49 C103.83 65.12, 117.43 49.92, 160.44 3 M92.21 81.49 C117.81 53.09, 141.37 25.39, 160.44 3 M97.2 81.85 C118.8 58.26, 135.44 39.5, 166.09 2.6 M97.2 81.85 C115.76 61.77, 131.83 42.16, 166.09 2.6 M102.19 82.21 C122.54 61.81, 140.83 38.54, 171.07 2.96 M102.19 82.21 C122.66 57.23, 143.73 32.1, 171.07 2.96 M107.83 81.81 C132.75 53.73, 157.44 25.93, 176.72 2.57 M107.83 81.81 C131.25 57.16, 153.38 30.31, 176.72 2.57 M112.82 82.17 C138.41 54.91, 162.74 23.49, 181.7 2.93 M112.82 82.17 C139.72 51.38, 167.52 20.45, 181.7 2.93 M118.46 81.78 C140.36 55.99, 165.63 28.31, 187.35 2.53 M118.46 81.78 C136.38 61.83, 151.75 43.69, 187.35 2.53 M123.45 82.14 C142.3 56.71, 166.3 33.16, 192.33 2.89 M123.45 82.14 C144.62 56.62, 166.21 31.33, 192.33 2.89 M129.09 81.74 C143.37 67.9, 156.61 49.7, 197.98 2.5 M129.09 81.74 C145.73 61.86, 162.81 43.27, 197.98 2.5 M134.08 82.1 C153.73 57.8, 173.78 36.3, 202.96 2.86 M134.08 82.1 C157.87 54.64, 182.54 25.82, 202.96 2.86 M139.72 81.71 C156.01 62.8, 170.61 45.44, 208.61 2.46 M139.72 81.71 C166.6 52.74, 192.14 22.23, 208.61 2.46 M144.71 82.07 C168.77 53, 192.11 27.36, 213.59 2.82 M144.71 82.07 C165.76 57.58, 185.95 35.97, 213.59 2.82 M150.35 81.67 C168.44 62.65, 186.68 40.83, 219.24 2.43 M150.35 81.67 C169.04 62.01, 186.37 42.3, 219.24 2.43 M155.34 82.03 C170.33 65.07, 184.3 50.2, 224.22 2.79 M155.34 82.03 C174.16 61.42, 194.3 38.8, 224.22 2.79 M160.98 81.64 C178.37 62.2, 192.79 39.68, 229.87 2.39 M160.98 81.64 C182.72 56.66, 203.63 32.17, 229.87 2.39 M165.97 82 C188.95 54.71, 208.23 32.71, 234.85 2.75 M165.97 82 C188.65 54.16, 213.56 28.14, 234.85 2.75 M171.61 81.6 C191.69 54.92, 217.09 30.48, 239.84 3.11 M171.61 81.6 C191.67 58.64, 212.74 34.09, 239.84 3.11 M176.6 81.96 C191.86 66.27, 206.38 47.39, 245.48 2.72 M176.6 81.96 C198.2 56.43, 218.69 33.18, 245.48 2.72 M182.24 81.57 C206.95 52.68, 230.85 24.83, 250.47 3.08 M182.24 81.57 C197.26 65.44, 213.04 48.15, 250.47 3.08 M187.23 81.93 C205.28 59.54, 225.23 40.49, 256.11 2.69 M187.23 81.93 C204.28 62.03, 223.09 39.35, 256.11 2.69 M192.22 82.29 C216.45 56.34, 234.93 33.51, 261.1 3.05 M192.22 82.29 C205.24 65.83, 219.34 49.41, 261.1 3.05 M197.86 81.9 C213.96 64.59, 231.49 41.63, 266.74 2.65 M197.86 81.9 C220.71 55.92, 241.84 30.11, 266.74 2.65 M202.85 82.26 C227.97 53.94, 250.5 24.76, 271.73 3.01 M202.85 82.26 C219.2 65.25, 233.12 48.41, 271.73 3.01 M208.49 81.86 C229.28 58.82, 251.93 33.7, 277.37 2.62 M208.49 81.86 C225.32 62.68, 240.67 45.18, 277.37 2.62 M213.48 82.22 C238.43 53.08, 265.29 23.05, 282.36 2.98 M213.48 82.22 C238.82 53.43, 262.04 26.55, 282.36 2.98 M219.12 81.83 C243.02 54.15, 271.01 23.61, 288.01 2.58 M219.12 81.83 C242.02 55.25, 264.06 29.94, 288.01 2.58 M224.11 82.19 C252.75 52.34, 280.11 21.77, 292.99 2.94 M224.11 82.19 C247.63 54.81, 272.64 28.68, 292.99 2.94 M229.75 81.79 C258.12 49.55, 282.21 18.91, 298.64 2.55 M229.75 81.79 C247.11 60.25, 265.93 39.79, 298.64 2.55 M234.74 82.15 C261.72 52.56, 288.12 22.23, 303.62 2.91 M234.74 82.15 C251.81 62.48, 267.57 43.44, 303.62 2.91 M240.38 81.76 C258.88 61.29, 279.4 38.07, 309.27 2.51 M240.38 81.76 C258.2 62.13, 276.22 41.3, 309.27 2.51 M245.37 82.12 C260.24 66.04, 278.19 46.68, 314.25 2.87 M245.37 82.12 C269.45 55.26, 291.87 26.23, 314.25 2.87 M251.01 81.72 C276.3 52.99, 304.63 20.83, 319.9 2.48 M251.01 81.72 C277.88 50.28, 306.24 18.72, 319.9 2.48 M256 82.08 C271.91 67.5, 285.85 49.78, 324.88 2.84 M256 82.08 C275.15 60.61, 295.68 37.49, 324.88 2.84 M261.64 81.69 C286.24 54.49, 310.47 22.33, 330.53 2.44 M261.64 81.69 C285.52 54.4, 309.83 25.21, 330.53 2.44 M266.63 82.05 C289.83 56.34, 309.97 32.21, 335.51 2.8 M266.63 82.05 C287.8 56.52, 309.51 31.53, 335.51 2.8 M272.27 81.65 C298.92 52.51, 325.08 20.79, 340.5 3.16 M272.27 81.65 C294.14 57.64, 316.07 32.84, 340.5 3.16 M277.26 82.01 C294.43 60.58, 317.43 36.76, 346.14 2.77 M277.26 82.01 C292.59 62.55, 308.47 44.74, 346.14 2.77 M282.9 81.62 C303.48 59.5, 321.58 32.7, 351.13 3.13 M282.9 81.62 C297.7 64.41, 311.17 48.85, 351.13 3.13 M287.89 81.98 C315.62 49.6, 341.47 21.6, 356.77 2.73 M287.89 81.98 C305.21 62.12, 324.52 40.6, 356.77 2.73 M292.87 82.34 C306.9 63.17, 321.88 44.42, 361.76 3.09 M292.87 82.34 C310.47 61.05, 328.96 40.32, 361.76 3.09 M298.52 81.94 C315.84 61.03, 337.02 38.25, 367.4 2.7 M298.52 81.94 C323.03 54.09, 347.34 24.67, 367.4 2.7 M303.5 82.3 C320.19 65.39, 334.78 50.26, 372.39 3.06 M303.5 82.3 C325.48 60.02, 345.81 34.97, 372.39 3.06 M309.15 81.91 C328.01 61.98, 348.15 37.93, 378.03 2.67 M309.15 81.91 C330.57 56.16, 352.81 32.13, 378.03 2.67 M314.13 82.27 C340.04 52.4, 365.2 21.95, 383.02 3.03 M314.13 82.27 C328.11 65.29, 342.96 48.61, 383.02 3.03 M319.78 81.88 C339.36 58.7, 360.17 32.26, 388.66 2.63 M319.78 81.88 C338.2 60.03, 356.03 41.25, 388.66 2.63 M324.76 82.24 C347.02 56.62, 369.18 30.89, 393.65 2.99 M324.76 82.24 C343.77 60.59, 362.42 38.1, 393.65 2.99 M330.41 81.84 C346.85 63.6, 359.66 48.6, 399.29 2.6 M330.41 81.84 C354.4 54.97, 376.99 28.82, 399.29 2.6 M335.39 82.2 C360.56 53.64, 384.92 25.77, 404.28 2.96 M335.39 82.2 C353.23 63.59, 370.44 42.75, 404.28 2.96 M341.04 81.81 C356.09 66.16, 371.89 45.31, 409.92 2.56 M341.04 81.81 C358.36 60.95, 376.72 42.8, 409.92 2.56 M346.02 82.17 C368.34 54.98, 390.26 32.49, 414.91 2.92 M346.02 82.17 C366 60.8, 384.88 37.85, 414.91 2.92 M351.67 81.77 C367.05 67.3, 378.29 49.53, 420.55 2.53 M351.67 81.77 C373.14 57.34, 396.2 31.93, 420.55 2.53 M356.65 82.13 C375.71 64.56, 392.44 43.15, 425.54 2.89 M356.65 82.13 C384.55 51.74, 410.98 20.52, 425.54 2.89 M362.3 81.74 C381.76 59.46, 402.58 37.75, 431.18 2.49 M362.3 81.74 C388.53 50.91, 415.45 20.88, 431.18 2.49 M367.28 82.1 C392.82 55.81, 416.28 25.09, 436.17 2.85 M367.28 82.1 C393.91 50.3, 422.09 18.94, 436.17 2.85 M372.93 81.7 C390.85 59.93, 406.7 40.86, 441.16 3.21 M372.93 81.7 C396.2 53.55, 420.93 26.58, 441.16 3.21 M377.91 82.06 C396.38 58.05, 417.73 34.78, 446.8 2.82 M377.91 82.06 C404.04 51.7, 430.45 21.69, 446.8 2.82 M383.56 81.67 C404.42 57.31, 426.57 34.43, 451.79 3.18 M383.56 81.67 C398.64 64.87, 414.28 45.8, 451.79 3.18 M388.54 82.03 C408.23 58.44, 426.23 36.5, 457.43 2.78 M388.54 82.03 C405.45 64.9, 420.43 45.85, 457.43 2.78 M393.53 82.39 C412.57 61.83, 431.66 37.33, 462.42 3.14 M393.53 82.39 C413.21 60.4, 431.83 39.15, 462.42 3.14 M399.17 81.99 C421.98 58.96, 443.11 30.91, 468.06 2.75 M399.17 81.99 C417.78 60.22, 437.24 39.03, 468.06 2.75 M404.16 82.35 C425.56 57.63, 443.37 36.68, 473.05 3.11 M404.16 82.35 C422.4 59.63, 441.36 37.7, 473.05 3.11 M409.8 81.96 C436.59 52.31, 462.08 18.96, 478.69 2.72 M409.8 81.96 C429.26 58.77, 448.69 36.12, 478.69 2.72 M414.79 82.32 C434.18 59.28, 451.77 38.88, 483.68 3.08 M414.79 82.32 C432.17 61.41, 451.01 42.52, 483.68 3.08 M420.43 81.93 C445.39 56.43, 467.55 28.07, 489.98 1.93 M420.43 81.93 C440.82 60.8, 459.45 37.97, 489.98 1.93 M425.42 82.29 C450.84 52.44, 480.65 23.39, 494.31 3.04 M425.42 82.29 C450.28 54.72, 474.22 25.97, 494.31 3.04 M431.06 81.89 C449.23 57.95, 472.58 37.93, 497.98 4.91 M431.06 81.89 C448.15 63.08, 463.07 44.21, 497.98 4.91 M436.05 82.25 C454.11 64.2, 471.04 41.38, 501.66 6.78 M436.05 82.25 C460.99 55.02, 484.95 26.83, 501.66 6.78 M441.69 81.86 C460.54 60.68, 475.35 41.28, 502.71 11.67 M441.69 81.86 C458.8 62.02, 475.92 42.19, 502.71 11.67 M446.68 82.22 C467.5 57.47, 489.71 34.96, 503.76 16.56 M446.68 82.22 C457.96 67.76, 470.54 54.21, 503.76 16.56 M452.32 81.82 C464.22 65.18, 478.22 52.4, 505.47 20.69 M452.32 81.82 C467.71 65.88, 480.43 48.51, 505.47 20.69 M457.31 82.18 C469.06 71.7, 478.1 58.93, 505.2 27.09 M457.31 82.18 C468.86 69.3, 480.52 55.72, 505.2 27.09 M462.95 81.79 C479.48 65.9, 492.25 47.35, 504.94 33.49 M462.95 81.79 C477.44 64.32, 492.8 48.63, 504.94 33.49 M467.94 82.15 C480.65 69.12, 489.92 54.34, 505.34 39.13 M467.94 82.15 C478.83 68.7, 491.64 54.9, 505.34 39.13 M473.58 81.75 C483.35 66.31, 496.26 56.45, 505.08 45.53 M473.58 81.75 C480.98 72.42, 490.26 61.6, 505.08 45.53 M478.57 82.11 C486.37 72.02, 494.66 63.64, 504.81 51.92 M478.57 82.11 C487.94 70.02, 497.54 59.5, 504.81 51.92 M484.87 80.96 C492.03 73.41, 494.24 69.27, 505.21 57.57 M484.87 80.96 C489.81 76.39, 494.75 70.33, 505.21 57.57 M491.17 79.81 C496.62 75.59, 500.07 70.4, 504.29 64.72 M491.17 79.81 C494.48 76.45, 498.86 71.25, 504.29 64.72" stroke="#e9ecef" stroke-width="0.5" fill="none"></path><path d="M20 0 M20 0 C165.56 1.2, 309.36 0.98, 484 0 M20 0 C140.96 -1.38, 261.43 -1.26, 484 0 M484 0 C495.77 -1.74, 503.64 5.16, 504 20 M484 0 C499.35 0.37, 504.73 5.46, 504 20 M504 20 C506.11 31.04, 505.12 43.35, 504 60 M504 20 C504.23 35.32, 504.4 49.54, 504 60 M504 60 C503.28 71.4, 497.58 78.13, 484 80 M504 60 C504.37 71.12, 498.48 77.72, 484 80 M484 80 C371.24 82.16, 258.66 82.61, 20 80 M484 80 C387.11 79.78, 289.92 79.3, 20 80 M20 80 C5.96 80.54, 1.62 71.72, 0 60 M20 80 C4.79 77.84, 0.56 75.56, 0 60 M0 60 C-1.76 49.74, 1.28 37.6, 0 20 M0 60 C0.22 46.14, 0.23 32.7, 0 20 M0 20 C-0.82 5.96, 7.25 1.02, 20 0 M0 20 C0.91 8.3, 4.39 -0.06, 20 0" stroke="#1e1e1e" stroke-width="1" fill="none"></path></g><g transform="translate(275.0651521142754 105.30306512627794) rotate(0 59.18834686279297 14.75699752794776)"><text x="59.18834686279297" y="0" font-family="Helvetica, Segoe UI Emoji" font-size="25.664343526865803px" fill="#1e1e1e" text-anchor="middle" style="white-space: pre;" direction="ltr" dominant-baseline="text-before-edge">EntryPoint</text></g><g stroke-linecap="round" transform="translate(666.8099520160176 80.06006265422593) rotate(0 252 40)"><path d="M5.32 4.63 C5.32 4.63, 5.32 4.63, 5.32 4.63 M5.32 4.63 C5.32 4.63, 5.32 4.63, 5.32 4.63 M3.09 13.29 C6.39 11.13, 8.95 7.2, 12.28 2.72 M3.09 13.29 C6.59 8.97, 9.19 5.72, 12.28 2.72 M1.52 21.2 C5.78 17.44, 10.06 8.71, 18.58 1.57 M1.52 21.2 C8.22 14.3, 14.69 6.73, 18.58 1.57 M1.26 27.59 C6.09 21.5, 15.12 14.36, 22.91 2.69 M1.26 27.59 C8.87 17.43, 18.67 7.39, 22.91 2.69 M1.65 33.24 C10.27 22.65, 21.24 11.56, 28.55 2.29 M1.65 33.24 C11.41 22.26, 20.53 10.67, 28.55 2.29 M1.39 39.64 C13.73 27.56, 23.55 13.35, 33.54 2.65 M1.39 39.64 C8.95 30.61, 16.63 21.88, 33.54 2.65 M1.13 46.03 C12.51 32.64, 25.72 17.43, 39.18 2.26 M1.13 46.03 C10.37 36.12, 19.76 24.57, 39.18 2.26 M1.53 51.68 C16.14 37.9, 27.5 21.24, 44.17 2.62 M1.53 51.68 C14.65 37.36, 26.8 22.92, 44.17 2.62 M1.26 58.07 C20.35 37.67, 38.84 19.31, 49.16 2.98 M1.26 58.07 C10.43 47.16, 20.24 35.06, 49.16 2.98 M2.97 62.21 C19.15 45.34, 32.69 25.32, 54.8 2.59 M2.97 62.21 C15.25 46.8, 28.79 31.52, 54.8 2.59 M2.05 69.36 C14.15 54.19, 27.27 39.93, 59.79 2.95 M2.05 69.36 C22.16 44.84, 44.13 21.25, 59.79 2.95 M4.42 72.74 C28.25 48.13, 49.03 25.55, 65.43 2.55 M4.42 72.74 C25.59 47.3, 48.42 21.68, 65.43 2.55 M6.78 76.12 C29.09 52.21, 46.56 32.32, 70.42 2.91 M6.78 76.12 C23.45 57.66, 39.93 37.55, 70.42 2.91 M9.8 78.74 C35.16 49.31, 56.68 24.33, 76.06 2.52 M9.8 78.74 C34.08 49.76, 59.2 22.02, 76.06 2.52 M14.13 79.86 C32.85 58.91, 52.36 37.56, 81.05 2.88 M14.13 79.86 C40.07 51.04, 65.02 22.17, 81.05 2.88 M17.8 81.73 C43.21 53.47, 71.48 20.11, 86.69 2.48 M17.8 81.73 C32.99 65.97, 47.88 47.42, 86.69 2.48 M22.79 82.09 C38.61 63.44, 57.08 43.18, 91.68 2.84 M22.79 82.09 C38.36 64.99, 51.84 48.36, 91.68 2.84 M28.43 81.69 C47.07 60.93, 68.97 36.41, 97.32 2.45 M28.43 81.69 C49.01 58.03, 70.52 32.95, 97.32 2.45 M33.42 82.05 C55.3 59.45, 76.22 33.87, 102.31 2.81 M33.42 82.05 C49.55 64.59, 63.49 47.53, 102.31 2.81 M39.06 81.66 C59.94 59.71, 78.8 37.08, 107.95 2.41 M39.06 81.66 C55.35 61.29, 72.97 41.97, 107.95 2.41 M44.05 82.02 C62.64 60.84, 82.37 39.34, 112.94 2.77 M44.05 82.02 C62.3 61.84, 79.53 40.57, 112.94 2.77 M49.69 81.62 C65 60.98, 82.08 43.55, 118.58 2.38 M49.69 81.62 C72.05 56.69, 92.5 31.94, 118.58 2.38 M54.68 81.98 C78.37 54.36, 103.66 24.67, 123.57 2.74 M54.68 81.98 C80.91 52.53, 106.01 24.04, 123.57 2.74 M60.32 81.59 C87.23 52.56, 112.21 19.82, 129.21 2.34 M60.32 81.59 C86.06 52.78, 111.01 24.5, 129.21 2.34 M65.31 81.95 C82.42 64.6, 98.39 46.04, 134.2 2.7 M65.31 81.95 C90.07 54.55, 114.43 25.34, 134.2 2.7 M70.95 81.55 C94.97 53.78, 118.57 26.6, 139.84 2.31 M70.95 81.55 C93.78 53.88, 118.1 27.98, 139.84 2.31 M75.94 81.91 C102.09 53.58, 129.82 23.27, 144.83 2.67 M75.94 81.91 C91.3 65.01, 104.7 48.06, 144.83 2.67 M81.58 81.52 C103.06 58.43, 121.19 37.28, 149.81 3.03 M81.58 81.52 C107.92 52.04, 132.49 21.74, 149.81 3.03 M86.57 81.88 C112.97 52.85, 137.94 18.68, 155.46 2.64 M86.57 81.88 C108.61 56.18, 133.57 28.13, 155.46 2.64 M92.21 81.49 C114.74 58.06, 133.2 35.9, 160.44 3 M92.21 81.49 C111.57 57.74, 130.74 37.31, 160.44 3 M97.2 81.85 C110.39 64.45, 124.54 50.96, 166.09 2.6 M97.2 81.85 C116.34 59.43, 134.88 38.83, 166.09 2.6 M102.19 82.21 C123.97 59.14, 145.1 31.38, 171.07 2.96 M102.19 82.21 C120.76 62.14, 138.51 42.88, 171.07 2.96 M107.83 81.81 C128.05 58.27, 146.65 36.69, 176.72 2.57 M107.83 81.81 C135.73 50.31, 163.23 19.12, 176.72 2.57 M112.82 82.17 C139.73 51.71, 163.91 22.41, 181.7 2.93 M112.82 82.17 C138.27 52.31, 162.47 23.49, 181.7 2.93 M118.46 81.78 C138.36 57.78, 159.36 35.01, 187.35 2.53 M118.46 81.78 C133.51 65.5, 147.49 47.31, 187.35 2.53 M123.45 82.14 C137.34 67.49, 152.8 50.02, 192.33 2.89 M123.45 82.14 C140.67 61.61, 159.36 40.47, 192.33 2.89 M129.09 81.74 C155.23 51.68, 184.18 20.3, 197.98 2.5 M129.09 81.74 C145.51 62.64, 163.24 42.31, 197.98 2.5 M134.08 82.1 C151.37 64.97, 165.25 44.4, 202.96 2.86 M134.08 82.1 C154.6 58.09, 177.33 33.43, 202.96 2.86 M139.72 81.71 C160.49 59.93, 177.45 39.52, 208.61 2.46 M139.72 81.71 C166.4 50.65, 193.49 20.67, 208.61 2.46 M144.71 82.07 C158.07 65.05, 174.14 51.27, 213.59 2.82 M144.71 82.07 C158.97 64.13, 174.81 46.75, 213.59 2.82 M150.35 81.67 C176.02 50.47, 202.24 21.76, 219.24 2.43 M150.35 81.67 C171.28 54.48, 194.64 29.78, 219.24 2.43 M155.34 82.03 C174.76 57.03, 194.8 34.7, 224.22 2.79 M155.34 82.03 C181.94 50.99, 210.97 19.04, 224.22 2.79 M160.98 81.64 C185.66 54.24, 210.92 28.1, 229.87 2.39 M160.98 81.64 C181.63 58.03, 202.65 35.19, 229.87 2.39 M165.97 82 C182.19 63.55, 197.55 45.39, 234.85 2.75 M165.97 82 C182.34 63.68, 198.14 42.79, 234.85 2.75 M171.61 81.6 C189 59.43, 208.37 39.1, 239.84 3.11 M171.61 81.6 C196.24 53.41, 223.56 23.72, 239.84 3.11 M176.6 81.96 C200.8 53.16, 227.54 26.04, 245.48 2.72 M176.6 81.96 C191.81 65.78, 206.49 48.74, 245.48 2.72 M182.24 81.57 C195.98 62.69, 212.76 44.78, 250.47 3.08 M182.24 81.57 C206.32 52.17, 230.66 23.45, 250.47 3.08 M187.23 81.93 C202.84 64.54, 217.71 42.5, 256.11 2.69 M187.23 81.93 C214.02 51.82, 240.03 23.16, 256.11 2.69 M192.22 82.29 C209.22 62.47, 230.17 38.94, 261.1 3.05 M192.22 82.29 C212.21 58.97, 232.38 35.21, 261.1 3.05 M197.86 81.9 C225.42 50.89, 252.63 21.49, 266.74 2.65 M197.86 81.9 C217.61 60.93, 236.58 39.39, 266.74 2.65 M202.85 82.26 C225.4 53.59, 250.92 29.69, 271.73 3.01 M202.85 82.26 C226.26 55.85, 248.37 28.71, 271.73 3.01 M208.49 81.86 C228.57 55.23, 253.92 32.43, 277.37 2.62 M208.49 81.86 C223.53 65.51, 236.7 47.5, 277.37 2.62 M213.48 82.22 C238.2 54.57, 262.35 29.86, 282.36 2.98 M213.48 82.22 C234.1 58.93, 253.46 35.52, 282.36 2.98 M219.12 81.83 C244.88 53.57, 268.76 23.96, 288.01 2.58 M219.12 81.83 C234.63 64.66, 247.52 48.91, 288.01 2.58 M224.11 82.19 C247.02 53.8, 269.64 28.08, 292.99 2.94 M224.11 82.19 C243.61 59.9, 261.94 38.16, 292.99 2.94 M229.75 81.79 C244.66 65.56, 259.76 45.5, 298.64 2.55 M229.75 81.79 C248.19 62.18, 263.91 42.59, 298.64 2.55 M234.74 82.15 C252.25 59.07, 274.47 37.94, 303.62 2.91 M234.74 82.15 C254.6 59.11, 274.99 36.61, 303.62 2.91 M240.38 81.76 C266.04 48.96, 294.36 18.84, 309.27 2.51 M240.38 81.76 C267.39 48.87, 294.82 17.47, 309.27 2.51 M245.37 82.12 C269.9 55.12, 294.44 27.75, 314.25 2.87 M245.37 82.12 C274.18 50.17, 300.75 19.02, 314.25 2.87 M251.01 81.72 C275.63 54.35, 298.6 27.43, 319.9 2.48 M251.01 81.72 C271.05 57.9, 292.62 33.37, 319.9 2.48 M256 82.08 C281.58 52.71, 306.51 21.21, 324.88 2.84 M256 82.08 C280.01 55.21, 303.12 26.71, 324.88 2.84 M261.64 81.69 C289.47 51.7, 312.98 20.33, 330.53 2.44 M261.64 81.69 C284.76 56.55, 306.01 31.65, 330.53 2.44 M266.63 82.05 C281.95 66.13, 295.17 47.2, 335.51 2.8 M266.63 82.05 C281.93 66.53, 295.61 50.27, 335.51 2.8 M272.27 81.65 C297.25 51.13, 322.86 24.36, 340.5 3.16 M272.27 81.65 C295.61 54.72, 320.68 25.09, 340.5 3.16 M277.26 82.01 C302.56 50.94, 332.46 18.01, 346.14 2.77 M277.26 82.01 C296.16 61.26, 314.62 40.17, 346.14 2.77 M282.9 81.62 C307.77 50.39, 337.11 22.9, 351.13 3.13 M282.9 81.62 C297.52 67.04, 310.38 51.09, 351.13 3.13 M287.89 81.98 C302.91 64.11, 318.21 44.04, 356.77 2.73 M287.89 81.98 C310.81 54.84, 336.8 25.74, 356.77 2.73 M292.87 82.34 C310.88 63.02, 330.45 41.13, 361.76 3.09 M292.87 82.34 C309.47 62.86, 327.73 42.08, 361.76 3.09 M298.52 81.94 C323.17 55.04, 344.89 26.74, 367.4 2.7 M298.52 81.94 C321.3 55.42, 344.81 29.89, 367.4 2.7 M303.5 82.3 C322.81 57.5, 340.89 37.68, 372.39 3.06 M303.5 82.3 C328.29 52.45, 354.18 23.7, 372.39 3.06 M309.15 81.91 C333.23 53.22, 356.29 24.47, 378.03 2.67 M309.15 81.91 C324.71 65.77, 338.7 49.13, 378.03 2.67 M314.13 82.27 C330.87 60.98, 349.76 38.29, 383.02 3.03 M314.13 82.27 C328.95 67.13, 343.17 49.06, 383.02 3.03 M319.78 81.88 C343.69 53.33, 369.79 26.85, 388.66 2.63 M319.78 81.88 C333.66 65.02, 346.52 49.38, 388.66 2.63 M324.76 82.24 C343.66 60.28, 363.11 38.47, 393.65 2.99 M324.76 82.24 C344.75 59.26, 365.65 35.97, 393.65 2.99 M330.41 81.84 C347.64 61.48, 362 44.33, 399.29 2.6 M330.41 81.84 C350.39 59.23, 368.08 38.18, 399.29 2.6 M335.39 82.2 C356 57.23, 376.22 34.29, 404.28 2.96 M335.39 82.2 C358.69 55.24, 384.48 26.57, 404.28 2.96 M341.04 81.81 C366.08 50.38, 394.27 20, 409.92 2.56 M341.04 81.81 C355.58 63.79, 370.6 47.14, 409.92 2.56 M346.02 82.17 C359.24 64.33, 373.03 50.06, 414.91 2.92 M346.02 82.17 C371.42 52.67, 398.12 23.25, 414.91 2.92 M351.67 81.77 C379.5 48.81, 406.85 18, 420.55 2.53 M351.67 81.77 C375.43 52.38, 400.02 25.42, 420.55 2.53 M356.65 82.13 C381.84 54.69, 402.94 28.64, 425.54 2.89 M356.65 82.13 C380 55.81, 402.83 27.96, 425.54 2.89 M362.3 81.74 C385.17 56.29, 405.65 31.24, 431.18 2.49 M362.3 81.74 C380.83 60.15, 398.63 39.97, 431.18 2.49 M367.28 82.1 C395.45 51.63, 421.34 20.24, 436.17 2.85 M367.28 82.1 C388.58 57.95, 410.07 32.57, 436.17 2.85 M372.93 81.7 C389.18 65.3, 403.73 47.35, 441.16 3.21 M372.93 81.7 C387.46 64.87, 402.34 45.96, 441.16 3.21 M377.91 82.06 C398.32 61.67, 416.8 40.1, 446.8 2.82 M377.91 82.06 C401.3 53.66, 424.68 27.14, 446.8 2.82 M383.56 81.67 C399.28 62.04, 417.55 40.94, 451.79 3.18 M383.56 81.67 C407.7 53.24, 433.09 25.8, 451.79 3.18 M388.54 82.03 C402.37 63.69, 419.22 49.66, 457.43 2.78 M388.54 82.03 C412.43 55.13, 436.02 26.13, 457.43 2.78 M393.53 82.39 C419.93 50.45, 448.8 21.99, 462.42 3.14 M393.53 82.39 C416.5 55.41, 439.78 29.83, 462.42 3.14 M399.17 81.99 C425.72 51.31, 451.74 18.66, 468.06 2.75 M399.17 81.99 C417.41 59.74, 435.96 40.01, 468.06 2.75 M404.16 82.35 C420.42 63.98, 437.33 43.93, 473.05 3.11 M404.16 82.35 C421.59 65.48, 437.56 46.49, 473.05 3.11 M409.8 81.96 C437.04 51.33, 464.61 19.23, 478.69 2.72 M409.8 81.96 C428.17 60.91, 446.83 40.42, 478.69 2.72 M414.79 82.32 C430.32 61.87, 449.4 43.58, 483.68 3.08 M414.79 82.32 C434.01 59.26, 453.35 37.99, 483.68 3.08 M420.43 81.93 C444.01 52.2, 467.69 26.92, 489.98 1.93 M420.43 81.93 C444.31 54.81, 466.36 28.2, 489.98 1.93 M425.42 82.29 C447.49 56.52, 467.39 32.37, 494.31 3.04 M425.42 82.29 C448.94 54.9, 473.18 27.74, 494.31 3.04 M431.06 81.89 C446.22 61.35, 465.42 43.41, 497.98 4.91 M431.06 81.89 C453.52 55.63, 475.33 30.76, 497.98 4.91 M436.05 82.25 C463.16 52.13, 488.26 24.57, 501.66 6.78 M436.05 82.25 C461.59 52.38, 487.47 23.44, 501.66 6.78 M441.69 81.86 C455.14 66.01, 468.59 50.01, 502.71 11.67 M441.69 81.86 C461.29 59.99, 478.9 39.15, 502.71 11.67 M446.68 82.22 C459.65 65.94, 477.59 46.8, 503.76 16.56 M446.68 82.22 C461.12 65.48, 477.57 47.03, 503.76 16.56 M452.32 81.82 C463.44 67.44, 476.83 56.13, 505.47 20.69 M452.32 81.82 C471.48 59.37, 491.73 37.52, 505.47 20.69 M457.31 82.18 C471.92 61.72, 491.07 44.93, 505.2 27.09 M457.31 82.18 C472.59 64.77, 486.21 48.51, 505.2 27.09 M462.95 81.79 C479.8 62.27, 494.55 44.89, 504.94 33.49 M462.95 81.79 C473.45 68.56, 482.96 57.85, 504.94 33.49 M467.94 82.15 C480.16 69.83, 493.08 54.55, 505.34 39.13 M467.94 82.15 C480.51 68.82, 491.46 53.5, 505.34 39.13 M473.58 81.75 C479.54 75.5, 486.61 65.17, 505.08 45.53 M473.58 81.75 C483.66 70.01, 494.77 58.55, 505.08 45.53 M478.57 82.11 C486.69 72.73, 492.54 65.4, 504.81 51.92 M478.57 82.11 C483.94 75.62, 490.88 70.24, 504.81 51.92 M484.87 80.96 C488.35 74.71, 492.71 70.34, 505.21 57.57 M484.87 80.96 C493.09 72.53, 499.1 63.8, 505.21 57.57 M491.17 79.81 C495.06 74.05, 499.69 68.72, 504.29 64.72 M491.17 79.81 C495.62 74.16, 499.73 70.46, 504.29 64.72" stroke="#e9ecef" stroke-width="0.5" fill="none"></path><path d="M20 0 M20 0 C193.57 -0.89, 368.38 -0.21, 484 0 M20 0 C137.62 0.02, 255.88 0.07, 484 0 M484 0 C499.09 0.32, 504.64 5.62, 504 20 M484 0 C497.12 1.76, 504.92 8.74, 504 20 M504 20 C505.73 31.06, 505.91 42.04, 504 60 M504 20 C503.78 31.79, 504.27 44.59, 504 60 M504 60 C504.33 71.41, 498.33 78.02, 484 80 M504 60 C502.7 75.11, 499.61 80.48, 484 80 M484 80 C341.49 81.64, 200.47 81.6, 20 80 M484 80 C325.22 78.79, 167.13 78.29, 20 80 M20 80 C5.04 78.12, 0.49 75.27, 0 60 M20 80 C6.07 81.22, 1.95 71.56, 0 60 M0 60 C0.36 45.57, -2.07 33.23, 0 20 M0 60 C-0.42 49.78, 0.28 40.78, 0 20 M0 20 C0.79 8.09, 4.68 -0.05, 20 0 M0 20 C-1.76 7.43, 7.43 1.05, 20 0" stroke="#1e1e1e" stroke-width="1" fill="none"></path></g><g transform="translate(863.198700184963 105.30306512627794) rotate(0 55.61125183105469 14.75699752794776)"><text x="55.61125183105469" y="0" font-family="Helvetica, Segoe UI Emoji" font-size="25.664343526865803px" fill="#1e1e1e" text-anchor="middle" style="white-space: pre;" direction="ltr" dominant-baseline="text-before-edge">EOA / SC</text></g><g stroke-linecap="round" transform="translate(663.6769964931409 495.1350233402218) rotate(0 250.42236328125 43.26318359375)"><path d="M22.41 -0.56 L485.5 1.77 L493.55 3.27 L499.7 10.24 L501.89 21.43 L500.21 69.39 L497.34 82.04 L490.02 86 L479.25 87.54 L15.16 85.47 L6 79.27 L0.15 73.8 L-0.43 65.96 L1.11 21.25 L3.16 11.31 L3.94 7.18 L11.15 1.78 L21.57 1.53" stroke="none" stroke-width="0" fill="#fff9db"></path><path d="M21.63 0 M21.63 0 C149.46 -0.43, 278.11 0.6, 479.21 0 M21.63 0 C173.2 -1.64, 324.27 -2.1, 479.21 0 M479.21 0 C494.52 -0.99, 501.76 5.73, 500.84 21.63 M479.21 0 C495.35 -1.05, 501.2 8.08, 500.84 21.63 M500.84 21.63 C502 34.36, 501.95 45.81, 500.84 64.89 M500.84 21.63 C500.64 35.37, 501.54 47.97, 500.84 64.89 M500.84 64.89 C500.69 78.18, 494.28 86.98, 479.21 86.53 M500.84 64.89 C500.51 79.41, 492.98 87.24, 479.21 86.53 M479.21 86.53 C329.92 87.21, 181.46 86.76, 21.63 86.53 M479.21 86.53 C366.95 84.9, 254.93 84.51, 21.63 86.53 M21.63 86.53 C7.56 88.26, 0.76 80.81, 0 64.89 M21.63 86.53 C9.48 85.73, 1.03 79.38, 0 64.89 M0 64.89 C0.96 50.54, 1.79 39.54, 0 21.63 M0 64.89 C-0.08 56.34, 0.89 45.04, 0 21.63 M0 21.63 C1.78 8.21, 6.54 1.62, 21.63 0 M0 21.63 C-1.17 7.67, 7.17 1.62, 21.63 0" stroke="#1e1e1e" stroke-width="1" fill="none"></path></g><g transform="translate(754.5827276943128 523.6412094060238) rotate(0 159.51663208007812 14.75699752794776)"><text x="159.51663208007812" y="0" font-family="Helvetica, Segoe UI Emoji" font-size="25.664343526865803px" fill="#1e1e1e" text-anchor="middle" style="white-space: pre;" direction="ltr" dominant-baseline="text-before-edge">Runtime Validation Function</text></g><g transform="translate(403.2541120022149 10) rotate(0 214.083984375 20.700000000000045)"><text x="0" y="0" font-family="Helvetica, Segoe UI Emoji" font-size="36px" fill="#1e1e1e" text-anchor="start" style="white-space: pre;" direction="ltr" dominant-baseline="text-before-edge">Modular Account Call Flow</text></g><g stroke-linecap="round" transform="translate(662.2894239190218 364.4748421070044) rotate(0 252 40)"><path d="M20.51 0.23 L488.94 -0.63 L499.89 4.89 L502.67 10.15 L502.37 18.28 L502.81 65.66 L498.26 74.3 L493.1 80.48 L484.76 81.49 L17.29 78.99 L8.71 77.24 L1.43 68.22 L0.53 60.84 L-0.99 21.67 L2.62 9.63 L5.35 5.99 L11.24 3.07 L21.94 -1.83" stroke="none" stroke-width="0" fill="#ebfbee"></path><path d="M20 0 M20 0 C201.17 0.24, 381.02 0.69, 484 0 M20 0 C192.13 -1.41, 363.5 -1.45, 484 0 M484 0 C497.13 -1.51, 502.2 5.24, 504 20 M484 0 C496.24 -2.08, 502.15 5.27, 504 20 M504 20 C503.28 35.47, 505.14 52.51, 504 60 M504 20 C504.25 30.42, 504.33 39.24, 504 60 M504 60 C503.41 75.19, 497.02 81.36, 484 80 M504 60 C505.82 74.7, 496.59 80.12, 484 80 M484 80 C389.86 79.93, 296.28 79.24, 20 80 M484 80 C300.01 79.24, 115.31 78.98, 20 80 M20 80 C6.87 80.4, -0.3 72.03, 0 60 M20 80 C8.15 80.72, -0.86 75.01, 0 60 M0 60 C1.63 51.36, -0.19 42.8, 0 20 M0 60 C-0.28 50.7, -0.44 42.98, 0 20 M0 20 C0.39 6.63, 7.27 1.5, 20 0 M0 20 C-1.53 8.46, 7.45 1.3, 20 0" stroke="#1e1e1e" stroke-width="1" fill="none"></path></g><g transform="translate(735.5403699639437 389.7178445790564) rotate(0 178.74905395507812 14.75699752794776)"><text x="178.74905395507812" y="0" font-family="Helvetica, Segoe UI Emoji" font-size="25.664343526865803px" fill="#1e1e1e" text-anchor="middle" style="white-space: pre;" direction="ltr" dominant-baseline="text-before-edge">Pre Runtime Validation Hook(s)</text></g></svg>