<svg version="1.1" xmlns="http://www.w3.org/2000/svg" viewBox="0 0 985.8861773930867 368.80046781750525" width="985.8861773930867" height="368.80046781750525">
  <!-- svg-source:excalidraw -->
  
  <defs>
    <style class="style-fonts">
      @font-face {
        font-family: "Virgil";
        src: url("https://excalidraw.com/Virgil.woff2");
      }
      @font-face {
        font-family: "Cascadia";
        src: url("https://excalidraw.com/Cascadia.woff2");
      }
    </style>
    
  </defs>
  <rect x="0" y="0" width="985.8861773930867" height="368.80046781750525" fill="#ffffff"></rect><g stroke-linecap="round" transform="translate(149.84626468032366 85.4002339087524) rotate(0 82.5 99)"><path d="M7.86 8.16 C7.86 8.16, 7.86 8.16, 7.86 8.16 M7.86 8.16 C7.86 8.16, 7.86 8.16, 7.86 8.16 M3.66 19.09 C8.83 13.17, 12.79 12.36, 18.1 2.48 M3.66 19.09 C9.1 12.22, 14.93 5.76, 18.1 2.48 M2.75 26.24 C8.16 19.08, 13.63 11.41, 24.4 1.33 M2.75 26.24 C10.27 17.06, 19.46 7.67, 24.4 1.33 M2.48 32.64 C9.56 22.29, 17.05 13.49, 30.7 0.18 M2.48 32.64 C8.55 24.93, 15.27 17.23, 30.7 0.18 M2.88 38.28 C12.52 25.96, 24.55 13.97, 34.37 2.05 M2.88 38.28 C14.98 23.52, 27.54 9.3, 34.37 2.05 M2.62 44.68 C10.7 34.58, 22.72 23.1, 39.36 2.41 M2.62 44.68 C11.99 33.65, 19.98 25.24, 39.36 2.41 M2.36 51.07 C16.22 31.1, 32.88 13.61, 45 2.02 M2.36 51.07 C10.22 39.56, 19.62 30.78, 45 2.02 M2.75 56.72 C14.98 40.96, 31.72 26.17, 49.99 2.38 M2.75 56.72 C19.23 36.79, 37.06 18.24, 49.99 2.38 M2.49 63.11 C18.43 42.46, 37.86 20.41, 55.63 1.98 M2.49 63.11 C22.53 38.71, 43.92 15.61, 55.63 1.98 M2.23 69.51 C16.01 55.34, 25.69 39.29, 60.62 2.34 M2.23 69.51 C25.54 41.42, 47.78 15.73, 60.62 2.34 M2.62 75.16 C18.53 58.64, 28.79 45.49, 66.26 1.95 M2.62 75.16 C25.99 50.27, 47.93 24.66, 66.26 1.95 M2.36 81.55 C21.03 60.73, 40.84 40.62, 71.25 2.31 M2.36 81.55 C17.7 64.01, 31.83 48.28, 71.25 2.31 M2.1 87.95 C20.43 70.19, 33.77 50.68, 76.89 1.91 M2.1 87.95 C19.6 67.55, 38.56 47.77, 76.89 1.91 M2.49 93.59 C25.74 68.08, 45.37 43.54, 81.88 2.27 M2.49 93.59 C22.8 69.61, 43.76 44.12, 81.88 2.27 M2.23 99.99 C34.53 60.04, 69.91 20.97, 86.86 2.63 M2.23 99.99 C23.82 76.36, 43.7 52.44, 86.86 2.63 M2.63 105.64 C26.08 82.12, 44.46 57.73, 92.51 2.24 M2.63 105.64 C31.86 73.65, 59.67 41.01, 92.51 2.24 M2.37 112.03 C26.83 84.86, 54.11 53.99, 97.49 2.6 M2.37 112.03 C32.14 80.26, 60.91 45.67, 97.49 2.6 M2.1 118.43 C39.88 77.71, 75.37 37.21, 103.14 2.21 M2.1 118.43 C30.74 86.87, 57.55 53.69, 103.14 2.21 M2.5 124.07 C36.52 86.67, 70.64 49.96, 108.12 2.57 M2.5 124.07 C41.67 77.65, 82.34 32.21, 108.12 2.57 M2.24 130.47 C24.53 102.79, 48.79 77.07, 113.77 2.17 M2.24 130.47 C46.77 79.65, 90.25 30.79, 113.77 2.17 M1.98 136.87 C41.75 93.45, 80.19 46.87, 118.76 2.53 M1.98 136.87 C46.21 83.83, 91.4 32.38, 118.76 2.53 M2.37 142.51 C46.49 89.62, 91.67 37.22, 124.4 2.14 M2.37 142.51 C36.74 104.12, 68.14 66.32, 124.4 2.14 M2.11 148.91 C40.73 103.92, 80.43 58.46, 129.39 2.5 M2.11 148.91 C34.9 111.9, 67.52 73.58, 129.39 2.5 M2.5 154.55 C52.11 95.8, 101.48 37.96, 134.37 2.86 M2.5 154.55 C29.64 121.94, 57.14 89.35, 134.37 2.86 M2.24 160.95 C40.05 116.45, 80.04 69.82, 141.33 0.95 M2.24 160.95 C42.49 115.08, 82.04 68.31, 141.33 0.95 M1.98 167.35 C32.92 131.78, 62.7 95.88, 145 2.82 M1.98 167.35 C46.31 115.81, 92.27 64.62, 145 2.82 M2.38 172.99 C46.04 121.84, 92.75 68.93, 149.33 3.94 M2.38 172.99 C33.1 137.74, 62.53 103.73, 149.33 3.94 M3.43 177.88 C52.84 118.07, 106.01 59.29, 153.66 5.05 M3.43 177.88 C56.19 116.68, 110.61 55.79, 153.66 5.05 M4.48 182.77 C51.54 129.58, 96.2 76.45, 156.03 8.43 M4.48 182.77 C43.24 138.1, 83.28 90.44, 156.03 8.43 M6.18 186.9 C53.85 130.7, 104.36 74.43, 159.05 11.06 M6.18 186.9 C53.87 133.31, 100.15 78.61, 159.05 11.06 M9.2 189.53 C40.7 152.43, 71.88 118.11, 162.06 13.68 M9.2 189.53 C65.72 125.04, 123.65 58.86, 162.06 13.68 M11.57 192.91 C43.58 154.58, 78.67 119.77, 163.12 18.57 M11.57 192.91 C47.29 151.3, 81.55 110.58, 163.12 18.57 M14.58 195.53 C45.08 162.18, 74.74 128.97, 164.17 23.46 M14.58 195.53 C69.64 129.93, 124.54 64.81, 164.17 23.46 M18.92 196.64 C67.26 140.5, 116.06 85.11, 164.56 29.1 M18.92 196.64 C72.83 134.53, 127.32 71.47, 164.56 29.1 M23.25 197.76 C62.59 149.9, 102.41 105.6, 166.27 33.23 M23.25 197.76 C72.07 139.66, 120.24 83.77, 166.27 33.23 M28.23 198.12 C74.61 146.86, 118.14 96.57, 166.01 39.63 M28.23 198.12 C67.72 154.13, 104.7 110.05, 166.01 39.63 M33.22 198.48 C76.01 149.1, 119.5 100.66, 166.4 45.27 M33.22 198.48 C72.39 151.3, 113.3 103.23, 166.4 45.27 M38.21 198.84 C72.87 159.86, 106.31 122.47, 166.14 51.67 M38.21 198.84 C71.6 159, 106.68 119.16, 166.14 51.67 M43.85 198.45 C90.85 143.54, 137.06 88.72, 166.53 57.31 M43.85 198.45 C84.96 152.55, 124.96 107.3, 166.53 57.31 M48.84 198.81 C91.62 151.62, 133.61 101.23, 166.27 63.71 M48.84 198.81 C89.22 150.98, 130.66 103.64, 166.27 63.71 M53.82 199.17 C75.44 172.86, 101.49 145.2, 166.01 70.11 M53.82 199.17 C96.08 149.08, 138.32 98.53, 166.01 70.11 M59.47 198.77 C89.27 163.55, 118.88 129.95, 166.41 75.75 M59.47 198.77 C95.49 155.41, 132.32 112.59, 166.41 75.75 M64.45 199.13 C100.01 158.13, 134.76 120.09, 166.14 82.15 M64.45 199.13 C98.04 160.33, 132.56 121.2, 166.14 82.15 M70.1 198.74 C106.1 155.09, 147.32 114.39, 166.54 87.79 M70.1 198.74 C103.63 162.46, 136.14 124.21, 166.54 87.79 M75.08 199.1 C111.25 159.03, 144.55 116.49, 166.28 94.19 M75.08 199.1 C104.69 163.48, 136.71 129.47, 166.28 94.19 M80.73 198.7 C108.81 165.77, 139.37 131.94, 166.02 100.59 M80.73 198.7 C97.34 176.85, 117.43 156.29, 166.02 100.59 M85.71 199.06 C112.19 169.2, 141.07 134.17, 166.41 106.23 M85.71 199.06 C103.88 178.82, 121.8 158.13, 166.41 106.23 M91.36 198.67 C112.8 174.66, 132.17 151.01, 166.15 112.63 M91.36 198.67 C117.39 168.5, 143.17 138.85, 166.15 112.63 M96.34 199.03 C118.91 172.58, 140.45 145.45, 166.54 118.27 M96.34 199.03 C118.93 170.27, 144.38 142.64, 166.54 118.27 M101.99 198.63 C125.12 171.75, 152.22 141.94, 166.28 124.67 M101.99 198.63 C121.88 177.23, 139.75 154.03, 166.28 124.67 M106.97 198.99 C127.77 171.73, 153.25 147.83, 166.02 131.07 M106.97 198.99 C123.34 179.08, 139.22 160.89, 166.02 131.07 M112.62 198.6 C124.58 186.02, 137.16 173.27, 166.41 136.71 M112.62 198.6 C129.88 180.26, 146.72 160.79, 166.41 136.71 M117.61 198.96 C130.23 181.3, 146.27 168.46, 166.15 143.11 M117.61 198.96 C136.66 177.56, 155.57 157.31, 166.15 143.11 M123.25 198.56 C134.68 182.71, 148.85 168.62, 166.55 148.75 M123.25 198.56 C132.69 186.72, 144.09 176.05, 166.55 148.75 M128.24 198.92 C143.52 183.64, 158.81 166.7, 166.29 155.15 M128.24 198.92 C135.94 188.77, 144.99 180.76, 166.29 155.15 M133.88 198.53 C146.97 183.6, 159.77 169.38, 166.03 161.55 M133.88 198.53 C146.37 183.58, 159.62 170.18, 166.03 161.55 M139.52 198.13 C150.15 187.42, 156.15 176.66, 166.42 167.19 M139.52 198.13 C146.34 189.8, 153.6 181.15, 166.42 167.19 M145.82 196.99 C148.37 194.15, 154.54 185.83, 165.5 174.34 M145.82 196.99 C151.68 190.15, 158.65 183.78, 165.5 174.34" stroke="#e9ecef" stroke-width="0.5" fill="none"></path><path d="M32 0 M32 0 C62.43 -0.2, 91.97 -0.28, 133 0 M32 0 C65.22 -0.92, 98.17 0.45, 133 0 M133 0 C152.49 -1.51, 163.92 11.55, 165 32 M133 0 C156.54 1.92, 163.69 12.34, 165 32 M165 32 C165.73 68.61, 163.82 100.3, 165 166 M165 32 C163.65 65.99, 165.04 99.58, 165 166 M165 166 C165.99 189.04, 156.11 197.4, 133 198 M165 166 C166.93 189.62, 154.79 197.17, 133 198 M133 198 C103.18 199.31, 78.85 199.16, 32 198 M133 198 C105.73 197.54, 77.58 197.19, 32 198 M32 198 C12 197.72, -1.57 187.76, 0 166 M32 198 C10.39 195.73, 1.27 187.8, 0 166 M0 166 C-2.24 138.82, -0.41 107.45, 0 32 M0 166 C1.11 136.92, 0.36 109.22, 0 32 M0 32 C-1.71 11.73, 10.81 -1.76, 32 0 M0 32 C-1.96 8.48, 9.1 1.78, 32 0" stroke="#1e1e1e" stroke-width="1" fill="none"></path></g><g transform="translate(172.09235843032366 172.9002339087524) rotate(0 60.25390625 11.5)"><text x="60.25390625" y="0" font-family="Helvetica, Segoe UI Emoji" font-size="20px" fill="#1e1e1e" text-anchor="middle" style="white-space: pre;" direction="ltr" dominant-baseline="text-before-edge">Alice's MSCA</text></g><g mask="url(#mask-l7lRfld0kKnWqTJ9WEcEl)" stroke-linecap="round"><g transform="translate(11.58351715048775 184.4002339087524) rotate(0 65.96374834875951 -0.05939412222096507)"><path d="M-0.08 -0.96 C9.06 -0.94, 33.07 0.42, 55.33 0.56 C77.6 0.71, 120.6 -0.2, 133.51 -0.12 M-1.58 1.14 C7.43 0.77, 32.34 -1.26, 54.82 -1.26 C77.3 -1.26, 120.23 1.09, 133.31 1.14" stroke="#1e1e1e" stroke-width="1" fill="none"></path></g><g transform="translate(11.58351715048775 184.4002339087524) rotate(0 65.96374834875951 -0.05939412222096507)"><path d="M103.22 11.96 C115.41 9.18, 123.94 4.82, 135.05 0.39 M104.36 10.6 C111.52 7.77, 120.53 5.58, 132.79 1.84" stroke="#1e1e1e" stroke-width="1" fill="none"></path></g><g transform="translate(11.58351715048775 184.4002339087524) rotate(0 65.96374834875951 -0.05939412222096507)"><path d="M103.82 -8.55 C115.88 -4.37, 124.21 -1.76, 135.05 0.39 M104.97 -9.91 C112.09 -7.39, 120.94 -4.23, 132.79 1.84" stroke="#1e1e1e" stroke-width="1" fill="none"></path></g></g><mask id="mask-l7lRfld0kKnWqTJ9WEcEl"><rect x="0" y="0" fill="#fff" width="244.0210938661803" height="284.4002339087524"></rect><rect x="38.52492340048775" y="175.20023390875258" fill="#000" width="55.109375" height="18.4" opacity="1"></rect></mask><g transform="translate(38.52492340048775 175.20023390875258) rotate(0 39.02234209875951 9.140605877778853)"><text x="27.5546875" y="0" font-family="Helvetica, Segoe UI Emoji" font-size="16px" fill="#1e1e1e" text-anchor="middle" style="white-space: pre;" direction="ltr" dominant-baseline="text-before-edge">UO / Tx</text></g><g stroke-linecap="round" transform="translate(416.46755569400466 10) rotate(0 78 82.5)"><path d="M7.86 8.16 C7.86 8.16, 7.86 8.16, 7.86 8.16 M7.86 8.16 C7.86 8.16, 7.86 8.16, 7.86 8.16 M3.66 19.09 C10.02 11.01, 13.46 4.32, 18.1 2.48 M3.66 19.09 C8.9 12.63, 14.34 5.57, 18.1 2.48 M2.75 26.24 C9.25 17.3, 17.6 9.37, 24.4 1.33 M2.75 26.24 C8.47 18.93, 14.11 11.22, 24.4 1.33 M2.48 32.64 C9.66 24.18, 17.23 13.79, 30.7 0.18 M2.48 32.64 C12.91 21.04, 22.07 9.64, 30.7 0.18 M2.88 38.28 C13.25 25.79, 25.04 11.42, 34.37 2.05 M2.88 38.28 C14.12 26.91, 24.27 14.41, 34.37 2.05 M2.62 44.68 C14.59 31.04, 22.96 22.45, 39.36 2.41 M2.62 44.68 C12.75 33.94, 22.12 21.28, 39.36 2.41 M2.36 51.07 C16.74 37.5, 29.5 20.52, 45 2.02 M2.36 51.07 C17.59 34.1, 33.09 16.39, 45 2.02 M2.75 56.72 C14.34 44.28, 28.86 27.93, 49.99 2.38 M2.75 56.72 C16.03 40.99, 29.59 26.71, 49.99 2.38 M2.49 63.11 C23.51 40.12, 43.45 16.04, 55.63 1.98 M2.49 63.11 C17.39 45.4, 33.21 28.03, 55.63 1.98 M2.23 69.51 C24.11 44.83, 49.26 16.5, 60.62 2.34 M2.23 69.51 C19.84 49.32, 37.19 31.05, 60.62 2.34 M2.62 75.16 C18.32 56.56, 35.47 37.56, 66.26 1.95 M2.62 75.16 C16.41 58.64, 31.9 41.08, 66.26 1.95 M2.36 81.55 C25.69 51.64, 50.62 26.77, 71.25 2.31 M2.36 81.55 C21.71 58.51, 42.78 34.82, 71.25 2.31 M2.1 87.95 C19.76 67.57, 38.34 46.85, 76.89 1.91 M2.1 87.95 C21.83 62.92, 42.47 40.67, 76.89 1.91 M2.49 93.59 C27.06 68.58, 50.54 42.01, 81.88 2.27 M2.49 93.59 C23.54 69.43, 44.5 43.97, 81.88 2.27 M2.23 99.99 C20.53 78.99, 39.61 57.43, 86.86 2.63 M2.23 99.99 C30.87 67.72, 59.61 34.6, 86.86 2.63 M1.97 106.39 C21.78 81.93, 46.63 57.54, 92.51 2.24 M1.97 106.39 C27.06 76.62, 52.16 47.24, 92.51 2.24 M2.37 112.03 C38.87 67.35, 75.5 26.86, 97.49 2.6 M2.37 112.03 C28.83 83.96, 54.3 53.14, 97.49 2.6 M2.1 118.43 C33.99 78.95, 63.72 44.18, 103.14 2.21 M2.1 118.43 C23.78 93.85, 43.1 71.63, 103.14 2.21 M2.5 124.07 C37.58 81.38, 76.21 39.97, 108.12 2.57 M2.5 124.07 C41.57 80.23, 80.16 36.28, 108.12 2.57 M0.27 132.74 C37.05 90.55, 78.63 45.28, 113.77 2.17 M0.27 132.74 C43.44 83.11, 87.35 32.4, 113.77 2.17 M0.66 138.38 C39.12 94.13, 77.31 50.92, 118.76 2.53 M0.66 138.38 C32.19 105.03, 62.75 70.69, 118.76 2.53 M1.72 143.27 C49.5 92.17, 91.46 39.76, 124.4 2.14 M1.72 143.27 C45.06 93.42, 87.56 43.57, 124.4 2.14 M2.77 148.16 C51.63 92.82, 100.33 34.49, 129.39 2.5 M2.77 148.16 C30.71 117.7, 58.58 86.42, 129.39 2.5 M5.13 151.53 C32.48 118.4, 61.97 85.08, 134.37 2.86 M5.13 151.53 C50.73 98.47, 96.35 47.84, 134.37 2.86 M7.49 154.91 C41.03 114.98, 76.73 73.53, 138.7 3.97 M7.49 154.91 C40.52 118.09, 73.17 79.8, 138.7 3.97 M10.51 157.54 C55.22 105.94, 101.97 52.69, 143.69 4.33 M10.51 157.54 C61.06 97.59, 113.78 37.66, 143.69 4.33 M12.87 160.92 C50.42 116.4, 89.23 75.22, 146.05 7.71 M12.87 160.92 C41.65 127.82, 70.53 94.29, 146.05 7.71 M16.55 162.79 C51.54 120.74, 91.78 79.67, 149.07 10.33 M16.55 162.79 C66.6 104.8, 116.9 47.8, 149.07 10.33 M20.22 164.66 C50.26 130.77, 80.65 95.71, 152.09 12.96 M20.22 164.66 C60.94 119.06, 99.81 73.36, 152.09 12.96 M24.55 165.77 C57.77 127.13, 93.35 83.73, 153.8 17.09 M24.55 165.77 C53.17 134.19, 78.46 102.49, 153.8 17.09 M29.54 166.13 C68.68 121.4, 107.62 74.64, 156.16 20.47 M29.54 166.13 C69.87 119.34, 112.85 70.59, 156.16 20.47 M33.87 167.25 C66.33 132.67, 95.1 97.64, 157.21 25.36 M33.87 167.25 C66.79 127.37, 101.01 90.15, 157.21 25.36 M39.51 166.85 C64.49 138.51, 91.4 108.08, 156.29 32.51 M39.51 166.85 C69 130.11, 101.46 94.07, 156.29 32.51 M44.5 167.21 C88.47 114.9, 131.67 66.76, 156.69 38.16 M44.5 167.21 C81.84 124.5, 120.36 81.48, 156.69 38.16 M50.14 166.82 C90.14 120.84, 130.66 73.89, 156.43 44.55 M50.14 166.82 C83.91 128.1, 119.94 88.96, 156.43 44.55 M55.13 167.18 C77.84 140.55, 105.45 110.83, 156.16 50.95 M55.13 167.18 C81.07 135.3, 107.66 104.84, 156.16 50.95 M60.77 166.78 C92.83 129.35, 130.31 88.81, 156.56 56.59 M60.77 166.78 C84.81 139.32, 108.1 112.98, 156.56 56.59 M65.76 167.14 C96.09 132.07, 123.18 99.84, 156.3 62.99 M65.76 167.14 C94.19 133.72, 121.72 100.09, 156.3 62.99 M71.4 166.75 C96.87 137.03, 120.06 107.61, 156.69 68.64 M71.4 166.75 C90.37 147.56, 106.67 125.99, 156.69 68.64 M76.39 167.11 C105.65 134.49, 134.25 102.57, 156.43 75.03 M76.39 167.11 C94.78 146.35, 111.7 127.08, 156.43 75.03 M82.04 166.71 C100 149.66, 115.71 127.33, 156.17 81.43 M82.04 166.71 C107.13 136.73, 130.23 109.85, 156.17 81.43 M87.02 167.07 C104.77 149.67, 120.54 127.49, 156.56 87.07 M87.02 167.07 C109.32 142.37, 132.25 115.82, 156.56 87.07 M92.67 166.68 C114.42 143.23, 133.93 119.07, 156.3 93.47 M92.67 166.68 C117.61 137.37, 144.07 108.49, 156.3 93.47 M97.65 167.04 C112.43 148.38, 126.53 134.58, 156.7 99.11 M97.65 167.04 C109.28 151.72, 123.66 136.83, 156.7 99.11 M103.3 166.64 C120.17 147.96, 133.69 131.26, 156.44 105.51 M103.3 166.64 C119.1 149.13, 133.79 130.86, 156.44 105.51 M108.28 167 C123.8 149.36, 135.06 134.1, 156.17 111.91 M108.28 167 C123.68 148.36, 140.33 127.97, 156.17 111.91 M113.93 166.61 C123.18 153.53, 132.4 142.75, 156.57 117.55 M113.93 166.61 C130.42 148.32, 145.99 131.64, 156.57 117.55 M118.91 166.97 C135.57 150.33, 147.39 132.77, 156.31 123.95 M118.91 166.97 C133.16 151.97, 147.27 134.36, 156.31 123.95 M125.21 165.82 C134.04 153.67, 142.39 146.31, 156.7 129.59 M125.21 165.82 C134.39 154.4, 144.06 145.23, 156.7 129.59 M130.85 165.43 C134.84 160.48, 142.47 151.33, 157.75 134.48 M130.85 165.43 C136.92 158.47, 141.93 152.87, 157.75 134.48 M138.47 162.77 C140.53 156.52, 144.33 152.33, 156.84 141.64 M138.47 162.77 C146.19 153.75, 153.08 147.62, 156.84 141.64" stroke="#eaddd7" stroke-width="0.5" fill="none"></path><path d="M32 0 M32 0 C68.42 0.24, 99.91 0.1, 124 0 M32 0 C53.38 -0.83, 73.48 0.6, 124 0 M124 0 C144.32 0.03, 156.42 12.31, 156 32 M124 0 C143.07 -0.12, 154.87 10.59, 156 32 M156 32 C153.62 66.14, 155.23 100.45, 156 133 M156 32 C156.37 67.57, 155.96 103.88, 156 133 M156 133 C155.63 155.98, 143.71 165.03, 124 165 M156 133 C154.39 152.6, 143.38 166.79, 124 165 M124 165 C98.75 165.25, 71.22 162.43, 32 165 M124 165 C96.05 164.49, 65.88 163.58, 32 165 M32 165 C9.44 163.46, 0.35 156.23, 0 133 M32 165 C12.82 165.45, -2.06 155.22, 0 133 M0 133 C-0.47 97.12, -0.23 64.48, 0 32 M0 133 C-0.3 105.18, 0.24 77.28, 0 32 M0 32 C-1.51 11.27, 11.54 -0.2, 32 0 M0 32 C-0.51 9.39, 8.76 -0.09, 32 0" stroke="#1e1e1e" stroke-width="1" fill="none"></path></g><g transform="translate(466.66970413150466 15) rotate(0 27.7978515625 11.5)"><text x="27.7978515625" y="0" font-family="Helvetica, Segoe UI Emoji" font-size="20px" fill="#1e1e1e" text-anchor="middle" style="white-space: pre;" direction="ltr" dominant-baseline="text-before-edge">Plugin</text></g><g stroke-linecap="round" transform="translate(432.46755569400466 127.92255672655801) rotate(0 62 16.5)"><path d="M2.2 1.91 C2.2 1.91, 2.2 1.91, 2.2 1.91 M2.2 1.91 C2.2 1.91, 2.2 1.91, 2.2 1.91 M1.28 9.06 C2.27 6.45, 3.69 5.81, 8.5 0.76 M1.28 9.06 C3.89 5.98, 6.37 2.98, 8.5 0.76 M1.02 15.46 C3.59 9.61, 8.61 6.04, 14.14 0.37 M1.02 15.46 C4.39 11.8, 9.17 6.86, 14.14 0.37 M1.41 21.1 C6.59 12.99, 12.53 8.43, 19.13 0.73 M1.41 21.1 C4.51 16.52, 9.62 11.65, 19.13 0.73 M1.81 26.75 C8.57 20.65, 12.41 15.04, 24.77 0.33 M1.81 26.75 C8.36 20.3, 14.5 14.15, 24.77 0.33 M3.51 30.88 C12.08 21.16, 20.21 12.14, 29.76 0.69 M3.51 30.88 C14.66 18.5, 24.55 8.06, 29.76 0.69 M6.53 33.5 C15.57 23.94, 27.5 11.12, 35.4 0.3 M6.53 33.5 C15.23 23.71, 24.31 13.35, 35.4 0.3 M11.52 33.86 C19.34 27.87, 23.62 20.56, 40.39 0.66 M11.52 33.86 C21.31 23.71, 30.47 12.52, 40.39 0.66 M16.51 34.22 C26.84 19.92, 38.53 7.23, 46.03 0.26 M16.51 34.22 C24.66 24.36, 34.07 12.55, 46.03 0.26 M22.15 33.83 C28.26 27.72, 33.75 18.09, 51.02 0.62 M22.15 33.83 C32.29 21.69, 43.42 10.16, 51.02 0.62 M27.14 34.19 C34.95 25.59, 43.27 12.93, 56 0.98 M27.14 34.19 C35.39 24.3, 45.29 13.96, 56 0.98 M32.78 33.79 C41.62 22.34, 50.47 10.97, 61.65 0.59 M32.78 33.79 C38.23 25.91, 44.73 19.91, 61.65 0.59 M37.77 34.15 C44.17 26.29, 51.8 16.65, 66.63 0.95 M37.77 34.15 C47.28 24.1, 55.98 12.83, 66.63 0.95 M43.41 33.76 C50.78 28.13, 56.85 18.86, 72.28 0.55 M43.41 33.76 C53.29 24.55, 60.65 13.23, 72.28 0.55 M48.4 34.12 C58.27 20.65, 68.38 10.11, 77.26 0.91 M48.4 34.12 C59.35 21.25, 69.22 9.74, 77.26 0.91 M54.04 33.73 C61.45 25.18, 67.64 16.99, 82.91 0.52 M54.04 33.73 C60.3 25.54, 67.19 19.72, 82.91 0.52 M59.03 34.09 C70.57 22.58, 79.9 8.1, 87.89 0.88 M59.03 34.09 C67.24 24.59, 74.8 15.28, 87.89 0.88 M64.01 34.45 C74.49 24.5, 82.62 11.65, 93.54 0.48 M64.01 34.45 C70.9 25.65, 79.74 18.28, 93.54 0.48 M69.66 34.05 C76.04 24.77, 84.36 18.35, 98.52 0.84 M69.66 34.05 C75.48 26.42, 81.64 19.73, 98.52 0.84 M74.64 34.41 C84.86 21.72, 98.77 6.59, 103.51 1.2 M74.64 34.41 C83.59 24.92, 90.48 16.95, 103.51 1.2 M80.29 34.02 C86.92 26.4, 95.21 15.23, 109.15 0.81 M80.29 34.02 C90.11 21.76, 101.83 10.28, 109.15 0.81 M85.27 34.38 C92.03 23.51, 104.08 14.2, 114.14 1.17 M85.27 34.38 C92.52 25.27, 99.36 17.1, 114.14 1.17 M90.92 33.98 C101.12 25.34, 107.68 13.93, 119.78 0.77 M90.92 33.98 C100.5 23.69, 108.2 13.63, 119.78 0.77 M95.9 34.34 C105.09 23.92, 114.15 10.59, 122.8 3.4 M95.9 34.34 C105.36 23.69, 114.4 11.92, 122.8 3.4 M101.55 33.95 C107.49 28.33, 115.11 18.73, 125.82 6.02 M101.55 33.95 C107.84 28.09, 111.36 22.71, 125.82 6.02 M106.53 34.31 C113.93 27.24, 122.17 15.49, 125.56 12.42 M106.53 34.31 C111.24 30.02, 113.75 24.91, 125.56 12.42 M111.52 34.67 C115.31 28.98, 117.74 25.75, 125.3 18.82 M111.52 34.67 C114.17 30.16, 118.1 26.62, 125.3 18.82 M117.16 34.27 C118.32 31.21, 120.73 27.85, 125.69 24.46 M117.16 34.27 C118.91 31.31, 121.23 29.19, 125.69 24.46" stroke="#69db7c" stroke-width="0.5" fill="none"></path><path d="M8.25 0 M8.25 0 C45.14 0.96, 79.96 1.92, 115.75 0 M8.25 0 C39.18 -0.07, 71.27 1.09, 115.75 0 M115.75 0 C120 -1.33, 122.87 3.41, 124 8.25 M115.75 0 C121.67 1.71, 122.76 0.96, 124 8.25 M124 8.25 C123.45 14.15, 122.61 17.82, 124 24.75 M124 8.25 C123.58 12.5, 123.81 15.98, 124 24.75 M124 24.75 C122.89 28.62, 121.3 33.67, 115.75 33 M124 24.75 C124.52 28.2, 121.29 34.38, 115.75 33 M115.75 33 C77.63 31.77, 34.43 35.2, 8.25 33 M115.75 33 C76.34 33.88, 36.63 34.06, 8.25 33 M8.25 33 C2.29 31.38, -1.32 29.92, 0 24.75 M8.25 33 C4.98 32.24, 1.8 31.88, 0 24.75 M0 24.75 C0.48 20.22, 0.32 17.21, 0 8.25 M0 24.75 C-0.55 19.93, -0.72 16.7, 0 8.25 M0 8.25 C-1.66 3.31, 1.59 -0.98, 8.25 0 M0 8.25 C-2.29 0.46, 0.98 -1.88, 8.25 0" stroke="#1e1e1e" stroke-width="1" fill="none"></path></g><g transform="translate(466.12282913150466 132.922556726558) rotate(0 28.3447265625 11.5)"><text x="28.3447265625" y="0" font-family="Helvetica, Segoe UI Emoji" font-size="20px" fill="#1e1e1e" text-anchor="middle" style="white-space: pre;" direction="ltr" dominant-baseline="text-before-edge">Hooks</text></g><g stroke-linecap="round" transform="translate(432.46755569400466 48.50185935749687) rotate(0 62 16.5)"><path d="M2.2 1.91 C2.2 1.91, 2.2 1.91, 2.2 1.91 M2.2 1.91 C2.2 1.91, 2.2 1.91, 2.2 1.91 M1.28 9.06 C3.16 6.68, 4.67 4.75, 8.5 0.76 M1.28 9.06 C3.44 7.07, 4.87 4.17, 8.5 0.76 M1.02 15.46 C6.45 10.52, 10.37 4.37, 14.14 0.37 M1.02 15.46 C2.99 12.91, 6.82 8.44, 14.14 0.37 M1.41 21.1 C8.84 13.23, 14.49 8.22, 19.13 0.73 M1.41 21.1 C6.58 15.2, 12.3 8.89, 19.13 0.73 M1.81 26.75 C8.68 19.92, 14.04 11.88, 24.77 0.33 M1.81 26.75 C7.71 21.15, 11.75 14.94, 24.77 0.33 M3.51 30.88 C9.57 22.57, 14.69 18.87, 29.76 0.69 M3.51 30.88 C11.66 22.32, 19.38 13.12, 29.76 0.69 M6.53 33.5 C18.85 19.99, 28.67 8.72, 35.4 0.3 M6.53 33.5 C18.81 20.84, 28.97 6.88, 35.4 0.3 M11.52 33.86 C18.38 25.6, 23.97 19.17, 40.39 0.66 M11.52 33.86 C20.91 23.03, 30.66 10.88, 40.39 0.66 M16.51 34.22 C28.65 23.07, 38.12 10.55, 46.03 0.26 M16.51 34.22 C26.49 22.35, 37.79 10, 46.03 0.26 M22.15 33.83 C28.86 24.84, 36.37 17.55, 51.02 0.62 M22.15 33.83 C32.64 20.73, 43.63 9.33, 51.02 0.62 M27.14 34.19 C32.91 24.79, 42.79 17.07, 56 0.98 M27.14 34.19 C37.73 23.51, 47.65 11.42, 56 0.98 M32.78 33.79 C38.76 23.34, 46.39 14.71, 61.65 0.59 M32.78 33.79 C40.66 24.48, 50.49 14.35, 61.65 0.59 M37.77 34.15 C47.28 22.96, 55.14 14.58, 66.63 0.95 M37.77 34.15 C47.19 24.28, 56.15 13.28, 66.63 0.95 M43.41 33.76 C51.62 25.07, 62.81 11.33, 72.28 0.55 M43.41 33.76 C49.79 25.7, 56.02 19.77, 72.28 0.55 M48.4 34.12 C55.57 26.21, 64.01 17.91, 77.26 0.91 M48.4 34.12 C56.71 23.85, 66.02 12.37, 77.26 0.91 M54.04 33.73 C63.14 21.61, 74.87 12.06, 82.91 0.52 M54.04 33.73 C60.11 27.16, 67.86 19.39, 82.91 0.52 M59.03 34.09 C69.86 20.01, 81.85 9.24, 87.89 0.88 M59.03 34.09 C69.81 21.26, 80.11 9.3, 87.89 0.88 M64.01 34.45 C74.38 22.08, 86.48 9.13, 93.54 0.48 M64.01 34.45 C76.77 21.18, 87.55 7.58, 93.54 0.48 M69.66 34.05 C81.54 20.68, 91.8 8.84, 98.52 0.84 M69.66 34.05 C75.95 25.97, 84.51 16.75, 98.52 0.84 M74.64 34.41 C83.48 22.04, 93.97 10.75, 103.51 1.2 M74.64 34.41 C85.53 22.81, 96.28 10.56, 103.51 1.2 M80.29 34.02 C84.92 27.74, 93.25 21.62, 109.15 0.81 M80.29 34.02 C86.02 27.35, 92.29 19.64, 109.15 0.81 M85.27 34.38 C91.91 26.09, 99.51 18.82, 114.14 1.17 M85.27 34.38 C92.12 27.63, 96.87 21.25, 114.14 1.17 M90.92 33.98 C102.93 20.8, 112.22 8.03, 119.78 0.77 M90.92 33.98 C99.51 24.64, 108.44 14.4, 119.78 0.77 M95.9 34.34 C107.05 22.32, 117.38 11.74, 122.8 3.4 M95.9 34.34 C104.67 24.17, 112.09 14.84, 122.8 3.4 M101.55 33.95 C106.98 24, 114.73 18.52, 125.82 6.02 M101.55 33.95 C108.45 26.29, 113.77 20.87, 125.82 6.02 M106.53 34.31 C111.69 25.91, 119.19 19.93, 125.56 12.42 M106.53 34.31 C113.4 28.05, 117.77 19.96, 125.56 12.42 M111.52 34.67 C116.15 30.28, 116.36 26.71, 125.3 18.82 M111.52 34.67 C116.19 28.85, 121.56 21.56, 125.3 18.82 M117.16 34.27 C120.76 32.17, 122.12 27.3, 125.69 24.46 M117.16 34.27 C119.01 31.54, 120.32 29.76, 125.69 24.46" stroke="#ffd43b" stroke-width="0.5" fill="none"></path><path d="M8.25 0 M8.25 0 C34.33 -0.05, 65.16 -1.57, 115.75 0 M8.25 0 C42.77 1.56, 75.75 1.31, 115.75 0 M115.75 0 C119.91 0.78, 125.35 0.88, 124 8.25 M115.75 0 C119.06 2.19, 124.37 0.51, 124 8.25 M124 8.25 C123.41 13.15, 122.58 17.04, 124 24.75 M124 8.25 C124.76 13.93, 123.47 18.23, 124 24.75 M124 24.75 C124.87 30.63, 122.39 31.15, 115.75 33 M124 24.75 C123.34 30.49, 119.45 33.66, 115.75 33 M115.75 33 C85.99 31.55, 52.08 31.57, 8.25 33 M115.75 33 C88.96 32.2, 63.06 32.53, 8.25 33 M8.25 33 C3.3 31.97, -1.23 32.09, 0 24.75 M8.25 33 C2.53 35.1, -1.62 29.15, 0 24.75 M0 24.75 C1.3 17.85, 0.86 11.76, 0 8.25 M0 24.75 C-0.7 18.79, 0.18 13.45, 0 8.25 M0 8.25 C-1.05 0.75, 1.1 -1.59, 8.25 0 M0 8.25 C-1.69 3.18, 4.57 -2.08, 8.25 0" stroke="#1e1e1e" stroke-width="1" fill="none"></path></g><g transform="translate(451.28396194400466 53.50185935749687) rotate(0 43.18359375 11.5)"><text x="43.18359375" y="0" font-family="Helvetica, Segoe UI Emoji" font-size="20px" fill="#1e1e1e" text-anchor="middle" style="white-space: pre;" direction="ltr" dominant-baseline="text-before-edge">Validation</text></g><g stroke-linecap="round" transform="translate(432.46755569400466 88.21220804202721) rotate(0 62 16.5)"><path d="M2.2 1.91 C2.2 1.91, 2.2 1.91, 2.2 1.91 M2.2 1.91 C2.2 1.91, 2.2 1.91, 2.2 1.91 M1.28 9.06 C4.52 5.62, 6.46 3.41, 8.5 0.76 M1.28 9.06 C4.58 6.06, 6.79 2.27, 8.5 0.76 M1.02 15.46 C4.56 10.94, 6.78 8.4, 14.14 0.37 M1.02 15.46 C5.05 10.77, 9.55 4.67, 14.14 0.37 M1.41 21.1 C9.49 14.83, 14.82 7.08, 19.13 0.73 M1.41 21.1 C7.07 14.17, 14.17 6.65, 19.13 0.73 M1.81 26.75 C7.04 19.46, 13.09 13.85, 24.77 0.33 M1.81 26.75 C10.15 16.14, 18.98 7.22, 24.77 0.33 M3.51 30.88 C8.67 22.21, 17.9 15.24, 29.76 0.69 M3.51 30.88 C13.2 21.26, 22.19 10.24, 29.76 0.69 M6.53 33.5 C12.51 23.04, 20.15 14.42, 35.4 0.3 M6.53 33.5 C14.41 24.19, 24.25 14.06, 35.4 0.3 M11.52 33.86 C21.03 22.67, 28.89 14.29, 40.39 0.66 M11.52 33.86 C20.95 23.99, 29.91 12.99, 40.39 0.66 M16.51 34.22 C24.92 25.29, 36.31 11.33, 46.03 0.26 M16.51 34.22 C23.03 26, 29.4 19.9, 46.03 0.26 M22.15 33.83 C29.32 25.91, 37.76 17.62, 51.02 0.62 M22.15 33.83 C30.46 23.56, 39.77 12.08, 51.02 0.62 M27.14 34.19 C36.24 22.08, 47.97 12.52, 56 0.98 M27.14 34.19 C33.21 27.63, 40.96 19.86, 56 0.98 M32.78 33.79 C43.61 19.72, 55.61 8.95, 61.65 0.59 M32.78 33.79 C43.56 20.97, 53.86 9.01, 61.65 0.59 M37.77 34.15 C47.88 22.08, 59.73 9.41, 66.63 0.95 M37.77 34.15 C50.26 21.19, 60.78 7.9, 66.63 0.95 M43.41 33.76 C55.29 20.39, 65.55 8.55, 72.28 0.55 M43.41 33.76 C49.7 25.68, 58.26 16.45, 72.28 0.55 M48.4 34.12 C57.23 21.75, 67.73 10.46, 77.26 0.91 M48.4 34.12 C59.28 22.52, 70.03 10.26, 77.26 0.91 M54.04 33.73 C58.67 27.45, 67 21.33, 82.91 0.52 M54.04 33.73 C59.77 27.06, 66.04 19.35, 82.91 0.52 M59.03 34.09 C65.66 25.8, 73.26 18.53, 87.89 0.88 M59.03 34.09 C65.87 27.34, 70.62 20.96, 87.89 0.88 M64.01 34.45 C76.27 20.97, 85.8 7.92, 93.54 0.48 M64.01 34.45 C72.8 24.88, 81.91 14.42, 93.54 0.48 M69.66 34.05 C81.52 21.22, 92.56 9.83, 98.52 0.84 M69.66 34.05 C79.05 23.18, 87.08 13.15, 98.52 0.84 M74.64 34.41 C81.46 22.8, 90.61 15.7, 103.51 1.2 M74.64 34.41 C82.7 25.43, 89.15 18.72, 103.51 1.2 M80.29 34.02 C88.55 22.06, 99.11 12.57, 109.15 0.81 M80.29 34.02 C90.25 24.09, 97.78 12.36, 109.15 0.81 M85.27 34.38 C93.49 25.92, 97.21 18.32, 114.14 1.17 M85.27 34.38 C95.59 21.81, 106.76 7.84, 114.14 1.17 M90.92 33.98 C101.67 24.54, 109.08 10.93, 119.78 0.77 M90.92 33.98 C97 25.9, 102.4 19.27, 119.78 0.77 M95.9 34.34 C101.47 27.05, 111.55 17.57, 122.8 3.4 M95.9 34.34 C104.99 25.7, 112.71 15.75, 122.8 3.4 M101.55 33.95 C105.22 25.38, 114.64 21.1, 125.82 6.02 M101.55 33.95 C106.47 28.2, 111.63 22.04, 125.82 6.02 M106.53 34.31 C110.37 29.6, 117.9 20.42, 125.56 12.42 M106.53 34.31 C111.25 28.46, 114.64 24.61, 125.56 12.42 M111.52 34.67 C115.9 29.67, 118.96 27.01, 125.3 18.82 M111.52 34.67 C114.88 30.28, 117.34 27.52, 125.3 18.82 M117.16 34.27 C118.8 30.75, 123.01 28.73, 125.69 24.46 M117.16 34.27 C121.15 31.11, 123.99 27.21, 125.69 24.46" stroke="#3bc9db" stroke-width="0.5" fill="none"></path><path d="M8.25 0 M8.25 0 C38.49 -0.46, 67.04 -1.73, 115.75 0 M8.25 0 C37.93 -1.4, 67.85 -1.19, 115.75 0 M115.75 0 C119.78 0.37, 125.58 0.94, 124 8.25 M115.75 0 C121.41 0.76, 123.83 2.31, 124 8.25 M124 8.25 C123.16 13.11, 123.42 19.21, 124 24.75 M124 8.25 C124.08 12.37, 124.13 16.44, 124 24.75 M124 24.75 C122.47 29.69, 122.45 31.26, 115.75 33 M124 24.75 C126.17 31.57, 123.41 31.35, 115.75 33 M115.75 33 C77.65 34.92, 41.71 33.01, 8.25 33 M115.75 33 C76.93 31.61, 38.06 32.36, 8.25 33 M8.25 33 C2.65 32.74, 0.08 30.43, 0 24.75 M8.25 33 C3.13 34.44, 0.74 30.33, 0 24.75 M0 24.75 C-0.15 20.2, -0.53 18.74, 0 8.25 M0 24.75 C0.01 18.36, 0.25 12.87, 0 8.25 M0 8.25 C0.27 3.05, 2.25 0.8, 8.25 0 M0 8.25 C-1.31 0.77, 5.01 -1.6, 8.25 0" stroke="#1e1e1e" stroke-width="1" fill="none"></path></g><g transform="translate(450.55154006900466 93.21220804202721) rotate(0 43.916015625 11.5)"><text x="43.916015625" y="0" font-family="Helvetica, Segoe UI Emoji" font-size="20px" fill="#1e1e1e" text-anchor="middle" style="white-space: pre;" direction="ltr" dominant-baseline="text-before-edge">Execution</text></g><g stroke-linecap="round" transform="translate(416.46755569400466 193.80046781750525) rotate(0 78 82.5)"><path d="M7.86 8.16 C7.86 8.16, 7.86 8.16, 7.86 8.16 M7.86 8.16 C7.86 8.16, 7.86 8.16, 7.86 8.16 M3.66 19.09 C9.11 14.41, 13.56 9.12, 18.1 2.48 M3.66 19.09 C7.32 14.8, 9.67 11.07, 18.1 2.48 M2.75 26.24 C7.71 17.82, 16.09 12.88, 24.4 1.33 M2.75 26.24 C7.87 19.61, 14.72 13.19, 24.4 1.33 M2.48 32.64 C8.08 26.74, 17.11 18.15, 30.7 0.18 M2.48 32.64 C11.87 21.53, 21.86 11.39, 30.7 0.18 M2.88 38.28 C10.61 28.08, 21.19 14.96, 34.37 2.05 M2.88 38.28 C9.83 28.91, 17.39 21.25, 34.37 2.05 M2.62 44.68 C16.22 29.46, 29.22 15.94, 39.36 2.41 M2.62 44.68 C13.18 34.55, 21.7 22.45, 39.36 2.41 M2.36 51.07 C14.67 38.46, 25.58 24.64, 45 2.02 M2.36 51.07 C16.83 34.35, 31.58 18.05, 45 2.02 M2.75 56.72 C13.87 42.71, 27.5 24.81, 49.99 2.38 M2.75 56.72 C14.23 42.49, 26.02 30.59, 49.99 2.38 M2.49 63.11 C15.13 44.55, 29.88 29.84, 55.63 1.98 M2.49 63.11 C18.25 46.71, 32.06 29.51, 55.63 1.98 M2.23 69.51 C15.77 55.26, 29.08 36.82, 60.62 2.34 M2.23 69.51 C15.96 52.96, 31.43 36.79, 60.62 2.34 M2.62 75.16 C27.25 48.14, 52.82 18.48, 66.26 1.95 M2.62 75.16 C17.15 59.55, 29.69 45.51, 66.26 1.95 M2.36 81.55 C25.54 55.36, 46.87 31.71, 71.25 2.31 M2.36 81.55 C17.09 64.97, 31.12 46.97, 71.25 2.31 M2.1 87.95 C22.3 65.58, 40.97 44.97, 76.89 1.91 M2.1 87.95 C22.04 66.06, 40.24 43.74, 76.89 1.91 M2.49 93.59 C33.14 56.96, 63.1 22.66, 81.88 2.27 M2.49 93.59 C32.91 58.37, 63.12 24.56, 81.88 2.27 M2.23 99.99 C30.16 68.44, 56.85 34.35, 86.86 2.63 M2.23 99.99 C28.01 68.48, 55.09 37.44, 86.86 2.63 M1.97 106.39 C29.39 78.67, 53.9 47.62, 92.51 2.24 M1.97 106.39 C33.75 69.23, 66.37 34.18, 92.51 2.24 M2.37 112.03 C28.08 83.35, 53.49 55.64, 97.49 2.6 M2.37 112.03 C27.85 81.11, 56.91 49.62, 97.49 2.6 M2.1 118.43 C30.76 84.47, 59.25 53.61, 103.14 2.21 M2.1 118.43 C24.06 92.3, 47.25 67.05, 103.14 2.21 M2.5 124.07 C25.68 96.02, 47.1 71.89, 108.12 2.57 M2.5 124.07 C29.68 91.94, 55.93 61.81, 108.12 2.57 M0.27 132.74 C33.91 92.75, 69.01 52.97, 113.77 2.17 M0.27 132.74 C32.78 95.82, 64.38 60.12, 113.77 2.17 M0.66 138.38 C27.13 102.92, 59.6 67.2, 118.76 2.53 M0.66 138.38 C34.71 102.18, 66.65 64.04, 118.76 2.53 M1.72 143.27 C46.71 95.1, 89.58 45.33, 124.4 2.14 M1.72 143.27 C39.79 100.07, 77.85 57.89, 124.4 2.14 M2.77 148.16 C46.32 99.07, 87.35 48.74, 129.39 2.5 M2.77 148.16 C29.48 117.02, 57.13 85.2, 129.39 2.5 M5.13 151.53 C53.61 95.44, 104.59 38.02, 134.37 2.86 M5.13 151.53 C36.11 114.09, 67.1 76.84, 134.37 2.86 M7.49 154.91 C44.25 111.35, 80.96 71.46, 138.7 3.97 M7.49 154.91 C46.49 111.32, 85.33 67.51, 138.7 3.97 M10.51 157.54 C46.78 116.11, 82.9 77.32, 143.69 4.33 M10.51 157.54 C57.99 105.26, 104.2 52.65, 143.69 4.33 M12.87 160.92 C42.41 125.4, 75.69 90.97, 146.05 7.71 M12.87 160.92 C61.63 107.73, 108.94 53.69, 146.05 7.71 M16.55 162.79 C54.05 117.09, 89.54 76.15, 149.07 10.33 M16.55 162.79 C48.37 127.85, 79.05 91.26, 149.07 10.33 M20.22 164.66 C69.56 102.83, 122.27 45.48, 152.09 12.96 M20.22 164.66 C69.47 107.53, 119.54 51.06, 152.09 12.96 M24.55 165.77 C71.39 109.87, 117.82 54.99, 153.8 17.09 M24.55 165.77 C52.93 131.46, 83.14 98.33, 153.8 17.09 M29.54 166.13 C66.99 125.37, 100.25 82.17, 156.16 20.47 M29.54 166.13 C78.99 107.24, 127.62 51.52, 156.16 20.47 M33.87 167.25 C62.77 131.97, 92.12 98.54, 157.21 25.36 M33.87 167.25 C61.52 135.99, 90.44 102.98, 157.21 25.36 M39.51 166.85 C70.31 130.48, 103.75 94.25, 156.29 32.51 M39.51 166.85 C81.65 119.84, 122.18 71.83, 156.29 32.51 M44.5 167.21 C86.31 119.36, 125.11 74.65, 156.69 38.16 M44.5 167.21 C70.39 140.4, 95.57 110.87, 156.69 38.16 M50.14 166.82 C79.28 135.07, 104.49 103, 156.43 44.55 M50.14 166.82 C75.49 136.53, 102.04 107.09, 156.43 44.55 M55.13 167.18 C89.49 130.52, 119.07 91.95, 156.16 50.95 M55.13 167.18 C91.47 123.49, 129.49 79.8, 156.16 50.95 M60.77 166.78 C81.77 143.84, 101.18 121.27, 156.56 56.59 M60.77 166.78 C80.32 144.76, 99.41 123, 156.56 56.59 M65.76 167.14 C84.2 143.3, 105.09 117.16, 156.3 62.99 M65.76 167.14 C97.66 130.17, 130.77 93.28, 156.3 62.99 M71.4 166.75 C103.68 126.89, 138.58 90.68, 156.69 68.64 M71.4 166.75 C105.25 128.6, 138.75 91.38, 156.69 68.64 M76.39 167.11 C107.64 133.95, 134.7 98.67, 156.43 75.03 M76.39 167.11 C92.14 148.23, 108.7 130.53, 156.43 75.03 M82.04 166.71 C108.01 138.75, 130.39 107.81, 156.17 81.43 M82.04 166.71 C104.2 140.03, 126.05 113.74, 156.17 81.43 M87.02 167.07 C113.25 139.41, 135.23 111.33, 156.56 87.07 M87.02 167.07 C104.63 148.43, 120.78 129.34, 156.56 87.07 M92.67 166.68 C111.99 141.41, 133.73 121.27, 156.3 93.47 M92.67 166.68 C109.77 146.27, 128.85 124.62, 156.3 93.47 M97.65 167.04 C117.36 147.44, 134.21 127.58, 156.7 99.11 M97.65 167.04 C108.25 153.49, 121.26 139.58, 156.7 99.11 M103.3 166.64 C116.12 152.47, 126.86 138.15, 156.44 105.51 M103.3 166.64 C123.04 142.57, 145.66 118.52, 156.44 105.51 M108.28 167 C124.84 150.75, 139.97 130.49, 156.17 111.91 M108.28 167 C121.87 152.35, 134.96 137.29, 156.17 111.91 M113.93 166.61 C128.43 152.78, 139.3 138.1, 156.57 117.55 M113.93 166.61 C128.53 150.33, 143.59 131.6, 156.57 117.55 M118.91 166.97 C126.05 156.55, 137.44 147.95, 156.31 123.95 M118.91 166.97 C128.31 156.78, 138.49 145.03, 156.31 123.95 M125.21 165.82 C131.47 158.32, 139.82 147.55, 156.7 129.59 M125.21 165.82 C130.99 158.66, 138.49 151.85, 156.7 129.59 M130.85 165.43 C142.7 154.29, 150.88 143.37, 157.75 134.48 M130.85 165.43 C136.23 159.19, 141.96 151.9, 157.75 134.48 M138.47 162.77 C143.61 158.29, 146.88 152.48, 156.84 141.64 M138.47 162.77 C142.39 158.78, 145.98 154.31, 156.84 141.64" stroke="#eaddd7" stroke-width="0.5" fill="none"></path><path d="M32 0 M32 0 C60.76 2.06, 84.87 0.71, 124 0 M32 0 C51.85 0.68, 71.31 -0.17, 124 0 M124 0 C146.82 -1.52, 155.21 10.72, 156 32 M124 0 C144.19 -0.24, 158.23 8.56, 156 32 M156 32 C158.23 59.74, 155.1 93, 156 133 M156 32 C154.33 65.37, 154.57 99.48, 156 133 M156 133 C154.71 154.15, 144.25 163.41, 124 165 M156 133 C155.83 152.47, 143.93 166.6, 124 165 M124 165 C104.39 165.71, 81.36 164.65, 32 165 M124 165 C93.28 165.26, 63.86 164.22, 32 165 M32 165 C12 163.11, -1.55 153.37, 0 133 M32 165 C12.34 164.85, 0.8 156.07, 0 133 M0 133 C-0.56 97.62, 0.39 64.32, 0 32 M0 133 C0.46 111.07, 0.58 89.02, 0 32 M0 32 C-1.21 8.89, 10.68 -1.35, 32 0 M0 32 C-1.1 12.4, 8.7 -1.15, 32 0" stroke="#1e1e1e" stroke-width="1" fill="none"></path></g><g transform="translate(466.66970413150466 198.80046781750525) rotate(0 27.7978515625 11.5)"><text x="27.7978515625" y="0" font-family="Helvetica, Segoe UI Emoji" font-size="20px" fill="#1e1e1e" text-anchor="middle" style="white-space: pre;" direction="ltr" dominant-baseline="text-before-edge">Plugin</text></g><g stroke-linecap="round" transform="translate(432.46755569400466 311.7230245440628) rotate(0 62 16.5)"><path d="M2.2 1.91 C2.2 1.91, 2.2 1.91, 2.2 1.91 M2.2 1.91 C2.2 1.91, 2.2 1.91, 2.2 1.91 M1.28 9.06 C2.91 6.82, 5.55 3.93, 8.5 0.76 M1.28 9.06 C3.06 7.18, 4.48 4.65, 8.5 0.76 M1.02 15.46 C3.38 9.97, 8.98 6.54, 14.14 0.37 M1.02 15.46 C4.51 11, 9.36 5.38, 14.14 0.37 M1.41 21.1 C9.26 12.81, 13.56 3.99, 19.13 0.73 M1.41 21.1 C6.47 14.65, 12.06 8.39, 19.13 0.73 M1.81 26.75 C8.34 18.75, 17.4 8.23, 24.77 0.33 M1.81 26.75 C8.09 19.86, 13.17 14.01, 24.77 0.33 M3.51 30.88 C8.99 22.48, 15.88 17.48, 29.76 0.69 M3.51 30.88 C13.15 19.02, 24.31 8.55, 29.76 0.69 M6.53 33.5 C15.82 23.83, 22.45 13.76, 35.4 0.3 M6.53 33.5 C13.57 25.8, 20.81 15.69, 35.4 0.3 M11.52 33.86 C20.81 24.09, 33.31 11.53, 40.39 0.66 M11.52 33.86 C17.52 26.72, 24.91 17.96, 40.39 0.66 M16.51 34.22 C22.12 26.49, 28.82 22.32, 46.03 0.26 M16.51 34.22 C25.64 23.64, 37.13 11.83, 46.03 0.26 M22.15 33.83 C31.58 22.91, 42.75 8.71, 51.02 0.62 M22.15 33.83 C31.59 23.1, 39.13 13.51, 51.02 0.62 M27.14 34.19 C34.26 21.87, 43.39 13.98, 56 0.98 M27.14 34.19 C34.15 26.59, 40.09 19.42, 56 0.98 M32.78 33.79 C37.89 27.68, 46.32 18.62, 61.65 0.59 M32.78 33.79 C43.71 20.56, 54.21 8.42, 61.65 0.59 M37.77 34.15 C44.73 23.2, 55.29 17.15, 66.63 0.95 M37.77 34.15 C47.49 24.68, 55.88 13.85, 66.63 0.95 M43.41 33.76 C53.8 22.48, 59.25 13.02, 72.28 0.55 M43.41 33.76 C50.17 26.84, 55.46 19.35, 72.28 0.55 M48.4 34.12 C58.68 23.48, 69.21 10.39, 77.26 0.91 M48.4 34.12 C56.42 24.36, 64.51 16.46, 77.26 0.91 M54.04 33.73 C65.25 20.03, 74.85 8.25, 82.91 0.52 M54.04 33.73 C60.49 24.97, 68.72 17.98, 82.91 0.52 M59.03 34.09 C67.21 25.04, 75.6 11.8, 87.89 0.88 M59.03 34.09 C66.92 24.74, 75.53 15.07, 87.89 0.88 M64.01 34.45 C69.61 26.22, 78.72 17.01, 93.54 0.48 M64.01 34.45 C71.43 24.22, 81.02 14.91, 93.54 0.48 M69.66 34.05 C75.73 26.85, 83.14 19.11, 98.52 0.84 M69.66 34.05 C76.45 26.97, 81.84 18.77, 98.52 0.84 M74.64 34.41 C81.65 27.15, 88.33 19.72, 103.51 1.2 M74.64 34.41 C81.55 26.5, 90.43 15.9, 103.51 1.2 M80.29 34.02 C88.09 23.77, 95.99 16.38, 109.15 0.81 M80.29 34.02 C92.14 19.97, 102.09 8.46, 109.15 0.81 M85.27 34.38 C92.85 23.92, 99.98 15.33, 114.14 1.17 M85.27 34.38 C93.33 24.42, 100.92 16.41, 114.14 1.17 M90.92 33.98 C98.51 24.31, 107.2 12.26, 119.78 0.77 M90.92 33.98 C99.29 25.2, 105.65 16.76, 119.78 0.77 M95.9 34.34 C102.03 27.54, 111.67 18.12, 122.8 3.4 M95.9 34.34 C103.43 26.59, 111.55 17.73, 122.8 3.4 M101.55 33.95 C107.22 27.37, 111.76 21.51, 125.82 6.02 M101.55 33.95 C108.19 25.84, 114.95 17.69, 125.82 6.02 M106.53 34.31 C111.91 26.96, 113.97 23.67, 125.56 12.42 M106.53 34.31 C111.2 28.19, 116.82 21.05, 125.56 12.42 M111.52 34.67 C116.68 28.07, 118.77 26.15, 125.3 18.82 M111.52 34.67 C115.95 29.65, 121.81 24.1, 125.3 18.82 M117.16 34.27 C118.27 31.48, 119.94 29.75, 125.69 24.46 M117.16 34.27 C120.55 31.79, 123.11 27.7, 125.69 24.46" stroke="#69db7c" stroke-width="0.5" fill="none"></path><path d="M8.25 0 M8.25 0 C32.47 1.33, 52.02 0.3, 115.75 0 M8.25 0 C36.45 -0.47, 64.08 -0.67, 115.75 0 M115.75 0 C120.36 -0.16, 122.32 1.36, 124 8.25 M115.75 0 C122.77 -1.13, 123.02 1.2, 124 8.25 M124 8.25 C123.86 14.7, 125.63 19.01, 124 24.75 M124 8.25 C124.28 13.57, 124.13 17.2, 124 24.75 M124 24.75 C122.15 32.13, 120.23 34.63, 115.75 33 M124 24.75 C123.43 29.52, 120.93 30.72, 115.75 33 M115.75 33 C73.53 34.67, 35.01 35.83, 8.25 33 M115.75 33 C81.85 31.97, 48.16 33.13, 8.25 33 M8.25 33 C1.35 34.03, -0.35 29.96, 0 24.75 M8.25 33 C4.71 33.08, 0.78 28.52, 0 24.75 M0 24.75 C0.69 17.68, -0.92 13.48, 0 8.25 M0 24.75 C0.12 21.88, 0.46 17.38, 0 8.25 M0 8.25 C-0.79 1.18, 0.88 0.51, 8.25 0 M0 8.25 C-1.05 0.5, 1.42 -1.26, 8.25 0" stroke="#1e1e1e" stroke-width="1" fill="none"></path></g><g transform="translate(466.12282913150466 316.7230245440628) rotate(0 28.3447265625 11.5)"><text x="28.3447265625" y="0" font-family="Helvetica, Segoe UI Emoji" font-size="20px" fill="#1e1e1e" text-anchor="middle" style="white-space: pre;" direction="ltr" dominant-baseline="text-before-edge">Hooks</text></g><g stroke-linecap="round" transform="translate(432.46755569400466 232.30232717500212) rotate(0 62 16.5)"><path d="M2.2 1.91 C2.2 1.91, 2.2 1.91, 2.2 1.91 M2.2 1.91 C2.2 1.91, 2.2 1.91, 2.2 1.91 M1.28 9.06 C3.26 5.51, 5.9 3.11, 8.5 0.76 M1.28 9.06 C3.32 6.62, 6.3 3.57, 8.5 0.76 M1.02 15.46 C3.92 13.01, 7 8.08, 14.14 0.37 M1.02 15.46 C6.35 11.07, 10.34 5.93, 14.14 0.37 M1.41 21.1 C6.58 14.81, 14.02 9, 19.13 0.73 M1.41 21.1 C6.16 15.83, 9.48 10.26, 19.13 0.73 M1.81 26.75 C8.26 16.83, 18.09 10.34, 24.77 0.33 M1.81 26.75 C7.88 19.98, 14.77 11.22, 24.77 0.33 M3.51 30.88 C11.85 22.48, 16.33 14.48, 29.76 0.69 M3.51 30.88 C10.19 23.57, 16.32 15.35, 29.76 0.69 M6.53 33.5 C14.87 24.04, 24.41 12.39, 35.4 0.3 M6.53 33.5 C17.99 20.65, 27.47 8.3, 35.4 0.3 M11.52 33.86 C21.04 22.38, 34.87 7.41, 40.39 0.66 M11.52 33.86 C20.73 21.78, 31.91 9.98, 40.39 0.66 M16.51 34.22 C24.82 25.64, 31.48 14.98, 46.03 0.26 M16.51 34.22 C28.24 21.6, 37.91 7.53, 46.03 0.26 M22.15 33.83 C32.48 23.16, 43.78 12.17, 51.02 0.62 M22.15 33.83 C29.94 26.1, 36.41 15.77, 51.02 0.62 M27.14 34.19 C31.82 26.28, 40.5 21.15, 56 0.98 M27.14 34.19 C36.03 23.6, 46.2 11.65, 56 0.98 M32.78 33.79 C45.7 19.15, 55.79 7.02, 61.65 0.59 M32.78 33.79 C40.16 24.97, 48.46 16.36, 61.65 0.59 M37.77 34.15 C43.87 27.41, 48.14 21.53, 66.63 0.95 M37.77 34.15 C47.56 21.79, 58.49 11.96, 66.63 0.95 M43.41 33.76 C48.68 24.82, 57.63 19.07, 72.28 0.55 M43.41 33.76 C53.37 21.96, 62.1 12.24, 72.28 0.55 M48.4 34.12 C56.93 22.81, 65.59 12.89, 77.26 0.91 M48.4 34.12 C55.91 26.38, 61.79 18.59, 77.26 0.91 M54.04 33.73 C58.68 27.3, 67.35 19.54, 82.91 0.52 M54.04 33.73 C60.81 26.49, 67.95 17.32, 82.91 0.52 M59.03 34.09 C69.26 24.48, 78.89 10.33, 87.89 0.88 M59.03 34.09 C67.66 23.61, 77.83 12.08, 87.89 0.88 M64.01 34.45 C72.79 24.83, 83.04 11.83, 93.54 0.48 M64.01 34.45 C70.7 25.02, 79.28 16.78, 93.54 0.48 M69.66 34.05 C77.56 21.49, 89.52 12.45, 98.52 0.84 M69.66 34.05 C79.52 22.4, 89.72 10.92, 98.52 0.84 M74.64 34.41 C84.11 23.26, 96.89 9.91, 103.51 1.2 M74.64 34.41 C85.79 21.81, 96.58 7.92, 103.51 1.2 M80.29 34.02 C89.76 25.01, 96.31 17.6, 109.15 0.81 M80.29 34.02 C86.56 27.58, 92.31 19.46, 109.15 0.81 M85.27 34.38 C90.82 27.17, 98.97 21.13, 114.14 1.17 M85.27 34.38 C91.12 26.78, 96.26 20.14, 114.14 1.17 M90.92 33.98 C99.57 22.09, 108.89 14.44, 119.78 0.77 M90.92 33.98 C98.2 26.32, 104.9 16.44, 119.78 0.77 M95.9 34.34 C105.48 21.71, 114.2 10.59, 122.8 3.4 M95.9 34.34 C105.32 23.23, 116.66 10.97, 122.8 3.4 M101.55 33.95 C109.53 26.61, 118.83 15.13, 125.82 6.02 M101.55 33.95 C109.3 25.1, 118.81 15.58, 125.82 6.02 M106.53 34.31 C110.21 30.1, 115.11 24.07, 125.56 12.42 M106.53 34.31 C112.5 27.94, 119.25 21.46, 125.56 12.42 M111.52 34.67 C115.41 32.83, 118.63 27.48, 125.3 18.82 M111.52 34.67 C115.38 28.35, 121.42 22.87, 125.3 18.82 M117.16 34.27 C119.62 30.68, 120.96 30.52, 125.69 24.46 M117.16 34.27 C119.85 30.49, 123.93 27.17, 125.69 24.46" stroke="#ffd43b" stroke-width="0.5" fill="none"></path><path d="M8.25 0 M8.25 0 C48.21 0.25, 91.57 0.97, 115.75 0 M8.25 0 C44.52 -0.31, 80.84 -0.93, 115.75 0 M115.75 0 C122.58 -0.98, 123.15 1.4, 124 8.25 M115.75 0 C121.21 1.07, 123.53 2.44, 124 8.25 M124 8.25 C123.96 13.58, 125.7 22, 124 24.75 M124 8.25 C123.29 15.1, 123.63 21.08, 124 24.75 M124 24.75 C123.51 29.61, 120.98 31.02, 115.75 33 M124 24.75 C125.85 28.63, 123.04 31.49, 115.75 33 M115.75 33 C79.26 33.4, 41.28 33.39, 8.25 33 M115.75 33 C88.13 34.23, 61.73 33.57, 8.25 33 M8.25 33 C4.46 33.07, 0.68 28.75, 0 24.75 M8.25 33 C4.21 32.55, -0.69 31.17, 0 24.75 M0 24.75 C-1.21 19.39, -0.98 16.94, 0 8.25 M0 24.75 C-0.39 17.6, -0.84 11.96, 0 8.25 M0 8.25 C-0.91 0.79, 1.6 -1.09, 8.25 0 M0 8.25 C-0.27 2.05, 0.74 -1.4, 8.25 0" stroke="#1e1e1e" stroke-width="1" fill="none"></path></g><g transform="translate(451.28396194400466 237.30232717500212) rotate(0 43.18359375 11.5)"><text x="43.18359375" y="0" font-family="Helvetica, Segoe UI Emoji" font-size="20px" fill="#1e1e1e" text-anchor="middle" style="white-space: pre;" direction="ltr" dominant-baseline="text-before-edge">Validation</text></g><g stroke-linecap="round" transform="translate(432.46755569400466 272.012675859532) rotate(0 62 16.5)"><path d="M2.2 1.91 C2.2 1.91, 2.2 1.91, 2.2 1.91 M2.2 1.91 C2.2 1.91, 2.2 1.91, 2.2 1.91 M1.28 9.06 C3.34 6.26, 4.13 4.29, 8.5 0.76 M1.28 9.06 C3.13 6.81, 5.58 3.64, 8.5 0.76 M1.02 15.46 C5.96 10.82, 8.53 7.54, 14.14 0.37 M1.02 15.46 C5.57 9.1, 9.9 4.49, 14.14 0.37 M1.41 21.1 C5.36 16.26, 9.55 10.19, 19.13 0.73 M1.41 21.1 C6.81 15.68, 10.86 9.33, 19.13 0.73 M1.81 26.75 C6.6 20.07, 13.33 13.48, 24.77 0.33 M1.81 26.75 C10.24 16.43, 20.36 7.25, 24.77 0.33 M3.51 30.88 C9.93 24.11, 19.19 14.67, 29.76 0.69 M3.51 30.88 C13.61 18.84, 23.4 7.84, 29.76 0.69 M6.53 33.5 C18.06 21.39, 24.82 11.67, 35.4 0.3 M6.53 33.5 C14.41 26.49, 20.74 17.43, 35.4 0.3 M11.52 33.86 C23.3 22.53, 31.7 7.15, 40.39 0.66 M11.52 33.86 C18.75 25.26, 27.75 16.78, 40.39 0.66 M16.51 34.22 C27.71 25.11, 36.48 13.95, 46.03 0.26 M16.51 34.22 C27.8 22.11, 37.27 10.38, 46.03 0.26 M22.15 33.83 C31.02 21.21, 42.04 11.14, 51.02 0.62 M22.15 33.83 C32.61 20.3, 45.14 7.64, 51.02 0.62 M27.14 34.19 C34.38 25.08, 42.29 16.77, 56 0.98 M27.14 34.19 C37.74 23.19, 46.9 12.8, 56 0.98 M32.78 33.79 C38.14 24.73, 45.63 18.75, 61.65 0.59 M32.78 33.79 C39.36 25.97, 48.51 16.42, 61.65 0.59 M37.77 34.15 C48.56 23.84, 56.84 11.77, 66.63 0.95 M37.77 34.15 C42.95 26.2, 49.2 18.98, 66.63 0.95 M43.41 33.76 C50.63 24.81, 56.63 18.79, 72.28 0.55 M43.41 33.76 C49.56 27.58, 54.42 20.03, 72.28 0.55 M48.4 34.12 C54.49 25.56, 64.42 18.83, 77.26 0.91 M48.4 34.12 C57.35 22.86, 67.18 10.88, 77.26 0.91 M54.04 33.73 C61.43 25.48, 72.15 13.72, 82.91 0.52 M54.04 33.73 C65.93 20.31, 75.76 7.48, 82.91 0.52 M59.03 34.09 C71.02 21.02, 82.47 6.63, 87.89 0.88 M59.03 34.09 C68.12 23.97, 76.79 13.15, 87.89 0.88 M64.01 34.45 C73.01 23.86, 83.75 10.18, 93.54 0.48 M64.01 34.45 C70.6 27.13, 76.99 18.97, 93.54 0.48 M69.66 34.05 C76.71 24.85, 81.42 18.63, 98.52 0.84 M69.66 34.05 C78.32 24.37, 86.85 15.15, 98.52 0.84 M74.64 34.41 C86.08 25.1, 91.91 11.92, 103.51 1.2 M74.64 34.41 C84.3 22.73, 95.23 12.87, 103.51 1.2 M80.29 34.02 C86.77 22.4, 98.2 14.17, 109.15 0.81 M80.29 34.02 C91.18 20.52, 102.85 7.22, 109.15 0.81 M85.27 34.38 C91.31 25.44, 101.1 15.59, 114.14 1.17 M85.27 34.38 C91.71 26.75, 96.84 20.31, 114.14 1.17 M90.92 33.98 C96.76 25.75, 103.38 18.22, 119.78 0.77 M90.92 33.98 C102.92 22.13, 113.41 8.83, 119.78 0.77 M95.9 34.34 C104.49 27.2, 111.06 17.58, 122.8 3.4 M95.9 34.34 C105.66 22.38, 115.9 11.89, 122.8 3.4 M101.55 33.95 C111.58 21.56, 121.4 10.92, 125.82 6.02 M101.55 33.95 C109.17 22.9, 118.97 13.38, 125.82 6.02 M106.53 34.31 C112.6 26.83, 116.58 20.74, 125.56 12.42 M106.53 34.31 C111.64 26.64, 119.22 20.47, 125.56 12.42 M111.52 34.67 C117.69 30.56, 122.73 20.99, 125.3 18.82 M111.52 34.67 C114.14 30.34, 117.62 27.66, 125.3 18.82 M117.16 34.27 C120.21 32.99, 120.08 28.85, 125.69 24.46 M117.16 34.27 C120.22 30.77, 122.45 28.02, 125.69 24.46" stroke="#3bc9db" stroke-width="0.5" fill="none"></path><path d="M8.25 0 M8.25 0 C44.31 0.74, 79.15 -1.58, 115.75 0 M8.25 0 C40.32 0.26, 70.64 0.07, 115.75 0 M115.75 0 C121.22 0.93, 123.59 2.48, 124 8.25 M115.75 0 C123.39 2.16, 125.27 2.48, 124 8.25 M124 8.25 C125.28 12.53, 123.03 14.32, 124 24.75 M124 8.25 C123.71 14.49, 123.8 20.44, 124 24.75 M124 24.75 C125.61 28.85, 122.81 31.69, 115.75 33 M124 24.75 C124.96 31.48, 123.54 33.28, 115.75 33 M115.75 33 C86.11 31.66, 59.79 31.23, 8.25 33 M115.75 33 C78.82 32.88, 40.52 32.09, 8.25 33 M8.25 33 C4.02 32.6, -0.6 31.05, 0 24.75 M8.25 33 C1.25 31.67, 1.01 28.43, 0 24.75 M0 24.75 C1.66 21.91, -0.06 17.16, 0 8.25 M0 24.75 C-0.22 20.29, -0.32 16.99, 0 8.25 M0 8.25 C-0.24 2.15, 1 -1.22, 8.25 0 M0 8.25 C-0.92 2.63, 3.25 -0.4, 8.25 0" stroke="#1e1e1e" stroke-width="1" fill="none"></path></g><g transform="translate(450.55154006900466 277.012675859532) rotate(0 43.916015625 11.5)"><text x="43.916015625" y="0" font-family="Helvetica, Segoe UI Emoji" font-size="20px" fill="#1e1e1e" text-anchor="middle" style="white-space: pre;" direction="ltr" dominant-baseline="text-before-edge">Execution</text></g><g mask="url(#mask-fc7LKkq26sgr7CNSZY386)" stroke-linecap="round"><g transform="translate(845.1159913245965 184.4002339087524) rotate(0 64.94665841170581 0.16620354466112985)"><path d="M0.38 1.04 C12.86 0.98, 54.19 -0.19, 75.92 -0.47 C97.65 -0.75, 121.84 -0.74, 130.77 -0.66 M-0.88 0.54 C11.31 0.66, 52.85 0.86, 74.73 0.82 C96.61 0.78, 121.28 0.26, 130.39 0.31" stroke="#1e1e1e" stroke-width="1" fill="none"></path></g><g transform="translate(845.1159913245965 184.4002339087524) rotate(0 64.94665841170581 0.16620354466112985)"><path d="M27.14 -9.4 C14.86 -3.56, 4.81 -1.95, 0.44 -0.33 M24.88 -7.95 C19.06 -6.94, 13.52 -3.73, -0.26 1.15" stroke="#1e1e1e" stroke-width="1" fill="none"></path></g><g transform="translate(845.1159913245965 184.4002339087524) rotate(0 64.94665841170581 0.16620354466112985)"><path d="M27.52 8.95 C15.11 7.65, 4.91 2.11, 0.44 -0.33 M25.26 10.4 C19.18 6.81, 13.55 5.43, -0.26 1.15" stroke="#1e1e1e" stroke-width="1" fill="none"></path></g></g><mask id="mask-fc7LKkq26sgr7CNSZY386"><rect x="0" y="0" fill="#fff" width="1075.1433350745965" height="284.4002339087524"></rect><rect x="893.9293106905088" y="175.20023390875258" fill="#000" width="55.109375" height="18.4" opacity="1"></rect></mask><g transform="translate(893.9293106905088 175.20023390875258) rotate(0 16.13333904579349 9.366203544660948)"><text x="27.5546875" y="0" font-family="Helvetica, Segoe UI Emoji" font-size="16px" fill="#1e1e1e" text-anchor="middle" style="white-space: pre;" direction="ltr" dominant-baseline="text-before-edge">UO / Tx</text></g><g stroke-linecap="round" transform="translate(674.5473524404006 85.4002339087524) rotate(0 82.5 99)"><path d="M7.86 8.16 C7.86 8.16, 7.86 8.16, 7.86 8.16 M7.86 8.16 C7.86 8.16, 7.86 8.16, 7.86 8.16 M3.66 19.09 C5.78 14.28, 12.36 8.41, 18.1 2.48 M3.66 19.09 C7.38 14.47, 12.94 9.5, 18.1 2.48 M2.75 26.24 C10.21 20.58, 13.87 13.15, 24.4 1.33 M2.75 26.24 C8.62 20.76, 13.63 13.62, 24.4 1.33 M2.48 32.64 C8.94 26, 15.19 18.51, 30.7 0.18 M2.48 32.64 C12.59 22.24, 22.03 10.31, 30.7 0.18 M2.88 38.28 C14.93 27.17, 24.79 12.4, 34.37 2.05 M2.88 38.28 C10.93 29.12, 20.26 18.18, 34.37 2.05 M2.62 44.68 C16.13 29.87, 26.03 19.58, 39.36 2.41 M2.62 44.68 C15.88 28.57, 30.91 13.93, 39.36 2.41 M2.36 51.07 C13.77 36.64, 26.72 24.86, 45 2.02 M2.36 51.07 C15.23 37, 27.01 21.32, 45 2.02 M2.75 56.72 C15.16 42.21, 27.45 28.45, 49.99 2.38 M2.75 56.72 C19.39 39.38, 35.2 19.92, 49.99 2.38 M2.49 63.11 C20.38 41.5, 39.39 21.44, 55.63 1.98 M2.49 63.11 C17.19 47.08, 31.99 30.54, 55.63 1.98 M2.23 69.51 C20.57 47.24, 40.51 27.88, 60.62 2.34 M2.23 69.51 C14.02 54.74, 25.19 42.32, 60.62 2.34 M2.62 75.16 C19.07 55.79, 35.97 35.65, 66.26 1.95 M2.62 75.16 C15.38 59.35, 29.38 43.19, 66.26 1.95 M2.36 81.55 C20.44 61.99, 37.47 42.64, 71.25 2.31 M2.36 81.55 C29.41 50.96, 54.11 21.2, 71.25 2.31 M2.1 87.95 C32.06 56.85, 59.14 23.58, 76.89 1.91 M2.1 87.95 C22.05 64.13, 42.84 41.64, 76.89 1.91 M2.49 93.59 C31.09 63.69, 58.87 29.07, 81.88 2.27 M2.49 93.59 C27.03 64.3, 54.72 33.24, 81.88 2.27 M2.23 99.99 C31.81 64.05, 59.92 31.65, 86.86 2.63 M2.23 99.99 C35.77 62.26, 69.15 23.26, 86.86 2.63 M2.63 105.64 C29.93 71.92, 60.44 38.14, 92.51 2.24 M2.63 105.64 C29.06 75.69, 56.25 44.86, 92.51 2.24 M2.37 112.03 C31.07 77.55, 56.16 48.13, 97.49 2.6 M2.37 112.03 C33.86 77.37, 64.27 41.55, 97.49 2.6 M2.1 118.43 C33.55 82.88, 65.97 47.19, 103.14 2.21 M2.1 118.43 C26.87 90.32, 52.01 60.83, 103.14 2.21 M2.5 124.07 C31.06 90.97, 60.42 60.87, 108.12 2.57 M2.5 124.07 C44.75 75.05, 87.2 25.87, 108.12 2.57 M2.24 130.47 C36.86 90.59, 65.66 53.84, 113.77 2.17 M2.24 130.47 C36.68 92.21, 67.41 54.89, 113.77 2.17 M1.98 136.87 C43.15 91.16, 83.6 41.71, 118.76 2.53 M1.98 136.87 C34.86 96.21, 70.3 56.87, 118.76 2.53 M2.37 142.51 C36.98 101.7, 74.63 60.18, 124.4 2.14 M2.37 142.51 C31.04 108.12, 61.42 73.17, 124.4 2.14 M2.11 148.91 C52.49 90.7, 101.47 33.65, 129.39 2.5 M2.11 148.91 C44.45 99.22, 89.98 48.41, 129.39 2.5 M2.5 154.55 C52.2 98.43, 102.15 42.66, 134.37 2.86 M2.5 154.55 C44.33 104.4, 89.08 54.53, 134.37 2.86 M2.24 160.95 C34.93 123.01, 68.49 84.61, 141.33 0.95 M2.24 160.95 C56.41 97.24, 111.69 34.07, 141.33 0.95 M1.98 167.35 C38.25 127.31, 70.69 89.38, 145 2.82 M1.98 167.35 C32.55 132.69, 61.16 97.54, 145 2.82 M2.38 172.99 C47.17 122.41, 93.47 70.9, 149.33 3.94 M2.38 172.99 C53.62 113.46, 104.75 54.36, 149.33 3.94 M3.43 177.88 C37.8 140.76, 69.71 101.88, 153.66 5.05 M3.43 177.88 C59.29 113.77, 112.99 51.16, 153.66 5.05 M4.48 182.77 C42.7 141.3, 77.87 96.03, 156.03 8.43 M4.48 182.77 C37.32 144.52, 70.89 105.67, 156.03 8.43 M6.18 186.9 C53.8 133.86, 101.91 80.19, 159.05 11.06 M6.18 186.9 C60.56 124.44, 114.57 63.25, 159.05 11.06 M9.2 189.53 C47.01 150.04, 82.05 110.34, 162.06 13.68 M9.2 189.53 C52.7 138.33, 97 87.12, 162.06 13.68 M11.57 192.91 C54.71 141.36, 102.31 89.03, 163.12 18.57 M11.57 192.91 C59.95 137.62, 109.59 80.85, 163.12 18.57 M14.58 195.53 C60.75 144.67, 105.21 95.71, 164.17 23.46 M14.58 195.53 C67.64 136.55, 117.79 77.17, 164.17 23.46 M18.92 196.64 C57.73 149.41, 99.05 103.65, 164.56 29.1 M18.92 196.64 C63.67 146.88, 106.14 97.4, 164.56 29.1 M23.25 197.76 C51.18 161.59, 82.34 127.98, 166.27 33.23 M23.25 197.76 C55.12 160.76, 88.09 125.03, 166.27 33.23 M28.23 198.12 C70.63 149.63, 113.79 98.54, 166.01 39.63 M28.23 198.12 C68.7 152.18, 109.57 104.75, 166.01 39.63 M33.22 198.48 C81.43 146.13, 127.23 91.44, 166.4 45.27 M33.22 198.48 C72.26 153.22, 112.17 108.05, 166.4 45.27 M38.21 198.84 C82.7 143.65, 129.66 91.75, 166.14 51.67 M38.21 198.84 C67.08 166.96, 96.94 134.3, 166.14 51.67 M43.85 198.45 C81.79 157.4, 114.87 115.12, 166.53 57.31 M43.85 198.45 C90.31 145.78, 137.37 92.29, 166.53 57.31 M48.84 198.81 C92.93 148.73, 137.05 97.16, 166.27 63.71 M48.84 198.81 C92.29 149.24, 135.26 99.99, 166.27 63.71 M53.82 199.17 C99.8 148.85, 141.25 95.71, 166.01 70.11 M53.82 199.17 C76.39 171.23, 99.01 145.57, 166.01 70.11 M59.47 198.77 C102.07 148.26, 144.59 99.53, 166.41 75.75 M59.47 198.77 C91.79 160.41, 124.47 123.4, 166.41 75.75 M64.45 199.13 C102.43 152.94, 142.45 107.69, 166.14 82.15 M64.45 199.13 C102.28 156.06, 140.13 114.03, 166.14 82.15 M70.1 198.74 C93.96 169.16, 118.87 143.82, 166.54 87.79 M70.1 198.74 C107.61 154.1, 146.07 111.35, 166.54 87.79 M75.08 199.1 C92.67 176.55, 113.29 152.37, 166.28 94.19 M75.08 199.1 C107.18 160.77, 141.31 123.88, 166.28 94.19 M80.73 198.7 C100.08 176.61, 120.22 151.73, 166.02 100.59 M80.73 198.7 C104.13 174.07, 126.74 147.46, 166.02 100.59 M85.71 199.06 C100.72 178.13, 117.91 160.15, 166.41 106.23 M85.71 199.06 C116.01 165.65, 143.98 131.17, 166.41 106.23 M91.36 198.67 C114.6 171.63, 136.88 146.2, 166.15 112.63 M91.36 198.67 C119.63 165.55, 147.16 133.56, 166.15 112.63 M96.34 199.03 C115.78 176.72, 134.6 156.62, 166.54 118.27 M96.34 199.03 C113.49 179.49, 129.97 161.62, 166.54 118.27 M101.99 198.63 C127.79 170.39, 151.46 141.61, 166.28 124.67 M101.99 198.63 C115.94 181.29, 131.36 164.84, 166.28 124.67 M106.97 198.99 C122.55 178.59, 140.93 158.91, 166.02 131.07 M106.97 198.99 C126.52 177.34, 145.35 154.58, 166.02 131.07 M112.62 198.6 C129.13 178.56, 143.88 161.43, 166.41 136.71 M112.62 198.6 C131.57 177.22, 149.05 157.62, 166.41 136.71 M117.61 198.96 C136.67 176.73, 155.9 157.81, 166.15 143.11 M117.61 198.96 C130.36 184.02, 144.46 168.08, 166.15 143.11 M123.25 198.56 C138.27 182.04, 151.5 165.5, 166.55 148.75 M123.25 198.56 C135.66 184.84, 147.37 170.14, 166.55 148.75 M128.24 198.92 C144.51 182.09, 158.9 166.71, 166.29 155.15 M128.24 198.92 C143.84 181.96, 156.79 166.45, 166.29 155.15 M133.88 198.53 C145.95 188.18, 154.64 175.05, 166.03 161.55 M133.88 198.53 C141.89 189.98, 149.76 179.75, 166.03 161.55 M139.52 198.13 C145.24 192.2, 150.34 184.24, 166.42 167.19 M139.52 198.13 C147.25 189, 154.12 181.25, 166.42 167.19 M145.82 196.99 C150.41 192.59, 154.2 189.23, 165.5 174.34 M145.82 196.99 C151.69 190.53, 156.9 183.85, 165.5 174.34" stroke="#e9ecef" stroke-width="0.5" fill="none"></path><path d="M32 0 M32 0 C65.01 1.08, 95.15 -1.69, 133 0 M32 0 C57.43 1.89, 81.98 1.17, 133 0 M133 0 C155.4 -0.06, 164.85 10.16, 165 32 M133 0 C153.73 1.33, 163.66 9.35, 165 32 M165 32 C164.07 81.44, 165.89 133.15, 165 166 M165 32 C165.79 78.78, 165.08 126.98, 165 166 M165 166 C166.34 187.52, 154.95 198.03, 133 198 M165 166 C164.91 189.36, 156.22 195.92, 133 198 M133 198 C96.09 198.85, 55.14 198.3, 32 198 M133 198 C102.34 196.39, 73.14 197.67, 32 198 M32 198 C11.05 197.24, 0.51 189.13, 0 166 M32 198 C11.55 200.18, 2.27 186.52, 0 166 M0 166 C2.17 118.01, 2 69.21, 0 32 M0 166 C1.55 125.57, 0.6 85.26, 0 32 M0 32 C0.85 9.75, 10.41 -1.19, 32 0 M0 32 C-2.18 8.72, 10.76 -1.95, 32 0" stroke="#1e1e1e" stroke-width="1" fill="none"></path></g><g transform="translate(700.6752821279006 172.9002339087524) rotate(0 56.3720703125 11.5)"><text x="56.3720703125" y="0" font-family="Helvetica, Segoe UI Emoji" font-size="20px" fill="#1e1e1e" text-anchor="middle" style="white-space: pre;" direction="ltr" dominant-baseline="text-before-edge">Bob's MSCA</text></g><g stroke-linecap="round"><g transform="translate(318.34815333440656 174.4171393570541) rotate(0 47.3087568527576 -38.76974331813858)"><path d="M0.28 -0.61 C16.08 -13.9, 79.84 -66.26, 95.64 -79.23 M-1.03 1.69 C14.56 -11.52, 79 -65, 94.89 -78.14" stroke="#1e1e1e" stroke-width="1" fill="none"></path></g><g transform="translate(318.34815333440656 174.4171393570541) rotate(0 47.3087568527576 -38.76974331813858)"><path d="M78.73 -51.63 C83.87 -62.2, 90.86 -69.69, 94.95 -78.32 M80.16 -52.73 C84.72 -61.8, 90.71 -71.55, 95.28 -78.54" stroke="#1e1e1e" stroke-width="1" fill="none"></path></g><g transform="translate(318.34815333440656 174.4171393570541) rotate(0 47.3087568527576 -38.76974331813858)"><path d="M65.63 -67.43 C75.74 -72.12, 87.63 -73.71, 94.95 -78.32 M67.06 -68.52 C76.48 -71.57, 87.42 -75.36, 95.28 -78.54" stroke="#1e1e1e" stroke-width="1" fill="none"></path></g></g><mask></mask><g stroke-linecap="round"><g transform="translate(318.1737626999893 194.13037066550396) rotate(0 47.55307712258082 39.2990495731126)"><path d="M-0.65 -0.89 C15.29 12.13, 79.71 64.94, 95.76 78.1 M1.21 1.26 C17.02 14.46, 79.42 66.49, 95.06 79.48" stroke="#1e1e1e" stroke-width="1" fill="none"></path></g><g transform="translate(318.1737626999893 194.13037066550396) rotate(0 47.55307712258082 39.2990495731126)"><path d="M65.36 70.13 C75.14 73.22, 83.9 74.74, 95.49 78.57 M66.73 68.52 C73.19 70.37, 78.28 73.65, 95.49 79.1" stroke="#1e1e1e" stroke-width="1" fill="none"></path></g><g transform="translate(318.1737626999893 194.13037066550396) rotate(0 47.55307712258082 39.2990495731126)"><path d="M78.49 54.36 C84.18 62.29, 88.86 68.71, 95.49 78.57 M79.86 52.75 C83.65 58.02, 85.95 64.64, 95.49 79.1" stroke="#1e1e1e" stroke-width="1" fill="none"></path></g></g><mask></mask><g stroke-linecap="round"><g transform="translate(670.9452253731324 174.1394066377875) rotate(0 -47.686268666398064 -39.10714673894449)"><path d="M0.59 0.85 C-15.32 -12.21, -79.87 -64.22, -95.96 -77.43 M-0.56 0.25 C-16.04 -13.21, -78.13 -66.17, -93.61 -79.06" stroke="#1e1e1e" stroke-width="1" fill="none"></path></g><g transform="translate(670.9452253731324 174.1394066377875) rotate(0 -47.686268666398064 -39.10714673894449)"><path d="M-64.04 -69.85 C-71.23 -72.42, -80.14 -74.56, -92.56 -77.27 M-65.2 -69.15 C-74.84 -72.93, -83.28 -75.6, -93.66 -78.25" stroke="#1e1e1e" stroke-width="1" fill="none"></path></g><g transform="translate(670.9452253731324 174.1394066377875) rotate(0 -47.686268666398064 -39.10714673894449)"><path d="M-77.28 -54.18 C-81.17 -60.86, -86.66 -67.05, -92.56 -77.27 M-78.44 -53.48 C-83.6 -62.43, -87.67 -70.28, -93.66 -78.25" stroke="#1e1e1e" stroke-width="1" fill="none"></path></g></g><mask></mask><g stroke-linecap="round"><g transform="translate(670.919101197167 193.8526379462378) rotate(0 -47.41164712996442 40.13333421248035)"><path d="M-0.69 0.95 C-16.78 13.86, -80.15 65.34, -95.98 78.35 M1.15 0.4 C-14.6 13.44, -77.34 67.1, -93.63 79.87" stroke="#1e1e1e" stroke-width="1" fill="none"></path></g><g transform="translate(670.919101197167 193.8526379462378) rotate(0 -47.41164712996442 40.13333421248035)"><path d="M-76.82 52.86 C-83.59 62.32, -87.8 73.77, -93.02 78.59 M-78.54 53.22 C-82.22 61.72, -87.6 70.4, -93.25 78.92" stroke="#1e1e1e" stroke-width="1" fill="none"></path></g><g transform="translate(670.919101197167 193.8526379462378) rotate(0 -47.41164712996442 40.13333421248035)"><path d="M-63.77 68.69 C-75.2 72.56, -83.97 78.48, -93.02 78.59 M-65.5 69.06 C-73.16 72.71, -82.49 76.6, -93.25 78.92" stroke="#1e1e1e" stroke-width="1" fill="none"></path></g></g><mask></mask></svg>