<svg xmlns="http://www.w3.org/2000/svg" xmlns:xlink="http://www.w3.org/1999/xlink" contentStyleType="text/css" height="1165px" preserveAspectRatio="none" style="width:1707px;height:1165px;background:#FFFFFF;" version="1.1" viewBox="0 0 1707 1165" width="1707px" zoomAndPan="magnify"><defs/><g><text fill="#000000" font-family="sans-serif" font-size="14" font-weight="bold" lengthAdjust="spacing" textLength="289" x="710.5" y="27.9951">EIP-7701 Complete Transaction Flow</text><rect fill="none" height="493.8594" style="stroke:#000000;stroke-width:1.5;" width="1051" x="223" y="269.125"/><rect fill="none" height="159.7969" style="stroke:#000000;stroke-width:1.5;" width="579" x="233" y="318.2578"/><rect fill="none" height="115.5313" style="stroke:#000000;stroke-width:1.5;" width="1031" x="233" y="615.4531"/><rect fill="none" height="290.9297" style="stroke:#000000;stroke-width:1.5;" width="1478" x="223" y="776.9844"/><rect fill="none" height="71.2656" style="stroke:#000000;stroke-width:1.5;" width="1279" x="233" y="964.6484"/><line style="stroke:#181818;stroke-width:0.5;stroke-dasharray:5.0,5.0;" x1="24" x2="24" y1="118.5938" y2="1084.9141"/><line style="stroke:#181818;stroke-width:0.5;stroke-dasharray:5.0,5.0;" x1="192" x2="192" y1="118.5938" y2="1084.9141"/><line style="stroke:#181818;stroke-width:0.5;stroke-dasharray:5.0,5.0;" x1="310" x2="310" y1="118.5938" y2="1084.9141"/><line style="stroke:#181818;stroke-width:0.5;stroke-dasharray:5.0,5.0;" x1="528" x2="528" y1="118.5938" y2="1084.9141"/><line style="stroke:#181818;stroke-width:0.5;stroke-dasharray:5.0,5.0;" x1="713" x2="713" y1="118.5938" y2="1084.9141"/><line style="stroke:#181818;stroke-width:0.5;stroke-dasharray:5.0,5.0;" x1="901" x2="901" y1="118.5938" y2="1084.9141"/><line style="stroke:#181818;stroke-width:0.5;stroke-dasharray:5.0,5.0;" x1="1127" x2="1127" y1="118.5938" y2="1084.9141"/><line style="stroke:#181818;stroke-width:0.5;stroke-dasharray:5.0,5.0;" x1="1383" x2="1383" y1="118.5938" y2="1084.9141"/><line style="stroke:#181818;stroke-width:0.5;stroke-dasharray:5.0,5.0;" x1="1601" x2="1601" y1="118.5938" y2="1084.9141"/><text fill="#000000" font-family="sans-serif" font-size="14" lengthAdjust="spacing" textLength="32" x="5" y="115.292">User</text><ellipse cx="24" cy="50.7969" fill="#E2E2F0" rx="8" ry="8" style="stroke:#181818;stroke-width:0.5;"/><path d="M24,58.7969 L24,85.7969 M11,66.7969 L37,66.7969 M24,85.7969 L11,100.7969 M24,85.7969 L37,100.7969 " fill="none" style="stroke:#181818;stroke-width:0.5;"/><text fill="#000000" font-family="sans-serif" font-size="14" lengthAdjust="spacing" textLength="32" x="5" y="1096.9092">User</text><ellipse cx="24" cy="1108.7109" fill="#E2E2F0" rx="8" ry="8" style="stroke:#181818;stroke-width:0.5;"/><path d="M24,1116.7109 L24,1143.7109 M11,1124.7109 L37,1124.7109 M24,1143.7109 L11,1158.7109 M24,1143.7109 L37,1158.7109 " fill="none" style="stroke:#181818;stroke-width:0.5;"/><rect fill="#006400" height="30.2969" rx="2.5" ry="2.5" style="stroke:#181818;stroke-width:0.5;" width="82" x="151" y="87.2969"/><text fill="#FFFFFF" font-family="sans-serif" font-size="14" lengthAdjust="spacing" textLength="68" x="158" y="107.292">Ethereum</text><rect fill="#006400" height="30.2969" rx="2.5" ry="2.5" style="stroke:#181818;stroke-width:0.5;" width="82" x="151" y="1083.9141"/><text fill="#FFFFFF" font-family="sans-serif" font-size="14" lengthAdjust="spacing" textLength="68" x="158" y="1103.9092">Ethereum</text><rect fill="#006400" height="30.2969" rx="2.5" ry="2.5" style="stroke:#181818;stroke-width:0.5;" width="135" x="243" y="87.2969"/><text fill="#FFFFFF" font-family="sans-serif" font-size="14" lengthAdjust="spacing" textLength="121" x="250" y="107.292">AA_ENTRY_POINT</text><rect fill="#006400" height="30.2969" rx="2.5" ry="2.5" style="stroke:#181818;stroke-width:0.5;" width="135" x="243" y="1083.9141"/><text fill="#FFFFFF" font-family="sans-serif" font-size="14" lengthAdjust="spacing" textLength="121" x="250" y="1103.9092">AA_ENTRY_POINT</text><rect fill="#483D8B" height="46.5938" rx="2.5" ry="2.5" style="stroke:#181818;stroke-width:0.5;" width="173" x="442" y="71"/><text fill="#FFFFFF" font-family="sans-serif" font-size="14" lengthAdjust="spacing" textLength="130" x="463.5" y="90.9951">Deployer Contract:</text><text fill="#FFFFFF" font-family="sans-serif" font-size="14" lengthAdjust="spacing" textLength="159" x="449" y="107.292">Deployer Code Section</text><rect fill="#483D8B" height="46.5938" rx="2.5" ry="2.5" style="stroke:#181818;stroke-width:0.5;" width="173" x="442" y="1083.9141"/><text fill="#FFFFFF" font-family="sans-serif" font-size="14" lengthAdjust="spacing" textLength="130" x="463.5" y="1103.9092">Deployer Contract:</text><text fill="#FFFFFF" font-family="sans-serif" font-size="14" lengthAdjust="spacing" textLength="159" x="449" y="1120.2061">Deployer Code Section</text><rect fill="#9932CC" height="46.5938" rx="2.5" ry="2.5" style="stroke:#181818;stroke-width:0.5;" width="177" x="625" y="71"/><text fill="#FFFFFF" font-family="sans-serif" font-size="14" lengthAdjust="spacing" textLength="118" x="654.5" y="90.9951">Sender Contract:</text><text fill="#FFFFFF" font-family="sans-serif" font-size="14" lengthAdjust="spacing" textLength="163" x="632" y="107.292">Validation Code Section</text><rect fill="#9932CC" height="46.5938" rx="2.5" ry="2.5" style="stroke:#181818;stroke-width:0.5;" width="177" x="625" y="1083.9141"/><text fill="#FFFFFF" font-family="sans-serif" font-size="14" lengthAdjust="spacing" textLength="118" x="654.5" y="1103.9092">Sender Contract:</text><text fill="#FFFFFF" font-family="sans-serif" font-size="14" lengthAdjust="spacing" textLength="163" x="632" y="1120.2061">Validation Code Section</text><rect fill="#800080" height="46.5938" rx="2.5" ry="2.5" style="stroke:#181818;stroke-width:0.5;" width="179" x="812" y="71"/><text fill="#FFFFFF" font-family="sans-serif" font-size="14" lengthAdjust="spacing" textLength="118" x="842.5" y="90.9951">Sender Contract:</text><text fill="#FFFFFF" font-family="sans-serif" font-size="14" lengthAdjust="spacing" textLength="165" x="819" y="107.292">Execution Code Section</text><rect fill="#800080" height="46.5938" rx="2.5" ry="2.5" style="stroke:#181818;stroke-width:0.5;" width="179" x="812" y="1083.9141"/><text fill="#FFFFFF" font-family="sans-serif" font-size="14" lengthAdjust="spacing" textLength="118" x="842.5" y="1103.9092">Sender Contract:</text><text fill="#FFFFFF" font-family="sans-serif" font-size="14" lengthAdjust="spacing" textLength="165" x="819" y="1120.2061">Execution Code Section</text><rect fill="#6B8E23" height="46.5938" rx="2.5" ry="2.5" style="stroke:#181818;stroke-width:0.5;" width="253" x="1001" y="71"/><text fill="#FFFFFF" font-family="sans-serif" font-size="14" lengthAdjust="spacing" textLength="140" x="1057.5" y="90.9951">Paymaster Contract:</text><text fill="#FFFFFF" font-family="sans-serif" font-size="14" lengthAdjust="spacing" textLength="239" x="1008" y="107.292">Paymaster Validation Code Section</text><rect fill="#6B8E23" height="46.5938" rx="2.5" ry="2.5" style="stroke:#181818;stroke-width:0.5;" width="253" x="1001" y="1083.9141"/><text fill="#FFFFFF" font-family="sans-serif" font-size="14" lengthAdjust="spacing" textLength="140" x="1057.5" y="1103.9092">Paymaster Contract:</text><text fill="#FFFFFF" font-family="sans-serif" font-size="14" lengthAdjust="spacing" textLength="239" x="1008" y="1120.2061">Paymaster Validation Code Section</text><rect fill="#808000" height="46.5938" rx="2.5" ry="2.5" style="stroke:#181818;stroke-width:0.5;" width="238" x="1264" y="71"/><text fill="#FFFFFF" font-family="sans-serif" font-size="14" lengthAdjust="spacing" textLength="140" x="1313" y="90.9951">Paymaster Contract:</text><text fill="#FFFFFF" font-family="sans-serif" font-size="14" lengthAdjust="spacing" textLength="224" x="1271" y="107.292">Paymaster PostOp Code Section</text><rect fill="#808000" height="46.5938" rx="2.5" ry="2.5" style="stroke:#181818;stroke-width:0.5;" width="238" x="1264" y="1083.9141"/><text fill="#FFFFFF" font-family="sans-serif" font-size="14" lengthAdjust="spacing" textLength="140" x="1313" y="1103.9092">Paymaster Contract:</text><text fill="#FFFFFF" font-family="sans-serif" font-size="14" lengthAdjust="spacing" textLength="224" x="1271" y="1120.2061">Paymaster PostOp Code Section</text><rect fill="#8B0000" height="46.5938" rx="2.5" ry="2.5" style="stroke:#181818;stroke-width:0.5;" width="179" x="1512" y="71"/><text fill="#FFFFFF" font-family="sans-serif" font-size="14" lengthAdjust="spacing" textLength="113" x="1545" y="90.9951">Target Contract:</text><text fill="#FFFFFF" font-family="sans-serif" font-size="14" lengthAdjust="spacing" textLength="165" x="1519" y="107.292">Execution Code Section</text><rect fill="#8B0000" height="46.5938" rx="2.5" ry="2.5" style="stroke:#181818;stroke-width:0.5;" width="179" x="1512" y="1083.9141"/><text fill="#FFFFFF" font-family="sans-serif" font-size="14" lengthAdjust="spacing" textLength="113" x="1545" y="1103.9092">Target Contract:</text><text fill="#FFFFFF" font-family="sans-serif" font-size="14" lengthAdjust="spacing" textLength="165" x="1519" y="1120.2061">Execution Code Section</text><polygon fill="#181818" points="180,145.7266,190,149.7266,180,153.7266,184,149.7266" style="stroke:#181818;stroke-width:1.0;"/><line style="stroke:#181818;stroke-width:1.0;" x1="24" x2="186" y1="149.7266" y2="149.7266"/><text fill="#000000" font-family="sans-serif" font-size="13" lengthAdjust="spacing" textLength="144" x="31" y="144.6606">Submit AA transaction</text><path d="M197,162.7266 L197,217.7266 L315,217.7266 L315,172.7266 L305,162.7266 L197,162.7266 " fill="#FEFFDD" style="stroke:#181818;stroke-width:0.5;"/><path d="M305,162.7266 L305,172.7266 L315,172.7266 L305,162.7266 " fill="#FEFFDD" style="stroke:#181818;stroke-width:0.5;"/><text fill="#000000" font-family="sans-serif" font-size="13" lengthAdjust="spacing" textLength="51" x="203" y="179.7935">execute</text><text fill="#000000" font-family="sans-serif" font-size="13" lengthAdjust="spacing" textLength="94" x="203" y="194.9263">AA transaction</text><text fill="#000000" font-family="sans-serif" font-size="13" lengthAdjust="spacing" textLength="97" x="203" y="210.0591">state transition</text><polygon fill="#181818" points="298.5,225.125,308.5,229.125,298.5,233.125,302.5,229.125" style="stroke:#181818;stroke-width:1.0;"/><line style="stroke:#181818;stroke-width:1.0;" x1="192" x2="304.5" y1="229.125" y2="229.125"/><path d="M223,269.125 L392,269.125 L392,276.2578 L382,286.2578 L223,286.2578 L223,269.125 " fill="#EEEEEE" style="stroke:#000000;stroke-width:1.5;"/><rect fill="none" height="493.8594" style="stroke:#000000;stroke-width:1.5;" width="1051" x="223" y="269.125"/><text fill="#000000" font-family="sans-serif" font-size="13" font-weight="bold" lengthAdjust="spacing" textLength="124" x="238" y="282.1919">Validation Phase</text><path d="M233,318.2578 L303,318.2578 L303,325.3906 L293,335.3906 L233,335.3906 L233,318.2578 " fill="#EEEEEE" style="stroke:#000000;stroke-width:1.5;"/><rect fill="none" height="159.7969" style="stroke:#000000;stroke-width:1.5;" width="579" x="233" y="318.2578"/><text fill="#000000" font-family="sans-serif" font-size="13" font-weight="bold" lengthAdjust="spacing" textLength="25" x="248" y="331.3247">opt</text><text fill="#000000" font-family="sans-serif" font-size="11" font-weight="bold" lengthAdjust="spacing" textLength="135" x="318" y="330.4683">[Sender Deployment]</text><polygon fill="#181818" points="516.5,367.6563,526.5,371.6563,516.5,375.6563,520.5,371.6563" style="stroke:#181818;stroke-width:1.0;"/><line style="stroke:#181818;stroke-width:1.0;" x1="310.5" x2="522.5" y1="371.6563" y2="371.6563"/><text fill="#000000" font-family="sans-serif" font-size="13" lengthAdjust="spacing" textLength="194" x="317.5" y="351.4575">Deploy AA Transaction Sender</text><text fill="#000000" font-family="monospace" font-size="13" lengthAdjust="spacing" textLength="96" x="317.5" y="366.5903">deployerData</text><polygon fill="#181818" points="701.5,411.9219,711.5,415.9219,701.5,419.9219,705.5,415.9219" style="stroke:#181818;stroke-width:1.0;"/><line style="stroke:#181818;stroke-width:1.0;" x1="528.5" x2="707.5" y1="415.9219" y2="415.9219"/><text fill="#000000" font-family="sans-serif" font-size="13" lengthAdjust="spacing" textLength="153" x="535.5" y="395.7231">Deploy Sender Contract</text><text fill="#000000" font-family="monospace" font-size="13" lengthAdjust="spacing" textLength="56" x="535.5" y="410.856">CREATE2</text><polygon fill="#181818" points="321.5,441.0547,311.5,445.0547,321.5,449.0547,317.5,445.0547" style="stroke:#181818;stroke-width:1.0;"/><line style="stroke:#181818;stroke-width:1.0;stroke-dasharray:2.0,2.0;" x1="315.5" x2="527.5" y1="445.0547" y2="445.0547"/><text fill="#000000" font-family="sans-serif" font-size="13" lengthAdjust="spacing" textLength="92" x="327.5" y="439.9888">deployed: true</text><polygon fill="#181818" points="701.5,542.3203,711.5,546.3203,701.5,550.3203,705.5,546.3203" style="stroke:#181818;stroke-width:1.0;"/><line style="stroke:#181818;stroke-width:1.0;" x1="310.5" x2="707.5" y1="546.3203" y2="546.3203"/><text fill="#000000" font-family="sans-serif" font-size="13" lengthAdjust="spacing" textLength="152" x="317.5" y="526.1216">Validate AA Transaction</text><text fill="#000000" font-family="monospace" font-size="13" lengthAdjust="spacing" textLength="160" x="317.5" y="541.2544">senderValidationData</text><polygon fill="#181818" points="321.5,571.4531,311.5,575.4531,321.5,579.4531,317.5,575.4531" style="stroke:#181818;stroke-width:1.0;"/><line style="stroke:#181818;stroke-width:1.0;stroke-dasharray:2.0,2.0;" x1="315.5" x2="712.5" y1="575.4531" y2="575.4531"/><text fill="#000000" font-family="sans-serif" font-size="13" lengthAdjust="spacing" textLength="63" x="327.5" y="570.3872">valid: true</text><path d="M233,615.4531 L303,615.4531 L303,622.5859 L293,632.5859 L233,632.5859 L233,615.4531 " fill="#EEEEEE" style="stroke:#000000;stroke-width:1.5;"/><rect fill="none" height="115.5313" style="stroke:#000000;stroke-width:1.5;" width="1031" x="233" y="615.4531"/><text fill="#000000" font-family="sans-serif" font-size="13" font-weight="bold" lengthAdjust="spacing" textLength="25" x="248" y="628.52">opt</text><text fill="#000000" font-family="sans-serif" font-size="11" font-weight="bold" lengthAdjust="spacing" textLength="111" x="318" y="627.6636">[Gas Abstraction]</text><polygon fill="#181818" points="1115.5,664.8516,1125.5,668.8516,1115.5,672.8516,1119.5,668.8516" style="stroke:#181818;stroke-width:1.0;"/><line style="stroke:#181818;stroke-width:1.0;" x1="310.5" x2="1121.5" y1="668.8516" y2="668.8516"/><text fill="#000000" font-family="sans-serif" font-size="13" lengthAdjust="spacing" textLength="152" x="317.5" y="648.6528">Validate AA Transaction</text><text fill="#000000" font-family="monospace" font-size="13" lengthAdjust="spacing" textLength="104" x="317.5" y="663.7856">paymasterData</text><polygon fill="#181818" points="321.5,693.9844,311.5,697.9844,321.5,701.9844,317.5,697.9844" style="stroke:#181818;stroke-width:1.0;"/><line style="stroke:#181818;stroke-width:1.0;stroke-dasharray:2.0,2.0;" x1="315.5" x2="1126.5" y1="697.9844" y2="697.9844"/><text fill="#000000" font-family="sans-serif" font-size="13" lengthAdjust="spacing" textLength="63" x="327.5" y="692.9185">valid: true</text><path d="M223,776.9844 L389,776.9844 L389,784.1172 L379,794.1172 L223,794.1172 L223,776.9844 " fill="#EEEEEE" style="stroke:#000000;stroke-width:1.5;"/><rect fill="none" height="290.9297" style="stroke:#000000;stroke-width:1.5;" width="1478" x="223" y="776.9844"/><text fill="#000000" font-family="sans-serif" font-size="13" font-weight="bold" lengthAdjust="spacing" textLength="121" x="238" y="790.0513">Execution Phase</text><polygon fill="#181818" points="889.5,851.3828,899.5,855.3828,889.5,859.3828,893.5,855.3828" style="stroke:#181818;stroke-width:1.0;"/><line style="stroke:#181818;stroke-width:1.0;" x1="310.5" x2="895.5" y1="855.3828" y2="855.3828"/><text fill="#000000" font-family="sans-serif" font-size="13" lengthAdjust="spacing" textLength="151" x="317.5" y="835.1841">Execute AA Transaction</text><text fill="#000000" font-family="monospace" font-size="13" lengthAdjust="spacing" textLength="152" x="317.5" y="850.3169">senderExecutionData</text><polygon fill="#181818" points="1589.5,920.6484,1599.5,924.6484,1589.5,928.6484,1593.5,924.6484" style="stroke:#181818;stroke-width:1.0;"/><line style="stroke:#181818;stroke-width:1.0;" x1="901.5" x2="1595.5" y1="924.6484" y2="924.6484"/><text fill="#000000" font-family="sans-serif" font-size="13" lengthAdjust="spacing" textLength="96" x="908.5" y="904.4497">AA Transaction</text><text fill="#000000" font-family="sans-serif" font-size="13" lengthAdjust="spacing" textLength="98" x="908.5" y="919.5825">Execution Body</text><path d="M233,964.6484 L303,964.6484 L303,971.7813 L293,981.7813 L233,981.7813 L233,964.6484 " fill="#EEEEEE" style="stroke:#000000;stroke-width:1.5;"/><rect fill="none" height="71.2656" style="stroke:#000000;stroke-width:1.5;" width="1279" x="233" y="964.6484"/><text fill="#000000" font-family="sans-serif" font-size="13" font-weight="bold" lengthAdjust="spacing" textLength="25" x="248" y="977.7153">opt</text><text fill="#000000" font-family="sans-serif" font-size="11" font-weight="bold" lengthAdjust="spacing" textLength="56" x="318" y="976.8589">[PostOp]</text><polygon fill="#181818" points="1371,998.9141,1381,1002.9141,1371,1006.9141,1375,1002.9141" style="stroke:#181818;stroke-width:1.0;"/><line style="stroke:#181818;stroke-width:1.0;" x1="310.5" x2="1377" y1="1002.9141" y2="1002.9141"/><text fill="#000000" font-family="sans-serif" font-size="13" lengthAdjust="spacing" textLength="146" x="317.5" y="997.8481">Paymaster PostOp Call</text><!--SRC=[bPDDYzim48Rl-XN2FHlQNXPy2BYEj-nbrspSXK9WKU9f8bQMZ3JUDf0VNtquyLUIRIys7iyyyyxe5N8KGFE78hwx-_o5Pgfk123GKZDfs1QvalHUgD-4s0-bQVJ3W8w8UUEoOPhLr3wHRtd39DuhYPaIDekrg6fcusJmcqOvxa53MqVqKyNqsqu3o756chxcZ-NppzVYwU6nl9wtX4Qe0sWhMAAsqfAr7CGge2lmuYFA35rcosmLM4OmX8reOSnRWQp6j1ScUCNy_3FUAdivyPJUxddr4Ip_0zls6YjthARLTl5ZJi4EDJCuHlN1MmgBhF0IbU3lK6cs-IzoeGm-DHUfnPaw9fPCxm3_SUOopEpsfw4Y99YAnek1HHAwQZSrHvgc57ip4gciEpNVxP6gNwDyy0rXBSSLQsdGdda8SSyO6D7rd9WkeUHuF1AoqwfjXbikzio0_wSQfDqf1zVL895CGV726o_fSjmamsiL06iPHLNdt2L35aKasDKgypuxbqzivGgpvpmjyw-dcZXUp8Rfs5LY5z06zPRZttEzNSDkPfWeTXsD5z4lfPEi0LijwRkB3phvHNst9vvkZ1Vjjpzh6znwiszpCkVjXgVHtBixmDw7_VbTcZnt2aBozS7Fi4w6W_dIU546mhIoR_zDLOUpUxehTdaPXGFDhoCJOZhaNm00]--></g></svg>