<svg xmlns="http://www.w3.org/2000/svg" xmlns:xlink="http://www.w3.org/1999/xlink" contentStyleType="text/css" height="1341px" preserveAspectRatio="none" style="width:1076px;height:1341px;background:#FFFFFF;" version="1.1" viewBox="0 0 1076 1341" width="1076px" zoomAndPan="magnify"><defs/><g><text fill="#000000" font-family="sans-serif" font-size="14" font-weight="bold" lengthAdjust="spacing" textLength="289" x="395" y="27.9951">EIP-7701 Complete Transaction Flow</text><rect fill="none" height="599.2578" style="stroke:#000000;stroke-width:1.5;" width="725" x="223" y="269.125"/><rect fill="none" height="194.9297" style="stroke:#000000;stroke-width:1.5;" width="546" x="233" y="318.2578"/><rect fill="none" height="150.6641" style="stroke:#000000;stroke-width:1.5;" width="705" x="233" y="685.7188"/><rect fill="none" height="361.1953" style="stroke:#000000;stroke-width:1.5;" width="847" x="223" y="882.3828"/><rect fill="none" height="106.3984" style="stroke:#000000;stroke-width:1.5;" width="705" x="233" y="1105.1797"/><line style="stroke:#181818;stroke-width:0.5;stroke-dasharray:5.0,5.0;" x1="24" x2="24" y1="118.5938" y2="1260.5781"/><line style="stroke:#181818;stroke-width:0.5;stroke-dasharray:5.0,5.0;" x1="192" x2="192" y1="118.5938" y2="1260.5781"/><line style="stroke:#181818;stroke-width:0.5;stroke-dasharray:5.0,5.0;" x1="310" x2="310" y1="118.5938" y2="1260.5781"/><line style="stroke:#181818;stroke-width:0.5;stroke-dasharray:5.0,5.0;" x1="528" x2="528" y1="118.5938" y2="1260.5781"/><line style="stroke:#181818;stroke-width:0.5;stroke-dasharray:5.0,5.0;" x1="705" x2="705" y1="118.5938" y2="1260.5781"/><line style="stroke:#181818;stroke-width:0.5;stroke-dasharray:5.0,5.0;" x1="853" x2="853" y1="118.5938" y2="1260.5781"/><line style="stroke:#181818;stroke-width:0.5;stroke-dasharray:5.0,5.0;" x1="999" x2="999" y1="118.5938" y2="1260.5781"/><text fill="#000000" font-family="sans-serif" font-size="14" lengthAdjust="spacing" textLength="32" x="5" y="115.292">User</text><ellipse cx="24" cy="50.7969" fill="#E2E2F0" rx="8" ry="8" style="stroke:#181818;stroke-width:0.5;"/><path d="M24,58.7969 L24,85.7969 M11,66.7969 L37,66.7969 M24,85.7969 L11,100.7969 M24,85.7969 L37,100.7969 " fill="none" style="stroke:#181818;stroke-width:0.5;"/><text fill="#000000" font-family="sans-serif" font-size="14" lengthAdjust="spacing" textLength="32" x="5" y="1272.5732">User</text><ellipse cx="24" cy="1284.375" fill="#E2E2F0" rx="8" ry="8" style="stroke:#181818;stroke-width:0.5;"/><path d="M24,1292.375 L24,1319.375 M11,1300.375 L37,1300.375 M24,1319.375 L11,1334.375 M24,1319.375 L37,1334.375 " fill="none" style="stroke:#181818;stroke-width:0.5;"/><rect fill="#006400" height="30.2969" rx="2.5" ry="2.5" style="stroke:#181818;stroke-width:0.5;" width="82" x="151" y="87.2969"/><text fill="#FFFFFF" font-family="sans-serif" font-size="14" lengthAdjust="spacing" textLength="68" x="158" y="107.292">Ethereum</text><rect fill="#006400" height="30.2969" rx="2.5" ry="2.5" style="stroke:#181818;stroke-width:0.5;" width="82" x="151" y="1259.5781"/><text fill="#FFFFFF" font-family="sans-serif" font-size="14" lengthAdjust="spacing" textLength="68" x="158" y="1279.5732">Ethereum</text><rect fill="#006400" height="30.2969" rx="2.5" ry="2.5" style="stroke:#181818;stroke-width:0.5;" width="135" x="243" y="87.2969"/><text fill="#FFFFFF" font-family="sans-serif" font-size="14" lengthAdjust="spacing" textLength="121" x="250" y="107.292">AA_ENTRY_POINT</text><rect fill="#006400" height="30.2969" rx="2.5" ry="2.5" style="stroke:#181818;stroke-width:0.5;" width="135" x="243" y="1259.5781"/><text fill="#FFFFFF" font-family="sans-serif" font-size="14" lengthAdjust="spacing" textLength="121" x="250" y="1279.5732">AA_ENTRY_POINT</text><rect fill="#483D8B" height="30.2969" rx="2.5" ry="2.5" style="stroke:#181818;stroke-width:0.5;" width="139" x="459" y="87.2969"/><text fill="#FFFFFF" font-family="sans-serif" font-size="14" lengthAdjust="spacing" textLength="125" x="466" y="107.292">Deployer Contract</text><rect fill="#483D8B" height="30.2969" rx="2.5" ry="2.5" style="stroke:#181818;stroke-width:0.5;" width="139" x="459" y="1259.5781"/><text fill="#FFFFFF" font-family="sans-serif" font-size="14" lengthAdjust="spacing" textLength="125" x="466" y="1279.5732">Deployer Contract</text><rect fill="#9932CC" height="30.2969" rx="2.5" ry="2.5" style="stroke:#181818;stroke-width:0.5;" width="127" x="642" y="87.2969"/><text fill="#FFFFFF" font-family="sans-serif" font-size="14" lengthAdjust="spacing" textLength="113" x="649" y="107.292">Sender Contract</text><rect fill="#9932CC" height="30.2969" rx="2.5" ry="2.5" style="stroke:#181818;stroke-width:0.5;" width="127" x="642" y="1259.5781"/><text fill="#FFFFFF" font-family="sans-serif" font-size="14" lengthAdjust="spacing" textLength="113" x="649" y="1279.5732">Sender Contract</text><rect fill="#6B8E23" height="30.2969" rx="2.5" ry="2.5" style="stroke:#181818;stroke-width:0.5;" width="149" x="779" y="87.2969"/><text fill="#FFFFFF" font-family="sans-serif" font-size="14" lengthAdjust="spacing" textLength="135" x="786" y="107.292">Paymaster Contract</text><rect fill="#6B8E23" height="30.2969" rx="2.5" ry="2.5" style="stroke:#181818;stroke-width:0.5;" width="149" x="779" y="1259.5781"/><text fill="#FFFFFF" font-family="sans-serif" font-size="14" lengthAdjust="spacing" textLength="135" x="786" y="1279.5732">Paymaster Contract</text><rect fill="#8B0000" height="30.2969" rx="2.5" ry="2.5" style="stroke:#181818;stroke-width:0.5;" width="122" x="938" y="87.2969"/><text fill="#FFFFFF" font-family="sans-serif" font-size="14" lengthAdjust="spacing" textLength="108" x="945" y="107.292">Target Contract</text><rect fill="#8B0000" height="30.2969" rx="2.5" ry="2.5" style="stroke:#181818;stroke-width:0.5;" width="122" x="938" y="1259.5781"/><text fill="#FFFFFF" font-family="sans-serif" font-size="14" lengthAdjust="spacing" textLength="108" x="945" y="1279.5732">Target Contract</text><polygon fill="#181818" points="180,145.7266,190,149.7266,180,153.7266,184,149.7266" style="stroke:#181818;stroke-width:1.0;"/><line style="stroke:#181818;stroke-width:1.0;" x1="24" x2="186" y1="149.7266" y2="149.7266"/><text fill="#000000" font-family="sans-serif" font-size="13" lengthAdjust="spacing" textLength="144" x="31" y="144.6606">Submit AA transaction</text><path d="M197,162.7266 L197,217.7266 L315,217.7266 L315,172.7266 L305,162.7266 L197,162.7266 " fill="#FEFFDD" style="stroke:#181818;stroke-width:0.5;"/><path d="M305,162.7266 L305,172.7266 L315,172.7266 L305,162.7266 " fill="#FEFFDD" style="stroke:#181818;stroke-width:0.5;"/><text fill="#000000" font-family="sans-serif" font-size="13" lengthAdjust="spacing" textLength="51" x="203" y="179.7935">execute</text><text fill="#000000" font-family="sans-serif" font-size="13" lengthAdjust="spacing" textLength="94" x="203" y="194.9263">AA transaction</text><text fill="#000000" font-family="sans-serif" font-size="13" lengthAdjust="spacing" textLength="97" x="203" y="210.0591">state transition</text><polygon fill="#181818" points="298.5,225.125,308.5,229.125,298.5,233.125,302.5,229.125" style="stroke:#181818;stroke-width:1.0;"/><line style="stroke:#181818;stroke-width:1.0;" x1="192" x2="304.5" y1="229.125" y2="229.125"/><path d="M223,269.125 L392,269.125 L392,276.2578 L382,286.2578 L223,286.2578 L223,269.125 " fill="#EEEEEE" style="stroke:#000000;stroke-width:1.5;"/><rect fill="none" height="599.2578" style="stroke:#000000;stroke-width:1.5;" width="725" x="223" y="269.125"/><text fill="#000000" font-family="sans-serif" font-size="13" font-weight="bold" lengthAdjust="spacing" textLength="124" x="238" y="282.1919">Validation Phase</text><path d="M233,318.2578 L303,318.2578 L303,325.3906 L293,335.3906 L233,335.3906 L233,318.2578 " fill="#EEEEEE" style="stroke:#000000;stroke-width:1.5;"/><rect fill="none" height="194.9297" style="stroke:#000000;stroke-width:1.5;" width="546" x="233" y="318.2578"/><text fill="#000000" font-family="sans-serif" font-size="13" font-weight="bold" lengthAdjust="spacing" textLength="25" x="248" y="331.3247">opt</text><text fill="#000000" font-family="sans-serif" font-size="11" font-weight="bold" lengthAdjust="spacing" textLength="135" x="318" y="330.4683">[Sender Deployment]</text><polygon fill="#181818" points="516.5,367.6563,526.5,371.6563,516.5,375.6563,520.5,371.6563" style="stroke:#181818;stroke-width:1.0;"/><line style="stroke:#181818;stroke-width:1.0;" x1="310.5" x2="522.5" y1="371.6563" y2="371.6563"/><text fill="#000000" font-family="sans-serif" font-size="13" lengthAdjust="spacing" textLength="194" x="317.5" y="351.4575">Deploy AA Transaction Sender</text><text fill="#000000" font-family="monospace" font-size="13" lengthAdjust="spacing" textLength="96" x="317.5" y="366.5903">deployerData</text><path d="M458,384.6563 L458,409.6563 L599,409.6563 L599,394.6563 L589,384.6563 L458,384.6563 " fill="#FEFFDD" style="stroke:#181818;stroke-width:0.5;"/><path d="M589,384.6563 L589,394.6563 L599,394.6563 L589,384.6563 " fill="#FEFFDD" style="stroke:#181818;stroke-width:0.5;"/><text fill="#000000" font-family="monospace" font-size="13" lengthAdjust="spacing" textLength="120" x="464" y="401.7231">ACCEPTROLE&#160;0xA0</text><polygon fill="#181818" points="693.5,447.0547,703.5,451.0547,693.5,455.0547,697.5,451.0547" style="stroke:#181818;stroke-width:1.0;"/><line style="stroke:#181818;stroke-width:1.0;" x1="528.5" x2="699.5" y1="451.0547" y2="451.0547"/><text fill="#000000" font-family="sans-serif" font-size="13" lengthAdjust="spacing" textLength="153" x="535.5" y="430.856">Deploy Sender Contract</text><text fill="#000000" font-family="monospace" font-size="13" lengthAdjust="spacing" textLength="56" x="535.5" y="445.9888">CREATE2</text><polygon fill="#181818" points="321.5,476.1875,311.5,480.1875,321.5,484.1875,317.5,480.1875" style="stroke:#181818;stroke-width:1.0;"/><line style="stroke:#181818;stroke-width:1.0;stroke-dasharray:2.0,2.0;" x1="315.5" x2="527.5" y1="480.1875" y2="480.1875"/><text fill="#000000" font-family="sans-serif" font-size="13" lengthAdjust="spacing" textLength="92" x="327.5" y="475.1216">deployed: true</text><polygon fill="#181818" points="693.5,577.4531,703.5,581.4531,693.5,585.4531,697.5,581.4531" style="stroke:#181818;stroke-width:1.0;"/><line style="stroke:#181818;stroke-width:1.0;" x1="310.5" x2="699.5" y1="581.4531" y2="581.4531"/><text fill="#000000" font-family="sans-serif" font-size="13" lengthAdjust="spacing" textLength="152" x="317.5" y="561.2544">Validate AA Transaction</text><text fill="#000000" font-family="monospace" font-size="13" lengthAdjust="spacing" textLength="160" x="317.5" y="576.3872">senderValidationData</text><path d="M635,594.4531 L635,619.4531 L776,619.4531 L776,604.4531 L766,594.4531 L635,594.4531 " fill="#FEFFDD" style="stroke:#181818;stroke-width:0.5;"/><path d="M766,594.4531 L766,604.4531 L776,604.4531 L766,594.4531 " fill="#FEFFDD" style="stroke:#181818;stroke-width:0.5;"/><text fill="#000000" font-family="monospace" font-size="13" lengthAdjust="spacing" textLength="120" x="641" y="611.52">ACCEPTROLE&#160;0xA1</text><polygon fill="#181818" points="321.5,641.7188,311.5,645.7188,321.5,649.7188,317.5,645.7188" style="stroke:#181818;stroke-width:1.0;"/><line style="stroke:#181818;stroke-width:1.0;stroke-dasharray:2.0,2.0;" x1="315.5" x2="704.5" y1="645.7188" y2="645.7188"/><text fill="#000000" font-family="sans-serif" font-size="13" lengthAdjust="spacing" textLength="63" x="327.5" y="640.6528">valid: true</text><path d="M233,685.7188 L303,685.7188 L303,692.8516 L293,702.8516 L233,702.8516 L233,685.7188 " fill="#EEEEEE" style="stroke:#000000;stroke-width:1.5;"/><rect fill="none" height="150.6641" style="stroke:#000000;stroke-width:1.5;" width="705" x="233" y="685.7188"/><text fill="#000000" font-family="sans-serif" font-size="13" font-weight="bold" lengthAdjust="spacing" textLength="25" x="248" y="698.7856">opt</text><text fill="#000000" font-family="sans-serif" font-size="11" font-weight="bold" lengthAdjust="spacing" textLength="111" x="318" y="697.9292">[Gas Abstraction]</text><polygon fill="#181818" points="841.5,735.1172,851.5,739.1172,841.5,743.1172,845.5,739.1172" style="stroke:#181818;stroke-width:1.0;"/><line style="stroke:#181818;stroke-width:1.0;" x1="310.5" x2="847.5" y1="739.1172" y2="739.1172"/><text fill="#000000" font-family="sans-serif" font-size="13" lengthAdjust="spacing" textLength="152" x="317.5" y="718.9185">Validate AA Transaction</text><text fill="#000000" font-family="monospace" font-size="13" lengthAdjust="spacing" textLength="104" x="317.5" y="734.0513">paymasterData</text><path d="M783,752.1172 L783,777.1172 L924,777.1172 L924,762.1172 L914,752.1172 L783,752.1172 " fill="#FEFFDD" style="stroke:#181818;stroke-width:0.5;"/><path d="M914,752.1172 L914,762.1172 L924,762.1172 L914,752.1172 " fill="#FEFFDD" style="stroke:#181818;stroke-width:0.5;"/><text fill="#000000" font-family="monospace" font-size="13" lengthAdjust="spacing" textLength="120" x="789" y="769.1841">ACCEPTROLE&#160;0xA2</text><polygon fill="#181818" points="321.5,799.3828,311.5,803.3828,321.5,807.3828,317.5,803.3828" style="stroke:#181818;stroke-width:1.0;"/><line style="stroke:#181818;stroke-width:1.0;stroke-dasharray:2.0,2.0;" x1="315.5" x2="852.5" y1="803.3828" y2="803.3828"/><text fill="#000000" font-family="sans-serif" font-size="13" lengthAdjust="spacing" textLength="63" x="327.5" y="798.3169">valid: true</text><path d="M223,882.3828 L389,882.3828 L389,889.5156 L379,899.5156 L223,899.5156 L223,882.3828 " fill="#EEEEEE" style="stroke:#000000;stroke-width:1.5;"/><rect fill="none" height="361.1953" style="stroke:#000000;stroke-width:1.5;" width="847" x="223" y="882.3828"/><text fill="#000000" font-family="sans-serif" font-size="13" font-weight="bold" lengthAdjust="spacing" textLength="121" x="238" y="895.4497">Execution Phase</text><polygon fill="#181818" points="693.5,956.7813,703.5,960.7813,693.5,964.7813,697.5,960.7813" style="stroke:#181818;stroke-width:1.0;"/><line style="stroke:#181818;stroke-width:1.0;" x1="310.5" x2="699.5" y1="960.7813" y2="960.7813"/><text fill="#000000" font-family="sans-serif" font-size="13" lengthAdjust="spacing" textLength="151" x="317.5" y="940.5825">Execute AA Transaction</text><text fill="#000000" font-family="monospace" font-size="13" lengthAdjust="spacing" textLength="152" x="317.5" y="955.7153">senderExecutionData</text><path d="M635,973.7813 L635,998.7813 L776,998.7813 L776,983.7813 L766,973.7813 L635,973.7813 " fill="#FEFFDD" style="stroke:#181818;stroke-width:0.5;"/><path d="M766,973.7813 L766,983.7813 L776,983.7813 L766,973.7813 " fill="#FEFFDD" style="stroke:#181818;stroke-width:0.5;"/><text fill="#000000" font-family="monospace" font-size="13" lengthAdjust="spacing" textLength="120" x="641" y="990.8481">ACCEPTROLE&#160;0xA3</text><polygon fill="#181818" points="987,1061.1797,997,1065.1797,987,1069.1797,991,1065.1797" style="stroke:#181818;stroke-width:1.0;"/><line style="stroke:#181818;stroke-width:1.0;" x1="705.5" x2="993" y1="1065.1797" y2="1065.1797"/><text fill="#000000" font-family="sans-serif" font-size="13" lengthAdjust="spacing" textLength="96" x="712.5" y="1044.981">AA Transaction</text><text fill="#000000" font-family="sans-serif" font-size="13" lengthAdjust="spacing" textLength="98" x="712.5" y="1060.1138">Execution Body</text><path d="M233,1105.1797 L303,1105.1797 L303,1112.3125 L293,1122.3125 L233,1122.3125 L233,1105.1797 " fill="#EEEEEE" style="stroke:#000000;stroke-width:1.5;"/><rect fill="none" height="106.3984" style="stroke:#000000;stroke-width:1.5;" width="705" x="233" y="1105.1797"/><text fill="#000000" font-family="sans-serif" font-size="13" font-weight="bold" lengthAdjust="spacing" textLength="25" x="248" y="1118.2466">opt</text><text fill="#000000" font-family="sans-serif" font-size="11" font-weight="bold" lengthAdjust="spacing" textLength="56" x="318" y="1117.3901">[PostOp]</text><polygon fill="#181818" points="841.5,1139.4453,851.5,1143.4453,841.5,1147.4453,845.5,1143.4453" style="stroke:#181818;stroke-width:1.0;"/><line style="stroke:#181818;stroke-width:1.0;" x1="310.5" x2="847.5" y1="1143.4453" y2="1143.4453"/><text fill="#000000" font-family="sans-serif" font-size="13" lengthAdjust="spacing" textLength="146" x="317.5" y="1138.3794">Paymaster PostOp Call</text><path d="M783,1156.4453 L783,1181.4453 L924,1181.4453 L924,1166.4453 L914,1156.4453 L783,1156.4453 " fill="#FEFFDD" style="stroke:#181818;stroke-width:0.5;"/><path d="M914,1156.4453 L914,1166.4453 L924,1166.4453 L914,1156.4453 " fill="#FEFFDD" style="stroke:#181818;stroke-width:0.5;"/><text fill="#000000" font-family="monospace" font-size="13" lengthAdjust="spacing" textLength="120" x="789" y="1173.5122">ACCEPTROLE&#160;0xA4</text><!--SRC=[ZLDTQzj047o_Nx5SdWLEMWZumQ3AIWYKM5XgeM08Psjh7pdTYRkL6uD_V4yVYINPJliYeRkPtPdP5KbI2F5J4jpVJsuXCaMfa10oAxGJ6v96muCoVnZp7yO2_-7GSkPUfIw55GNu9ycDB8Mc1wCfCigZH4Mc4FwSzQw1nxH3YrN1uIONzdLh4VKG4OOlyNEs_FMIB9wUi-kuEPRA7D1wmPgibyP1E9X7BS4fGRXM5Gv9AUfyJ4axYh6RdSo7-4GS2k5eJ4aynIYvnzoAzP2H2Rj56iApheF5dB4sFWXclJ2ca5RhGXA48T0fTgQDduELsns1-Jt0unjkAiAL7Z9Msf4ttXx9faOlyhhdADufiEFnoDZMcgg4dqB9N3GJJtR2ONDdIe8kjpRp0ZMnSQ5WDe-c7Q2sqT-UbhtIdEVTqEQ21EUjFxElAtiovs4KnKcsN7oFOV8MJZp2pzEhJa-bHnEiYqRBECpYkmOT1BCpYrtJVEfZgLfFlaZpFdTHj-fYm96FkfThsfzoEZEINZ1own4MgR8QzZMp9wH9zz7lIBXsZQ5cP6UgaizLbUzhUYOdkI3dxhgSzrpgTxiISRDemusud5gBl1xQHwN_okoBHzIzqYYOPVv-NFMawvl93n-BcXX7YnAkH7ZwdJjS99JwHrfVEo6zQFu2]--></g></svg>