<svg xmlns="http://www.w3.org/2000/svg" xmlns:xlink="http://www.w3.org/1999/xlink" contentStyleType="text/css" height="727px" preserveAspectRatio="none" style="width:977px;height:727px;background:#FFFFFF;" version="1.1" viewBox="0 0 977 727" width="977px" zoomAndPan="magnify"><defs/><g><text fill="#000000" font-family="sans-serif" font-size="14" font-weight="bold" lengthAdjust="spacing" textLength="266" x="357" y="27.9951">EIP-7701 Simple Transaction Flow</text><rect fill="none" height="140.5313" style="stroke:#000000;stroke-width:1.5;" width="360" x="233" y="269.125"/><rect fill="none" height="155.6641" style="stroke:#000000;stroke-width:1.5;" width="738" x="233" y="448.6563"/><line style="stroke:#181818;stroke-width:0.5;stroke-dasharray:5.0,5.0;" x1="24" x2="24" y1="118.5938" y2="646.3203"/><line style="stroke:#181818;stroke-width:0.5;stroke-dasharray:5.0,5.0;" x1="192" x2="192" y1="118.5938" y2="646.3203"/><line style="stroke:#181818;stroke-width:0.5;stroke-dasharray:5.0,5.0;" x1="310" x2="310" y1="118.5938" y2="646.3203"/><line style="stroke:#181818;stroke-width:0.5;stroke-dasharray:5.0,5.0;" x1="494" x2="494" y1="118.5938" y2="646.3203"/><line style="stroke:#181818;stroke-width:0.5;stroke-dasharray:5.0,5.0;" x1="682" x2="682" y1="118.5938" y2="646.3203"/><line style="stroke:#181818;stroke-width:0.5;stroke-dasharray:5.0,5.0;" x1="871" x2="871" y1="118.5938" y2="646.3203"/><text fill="#000000" font-family="sans-serif" font-size="14" lengthAdjust="spacing" textLength="32" x="5" y="115.292">User</text><ellipse cx="24" cy="50.7969" fill="#E2E2F0" rx="8" ry="8" style="stroke:#181818;stroke-width:0.5;"/><path d="M24,58.7969 L24,85.7969 M11,66.7969 L37,66.7969 M24,85.7969 L11,100.7969 M24,85.7969 L37,100.7969 " fill="none" style="stroke:#181818;stroke-width:0.5;"/><text fill="#000000" font-family="sans-serif" font-size="14" lengthAdjust="spacing" textLength="32" x="5" y="658.3154">User</text><ellipse cx="24" cy="670.1172" fill="#E2E2F0" rx="8" ry="8" style="stroke:#181818;stroke-width:0.5;"/><path d="M24,678.1172 L24,705.1172 M11,686.1172 L37,686.1172 M24,705.1172 L11,720.1172 M24,705.1172 L37,720.1172 " fill="none" style="stroke:#181818;stroke-width:0.5;"/><rect fill="#006400" height="30.2969" rx="2.5" ry="2.5" style="stroke:#181818;stroke-width:0.5;" width="82" x="151" y="87.2969"/><text fill="#FFFFFF" font-family="sans-serif" font-size="14" lengthAdjust="spacing" textLength="68" x="158" y="107.292">Ethereum</text><rect fill="#006400" height="30.2969" rx="2.5" ry="2.5" style="stroke:#181818;stroke-width:0.5;" width="82" x="151" y="645.3203"/><text fill="#FFFFFF" font-family="sans-serif" font-size="14" lengthAdjust="spacing" textLength="68" x="158" y="665.3154">Ethereum</text><rect fill="#006400" height="30.2969" rx="2.5" ry="2.5" style="stroke:#181818;stroke-width:0.5;" width="135" x="243" y="87.2969"/><text fill="#FFFFFF" font-family="sans-serif" font-size="14" lengthAdjust="spacing" textLength="121" x="250" y="107.292">AA_ENTRY_POINT</text><rect fill="#006400" height="30.2969" rx="2.5" ry="2.5" style="stroke:#181818;stroke-width:0.5;" width="135" x="243" y="645.3203"/><text fill="#FFFFFF" font-family="sans-serif" font-size="14" lengthAdjust="spacing" textLength="121" x="250" y="665.3154">AA_ENTRY_POINT</text><rect fill="#9932CC" height="46.5938" rx="2.5" ry="2.5" style="stroke:#181818;stroke-width:0.5;" width="177" x="406" y="71"/><text fill="#FFFFFF" font-family="sans-serif" font-size="14" lengthAdjust="spacing" textLength="118" x="435.5" y="90.9951">Sender Contract:</text><text fill="#FFFFFF" font-family="sans-serif" font-size="14" lengthAdjust="spacing" textLength="163" x="413" y="107.292">Validation Code Section</text><rect fill="#9932CC" height="46.5938" rx="2.5" ry="2.5" style="stroke:#181818;stroke-width:0.5;" width="177" x="406" y="645.3203"/><text fill="#FFFFFF" font-family="sans-serif" font-size="14" lengthAdjust="spacing" textLength="118" x="435.5" y="665.3154">Sender Contract:</text><text fill="#FFFFFF" font-family="sans-serif" font-size="14" lengthAdjust="spacing" textLength="163" x="413" y="681.6123">Validation Code Section</text><rect fill="#800080" height="46.5938" rx="2.5" ry="2.5" style="stroke:#181818;stroke-width:0.5;" width="179" x="593" y="71"/><text fill="#FFFFFF" font-family="sans-serif" font-size="14" lengthAdjust="spacing" textLength="118" x="623.5" y="90.9951">Sender Contract:</text><text fill="#FFFFFF" font-family="sans-serif" font-size="14" lengthAdjust="spacing" textLength="165" x="600" y="107.292">Execution Code Section</text><rect fill="#800080" height="46.5938" rx="2.5" ry="2.5" style="stroke:#181818;stroke-width:0.5;" width="179" x="593" y="645.3203"/><text fill="#FFFFFF" font-family="sans-serif" font-size="14" lengthAdjust="spacing" textLength="118" x="623.5" y="665.3154">Sender Contract:</text><text fill="#FFFFFF" font-family="sans-serif" font-size="14" lengthAdjust="spacing" textLength="165" x="600" y="681.6123">Execution Code Section</text><rect fill="#8B0000" height="46.5938" rx="2.5" ry="2.5" style="stroke:#181818;stroke-width:0.5;" width="179" x="782" y="71"/><text fill="#FFFFFF" font-family="sans-serif" font-size="14" lengthAdjust="spacing" textLength="113" x="815" y="90.9951">Target Contract:</text><text fill="#FFFFFF" font-family="sans-serif" font-size="14" lengthAdjust="spacing" textLength="165" x="789" y="107.292">Execution Code Section</text><rect fill="#8B0000" height="46.5938" rx="2.5" ry="2.5" style="stroke:#181818;stroke-width:0.5;" width="179" x="782" y="645.3203"/><text fill="#FFFFFF" font-family="sans-serif" font-size="14" lengthAdjust="spacing" textLength="113" x="815" y="665.3154">Target Contract:</text><text fill="#FFFFFF" font-family="sans-serif" font-size="14" lengthAdjust="spacing" textLength="165" x="789" y="681.6123">Execution Code Section</text><polygon fill="#181818" points="180,145.7266,190,149.7266,180,153.7266,184,149.7266" style="stroke:#181818;stroke-width:1.0;"/><line style="stroke:#181818;stroke-width:1.0;" x1="24" x2="186" y1="149.7266" y2="149.7266"/><text fill="#000000" font-family="sans-serif" font-size="13" lengthAdjust="spacing" textLength="144" x="31" y="144.6606">Submit AA transaction</text><path d="M197,162.7266 L197,217.7266 L315,217.7266 L315,172.7266 L305,162.7266 L197,162.7266 " fill="#FEFFDD" style="stroke:#181818;stroke-width:0.5;"/><path d="M305,162.7266 L305,172.7266 L315,172.7266 L305,162.7266 " fill="#FEFFDD" style="stroke:#181818;stroke-width:0.5;"/><text fill="#000000" font-family="sans-serif" font-size="13" lengthAdjust="spacing" textLength="51" x="203" y="179.7935">execute</text><text fill="#000000" font-family="sans-serif" font-size="13" lengthAdjust="spacing" textLength="94" x="203" y="194.9263">AA transaction</text><text fill="#000000" font-family="sans-serif" font-size="13" lengthAdjust="spacing" textLength="97" x="203" y="210.0591">state transition</text><polygon fill="#181818" points="298.5,225.125,308.5,229.125,298.5,233.125,302.5,229.125" style="stroke:#181818;stroke-width:1.0;"/><line style="stroke:#181818;stroke-width:1.0;" x1="192" x2="304.5" y1="229.125" y2="229.125"/><path d="M233,269.125 L402,269.125 L402,276.2578 L392,286.2578 L233,286.2578 L233,269.125 " fill="#EEEEEE" style="stroke:#000000;stroke-width:1.5;"/><rect fill="none" height="140.5313" style="stroke:#000000;stroke-width:1.5;" width="360" x="233" y="269.125"/><text fill="#000000" font-family="sans-serif" font-size="13" font-weight="bold" lengthAdjust="spacing" textLength="124" x="248" y="282.1919">Validation Phase</text><polygon fill="#181818" points="482.5,343.5234,492.5,347.5234,482.5,351.5234,486.5,347.5234" style="stroke:#181818;stroke-width:1.0;"/><line style="stroke:#181818;stroke-width:1.0;" x1="310.5" x2="488.5" y1="347.5234" y2="347.5234"/><text fill="#000000" font-family="sans-serif" font-size="13" lengthAdjust="spacing" textLength="152" x="317.5" y="327.3247">Validate AA Transaction</text><text fill="#000000" font-family="monospace" font-size="13" lengthAdjust="spacing" textLength="160" x="317.5" y="342.4575">senderValidationData</text><polygon fill="#181818" points="321.5,372.6563,311.5,376.6563,321.5,380.6563,317.5,376.6563" style="stroke:#181818;stroke-width:1.0;"/><line style="stroke:#181818;stroke-width:1.0;stroke-dasharray:2.0,2.0;" x1="315.5" x2="493.5" y1="376.6563" y2="376.6563"/><text fill="#000000" font-family="sans-serif" font-size="13" lengthAdjust="spacing" textLength="63" x="327.5" y="371.5903">valid: true</text><path d="M233,448.6563 L399,448.6563 L399,455.7891 L389,465.7891 L233,465.7891 L233,448.6563 " fill="#EEEEEE" style="stroke:#000000;stroke-width:1.5;"/><rect fill="none" height="155.6641" style="stroke:#000000;stroke-width:1.5;" width="738" x="233" y="448.6563"/><text fill="#000000" font-family="sans-serif" font-size="13" font-weight="bold" lengthAdjust="spacing" textLength="121" x="248" y="461.7231">Execution Phase</text><polygon fill="#181818" points="670.5,498.0547,680.5,502.0547,670.5,506.0547,674.5,502.0547" style="stroke:#181818;stroke-width:1.0;"/><line style="stroke:#181818;stroke-width:1.0;" x1="310.5" x2="676.5" y1="502.0547" y2="502.0547"/><text fill="#000000" font-family="sans-serif" font-size="13" lengthAdjust="spacing" textLength="151" x="317.5" y="481.856">Execute AA Transaction</text><text fill="#000000" font-family="monospace" font-size="13" lengthAdjust="spacing" textLength="152" x="317.5" y="496.9888">senderExecutionData</text><polygon fill="#181818" points="859.5,567.3203,869.5,571.3203,859.5,575.3203,863.5,571.3203" style="stroke:#181818;stroke-width:1.0;"/><line style="stroke:#181818;stroke-width:1.0;" x1="682.5" x2="865.5" y1="571.3203" y2="571.3203"/><text fill="#000000" font-family="sans-serif" font-size="13" lengthAdjust="spacing" textLength="96" x="689.5" y="551.1216">AA Transaction</text><text fill="#000000" font-family="sans-serif" font-size="13" lengthAdjust="spacing" textLength="98" x="689.5" y="566.2544">Execution Body</text><!--SRC=[ZP5VQuCm5CNVyoaksREmFHLyA3XdOIzTcQumA9HCxpHK4xac-mFzy8kncrfMjXSbD-UUy-F4I5CZ9FUROB6ule5KDgqxPoHK9t8ZjO9LhTyPSmTDm9yw9CwwWrIj8D60-ngPorOeizBAnBfsAc6DReIRiyaryCHKI6WR3bU5e4D9Y6gkYA9ziiuUd_URX_jrTbcNeYgG87Q9vC32dTgAMXR2yyQwG4ZHmtCG7QJnDau7Bqrv9Ok_p98FpEqbhwJtQYsvckO-cQ0IpJzzii6dPo8i61kAXM0vgIc4rBuqqa0KWHaVX2bj44YMbG7zEjEZ3yITcc_iL6U4s_4ZwJqcZz5ddXKVikFno4hIjeL9ivjATEYlpXU2fIyv_5PZpvnD2JZlVC-ZtPqmWdD6Q2mfUEldeKEqGu8J-_-9OgnoWFWD8Ea11k7b_1-ZKtoVuLU3PJOud6-EqRUw-9p2VG40]--></g></svg>