<svg xmlns="http://www.w3.org/2000/svg" xmlns:xlink="http://www.w3.org/1999/xlink" contentStyleType="text/css" height="1055px" preserveAspectRatio="none" style="width:1289px;height:1055px;background:#FFFFFF;" version="1.1" viewBox="0 0 1289 1055" width="1289px" zoomAndPan="magnify"><defs/><g><text fill="#000000" font-family="sans-serif" font-size="14" font-weight="bold" lengthAdjust="spacing" textLength="489" x="401.75" y="27.9951">EIP-7701 Simple Transaction Flow With Non-EOF Legacy Proxy</text><rect fill="none" height="319.0625" style="stroke:#000000;stroke-width:1.5;" width="711" x="187" y="269.125"/><rect fill="none" height="305.0625" style="stroke:#000000;stroke-width:1.5;" width="1096.5" x="187" y="627.1875"/><line style="stroke:#181818;stroke-width:0.5;stroke-dasharray:5.0,5.0;" x1="24" x2="24" y1="118.5938" y2="974.25"/><line style="stroke:#181818;stroke-width:0.5;stroke-dasharray:5.0,5.0;" x1="192" x2="192" y1="118.5938" y2="974.25"/><line style="stroke:#181818;stroke-width:0.5;stroke-dasharray:5.0,5.0;" x1="310" x2="310" y1="118.5938" y2="974.25"/><line style="stroke:#181818;stroke-width:0.5;stroke-dasharray:5.0,5.0;" x1="494.5" x2="494.5" y1="118.5938" y2="974.25"/><line style="stroke:#181818;stroke-width:0.5;stroke-dasharray:5.0,5.0;" x1="709.5" x2="709.5" y1="118.5938" y2="974.25"/><line style="stroke:#181818;stroke-width:0.5;stroke-dasharray:5.0,5.0;" x1="962.5" x2="962.5" y1="118.5938" y2="974.25"/><line style="stroke:#181818;stroke-width:0.5;stroke-dasharray:5.0,5.0;" x1="1183.5" x2="1183.5" y1="118.5938" y2="974.25"/><text fill="#000000" font-family="sans-serif" font-size="14" lengthAdjust="spacing" textLength="32" x="5" y="115.292">User</text><ellipse cx="24" cy="50.7969" fill="#E2E2F0" rx="8" ry="8" style="stroke:#181818;stroke-width:0.5;"/><path d="M24,58.7969 L24,85.7969 M11,66.7969 L37,66.7969 M24,85.7969 L11,100.7969 M24,85.7969 L37,100.7969 " fill="none" style="stroke:#181818;stroke-width:0.5;"/><text fill="#000000" font-family="sans-serif" font-size="14" lengthAdjust="spacing" textLength="32" x="5" y="986.2451">User</text><ellipse cx="24" cy="998.0469" fill="#E2E2F0" rx="8" ry="8" style="stroke:#181818;stroke-width:0.5;"/><path d="M24,1006.0469 L24,1033.0469 M11,1014.0469 L37,1014.0469 M24,1033.0469 L11,1048.0469 M24,1033.0469 L37,1048.0469 " fill="none" style="stroke:#181818;stroke-width:0.5;"/><rect fill="#006400" height="30.2969" rx="2.5" ry="2.5" style="stroke:#181818;stroke-width:0.5;" width="82" x="151" y="87.2969"/><text fill="#FFFFFF" font-family="sans-serif" font-size="14" lengthAdjust="spacing" textLength="68" x="158" y="107.292">Ethereum</text><rect fill="#006400" height="30.2969" rx="2.5" ry="2.5" style="stroke:#181818;stroke-width:0.5;" width="82" x="151" y="973.25"/><text fill="#FFFFFF" font-family="sans-serif" font-size="14" lengthAdjust="spacing" textLength="68" x="158" y="993.2451">Ethereum</text><rect fill="#006400" height="30.2969" rx="2.5" ry="2.5" style="stroke:#181818;stroke-width:0.5;" width="135" x="243" y="87.2969"/><text fill="#FFFFFF" font-family="sans-serif" font-size="14" lengthAdjust="spacing" textLength="121" x="250" y="107.292">AA_ENTRY_POINT</text><rect fill="#006400" height="30.2969" rx="2.5" ry="2.5" style="stroke:#181818;stroke-width:0.5;" width="135" x="243" y="973.25"/><text fill="#FFFFFF" font-family="sans-serif" font-size="14" lengthAdjust="spacing" textLength="121" x="250" y="993.2451">AA_ENTRY_POINT</text><rect fill="#FF4500" height="46.5938" rx="2.5" ry="2.5" style="stroke:#181818;stroke-width:0.5;" width="168" x="410.5" y="71"/><text fill="#FFFFFF" font-family="sans-serif" font-size="14" lengthAdjust="spacing" textLength="154" x="417.5" y="90.9951">Sender Contract Proxy</text><text fill="#FFFFFF" font-family="sans-serif" font-size="14" lengthAdjust="spacing" textLength="151" x="419" y="107.292">Legacy non-EOF code</text><rect fill="#FF4500" height="46.5938" rx="2.5" ry="2.5" style="stroke:#181818;stroke-width:0.5;" width="168" x="410.5" y="973.25"/><text fill="#FFFFFF" font-family="sans-serif" font-size="14" lengthAdjust="spacing" textLength="154" x="417.5" y="993.2451">Sender Contract Proxy</text><text fill="#FFFFFF" font-family="sans-serif" font-size="14" lengthAdjust="spacing" textLength="151" x="419" y="1009.542">Legacy non-EOF code</text><rect fill="#9932CC" height="46.5938" rx="2.5" ry="2.5" style="stroke:#181818;stroke-width:0.5;" width="243" x="588.5" y="71"/><text fill="#FFFFFF" font-family="sans-serif" font-size="14" lengthAdjust="spacing" textLength="229" x="595.5" y="90.9951">Sender Contract Implementation:</text><text fill="#FFFFFF" font-family="sans-serif" font-size="14" lengthAdjust="spacing" textLength="163" x="628.5" y="107.292">Validation Code Section</text><rect fill="#9932CC" height="46.5938" rx="2.5" ry="2.5" style="stroke:#181818;stroke-width:0.5;" width="243" x="588.5" y="973.25"/><text fill="#FFFFFF" font-family="sans-serif" font-size="14" lengthAdjust="spacing" textLength="229" x="595.5" y="993.2451">Sender Contract Implementation:</text><text fill="#FFFFFF" font-family="sans-serif" font-size="14" lengthAdjust="spacing" textLength="163" x="628.5" y="1009.542">Validation Code Section</text><rect fill="#800080" height="46.5938" rx="2.5" ry="2.5" style="stroke:#181818;stroke-width:0.5;" width="243" x="841.5" y="71"/><text fill="#FFFFFF" font-family="sans-serif" font-size="14" lengthAdjust="spacing" textLength="229" x="848.5" y="90.9951">Sender Contract Implementation:</text><text fill="#FFFFFF" font-family="sans-serif" font-size="14" lengthAdjust="spacing" textLength="165" x="880.5" y="107.292">Execution Code Section</text><rect fill="#800080" height="46.5938" rx="2.5" ry="2.5" style="stroke:#181818;stroke-width:0.5;" width="243" x="841.5" y="973.25"/><text fill="#FFFFFF" font-family="sans-serif" font-size="14" lengthAdjust="spacing" textLength="229" x="848.5" y="993.2451">Sender Contract Implementation:</text><text fill="#FFFFFF" font-family="sans-serif" font-size="14" lengthAdjust="spacing" textLength="165" x="880.5" y="1009.542">Execution Code Section</text><rect fill="#8B0000" height="46.5938" rx="2.5" ry="2.5" style="stroke:#181818;stroke-width:0.5;" width="179" x="1094.5" y="71"/><text fill="#FFFFFF" font-family="sans-serif" font-size="14" lengthAdjust="spacing" textLength="113" x="1127.5" y="90.9951">Target Contract:</text><text fill="#FFFFFF" font-family="sans-serif" font-size="14" lengthAdjust="spacing" textLength="165" x="1101.5" y="107.292">Execution Code Section</text><rect fill="#8B0000" height="46.5938" rx="2.5" ry="2.5" style="stroke:#181818;stroke-width:0.5;" width="179" x="1094.5" y="973.25"/><text fill="#FFFFFF" font-family="sans-serif" font-size="14" lengthAdjust="spacing" textLength="113" x="1127.5" y="993.2451">Target Contract:</text><text fill="#FFFFFF" font-family="sans-serif" font-size="14" lengthAdjust="spacing" textLength="165" x="1101.5" y="1009.542">Execution Code Section</text><polygon fill="#181818" points="180,145.7266,190,149.7266,180,153.7266,184,149.7266" style="stroke:#181818;stroke-width:1.0;"/><line style="stroke:#181818;stroke-width:1.0;" x1="24" x2="186" y1="149.7266" y2="149.7266"/><text fill="#000000" font-family="sans-serif" font-size="13" lengthAdjust="spacing" textLength="144" x="31" y="144.6606">Submit AA transaction</text><path d="M197,162.7266 L197,217.7266 L315,217.7266 L315,172.7266 L305,162.7266 L197,162.7266 " fill="#FEFFDD" style="stroke:#181818;stroke-width:0.5;"/><path d="M305,162.7266 L305,172.7266 L315,172.7266 L305,162.7266 " fill="#FEFFDD" style="stroke:#181818;stroke-width:0.5;"/><text fill="#000000" font-family="sans-serif" font-size="13" lengthAdjust="spacing" textLength="51" x="203" y="179.7935">execute</text><text fill="#000000" font-family="sans-serif" font-size="13" lengthAdjust="spacing" textLength="94" x="203" y="194.9263">AA transaction</text><text fill="#000000" font-family="sans-serif" font-size="13" lengthAdjust="spacing" textLength="97" x="203" y="210.0591">state transition</text><polygon fill="#181818" points="298.5,225.125,308.5,229.125,298.5,233.125,302.5,229.125" style="stroke:#181818;stroke-width:1.0;"/><line style="stroke:#181818;stroke-width:1.0;" x1="192" x2="304.5" y1="229.125" y2="229.125"/><path d="M187,269.125 L356,269.125 L356,276.2578 L346,286.2578 L187,286.2578 L187,269.125 " fill="#EEEEEE" style="stroke:#000000;stroke-width:1.5;"/><rect fill="none" height="319.0625" style="stroke:#000000;stroke-width:1.5;" width="711" x="187" y="269.125"/><text fill="#000000" font-family="sans-serif" font-size="13" font-weight="bold" lengthAdjust="spacing" textLength="124" x="202" y="282.1919">Validation Phase</text><path d="M197,316.2578 L197,341.2578 L618,341.2578 L618,326.2578 L608,316.2578 L197,316.2578 " fill="#FEFFDD" style="stroke:#181818;stroke-width:0.5;"/><path d="M608,316.2578 L608,326.2578 L618,326.2578 L608,316.2578 " fill="#FEFFDD" style="stroke:#181818;stroke-width:0.5;"/><text fill="#000000" font-family="monospace" font-size="13" lengthAdjust="spacing" textLength="400" x="203" y="333.3247">current_entry_point_role&#160;:=&#160;role_sender_validation</text><polygon fill="#181818" points="482.5,403.6563,492.5,407.6563,482.5,411.6563,486.5,407.6563" style="stroke:#181818;stroke-width:1.0;"/><line style="stroke:#181818;stroke-width:1.0;" x1="310.5" x2="488.5" y1="407.6563" y2="407.6563"/><text fill="#000000" font-family="sans-serif" font-size="13" lengthAdjust="spacing" textLength="152" x="317.5" y="387.4575">Validate AA Transaction</text><text fill="#000000" font-family="monospace" font-size="13" lengthAdjust="spacing" textLength="160" x="317.5" y="402.5903">senderValidationData</text><polygon fill="#181818" points="698,457.7891,708,461.7891,698,465.7891,702,461.7891" style="stroke:#181818;stroke-width:1.0;"/><line style="stroke:#181818;stroke-width:1.0;" x1="494.5" x2="704" y1="461.7891" y2="461.7891"/><text fill="#000000" font-family="monospace" font-size="13" lengthAdjust="spacing" textLength="96" x="501.5" y="456.7231">DELEGATECALL</text><path d="M531,474.7891 L531,499.7891 L888,499.7891 L888,484.7891 L878,474.7891 L531,474.7891 " fill="#FEFFDD" style="stroke:#181818;stroke-width:0.5;"/><path d="M878,474.7891 L878,484.7891 L888,484.7891 L878,474.7891 " fill="#FEFFDD" style="stroke:#181818;stroke-width:0.5;"/><text fill="#000000" font-family="monospace" font-size="13" lengthAdjust="spacing" textLength="336" x="537" y="491.856">current_entry_point_role_fulfilled&#160;:=&#160;true</text><polygon fill="#181818" points="505.5,522.0547,495.5,526.0547,505.5,530.0547,501.5,526.0547" style="stroke:#181818;stroke-width:1.0;"/><line style="stroke:#181818;stroke-width:1.0;stroke-dasharray:2.0,2.0;" x1="499.5" x2="709" y1="526.0547" y2="526.0547"/><text fill="#000000" font-family="sans-serif" font-size="13" lengthAdjust="spacing" textLength="63" x="511.5" y="520.9888">valid: true</text><polygon fill="#181818" points="321.5,551.1875,311.5,555.1875,321.5,559.1875,317.5,555.1875" style="stroke:#181818;stroke-width:1.0;"/><line style="stroke:#181818;stroke-width:1.0;stroke-dasharray:2.0,2.0;" x1="315.5" x2="493.5" y1="555.1875" y2="555.1875"/><text fill="#000000" font-family="sans-serif" font-size="13" lengthAdjust="spacing" textLength="63" x="327.5" y="550.1216">valid: true</text><path d="M187,627.1875 L353,627.1875 L353,634.3203 L343,644.3203 L187,644.3203 L187,627.1875 " fill="#EEEEEE" style="stroke:#000000;stroke-width:1.5;"/><rect fill="none" height="305.0625" style="stroke:#000000;stroke-width:1.5;" width="1096.5" x="187" y="627.1875"/><text fill="#000000" font-family="sans-serif" font-size="13" font-weight="bold" lengthAdjust="spacing" textLength="121" x="202" y="640.2544">Execution Phase</text><path d="M197,674.3203 L197,699.3203 L610,699.3203 L610,684.3203 L600,674.3203 L197,674.3203 " fill="#FEFFDD" style="stroke:#181818;stroke-width:0.5;"/><path d="M600,674.3203 L600,684.3203 L610,684.3203 L600,674.3203 " fill="#FEFFDD" style="stroke:#181818;stroke-width:0.5;"/><text fill="#000000" font-family="monospace" font-size="13" lengthAdjust="spacing" textLength="392" x="203" y="691.3872">current_entry_point_role&#160;:=&#160;role_sender_execution</text><polygon fill="#181818" points="482.5,761.7188,492.5,765.7188,482.5,769.7188,486.5,765.7188" style="stroke:#181818;stroke-width:1.0;"/><line style="stroke:#181818;stroke-width:1.0;" x1="310.5" x2="488.5" y1="765.7188" y2="765.7188"/><text fill="#000000" font-family="sans-serif" font-size="13" lengthAdjust="spacing" textLength="151" x="317.5" y="745.52">Execute AA Transaction</text><text fill="#000000" font-family="monospace" font-size="13" lengthAdjust="spacing" textLength="152" x="317.5" y="760.6528">senderExecutionData</text><polygon fill="#181818" points="951,815.8516,961,819.8516,951,823.8516,955,819.8516" style="stroke:#181818;stroke-width:1.0;"/><line style="stroke:#181818;stroke-width:1.0;" x1="494.5" x2="957" y1="819.8516" y2="819.8516"/><text fill="#000000" font-family="monospace" font-size="13" lengthAdjust="spacing" textLength="96" x="501.5" y="814.7856">DELEGATECALL</text><path d="M784,832.8516 L784,857.8516 L1141,857.8516 L1141,842.8516 L1131,832.8516 L784,832.8516 " fill="#FEFFDD" style="stroke:#181818;stroke-width:0.5;"/><path d="M1131,832.8516 L1131,842.8516 L1141,842.8516 L1131,832.8516 " fill="#FEFFDD" style="stroke:#181818;stroke-width:0.5;"/><text fill="#000000" font-family="monospace" font-size="13" lengthAdjust="spacing" textLength="336" x="790" y="849.9185">current_entry_point_role_fulfilled&#160;:=&#160;true</text><polygon fill="#181818" points="1172,895.25,1182,899.25,1172,903.25,1176,899.25" style="stroke:#181818;stroke-width:1.0;"/><line style="stroke:#181818;stroke-width:1.0;" x1="963" x2="1178" y1="899.25" y2="899.25"/><text fill="#000000" font-family="sans-serif" font-size="13" lengthAdjust="spacing" textLength="96" x="970" y="879.0513">AA Transaction</text><text fill="#000000" font-family="sans-serif" font-size="13" lengthAdjust="spacing" textLength="98" x="970" y="894.1841">Execution Body</text><!--SRC=[hP9VQzim5CNV_IakwhDXUoeO5l1IPGHCQcQlOn0mcdtZYDgIkPQx1lBX9ybfugHBoyOUyiVokUUU-zCrqZG8V9c6jxSVFa8csyu-voHKBqeZjO95et_1TscsiD8gvFSBIB0MvGvIqi-x8B0oJS2-zKWiw1-bwWI95kotaQNiX38BhSnSDrOb1gDROS-3oMjWt6oHS6WPt5I27cj2LEUAE2xuAl_weqZlbwlykYv3LI71t7Oa6spCk5Q7nEemGAahP21woEPf0ZVQJblR0DNRNak7faLbXECIhTM3Q6Jb7woeGiZG4piuFyopCQQcSYl_rfi_OpbSi-REkXl8rfpRve9gD4VRjttoqST5TBC7unL2E9jSI0JPyBEL1k8Op6af0gKD0ibwQq1lplJe6-9QdLUiLMzdm_58Ue_9jRkU5rSS1VlzFgX93nrCGATRqQD_TJq2O-L0P64MzaExejFI_YTj5plw1Ewtw3t_ukbep9WtlKmHpjoAH2y9q778frCnDbgT8ju98mvkhjOvs5LmgUvumh_4EP_7IM8LVW3zPDVWgBYMkzWCpKOs3LPk0aC3sdf2Cv02FqFa3yU6uUmLowd61REH9tXFE_9_wUABxpjmn_xNsHxp_G4jVnSj_mUqlYgSvMFnPQuJhy-wsas1_WO0]--></g></svg>