<svg xmlns="http://www.w3.org/2000/svg" xmlns:xlink="http://www.w3.org/1999/xlink" contentStyleType="text/css" height="797px" preserveAspectRatio="none" style="width:706px;height:797px;background:#FFFFFF;" version="1.1" viewBox="0 0 706 797" width="706px" zoomAndPan="magnify"><defs/><g><text fill="#000000" font-family="sans-serif" font-size="14" font-weight="bold" lengthAdjust="spacing" textLength="266" x="221.5" y="27.9951">EIP-7701 Simple Transaction Flow</text><rect fill="none" height="175.6641" style="stroke:#000000;stroke-width:1.5;" width="342" x="233" y="269.125"/><rect fill="none" height="190.7969" style="stroke:#000000;stroke-width:1.5;" width="467" x="233" y="483.7891"/><line style="stroke:#181818;stroke-width:0.5;stroke-dasharray:5.0,5.0;" x1="24" x2="24" y1="118.5938" y2="716.5859"/><line style="stroke:#181818;stroke-width:0.5;stroke-dasharray:5.0,5.0;" x1="192" x2="192" y1="118.5938" y2="716.5859"/><line style="stroke:#181818;stroke-width:0.5;stroke-dasharray:5.0,5.0;" x1="310" x2="310" y1="118.5938" y2="716.5859"/><line style="stroke:#181818;stroke-width:0.5;stroke-dasharray:5.0,5.0;" x1="494" x2="494" y1="118.5938" y2="716.5859"/><line style="stroke:#181818;stroke-width:0.5;stroke-dasharray:5.0,5.0;" x1="629" x2="629" y1="118.5938" y2="716.5859"/><text fill="#000000" font-family="sans-serif" font-size="14" lengthAdjust="spacing" textLength="32" x="5" y="115.292">User</text><ellipse cx="24" cy="50.7969" fill="#E2E2F0" rx="8" ry="8" style="stroke:#181818;stroke-width:0.5;"/><path d="M24,58.7969 L24,85.7969 M11,66.7969 L37,66.7969 M24,85.7969 L11,100.7969 M24,85.7969 L37,100.7969 " fill="none" style="stroke:#181818;stroke-width:0.5;"/><text fill="#000000" font-family="sans-serif" font-size="14" lengthAdjust="spacing" textLength="32" x="5" y="728.5811">User</text><ellipse cx="24" cy="740.3828" fill="#E2E2F0" rx="8" ry="8" style="stroke:#181818;stroke-width:0.5;"/><path d="M24,748.3828 L24,775.3828 M11,756.3828 L37,756.3828 M24,775.3828 L11,790.3828 M24,775.3828 L37,790.3828 " fill="none" style="stroke:#181818;stroke-width:0.5;"/><rect fill="#006400" height="30.2969" rx="2.5" ry="2.5" style="stroke:#181818;stroke-width:0.5;" width="82" x="151" y="87.2969"/><text fill="#FFFFFF" font-family="sans-serif" font-size="14" lengthAdjust="spacing" textLength="68" x="158" y="107.292">Ethereum</text><rect fill="#006400" height="30.2969" rx="2.5" ry="2.5" style="stroke:#181818;stroke-width:0.5;" width="82" x="151" y="715.5859"/><text fill="#FFFFFF" font-family="sans-serif" font-size="14" lengthAdjust="spacing" textLength="68" x="158" y="735.5811">Ethereum</text><rect fill="#006400" height="30.2969" rx="2.5" ry="2.5" style="stroke:#181818;stroke-width:0.5;" width="135" x="243" y="87.2969"/><text fill="#FFFFFF" font-family="sans-serif" font-size="14" lengthAdjust="spacing" textLength="121" x="250" y="107.292">AA_ENTRY_POINT</text><rect fill="#006400" height="30.2969" rx="2.5" ry="2.5" style="stroke:#181818;stroke-width:0.5;" width="135" x="243" y="715.5859"/><text fill="#FFFFFF" font-family="sans-serif" font-size="14" lengthAdjust="spacing" textLength="121" x="250" y="735.5811">AA_ENTRY_POINT</text><rect fill="#9932CC" height="30.2969" rx="2.5" ry="2.5" style="stroke:#181818;stroke-width:0.5;" width="127" x="431" y="87.2969"/><text fill="#FFFFFF" font-family="sans-serif" font-size="14" lengthAdjust="spacing" textLength="113" x="438" y="107.292">Sender Contract</text><rect fill="#9932CC" height="30.2969" rx="2.5" ry="2.5" style="stroke:#181818;stroke-width:0.5;" width="127" x="431" y="715.5859"/><text fill="#FFFFFF" font-family="sans-serif" font-size="14" lengthAdjust="spacing" textLength="113" x="438" y="735.5811">Sender Contract</text><rect fill="#8B0000" height="30.2969" rx="2.5" ry="2.5" style="stroke:#181818;stroke-width:0.5;" width="122" x="568" y="87.2969"/><text fill="#FFFFFF" font-family="sans-serif" font-size="14" lengthAdjust="spacing" textLength="108" x="575" y="107.292">Target Contract</text><rect fill="#8B0000" height="30.2969" rx="2.5" ry="2.5" style="stroke:#181818;stroke-width:0.5;" width="122" x="568" y="715.5859"/><text fill="#FFFFFF" font-family="sans-serif" font-size="14" lengthAdjust="spacing" textLength="108" x="575" y="735.5811">Target Contract</text><polygon fill="#181818" points="180,145.7266,190,149.7266,180,153.7266,184,149.7266" style="stroke:#181818;stroke-width:1.0;"/><line style="stroke:#181818;stroke-width:1.0;" x1="24" x2="186" y1="149.7266" y2="149.7266"/><text fill="#000000" font-family="sans-serif" font-size="13" lengthAdjust="spacing" textLength="144" x="31" y="144.6606">Submit AA transaction</text><path d="M197,162.7266 L197,217.7266 L315,217.7266 L315,172.7266 L305,162.7266 L197,162.7266 " fill="#FEFFDD" style="stroke:#181818;stroke-width:0.5;"/><path d="M305,162.7266 L305,172.7266 L315,172.7266 L305,162.7266 " fill="#FEFFDD" style="stroke:#181818;stroke-width:0.5;"/><text fill="#000000" font-family="sans-serif" font-size="13" lengthAdjust="spacing" textLength="51" x="203" y="179.7935">execute</text><text fill="#000000" font-family="sans-serif" font-size="13" lengthAdjust="spacing" textLength="94" x="203" y="194.9263">AA transaction</text><text fill="#000000" font-family="sans-serif" font-size="13" lengthAdjust="spacing" textLength="97" x="203" y="210.0591">state transition</text><polygon fill="#181818" points="298.5,225.125,308.5,229.125,298.5,233.125,302.5,229.125" style="stroke:#181818;stroke-width:1.0;"/><line style="stroke:#181818;stroke-width:1.0;" x1="192" x2="304.5" y1="229.125" y2="229.125"/><path d="M233,269.125 L402,269.125 L402,276.2578 L392,286.2578 L233,286.2578 L233,269.125 " fill="#EEEEEE" style="stroke:#000000;stroke-width:1.5;"/><rect fill="none" height="175.6641" style="stroke:#000000;stroke-width:1.5;" width="342" x="233" y="269.125"/><text fill="#000000" font-family="sans-serif" font-size="13" font-weight="bold" lengthAdjust="spacing" textLength="124" x="248" y="282.1919">Validation Phase</text><polygon fill="#181818" points="482.5,343.5234,492.5,347.5234,482.5,351.5234,486.5,347.5234" style="stroke:#181818;stroke-width:1.0;"/><line style="stroke:#181818;stroke-width:1.0;" x1="310.5" x2="488.5" y1="347.5234" y2="347.5234"/><text fill="#000000" font-family="sans-serif" font-size="13" lengthAdjust="spacing" textLength="152" x="317.5" y="327.3247">Validate AA Transaction</text><text fill="#000000" font-family="monospace" font-size="13" lengthAdjust="spacing" textLength="160" x="317.5" y="342.4575">senderValidationData</text><path d="M424,360.5234 L424,385.5234 L565,385.5234 L565,370.5234 L555,360.5234 L424,360.5234 " fill="#FEFFDD" style="stroke:#181818;stroke-width:0.5;"/><path d="M555,360.5234 L555,370.5234 L565,370.5234 L555,360.5234 " fill="#FEFFDD" style="stroke:#181818;stroke-width:0.5;"/><text fill="#000000" font-family="monospace" font-size="13" lengthAdjust="spacing" textLength="120" x="430" y="377.5903">ACCEPTROLE&#160;0xA1</text><polygon fill="#181818" points="321.5,407.7891,311.5,411.7891,321.5,415.7891,317.5,411.7891" style="stroke:#181818;stroke-width:1.0;"/><line style="stroke:#181818;stroke-width:1.0;stroke-dasharray:2.0,2.0;" x1="315.5" x2="493.5" y1="411.7891" y2="411.7891"/><text fill="#000000" font-family="sans-serif" font-size="13" lengthAdjust="spacing" textLength="63" x="327.5" y="406.7231">valid: true</text><path d="M233,483.7891 L399,483.7891 L399,490.9219 L389,500.9219 L233,500.9219 L233,483.7891 " fill="#EEEEEE" style="stroke:#000000;stroke-width:1.5;"/><rect fill="none" height="190.7969" style="stroke:#000000;stroke-width:1.5;" width="467" x="233" y="483.7891"/><text fill="#000000" font-family="sans-serif" font-size="13" font-weight="bold" lengthAdjust="spacing" textLength="121" x="248" y="496.856">Execution Phase</text><polygon fill="#181818" points="482.5,533.1875,492.5,537.1875,482.5,541.1875,486.5,537.1875" style="stroke:#181818;stroke-width:1.0;"/><line style="stroke:#181818;stroke-width:1.0;" x1="310.5" x2="488.5" y1="537.1875" y2="537.1875"/><text fill="#000000" font-family="sans-serif" font-size="13" lengthAdjust="spacing" textLength="151" x="317.5" y="516.9888">Execute AA Transaction</text><text fill="#000000" font-family="monospace" font-size="13" lengthAdjust="spacing" textLength="152" x="317.5" y="532.1216">senderExecutionData</text><path d="M424,550.1875 L424,575.1875 L565,575.1875 L565,560.1875 L555,550.1875 L424,550.1875 " fill="#FEFFDD" style="stroke:#181818;stroke-width:0.5;"/><path d="M555,550.1875 L555,560.1875 L565,560.1875 L555,550.1875 " fill="#FEFFDD" style="stroke:#181818;stroke-width:0.5;"/><text fill="#000000" font-family="monospace" font-size="13" lengthAdjust="spacing" textLength="120" x="430" y="567.2544">ACCEPTROLE&#160;0xA3</text><polygon fill="#181818" points="617,637.5859,627,641.5859,617,645.5859,621,641.5859" style="stroke:#181818;stroke-width:1.0;"/><line style="stroke:#181818;stroke-width:1.0;" x1="494.5" x2="623" y1="641.5859" y2="641.5859"/><text fill="#000000" font-family="sans-serif" font-size="13" lengthAdjust="spacing" textLength="96" x="501.5" y="621.3872">AA Transaction</text><text fill="#000000" font-family="sans-serif" font-size="13" lengthAdjust="spacing" textLength="98" x="501.5" y="636.52">Execution Body</text><!--SRC=[dP9HQy8m58NVyoiksREWx47eWz2v3eIXHRl1G92ilMk3RL9kRvq3V_nYtMPR9uoz19ASS_ATIrXpZX3Cmi5uF1p1IXUbsqUaJALYrjR0GsxVXN0RIo2VAYGfggqsfI9LW5jPnxfKXX-iuQdDdKhLR0lbpaNh6cJ06HBMXOIRHD4s9KJJLVZ-9fX7ovTDk9ZDe-kw5Pe42QRkHN9WNq9BSQQJhZ9Ib2BtbOI94ASkC9Yqo3nOrQ-5Pl1zuFCCXB6CG3hD6EnRHuzxZ6l6jUawrgPYvJpDaMuoMlsFR_QwUk9mE8YKR5t2iyfrefhXXvcgiBdg6mQJYp5utquyyaTj6YchHdoElbUif3mripiNyqkSbFvq6eJHSl4Om73lZvo1a6ioi3i6UQvVVS9ptbQ3e9dAkS2Vu4-cw-m_eVz1ltM6PenzgKFfVnBl0k7Svyuc7-t2dm00]--></g></svg>