<svg version="1.1" xmlns="http://www.w3.org/2000/svg" viewBox="0 0 3386.646941829211 1823.2961523717413" width="3386.646941829211" height="1823.2961523717413">
  <!-- svg-source:excalidraw -->
  
  <defs>
    <style class="style-fonts">
      @font-face {
        font-family: "Virgil";
        src: url("https://excalidraw.com/Virgil.woff2");
      }
      @font-face {
        font-family: "Cascadia";
        src: url("https://excalidraw.com/Cascadia.woff2");
      }
    </style>
    
  </defs>
  <g stroke-linecap="round" transform="translate(2178.412008233833 789.8762563383316) rotate(0 207.5 127.5)"><path d="M32 0 M32 0 C139.65 -0.32, 250.36 0.5, 383 0 M32 0 C162.4 -2.11, 292.78 -1.3, 383 0 M383 0 C405.09 -1.51, 413.97 10.25, 415 32 M383 0 C406.29 -1.62, 416.71 8.92, 415 32 M415 32 C415.28 102.41, 414.75 175.18, 415 223 M415 32 C416.79 98.55, 417.04 168.05, 415 223 M415 223 C413.01 245.59, 404.75 254.63, 383 255 M415 223 C414.03 244.36, 405.27 252.73, 383 255 M383 255 C271.31 256.91, 159.77 256.47, 32 255 M383 255 C246.68 256.03, 111.28 255.95, 32 255 M32 255 C11.73 256.26, -0.3 246.1, 0 223 M32 255 C9.13 254.74, 0.56 243.9, 0 223 M0 223 C2 148.96, -0.12 74.79, 0 32 M0 223 C-0.22 158.25, 0.25 92.65, 0 32 M0 32 C-1.81 12.62, 8.99 1.41, 32 0 M0 32 C-0.48 9.05, 8.77 -1.48, 32 0" stroke="#000000" stroke-width="1" fill="none"></path></g><g transform="translate(2236.498922296333 804.6762563383315) rotate(0 149.4130859375 112.69999999999999)"><text x="149.4130859375" y="0" font-family="Helvetica, Segoe UI Emoji" font-size="28px" fill="#000000" text-anchor="middle" style="white-space: pre;" direction="ltr" dominant-baseline="text-before-edge"></text><text x="149.4130859375" y="32.199999999999996" font-family="Helvetica, Segoe UI Emoji" font-size="28px" fill="#000000" text-anchor="middle" style="white-space: pre;" direction="ltr" dominant-baseline="text-before-edge">Generate 712-MsgHash</text><text x="149.4130859375" y="64.39999999999999" font-family="Helvetica, Segoe UI Emoji" font-size="28px" fill="#000000" text-anchor="middle" style="white-space: pre;" direction="ltr" dominant-baseline="text-before-edge">+</text><text x="149.4130859375" y="96.6" font-family="Helvetica, Segoe UI Emoji" font-size="28px" fill="#000000" text-anchor="middle" style="white-space: pre;" direction="ltr" dominant-baseline="text-before-edge">Identity guardSigners</text><text x="149.4130859375" y="128.79999999999998" font-family="Helvetica, Segoe UI Emoji" font-size="28px" fill="#000000" text-anchor="middle" style="white-space: pre;" direction="ltr" dominant-baseline="text-before-edge"> +  </text><text x="149.4130859375" y="160.99999999999997" font-family="Helvetica, Segoe UI Emoji" font-size="28px" fill="#000000" text-anchor="middle" style="white-space: pre;" direction="ltr" dominant-baseline="text-before-edge">signatures</text><text x="149.4130859375" y="193.2" font-family="Helvetica, Segoe UI Emoji" font-size="28px" fill="#000000" text-anchor="middle" style="white-space: pre;" direction="ltr" dominant-baseline="text-before-edge">（sequential Verify）</text></g><g stroke-linecap="round" transform="translate(3068.170185766933 549.5479975809093) rotate(0 149 104)"><path d="M7.86 8.16 C7.86 8.16, 7.86 8.16, 7.86 8.16 M7.86 8.16 C7.86 8.16, 7.86 8.16, 7.86 8.16 M3.66 19.09 C7.96 14.59, 10.02 10.57, 18.1 2.48 M3.66 19.09 C8.84 13.31, 14.45 7.97, 18.1 2.48 M2.75 26.24 C9.06 19.82, 13.94 13.24, 24.4 1.33 M2.75 26.24 C11.37 17.49, 19.48 6.6, 24.4 1.33 M2.48 32.64 C8.06 27.58, 13.79 19.57, 30.7 0.18 M2.48 32.64 C7.54 26.83, 13.89 19.5, 30.7 0.18 M2.88 38.28 C11.68 27.46, 18.22 22.26, 34.37 2.05 M2.88 38.28 C14.9 22.96, 27.74 9.38, 34.37 2.05 M2.62 44.68 C10.91 33.98, 20.72 25.02, 39.36 2.41 M2.62 44.68 C13.82 31.38, 24.98 17.46, 39.36 2.41 M2.36 51.07 C12.43 36.13, 27.04 22.95, 45 2.02 M2.36 51.07 C13.18 40.2, 22.01 29.12, 45 2.02 M2.75 56.72 C19.01 37.82, 39.3 15.8, 49.99 2.38 M2.75 56.72 C11.84 45.57, 22.26 34.29, 49.99 2.38 M2.49 63.11 C18.28 41.87, 38.82 23.55, 55.63 1.98 M2.49 63.11 C14.45 49.8, 27.73 33.48, 55.63 1.98 M2.88 68.76 C17.22 49.61, 33.57 33.17, 60.62 2.34 M2.88 68.76 C22.95 43.93, 42.34 20.39, 60.62 2.34 M2.62 75.16 C23.83 54.23, 42.95 30.88, 66.26 1.95 M2.62 75.16 C20.56 54.29, 38.44 32.06, 66.26 1.95 M2.36 81.55 C23.85 58.52, 43.82 37.35, 71.25 2.31 M2.36 81.55 C18.01 63.02, 33.67 45.18, 71.25 2.31 M2.76 87.2 C31.55 55.04, 56.6 26.64, 76.89 1.91 M2.76 87.2 C26.62 60.49, 49.31 34.47, 76.89 1.91 M2.49 93.59 C19.49 74.8, 38.99 51.4, 81.88 2.27 M2.49 93.59 C25.8 67.49, 49.79 40.87, 81.88 2.27 M2.89 99.24 C30.63 67.23, 58.87 36.64, 87.52 1.88 M2.89 99.24 C28.46 70.29, 54.9 40.14, 87.52 1.88 M2.63 105.64 C39.49 65.76, 72.1 20.84, 92.51 2.24 M2.63 105.64 C33.92 69.27, 65.61 33.84, 92.51 2.24 M2.37 112.03 C28.89 79.87, 56.97 49.61, 98.15 1.85 M2.37 112.03 C37.21 71.01, 74.13 29.71, 98.15 1.85 M2.76 117.68 C36.47 76.71, 74.3 37.48, 103.14 2.21 M2.76 117.68 C22.93 94.77, 42.17 71.32, 103.14 2.21 M2.5 124.07 C28.59 93.11, 57.14 64.99, 108.78 1.81 M2.5 124.07 C30.28 92.65, 56.03 61.29, 108.78 1.81 M2.89 129.72 C40 89.34, 75.88 46.91, 113.77 2.17 M2.89 129.72 C29 99.09, 54.82 70.08, 113.77 2.17 M2.63 136.11 C27.9 108.51, 49.89 79.52, 119.41 1.78 M2.63 136.11 C29.24 107.14, 55.35 76.42, 119.41 1.78 M2.37 142.51 C31.23 111.64, 58.84 81.37, 124.4 2.14 M2.37 142.51 C28.42 113.49, 52.61 84.46, 124.4 2.14 M2.77 148.16 C48.09 99.06, 92.27 50.73, 130.04 1.74 M2.77 148.16 C50.58 92.91, 97.27 38.43, 130.04 1.74 M2.5 154.55 C32.02 121.07, 63.16 88.24, 135.03 2.1 M2.5 154.55 C33.41 117.17, 64.8 80.59, 135.03 2.1 M2.9 160.2 C55.92 101.41, 108.76 41.53, 140.67 1.71 M2.9 160.2 C47.96 110.52, 90.47 60.61, 140.67 1.71 M2.64 166.59 C58.55 104.34, 111.83 42.35, 145.66 2.07 M2.64 166.59 C39.17 123.61, 75.16 82.85, 145.66 2.07 M2.38 172.99 C35.93 133.34, 73.99 93.28, 150.65 2.43 M2.38 172.99 C50.2 114.98, 98.97 59.41, 150.65 2.43 M2.77 178.64 C35.55 142.39, 65.91 105.29, 156.29 2.03 M2.77 178.64 C57.31 117.35, 110.22 55.72, 156.29 2.03 M2.51 185.03 C66.19 113.83, 127.08 39.04, 161.28 2.39 M2.51 185.03 C61.73 116.56, 118.92 49.23, 161.28 2.39 M3.56 189.92 C52.68 131.53, 104.73 73.29, 166.92 2 M3.56 189.92 C67.8 116.77, 131.02 44.74, 166.92 2 M5.27 194.05 C56.35 135.47, 109.57 78.38, 171.91 2.36 M5.27 194.05 C48.76 142.39, 92.68 92.22, 171.91 2.36 M6.97 198.19 C64.86 130.61, 123.84 61.85, 177.55 1.96 M6.97 198.19 C44.39 154.98, 82.43 112.95, 177.55 1.96 M9.99 200.81 C45.95 160.76, 82.1 120.71, 182.54 2.32 M9.99 200.81 C67.55 135.5, 126.06 69.34, 182.54 2.32 M13.01 203.44 C58.31 151.85, 102.98 100.96, 188.18 1.93 M13.01 203.44 C60.53 148.67, 106.58 94.74, 188.18 1.93 M16.69 205.31 C68.15 146.85, 115.3 89.99, 193.17 2.29 M16.69 205.31 C79.27 131.67, 143.44 58.62, 193.17 2.29 M21.02 206.42 C65.71 156.76, 108.98 105.75, 198.81 1.9 M21.02 206.42 C81.17 138.35, 140.93 69.45, 198.81 1.9 M24.69 208.29 C79.63 145.89, 133.38 82.56, 203.8 2.26 M24.69 208.29 C65.33 164.66, 102.26 120.08, 203.8 2.26 M30.33 207.9 C64.88 167.14, 102.01 124.64, 209.44 1.86 M30.33 207.9 C69.17 165.94, 106.59 122.07, 209.44 1.86 M34.01 209.77 C76.98 162.82, 117.61 116.71, 214.43 2.22 M34.01 209.77 C77.09 158.77, 120.99 108.03, 214.43 2.22 M39 210.13 C88.46 155.36, 137.59 99.36, 220.07 1.83 M39 210.13 C85.26 159.83, 130.19 108.63, 220.07 1.83 M44.64 209.73 C106.83 132.88, 171.54 58.81, 225.06 2.19 M44.64 209.73 C93.3 152.71, 142.6 97.19, 225.06 2.19 M49.63 210.09 C102.7 150.1, 152.61 92.41, 230.7 1.79 M49.63 210.09 C118.88 130.88, 188.75 49.71, 230.7 1.79 M55.27 209.7 C122.18 129.53, 190.72 50.93, 235.69 2.15 M55.27 209.7 C127.76 126.2, 200.43 43.55, 235.69 2.15 M60.26 210.06 C120.77 141.08, 182.41 74.46, 241.33 1.76 M60.26 210.06 C125.12 136.46, 187.57 64.92, 241.33 1.76 M65.9 209.66 C130.01 137.87, 192.92 62.34, 246.32 2.12 M65.9 209.66 C102.4 166.7, 140.72 123.36, 246.32 2.12 M70.89 210.02 C142.03 129.83, 210.96 50.5, 251.96 1.72 M70.89 210.02 C110.18 165.18, 150.39 119.88, 251.96 1.72 M76.53 209.63 C130.31 147.09, 185.38 86.18, 256.95 2.08 M76.53 209.63 C142.51 136.01, 206.86 61.14, 256.95 2.08 M81.52 209.99 C131.74 148.87, 185.1 90.92, 262.59 1.69 M81.52 209.99 C130.21 151.73, 180.82 93.02, 262.59 1.69 M87.16 209.59 C129.61 160.22, 175.43 111.82, 268.23 1.29 M87.16 209.59 C156.29 129.41, 225.27 49.74, 268.23 1.29 M92.15 209.95 C154.99 136.47, 220.11 62.47, 273.88 0.9 M92.15 209.95 C160.76 133.63, 229.58 55.57, 273.88 0.9 M97.79 209.56 C156.49 142.95, 215.09 73.42, 278.21 2.01 M97.79 209.56 C152.74 145, 207.67 82.91, 278.21 2.01 M102.78 209.92 C168.45 135.59, 233.36 62.41, 281.88 3.88 M102.78 209.92 C162.26 141.43, 221.27 72.76, 281.88 3.88 M108.42 209.52 C164.46 145.82, 221.19 80.23, 286.21 5 M108.42 209.52 C144.05 168.52, 181.71 125.46, 286.21 5 M113.41 209.88 C178.88 137.05, 242.23 62.63, 289.23 7.62 M113.41 209.88 C177.43 135.61, 241.93 60.85, 289.23 7.62 M119.05 209.49 C175.47 146.15, 232.32 80.12, 291.59 11 M119.05 209.49 C162.93 157.15, 209.51 105.53, 291.59 11 M124.04 209.85 C173.9 151.82, 225.89 93.52, 294.61 13.63 M124.04 209.85 C167.87 158.78, 211.61 108.36, 294.61 13.63 M129.68 209.46 C167.78 164.67, 208.98 117.04, 296.32 17.76 M129.68 209.46 C184.35 146.8, 238.9 82.47, 296.32 17.76 M134.67 209.82 C192.35 142.16, 250.1 75.48, 296.71 23.4 M134.67 209.82 C193.72 139.53, 254.2 69.5, 296.71 23.4 M140.31 209.42 C188.46 151.14, 239.7 92.49, 297.76 28.29 M140.31 209.42 C192.28 150.82, 243.6 91.61, 297.76 28.29 M145.3 209.78 C182.03 170.64, 214.52 129.71, 298.82 33.18 M145.3 209.78 C181.85 165.74, 221.34 122.05, 298.82 33.18 M150.94 209.39 C182.39 174.53, 211.65 141.48, 299.21 38.82 M150.94 209.39 C188.15 164.9, 227.01 119.88, 299.21 38.82 M155.93 209.75 C186.68 172.29, 220.45 131.84, 298.95 45.22 M155.93 209.75 C184.77 175.94, 214.61 141.23, 298.95 45.22 M160.91 210.11 C201.72 164.56, 244.21 116.79, 299.34 50.86 M160.91 210.11 C191.1 174.88, 220.59 140.68, 299.34 50.86 M166.56 209.71 C217.98 148.32, 272.31 87.01, 299.08 57.26 M166.56 209.71 C212.3 155.69, 259.61 102.13, 299.08 57.26 M171.54 210.07 C215.82 155.72, 265.6 102.82, 298.82 63.66 M171.54 210.07 C216.97 157.33, 261.78 106.27, 298.82 63.66 M177.19 209.68 C203.26 179.5, 229.27 150.32, 299.21 69.3 M177.19 209.68 C219.15 160.66, 260.93 112.3, 299.21 69.3 M182.17 210.04 C224.3 160.78, 264.08 111.73, 298.95 75.7 M182.17 210.04 C220.54 166.35, 257.21 124.32, 298.95 75.7 M187.82 209.64 C213.81 179.28, 241.1 148.58, 299.35 81.34 M187.82 209.64 C217.35 176.57, 244.35 144.09, 299.35 81.34 M192.8 210 C214.96 181.51, 237.7 155.6, 299.09 87.74 M192.8 210 C218.29 180.98, 241.29 155.48, 299.09 87.74 M198.45 209.61 C227.83 177.85, 257.94 143.22, 298.82 94.14 M198.45 209.61 C230.6 174.92, 260.24 138.7, 298.82 94.14 M203.43 209.97 C223.4 186.36, 245.23 166.29, 299.22 99.78 M203.43 209.97 C228.54 180.38, 253.97 150.39, 299.22 99.78 M209.08 209.57 C236.18 182.11, 258.55 150.21, 298.96 106.18 M209.08 209.57 C236.13 180.16, 262.1 147.79, 298.96 106.18 M214.07 209.93 C233.28 190.89, 250.71 172.9, 299.35 111.82 M214.07 209.93 C240.86 179.26, 267.81 149.31, 299.35 111.82 M219.71 209.54 C249.7 172.12, 280.85 135.65, 299.09 118.22 M219.71 209.54 C239.58 187.32, 258.5 165.67, 299.09 118.22 M224.7 209.9 C244.41 188.87, 258.77 167.57, 298.83 124.62 M224.7 209.9 C250.57 181.74, 274.97 152.37, 298.83 124.62 M230.34 209.51 C250.08 186.76, 268.03 168.64, 299.22 130.26 M230.34 209.51 C250.4 187.26, 269.72 162.57, 299.22 130.26 M235.33 209.87 C255.38 185.04, 275.88 162.71, 298.96 136.66 M235.33 209.87 C257.83 184.73, 279.15 158.66, 298.96 136.66 M240.97 209.47 C254.88 194.2, 267.23 179.33, 299.36 142.3 M240.97 209.47 C264.37 182.85, 287.46 156.7, 299.36 142.3 M245.96 209.83 C257.39 194.38, 270.3 177.77, 299.1 148.7 M245.96 209.83 C259.04 193.58, 272.9 178.41, 299.1 148.7 M251.6 209.44 C263.06 193.49, 275.7 180.47, 298.83 155.1 M251.6 209.44 C265.02 195.14, 277.69 181.2, 298.83 155.1 M256.59 209.8 C272.83 193.54, 285.22 173.02, 299.23 160.74 M256.59 209.8 C267.85 196.19, 278.86 183.08, 299.23 160.74 M262.23 209.4 C271.12 199.15, 278.38 190.69, 298.97 167.14 M262.23 209.4 C270.29 200.57, 277.57 190.7, 298.97 167.14 M267.87 209.01 C277.28 194.79, 291.87 182.82, 299.36 172.78 M267.87 209.01 C275.3 201.13, 281.79 192.89, 299.36 172.78 M273.51 208.61 C279.84 199.96, 287.16 194.33, 300.41 177.67 M273.51 208.61 C281.6 198.17, 289.73 189.35, 300.41 177.67 M280.47 206.71 C286.05 197.68, 294.86 192.21, 299.5 184.82 M280.47 206.71 C284.96 200.49, 291.46 193.33, 299.5 184.82" stroke="#40c057" stroke-width="0.5" fill="none"></path><path d="M32 0 M32 0 C112.59 0.9, 192.76 1.41, 266 0 M32 0 C86.64 -1.07, 140.14 -1.36, 266 0 M266 0 C286.1 0.7, 297.89 12.22, 298 32 M266 0 C288.57 1.25, 297.25 9.8, 298 32 M298 32 C300.31 71.54, 297.33 114.33, 298 176 M298 32 C296.69 87.74, 296.19 143.88, 298 176 M298 176 C297.08 195.7, 285.59 207.37, 266 208 M298 176 C299.88 196.37, 285.42 210.18, 266 208 M266 208 C174.87 208.07, 84.4 206.91, 32 208 M266 208 C211.93 208.44, 158.92 207.66, 32 208 M32 208 C10.24 208.9, -1.65 195.69, 0 176 M32 208 C9.87 206.02, -0.19 196.05, 0 176 M0 176 C2.53 119.33, 2.33 63.69, 0 32 M0 176 C-0.78 139.58, -1.05 105.1, 0 32 M0 32 C0.61 11.82, 10.61 1.72, 32 0 M0 32 C-1.47 11.38, 9.15 0.03, 32 0" stroke="#000000" stroke-width="1" fill="none"></path></g><g transform="translate(3098.887959204433 621.3479975809094) rotate(0 118.2822265625 32.19999999999999)"><text x="118.2822265625" y="0" font-family="Helvetica, Segoe UI Emoji" font-size="28px" fill="#000000" text-anchor="middle" style="white-space: pre;" direction="ltr" dominant-baseline="text-before-edge">R1 key</text><text x="118.2822265625" y="32.199999999999996" font-family="Helvetica, Segoe UI Emoji" font-size="28px" fill="#000000" text-anchor="middle" style="white-space: pre;" direction="ltr" dominant-baseline="text-before-edge">IGuardSignerVerify</text></g><g stroke-linecap="round"><g transform="translate(2594.412008233833 883.9278500135367) rotate(0 235.86661491287234 -78.9891499875504)"><path d="M-1.01 -1.08 C77.75 -27.39, 393.79 -132.62, 472.74 -158.95 M0.66 0.97 C79.25 -25.1, 393.25 -131.2, 471.79 -157.71" stroke="#000000" stroke-width="1" fill="none"></path></g><g transform="translate(2594.412008233833 883.9278500135367) rotate(0 235.86661491287234 -78.9891499875504)"><path d="M446.57 -139 C454.9 -144.76, 462.04 -149.5, 472.12 -157.92 M447.46 -138.56 C455.07 -144.99, 460.9 -150.18, 471.01 -156.79" stroke="#000000" stroke-width="1" fill="none"></path></g><g transform="translate(2594.412008233833 883.9278500135367) rotate(0 235.86661491287234 -78.9891499875504)"><path d="M440 -158.44 C450.22 -158.06, 459.41 -156.72, 472.12 -157.92 M440.9 -158.01 C450.28 -158.95, 457.95 -158.69, 471.01 -156.79" stroke="#000000" stroke-width="1" fill="none"></path></g></g><mask></mask><g stroke-linecap="round" transform="translate(3067.402995663647 796.2321078157356) rotate(0 147 104)"><path d="M7.86 8.16 C7.86 8.16, 7.86 8.16, 7.86 8.16 M7.86 8.16 C7.86 8.16, 7.86 8.16, 7.86 8.16 M3.66 19.09 C6.13 16.2, 8.6 12.57, 18.1 2.48 M3.66 19.09 C6.04 15.78, 10.79 11.5, 18.1 2.48 M2.75 26.24 C8.31 17.53, 16.31 10.19, 24.4 1.33 M2.75 26.24 C9.4 18.24, 17.18 10.37, 24.4 1.33 M2.48 32.64 C7.16 27.73, 13.97 18.98, 30.7 0.18 M2.48 32.64 C12.76 20.13, 23.9 8.54, 30.7 0.18 M2.88 38.28 C10.6 29.59, 16.37 23.08, 34.37 2.05 M2.88 38.28 C11.62 29.05, 19.4 19.21, 34.37 2.05 M2.62 44.68 C14.01 31.1, 23.55 21.08, 39.36 2.41 M2.62 44.68 C14.41 30.73, 28.24 15.02, 39.36 2.41 M2.36 51.07 C16.68 34.33, 31.81 16.07, 45 2.02 M2.36 51.07 C12.33 38.55, 24.49 26.11, 45 2.02 M2.75 56.72 C22.57 36.67, 38.77 15.17, 49.99 2.38 M2.75 56.72 C16.6 41.74, 29.62 26.71, 49.99 2.38 M2.49 63.11 C15.26 53.05, 22.82 37.66, 55.63 1.98 M2.49 63.11 C14.71 48.2, 29.12 33.42, 55.63 1.98 M2.88 68.76 C18.1 50.16, 34.79 34.59, 60.62 2.34 M2.88 68.76 C16.1 52.76, 30.51 35.31, 60.62 2.34 M2.62 75.16 C15.8 61.82, 28.02 43.49, 66.26 1.95 M2.62 75.16 C23.84 52.65, 43.67 30.06, 66.26 1.95 M2.36 81.55 C25.99 53.09, 53.72 24.19, 71.25 2.31 M2.36 81.55 C25.63 55.39, 47.73 27.58, 71.25 2.31 M2.76 87.2 C28.94 56.99, 55.27 27.42, 76.89 1.91 M2.76 87.2 C31.36 55.09, 59.38 22.26, 76.89 1.91 M2.49 93.59 C34.01 61.26, 62.47 26.51, 81.88 2.27 M2.49 93.59 C33.31 57.77, 65.45 21.1, 81.88 2.27 M2.89 99.24 C25.57 74.27, 46.6 50.25, 87.52 1.88 M2.89 99.24 C26.25 70.97, 50.8 44.45, 87.52 1.88 M2.63 105.64 C30.04 72.84, 58.94 41.8, 92.51 2.24 M2.63 105.64 C24.41 77.77, 48.26 53.13, 92.51 2.24 M2.37 112.03 C38.13 68.2, 78.37 23.59, 98.15 1.85 M2.37 112.03 C31.51 78.77, 59.45 45.47, 98.15 1.85 M2.76 117.68 C24.25 92.89, 43.63 67.81, 103.14 2.21 M2.76 117.68 C34.3 82.38, 64.52 46.75, 103.14 2.21 M2.5 124.07 C38.6 85.54, 73.92 44.79, 108.78 1.81 M2.5 124.07 C43.7 75.21, 87.19 24.93, 108.78 1.81 M2.89 129.72 C24.11 104.49, 46.71 78.43, 113.77 2.17 M2.89 129.72 C44.04 84.25, 85.4 37.33, 113.77 2.17 M2.63 136.11 C44.27 89.11, 82.22 44.41, 119.41 1.78 M2.63 136.11 C29.22 104.72, 56.4 73.28, 119.41 1.78 M2.37 142.51 C41.72 98.6, 79.01 56.94, 124.4 2.14 M2.37 142.51 C48.78 90.2, 92.05 38.66, 124.4 2.14 M2.77 148.16 C40.52 102.88, 75.78 61.11, 130.04 1.74 M2.77 148.16 C46.25 100.51, 89.1 51.26, 130.04 1.74 M2.5 154.55 C50.77 99.91, 101.23 42.57, 135.03 2.1 M2.5 154.55 C38.56 114.85, 74.17 75.25, 135.03 2.1 M2.9 160.2 C31.8 125.11, 58.33 93.11, 140.67 1.71 M2.9 160.2 C45.58 112.72, 88.02 64.23, 140.67 1.71 M2.64 166.59 C51.5 109.41, 97.34 53.92, 145.66 2.07 M2.64 166.59 C55.52 104.4, 109.24 42.28, 145.66 2.07 M2.38 172.99 C45.48 120.15, 91.87 71.98, 150.65 2.43 M2.38 172.99 C34.85 135.55, 69.99 96.16, 150.65 2.43 M2.77 178.64 C41.97 134.09, 80.34 92.9, 156.29 2.03 M2.77 178.64 C62.9 109.36, 124.15 38.38, 156.29 2.03 M2.51 185.03 C56.03 122.22, 111.01 58.77, 161.28 2.39 M2.51 185.03 C46.25 135.44, 88.02 87.54, 161.28 2.39 M3.56 189.92 C64.41 122.47, 122.78 53.5, 166.92 2 M3.56 189.92 C37.48 152.88, 71.09 113.21, 166.92 2 M5.27 194.05 C55.16 138.96, 102.11 84.84, 171.91 2.36 M5.27 194.05 C49.24 145.24, 91.7 95.07, 171.91 2.36 M6.97 198.19 C50.33 149.07, 96.98 96.38, 177.55 1.96 M6.97 198.19 C49.67 147.29, 93.64 96.91, 177.55 1.96 M9.99 200.81 C51.16 153.31, 92.7 103.92, 182.54 2.32 M9.99 200.81 C64.31 135.88, 120.87 72.35, 182.54 2.32 M13.01 203.44 C76.38 132.88, 137.75 58.2, 188.18 1.93 M13.01 203.44 C79.22 127.81, 145.79 51.16, 188.18 1.93 M16.69 205.31 C71.58 143.92, 125.91 79.35, 193.17 2.29 M16.69 205.31 C63.97 153.62, 109.02 102.13, 193.17 2.29 M21.02 206.42 C88.78 131.55, 154.93 56.01, 198.81 1.9 M21.02 206.42 C90.57 128.36, 159.81 48.84, 198.81 1.9 M24.69 208.29 C89.08 135.68, 154.77 61.81, 203.8 2.26 M24.69 208.29 C85.14 138.26, 144.25 69.23, 203.8 2.26 M30.33 207.9 C77.41 152.62, 123.44 100.07, 209.44 1.86 M30.33 207.9 C77.13 153.21, 126.66 98.89, 209.44 1.86 M34.01 209.77 C74.7 164.28, 112.9 122.27, 214.43 2.22 M34.01 209.77 C90.37 146.52, 146.06 83.32, 214.43 2.22 M39 210.13 C91.85 152.09, 144.98 90.32, 220.07 1.83 M39 210.13 C108.42 129.17, 178.73 49.2, 220.07 1.83 M44.64 209.73 C98.42 148.52, 150.26 88.18, 225.06 2.19 M44.64 209.73 C82.78 169.71, 119.66 126.8, 225.06 2.19 M49.63 210.09 C115.14 132.99, 180.91 59.53, 230.7 1.79 M49.63 210.09 C101.79 150.51, 152.55 90.64, 230.7 1.79 M55.27 209.7 C120.7 136.26, 186.83 59.6, 235.69 2.15 M55.27 209.7 C116.07 138.64, 175.69 69.96, 235.69 2.15 M60.26 210.06 C111.55 154.77, 162.34 96.27, 241.33 1.76 M60.26 210.06 C111.88 148.16, 165.99 86.87, 241.33 1.76 M65.9 209.66 C135.52 128.9, 205.12 50.33, 246.32 2.12 M65.9 209.66 C115.74 149.65, 168.17 88.91, 246.32 2.12 M70.89 210.02 C124.2 148.89, 176.4 89.74, 251.96 1.72 M70.89 210.02 C126.55 146.68, 183.16 82.91, 251.96 1.72 M76.53 209.63 C127.17 149.94, 177.49 91.27, 256.95 2.08 M76.53 209.63 C135.27 140.36, 194.53 71.87, 256.95 2.08 M81.52 209.99 C144.85 136.64, 207.41 66.93, 263.25 0.93 M81.52 209.99 C120.48 166.94, 158.13 123.71, 263.25 0.93 M87.16 209.59 C148.57 134.66, 210.73 64.72, 268.23 1.29 M87.16 209.59 C157.04 126, 228.69 42.71, 268.23 1.29 M92.15 209.95 C136.4 157.67, 178.69 109.05, 271.91 3.16 M92.15 209.95 C136.22 160.14, 179.68 109.07, 271.91 3.16 M97.79 209.56 C142.95 157.89, 185.65 107.44, 276.24 4.28 M97.79 209.56 C155.21 144.07, 210.37 78.58, 276.24 4.28 M102.78 209.92 C150.22 158.16, 193.83 105, 280.57 5.39 M102.78 209.92 C151.03 154.52, 198.45 100.04, 280.57 5.39 M108.42 209.52 C147.77 166.15, 187.44 120.47, 284.24 7.26 M108.42 209.52 C175.96 131.08, 243.76 53.1, 284.24 7.26 M113.41 209.88 C174.95 141.68, 234.02 70.1, 287.26 9.89 M113.41 209.88 C159.19 155.46, 207.96 99.52, 287.26 9.89 M119.05 209.49 C167.84 154.06, 217.16 98.66, 289.63 13.27 M119.05 209.49 C183.58 135.63, 248.52 61.1, 289.63 13.27 M124.04 209.85 C179.57 146.67, 238.22 83.59, 291.99 16.64 M124.04 209.85 C169.41 157.45, 215.16 105.79, 291.99 16.64 M129.68 209.46 C166.1 169.87, 201.3 128.59, 294.35 20.02 M129.68 209.46 C188.68 142.75, 247.77 75.24, 294.35 20.02 M134.67 209.82 C183.44 156.9, 229.62 99.87, 295.4 24.91 M134.67 209.82 C168.65 172.16, 202.98 132.14, 295.4 24.91 M140.31 209.42 C197.6 143.98, 254 79.03, 294.48 32.06 M140.31 209.42 C179.23 165.58, 219.19 120.85, 294.48 32.06 M145.3 209.78 C177.96 169.2, 211.52 133.71, 294.22 38.46 M145.3 209.78 C182.46 165.3, 221.15 121.81, 294.22 38.46 M150.94 209.39 C191.31 163.04, 227.48 120.81, 294.62 44.11 M150.94 209.39 C190.23 164.92, 230.96 118.81, 294.62 44.11 M155.93 209.75 C204.64 158.01, 247.83 104.42, 294.36 50.5 M155.93 209.75 C202.84 158.65, 248.37 105.11, 294.36 50.5 M160.91 210.11 C188.8 175.72, 220.1 141.67, 294.09 56.9 M160.91 210.11 C203.74 160.62, 245.5 113.34, 294.09 56.9 M166.56 209.71 C210.94 158.95, 254.05 109.92, 294.49 62.54 M166.56 209.71 C208.84 161.39, 251.75 114.35, 294.49 62.54 M171.54 210.07 C208.44 168.36, 243.65 129.68, 294.23 68.94 M171.54 210.07 C213.71 161.63, 255.84 113.46, 294.23 68.94 M177.19 209.68 C202.32 177.03, 229.31 146.84, 294.62 74.58 M177.19 209.68 C215.52 163.03, 256.71 117.8, 294.62 74.58 M182.17 210.04 C218.75 169.95, 254.6 127.97, 294.36 80.98 M182.17 210.04 C226.45 159.13, 271.19 108.65, 294.36 80.98 M187.82 209.64 C216.89 179.38, 243.47 144.97, 294.1 87.38 M187.82 209.64 C212.47 181.96, 234.93 156.19, 294.1 87.38 M192.8 210 C224.59 174.56, 257.18 134.53, 294.49 93.02 M192.8 210 C213.16 183.97, 235.7 159.53, 294.49 93.02 M198.45 209.61 C232.07 174.19, 262.28 133.35, 294.23 99.42 M198.45 209.61 C219.16 185.64, 239.69 163.28, 294.23 99.42 M203.43 209.97 C228.75 179.84, 256.16 152.6, 294.63 105.06 M203.43 209.97 C238.29 169.18, 273.46 128.35, 294.63 105.06 M209.08 209.57 C233.4 184.54, 257.43 155.32, 294.37 111.46 M209.08 209.57 C237.58 177.18, 264.22 143.56, 294.37 111.46 M214.07 209.93 C240.99 176.25, 271.51 143.85, 294.1 117.86 M214.07 209.93 C246.68 171.9, 277.82 135.99, 294.1 117.86 M219.71 209.54 C244.71 178.92, 268.86 151.03, 294.5 123.5 M219.71 209.54 C247.38 177.82, 275.33 144.25, 294.5 123.5 M224.7 209.9 C244.12 184.25, 266.37 163.27, 294.24 129.9 M224.7 209.9 C238.88 191.71, 253.17 176.03, 294.24 129.9 M230.34 209.51 C245.56 191.35, 265.04 172.21, 294.63 135.54 M230.34 209.51 C249.54 186.99, 270.25 164.68, 294.63 135.54 M235.33 209.87 C258.48 185.56, 279.94 157.85, 294.37 141.94 M235.33 209.87 C249.03 192.74, 265.57 176.13, 294.37 141.94 M240.97 209.47 C256.1 191.66, 269.12 178.86, 294.11 148.34 M240.97 209.47 C255.94 193.04, 270.62 173.99, 294.11 148.34 M245.96 209.83 C259.45 195.2, 273.51 179.26, 294.5 153.98 M245.96 209.83 C258.87 196.21, 270.55 181.18, 294.5 153.98 M251.6 209.44 C259.28 199.14, 270.43 188.41, 294.24 160.38 M251.6 209.44 C261.14 197.56, 272.46 185.18, 294.24 160.38 M256.59 209.8 C266.54 200.46, 273.85 188.84, 293.98 166.78 M256.59 209.8 C271.07 193.89, 285.46 177.2, 293.98 166.78 M262.88 208.65 C272.89 198.12, 284.14 186.47, 294.38 172.42 M262.88 208.65 C270.92 199.43, 279.94 188.4, 294.38 172.42 M269.18 207.5 C275.13 198.77, 285.21 190.87, 295.43 177.31 M269.18 207.5 C278.72 197.64, 287.2 188.48, 295.43 177.31 M274.83 207.1 C282.1 199.79, 289.39 190.86, 294.51 184.46 M274.83 207.1 C279.42 200.81, 285.7 194.33, 294.51 184.46" stroke="#40c057" stroke-width="0.5" fill="none"></path><path d="M32 0 M32 0 C83.54 -1.97, 131.89 -1.13, 262 0 M32 0 C88.54 -0.01, 145.76 -1.44, 262 0 M262 0 C281.4 -0.84, 293.73 11.89, 294 32 M262 0 C284.42 -0.38, 292.57 10.8, 294 32 M294 32 C293.49 88.06, 292.75 144.01, 294 176 M294 32 C292.34 61.97, 292.28 93.17, 294 176 M294 176 C292.55 197.5, 282.78 209.19, 262 208 M294 176 C293.47 197.05, 283.15 207.79, 262 208 M262 208 C177.72 210.05, 94.28 211, 32 208 M262 208 C208.82 206.83, 154.62 206.56, 32 208 M32 208 C10.95 209.73, 1.62 195.85, 0 176 M32 208 C8.67 209.12, -0.72 198.75, 0 176 M0 176 C-0.45 143.9, 1.67 112.49, 0 32 M0 176 C-1.09 127.83, -1.05 78.6, 0 32 M0 32 C0.34 10.69, 10.3 0.89, 32 0 M0 32 C0.28 9.63, 10.15 0.99, 32 0" stroke="#000000" stroke-width="1" fill="none"></path></g><g transform="translate(3096.120769101147 868.0321078157356) rotate(0 118.2822265625 32.19999999999999)"><text x="118.2822265625" y="0" font-family="Helvetica, Segoe UI Emoji" font-size="28px" fill="#000000" text-anchor="middle" style="white-space: pre;" direction="ltr" dominant-baseline="text-before-edge">OpenID key</text><text x="118.2822265625" y="32.199999999999996" font-family="Helvetica, Segoe UI Emoji" font-size="28px" fill="#000000" text-anchor="middle" style="white-space: pre;" direction="ltr" dominant-baseline="text-before-edge">IGuardSignerVerify</text></g><g stroke-linecap="round" transform="translate(3066.646941829211 1046.4047487704936) rotate(0 155 120)"><path d="M7.86 8.16 C7.86 8.16, 7.86 8.16, 7.86 8.16 M7.86 8.16 C7.86 8.16, 7.86 8.16, 7.86 8.16 M3.66 19.09 C6.14 16.13, 10.74 11.59, 18.1 2.48 M3.66 19.09 C7.84 14.33, 13.54 7.28, 18.1 2.48 M2.75 26.24 C10.38 21.3, 16.45 12.54, 24.4 1.33 M2.75 26.24 C11.61 17.67, 18 6.75, 24.4 1.33 M2.48 32.64 C13.11 23.49, 21.83 9.26, 30.7 0.18 M2.48 32.64 C8.79 24.28, 15.68 16.56, 30.7 0.18 M2.88 38.28 C13.41 23.99, 27.05 9.88, 34.37 2.05 M2.88 38.28 C10.86 29.96, 18.7 20.62, 34.37 2.05 M2.62 44.68 C14.14 29.83, 27.13 18.94, 39.36 2.41 M2.62 44.68 C12.11 35.72, 20.57 25.66, 39.36 2.41 M2.36 51.07 C11.31 39.58, 20.28 28.34, 45 2.02 M2.36 51.07 C13.37 37.08, 26.67 24.12, 45 2.02 M2.75 56.72 C18.26 37.41, 38.29 15.63, 49.99 2.38 M2.75 56.72 C20.73 37.29, 36.89 16.12, 49.99 2.38 M2.49 63.11 C19.08 46.62, 35.64 27.97, 55.63 1.98 M2.49 63.11 C15.67 45.18, 31.42 29.17, 55.63 1.98 M2.23 69.51 C17.85 54.24, 29.91 35.24, 60.62 2.34 M2.23 69.51 C18.69 50, 35.22 30.64, 60.62 2.34 M2.62 75.16 C26.01 48.81, 47.91 24.79, 66.26 1.95 M2.62 75.16 C20.13 55.79, 35.81 36.28, 66.26 1.95 M2.36 81.55 C27.06 53.91, 51.2 25.79, 71.25 2.31 M2.36 81.55 C29.79 50.08, 58.3 19.19, 71.25 2.31 M2.76 87.2 C32.25 54, 62.71 17.47, 76.89 1.91 M2.76 87.2 C31.8 53.8, 59.53 20.13, 76.89 1.91 M2.49 93.59 C19.46 71.9, 35.66 51.69, 81.88 2.27 M2.49 93.59 C25.41 66.52, 47.59 42.47, 81.88 2.27 M2.23 99.99 C33.69 65.39, 62.58 28.15, 87.52 1.88 M2.23 99.99 C21.39 78.86, 41.33 56.71, 87.52 1.88 M2.63 105.64 C36.83 68.93, 71.56 29.77, 92.51 2.24 M2.63 105.64 C27.48 76.15, 53.62 46.81, 92.51 2.24 M2.37 112.03 C26.48 85.87, 47.13 61.45, 98.15 1.85 M2.37 112.03 C24.06 85.37, 44.73 60.56, 98.15 1.85 M2.1 118.43 C35.65 83.38, 67.45 44.97, 103.14 2.21 M2.1 118.43 C34.37 79.38, 68.38 41.32, 103.14 2.21 M2.5 124.07 C28.21 93.16, 53.24 64.51, 108.78 1.81 M2.5 124.07 C40.43 82.47, 75.88 39.25, 108.78 1.81 M2.24 130.47 C36.9 89.14, 71.08 49.36, 113.77 2.17 M2.24 130.47 C36.63 88.88, 71.99 48.41, 113.77 2.17 M2.63 136.11 C47.19 83.08, 91.75 31.34, 119.41 1.78 M2.63 136.11 C46.13 84.88, 90.92 33.64, 119.41 1.78 M2.37 142.51 C28.54 107.9, 60.23 77.56, 124.4 2.14 M2.37 142.51 C40.85 96.87, 78.79 53.34, 124.4 2.14 M2.11 148.91 C31.9 114.27, 64.51 78.43, 130.04 1.74 M2.11 148.91 C29.07 119.66, 54.43 88.54, 130.04 1.74 M2.5 154.55 C40.95 110.02, 84.67 60.7, 135.03 2.1 M2.5 154.55 C50.07 99.27, 97.51 43.42, 135.03 2.1 M2.24 160.95 C47.24 107.12, 92.54 53.68, 140.67 1.71 M2.24 160.95 C54.4 102.16, 104.56 42.02, 140.67 1.71 M1.98 167.35 C52.48 109.27, 103.22 48.4, 145.66 2.07 M1.98 167.35 C38.87 125.07, 74.68 81.21, 145.66 2.07 M2.38 172.99 C36.15 133.99, 68.97 95.73, 150.65 2.43 M2.38 172.99 C46.94 121.94, 92.96 70.67, 150.65 2.43 M2.11 179.39 C58.86 115.1, 114.79 50.56, 156.29 2.03 M2.11 179.39 C34.6 141.87, 64.63 106.94, 156.29 2.03 M2.51 185.03 C66.01 114.01, 124.26 43.94, 161.28 2.39 M2.51 185.03 C48.86 130.26, 94.55 76.64, 161.28 2.39 M2.25 191.43 C48.66 135.86, 99.14 78.63, 166.92 2 M2.25 191.43 C58.58 126.57, 113.21 63.54, 166.92 2 M1.99 197.83 C58.46 130.59, 114.33 65.2, 171.91 2.36 M1.99 197.83 C52.7 137.3, 105.3 77.3, 171.91 2.36 M2.38 203.47 C58.11 140.39, 112.21 78.72, 177.55 1.96 M2.38 203.47 C70.62 125.77, 138.69 45.41, 177.55 1.96 M2.12 209.87 C53.1 149.49, 106.46 89.81, 182.54 2.32 M2.12 209.87 C72.81 129.96, 141.49 49.76, 182.54 2.32 M3.17 214.76 C62.2 143.77, 124.64 75.5, 188.18 1.93 M3.17 214.76 C52.64 156.89, 102.44 98.33, 188.18 1.93 M2.25 221.91 C69.28 145.85, 136.12 71.42, 193.17 2.29 M2.25 221.91 C45.13 170.92, 89.48 120.4, 193.17 2.29 M3.96 226.04 C54.43 170.87, 101.57 113.25, 198.81 1.9 M3.96 226.04 C50.7 172.04, 96.69 119.19, 198.81 1.9 M6.32 229.42 C57.5 172.26, 109.25 114.47, 203.8 2.26 M6.32 229.42 C51.52 177.76, 97.96 124.82, 203.8 2.26 M8.68 232.8 C84.75 145.83, 156.4 63.01, 209.44 1.86 M8.68 232.8 C75.2 154.76, 142.77 77.45, 209.44 1.86 M12.36 234.67 C72.45 170.86, 130.21 104.62, 214.43 2.22 M12.36 234.67 C59.08 180.39, 107.23 126.46, 214.43 2.22 M16.03 236.54 C85.19 158.49, 153.76 80.41, 220.07 1.83 M16.03 236.54 C93.26 147.51, 170.49 58.18, 220.07 1.83 M19.05 239.17 C90.95 158.52, 162.12 77.72, 225.06 2.19 M19.05 239.17 C94.28 151.91, 171.12 64.06, 225.06 2.19 M24.04 239.53 C103.44 148.6, 181.85 57.87, 230.7 1.79 M24.04 239.53 C98.68 152.88, 172.9 67.87, 230.7 1.79 M28.37 240.64 C78.2 184.69, 127.25 127.03, 235.69 2.15 M28.37 240.64 C75.72 185.84, 123.78 129.43, 235.69 2.15 M33.36 241 C103.04 159.35, 176.98 77.55, 241.33 1.76 M33.36 241 C78.47 186.75, 124.88 132.92, 241.33 1.76 M38.35 241.36 C92.33 181.14, 145.01 117.46, 246.32 2.12 M38.35 241.36 C99.26 171.86, 159.43 101.95, 246.32 2.12 M43.99 240.97 C86.43 191.17, 126.86 143.89, 251.96 1.72 M43.99 240.97 C109.19 164.51, 173.93 90.12, 251.96 1.72 M48.98 241.33 C120.78 158.61, 193.07 73.92, 256.95 2.08 M48.98 241.33 C107.94 173.24, 166.52 104.53, 256.95 2.08 M54.62 240.93 C121.76 162.05, 191.06 83.32, 262.59 1.69 M54.62 240.93 C119.36 164.66, 185.7 88.5, 262.59 1.69 M59.61 241.29 C132.64 156.35, 203.93 72.06, 267.58 2.05 M59.61 241.29 C106.93 185.68, 154.2 132.52, 267.58 2.05 M65.25 240.9 C126.08 172.6, 185.33 106.58, 272.56 2.41 M65.25 240.9 C131.83 163.25, 197.57 87.15, 272.56 2.41 M70.24 241.26 C151.99 150.48, 230.05 59.16, 278.86 1.26 M70.24 241.26 C111.03 192.18, 152.63 143.7, 278.86 1.26 M75.88 240.86 C155.49 149.72, 234.01 56.63, 283.85 1.62 M75.88 240.86 C149.06 152.33, 225.04 66.24, 283.85 1.62 M80.87 241.22 C129.13 185.19, 177.97 130.11, 288.84 1.98 M80.87 241.22 C158.67 152.95, 234.96 64.18, 288.84 1.98 M86.51 240.83 C159.97 157.74, 231.55 74.29, 293.17 3.09 M86.51 240.83 C141.16 177.74, 194.41 115.41, 293.17 3.09 M91.5 241.19 C170.35 152.08, 247.53 62.96, 296.84 4.96 M91.5 241.19 C163.35 156.99, 235.94 74.67, 296.84 4.96 M97.14 240.79 C150.35 182.17, 203.22 122.7, 299.86 7.59 M97.14 240.79 C139.01 192.35, 180.47 144.62, 299.86 7.59 M102.13 241.15 C173.74 158.17, 246.24 72.49, 303.54 9.46 M102.13 241.15 C153.07 183.94, 202.29 126.96, 303.54 9.46 M107.77 240.76 C179.02 154.21, 253.06 70.82, 305.9 12.84 M107.77 240.76 C179.53 160.54, 248.87 78.77, 305.9 12.84 M112.76 241.12 C152.14 193.49, 195.52 148.25, 307.61 16.97 M112.76 241.12 C159.7 187.85, 205.45 134.37, 307.61 16.97 M117.74 241.48 C179.4 167, 244.18 93.27, 309.97 20.35 M117.74 241.48 C166.65 187.74, 213.19 133.3, 309.97 20.35 M123.39 241.08 C170.12 190.6, 215 138.41, 311.02 25.24 M123.39 241.08 C190.32 162.72, 258.12 85.59, 311.02 25.24 M128.37 241.44 C193.36 163.71, 261.52 87.19, 310.1 32.39 M128.37 241.44 C196.01 163.93, 265.74 83.85, 310.1 32.39 M134.02 241.05 C174.25 197.48, 212.17 151.56, 310.5 38.03 M134.02 241.05 C193.28 175.31, 250.8 108.81, 310.5 38.03 M139 241.41 C185.3 191.3, 230.52 137.9, 310.23 44.43 M139 241.41 C177.65 196.06, 217.98 150.17, 310.23 44.43 M144.65 241.02 C183.98 196.23, 222.26 156.15, 309.97 50.83 M144.65 241.02 C201.28 177.01, 256.03 114.45, 309.97 50.83 M149.63 241.38 C183 202.8, 215.31 163.85, 310.37 56.47 M149.63 241.38 C191.6 193.58, 233.28 145.94, 310.37 56.47 M155.28 240.98 C213.5 170.06, 276.01 100.01, 310.11 62.87 M155.28 240.98 C192.37 197.66, 228.18 156.06, 310.11 62.87 M160.26 241.34 C214.28 181.98, 264.83 121.71, 310.5 68.51 M160.26 241.34 C199.4 195.32, 241.11 148.35, 310.5 68.51 M165.91 240.95 C212.73 184.52, 259.5 131.62, 310.24 74.91 M165.91 240.95 C216.77 179.91, 269.84 121.08, 310.24 74.91 M170.89 241.31 C200.16 207.37, 229.34 175.48, 309.98 81.31 M170.89 241.31 C207.49 197.33, 244.62 154.98, 309.98 81.31 M176.54 240.91 C221.31 190.22, 267.58 136.43, 310.37 86.95 M176.54 240.91 C218.56 191.75, 260.28 142.54, 310.37 86.95 M181.52 241.27 C220.9 193.84, 259.32 148.48, 310.11 93.35 M181.52 241.27 C206.68 211.43, 232.78 181.55, 310.11 93.35 M187.17 240.88 C213.2 212.45, 237.02 181.54, 310.51 98.99 M187.17 240.88 C234.75 186.84, 280.72 132.3, 310.51 98.99 M192.15 241.24 C230.79 193.83, 273.22 147.13, 310.24 105.39 M192.15 241.24 C218.89 209.34, 246.44 179.94, 310.24 105.39 M197.8 240.84 C239.41 193.47, 280.17 148.38, 309.98 111.79 M197.8 240.84 C228.44 201.68, 261.39 165.01, 309.98 111.79 M202.78 241.2 C239.81 196.8, 281.57 151.65, 310.38 117.43 M202.78 241.2 C228.09 212.05, 253.33 181.07, 310.38 117.43 M208.43 240.81 C243.89 200.58, 280.08 158.17, 310.12 123.83 M208.43 240.81 C235.31 209.1, 263.05 177.92, 310.12 123.83 M213.41 241.17 C234.69 215.3, 257.26 191.16, 310.51 129.47 M213.41 241.17 C245.6 205.18, 276.11 169.76, 310.51 129.47 M219.06 240.77 C251.7 201.9, 288.04 161.63, 310.25 135.87 M219.06 240.77 C238.72 216.87, 259.37 194.1, 310.25 135.87 M224.04 241.13 C252.87 210.13, 282.27 176.2, 309.99 142.27 M224.04 241.13 C251.7 210.1, 278.03 178.43, 309.99 142.27 M229.69 240.74 C257.44 207.13, 284.32 176.87, 310.38 147.91 M229.69 240.74 C254.02 214.97, 275.8 189.02, 310.38 147.91 M234.67 241.1 C260.72 212.64, 281.86 185.45, 310.12 154.31 M234.67 241.1 C254.15 218.44, 272.85 195.78, 310.12 154.31 M239.66 241.46 C268.65 207.94, 296.66 177.71, 310.52 159.95 M239.66 241.46 C259.99 216.93, 282.54 192.86, 310.52 159.95 M245.3 241.06 C265.84 214.08, 290.54 189.37, 310.25 166.35 M245.3 241.06 C268.66 214.22, 290.74 188.93, 310.25 166.35 M250.29 241.42 C272.26 216.58, 295.03 191.85, 309.99 172.75 M250.29 241.42 C273.57 214.92, 297.37 187.61, 309.99 172.75 M255.93 241.03 C276.8 219.96, 294.28 197.1, 310.39 178.39 M255.93 241.03 C273.16 221.15, 291.85 199.73, 310.39 178.39 M260.92 241.39 C269.61 230.32, 281.74 216.21, 310.13 184.79 M260.92 241.39 C275.36 223.18, 291.29 206.73, 310.13 184.79 M266.56 241 C281.14 224.79, 292.93 207.78, 310.52 190.43 M266.56 241 C282.34 223.36, 298.15 205.4, 310.52 190.43 M271.55 241.36 C281.64 228.81, 293.54 216.18, 310.26 196.83 M271.55 241.36 C284.69 225.98, 297.83 211.85, 310.26 196.83 M277.85 240.21 C289.21 227.74, 299.34 217.71, 310 203.23 M277.85 240.21 C289.4 227.19, 299.21 214.38, 310 203.23 M284.15 239.06 C290.87 229.33, 301.25 219.89, 310.39 208.87 M284.15 239.06 C293.27 228, 303.63 217.36, 310.39 208.87 M289.79 238.66 C294.18 234.83, 298.23 226.43, 309.47 216.02 M289.79 238.66 C297.51 230.5, 303.87 222.1, 309.47 216.02 M294.12 239.78 C296.98 235.55, 303.22 232.46, 309.21 222.42 M294.12 239.78 C297.26 236.83, 300.14 233.66, 309.21 222.42" stroke="#40c057" stroke-width="0.5" fill="none"></path><path d="M32 0 M32 0 C126.83 0.08, 221.95 1.22, 278 0 M32 0 C105.63 0.18, 179.48 0.9, 278 0 M278 0 C298.59 1.58, 311.19 10.18, 310 32 M278 0 C297.81 0.35, 309.74 11.1, 310 32 M310 32 C311.41 97.85, 310.86 161.98, 310 208 M310 32 C311.75 70.3, 311.56 109.28, 310 208 M310 208 C309.1 228.56, 299.66 238, 278 240 M310 208 C307.79 231.14, 299.93 241.09, 278 240 M278 240 C226.21 242.28, 175.08 241.28, 32 240 M278 240 C216.89 240.79, 155.29 241.13, 32 240 M32 240 C8.7 239.06, 1.63 230.81, 0 208 M32 240 C11.76 239.97, -2.2 229.71, 0 208 M0 208 C-1.09 161.29, -2.02 118.34, 0 32 M0 208 C0.08 169.38, 0.41 130.04, 0 32 M0 32 C-0.01 10.5, 10.97 -1.37, 32 0 M0 32 C-1.92 10.17, 10.65 -0.85, 32 0" stroke="#000000" stroke-width="1" fill="none"></path></g><g transform="translate(3103.364715266711 1134.2047487704936) rotate(0 118.2822265625 32.199999999999996)"><text x="118.2822265625" y="0" font-family="Helvetica, Segoe UI Emoji" font-size="28px" fill="#000000" text-anchor="middle" style="white-space: pre;" direction="ltr" dominant-baseline="text-before-edge">Email key</text><text x="118.2822265625" y="32.199999999999996" font-family="Helvetica, Segoe UI Emoji" font-size="28px" fill="#000000" text-anchor="middle" style="white-space: pre;" direction="ltr" dominant-baseline="text-before-edge">IGuardSignerVerify</text></g><g stroke-linecap="round"><g transform="translate(2594.412008233833 922.6121118985823) rotate(0 235.70051405353422 -13.867322703695393)"><path d="M0.59 -0.44 C79.39 -5.02, 393.4 -22.92, 471.97 -27.29 M-0.57 -1.72 C78.15 -6.2, 392.38 -22.27, 471.01 -26.24" stroke="#000000" stroke-width="1" fill="none"></path></g><g transform="translate(2594.412008233833 922.6121118985823) rotate(0 235.70051405353422 -13.867322703695393)"><path d="M442.64 -14.6 C448.15 -17.41, 455.51 -20.93, 469.28 -28.05 M444 -15.05 C448.88 -17.83, 455.01 -18.82, 470.09 -25.56" stroke="#000000" stroke-width="1" fill="none"></path></g><g transform="translate(2594.412008233833 922.6121118985823) rotate(0 235.70051405353422 -13.867322703695393)"><path d="M441.59 -35.09 C447.37 -33.21, 454.98 -32.03, 469.28 -28.05 M442.95 -35.54 C448.19 -34.02, 454.55 -30.71, 470.09 -25.56" stroke="#000000" stroke-width="1" fill="none"></path></g></g><mask></mask><g stroke-linecap="round"><g transform="translate(2594.412008233833 992.7326658895255) rotate(0 235.8534971376506 79.86654059683228)"><path d="M0.34 1.12 C78.89 27.81, 392.04 133.01, 470.38 159.07 M-0.94 0.66 C78.07 27.1, 393.68 131.05, 472.65 157.34" stroke="#000000" stroke-width="1" fill="none"></path></g><g transform="translate(2594.412008233833 992.7326658895255) rotate(0 235.8534971376506 79.86654059683228)"><path d="M444.53 156.81 C450.58 156.58, 454.62 159.57, 473.98 158.45 M442.79 157.55 C450.59 158.54, 458.33 158.4, 472.6 157.67" stroke="#000000" stroke-width="1" fill="none"></path></g><g transform="translate(2594.412008233833 992.7326658895255) rotate(0 235.8534971376506 79.86654059683228)"><path d="M450.98 137.33 C455.42 141.44, 458.03 148.77, 473.98 158.45 M449.24 138.07 C455.28 143.84, 461.44 148.48, 472.6 157.67" stroke="#000000" stroke-width="1" fill="none"></path></g></g><mask></mask><g stroke-linecap="round" transform="translate(2787.6179852364385 10) rotate(0 141 104)"><path d="M7.86 8.16 C7.86 8.16, 7.86 8.16, 7.86 8.16 M7.86 8.16 C7.86 8.16, 7.86 8.16, 7.86 8.16 M3.66 19.09 C8.41 13.75, 14.71 8.17, 18.1 2.48 M3.66 19.09 C7.58 15.09, 9.83 11.87, 18.1 2.48 M2.75 26.24 C10.53 17.2, 17.4 6.93, 24.4 1.33 M2.75 26.24 C8.88 18.71, 14.46 11.6, 24.4 1.33 M2.48 32.64 C9.9 22.46, 19.8 13.67, 30.7 0.18 M2.48 32.64 C13.18 21.24, 22.67 9.08, 30.7 0.18 M2.88 38.28 C8.86 31.93, 17.97 22.06, 34.37 2.05 M2.88 38.28 C11.47 29.18, 19.06 19.76, 34.37 2.05 M2.62 44.68 C14.21 34.76, 21.65 22.21, 39.36 2.41 M2.62 44.68 C11.77 35.5, 19.56 24.99, 39.36 2.41 M2.36 51.07 C12.99 38.89, 23.69 26.41, 45 2.02 M2.36 51.07 C12.65 38.04, 25.72 25.07, 45 2.02 M2.75 56.72 C11.66 45.05, 23.76 34.92, 49.99 2.38 M2.75 56.72 C12.78 45.27, 22.76 32.5, 49.99 2.38 M2.49 63.11 C15.16 46.9, 28.87 31.67, 55.63 1.98 M2.49 63.11 C15.37 48.63, 29.48 33.3, 55.63 1.98 M2.23 69.51 C20.95 48.38, 43.44 22.72, 60.62 2.34 M2.23 69.51 C24.7 42.94, 46.71 16.81, 60.62 2.34 M2.62 75.16 C19.55 57.55, 34.55 38.52, 66.26 1.95 M2.62 75.16 C17.21 55.88, 32.82 40.01, 66.26 1.95 M2.36 81.55 C21.42 59.47, 41.18 38.08, 71.25 2.31 M2.36 81.55 C17.57 64.74, 32.78 47.7, 71.25 2.31 M2.76 87.2 C26.86 59.56, 46.7 37.71, 76.89 1.91 M2.76 87.2 C23.02 64.19, 44.46 39.42, 76.89 1.91 M2.49 93.59 C28.47 64.55, 54.63 34.31, 81.88 2.27 M2.49 93.59 C23.56 69.77, 44.77 45.24, 81.88 2.27 M2.23 99.99 C27.42 69.79, 55.33 39.11, 87.52 1.88 M2.23 99.99 C30.91 67.14, 59.12 34.66, 87.52 1.88 M2.63 105.64 C20.49 83.43, 39.16 61.18, 92.51 2.24 M2.63 105.64 C28.15 74.92, 56.14 44.69, 92.51 2.24 M2.37 112.03 C30.98 79.12, 58.62 49.82, 98.15 1.85 M2.37 112.03 C34.28 77.85, 64.03 42.21, 98.15 1.85 M2.1 118.43 C40.49 76.19, 73.58 33.68, 103.14 2.21 M2.1 118.43 C43.41 72.8, 81.58 26.76, 103.14 2.21 M2.5 124.07 C28 94.62, 52.08 67.76, 108.78 1.81 M2.5 124.07 C35.24 87.55, 66.23 51.6, 108.78 1.81 M2.24 130.47 C25.72 105.24, 45.31 80.18, 113.77 2.17 M2.24 130.47 C26.32 103.93, 49.75 75.97, 113.77 2.17 M1.98 136.87 C48.42 81.88, 96.82 30.75, 119.41 1.78 M1.98 136.87 C34.57 96.58, 68.44 58.91, 119.41 1.78 M2.37 142.51 C30.29 109, 59.83 76.13, 124.4 2.14 M2.37 142.51 C43.35 98.51, 82.34 51.75, 124.4 2.14 M2.11 148.91 C44.27 100.18, 83.02 52.06, 130.04 1.74 M2.11 148.91 C36.63 110.65, 68.77 72.7, 130.04 1.74 M2.5 154.55 C54.77 95.8, 105.02 35.04, 135.03 2.1 M2.5 154.55 C39.07 108.85, 78.57 65.28, 135.03 2.1 M2.24 160.95 C54 99.33, 105.26 42.55, 140.67 1.71 M2.24 160.95 C48.66 108.18, 94.3 53.39, 140.67 1.71 M1.98 167.35 C43.24 120.05, 83.27 72.38, 145.66 2.07 M1.98 167.35 C59.01 101.76, 115.57 38.43, 145.66 2.07 M2.38 172.99 C58.84 111.35, 113.81 49.38, 150.65 2.43 M2.38 172.99 C60 108.46, 116.96 43.34, 150.65 2.43 M2.77 178.64 C54.7 115.94, 109.26 57.29, 156.29 2.03 M2.77 178.64 C46.62 129.59, 90.76 81.05, 156.29 2.03 M3.82 183.52 C60.29 115.37, 120.19 47.73, 161.28 2.39 M3.82 183.52 C35.31 144.92, 69.84 106.74, 161.28 2.39 M2.9 190.68 C50.13 138.58, 96.89 85.11, 166.92 2 M2.9 190.68 C59.66 124.75, 116.71 58.7, 166.92 2 M5.27 194.05 C57.1 135.35, 107.56 75.77, 171.91 2.36 M5.27 194.05 C72.4 116.04, 138 39.93, 171.91 2.36 M6.97 198.19 C44.77 155.72, 81.94 113.58, 177.55 1.96 M6.97 198.19 C62.67 132.92, 120.22 67.54, 177.55 1.96 M9.34 201.57 C73.07 131.39, 133.69 62.02, 182.54 2.32 M9.34 201.57 C53 149.37, 97.07 98.2, 182.54 2.32 M13.01 203.44 C75.49 131.9, 140.24 56.4, 188.18 1.93 M13.01 203.44 C71.36 136.84, 128.91 71.13, 188.18 1.93 M16.69 205.31 C72.4 143.29, 126.23 77.85, 193.17 2.29 M16.69 205.31 C63.52 153.26, 108.96 101.06, 193.17 2.29 M19.7 207.93 C83.81 135.39, 146.6 60.86, 198.81 1.9 M19.7 207.93 C89.88 128.6, 159.82 49.07, 198.81 1.9 M24.69 208.29 C71.78 153.37, 121.14 97, 203.8 2.26 M24.69 208.29 C63.25 162.59, 101.04 118.3, 203.8 2.26 M29.68 208.65 C84.32 145.65, 140.06 85.95, 209.44 1.86 M29.68 208.65 C81.07 149.78, 134.45 89.94, 209.44 1.86 M34.01 209.77 C96.88 141.55, 156.53 71.19, 214.43 2.22 M34.01 209.77 C87.26 146.37, 141.29 84.62, 214.43 2.22 M39 210.13 C97.63 141.73, 159.65 69.52, 220.07 1.83 M39 210.13 C109.75 130.47, 178.83 50.08, 220.07 1.83 M44.64 209.73 C94.02 152.49, 143.97 95.41, 225.06 2.19 M44.64 209.73 C85.64 163.81, 127.33 114.69, 225.06 2.19 M49.63 210.09 C91.62 157.77, 139.07 107.3, 230.7 1.79 M49.63 210.09 C114.63 134.72, 181.69 58.15, 230.7 1.79 M55.27 209.7 C111.78 141.03, 172.36 75.06, 235.69 2.15 M55.27 209.7 C104.63 152.64, 153.83 96.69, 235.69 2.15 M60.26 210.06 C110.05 146.92, 164.05 88.25, 241.33 1.76 M60.26 210.06 C109.15 154.45, 159.79 96.84, 241.33 1.76 M65.9 209.66 C126.92 139.83, 186.02 69.48, 246.32 2.12 M65.9 209.66 C111.32 157.72, 154.86 107.23, 246.32 2.12 M70.89 210.02 C137.35 136.47, 200.31 61.27, 251.96 1.72 M70.89 210.02 C124.87 146.73, 179.45 83.23, 251.96 1.72 M76.53 209.63 C122.27 159.44, 162.95 108.65, 256.95 2.08 M76.53 209.63 C134.12 145.97, 190.47 80.14, 256.95 2.08 M81.52 209.99 C150.7 129.66, 221.04 47.51, 261.28 3.2 M81.52 209.99 C152.05 130.02, 222.98 48.47, 261.28 3.2 M87.16 209.59 C125.3 167.63, 161.33 125.04, 266.26 3.56 M87.16 209.59 C124.33 168.09, 159.08 126.68, 266.26 3.56 M92.15 209.95 C159.13 129.65, 228.52 54.01, 269.28 6.18 M92.15 209.95 C136.27 159.93, 179.21 110.04, 269.28 6.18 M97.79 209.56 C139.53 160.15, 181.91 110.52, 272.96 8.05 M97.79 209.56 C162.48 133.49, 227.4 59.14, 272.96 8.05 M102.78 209.92 C171.17 132.75, 236.79 57.81, 276.63 9.92 M102.78 209.92 C152.47 153.21, 203.89 95.11, 276.63 9.92 M108.42 209.52 C148.68 163.41, 185.82 120.68, 278.34 14.05 M108.42 209.52 C150.84 161.6, 191.86 113.48, 278.34 14.05 M113.41 209.88 C162.09 154.54, 208.83 102.18, 280.05 18.19 M113.41 209.88 C166.95 146.93, 221.63 83.46, 280.05 18.19 M119.05 209.49 C163.66 159.69, 210.84 104.71, 281.1 23.08 M119.05 209.49 C181.72 137.31, 245.22 65.91, 281.1 23.08 M124.04 209.85 C161.52 167.63, 197.81 125.83, 281.49 28.72 M124.04 209.85 C173.64 155.67, 222.36 99.73, 281.49 28.72 M129.68 209.46 C185.41 143.98, 242.7 76.88, 283.2 32.85 M129.68 209.46 C180.84 153.66, 229.8 96.7, 283.2 32.85 M134.67 209.82 C165.45 169.75, 198.86 134.22, 282.94 39.25 M134.67 209.82 C180.09 157.17, 226.32 103.27, 282.94 39.25 M140.31 209.42 C183.51 155.27, 230.42 104.44, 283.33 44.89 M140.31 209.42 C186 156.83, 230.32 106.84, 283.33 44.89 M145.3 209.78 C185.36 160.95, 228.67 114.79, 283.07 51.29 M145.3 209.78 C198.84 147.73, 252.16 85.22, 283.07 51.29 M150.94 209.39 C202.29 150.85, 252.36 90.61, 282.81 57.69 M150.94 209.39 C201.77 152.41, 250.58 95.68, 282.81 57.69 M155.93 209.75 C203.16 159.23, 246.58 110.38, 283.2 63.33 M155.93 209.75 C196.61 160.71, 238.18 111.54, 283.2 63.33 M160.91 210.11 C197.27 167.77, 234.08 125.68, 282.94 69.73 M160.91 210.11 C195.66 172.01, 229.73 132.96, 282.94 69.73 M166.56 209.71 C205.87 165.65, 241.3 124.39, 283.34 75.37 M166.56 209.71 C200.63 172.32, 232.4 134.8, 283.34 75.37 M171.54 210.07 C200.02 180.76, 227.37 149.95, 283.07 81.77 M171.54 210.07 C210.55 165.42, 248.22 121.26, 283.07 81.77 M177.19 209.68 C199.97 182.23, 221.86 156.5, 282.81 88.17 M177.19 209.68 C210.95 169.51, 246.02 131.24, 282.81 88.17 M182.17 210.04 C205.32 188.15, 225.1 163.12, 283.21 93.81 M182.17 210.04 C206.89 182.93, 229.87 155.2, 283.21 93.81 M187.82 209.64 C214.42 179.99, 239.95 151.03, 282.95 100.21 M187.82 209.64 C218.41 175.05, 249.87 140.32, 282.95 100.21 M192.8 210 C218.63 179.97, 242.45 152.71, 283.34 105.85 M192.8 210 C227.81 170.53, 260.8 131.28, 283.34 105.85 M198.45 209.61 C230.2 171.72, 262.79 136.69, 283.08 112.25 M198.45 209.61 C219.49 186.01, 241.17 162.2, 283.08 112.25 M203.43 209.97 C231.57 174.09, 261.59 143.55, 282.82 118.65 M203.43 209.97 C230.54 179.54, 255.46 150.01, 282.82 118.65 M209.08 209.57 C231.88 184.1, 254.72 159.5, 283.21 124.29 M209.08 209.57 C228.71 188.25, 246.8 166.51, 283.21 124.29 M214.07 209.93 C232.55 191.76, 251.24 171.02, 282.95 130.69 M214.07 209.93 C227.63 192.92, 242.71 175.83, 282.95 130.69 M219.71 209.54 C232.76 196.13, 244.16 180.55, 283.35 136.33 M219.71 209.54 C234.57 192.64, 249.71 175.06, 283.35 136.33 M224.7 209.9 C245.24 187.46, 266.39 161.6, 283.08 142.73 M224.7 209.9 C241.77 189.44, 258.53 169.58, 283.08 142.73 M230.34 209.51 C251.22 185.99, 270.85 166.71, 282.82 149.13 M230.34 209.51 C241.79 196.25, 253.37 181.7, 282.82 149.13 M235.33 209.87 C251.35 192.49, 266.75 172.03, 283.22 154.77 M235.33 209.87 C246.19 198.25, 255.31 186.97, 283.22 154.77 M240.97 209.47 C251.33 197.52, 262.78 186.21, 282.96 161.17 M240.97 209.47 C250.53 198.16, 261.21 186.34, 282.96 161.17 M245.96 209.83 C259.07 198.3, 269.2 183.79, 283.35 166.81 M245.96 209.83 C257.32 197.16, 266.71 185.63, 283.35 166.81 M251.6 209.44 C259.02 201.95, 265.42 191.86, 283.09 173.21 M251.6 209.44 C264.67 194.54, 276.95 180.68, 283.09 173.21 M257.9 208.29 C263.89 198.65, 272.7 191.38, 284.14 178.1 M257.9 208.29 C265.03 200.35, 272.74 191.65, 284.14 178.1 M264.85 206.38 C270.43 202.62, 276.1 194.33, 283.22 185.25 M264.85 206.38 C272.88 198.71, 278.79 190.34, 283.22 185.25" stroke="#868e96" stroke-width="0.5" fill="none"></path><path d="M32 0 M32 0 C76.71 -1.52, 124.31 0.79, 250 0 M32 0 C86.94 0.02, 139.7 0.67, 250 0 M250 0 C269.77 0.06, 281.51 11.3, 282 32 M250 0 C272.3 -2.13, 281.21 10.01, 282 32 M282 32 C281.59 73.44, 282.65 114.65, 282 176 M282 32 C281.19 61.1, 281.26 89.32, 282 176 M282 176 C283.48 197.83, 271.14 206.51, 250 208 M282 176 C283.65 195.4, 273.55 206.94, 250 208 M250 208 C197.15 205.44, 141.82 207.89, 32 208 M250 208 C188.55 208.73, 127.6 209.87, 32 208 M32 208 C11.67 207.89, -0.16 197.38, 0 176 M32 208 C11.34 208.35, -0.59 195.18, 0 176 M0 176 C-0.89 127.15, 1.84 79, 0 32 M0 176 C0.4 122.36, -0.49 69.84, 0 32 M0 32 C-1.18 9.74, 9.3 -0.11, 32 0 M0 32 C0.59 9, 9.98 0.95, 32 0" stroke="#000000" stroke-width="1" fill="none"></path></g><g transform="translate(2825.1218914864385 81.79999999999995) rotate(0 103.49609375 32.19999999999999)"><text x="103.49609375" y="0" font-family="Helvetica, Segoe UI Emoji" font-size="28px" fill="#000000" text-anchor="middle" style="white-space: pre;" direction="ltr" dominant-baseline="text-before-edge">CA key </text><text x="103.49609375" y="32.199999999999996" font-family="Helvetica, Segoe UI Emoji" font-size="28px" fill="#000000" text-anchor="middle" style="white-space: pre;" direction="ltr" dominant-baseline="text-before-edge">IERC1271 Verify</text></g><g stroke-linecap="round"><g transform="translate(2552.9298675881487 788.8762563383316) rotate(0 176.00867762476562 -284.24511027055877)"><path d="M1.19 -0.6 C59.57 -95.71, 291.13 -475.25, 349.55 -570.19 M0.36 1.7 C59.15 -93.27, 293.14 -473.68, 351.66 -568.82" stroke="#000000" stroke-width="1" fill="none"></path></g><g transform="translate(2552.9298675881487 788.8762563383316) rotate(0 176.00867762476562 -284.24511027055877)"><path d="M344.63 -541.35 C346.45 -544.89, 347.82 -553.29, 349.66 -568.19 M344.77 -539.74 C347.41 -545.92, 348.73 -552.22, 352.14 -568.87" stroke="#000000" stroke-width="1" fill="none"></path></g><g transform="translate(2552.9298675881487 788.8762563383316) rotate(0 176.00867762476562 -284.24511027055877)"><path d="M327.15 -552.11 C333.23 -553.21, 338.83 -559.02, 349.66 -568.19 M327.29 -550.49 C334.06 -554.07, 339.41 -557.89, 352.14 -568.87" stroke="#000000" stroke-width="1" fill="none"></path></g></g><mask></mask><g stroke-linecap="round" transform="translate(2521.748402380852 17.26959070766179) rotate(0 111 104)"><path d="M32 0 M32 0 C89.29 -0.54, 144.78 -2.34, 190 0 M32 0 C76 -1.13, 122.23 -0.61, 190 0 M190 0 C209.86 0.64, 221.85 9.2, 222 32 M190 0 C211.47 -1.98, 220.3 12.28, 222 32 M222 32 C222.87 78.59, 220.71 121.92, 222 176 M222 32 C220.72 68.7, 220.59 106.08, 222 176 M222 176 C223.23 198.74, 209.78 208.62, 190 208 M222 176 C223.25 195.17, 212.52 210, 190 208 M190 208 C158.26 207.16, 125.54 206.26, 32 208 M190 208 C134.01 208.59, 77.06 207.03, 32 208 M32 208 C11.2 209.84, 0.72 197.62, 0 176 M32 208 C8.8 208.99, 0.06 197.04, 0 176 M0 176 C1.7 146.24, -0.2 113.34, 0 32 M0 176 C1.81 145.84, 1.21 114.62, 0 32 M0 32 C-1.79 12.51, 10.31 1.21, 32 0 M0 32 C-2.15 10.68, 11.75 0.84, 32 0" stroke="#000000" stroke-width="1" fill="none"></path></g><g transform="translate(2545.610707068352 89.06959070766175) rotate(0 87.1376953125 32.19999999999999)"><text x="87.1376953125" y="0" font-family="Helvetica, Segoe UI Emoji" font-size="28px" fill="#000000" text-anchor="middle" style="white-space: pre;" direction="ltr" dominant-baseline="text-before-edge">EOA key </text><text x="87.1376953125" y="32.199999999999996" font-family="Helvetica, Segoe UI Emoji" font-size="28px" fill="#000000" text-anchor="middle" style="white-space: pre;" direction="ltr" dominant-baseline="text-before-edge">ECDSA Verify</text></g><g stroke-linecap="round"><g transform="translate(2495.317854730868 788.8762563383316) rotate(0 42.762284112630255 -281.91982493178614)"><path d="M0.06 -1.16 C14.26 -94.89, 70.93 -468.91, 85.47 -562.68" stroke="#000000" stroke-width="1.5" fill="none" stroke-dasharray="8 9"></path></g><g transform="translate(2495.317854730868 788.8762563383316) rotate(0 42.762284112630255 -281.91982493178614)"><path d="M89.4 -534.58 C89.43 -540.96, 85.77 -551.3, 86.28 -563.13" stroke="#000000" stroke-width="1.5" fill="none"></path></g><g transform="translate(2495.317854730868 788.8762563383316) rotate(0 42.762284112630255 -281.91982493178614)"><path d="M69.12 -537.68 C75.62 -543.09, 78.44 -552.43, 86.28 -563.13" stroke="#000000" stroke-width="1.5" fill="none"></path></g></g><mask></mask><g stroke-linecap="round" transform="translate(1197.7023551008206 311.1631501714138) rotate(0 827.8278907411573 545.1549524392985)"><path d="M32 0 M32 0 C623.27 2.31, 1212.73 2.44, 1623.66 0 M32 0 C367.2 1.4, 702.56 1.73, 1623.66 0 M1623.66 0 C1643.86 1.8, 1656.62 9.78, 1655.66 32 M1623.66 0 C1644.37 -1.58, 1654.42 8.94, 1655.66 32 M1655.66 32 C1655.57 440.92, 1656.09 850.06, 1655.66 1058.31 M1655.66 32 C1652.69 421.21, 1652.52 810.68, 1655.66 1058.31 M1655.66 1058.31 C1656.76 1078.48, 1643.74 1090.07, 1623.66 1090.31 M1655.66 1058.31 C1653.81 1077.56, 1646.49 1088.7, 1623.66 1090.31 M1623.66 1090.31 C1085.9 1090.42, 545.99 1090.28, 32 1090.31 M1623.66 1090.31 C1130.36 1091.24, 636.48 1091.68, 32 1090.31 M32 1090.31 C10.65 1089.13, -1.37 1080.52, 0 1058.31 M32 1090.31 C8.88 1089.36, -0.72 1077.92, 0 1058.31 M0 1058.31 C2.95 781.07, 2.34 504.18, 0 32 M0 1058.31 C2.79 823.47, 2.81 589.66, 0 32 M0 32 C-0.57 12.16, 10.38 -1.99, 32 0 M0 32 C-0.12 9.46, 11.35 -0.69, 32 0" stroke="#000000" stroke-width="4" fill="none"></path></g><g transform="translate(1685.8899341250626 1179.3728892414078) rotate(0 313.79718017578125 44.4706579531624)"><text x="313.79718017578125" y="0" font-family="Helvetica, Segoe UI Emoji" font-size="77.340274701152px" fill="#000000" text-anchor="middle" style="white-space: pre;" direction="ltr" dominant-baseline="text-before-edge">IRecoveryAccount</text></g><g transform="translate(1894.0874825155684 1038.0364200904787) rotate(0 106.00260925292969 44.470657953162394)"><text x="106.00260925292969" y="0" font-family="Helvetica, Segoe UI Emoji" font-size="77.340274701152px" fill="#000000" text-anchor="middle" style="white-space: pre;" direction="ltr" dominant-baseline="text-before-edge">Wallet</text></g><g transform="translate(1318.3163919075291 405.17702086764984) rotate(0 105.8271484375 16.100000000000023)"><text x="105.8271484375" y="0" font-family="Helvetica, Segoe UI Emoji" font-size="28px" fill="#087f5b" text-anchor="middle" style="white-space: pre;" direction="ltr" dominant-baseline="text-before-edge">recoveryConfig1:</text></g><g transform="translate(1272.7683781062246 499.07566139540177) rotate(0 242.7783203125 48.30000000000001)"><text x="0" y="0" font-family="Helvetica, Segoe UI Emoji" font-size="28px" fill="#000000" text-anchor="start" style="white-space: pre;" direction="ltr" dominant-baseline="text-before-edge">1.List of Guardians with property</text><text x="0" y="32.199999999999996" font-family="Helvetica, Segoe UI Emoji" font-size="28px" fill="#000000" text-anchor="start" style="white-space: pre;" direction="ltr" dominant-baseline="text-before-edge">2.Conditional threshold + lock period</text><text x="0" y="64.39999999999999" font-family="Helvetica, Segoe UI Emoji" font-size="28px" fill="#000000" text-anchor="start" style="white-space: pre;" direction="ltr" dominant-baseline="text-before-edge">3.PolicyVerification Contract Address A</text></g><g stroke-linecap="round" transform="translate(1248.7205332052322 365.0617282350754) rotate(0 301.83631298629746 140.105475576705)"><path d="M32 0 M32 0 C152.44 -0.28, 274.36 0.25, 571.67 0 M571.67 0 C593.13 0.06, 601.83 8.92, 603.67 32 M603.67 32 C603.99 110.88, 605.84 189.8, 603.67 248.21 M603.67 248.21 C601.88 269.44, 594.47 278.97, 571.67 280.21 M571.67 280.21 C446.89 278.86, 321.35 278.46, 32 280.21 M32 280.21 C11.88 279.73, 0.64 267.67, 0 248.21 M0 248.21 C-1.08 190.6, -0.33 133.9, 0 32 M0 32 C-1.16 8.94, 11.15 -1.7, 32 0" stroke="#000000" stroke-width="4.5" fill="none" stroke-dasharray="1.5 10"></path></g><g mask="url(#mask-jdsi-EO85swD2KC3HHnF7)" stroke-linecap="round"><g transform="translate(452.5791348312432 475.0719578957487) rotate(0 392.58987954800796 -3.3000235423030517)"><path d="M0.62 -0.04 C131.7 -1.26, 654.84 -5.55, 785.69 -6.56 M-0.51 -1.1 C130.5 -2.24, 653.97 -4.72, 784.91 -5.35" stroke="#000000" stroke-width="4" fill="none"></path></g><g transform="translate(452.5791348312432 475.0719578957487) rotate(0 392.58987954800796 -3.3000235423030517)"><path d="M756.7 5.58 C762.29 3.05, 769.7 -0.42, 784.63 -4.59 M756.54 5.05 C762.19 2.04, 770.12 1.57, 785.01 -6.03" stroke="#000000" stroke-width="4" fill="none"></path></g><g transform="translate(452.5791348312432 475.0719578957487) rotate(0 392.58987954800796 -3.3000235423030517)"><path d="M756.61 -14.94 C762.35 -12.64, 769.78 -11.28, 784.63 -4.59 M756.44 -15.47 C761.95 -14, 769.89 -9.99, 785.01 -6.03" stroke="#000000" stroke-width="4" fill="none"></path></g></g><mask id="mask-jdsi-EO85swD2KC3HHnF7"><rect x="0" y="0" fill="#fff" width="1337.951434012044" height="581.0153762524419"></rect><rect x="665.9684094216436" y="450.5002487174021" fill="#000" width="358.59375" height="43.199999999999996" opacity="1"></rect></mask><g transform="translate(665.9684094216436 450.5002487174021) rotate(0 179.20060495760754 21.27168563604357)"><text x="179.296875" y="0" font-family="Cascadia, Segoe UI Emoji" font-size="36px" fill="#000000" text-anchor="middle" style="white-space: pre;" direction="ltr" dominant-baseline="text-before-edge">updateGuardians()</text></g><g transform="translate(388.8635779494366 446.6575159611376) rotate(0 25.236000061035156 22.5)"><text x="0" y="0" font-family="Virgil, Segoe UI Emoji" font-size="36px" fill="#000000" text-anchor="start" style="white-space: pre;" direction="ltr" dominant-baseline="text-before-edge">TX</text></g><g mask="url(#mask-NJ3V99Ot5pwzg-Zp41Of_)" stroke-linecap="round"><g transform="translate(789.4089287004085 917.6233546689996) rotate(0 359.1886200470709 -0.9263691513466341)"><path d="M0.84 0.87 C36.21 1, 91.89 0.59, 211.51 -0.09 C331.13 -0.76, 634.05 -2.97, 718.55 -3.19 M-0.17 0.28 C35.14 0.65, 91.22 1.67, 210.88 1.23 C330.54 0.79, 633.16 -1.56, 717.8 -2.35" stroke="#000000" stroke-width="4" fill="none"></path></g><g transform="translate(789.4089287004085 917.6233546689996) rotate(0 359.1886200470709 -0.9263691513466341)"><path d="M691.14 9.15 C695.94 5.45, 702.01 2.78, 719.29 -3.39 M689.74 8.34 C699.99 3.53, 708.96 0.29, 716.84 -2.87" stroke="#000000" stroke-width="4" fill="none"></path></g><g transform="translate(789.4089287004085 917.6233546689996) rotate(0 359.1886200470709 -0.9263691513466341)"><path d="M690.97 -11.37 C695.67 -10.06, 701.77 -7.72, 719.29 -3.39 M689.57 -12.18 C699.7 -10.08, 708.73 -6.41, 716.84 -2.87" stroke="#000000" stroke-width="4" fill="none"></path></g></g><mask id="mask-NJ3V99Ot5pwzg-Zp41Of_"><rect x="0" y="0" fill="#fff" width="1607.9196630877093" height="1020.2490362689385"></rect><rect x="842.119541602106" y="896.355895671067" fill="#000" width="316.40625" height="43.199999999999996" opacity="1"></rect></mask><g transform="translate(842.119541602106 896.355895671067) rotate(0 306.47800714537345 20.34108984658603)"><text x="158.203125" y="0" font-family="Cascadia, Segoe UI Emoji" font-size="36px" fill="#000000" text-anchor="middle" style="white-space: pre;" direction="ltr" dominant-baseline="text-before-edge">startRecovery()</text></g><g transform="translate(10 800.8530080444875) rotate(0 337.1484375 103.5)"><text x="0" y="0" font-family="Helvetica, Segoe UI Emoji" font-size="36px" fill="#000000" text-anchor="start" style="white-space: pre;" direction="ltr" dominant-baseline="text-before-edge">TX:</text><text x="0" y="41.4" font-family="Helvetica, Segoe UI Emoji" font-size="36px" fill="#000000" text-anchor="start" style="white-space: pre;" direction="ltr" dominant-baseline="text-before-edge">    Param：</text><text x="0" y="82.8" font-family="Helvetica, Segoe UI Emoji" font-size="36px" fill="#000000" text-anchor="start" style="white-space: pre;" direction="ltr" dominant-baseline="text-before-edge">    1.PolicyVerification Contract Address A </text><text x="0" y="124.19999999999999" font-family="Helvetica, Segoe UI Emoji" font-size="36px" fill="#000000" text-anchor="start" style="white-space: pre;" direction="ltr" dominant-baseline="text-before-edge">    2.newOwner</text><text x="0" y="165.6" font-family="Helvetica, Segoe UI Emoji" font-size="36px" fill="#000000" text-anchor="start" style="white-space: pre;" direction="ltr" dominant-baseline="text-before-edge">    3.List:（guardSigner + signature）</text></g><g mask="url(#mask-jB2ZUkTxkkmrgdpX5V4Vw)" stroke-linecap="round"><g transform="translate(1530.0188054505895 913.1341218977528) rotate(0 324.2188814323871 -4.190088146287394)"><path d="M0.47 0.77 C108.42 -0.64, 539.15 -7.6, 646.79 -9.15 M-0.75 0.13 C107.69 -1.02, 540.96 -5.79, 649.19 -7.56" stroke="#000000" stroke-width="4" fill="none"></path></g><g transform="translate(1530.0188054505895 913.1341218977528) rotate(0 324.2188814323871 -4.190088146287394)"><path d="M622.42 2.07 C627.57 -1.24, 634.8 -0.37, 650.04 -7.68 M620.97 3.24 C631.59 0.06, 640.47 -5.04, 649.68 -7.68" stroke="#000000" stroke-width="4" fill="none"></path></g><g transform="translate(1530.0188054505895 913.1341218977528) rotate(0 324.2188814323871 -4.190088146287394)"><path d="M622.14 -18.45 C627.25 -17.2, 634.53 -11.78, 650.04 -7.68 M620.7 -17.28 C631.3 -13.47, 640.27 -11.56, 649.68 -7.68" stroke="#000000" stroke-width="4" fill="none"></path></g></g><mask id="mask-jB2ZUkTxkkmrgdpX5V4Vw"><rect x="0" y="0" fill="#fff" width="2277.412008233833" height="1022.3719206468782"></rect><rect x="1690.6607193422115" y="887.8152225231902" fill="#000" width="326.109375" height="41.4" opacity="1"></rect></mask><g transform="translate(1690.6607193422115 887.8152225231902) rotate(0 163.57696754076517 21.128811228275282)"><text x="163.0546875" y="0" font-family="Helvetica, Segoe UI Emoji" font-size="36px" fill="#000000" text-anchor="middle" style="white-space: pre;" direction="ltr" dominant-baseline="text-before-edge">1. VerifyPermissions</text></g><g mask="url(#mask-X-3WcIoB4wrx_nDEIakxD)" stroke-linecap="round"><g transform="translate(1517.401395842639 925.5151962445068) rotate(0 -4.711295452675586 307.7436320493721)"><path d="M-0.03 0.56 C-1.56 102.98, -7.95 512.15, -9.39 614.34 M-1.51 -0.2 C-2.65 102.42, -5.81 513.23, -7.15 615.69" stroke="#000000" stroke-width="4" fill="none"></path></g><g transform="translate(1517.401395842639 925.5151962445068) rotate(0 -4.711295452675586 307.7436320493721)"><path d="M-16.2 585.91 C-14.97 595.14, -13.19 603.47, -9.05 617.64 M-17.71 587.91 C-13.65 598.2, -9.48 609.73, -7.61 615.33" stroke="#000000" stroke-width="4" fill="none"></path></g><g transform="translate(1517.401395842639 925.5151962445068) rotate(0 -4.711295452675586 307.7436320493721)"><path d="M4.32 586.12 C-0.26 595.29, -4.28 603.55, -9.05 617.64 M2.81 588.11 C-1.2 598.52, -5.11 609.96, -7.61 615.33" stroke="#000000" stroke-width="4" fill="none"></path></g></g><mask id="mask-X-3WcIoB4wrx_nDEIakxD"><rect x="0" y="0" fill="#fff" width="1625.902990344296" height="1640.2321781860571"></rect><rect x="1420.1183720293104" y="1191.4736872152819" fill="#000" width="186.064453125" height="82.8" opacity="1"></rect></mask><g transform="translate(1420.1183720293104 1191.4736872152819) rotate(0 92.57172836065297 41.785141078596894)"><text x="93.0322265625" y="0" font-family="Helvetica, Segoe UI Emoji" font-size="36px" fill="#000000" text-anchor="middle" style="white-space: pre;" direction="ltr" dominant-baseline="text-before-edge">2.Recovery</text><text x="93.0322265625" y="41.4" font-family="Helvetica, Segoe UI Emoji" font-size="36px" fill="#000000" text-anchor="middle" style="white-space: pre;" direction="ltr" dominant-baseline="text-before-edge">PolicyVerify</text></g><g mask="url(#mask-r6CmglPvH0Ppn8PqxoCaH)" stroke-linecap="round"><g transform="translate(1525.8088536530283 665.0207688917659) rotate(0 -1.7141378535510512 117.77605766230653)"><path d="M0.87 -1.09 C0.06 38.46, -3.55 197, -4.3 236.65" stroke="#000000" stroke-width="4.5" fill="none" stroke-dasharray="8 12"></path></g><g transform="translate(1525.8088536530283 665.0207688917659) rotate(0 -1.7141378535510512 117.77605766230653)"><path d="M-15.78 207.57 C-10.2 218.51, -6.61 228.81, -3.68 237.4" stroke="#000000" stroke-width="4.5" fill="none"></path></g><g transform="translate(1525.8088536530283 665.0207688917659) rotate(0 -1.7141378535510512 117.77605766230653)"><path d="M4.73 208 C3.21 218.94, -0.32 229.09, -3.68 237.4" stroke="#000000" stroke-width="4.5" fill="none"></path></g></g><mask id="mask-r6CmglPvH0Ppn8PqxoCaH"><rect x="0" y="0" fill="#fff" width="1629.6985586461335" height="1001.3198195601213"></rect><rect x="1416.7956417814758" y="741.7702942259436" fill="#000" width="214.13671875" height="82.8" opacity="1"></rect></mask><g transform="translate(1416.7956417814758 741.7702942259436) rotate(0 107.29907401800153 41.02653232812878)"><text x="107.068359375" y="0" font-family="Helvetica, Segoe UI Emoji" font-size="36px" fill="#000000" text-anchor="middle" style="white-space: pre;" direction="ltr" dominant-baseline="text-before-edge">As Param + </text><text x="107.068359375" y="41.4" font-family="Helvetica, Segoe UI Emoji" font-size="36px" fill="#000000" text-anchor="middle" style="white-space: pre;" direction="ltr" dominant-baseline="text-before-edge">guardSigners</text></g><g stroke-linecap="round" transform="translate(1305.8560208594663 1560.2961523717413) rotate(0 184 126.5)"><path d="M7.86 8.16 C7.86 8.16, 7.86 8.16, 7.86 8.16 M7.86 8.16 C7.86 8.16, 7.86 8.16, 7.86 8.16 M3.66 19.09 C5.8 13.82, 11.94 10.2, 18.1 2.48 M3.66 19.09 C7.66 13.38, 13.67 7.78, 18.1 2.48 M2.75 26.24 C8.55 17.71, 18.09 7.99, 24.4 1.33 M2.75 26.24 C8.25 19.33, 14.44 13.4, 24.4 1.33 M2.48 32.64 C11.06 24.41, 20.84 12.41, 30.7 0.18 M2.48 32.64 C14.55 20.18, 25.87 6.38, 30.7 0.18 M2.88 38.28 C13.01 27.39, 22.42 16.93, 34.37 2.05 M2.88 38.28 C12.53 27.74, 19.79 19.1, 34.37 2.05 M2.62 44.68 C13.27 31.39, 23.08 23.94, 39.36 2.41 M2.62 44.68 C13.82 30.8, 27.55 17.05, 39.36 2.41 M2.36 51.07 C10.37 39.63, 19.32 29.88, 45 2.02 M2.36 51.07 C20.28 31.45, 36.92 11.63, 45 2.02 M2.75 56.72 C16.27 43.61, 25.74 29.83, 49.99 2.38 M2.75 56.72 C19.98 35.92, 39.99 14.14, 49.99 2.38 M2.49 63.11 C20.3 40.5, 40 19.52, 55.63 1.98 M2.49 63.11 C17.78 45.91, 31.18 29.66, 55.63 1.98 M2.23 69.51 C16.69 52.03, 34.21 32.12, 60.62 2.34 M2.23 69.51 C17.16 50.64, 33.15 33.05, 60.62 2.34 M2.62 75.16 C24.43 49.67, 47.25 23.14, 66.26 1.95 M2.62 75.16 C16.81 58.25, 31.64 41.05, 66.26 1.95 M2.36 81.55 C21.15 57.88, 45.23 34.1, 71.25 2.31 M2.36 81.55 C22.61 55.79, 43.94 32.36, 71.25 2.31 M2.76 87.2 C22.7 64.17, 45.66 36.33, 76.89 1.91 M2.76 87.2 C20.69 66.82, 38.24 45.49, 76.89 1.91 M2.49 93.59 C24.58 71.34, 43.02 45.61, 81.88 2.27 M2.49 93.59 C26.67 66.82, 49.97 39.9, 81.88 2.27 M2.23 99.99 C29.56 71.93, 56.29 39.34, 87.52 1.88 M2.23 99.99 C29.13 68.82, 58.45 35.9, 87.52 1.88 M2.63 105.64 C37.46 64.25, 71.22 26.05, 92.51 2.24 M2.63 105.64 C28.62 75.38, 55.38 44.07, 92.51 2.24 M2.37 112.03 C24.22 88.16, 48.45 59.31, 98.15 1.85 M2.37 112.03 C35.04 72.5, 68.85 34.43, 98.15 1.85 M2.1 118.43 C33.99 77.81, 71.4 38.1, 103.14 2.21 M2.1 118.43 C39.45 73.95, 79.15 29.87, 103.14 2.21 M2.5 124.07 C29.11 93.75, 57.81 61.21, 108.78 1.81 M2.5 124.07 C28.08 93.91, 55.1 64.67, 108.78 1.81 M2.24 130.47 C29.66 99.06, 62.66 63.38, 113.77 2.17 M2.24 130.47 C36.87 90.79, 69.36 51.12, 113.77 2.17 M2.63 136.11 C38.01 95.15, 74.08 52.09, 119.41 1.78 M2.63 136.11 C44.87 88.32, 86.86 41.04, 119.41 1.78 M2.37 142.51 C35.33 104.41, 69.26 62.77, 124.4 2.14 M2.37 142.51 C33.26 104.83, 67.51 66.78, 124.4 2.14 M2.11 148.91 C39.32 102.38, 81.09 56.39, 130.04 1.74 M2.11 148.91 C43.66 101.57, 83.65 54.25, 130.04 1.74 M2.5 154.55 C38.18 116.07, 75.22 72.06, 135.03 2.1 M2.5 154.55 C42.06 107.68, 82.27 60.27, 135.03 2.1 M2.24 160.95 C41.55 115.91, 82.11 71.05, 140.67 1.71 M2.24 160.95 C31.4 128.16, 59.16 93.73, 140.67 1.71 M1.98 167.35 C35.72 128.24, 71.22 90.95, 145.66 2.07 M1.98 167.35 C46.78 116.22, 92.85 62.46, 145.66 2.07 M2.38 172.99 C35.67 133.81, 70.29 93.05, 150.65 2.43 M2.38 172.99 C52.62 115.86, 102.7 60.43, 150.65 2.43 M2.11 179.39 C57.4 116.93, 108.1 56.67, 156.29 2.03 M2.11 179.39 C40.83 135.33, 79.27 91.04, 156.29 2.03 M2.51 185.03 C49.36 132.45, 94.83 80.65, 161.28 2.39 M2.51 185.03 C43.65 137.26, 86.81 89.43, 161.28 2.39 M2.25 191.43 C53.84 128.27, 108.01 67.25, 166.92 2 M2.25 191.43 C50.11 136.68, 97.36 81.68, 166.92 2 M1.99 197.83 C60.92 127.72, 122.37 59.95, 171.91 2.36 M1.99 197.83 C41.17 153.7, 79.64 111.19, 171.91 2.36 M2.38 203.47 C45.23 156.57, 85.07 108.61, 177.55 1.96 M2.38 203.47 C50.99 146.38, 101.6 87.6, 177.55 1.96 M2.12 209.87 C49.02 154.03, 99.31 98.76, 182.54 2.32 M2.12 209.87 C54.11 151.33, 105.12 91.76, 182.54 2.32 M1.86 216.27 C56.36 149.25, 115.06 87.16, 188.18 1.93 M1.86 216.27 C63.43 146.86, 125.37 75.32, 188.18 1.93 M1.6 222.66 C44.52 172.8, 88.68 121.71, 193.17 2.29 M1.6 222.66 C71.74 144.16, 139.27 64.94, 193.17 2.29 M2.65 227.55 C60.12 164.22, 116.74 99.54, 198.81 1.9 M2.65 227.55 C75.78 142.01, 148.9 56.83, 198.81 1.9 M3.04 233.2 C75.76 147.57, 150.97 61.81, 203.8 2.26 M3.04 233.2 C46.73 181.82, 89.72 130.76, 203.8 2.26 M4.75 237.33 C68.62 161.98, 132.9 90.53, 209.44 1.86 M4.75 237.33 C49.31 186.36, 92.68 136.74, 209.44 1.86 M5.8 242.22 C88.79 150.65, 169.6 56.91, 214.43 2.22 M5.8 242.22 C65.94 173.06, 125.77 104.5, 214.43 2.22 M8.82 244.84 C60.87 185.07, 111.94 128.45, 220.07 1.83 M8.82 244.84 C69.32 177.56, 128.57 109.79, 220.07 1.83 M11.84 247.47 C84.23 165.05, 153.39 83.9, 225.06 2.19 M11.84 247.47 C61.76 192.17, 111.61 135.88, 225.06 2.19 M14.86 250.09 C79.4 178.49, 141.72 106.29, 230.7 1.79 M14.86 250.09 C75.02 180.02, 135.67 111.25, 230.7 1.79 M18.53 251.96 C101.69 154.4, 186.19 55.85, 235.69 2.15 M18.53 251.96 C99.16 158.29, 179.37 66.65, 235.69 2.15 M22.86 253.08 C73.87 190.68, 125 132.29, 241.33 1.76 M22.86 253.08 C97.86 164.9, 173.47 76.88, 241.33 1.76 M27.19 254.19 C91.68 176.29, 159.55 100.35, 246.32 2.12 M27.19 254.19 C87.96 186.05, 147.26 118.48, 246.32 2.12 M32.84 253.8 C120.36 153.88, 206.61 54.02, 251.96 1.72 M32.84 253.8 C95.68 182.3, 159.22 109.59, 251.96 1.72 M38.48 253.4 C118.46 159.69, 198.34 68.1, 256.95 2.08 M38.48 253.4 C116.56 162.73, 194.68 72.59, 256.95 2.08 M43.47 253.76 C93.88 194.98, 145.15 137.69, 262.59 1.69 M43.47 253.76 C118.73 167.18, 193.06 82.25, 262.59 1.69 M48.45 254.12 C98.52 197.92, 150.08 138.32, 267.58 2.05 M48.45 254.12 C114.2 179.93, 180.07 104.78, 267.58 2.05 M54.1 253.73 C135 162.3, 213.48 70.85, 272.56 2.41 M54.1 253.73 C97.84 203.73, 141.85 154.45, 272.56 2.41 M59.08 254.09 C117.47 185.4, 177.32 118.38, 278.21 2.01 M59.08 254.09 C107.54 199.2, 154.39 145.75, 278.21 2.01 M64.73 253.69 C140.29 164.54, 219.04 76.32, 283.19 2.37 M64.73 253.69 C109.56 199.37, 155.38 146.27, 283.19 2.37 M69.71 254.05 C122.21 192.92, 175.94 130.4, 288.84 1.98 M69.71 254.05 C128.28 187.46, 186.9 119.25, 288.84 1.98 M75.36 253.66 C147.03 169.68, 218.98 87.52, 293.82 2.34 M75.36 253.66 C157.94 160.12, 237.77 66.55, 293.82 2.34 M80.34 254.02 C132.42 192.09, 185.68 131, 299.47 1.94 M80.34 254.02 C143.94 181.19, 207.08 108.44, 299.47 1.94 M85.99 253.62 C163.89 163.81, 241.91 73.8, 304.45 2.3 M85.99 253.62 C155.58 172.28, 224.16 93.49, 304.45 2.3 M90.97 253.98 C157.39 177.99, 224.88 99.36, 310.1 1.91 M90.97 253.98 C165.03 169.61, 239.5 83.48, 310.1 1.91 M96.62 253.59 C150.17 190.27, 204.31 127.28, 315.08 2.27 M96.62 253.59 C171.25 166.78, 249.19 78.37, 315.08 2.27 M101.6 253.95 C150.73 197.72, 198.74 143.21, 320.73 1.88 M101.6 253.95 C177.26 166.4, 252.41 79.53, 320.73 1.88 M107.25 253.55 C192.68 156.91, 275.74 60.99, 325.71 2.24 M107.25 253.55 C153.38 201.01, 200.2 146.72, 325.71 2.24 M112.23 253.91 C185.08 164.68, 262.85 79.03, 331.36 1.84 M112.23 253.91 C171.61 188.16, 228.94 120.69, 331.36 1.84 M117.88 253.52 C176.17 185.1, 235.48 117.56, 337 1.45 M117.88 253.52 C183.57 177.03, 249.44 101.02, 337 1.45 M122.86 253.88 C201.33 162.64, 279.66 71.02, 341.99 1.81 M122.86 253.88 C195.08 172.15, 267.05 88.72, 341.99 1.81 M128.51 253.49 C210.86 158.33, 292.19 64.1, 346.32 2.92 M128.51 253.49 C185.95 187.68, 242.78 122.82, 346.32 2.92 M133.49 253.85 C202.02 176.31, 268.26 99.52, 350.65 4.04 M133.49 253.85 C175.61 201.59, 220.7 150.43, 350.65 4.04 M139.14 253.45 C207.6 175.14, 276.22 94.78, 355.64 4.4 M139.14 253.45 C222.15 157.82, 304 62.35, 355.64 4.4 M144.12 253.81 C229.12 157.06, 315.38 62.16, 358.65 7.02 M144.12 253.81 C187.46 202.02, 231.85 150.35, 358.65 7.02 M149.77 253.42 C207.82 186.38, 264.37 119.72, 361.02 10.4 M149.77 253.42 C192.83 202.34, 237.2 151.52, 361.02 10.4 M154.75 253.78 C228.71 169.88, 302.39 86.12, 364.04 13.02 M154.75 253.78 C219.55 177.28, 284.26 102.83, 364.04 13.02 M160.4 253.38 C230.8 168.68, 303.8 86.73, 365.74 17.16 M160.4 253.38 C230.64 174.18, 300.3 94.65, 365.74 17.16 M165.38 253.74 C219.07 190.37, 274.27 127.97, 368.76 19.78 M165.38 253.74 C230.65 178.13, 298.84 100.83, 368.76 19.78 M170.37 254.1 C215.8 201.94, 259.38 151.89, 369.16 25.42 M170.37 254.1 C214.55 202.81, 257.82 153.07, 369.16 25.42 M176.01 253.71 C253.37 165.07, 330.63 78.16, 368.24 32.58 M176.01 253.71 C241.27 179.85, 305.49 103.85, 368.24 32.58 M181 254.07 C237.9 186.54, 297.64 120.22, 368.63 38.22 M181 254.07 C243.57 179.9, 307.61 107.71, 368.63 38.22 M186.64 253.67 C245.59 181.99, 306.46 112.46, 368.37 44.62 M186.64 253.67 C233.94 200.08, 280.37 146.58, 368.37 44.62 M191.63 254.03 C258.85 179.74, 324.67 102.62, 368.11 51.02 M191.63 254.03 C236.36 205.03, 278.55 156.47, 368.11 51.02 M197.27 253.64 C232.57 212.17, 268.74 170.11, 368.51 56.66 M197.27 253.64 C241.64 204.28, 283.91 154.77, 368.51 56.66 M202.26 254 C256.22 187.87, 314.2 123.55, 368.24 63.06 M202.26 254 C256 190.8, 311.17 126.58, 368.24 63.06 M207.9 253.6 C259.54 193.64, 311.11 133.5, 368.64 68.7 M207.9 253.6 C260.69 191.15, 316.51 127.63, 368.64 68.7 M212.89 253.96 C252.72 207.42, 295.83 157.88, 368.38 75.1 M212.89 253.96 C251.21 209.63, 288.46 165.42, 368.38 75.1 M218.53 253.57 C267.71 198.2, 316.32 142.14, 368.12 81.5 M218.53 253.57 C278.29 183.81, 337.77 116.13, 368.12 81.5 M223.52 253.93 C280.57 192.05, 333.79 128.68, 368.51 87.14 M223.52 253.93 C263.19 207, 303.31 161.3, 368.51 87.14 M229.16 253.53 C285.03 192.57, 336.15 130.8, 368.25 93.54 M229.16 253.53 C276.23 199.54, 323.34 145.03, 368.25 93.54 M234.15 253.89 C266.28 215.5, 297.09 180.43, 368.64 99.18 M234.15 253.89 C283.5 197.59, 334.63 139.88, 368.64 99.18 M239.79 253.5 C275.13 211.57, 308.42 172.44, 368.38 105.58 M239.79 253.5 C281.27 202.55, 325.52 152.78, 368.38 105.58 M244.78 253.86 C289.68 202.58, 337.34 148.46, 368.12 111.98 M244.78 253.86 C284.51 208.96, 325.6 164, 368.12 111.98 M250.42 253.47 C280.76 217.66, 313.08 179.23, 368.51 117.62 M250.42 253.47 C273.8 223.61, 299.98 196.6, 368.51 117.62 M255.41 253.83 C283.75 221.66, 311.1 191.3, 368.25 124.02 M255.41 253.83 C299.26 205.02, 343.6 156.02, 368.25 124.02 M261.05 253.43 C286.08 226.1, 309.05 198.36, 368.65 129.66 M261.05 253.43 C284.25 224.43, 310.32 196.07, 368.65 129.66 M266.04 253.79 C294.87 221.22, 322.9 191.7, 368.39 136.06 M266.04 253.79 C290.86 225.82, 315.43 197.67, 368.39 136.06 M271.68 253.4 C300.96 220.44, 333.71 182.89, 368.13 142.45 M271.68 253.4 C302.54 219.19, 332.14 185.53, 368.13 142.45 M276.67 253.76 C296.67 229.71, 315.68 208.75, 368.52 148.1 M276.67 253.76 C297.95 227.6, 319.98 203.19, 368.52 148.1 M281.66 254.12 C305.97 223.69, 332.9 194.48, 368.26 154.5 M281.66 254.12 C300.62 232.83, 320.3 210.27, 368.26 154.5 M287.3 253.72 C303.49 235.08, 319.28 217.08, 368.65 160.14 M287.3 253.72 C317.68 219.27, 347.73 184.94, 368.65 160.14 M292.29 254.08 C311.21 232.44, 330.2 206.76, 368.39 166.54 M292.29 254.08 C320.97 221.65, 352.07 186.25, 368.39 166.54 M297.93 253.69 C320.94 229.3, 342.13 205.35, 368.13 172.93 M297.93 253.69 C318.81 231.44, 338 207.41, 368.13 172.93 M302.92 254.05 C318.65 235.06, 334.67 216.47, 368.52 178.58 M302.92 254.05 C322.31 233.36, 339.88 211.92, 368.52 178.58 M308.56 253.65 C326.78 231.27, 347.44 209.12, 368.26 184.97 M308.56 253.65 C326.25 234.51, 342.99 215.96, 368.26 184.97 M313.55 254.01 C328.31 236.37, 340.65 222.26, 368.66 190.62 M313.55 254.01 C325.24 241.17, 336.9 227.93, 368.66 190.62 M319.19 253.62 C332.43 240.63, 346.71 223.88, 368.4 197.02 M319.19 253.62 C333.51 236.77, 347.09 220.77, 368.4 197.02 M324.18 253.98 C332.81 241.63, 345.06 229.61, 368.13 203.41 M324.18 253.98 C339.18 235.55, 354.83 217.56, 368.13 203.41 M329.82 253.58 C344.61 234.16, 361.75 216.94, 368.53 209.06 M329.82 253.58 C341.42 239.65, 354.53 226.05, 368.53 209.06 M334.81 253.94 C341.77 245.72, 349.68 236.5, 368.27 215.45 M334.81 253.94 C345.59 241.3, 356.22 229.42, 368.27 215.45 M338.48 255.81 C346.58 249.64, 350.03 239.09, 368.66 221.1 M338.48 255.81 C345.39 248.7, 350.52 242.19, 368.66 221.1 M344.78 254.66 C352.96 243.21, 362.92 235.02, 367.75 228.25 M344.78 254.66 C349.27 248.28, 354.89 243.34, 367.75 228.25 M351.74 252.76 C354.44 248.49, 361.03 243.56, 364.2 238.42 M351.74 252.76 C355.49 249.9, 358.49 244.84, 364.2 238.42" stroke="#12b886" stroke-width="0.5" fill="none"></path><path d="M32 0 M32 0 C144.82 0.24, 257.29 -0.24, 336 0 M32 0 C122.79 1.33, 213.35 1.78, 336 0 M336 0 C357.55 -0.35, 368.54 11.6, 368 32 M336 0 C356.93 -1.14, 369.58 12.75, 368 32 M368 32 C369.07 73.33, 368.3 115.28, 368 221 M368 32 C369.56 99.66, 368.8 169.86, 368 221 M368 221 C368.36 241.8, 358.74 251.26, 336 253 M368 221 C369.26 243, 356.85 251.9, 336 253 M336 253 C246.26 252.16, 153.65 252.17, 32 253 M336 253 C259.79 252.61, 183.94 253.4, 32 253 M32 253 C11.22 252.43, 0.03 243.9, 0 221 M32 253 C10.03 252.44, 1.47 243.01, 0 221 M0 221 C3.4 155.55, 0.34 91.02, 0 32 M0 221 C0.92 160.28, 0.24 97.05, 0 32 M0 32 C0.64 10.23, 8.72 -1.95, 32 0 M0 32 C0.18 10.9, 12.64 -2.28, 32 0" stroke="#000000" stroke-width="1" fill="none"></path></g><g transform="translate(1354.4771146094663 1654.5961523717413) rotate(0 135.37890625 32.19999999999999)"><text x="135.37890625" y="0" font-family="Helvetica, Segoe UI Emoji" font-size="28px" fill="#000000" text-anchor="middle" style="white-space: pre;" direction="ltr" dominant-baseline="text-before-edge"> Address A</text><text x="135.37890625" y="32.199999999999996" font-family="Helvetica, Segoe UI Emoji" font-size="28px" fill="#000000" text-anchor="middle" style="white-space: pre;" direction="ltr" dominant-baseline="text-before-edge">IRecoveryPolicyVerfiy</text></g><g stroke-linecap="round"><g transform="translate(1544.4430859713111 1540.0889849813962) rotate(0 85.53146608850489 -117.76339476718864)"><path d="M0.72 -1.14 C29.28 -40.65, 142.91 -197.25, 171.42 -236.4 M-0.36 0.88 C28.03 -38.56, 141.84 -195.96, 170.42 -235.27" stroke="#000000" stroke-width="4" fill="none"></path></g><g transform="translate(1544.4430859713111 1540.0889849813962) rotate(0 85.53146608850489 -117.76339476718864)"><path d="M160.29 -206.59 C163.25 -214.84, 166.3 -222.57, 169.35 -233.7 M162.87 -206.9 C165.51 -217.66, 169.27 -229.8, 171.09 -234.58" stroke="#000000" stroke-width="4" fill="none"></path></g><g transform="translate(1544.4430859713111 1540.0889849813962) rotate(0 85.53146608850489 -117.76339476718864)"><path d="M143.67 -218.63 C151.77 -223.31, 159.88 -227.37, 169.35 -233.7 M146.26 -218.94 C155.53 -224.89, 165.85 -232.27, 171.09 -234.58" stroke="#000000" stroke-width="4" fill="none"></path></g></g><mask></mask><g transform="translate(1723.7898495079125 1270.922790999975) rotate(0 509.2470703125 41.400000000000006)"><text x="0" y="0" font-family="Helvetica, Segoe UI Emoji" font-size="36px" fill="#000000" text-anchor="start" style="white-space: pre;" direction="ltr" dominant-baseline="text-before-edge">3.Based on return (verification success, weight),</text><text x="0" y="41.4" font-family="Helvetica, Segoe UI Emoji" font-size="36px" fill="#000000" text-anchor="start" style="white-space: pre;" direction="ltr" dominant-baseline="text-before-edge">Handle account recovery：replaceOwnerKey/temporaryStorage</text></g><g transform="translate(1954.1721459442128 407.9833414938337) rotate(0 105.8271484375 16.100000000000023)"><text x="105.8271484375" y="0" font-family="Helvetica, Segoe UI Emoji" font-size="28px" fill="#087f5b" text-anchor="middle" style="white-space: pre;" direction="ltr" dominant-baseline="text-before-edge">recoveryConfig2:</text></g><g transform="translate(1914.798128114588 501.8819820215856) rotate(0 242.7783203125 48.30000000000001)"><text x="0" y="0" font-family="Helvetica, Segoe UI Emoji" font-size="28px" fill="#000000" text-anchor="start" style="white-space: pre;" direction="ltr" dominant-baseline="text-before-edge">1.List of Guardians with property</text><text x="0" y="32.199999999999996" font-family="Helvetica, Segoe UI Emoji" font-size="28px" fill="#000000" text-anchor="start" style="white-space: pre;" direction="ltr" dominant-baseline="text-before-edge">2.Conditional threshold + lock period</text><text x="0" y="64.39999999999999" font-family="Helvetica, Segoe UI Emoji" font-size="28px" fill="#000000" text-anchor="start" style="white-space: pre;" direction="ltr" dominant-baseline="text-before-edge">3.PolicyVerification Contract Address B</text></g><g stroke-linecap="round" transform="translate(1890.7502832135956 367.86804886125924) rotate(0 301.83631298629746 140.105475576705)"><path d="M32 0 M32 0 C202.98 -0.91, 374.02 -0.64, 571.67 0 M571.67 0 C592.57 1.3, 601.68 10.89, 603.67 32 M603.67 32 C604.25 112.71, 604.07 191.11, 603.67 248.21 M603.67 248.21 C603.36 267.94, 592.18 281.46, 571.67 280.21 M571.67 280.21 C373.45 279.19, 173.56 279.62, 32 280.21 M32 280.21 C9.6 282.02, -1.5 267.75, 0 248.21 M0 248.21 C-0.5 172.59, 2.53 97.51, 0 32 M0 32 C1.67 11.15, 10.74 -1.85, 32 0" stroke="#000000" stroke-width="4.5" fill="none" stroke-dasharray="1.5 10"></path></g></svg>