<svg version="1.1" xmlns="http://www.w3.org/2000/svg" viewBox="0 0 666.3457361857036 663.4996807578468" width="666.3457361857036" height="663.4996807578468">
  <!-- svg-source:excalidraw -->
  
  <defs>
    <style class="style-fonts">
      @font-face {
        font-family: "Virgil";
        src: url("https://excalidraw.com/Virgil.woff2");
      }
      @font-face {
        font-family: "Cascadia";
        src: url("https://excalidraw.com/Cascadia.woff2");
      }
    </style>
  </defs>
  <rect x="0" y="0" width="666.3457361857036" height="663.4996807578468" fill="#ffffff"></rect><g stroke-linecap="round" transform="translate(106.34929656981785 142.50497182210302) rotate(0 274.99821980794286 222.6309585571289)"><path d="M7.86 8.16 C7.86 8.16, 7.86 8.16, 7.86 8.16 M7.86 8.16 C7.86 8.16, 7.86 8.16, 7.86 8.16 M3.66 19.09 C9.35 15.81, 12.8 9.4, 18.1 2.48 M3.66 19.09 C8.57 13.56, 11.45 10.18, 18.1 2.48 M2.75 26.24 C9.89 20.28, 17.01 10.66, 24.4 1.33 M2.75 26.24 C9.37 19.58, 13.76 13.6, 24.4 1.33 M1.83 33.39 C14.07 20.42, 24.65 9.19, 30.7 0.18 M1.83 33.39 C9.14 25.76, 14.95 17.04, 30.7 0.18 M1.57 39.79 C11.81 30.27, 20.33 17.31, 34.37 2.05 M1.57 39.79 C14.37 26.06, 24.78 12.98, 34.37 2.05 M1.96 45.43 C16.99 30.53, 31.27 14.14, 39.36 2.41 M1.96 45.43 C13.82 32.56, 26.19 18.5, 39.36 2.41 M1.7 51.83 C13.82 37.1, 26.25 24.69, 45 2.02 M1.7 51.83 C12.76 40.14, 23.55 27.32, 45 2.02 M1.44 58.23 C14.41 42.91, 26.49 28.99, 49.99 2.38 M1.44 58.23 C18.43 39.67, 34.28 20.68, 49.99 2.38 M1.83 63.87 C19.32 45.83, 36.63 24.6, 55.63 1.98 M1.83 63.87 C14.11 49.44, 26.85 34.73, 55.63 1.98 M1.57 70.27 C17 52.43, 31.53 34.5, 60.62 2.34 M1.57 70.27 C23.47 45.63, 44.29 22.65, 60.62 2.34 M1.97 75.91 C20.59 54.97, 41.59 31.91, 66.26 1.95 M1.97 75.91 C26.85 46.88, 51.12 18.18, 66.26 1.95 M1.71 82.31 C23.65 55.23, 48.34 29.04, 71.25 2.31 M1.71 82.31 C24.39 55.52, 45.94 31.1, 71.25 2.31 M1.44 88.71 C16.64 71.1, 34.58 52.61, 76.89 1.91 M1.44 88.71 C28.14 57.06, 55.54 24.66, 76.89 1.91 M1.84 94.35 C16.55 73.09, 33.58 55.99, 81.88 2.27 M1.84 94.35 C19.47 73.92, 37.09 54.55, 81.88 2.27 M1.58 100.75 C31.95 68.35, 60.09 31.07, 87.52 1.88 M1.58 100.75 C33.27 64.14, 62.93 28.26, 87.52 1.88 M1.97 106.39 C28.12 77.69, 50.99 49.36, 92.51 2.24 M1.97 106.39 C31.95 72.76, 61.64 38.19, 92.51 2.24 M1.71 112.79 C24.88 84.79, 49.7 55, 98.15 1.85 M1.71 112.79 C37.92 72.24, 74.54 31.03, 98.15 1.85 M1.45 119.19 C24.44 90.91, 48.32 66.13, 103.14 2.21 M1.45 119.19 C38.74 74.88, 77.59 32.09, 103.14 2.21 M1.84 124.83 C43.04 74.49, 82.15 30.71, 108.78 1.81 M1.84 124.83 C33.57 85.73, 67.39 48, 108.78 1.81 M1.58 131.23 C23.93 105.95, 46.69 76.94, 113.77 2.17 M1.58 131.23 C41.7 86.46, 82.5 40.36, 113.77 2.17 M1.98 136.87 C32.3 99.89, 63.64 65.07, 119.41 1.78 M1.98 136.87 C37.01 96.38, 73.72 55.17, 119.41 1.78 M1.72 143.27 C36.42 101.09, 71.98 63.65, 124.4 2.14 M1.72 143.27 C41.12 96.6, 82.05 49.1, 124.4 2.14 M1.45 149.67 C40.8 101.5, 82.25 57.35, 130.04 1.74 M1.45 149.67 C28.62 118.36, 56.95 85.15, 130.04 1.74 M1.85 155.31 C49.72 103.33, 97.25 47.5, 135.03 2.1 M1.85 155.31 C33.96 118.5, 66.06 81.35, 135.03 2.1 M1.59 161.71 C30.91 129.77, 60.06 93.69, 140.67 1.71 M1.59 161.71 C39.1 118.46, 78.5 74.61, 140.67 1.71 M1.98 167.35 C41.38 120.77, 83.87 72.73, 145.66 2.07 M1.98 167.35 C40.47 124.14, 79.83 79.31, 145.66 2.07 M1.72 173.75 C56.54 109.89, 113.73 48.38, 150.65 2.43 M1.72 173.75 C45.96 123.63, 89.5 72.51, 150.65 2.43 M1.46 180.14 C50.45 122.45, 99.52 64.94, 156.29 2.03 M1.46 180.14 C43.58 132.96, 87.35 83.37, 156.29 2.03 M1.85 185.79 C40.66 140.74, 79.19 98.94, 161.28 2.39 M1.85 185.79 C38.72 143.44, 75.89 99.41, 161.28 2.39 M1.59 192.19 C50.39 136.43, 99.84 78.46, 166.92 2 M1.59 192.19 C66.57 117.44, 131.32 42.99, 166.92 2 M1.99 197.83 C65.88 124.95, 126.11 53.35, 171.91 2.36 M1.99 197.83 C40.17 151.42, 80.42 106.69, 171.91 2.36 M1.72 204.23 C42.42 156.18, 82.41 111.2, 177.55 1.96 M1.72 204.23 C37.22 161.58, 73.27 119.79, 177.55 1.96 M1.46 210.62 C37.76 169.22, 73.65 126.37, 182.54 2.32 M1.46 210.62 C73.3 129.45, 143.52 50.23, 182.54 2.32 M1.86 216.27 C62.03 145.04, 125.34 73.2, 188.18 1.93 M1.86 216.27 C70.93 136.94, 140.99 56.88, 188.18 1.93 M1.6 222.66 C51.97 165.29, 99.69 108.73, 193.17 2.29 M1.6 222.66 C72.2 143.13, 141.29 63.81, 193.17 2.29 M1.99 228.31 C79.33 142.56, 154.09 55.51, 198.81 1.9 M1.99 228.31 C44.21 177.69, 89.13 126.53, 198.81 1.9 M1.73 234.71 C68.9 155.8, 138.87 74.77, 203.8 2.26 M1.73 234.71 C80.71 144.64, 159.3 54.18, 203.8 2.26 M1.47 241.1 C76.2 157, 152.09 69.96, 209.44 1.86 M1.47 241.1 C72.67 162, 142.01 80.92, 209.44 1.86 M1.86 246.75 C73.68 163.75, 146.65 81.56, 214.43 2.22 M1.86 246.75 C58.12 180.91, 114.94 117.21, 214.43 2.22 M1.6 253.14 C48.21 198.96, 97.6 144.35, 220.07 1.83 M1.6 253.14 C82.85 161.59, 163.4 68.44, 220.07 1.83 M2 258.79 C50.43 203.09, 101.99 144.93, 225.06 2.19 M2 258.79 C78.84 169.75, 156.38 82.19, 225.06 2.19 M1.73 265.19 C67.54 188.6, 134.45 111.63, 230.7 1.79 M1.73 265.19 C55.77 200.77, 111.56 137.18, 230.7 1.79 M1.47 271.58 C60.82 200.61, 122.58 131, 235.69 2.15 M1.47 271.58 C84.81 173.9, 170.04 76.87, 235.69 2.15 M1.87 277.23 C76.62 191.2, 152.61 104.8, 241.33 1.76 M1.87 277.23 C84.56 182.38, 165.78 89.03, 241.33 1.76 M1.61 283.62 C95.41 175.68, 189.71 68.16, 246.32 2.12 M1.61 283.62 C52.71 224.6, 104.45 165.82, 246.32 2.12 M2 289.27 C98.81 179.75, 193.28 68.5, 251.96 1.72 M2 289.27 C80.94 200.59, 158.46 111.61, 251.96 1.72 M1.74 295.66 C59.31 232.32, 115.41 166.06, 256.95 2.08 M1.74 295.66 C90.3 193.62, 177.94 91.8, 256.95 2.08 M1.48 302.06 C57.54 239.26, 110.46 177.15, 262.59 1.69 M1.48 302.06 C72.85 219, 144.32 136.17, 262.59 1.69 M1.87 307.71 C79.52 217.95, 156.23 129.06, 267.58 2.05 M1.87 307.71 C104.34 187.54, 208.15 67.27, 267.58 2.05 M1.61 314.1 C73.35 233.07, 143.04 151.15, 272.56 2.41 M1.61 314.1 C59.68 249.56, 115.56 184.57, 272.56 2.41 M2.01 319.75 C107.63 199.65, 213.47 78.03, 278.21 2.01 M2.01 319.75 C94.27 213.14, 187.68 106.1, 278.21 2.01 M1.74 326.14 C59.72 258.71, 117.87 193.04, 283.19 2.37 M1.74 326.14 C103.39 208.36, 205.94 91.2, 283.19 2.37 M1.48 332.54 C110.15 207.27, 218.32 81.98, 288.84 1.98 M1.48 332.54 C98.91 221.34, 196.45 109.24, 288.84 1.98 M1.88 338.19 C85.41 243.81, 167.84 150.34, 293.82 2.34 M1.88 338.19 C77.22 253.74, 150.91 169.06, 293.82 2.34 M1.62 344.58 C70.8 264.47, 141.6 182.45, 299.47 1.94 M1.62 344.58 C97.03 235.18, 192.09 125.99, 299.47 1.94 M2.01 350.23 C102.34 237.79, 201.22 124.2, 304.45 2.3 M2.01 350.23 C77.9 261.23, 155.56 172.99, 304.45 2.3 M1.75 356.62 C67.93 280.7, 132.81 205.53, 310.1 1.91 M1.75 356.62 C113.77 227.88, 226.34 99.55, 310.1 1.91 M1.49 363.02 C112.78 235.13, 224.25 105.38, 315.08 2.27 M1.49 363.02 C70.22 284.75, 136.61 207.71, 315.08 2.27 M1.88 368.66 C78.89 282.06, 154.56 195.35, 320.73 1.88 M1.88 368.66 C105.88 249.96, 208.13 131.19, 320.73 1.88 M1.62 375.06 C123.19 237.37, 243.16 99.8, 325.71 2.24 M1.62 375.06 C78.94 284.88, 156.56 195.98, 325.71 2.24 M2.02 380.71 C111.37 255.73, 218.52 131.31, 331.36 1.84 M2.02 380.71 C72.66 297.32, 143.89 215.79, 331.36 1.84 M1.75 387.1 C120.31 251.87, 237.35 115.16, 336.34 2.2 M1.75 387.1 C104.81 268.24, 207.43 151.03, 336.34 2.2 M1.49 393.5 C134.46 242.2, 265.43 90.85, 341.99 1.81 M1.49 393.5 C79.01 305.71, 156.32 216.82, 341.99 1.81 M1.89 399.14 C97.21 291.57, 192.03 182.77, 346.97 2.17 M1.89 399.14 C89.41 296.29, 178.39 194.53, 346.97 2.17 M1.63 405.54 C142.37 246.37, 281.74 84.97, 352.62 1.77 M1.63 405.54 C106.89 282.36, 214.22 159.02, 352.62 1.77 M0.05 413.45 C103.29 296.38, 206.34 179.01, 357.6 2.13 M0.05 413.45 C143.7 249.75, 285.65 85.7, 357.6 2.13 M1.1 418.34 C87.08 320.79, 170.95 222.51, 363.25 1.74 M1.1 418.34 C130.53 267.74, 262.62 116, 363.25 1.74 M1.5 423.98 C121.4 286.56, 240.74 148.76, 368.23 2.1 M1.5 423.98 C112.41 298.06, 223.04 169.89, 368.23 2.1 M3.2 428.11 C94.06 321.32, 186.03 215.11, 373.88 1.7 M3.2 428.11 C107.28 308.28, 212.26 188.26, 373.88 1.7 M5.57 431.49 C122.65 295.44, 239.3 160.46, 378.86 2.06 M5.57 431.49 C82.12 341.64, 160.22 251.65, 378.86 2.06 M7.27 435.63 C111.88 312.72, 217.29 190.04, 383.85 2.42 M7.27 435.63 C123.23 300.98, 239.7 166.92, 383.85 2.42 M9.64 439.01 C146.13 280.47, 285.15 122.07, 389.49 2.03 M9.64 439.01 C93.94 345.04, 177.35 249.27, 389.49 2.03 M13.31 440.88 C110.71 329.65, 208.12 216.83, 394.48 2.39 M13.31 440.88 C109.27 329.42, 206.68 217.29, 394.48 2.39 M16.99 442.74 C155.27 283.8, 291.3 126.74, 400.12 1.99 M16.99 442.74 C134.62 309.25, 251.02 175.25, 400.12 1.99 M20 445.37 C165.98 275.65, 311.29 107.16, 405.11 2.35 M20 445.37 C133.98 313.99, 247.57 182.74, 405.11 2.35 M24.99 445.73 C170.33 278.36, 315.94 112.02, 410.75 1.96 M24.99 445.73 C139.11 313, 253.81 181.35, 410.75 1.96 M29.32 446.84 C164.18 293.02, 298.06 138.56, 415.74 2.32 M29.32 446.84 C176 280.57, 321.88 112.85, 415.74 2.32 M34.31 447.2 C140.41 325.27, 247.13 202.52, 421.38 1.93 M34.31 447.2 C151.33 311.62, 267.54 177.41, 421.38 1.93 M39.3 447.56 C165.65 299.04, 294.98 150.87, 426.37 2.29 M39.3 447.56 C118.43 357.83, 197.95 266.05, 426.37 2.29 M44.94 447.17 C162.78 313.74, 278.7 180.46, 432.01 1.89 M44.94 447.17 C155.31 320.88, 264.19 196.07, 432.01 1.89 M49.93 447.53 C204.78 270.24, 358.75 93.69, 437 2.25 M49.93 447.53 C147.94 334.71, 246.96 221.3, 437 2.25 M55.57 447.14 C166.71 322.15, 275.37 196.11, 442.64 1.86 M55.57 447.14 C160.93 326.85, 265.36 206.31, 442.64 1.86 M60.56 447.5 C172.41 318.88, 282.98 191.94, 447.63 2.22 M60.56 447.5 C201.88 284.89, 343.66 122.29, 447.63 2.22 M66.2 447.1 C153.57 342.72, 242.46 240.8, 453.27 1.82 M66.2 447.1 C207.79 286.07, 348.56 124.74, 453.27 1.82 M71.19 447.46 C161.38 342.08, 251.29 239.14, 458.26 2.18 M71.19 447.46 C203.96 294.22, 335.96 141.68, 458.26 2.18 M76.83 447.07 C209.13 295.25, 341.83 142.57, 463.9 1.79 M76.83 447.07 C202.3 301.71, 328.3 156.75, 463.9 1.79 M81.82 447.43 C217.06 290.74, 352.72 136.52, 468.89 2.15 M81.82 447.43 C218.97 288.39, 356.43 128.75, 468.89 2.15 M87.46 447.03 C243.96 270.55, 398.48 92.75, 474.53 1.75 M87.46 447.03 C236.89 274.25, 385.75 102.85, 474.53 1.75 M92.45 447.39 C183.09 346.38, 272.55 244.69, 479.52 2.11 M92.45 447.39 C224.62 294.8, 358.58 140.87, 479.52 2.11 M98.09 447 C241.13 283.74, 385.25 119.23, 485.17 1.72 M98.09 447 C190.99 341.39, 282.61 235.14, 485.17 1.72 M103.08 447.36 C244.7 283.58, 385.59 122.74, 490.15 2.08 M103.08 447.36 C184.51 355.01, 265.76 262.06, 490.15 2.08 M108.72 446.96 C262.96 269.56, 416.84 91.49, 495.8 1.68 M108.72 446.96 C203.91 338.92, 296.93 231.06, 495.8 1.68 M113.71 447.32 C234.1 307.28, 356.81 167.04, 500.78 2.04 M113.71 447.32 C197.88 350.5, 282.04 253.88, 500.78 2.04 M119.35 446.93 C207.1 348, 292.61 247.03, 505.77 2.4 M119.35 446.93 C204.2 347.07, 289.41 247.74, 505.77 2.4 M124.34 447.29 C252.84 298.45, 383.05 147.63, 511.41 2.01 M124.34 447.29 C204.11 357.34, 283.12 266.26, 511.41 2.01 M129.98 446.89 C271.85 282.59, 414.88 118.85, 518.37 0.11 M129.98 446.89 C234.68 325.89, 339.96 204, 518.37 0.11 M134.97 447.25 C275.19 283.73, 417.48 121.31, 522.7 1.22 M134.97 447.25 C277.28 283.43, 419.96 119.91, 522.7 1.22 M139.95 447.61 C266.68 303.71, 392.61 158.01, 527.69 1.58 M139.95 447.61 C274.18 293.01, 408.42 138.06, 527.69 1.58 M145.6 447.22 C228.24 349.65, 313.25 251.74, 532.67 1.94 M145.6 447.22 C249.71 328.53, 354.85 208.16, 532.67 1.94 M150.58 447.58 C301.6 272.77, 452.78 99.15, 535.69 4.56 M150.58 447.58 C255.3 326.84, 359.67 206.89, 535.69 4.56 M156.23 447.18 C232.91 357.77, 311.01 266.8, 539.37 6.43 M156.23 447.18 C249.81 339.54, 344.18 232.05, 539.37 6.43 M161.21 447.54 C249.85 345.07, 339.55 241.39, 543.04 8.3 M161.21 447.54 C286.19 302.8, 412.57 157.3, 543.04 8.3 M166.86 447.15 C284.23 313.36, 401.98 178.5, 544.75 12.44 M166.86 447.15 C312.22 278.41, 458.82 109.94, 544.75 12.44 M171.84 447.51 C288.58 311.65, 404.85 176.98, 547.11 15.82 M171.84 447.51 C277.15 325.21, 382.35 203.51, 547.11 15.82 M177.49 447.12 C255.15 357.39, 332.75 268.52, 549.47 19.2 M177.49 447.12 C312.17 294.52, 445.74 140.11, 549.47 19.2 M182.47 447.48 C280.24 334.68, 378.03 222.25, 549.87 24.84 M182.47 447.48 C309.16 304.87, 434.06 160.98, 549.87 24.84 M188.12 447.08 C283.64 337.31, 377.91 229.75, 550.92 29.73 M188.12 447.08 C327.54 286.65, 467.91 124.77, 550.92 29.73 M193.11 447.44 C307.09 316.52, 421.42 185.86, 552.63 33.86 M193.11 447.44 C336.14 283.14, 477.51 119.83, 552.63 33.86 M198.75 447.05 C308.02 321.77, 417.08 195.81, 552.36 40.26 M198.75 447.05 C292.33 340.2, 386.14 232.45, 552.36 40.26 M203.74 447.41 C300.04 336.21, 397.1 223.63, 552.1 46.66 M203.74 447.41 C339.36 288.73, 476.04 131.58, 552.1 46.66 M209.38 447.01 C303.69 339.74, 398.06 232.49, 552.5 52.3 M209.38 447.01 C327.96 309.33, 447.43 172.33, 552.5 52.3 M214.37 447.37 C330.61 313.28, 446.7 179.9, 552.24 58.7 M214.37 447.37 C335 309.66, 453.89 172.99, 552.24 58.7 M220.01 446.98 C343.36 303.14, 468.43 160.05, 552.63 64.34 M220.01 446.98 C340.94 306.8, 462.44 167.4, 552.63 64.34 M225 447.34 C320.91 338.09, 416.13 228.51, 552.37 70.74 M225 447.34 C340.62 314.02, 456.93 180.16, 552.37 70.74 M230.64 446.94 C327.45 336.68, 423.98 225.43, 552.11 77.14 M230.64 446.94 C295.04 373.25, 360.65 298.99, 552.11 77.14 M235.63 447.3 C327.29 342.93, 417.67 239.75, 552.5 82.78 M235.63 447.3 C346.52 318.04, 457.7 190.3, 552.5 82.78 M241.27 446.91 C314.91 363.97, 389.12 279.81, 552.24 89.18 M241.27 446.91 C341.05 335.16, 439.27 222.11, 552.24 89.18 M246.26 447.27 C329.36 353.23, 411.45 258.37, 552.64 94.82 M246.26 447.27 C351.37 323.6, 459.01 201.11, 552.64 94.82 M251.9 446.87 C325.03 364.72, 396.05 280.71, 552.37 101.22 M251.9 446.87 C348.88 334.66, 446.98 221.61, 552.37 101.22 M256.89 447.23 C369.1 319.01, 478.94 193.28, 552.11 107.62 M256.89 447.23 C324.79 369.25, 392.7 291.27, 552.11 107.62 M261.87 447.59 C338.75 359.59, 416.28 268.7, 552.51 113.26 M261.87 447.59 C327.23 374.7, 392.52 300.32, 552.51 113.26 M267.52 447.2 C358.06 342.01, 448.99 238.74, 552.25 119.66 M267.52 447.2 C362.58 336.86, 458.27 226.88, 552.25 119.66 M272.5 447.56 C370.58 335.13, 466.25 224.39, 552.64 125.3 M272.5 447.56 C371.7 333.25, 471.43 219.67, 552.64 125.3 M278.15 447.17 C334.43 382.73, 388.95 317.61, 552.38 131.7 M278.15 447.17 C356.69 357.11, 433.65 268.58, 552.38 131.7 M283.13 447.53 C391.42 323.35, 497.09 201.91, 552.12 138.09 M283.13 447.53 C347.33 372.45, 411.71 299.02, 552.12 138.09 M288.78 447.13 C369.39 352.54, 450.95 257.97, 552.51 143.74 M288.78 447.13 C379.66 342.59, 468.95 240.35, 552.51 143.74 M293.76 447.49 C351.56 381.5, 408.74 314.82, 552.25 150.14 M293.76 447.49 C387.86 340.37, 481.4 232.66, 552.25 150.14 M299.41 447.1 C377.35 356.52, 455.05 267.49, 552.64 155.78 M299.41 447.1 C362.35 373.78, 426.26 300.28, 552.64 155.78 M304.39 447.46 C380.87 362.31, 454.25 276.54, 552.38 162.18 M304.39 447.46 C397.44 340.16, 490.57 232.81, 552.38 162.18 M310.04 447.06 C371.03 374.63, 432.17 303.92, 552.12 168.57 M310.04 447.06 C364.73 385.42, 418.72 323.59, 552.12 168.57 M315.02 447.42 C365.26 388.69, 415.63 331.54, 552.52 174.22 M315.02 447.42 C381.65 370.29, 449.46 293.09, 552.52 174.22 M320.67 447.03 C411.19 345.46, 501.32 242.22, 552.25 180.61 M320.67 447.03 C396.6 359.75, 471.43 272, 552.25 180.61 M325.65 447.39 C370.56 395.2, 417.48 342.07, 552.65 186.26 M325.65 447.39 C389.62 375.5, 451.69 302.85, 552.65 186.26 M331.3 446.99 C400.46 364.79, 472.87 285.13, 552.39 192.66 M331.3 446.99 C398.82 370.72, 466.55 293.48, 552.39 192.66 M336.28 447.35 C384.64 394.62, 433.36 338.45, 552.13 199.05 M336.28 447.35 C400.86 373.65, 466.28 298.56, 552.13 199.05 M341.93 446.96 C398.51 382.36, 454.28 317.28, 552.52 204.7 M341.93 446.96 C417.3 360.05, 492.01 273.63, 552.52 204.7 M346.91 447.32 C405.55 380.32, 463.29 315.16, 552.26 211.09 M346.91 447.32 C401.32 385.68, 454.46 324.27, 552.26 211.09 M352.56 446.92 C395.69 396.96, 438.85 349.56, 552.65 216.74 M352.56 446.92 C422.16 366.44, 493.1 285.13, 552.65 216.74 M357.54 447.28 C418.09 380.3, 474.23 310.62, 552.39 223.14 M357.54 447.28 C403.55 394.98, 449.6 342.26, 552.39 223.14 M363.19 446.89 C425.57 374.22, 488.56 301.22, 552.13 229.53 M363.19 446.89 C406.04 395.71, 449.25 346.78, 552.13 229.53 M368.17 447.25 C419.18 393.07, 466.57 338.47, 552.53 235.18 M368.17 447.25 C419.01 388.78, 469.88 331.42, 552.53 235.18 M373.16 447.61 C444.62 363.61, 514.41 281.12, 552.26 241.57 M373.16 447.61 C442.08 368.74, 510.6 290.42, 552.26 241.57 M378.8 447.22 C421.65 398.51, 464.25 348.66, 552.66 247.22 M378.8 447.22 C442.94 373.43, 508.57 299.6, 552.66 247.22 M383.79 447.58 C443.32 382.11, 500.12 315.63, 552.4 253.61 M383.79 447.58 C431.49 391.1, 481.06 334.76, 552.4 253.61 M389.43 447.18 C424.35 406, 459.24 365.67, 552.14 260.01 M389.43 447.18 C441.77 387.73, 493.51 327.78, 552.14 260.01 M394.42 447.54 C440.9 396.52, 489 341.96, 552.53 265.66 M394.42 447.54 C438.77 398.75, 480.49 349.03, 552.53 265.66 M400.06 447.15 C436.1 407.46, 470.25 368.43, 552.27 272.05 M400.06 447.15 C437 402.91, 474.64 360.61, 552.27 272.05 M405.05 447.51 C457.52 384.97, 512.2 322.7, 552.66 277.7 M405.05 447.51 C454.03 392.59, 501.39 336.47, 552.66 277.7 M410.69 447.11 C464.48 386.09, 519.31 324.32, 552.4 284.09 M410.69 447.11 C446.48 405.27, 482.52 363.84, 552.4 284.09 M415.68 447.47 C452.69 406.12, 486.51 363.73, 552.14 290.49 M415.68 447.47 C460.62 396.79, 505.43 347.47, 552.14 290.49 M421.32 447.08 C464.84 400.86, 504.76 351.95, 552.54 296.14 M421.32 447.08 C451.36 411.78, 482.05 378.12, 552.54 296.14 M426.31 447.44 C459.03 410.47, 491.29 374.6, 552.27 302.53 M426.31 447.44 C475.37 391.67, 525.03 334.45, 552.27 302.53 M431.95 447.04 C473.72 403.09, 510.08 357.28, 552.67 308.18 M431.95 447.04 C480.03 392.2, 527.03 337.25, 552.67 308.18 M436.94 447.4 C460.03 419.46, 483.43 389.04, 552.41 314.57 M436.94 447.4 C472.36 405.09, 509.21 364.44, 552.41 314.57 M442.58 447.01 C483.98 397.58, 527.02 349.46, 552.15 320.97 M442.58 447.01 C482.62 403.05, 521.01 358.6, 552.15 320.97 M447.57 447.37 C489.35 401.33, 529.32 355.54, 552.54 326.61 M447.57 447.37 C484.52 402.81, 523.1 359.78, 552.54 326.61 M453.21 446.97 C490.44 403.26, 528.32 360.89, 552.28 333.01 M453.21 446.97 C480.7 414.69, 508.24 381.68, 552.28 333.01 M458.2 447.33 C476.03 421.92, 497.35 399.15, 552.67 338.66 M458.2 447.33 C483.95 418.36, 508.45 390.06, 552.67 338.66 M463.84 446.94 C485.06 422.46, 506.49 399.18, 552.41 345.05 M463.84 446.94 C489.61 415.57, 516.73 383.68, 552.41 345.05 M468.83 447.3 C493.43 417.32, 521.27 387.63, 552.15 351.45 M468.83 447.3 C502.61 409.01, 535.09 372.3, 552.15 351.45 M474.47 446.9 C492.4 427.22, 509.03 407.5, 552.55 357.09 M474.47 446.9 C499.56 418, 524.66 387.79, 552.55 357.09 M479.46 447.26 C499.95 423.2, 521.82 401.39, 552.28 363.49 M479.46 447.26 C494.11 429.63, 511.26 411.04, 552.28 363.49 M485.1 446.87 C497.93 432.54, 515.17 413.98, 552.68 369.14 M485.1 446.87 C497.96 430.94, 512.37 414.67, 552.68 369.14 M490.09 447.23 C508.89 425.08, 529.49 403.93, 552.42 375.53 M490.09 447.23 C508.62 427.11, 525.56 407.67, 552.42 375.53 M495.08 447.59 C509.07 429.06, 524.21 414.97, 552.16 381.93 M495.08 447.59 C518.16 422.13, 539.08 397.09, 552.16 381.93 M500.72 447.2 C517.77 423.91, 538.01 402, 552.55 387.57 M500.72 447.2 C519.06 426.35, 534.51 407.45, 552.55 387.57 M505.71 447.56 C517.17 437.21, 523.81 425.04, 552.29 393.97 M505.71 447.56 C515.92 435.15, 527.16 420.87, 552.29 393.97 M511.35 447.16 C521.09 435.27, 528.39 427.84, 552.68 399.61 M511.35 447.16 C521.92 434.67, 532.79 423.68, 552.68 399.61 M518.31 445.26 C526.49 435.53, 538.88 422.34, 552.42 406.01 M518.31 445.26 C530.34 430.77, 542.08 417.25, 552.42 406.01 M523.95 444.86 C533.92 432.87, 545.07 420.01, 550.85 413.92 M523.95 444.86 C532.22 433.38, 541.78 424.63, 550.85 413.92 M530.25 443.71 C538.19 437.74, 542.34 431.41, 549.93 421.07 M530.25 443.71 C535.17 438.24, 540.27 432.95, 549.93 421.07 M533.92 445.58 C537.2 443.57, 541.93 437.03, 549.01 428.22 M533.92 445.58 C537.78 441.29, 540.62 438.69, 549.01 428.22" stroke="#ced4da" stroke-width="0.5" fill="none"></path><path d="M32 0 M32 0 C136.13 -1.27, 239.96 -1.14, 518 0 M32 0 C224.92 1.24, 417.22 1.44, 518 0 M518 0 C537.94 0.01, 550.82 12.28, 550 32 M518 0 C539.43 2.09, 548.94 10.19, 550 32 M550 32 C550.41 160.69, 550.15 291.12, 550 413.26 M550 32 C549 184.39, 549.11 336.53, 550 413.26 M550 413.26 C549.18 436.49, 539.97 446.27, 518 445.26 M550 413.26 C549.06 432.46, 539.05 444.19, 518 445.26 M518 445.26 C406.73 444.62, 296.66 444.72, 32 445.26 M518 445.26 C344.21 444.94, 170.11 445.43, 32 445.26 M32 445.26 C9.55 444.12, -0.02 436.26, 0 413.26 M32 445.26 C12.32 445.66, -2.14 436.71, 0 413.26 M0 413.26 C1.93 316.84, 2.56 221.69, 0 32 M0 413.26 C-1.31 283.9, -0.37 155.91, 0 32 M0 32 C-0.48 10.87, 10.55 -1.82, 32 0 M0 32 C-1.09 8.9, 12.3 -0.59, 32 0" stroke="#000000" stroke-width="1" fill="none"></path></g><g stroke-linecap="round" transform="translate(126.84627532958439 224.735247294107) rotate(0 257.3605295817056 170.06646728515625)"><path d="M7.86 8.16 C7.86 8.16, 7.86 8.16, 7.86 8.16 M7.86 8.16 C7.86 8.16, 7.86 8.16, 7.86 8.16 M3.66 19.09 C7.5 12.59, 14.99 6.38, 18.1 2.48 M3.66 19.09 C10.07 13.33, 14.91 6.37, 18.1 2.48 M2.75 26.24 C11.57 15.59, 18.52 8.04, 24.4 1.33 M2.75 26.24 C9.57 17.11, 18.46 9.13, 24.4 1.33 M1.83 33.39 C10.72 22.65, 21.58 7.48, 30.7 0.18 M1.83 33.39 C12.93 22.25, 22.1 8.67, 30.7 0.18 M1.57 39.79 C12.89 27.22, 22.38 15.44, 34.37 2.05 M1.57 39.79 C10.9 28.82, 19.14 19.03, 34.37 2.05 M1.96 45.43 C13.78 31.75, 25.85 18.23, 39.36 2.41 M1.96 45.43 C15.72 28.7, 30.02 13.2, 39.36 2.41 M1.7 51.83 C15.61 38.21, 25.56 21.45, 45 2.02 M1.7 51.83 C15.73 35.39, 31.24 17.98, 45 2.02 M1.44 58.23 C17.22 37.12, 34.42 18.75, 49.99 2.38 M1.44 58.23 C14.29 42.33, 28.56 26.77, 49.99 2.38 M1.83 63.87 C17.57 47, 33.89 26.59, 55.63 1.98 M1.83 63.87 C23.52 39.81, 43.74 16.65, 55.63 1.98 M1.57 70.27 C18.38 51.77, 35.61 31.22, 60.62 2.34 M1.57 70.27 C19.46 50.21, 37.54 28.81, 60.62 2.34 M1.97 75.91 C18.21 55.65, 38.43 36.31, 66.26 1.95 M1.97 75.91 C27.5 46.64, 51.99 18.68, 66.26 1.95 M1.71 82.31 C20.14 62.77, 38.19 42.41, 71.25 2.31 M1.71 82.31 C20.09 59.56, 40.22 38.13, 71.25 2.31 M1.44 88.71 C18.75 69.32, 35.92 50.92, 76.89 1.91 M1.44 88.71 C30.08 56.77, 58.07 23.89, 76.89 1.91 M1.84 94.35 C27.47 64.34, 57.7 33.19, 81.88 2.27 M1.84 94.35 C33.83 58.38, 64.59 23, 81.88 2.27 M1.58 100.75 C33.7 64.48, 64.39 26.79, 87.52 1.88 M1.58 100.75 C23.49 75.04, 45.69 49.5, 87.52 1.88 M1.97 106.39 C20.57 85.73, 39.7 61.92, 92.51 2.24 M1.97 106.39 C24.46 79.27, 46.52 53.56, 92.51 2.24 M1.71 112.79 C29.99 83.4, 56.75 52.56, 98.15 1.85 M1.71 112.79 C27.81 84.12, 52.29 55.04, 98.15 1.85 M1.45 119.19 C35.83 84.22, 67.46 47.96, 103.14 2.21 M1.45 119.19 C24.15 94.1, 45.4 70.79, 103.14 2.21 M1.84 124.83 C33.15 87.05, 66.88 46.32, 108.78 1.81 M1.84 124.83 C29.56 91.15, 57.33 58.71, 108.78 1.81 M1.58 131.23 C26.09 104.59, 51 75.2, 113.77 2.17 M1.58 131.23 C28.59 100.03, 55.96 69.82, 113.77 2.17 M1.98 136.87 C43.52 91.27, 82.99 44.5, 119.41 1.78 M1.98 136.87 C29.69 104.98, 58.96 73.37, 119.41 1.78 M1.72 143.27 C38.86 99.37, 74.37 60.34, 124.4 2.14 M1.72 143.27 C33.06 105.07, 66.2 65.48, 124.4 2.14 M1.45 149.67 C34.14 110.03, 66.41 72.86, 130.04 1.74 M1.45 149.67 C32.71 112.18, 65.75 75.28, 130.04 1.74 M1.85 155.31 C37.03 114.17, 73.47 71.25, 135.03 2.1 M1.85 155.31 C33.06 119.16, 64.52 83.02, 135.03 2.1 M1.59 161.71 C39.13 115.72, 78.4 71.7, 140.67 1.71 M1.59 161.71 C32.32 124.59, 64.36 87.21, 140.67 1.71 M1.98 167.35 C39.28 125.65, 71.68 84.94, 145.66 2.07 M1.98 167.35 C34.33 130.29, 68.13 91.65, 145.66 2.07 M1.72 173.75 C36.06 134.33, 72.01 93.3, 150.65 2.43 M1.72 173.75 C32.23 135.85, 63.14 100.25, 150.65 2.43 M1.46 180.14 C45.42 130.1, 88.19 82.21, 156.29 2.03 M1.46 180.14 C56.62 114.53, 113.48 49.17, 156.29 2.03 M1.85 185.79 C39.89 142.27, 80.27 95.71, 161.28 2.39 M1.85 185.79 C50.91 129.5, 100.38 72.42, 161.28 2.39 M1.59 192.19 C64.57 120.38, 128.62 50.31, 166.92 2 M1.59 192.19 C54.04 131.3, 105.22 72.51, 166.92 2 M1.99 197.83 C55.29 138.83, 105.52 82.68, 171.91 2.36 M1.99 197.83 C54.74 136.37, 108.71 76.94, 171.91 2.36 M1.72 204.23 C62.3 135.29, 121.14 63.34, 177.55 1.96 M1.72 204.23 C61.88 137.2, 119.69 70.15, 177.55 1.96 M1.46 210.62 C44.31 162.45, 87.62 111.2, 182.54 2.32 M1.46 210.62 C55.49 147.7, 108.72 85.42, 182.54 2.32 M1.86 216.27 C65.69 145.3, 128.65 70.25, 188.18 1.93 M1.86 216.27 C53.61 160.1, 104.01 100.89, 188.18 1.93 M1.6 222.66 C73.66 139.36, 145.2 58.55, 193.17 2.29 M1.6 222.66 C46.44 168.97, 93.32 116.54, 193.17 2.29 M1.99 228.31 C54.04 166.25, 109.05 102.7, 198.81 1.9 M1.99 228.31 C72.78 145.63, 143.87 62.3, 198.81 1.9 M1.73 234.71 C59.3 167.58, 116.37 99.14, 203.8 2.26 M1.73 234.71 C77.12 146.83, 153.5 58, 203.8 2.26 M1.47 241.1 C52.04 182.65, 101.92 126.7, 209.44 1.86 M1.47 241.1 C49.5 185.75, 96.03 132.82, 209.44 1.86 M1.86 246.75 C49.33 191.22, 96.27 134.13, 214.43 2.22 M1.86 246.75 C54.85 185.61, 109.02 123.6, 214.43 2.22 M1.6 253.14 C63.59 180.26, 126.06 107.59, 220.07 1.83 M1.6 253.14 C59.02 188.47, 114.43 124.63, 220.07 1.83 M2 258.79 C67.31 181.97, 134.17 106.95, 225.06 2.19 M2 258.79 C64.98 187.26, 127.21 116.71, 225.06 2.19 M1.73 265.19 C55.43 204.5, 110.39 141.77, 230.7 1.79 M1.73 265.19 C57.97 203.27, 111.8 141.08, 230.7 1.79 M1.47 271.58 C64.2 197.25, 126.92 124.56, 235.69 2.15 M1.47 271.58 C83.96 176.47, 166.13 81.07, 235.69 2.15 M1.87 277.23 C64.81 204.07, 127.62 132.54, 241.33 1.76 M1.87 277.23 C85.56 182.11, 168.12 86.67, 241.33 1.76 M1.61 283.62 C98.83 172.5, 195.03 59.6, 246.32 2.12 M1.61 283.62 C66.72 209.2, 131.16 134.33, 246.32 2.12 M2 289.27 C81.43 198.18, 161.3 105.96, 251.96 1.72 M2 289.27 C81.7 196.37, 162.75 103.7, 251.96 1.72 M1.74 295.66 C100.4 184.66, 196.94 74.05, 256.95 2.08 M1.74 295.66 C73.42 210.95, 147.25 126.58, 256.95 2.08 M1.48 302.06 C87.99 204.81, 175.27 105.9, 262.59 1.69 M1.48 302.06 C82.22 206.33, 165.41 111.68, 262.59 1.69 M0.56 309.22 C104.68 187.68, 208.39 67.49, 267.58 2.05 M0.56 309.22 C100.47 195.69, 200.46 80.29, 267.58 2.05 M1.61 314.1 C99.83 200, 198.45 86.42, 272.56 2.41 M1.61 314.1 C66.63 237.21, 131.9 162.16, 272.56 2.41 M2.66 318.99 C77.57 232.56, 153.54 145.61, 278.21 2.01 M2.66 318.99 C103.44 204.04, 202.04 89.86, 278.21 2.01 M3.71 323.88 C78.06 237.58, 154.07 149.33, 283.19 2.37 M3.71 323.88 C63.8 256.52, 122.99 188.11, 283.19 2.37 M5.42 328.01 C96.78 222.21, 185.94 117.71, 288.84 1.98 M5.42 328.01 C112.78 205.46, 219.08 83.36, 288.84 1.98 M7.78 331.39 C81.81 245.37, 157.67 158.59, 293.82 2.34 M7.78 331.39 C98.82 228.07, 188.39 123.97, 293.82 2.34 M10.8 334.02 C99.88 230.96, 189.4 128.97, 299.47 1.94 M10.8 334.02 C76.44 259.28, 140.33 186, 299.47 1.94 M13.82 336.64 C105.96 232.71, 197.15 126.4, 304.45 2.3 M13.82 336.64 C79.46 261.65, 143.92 186.77, 304.45 2.3 M18.15 337.76 C95.76 246.75, 174.61 157.21, 310.1 1.91 M18.15 337.76 C134.27 204.59, 250.11 71.44, 310.1 1.91 M21.83 339.63 C131.91 212.9, 240.67 87.01, 315.08 2.27 M21.83 339.63 C137.49 206.74, 253.87 71.85, 315.08 2.27 M26.16 340.74 C118.56 235.24, 209.09 131.5, 320.73 1.88 M26.16 340.74 C107.06 247.14, 187.6 154.49, 320.73 1.88 M31.14 341.1 C132.11 224.55, 233.58 109.39, 325.71 2.24 M31.14 341.1 C116.3 245.75, 199.84 149.18, 325.71 2.24 M34.82 342.97 C149.76 210.7, 265.22 77.9, 331.36 1.84 M34.82 342.97 C129.48 234.35, 222.28 125.96, 331.36 1.84 M40.46 342.58 C130.39 239.87, 220.67 136.86, 336.34 2.2 M40.46 342.58 C131.48 237.77, 222.22 132.52, 336.34 2.2 M45.45 342.94 C147.93 223.7, 250.63 106.71, 341.99 1.81 M45.45 342.94 C125.43 251.36, 204.35 159.28, 341.99 1.81 M51.09 342.54 C135.05 245.64, 221.59 148.26, 346.97 2.17 M51.09 342.54 C133.9 244.33, 217.74 147.25, 346.97 2.17 M56.08 342.9 C137.09 250.08, 217.35 156.71, 352.62 1.77 M56.08 342.9 C161.17 221.16, 266.98 99.56, 352.62 1.77 M61.72 342.51 C150.15 241.13, 241.41 136.97, 357.6 2.13 M61.72 342.51 C122.1 270.2, 184.3 199.17, 357.6 2.13 M66.71 342.87 C163.67 229.48, 261.61 115.53, 363.25 1.74 M66.71 342.87 C154.85 240.66, 245.16 138.08, 363.25 1.74 M72.35 342.47 C167.58 232.24, 263.37 121.92, 368.23 2.1 M72.35 342.47 C150.96 252.16, 228.93 162.35, 368.23 2.1 M77.34 342.83 C183.36 222.47, 288.74 102.94, 373.88 1.7 M77.34 342.83 C164.72 239.31, 254.25 137.71, 373.88 1.7 M82.98 342.44 C165.56 247.66, 249.78 151.78, 378.86 2.06 M82.98 342.44 C146.15 271, 209.83 197.75, 378.86 2.06 M87.97 342.8 C157.79 260.93, 226.45 181.06, 383.85 2.42 M87.97 342.8 C154.98 263.55, 223.25 184.73, 383.85 2.42 M93.61 342.4 C176.94 246.08, 261.75 149.76, 389.49 2.03 M93.61 342.4 C155.1 271.59, 217.29 200.09, 389.49 2.03 M98.6 342.76 C197.93 230.89, 295.08 117.44, 394.48 2.39 M98.6 342.76 C177.04 252.53, 256.5 162.07, 394.48 2.39 M103.59 343.12 C220.54 209.45, 337.43 74.72, 400.12 1.99 M103.59 343.12 C219.12 212.82, 333.58 80.69, 400.12 1.99 M109.23 342.73 C190.7 248.39, 271.94 155.61, 405.11 2.35 M109.23 342.73 C185.35 256.94, 260.19 169.89, 405.11 2.35 M114.22 343.09 C187.57 260.29, 260.82 173.97, 410.75 1.96 M114.22 343.09 C191.9 253.89, 269.8 164.14, 410.75 1.96 M119.86 342.69 C223.2 222.82, 326.9 104.66, 415.74 2.32 M119.86 342.69 C219.19 230.13, 318.81 116.42, 415.74 2.32 M124.85 343.05 C197.17 258.36, 270.51 175.06, 421.38 1.93 M124.85 343.05 C224.9 226.32, 325.73 109.63, 421.38 1.93 M130.49 342.66 C225.48 236.06, 317.54 129.05, 426.37 2.29 M130.49 342.66 C228.03 232.59, 323.57 122, 426.37 2.29 M135.48 343.02 C238.62 223.2, 341.43 105.04, 432.01 1.89 M135.48 343.02 C226.76 236.1, 317.79 130.6, 432.01 1.89 M141.12 342.63 C257.38 206.97, 373.83 72.65, 437 2.25 M141.12 342.63 C237.1 229.54, 334.71 117.37, 437 2.25 M146.11 342.99 C232.87 247.25, 317.4 148.64, 442.64 1.86 M146.11 342.99 C218.16 260.59, 289.82 179.38, 442.64 1.86 M151.75 342.59 C235.37 248.79, 317.52 152.73, 447.63 2.22 M151.75 342.59 C253.15 225.27, 353.53 110.23, 447.63 2.22 M156.74 342.95 C264.37 220.19, 370.58 97.76, 453.27 1.82 M156.74 342.95 C271.62 211.13, 386.93 77.87, 453.27 1.82 M162.38 342.56 C255.63 234.08, 349.88 126.05, 458.26 2.18 M162.38 342.56 C230.53 265.93, 298.06 188.05, 458.26 2.18 M167.37 342.92 C235.82 264.95, 304.22 187.19, 463.9 1.79 M167.37 342.92 C283.97 208.68, 402.19 71.99, 463.9 1.79 M173.01 342.52 C270.41 230.8, 367.28 118.03, 468.89 2.15 M173.01 342.52 C279.32 222.01, 383.98 101.14, 468.89 2.15 M178 342.88 C272.71 234.37, 366.61 125.31, 474.53 1.75 M178 342.88 C264.21 242.8, 350.53 142.66, 474.53 1.75 M183.64 342.49 C243.37 271.38, 303.65 202.91, 479.52 2.11 M183.64 342.49 C288.17 220.59, 394.23 98.55, 479.52 2.11 M188.63 342.85 C255.65 267.51, 320.45 192.29, 485.17 1.72 M188.63 342.85 C273.03 248.36, 355.64 152.79, 485.17 1.72 M194.27 342.45 C278.38 244.99, 362.41 148.17, 490.81 1.32 M194.27 342.45 C302.1 216.6, 412.2 90.55, 490.81 1.32 M199.26 342.81 C287.84 239.36, 376.92 138.46, 495.14 2.44 M199.26 342.81 C305.53 222.31, 409.98 101.66, 495.14 2.44 M204.9 342.42 C321.15 208.1, 440.03 74.87, 499.47 3.55 M204.9 342.42 C319.34 209.52, 436.4 75.48, 499.47 3.55 M209.89 342.78 C287.9 250.59, 367.65 159.26, 503.14 5.42 M209.89 342.78 C295.99 243.48, 382.68 143.55, 503.14 5.42 M215.53 342.38 C278.71 269.27, 342.16 196.55, 506.16 8.05 M215.53 342.38 C311.06 232.01, 408.18 120.7, 506.16 8.05 M220.52 342.74 C287.95 264.85, 355.44 186.74, 509.18 10.67 M220.52 342.74 C298.22 253.01, 375.35 163.93, 509.18 10.67 M225.5 343.1 C309.25 247.84, 394.03 150.25, 511.55 14.05 M225.5 343.1 C329.98 223.92, 434.5 105.26, 511.55 14.05 M231.15 342.71 C296.44 265.35, 363.74 187.93, 513.25 18.18 M231.15 342.71 C290.25 273.47, 349.68 204.3, 513.25 18.18 M236.13 343.07 C302.69 266.34, 369.99 190.54, 513.65 23.83 M236.13 343.07 C333.54 230.35, 430.84 119.67, 513.65 23.83 M241.78 342.67 C322.14 246.36, 405.99 151.1, 514.7 28.72 M241.78 342.67 C316.34 257.84, 388.99 174.59, 514.7 28.72 M246.76 343.03 C335.37 239.2, 426.2 135.11, 516.4 32.85 M246.76 343.03 C310.89 269.49, 375.21 195.21, 516.4 32.85 M252.41 342.64 C309.08 276.32, 367.67 208.88, 516.14 39.25 M252.41 342.64 C342.5 237.97, 432.6 134.22, 516.14 39.25 M257.39 343 C340.23 248.85, 423.36 155.08, 515.88 45.64 M257.39 343 C324.97 264.02, 394.48 184.99, 515.88 45.64 M263.04 342.61 C349.49 244.38, 434.14 144.38, 516.28 51.29 M263.04 342.61 C348.32 242.48, 435.13 143.37, 516.28 51.29 M268.02 342.97 C318.59 283.93, 370.19 222.85, 516.01 57.69 M268.02 342.97 C355.1 242.2, 442.27 142.54, 516.01 57.69 M273.67 342.57 C367.15 238.01, 458.2 131.12, 516.41 63.33 M273.67 342.57 C357.5 244.68, 442.32 146.76, 516.41 63.33 M278.65 342.93 C344.77 268.22, 408.63 192.77, 516.15 69.73 M278.65 342.93 C347.1 264.78, 416.11 185.79, 516.15 69.73 M284.3 342.54 C332.5 284.35, 383.31 226.33, 515.89 76.12 M284.3 342.54 C338.08 279.45, 393.06 217.12, 515.89 76.12 M289.28 342.9 C347.44 276.26, 408.74 207.17, 516.28 81.77 M289.28 342.9 C375.43 244.93, 460.12 146.99, 516.28 81.77 M294.93 342.5 C365.5 263.33, 434.01 183.32, 516.02 88.17 M294.93 342.5 C351.76 280.84, 406.72 217.19, 516.02 88.17 M299.91 342.86 C382.65 249.49, 462.83 155.24, 516.41 93.81 M299.91 342.86 C381.46 252.11, 461.04 160.2, 516.41 93.81 M305.56 342.47 C362.52 276.55, 419.9 210.73, 516.15 100.21 M305.56 342.47 C353.84 286.73, 401.87 230.4, 516.15 100.21 M310.54 342.83 C370.88 276.57, 430.98 206.36, 515.89 106.6 M310.54 342.83 C379.98 265.37, 447.64 186.22, 515.89 106.6 M316.19 342.43 C372.07 277.25, 428.37 213.2, 516.29 112.25 M316.19 342.43 C357.41 294.73, 396.9 248.87, 516.29 112.25 M321.17 342.79 C387.95 266.92, 452.75 191.71, 516.02 118.64 M321.17 342.79 C361.54 298.05, 401.05 252.74, 516.02 118.64 M326.82 342.4 C379.85 280.05, 430.27 217.73, 516.42 124.29 M326.82 342.4 C395.77 260.49, 465.17 179.93, 516.42 124.29 M331.8 342.76 C391.72 273.68, 454.67 203.75, 516.16 130.69 M331.8 342.76 C371.12 297.77, 408.96 254.34, 516.16 130.69 M336.79 343.12 C405.04 265.01, 475.45 184.53, 515.9 137.08 M336.79 343.12 C393.76 277.32, 450.42 210.44, 515.9 137.08 M342.43 342.72 C402.02 276.69, 457.54 211.94, 516.29 142.73 M342.43 342.72 C385.45 293.66, 428.95 244.3, 516.29 142.73 M347.42 343.08 C391.54 289.45, 437.88 236.39, 516.03 149.12 M347.42 343.08 C386.78 296.05, 426.47 249.52, 516.03 149.12 M353.06 342.69 C400.15 292.42, 444.77 240.32, 516.42 154.77 M353.06 342.69 C405.5 284.06, 456.56 224.18, 516.42 154.77 M358.05 343.05 C421.19 274.56, 480.66 203.29, 516.16 161.16 M358.05 343.05 C402.6 291.17, 445.8 242.1, 516.16 161.16 M363.69 342.66 C418.09 279.27, 473.36 216.45, 515.9 167.56 M363.69 342.66 C409.92 292.43, 454.67 240.04, 515.9 167.56 M368.68 343.02 C420.25 286.55, 468.45 231.54, 516.3 173.21 M368.68 343.02 C426.06 278.4, 481.76 214.47, 516.3 173.21 M374.32 342.62 C412.33 300.51, 448.89 257.63, 516.03 179.6 M374.32 342.62 C424.42 285.55, 472.13 230.67, 516.03 179.6 M379.31 342.98 C416.68 299.06, 456.55 251.72, 515.77 186 M379.31 342.98 C417.24 301.3, 454.78 258.03, 515.77 186 M384.96 342.59 C428.68 294.83, 468.96 248.91, 516.17 191.64 M384.96 342.59 C424.08 295.16, 464.23 248.12, 516.17 191.64 M389.94 342.95 C438.6 288.6, 487.2 232.65, 515.91 198.04 M389.94 342.95 C423.01 301.82, 459.01 263.24, 515.91 198.04 M395.59 342.55 C433.56 299.42, 468.11 258.8, 516.3 203.69 M395.59 342.55 C433.34 297.64, 470.44 255.25, 516.3 203.69 M400.57 342.91 C439.92 296.73, 480.87 250.35, 516.04 210.08 M400.57 342.91 C434.27 306.41, 465.58 267.46, 516.04 210.08 M406.22 342.52 C437.52 304.5, 472.59 266.76, 515.78 216.48 M406.22 342.52 C446.88 294.77, 488.57 247.79, 515.78 216.48 M411.2 342.88 C434.36 316.75, 455.36 290.52, 516.17 222.12 M411.2 342.88 C449.98 299.2, 488.71 255.02, 516.17 222.12 M416.85 342.48 C440.93 316.01, 460.74 288.36, 515.91 228.52 M416.85 342.48 C437.08 319.19, 456 296.72, 515.91 228.52 M421.83 342.84 C444.1 315.05, 467.54 287.65, 516.3 234.16 M421.83 342.84 C440.42 319.07, 460.24 297.15, 516.3 234.16 M427.48 342.45 C450.5 314.92, 477.28 286.15, 516.04 240.56 M427.48 342.45 C459.51 305.23, 490.65 267.88, 516.04 240.56 M432.46 342.81 C454.53 318.6, 472.91 296.38, 515.78 246.96 M432.46 342.81 C453.07 318.12, 473.94 295.56, 515.78 246.96 M438.11 342.41 C464.46 313.69, 490.41 283.42, 516.18 252.6 M438.11 342.41 C464.06 312.02, 488.43 283.01, 516.18 252.6 M443.09 342.77 C467.93 310.33, 497.4 280.4, 515.92 259 M443.09 342.77 C467.08 315.17, 490.56 286.95, 515.92 259 M448.74 342.38 C467.27 319.56, 486.83 300.33, 516.31 264.64 M448.74 342.38 C467.32 322.14, 483.57 301.35, 516.31 264.64 M453.72 342.74 C478.29 315.68, 498.05 291.76, 516.05 271.04 M453.72 342.74 C469.94 324.65, 485.87 306.12, 516.05 271.04 M458.71 343.1 C476.67 322.75, 498.85 296.99, 515.79 277.44 M458.71 343.1 C481.76 317.34, 503.57 292.13, 515.79 277.44 M464.35 342.71 C481.56 325.08, 498.14 302.61, 516.18 283.08 M464.35 342.71 C478.1 328.33, 489.24 312.38, 516.18 283.08 M469.34 343.07 C485 323.28, 503.74 304.49, 515.92 289.48 M469.34 343.07 C479.05 330.19, 490.93 318.13, 515.92 289.48 M474.98 342.67 C487.79 328.86, 499.51 313.46, 516.31 295.12 M474.98 342.67 C485.93 329.54, 497.54 315.69, 516.31 295.12 M479.97 343.03 C489.15 330.97, 497.72 320.05, 516.05 301.52 M479.97 343.03 C492.94 326.53, 506.48 312.22, 516.05 301.52 M485.61 342.64 C495.83 329.75, 506.53 320.04, 515.14 308.67 M485.61 342.64 C495.31 332, 505.71 319.82, 515.14 308.67 M491.91 341.49 C496.44 335.71, 502.66 328.37, 514.22 315.83 M491.91 341.49 C499.24 333.46, 507.03 322.93, 514.22 315.83 M502.15 335.81 C505.39 332.79, 507.59 330.3, 511.33 325.24 M502.15 335.81 C505.64 331.85, 508.22 329.09, 511.33 325.24" stroke="#ced4da" stroke-width="0.5" fill="none"></path><path d="M32 0 M32 0 C190.04 0.96, 348.92 0.25, 482.72 0 M32 0 C168.41 -1.75, 303.64 -2.19, 482.72 0 M482.72 0 C504.86 1.19, 513.38 11, 514.72 32 M482.72 0 C502.42 -0.24, 515.19 10.33, 514.72 32 M514.72 32 C515.27 97.91, 514.59 165.85, 514.72 308.13 M514.72 32 C515.99 92.33, 515.37 153.02, 514.72 308.13 M514.72 308.13 C515.46 331.22, 502.47 340.67, 482.72 340.13 M514.72 308.13 C513.83 327.53, 506.11 340.6, 482.72 340.13 M482.72 340.13 C376.25 342.15, 270.68 342.01, 32 340.13 M482.72 340.13 C390.09 338.52, 296.69 338.4, 32 340.13 M32 340.13 C9.36 338.58, 0.26 330.11, 0 308.13 M32 340.13 C11.17 339.46, -1.13 330.46, 0 308.13 M0 308.13 C-3.15 213.09, -2.79 118.69, 0 32 M0 308.13 C-1.79 226.86, -1.21 144.51, 0 32 M0 32 C0.59 12.39, 10.08 -1.76, 32 0 M0 32 C1.01 10.28, 11.02 0.59, 32 0" stroke="#000000" stroke-width="1" fill="none"></path></g><g transform="translate(373.8897832234643 148.5709335327142) rotate(0 20.5615234375 11.5)"><text x="0" y="0" font-family="Helvetica, Segoe UI Emoji" font-size="20px" fill="#000000" text-anchor="start" style="white-space: pre;" direction="ltr" dominant-baseline="text-before-edge">SCA</text></g><g stroke-linecap="round" transform="translate(223.04129282632948 22.727851867673962) rotate(0 86.96833292643214 26.291236877441406)"><path d="M13.15 0 M13.15 0 C56.62 1.03, 104.56 -1.19, 160.79 0 M13.15 0 C61.19 -0.3, 110.44 0.06, 160.79 0 M160.79 0 C170.92 1.32, 173.44 3.94, 173.94 13.15 M160.79 0 C169.01 -0.19, 175.91 2.27, 173.94 13.15 M173.94 13.15 C174.77 20.59, 174.96 28.77, 173.94 39.44 M173.94 13.15 C174.51 22.82, 174.76 33.5, 173.94 39.44 M173.94 39.44 C172.98 49.55, 171.05 52.19, 160.79 52.58 M173.94 39.44 C174.8 49.75, 169.08 53.86, 160.79 52.58 M160.79 52.58 C110.72 53.64, 60.38 51.9, 13.15 52.58 M160.79 52.58 C131.27 53.41, 100.82 53.13, 13.15 52.58 M13.15 52.58 C3.07 53.89, -0.85 46.31, 0 39.44 M13.15 52.58 C5.88 52.02, -2.15 49.29, 0 39.44 M0 39.44 C0.97 30.48, 1.33 20.32, 0 13.15 M0 39.44 C-0.04 32.08, 0.52 23.3, 0 13.15 M0 13.15 C-0.46 3.33, 5.57 -0.14, 13.15 0 M0 13.15 C-0.77 4.72, 5.21 -1.18, 13.15 0" stroke="#000000" stroke-width="1" fill="none"></path></g><g transform="translate(273.10337575276117 39.81908874511555) rotate(0 36.90625 9.200000000000045)"><text x="36.90625" y="0" font-family="Helvetica, Segoe UI Emoji" font-size="16px" fill="#000000" text-anchor="middle" style="white-space: pre;" direction="ltr" dominant-baseline="text-before-edge">EntryPoint</text></g><g stroke-linecap="round" transform="translate(490.1528549194254 10) rotate(0 56.09807332356786 42.941621144612554)"><path d="M30.33 4.77 C37.84 1.22, 49.2 0.29, 58.6 0.7 C68 1.1, 78.78 3.57, 86.73 7.21 C94.68 10.84, 102.08 16.36, 106.29 22.53 C110.49 28.69, 112.39 36.86, 111.94 44.2 C111.49 51.54, 108.66 60.49, 103.59 66.55 C98.53 72.61, 89.71 77.37, 81.52 80.58 C73.33 83.78, 63.59 85.94, 54.46 85.76 C45.33 85.59, 34.66 83.17, 26.75 79.51 C18.85 75.84, 11.35 70.2, 7.04 63.77 C2.73 57.33, 0.72 48.06, 0.92 40.92 C1.11 33.77, 2.18 27.17, 8.21 20.9 C14.25 14.64, 30.81 6.65, 37.13 3.35 C43.45 0.04, 45.62 0.43, 46.13 1.07 M50.3 1.04 C59.06 -0.58, 71.32 -0.04, 79.86 2.8 C88.41 5.64, 96.06 12.09, 101.56 18.1 C107.05 24.11, 111.95 32.01, 112.82 38.87 C113.7 45.73, 110.85 52.71, 106.79 59.24 C102.72 65.78, 95.77 73.53, 88.43 78.08 C81.09 82.64, 71.83 85.84, 62.73 86.58 C53.64 87.32, 42.7 85.48, 33.83 82.54 C24.96 79.6, 15.21 75.07, 9.51 68.94 C3.81 62.8, 0.22 53.08, -0.37 45.73 C-0.96 38.38, 2.25 31.01, 5.98 24.85 C9.71 18.69, 14.41 13.08, 22.02 8.75 C29.64 4.42, 47.08 0.05, 51.68 -1.14 C56.28 -2.33, 49.6 0.53, 49.61 1.61" stroke="#000000" stroke-width="1" fill="none"></path></g><g transform="translate(513.6304751843982 34.67730963811346) rotate(0 32.453125 18.40000000000009)"><text x="32.453125" y="0" font-family="Helvetica, Segoe UI Emoji" font-size="16px" fill="#000000" text-anchor="middle" style="white-space: pre;" direction="ltr" dominant-baseline="text-before-edge">EOA/SC </text><text x="32.453125" y="18.4" font-family="Helvetica, Segoe UI Emoji" font-size="16px" fill="#000000" text-anchor="middle" style="white-space: pre;" direction="ltr" dominant-baseline="text-before-edge">call</text></g><g mask="url(#mask-b-Ld9biJSw7tf7H9DKxh5)" stroke-linecap="round"><g transform="translate(293.51170193641155 82.50089540231511) rotate(0 -19.516586089723205 31.677002039899435)"><path d="M-1.17 0.33 C-7.57 10.87, -32.07 53.31, -38.21 63.9 M0.41 -0.55 C-6.2 9.6, -32.89 51.74, -39.44 62.14" stroke="#000000" stroke-width="1" fill="none"></path></g><g transform="translate(293.51170193641155 82.50089540231511) rotate(0 -19.516586089723205 31.677002039899435)"><path d="M-32.51 31.91 C-33.75 41.42, -35.79 52.46, -37.62 63.51 M-33.29 32.75 C-34.61 42.63, -38.08 54.58, -39.54 62.52" stroke="#000000" stroke-width="1" fill="none"></path></g><g transform="translate(293.51170193641155 82.50089540231511) rotate(0 -19.516586089723205 31.677002039899435)"><path d="M-15.16 42.87 C-21.89 48.78, -29.37 56.39, -37.62 63.51 M-15.94 43.71 C-23.58 49.54, -33.41 57.48, -39.54 62.52" stroke="#000000" stroke-width="1" fill="none"></path></g></g><mask id="mask-b-Ld9biJSw7tf7H9DKxh5"><rect x="0" y="0" fill="#fff" width="431.1636685738267" height="245.70912018791932"></rect><rect x="262.67790611770397" y="104.9050077951174" fill="#000" width="24.015625" height="18.4" opacity="1"></rect></mask><g transform="translate(262.67790611770397 104.9050077951174) rotate(0 11.31720972898438 9.272889647097145)"><text x="12.0078125" y="0" font-family="Helvetica, Segoe UI Emoji" font-size="16px" fill="#000000" text-anchor="middle" style="white-space: pre;" direction="ltr" dominant-baseline="text-before-edge">A.0</text></g><g mask="url(#mask-7A8lzulH3f4TuDeQiLpDS)" stroke-linecap="round"><g transform="translate(547.784920182612 98.57943097142788) rotate(0 -31.976033498788183 62.90587463674092)"><path d="M-0.55 0.69 C-11.06 21.61, -53.77 104.88, -64.19 125.8 M1.36 0.01 C-9.23 20.55, -54.51 103.28, -65.31 124.03" stroke="#000000" stroke-width="1" fill="none"></path></g><g transform="translate(547.784920182612 98.57943097142788) rotate(0 -31.976033498788183 62.90587463674092)"><path d="M-59.89 93.81 C-60.72 101.65, -60.86 107.69, -63.99 123.53 M-60.19 93.41 C-62.58 102.89, -63.58 111.21, -65.16 124.5" stroke="#000000" stroke-width="1" fill="none"></path></g><g transform="translate(547.784920182612 98.57943097142788) rotate(0 -31.976033498788183 62.90587463674092)"><path d="M-41.8 103.49 C-46.32 109.3, -50.12 113.38, -63.99 123.53 M-42.1 103.1 C-49.49 109.87, -55.52 115.49, -65.16 124.5" stroke="#000000" stroke-width="1" fill="none"></path></g></g><mask id="mask-7A8lzulH3f4TuDeQiLpDS"><rect x="0" y="0" fill="#fff" width="711.6648577983487" height="323.71481441895685"></rect><rect x="503.8371388747437" y="151.94712269519277" fill="#000" width="24.015625" height="18.4" opacity="1"></rect></mask><g transform="translate(503.8371388747437 151.94712269519277) rotate(0 11.97174780908017 9.538182912976026)"><text x="12.0078125" y="0" font-family="Helvetica, Segoe UI Emoji" font-size="16px" fill="#000000" text-anchor="middle" style="white-space: pre;" direction="ltr" dominant-baseline="text-before-edge">B.1</text></g><g stroke-linecap="round" transform="translate(247.74299367268213 384.65046437581304) rotate(0 150.5 34)"><path d="M4.53 3.93 C4.53 3.93, 4.53 3.93, 4.53 3.93 M4.53 3.93 C4.53 3.93, 4.53 3.93, 4.53 3.93 M2.95 11.84 C5.74 9.38, 8.96 6.88, 10.82 2.78 M2.95 11.84 C4.6 10.13, 6.83 7.03, 10.82 2.78 M2.03 18.99 C8.43 13.72, 13.06 6.82, 17.78 0.88 M2.03 18.99 C7.63 13.44, 12.98 6.4, 17.78 0.88 M2.43 24.64 C8.31 20.86, 12.28 15.34, 23.42 0.49 M2.43 24.64 C6.24 19.72, 11.86 12.48, 23.42 0.49 M2.17 31.03 C9.61 21.51, 21.02 11.38, 28.41 0.85 M2.17 31.03 C11.19 21.27, 19.98 12.1, 28.41 0.85 M2.56 36.68 C14.75 24.15, 23.8 12.03, 34.05 0.45 M2.56 36.68 C12.36 24.97, 24.18 12.83, 34.05 0.45 M2.96 42.32 C14.03 30.39, 23.51 17.56, 39.04 0.81 M2.96 42.32 C15.14 27.89, 28.73 12.45, 39.04 0.81 M2.69 48.72 C11.71 37.44, 24.49 25.88, 44.68 0.42 M2.69 48.72 C13.82 35.94, 24.7 23.67, 44.68 0.42 M3.09 54.36 C12.82 42.22, 23.98 29.17, 49.67 0.78 M3.09 54.36 C15.7 39.76, 28.92 24.08, 49.67 0.78 M3.48 60 C23.37 38.01, 42.43 18.33, 54.66 1.14 M3.48 60 C19.02 42.06, 34.07 23.49, 54.66 1.14 M5.19 64.14 C19.88 45.3, 35.26 29.21, 60.3 0.74 M5.19 64.14 C17.16 51.49, 27.24 37.6, 60.3 0.74 M8.87 66.01 C27.07 43.59, 47.38 23.86, 65.29 1.1 M8.87 66.01 C28.56 43.14, 47.67 20.82, 65.29 1.1 M12.54 67.88 C27.57 48.62, 41.07 31.5, 70.93 0.71 M12.54 67.88 C31.08 46.48, 49.93 24.82, 70.93 0.71 M15.56 70.5 C33.92 48.55, 56.1 24.18, 75.92 1.07 M15.56 70.5 C30.61 54.24, 44.65 35.67, 75.92 1.07 M21.2 70.11 C45.5 45.57, 66.94 17.79, 81.56 0.67 M21.2 70.11 C39.4 48.82, 58.44 27.53, 81.56 0.67 M26.19 70.47 C44.37 47.54, 63.74 26.26, 86.55 1.03 M26.19 70.47 C40.65 53.53, 55.94 37.46, 86.55 1.03 M31.83 70.07 C53.32 44.63, 74.1 20.07, 92.19 0.64 M31.83 70.07 C51.77 46.87, 70.86 25.08, 92.19 0.64 M36.82 70.43 C61.85 42.89, 82.23 13.12, 97.18 1 M36.82 70.43 C60.08 42.31, 82.98 15.72, 97.18 1 M42.46 70.04 C67.73 43.09, 91.46 16.21, 102.82 0.6 M42.46 70.04 C55.55 54.01, 70.3 39.09, 102.82 0.6 M47.45 70.4 C64.22 49.4, 80.41 29.91, 107.81 0.96 M47.45 70.4 C63.33 50.38, 80.81 31.87, 107.81 0.96 M53.09 70 C72.52 49.29, 88.33 28.96, 113.45 0.57 M53.09 70 C73.8 44.57, 95.26 20.22, 113.45 0.57 M58.08 70.36 C73 55.08, 82.96 41.73, 118.44 0.93 M58.08 70.36 C78.45 47.58, 98.42 25.93, 118.44 0.93 M63.72 69.97 C74.69 54.62, 91.24 39.68, 124.08 0.54 M63.72 69.97 C83.03 48.34, 101.4 27.28, 124.08 0.54 M68.71 70.33 C80.25 54.76, 96.89 38.77, 129.07 0.9 M68.71 70.33 C86.46 48.25, 105.62 28.14, 129.07 0.9 M74.35 69.93 C90.79 48.1, 110.05 29, 134.05 1.26 M74.35 69.93 C86.61 55.74, 99.44 43.24, 134.05 1.26 M79.34 70.29 C94.87 51.37, 110.02 35.69, 139.7 0.86 M79.34 70.29 C103.24 42.58, 127.29 14.91, 139.7 0.86 M84.98 69.9 C96.8 54.58, 108.48 39.74, 144.68 1.22 M84.98 69.9 C97.41 54.24, 112.01 40.81, 144.68 1.22 M89.97 70.26 C109.73 49.15, 126.06 28.86, 150.33 0.83 M89.97 70.26 C111.1 46.52, 132.64 22.31, 150.33 0.83 M94.96 70.62 C108.15 53.74, 123.17 38.1, 155.31 1.19 M94.96 70.62 C108.17 55.17, 121.36 39.73, 155.31 1.19 M100.6 70.23 C115.81 53.61, 130.73 32.32, 160.96 0.79 M100.6 70.23 C119.05 49.53, 135.78 30.16, 160.96 0.79 M105.59 70.59 C126.44 46.14, 146.76 20.37, 165.94 1.15 M105.59 70.59 C129.79 43.97, 151.74 17.47, 165.94 1.15 M111.23 70.19 C125.49 56.13, 139.17 40.46, 171.59 0.76 M111.23 70.19 C132.06 46.26, 152.86 21.6, 171.59 0.76 M116.22 70.55 C139.93 41.06, 164.8 14.51, 176.57 1.12 M116.22 70.55 C134.79 47.76, 155.33 25.51, 176.57 1.12 M121.86 70.16 C145.31 43.48, 168.69 13.58, 182.22 0.72 M121.86 70.16 C135.67 53.13, 150.48 35.4, 182.22 0.72 M126.85 70.52 C141.94 52.16, 161.7 30.44, 187.2 1.08 M126.85 70.52 C150.42 43.31, 173.22 18.6, 187.2 1.08 M132.49 70.12 C148.13 52.88, 162.51 38.33, 192.85 0.69 M132.49 70.12 C147.45 52.96, 163.55 35.14, 192.85 0.69 M137.48 70.48 C158.32 43.85, 184.51 18.55, 197.83 1.05 M137.48 70.48 C157.7 47.32, 180.11 22.22, 197.83 1.05 M143.12 70.09 C160.23 48.37, 177.68 29.26, 203.48 0.65 M143.12 70.09 C159.52 51.96, 173.47 35.64, 203.48 0.65 M148.11 70.45 C168.38 47.49, 187.41 29.11, 208.46 1.01 M148.11 70.45 C166.92 47.28, 188.18 23.9, 208.46 1.01 M153.75 70.05 C172.66 45.98, 195.61 24.88, 214.11 0.62 M153.75 70.05 C171.87 48.46, 189.63 28.07, 214.11 0.62 M158.74 70.41 C182.6 43.3, 205.95 17.07, 219.1 0.98 M158.74 70.41 C177.24 48.84, 194.48 28.38, 219.1 0.98 M164.38 70.02 C180 51.41, 193.12 36.01, 224.08 1.34 M164.38 70.02 C178.41 51.71, 193.1 34.64, 224.08 1.34 M169.37 70.38 C193.21 44.58, 215.13 21.55, 229.73 0.95 M169.37 70.38 C189.31 49.16, 207.64 27.01, 229.73 0.95 M175.01 69.98 C193.25 47.73, 211.92 26.96, 234.71 1.31 M175.01 69.98 C194.12 48.27, 212.77 26.7, 234.71 1.31 M180 70.34 C195.47 52.04, 215.06 28.64, 240.36 0.91 M180 70.34 C199.58 47.52, 220.11 24.33, 240.36 0.91 M184.98 70.7 C206.19 45.26, 232.18 17.62, 245.34 1.27 M184.98 70.7 C204.91 48.63, 224.16 25.55, 245.34 1.27 M190.63 70.31 C205.16 55.01, 220.32 34.49, 250.99 0.88 M190.63 70.31 C214 44.71, 235.94 19.49, 250.99 0.88 M195.61 70.67 C209.56 55.2, 222.3 37.84, 255.97 1.24 M195.61 70.67 C211.59 52.26, 227.21 34.34, 255.97 1.24 M201.26 70.27 C214.21 58.03, 227.51 41.8, 261.62 0.84 M201.26 70.27 C222.12 47.69, 242.81 22.87, 261.62 0.84 M206.24 70.63 C219.5 53.92, 236.96 36.58, 266.6 1.2 M206.24 70.63 C224.91 48.23, 244.65 27.27, 266.6 1.2 M211.89 70.24 C237.94 43.13, 258.65 18.3, 272.25 0.81 M211.89 70.24 C226.42 52.87, 241.4 35.43, 272.25 0.81 M216.88 70.6 C241.53 43.55, 263.74 16.98, 277.23 1.17 M216.88 70.6 C230.52 52.9, 245.78 35.91, 277.23 1.17 M222.52 70.21 C240.95 50.45, 258.76 30.84, 282.88 0.77 M222.52 70.21 C245.29 44.68, 268.47 17.41, 282.88 0.77 M227.51 70.57 C246.33 46.76, 267.47 24.7, 288.52 0.38 M227.51 70.57 C239.67 56.32, 251.84 41.68, 288.52 0.38 M233.15 70.17 C248.31 51.16, 267.13 31.63, 292.19 2.25 M233.15 70.17 C251.16 48.61, 268.25 29.25, 292.19 2.25 M238.14 70.53 C258.67 48.65, 277.45 24.64, 295.87 4.12 M238.14 70.53 C256.77 47.8, 275.9 26.98, 295.87 4.12 M243.78 70.14 C264.78 44.64, 288.09 18.91, 298.89 6.74 M243.78 70.14 C259.34 55.28, 272.38 37.73, 298.89 6.74 M248.77 70.5 C261.8 56.62, 276.07 40.87, 301.25 10.12 M248.77 70.5 C267 50.97, 285.27 28.53, 301.25 10.12 M254.41 70.1 C266.66 55.02, 281.18 38.68, 300.99 16.52 M254.41 70.1 C273.75 49.09, 290.79 29.11, 300.99 16.52 M259.4 70.46 C272.98 57.74, 284.45 41.62, 301.38 22.16 M259.4 70.46 C274.86 53.69, 287.58 37.03, 301.38 22.16 M265.04 70.07 C276.88 57.21, 291.61 39.22, 301.12 28.56 M265.04 70.07 C277.12 57.34, 287.36 45.03, 301.12 28.56 M270.03 70.43 C281.05 56.68, 292.61 41.26, 301.52 34.2 M270.03 70.43 C276.15 62.84, 284.05 54.87, 301.52 34.2 M275.01 70.79 C283.61 60.04, 295.95 48.67, 301.25 40.6 M275.01 70.79 C284.61 60.02, 292.54 50.7, 301.25 40.6 M280.66 70.39 C284.62 63.2, 293.1 55.33, 301.65 46.24 M280.66 70.39 C285.86 64.47, 291.14 59.96, 301.65 46.24 M286.3 70 C289.46 64.46, 293.95 61.67, 301.39 52.64 M286.3 70 C290.11 66.23, 294.49 60.72, 301.39 52.64" stroke="#228be6" stroke-width="0.5" fill="none"></path><path d="M17 0 M17 0 C96.83 1.65, 176.29 0.04, 284 0 M17 0 C84.13 -2.72, 152.08 -1.33, 284 0 M284 0 C293.71 0.51, 300.65 6.9, 301 17 M284 0 C296.05 2.23, 301.69 6.45, 301 17 M301 17 C301.07 28.95, 299.29 36.78, 301 51 M301 17 C301.53 25.85, 301.28 34.08, 301 51 M301 51 C300.65 62.84, 294.53 67.28, 284 68 M301 51 C300.8 63.31, 297.31 68.36, 284 68 M284 68 C184.61 67.63, 87 67.69, 17 68 M284 68 C186.3 68.73, 87.01 67.84, 17 68 M17 68 C7.17 69.62, -0.34 63.08, 0 51 M17 68 C3.44 66.88, 0.21 62.53, 0 51 M0 51 C-1.29 38.77, 1.55 28.34, 0 17 M0 51 C1.05 41.27, -0.59 30.75, 0 17 M0 17 C-1.55 4.29, 7.64 0.44, 17 0 M0 17 C0.97 4.66, 5.87 -1.51, 17 0" stroke="#000000" stroke-width="1" fill="none"></path></g><g transform="translate(330.20393117268213 409.4504643758132) rotate(0 68.0390625 9.200000000000045)"><text x="68.0390625" y="0" font-family="Helvetica, Segoe UI Emoji" font-size="16px" fill="#000000" text-anchor="middle" style="white-space: pre;" direction="ltr" dominant-baseline="text-before-edge">Execution Function</text></g><g stroke-linecap="round" transform="translate(131.19731903075444 152.34707895914607) rotate(0 91 32)"><path d="M4.26 3.7 C4.26 3.7, 4.26 3.7, 4.26 3.7 M4.26 3.7 C4.26 3.7, 4.26 3.7, 4.26 3.7 M1.37 13.12 C5.99 8.31, 9.91 4.86, 10.56 2.55 M1.37 13.12 C3.48 10.65, 6.4 7.58, 10.56 2.55 M1.11 19.52 C6.44 13.41, 13.43 6.92, 16.86 1.4 M1.11 19.52 C5.73 15.37, 10.48 10.26, 16.86 1.4 M1.51 25.16 C7.78 15.11, 16.92 8.49, 22.5 1.01 M1.51 25.16 C4.83 19.29, 10.43 15.44, 22.5 1.01 M1.24 31.56 C9.38 22.03, 19.43 11.98, 27.49 1.37 M1.24 31.56 C9.42 22.04, 18.72 10.93, 27.49 1.37 M1.64 37.2 C13.26 24.02, 22.84 15.11, 33.13 0.97 M1.64 37.2 C13.7 23.95, 25.46 9.89, 33.13 0.97 M1.38 43.6 C8.38 31.92, 19.28 22.89, 38.12 1.33 M1.38 43.6 C12.93 30.48, 23.62 19.27, 38.12 1.33 M1.12 50 C16.58 31.86, 32.23 13.61, 43.76 0.94 M1.12 50 C14.91 34.34, 28.13 19.35, 43.76 0.94 M2.82 54.13 C14.29 39.99, 27.06 26.72, 48.75 1.3 M2.82 54.13 C19.01 35.95, 34.91 17.35, 48.75 1.3 M3.87 59.02 C23.69 36.87, 43.25 13.18, 54.39 0.91 M3.87 59.02 C16.09 44.43, 27.92 30.23, 54.39 0.91 M6.89 61.64 C28.33 39.72, 49.08 13.9, 59.38 1.27 M6.89 61.64 C23.53 42.47, 39.54 24.17, 59.38 1.27 M9.91 64.27 C29.34 43.94, 46.36 21.98, 64.36 1.63 M9.91 64.27 C25.64 47.32, 39.16 29.43, 64.36 1.63 M15.55 63.87 C28.79 49.19, 40.36 35.74, 70.01 1.23 M15.55 63.87 C35.61 40.44, 55.32 19.02, 70.01 1.23 M20.54 64.23 C36.24 49.83, 50.49 32.88, 74.99 1.59 M20.54 64.23 C31.58 51.73, 44.05 37.75, 74.99 1.59 M26.18 63.84 C40.58 45.41, 56.77 28.43, 80.64 1.2 M26.18 63.84 C40.11 47.65, 53.32 31.96, 80.64 1.2 M31.17 64.2 C41.76 50.36, 54.58 37.59, 85.62 1.56 M31.17 64.2 C49.39 42.84, 67.74 20.99, 85.62 1.56 M36.81 63.8 C53.43 46.12, 68.49 26.1, 91.27 1.16 M36.81 63.8 C55.5 42.19, 74.48 18.42, 91.27 1.16 M41.8 64.16 C54.07 51.72, 61.53 38.44, 96.25 1.52 M41.8 64.16 C53.99 51.21, 65.86 37.3, 96.25 1.52 M46.79 64.52 C63.2 43.4, 81 25.16, 101.24 1.88 M46.79 64.52 C66.8 40.78, 87.15 16.68, 101.24 1.88 M52.43 64.13 C65.18 48.46, 75.66 35.92, 106.88 1.49 M52.43 64.13 C70.17 44.94, 87.13 23.92, 106.88 1.49 M57.42 64.49 C78.53 40.14, 96.62 17.01, 111.87 1.85 M57.42 64.49 C72.13 49.31, 85.84 31.67, 111.87 1.85 M63.06 64.09 C83.47 41.56, 103.22 18.92, 117.51 1.45 M63.06 64.09 C81.79 40.99, 101.31 20.78, 117.51 1.45 M68.05 64.45 C81.45 48.26, 96.37 30.73, 122.5 1.81 M68.05 64.45 C84.72 45.64, 100.1 29.2, 122.5 1.81 M73.69 64.06 C85.76 48.82, 95.81 36.58, 128.15 1.42 M73.69 64.06 C93.4 41.4, 111.37 20.12, 128.15 1.42 M78.68 64.42 C98.12 41.31, 118.19 19.65, 133.13 1.78 M78.68 64.42 C98.68 40.98, 118.72 17.49, 133.13 1.78 M83.67 64.78 C101.51 41.71, 121.69 18.98, 138.12 2.14 M83.67 64.78 C95.63 50.98, 107.04 37.15, 138.12 2.14 M89.31 64.39 C100.45 50.29, 110.29 40.76, 143.76 1.74 M89.31 64.39 C108.15 42.39, 128.66 18.55, 143.76 1.74 M94.3 64.75 C112.69 44.92, 129.87 26.45, 148.75 2.1 M94.3 64.75 C112.92 43.06, 131.27 22.27, 148.75 2.1 M99.94 64.35 C114.55 47.55, 129.72 29.94, 154.39 1.71 M99.94 64.35 C118.19 43.3, 136.84 22.24, 154.39 1.71 M104.93 64.71 C118.79 52.1, 129.12 36.62, 159.38 2.07 M104.93 64.71 C126.54 39.86, 147.85 14.61, 159.38 2.07 M110.57 64.32 C123.03 51.92, 134.55 35.84, 165.02 1.68 M110.57 64.32 C128.61 46.04, 145.1 27.28, 165.02 1.68 M115.56 64.68 C129.37 45.55, 147.83 25.62, 170.01 2.04 M115.56 64.68 C134.4 42.9, 151.68 21.77, 170.01 2.04 M120.54 65.04 C137.56 45.1, 152.74 28.48, 175 2.4 M120.54 65.04 C137.33 44.61, 155.52 24.06, 175 2.4 M126.19 64.64 C136.67 49.23, 149.58 35.26, 178.67 4.27 M126.19 64.64 C137.78 50.03, 150.23 37.9, 178.67 4.27 M131.17 65 C146.08 49.95, 157.36 34.02, 180.38 8.4 M131.17 65 C151.23 43.82, 169.27 22.07, 180.38 8.4 M136.82 64.61 C153.66 45.49, 171.31 27.84, 182.08 12.53 M136.82 64.61 C152.78 44.9, 168.7 27.92, 182.08 12.53 M141.8 64.97 C154.35 48.11, 170.27 35.28, 181.82 18.93 M141.8 64.97 C152.88 51.11, 164.4 37.43, 181.82 18.93 M147.45 64.57 C157.7 53.35, 168.45 37.64, 181.56 25.33 M147.45 64.57 C159.57 51.01, 171.51 36.83, 181.56 25.33 M152.43 64.93 C162.91 50.2, 174.31 39.61, 181.96 30.97 M152.43 64.93 C159.48 57, 164.76 51.12, 181.96 30.97 M157.42 65.29 C166.84 54.16, 175.72 41.76, 181.69 37.37 M157.42 65.29 C165.74 56.21, 173.43 46.88, 181.69 37.37 M163.06 64.9 C170.52 58.12, 174.41 49.51, 181.43 43.77 M163.06 64.9 C169.29 58.49, 174.19 50.89, 181.43 43.77 M168.05 65.26 C173.92 59.39, 175.22 54.08, 181.17 50.16 M168.05 65.26 C170.89 62.33, 174.29 58.42, 181.17 50.16" stroke="#ced4da" stroke-width="0.5" fill="none"></path><path d="M16 0 M16 0 C73.8 1.34, 135.33 -0.51, 166 0 M16 0 C68.56 -1.26, 121.33 -1.33, 166 0 M166 0 C176.78 0.38, 180.21 6.14, 182 16 M166 0 C175.4 0.99, 179.82 7.12, 182 16 M182 16 C180.99 27.18, 183.24 32.94, 182 48 M182 16 C181.69 26.26, 182.22 36.68, 182 48 M182 48 C183.48 57.14, 176.37 62.1, 166 64 M182 48 C182.5 60.4, 175.26 64.54, 166 64 M166 64 C114.74 65.97, 61.77 63.98, 16 64 M166 64 C135.27 63.09, 101.97 64.02, 16 64 M16 64 C4.79 63.82, 1.99 58.42, 0 48 M16 64 C7.05 64.41, -1.6 58.47, 0 48 M0 48 C-1.19 37.36, -0.78 30.07, 0 16 M0 48 C0.47 36.24, -1.25 23.41, 0 16 M0 16 C0.17 5.8, 7.2 1.55, 16 0 M0 16 C-0.36 6.3, 3.23 -1.64, 16 0" stroke="#000000" stroke-width="1" fill="none"></path></g><g mask="url(#mask-V1AhTLhG8wEzYe4ehrZ_X)" stroke-linecap="round"><g transform="translate(325.3410661094931 84.28984783541591) rotate(0 5.849429000504188 69.44896839626517)"><path d="M-1.1 -0.33 C1.05 22.66, 10.47 115.71, 12.8 138.97 M0.52 -1.55 C2.55 22.15, 10.08 116.75, 12.05 140.45" stroke="#000000" stroke-width="1" fill="none"></path></g><g transform="translate(325.3410661094931 84.28984783541591) rotate(0 5.849429000504188 69.44896839626517)"><path d="M-1.02 113.8 C3.24 122.01, 7.37 130.15, 13.36 142.22 M-0.99 114.15 C2.48 119.34, 6.3 127.3, 11.85 140.83" stroke="#000000" stroke-width="1" fill="none"></path></g><g transform="translate(325.3410661094931 84.28984783541591) rotate(0 5.849429000504188 69.44896839626517)"><path d="M19.44 112.14 C17.74 120.64, 15.9 129.27, 13.36 142.22 M19.47 112.48 C17.88 118.24, 16.66 126.6, 11.85 140.83" stroke="#000000" stroke-width="1" fill="none"></path></g></g><mask id="mask-V1AhTLhG8wEzYe4ehrZ_X"><rect x="0" y="0" fill="#fff" width="437.77448615136655" height="323.3734821095595"></rect><rect x="319.5499636304303" y="144.63166497248767" fill="#000" width="24.015625" height="18.4" opacity="1"></rect></mask><g transform="translate(319.5499636304303 144.63166497248767) rotate(0 11.640531479567017 9.107151259193415)"><text x="12.0078125" y="0" font-family="Helvetica, Segoe UI Emoji" font-size="16px" fill="#000000" text-anchor="middle" style="white-space: pre;" direction="ltr" dominant-baseline="text-before-edge">A.1</text></g><g stroke-linecap="round" transform="translate(416.16919199625045 224.83145395914244) rotate(0 70.5 17.5)"><path d="M2.33 2.02 C2.33 2.02, 2.33 2.02, 2.33 2.02 M2.33 2.02 C2.33 2.02, 2.33 2.02, 2.33 2.02 M0.76 9.93 C3 5.64, 5.71 4.02, 9.28 0.12 M0.76 9.93 C4.11 5.76, 7.54 2.22, 9.28 0.12 M1.15 15.57 C1.88 13.46, 7.88 7.61, 14.27 0.48 M1.15 15.57 C4.62 12.32, 7.2 8.12, 14.27 0.48 M1.54 21.22 C8.96 14.34, 14.4 4.72, 19.91 0.09 M1.54 21.22 C8.31 14.04, 14.25 7, 19.91 0.09 M1.28 27.62 C7.43 21.7, 10.08 16.71, 24.9 0.45 M1.28 27.62 C8.64 19.08, 17.56 8.57, 24.9 0.45 M2.99 31.75 C8.97 23.62, 15.6 18.61, 30.54 0.05 M2.99 31.75 C9.95 23.82, 15.01 16.6, 30.54 0.05 M5.35 35.13 C14.16 23.96, 21.64 15.88, 35.53 0.41 M5.35 35.13 C12.48 26.22, 21.26 17.61, 35.53 0.41 M11 34.73 C19.27 27.68, 25.58 18.28, 40.52 0.77 M11 34.73 C22.3 22.66, 32.66 10.76, 40.52 0.77 M15.98 35.09 C25.21 22.87, 37.32 11.14, 46.16 0.38 M15.98 35.09 C24.37 25.81, 31.24 18.56, 46.16 0.38 M21.63 34.7 C32.27 23.37, 40.82 10.95, 51.15 0.74 M21.63 34.7 C29.6 26.51, 37.23 18.09, 51.15 0.74 M26.61 35.06 C37.37 21.17, 47.32 10.23, 56.79 0.34 M26.61 35.06 C34.35 26.06, 42.67 17.12, 56.79 0.34 M31.6 35.42 C39.32 28.42, 45.75 21.13, 61.78 0.7 M31.6 35.42 C38.66 25.76, 47.46 18.26, 61.78 0.7 M37.24 35.02 C47.07 22.73, 60.12 7.31, 67.42 0.31 M37.24 35.02 C48.09 22.16, 59.69 8.55, 67.42 0.31 M42.23 35.38 C50.27 25.31, 59.02 15.05, 72.41 0.67 M42.23 35.38 C49.79 25.52, 59.36 15.89, 72.41 0.67 M47.87 34.99 C58.49 24.9, 65.91 12.66, 78.05 0.27 M47.87 34.99 C55.91 26.35, 64.61 17.16, 78.05 0.27 M52.86 35.35 C65.28 24.3, 77.27 9.79, 83.04 0.63 M52.86 35.35 C63.36 23.25, 76 10.06, 83.04 0.63 M58.5 34.96 C66.59 26.07, 75.44 14.62, 88.03 0.99 M58.5 34.96 C69.22 21.85, 80.19 9.72, 88.03 0.99 M63.49 35.32 C72.72 26.2, 78.03 16.54, 93.67 0.6 M63.49 35.32 C71.21 25.89, 80.23 16.92, 93.67 0.6 M69.13 34.92 C76.06 27.66, 81.83 21.38, 98.66 0.96 M69.13 34.92 C80.06 23.82, 89.96 11.97, 98.66 0.96 M74.12 35.28 C81.39 24.56, 90.36 17.51, 104.3 0.56 M74.12 35.28 C86.88 21.91, 97.24 7.95, 104.3 0.56 M79.11 35.64 C90.05 22.46, 100 11.11, 109.29 0.92 M79.11 35.64 C85.32 28.15, 91.38 20.09, 109.29 0.92 M84.75 35.25 C94.4 22.49, 102.52 13.59, 114.93 0.53 M84.75 35.25 C90.09 28.05, 96.77 21.16, 114.93 0.53 M89.74 35.61 C97.22 28.56, 102.22 22.81, 119.92 0.89 M89.74 35.61 C96.74 27.58, 101.93 20.74, 119.92 0.89 M95.38 35.21 C105.9 24.01, 114.77 13.77, 125.56 0.5 M95.38 35.21 C105.71 25.32, 114.45 12.68, 125.56 0.5 M100.37 35.57 C107.81 23.45, 118.81 14.39, 130.55 0.86 M100.37 35.57 C108.08 25.19, 117.24 16.06, 130.55 0.86 M106.01 35.18 C114.44 27.13, 118.74 17.27, 136.19 0.46 M106.01 35.18 C116.74 23.77, 126.37 11.98, 136.19 0.46 M111 35.54 C119.61 24.78, 126.77 16.26, 139.21 3.09 M111 35.54 C118.23 26.26, 126.84 18.29, 139.21 3.09 M116.64 35.14 C125.26 25.15, 134.1 16.8, 141.57 6.46 M116.64 35.14 C123.01 26.67, 130.53 19.17, 141.57 6.46 M121.63 35.5 C130.44 28.65, 134.09 20.34, 141.97 12.11 M121.63 35.5 C126.27 30.24, 131.49 23.62, 141.97 12.11 M127.27 35.11 C132.5 27.52, 135.51 24.92, 141.7 18.51 M127.27 35.11 C132.12 29.81, 138.03 22.58, 141.7 18.51 M132.26 35.47 C135.71 33.79, 138.43 30.19, 142.1 24.15 M132.26 35.47 C135.17 32.33, 138.62 29.22, 142.1 24.15" stroke="#fa5252" stroke-width="0.5" fill="none"></path><path d="M8.75 0 M8.75 0 C40.63 1.28, 70.75 -1.06, 132.25 0 M8.75 0 C39.91 0.38, 73.19 0.07, 132.25 0 M132.25 0 C136.61 -0.59, 139.18 1.34, 141 8.75 M132.25 0 C137.77 1.99, 140.78 1.08, 141 8.75 M141 8.75 C142.42 13.94, 142.33 22.34, 141 26.25 M141 8.75 C140.49 13.29, 141.67 17.88, 141 26.25 M141 26.25 C140.52 33.99, 139.37 34.12, 132.25 35 M141 26.25 C143.05 32.22, 138.39 36.46, 132.25 35 M132.25 35 C86.59 36.32, 36.88 35.75, 8.75 35 M132.25 35 C84.82 35.21, 36.1 36.4, 8.75 35 M8.75 35 C4.55 34.8, 0 32.84, 0 26.25 M8.75 35 C1.73 34.15, -1.37 30.45, 0 26.25 M0 26.25 C-0.87 21.83, -1.23 13.59, 0 8.75 M0 26.25 C-0.24 20.26, -0.67 13.99, 0 8.75 M0 8.75 C1.76 3.53, 4.32 -0.88, 8.75 0 M0 8.75 C-1.54 1.84, 4.36 -2, 8.75 0" stroke="#000000" stroke-width="1" fill="none"></path></g><g transform="translate(429.00903574625045 233.13145395914262) rotate(0 57.66015625 9.200000000000045)"><text x="57.66015625" y="0" font-family="Helvetica, Segoe UI Emoji" font-size="16px" fill="#000000" text-anchor="middle" style="white-space: pre;" direction="ltr" dominant-baseline="text-before-edge">runtimeValidator</text></g><g stroke-linecap="round" transform="translate(197.50419616698218 297.1607589721666) rotate(0 189.0353647867837 21.088307698567633)"><path d="M2.81 2.44 C2.81 2.44, 2.81 2.44, 2.81 2.44 M2.81 2.44 C2.81 2.44, 2.81 2.44, 2.81 2.44 M3.2 8.08 C6.05 6.7, 6.36 4.2, 10.42 -0.22 M3.2 8.08 C4.5 6.3, 6.56 4.52, 10.42 -0.22 M2.94 14.48 C5.86 9.29, 10.02 6.47, 13.44 2.41 M2.94 14.48 C7.39 10.09, 11.69 5.46, 13.44 2.41 M2.68 20.88 C4.54 15.86, 11.67 11.76, 18.42 2.77 M2.68 20.88 C7.68 13.8, 12.92 9.28, 18.42 2.77 M2.42 27.28 C8.9 17.12, 16.53 10.14, 24.07 2.37 M2.42 27.28 C7.56 21.39, 12.78 15.48, 24.07 2.37 M2.16 33.67 C10.03 23.9, 21.58 12.26, 29.05 2.73 M2.16 33.67 C11.17 22.49, 21.77 10.84, 29.05 2.73 M3.86 37.81 C9.76 30.32, 17.17 21.59, 34.7 2.34 M3.86 37.81 C13.3 25.17, 24.64 14.42, 34.7 2.34 M5.57 41.94 C16.85 27.36, 29.13 14.32, 39.68 2.7 M5.57 41.94 C14.55 32.12, 23.71 21.32, 39.68 2.7 M10.56 42.3 C25.22 26.84, 38.5 11.03, 45.33 2.3 M10.56 42.3 C19.74 32.28, 29.96 21.45, 45.33 2.3 M16.2 41.91 C28.37 28.56, 44.95 12.61, 50.31 2.66 M16.2 41.91 C25.67 31.21, 33.85 21.49, 50.31 2.66 M21.19 42.27 C31.96 29.84, 43.04 17.84, 55.96 2.27 M21.19 42.27 C30.93 30.61, 40.9 21.52, 55.96 2.27 M26.83 41.87 C33.27 34.1, 42.06 25.66, 60.94 2.63 M26.83 41.87 C36.53 30.82, 45.92 20.87, 60.94 2.63 M31.82 42.23 C38.83 34.22, 49.76 24.86, 66.59 2.23 M31.82 42.23 C40.1 33.04, 47.91 24.93, 66.59 2.23 M36.8 42.59 C45.44 30.89, 54.26 21.57, 71.57 2.59 M36.8 42.59 C50.58 27.82, 63.02 12.43, 71.57 2.59 M42.45 42.2 C51.15 32.45, 56.17 23.65, 77.22 2.2 M42.45 42.2 C51.27 30, 62.76 19.89, 77.22 2.2 M47.43 42.56 C56.79 29.68, 66.88 18.39, 82.2 2.56 M47.43 42.56 C55.89 32.02, 63.78 23.64, 82.2 2.56 M53.08 42.16 C63.36 30.65, 74.81 17.52, 87.85 2.16 M53.08 42.16 C59.8 31.88, 67.5 23.42, 87.85 2.16 M58.06 42.52 C66.92 34.46, 74.62 25.22, 92.83 2.52 M58.06 42.52 C67.31 32.1, 75.31 23.04, 92.83 2.52 M63.71 42.13 C73.69 30.12, 84.93 19.13, 98.48 2.13 M63.71 42.13 C74.98 30.93, 84.84 19.32, 98.48 2.13 M68.69 42.49 C81.69 26.18, 93.56 10.39, 103.46 2.49 M68.69 42.49 C80.99 29.38, 91.33 14.93, 103.46 2.49 M74.34 42.09 C81.26 34.51, 91.54 21.57, 109.11 2.09 M74.34 42.09 C81.66 33.89, 89.07 26.74, 109.11 2.09 M79.32 42.45 C88.81 34.44, 96.23 25.05, 114.09 2.45 M79.32 42.45 C86.08 33.81, 94.95 25.1, 114.09 2.45 M84.97 42.06 C98.66 26.81, 109.66 11.7, 119.08 2.82 M84.97 42.06 C94.2 31.07, 105.48 19.47, 119.08 2.82 M89.95 42.42 C99.37 29.55, 110.68 19.13, 124.72 2.42 M89.95 42.42 C101.1 27.87, 113.87 14.74, 124.72 2.42 M95.6 42.03 C108.31 28.26, 118.02 15.84, 129.71 2.78 M95.6 42.03 C108.25 27.99, 121.16 12.8, 129.71 2.78 M100.58 42.39 C109.51 29.28, 120.63 20.17, 135.35 2.39 M100.58 42.39 C111.91 29.26, 122.66 17.15, 135.35 2.39 M106.23 41.99 C119.42 26.74, 132 14.08, 140.34 2.75 M106.23 41.99 C116.72 31.19, 124.95 18.37, 140.34 2.75 M111.21 42.35 C121.9 29.46, 131.57 19.9, 145.98 2.35 M111.21 42.35 C121.97 30.28, 131.72 19.1, 145.98 2.35 M116.86 41.96 C125.64 33.38, 131.87 23.34, 150.97 2.71 M116.86 41.96 C130.66 27.96, 142.4 11.6, 150.97 2.71 M121.84 42.32 C133.68 28.71, 149.9 10.95, 156.61 2.32 M121.84 42.32 C134.71 26.37, 148.79 11.37, 156.61 2.32 M127.49 41.92 C138.25 29.54, 149.87 13.39, 161.6 2.68 M127.49 41.92 C141.09 27.08, 153.4 11.85, 161.6 2.68 M132.47 42.28 C143.89 29.62, 155.37 16.06, 167.25 2.28 M132.47 42.28 C141.98 30.29, 151.53 20.93, 167.25 2.28 M138.12 41.89 C150.36 27.01, 166.66 9.93, 172.23 2.64 M138.12 41.89 C150.21 29.4, 160.65 17.68, 172.23 2.64 M143.1 42.25 C151.7 29.55, 163.13 18.85, 177.88 2.25 M143.1 42.25 C156.22 28.71, 169.31 13.54, 177.88 2.25 M148.09 42.61 C160.65 30.14, 172.25 17.41, 182.86 2.61 M148.09 42.61 C157.77 31.59, 167.37 20.09, 182.86 2.61 M153.73 42.21 C163.8 30.03, 171.33 21.25, 188.51 2.21 M153.73 42.21 C161.19 33.42, 170.44 22.97, 188.51 2.21 M158.72 42.57 C172.31 27.64, 185.25 11.6, 193.49 2.57 M158.72 42.57 C171.78 28.55, 183.38 13.85, 193.49 2.57 M164.36 42.18 C173.88 31.88, 182.47 22.59, 199.14 2.18 M164.36 42.18 C171.63 32.85, 179.34 24.48, 199.14 2.18 M169.35 42.54 C180.98 27.24, 193.49 16.53, 204.12 2.54 M169.35 42.54 C183.39 26.65, 195.19 13.36, 204.12 2.54 M174.99 42.14 C181.3 35.37, 191.15 23.79, 209.77 2.14 M174.99 42.14 C186.87 28.03, 201.48 12.81, 209.77 2.14 M179.98 42.5 C187.6 34.02, 194.71 23.97, 214.75 2.5 M179.98 42.5 C190.79 29.03, 201.92 16.92, 214.75 2.5 M185.62 42.11 C197.8 26.16, 212.66 13.27, 220.4 2.11 M185.62 42.11 C197.47 27.11, 209.01 14.73, 220.4 2.11 M190.61 42.47 C198.82 32.79, 205.17 23.56, 225.38 2.47 M190.61 42.47 C199.4 31.3, 210.78 20.17, 225.38 2.47 M196.25 42.08 C202.19 32.84, 210.78 24.66, 230.37 2.83 M196.25 42.08 C206.63 29.81, 218.72 17.64, 230.37 2.83 M201.24 42.44 C213.85 27.38, 224.67 14.08, 236.01 2.44 M201.24 42.44 C209.31 33.02, 217.53 25.57, 236.01 2.44 M206.88 42.04 C217.75 25.71, 230.2 15.12, 241 2.8 M206.88 42.04 C215.59 32.88, 222.56 24.1, 241 2.8 M211.87 42.4 C224.51 27.43, 236.52 14.27, 246.64 2.4 M211.87 42.4 C223.19 30.35, 232.33 19.05, 246.64 2.4 M217.51 42.01 C229.79 28.57, 241.19 13.48, 251.63 2.76 M217.51 42.01 C230.2 26.72, 243.48 12.2, 251.63 2.76 M222.5 42.37 C231.51 32.93, 241.77 19.31, 257.27 2.37 M222.5 42.37 C235.02 27.89, 249.59 11.89, 257.27 2.37 M228.14 41.97 C235.63 31.39, 245.23 24.98, 262.26 2.73 M228.14 41.97 C240.41 26.19, 253.7 12.62, 262.26 2.73 M233.13 42.33 C242.05 29.65, 252.84 20.32, 267.9 2.33 M233.13 42.33 C244.85 28.94, 256.59 14.9, 267.9 2.33 M238.77 41.94 C248.01 31.78, 255.35 24.88, 272.89 2.69 M238.77 41.94 C248.61 30.97, 256.88 22, 272.89 2.69 M243.76 42.3 C254.31 29.74, 268.04 16.87, 278.53 2.3 M243.76 42.3 C255.25 27.95, 269 12.93, 278.53 2.3 M249.4 41.9 C255.72 31.04, 265.46 25.83, 283.52 2.66 M249.4 41.9 C261.24 27.57, 273.81 12.98, 283.52 2.66 M254.39 42.26 C263.89 33.74, 270.02 23.11, 289.16 2.26 M254.39 42.26 C260.97 34.64, 267.56 26.99, 289.16 2.26 M260.03 41.87 C268.53 30.78, 278.57 19.17, 294.15 2.62 M260.03 41.87 C273.83 26.58, 287.31 10.63, 294.15 2.62 M265.02 42.23 C277.15 28.01, 290.98 13.09, 299.79 2.23 M265.02 42.23 C275.61 29.22, 287.59 15.44, 299.79 2.23 M270.01 42.59 C285.58 28.33, 297.82 9.71, 304.78 2.59 M270.01 42.59 C283.94 27.23, 297.53 11.5, 304.78 2.59 M275.65 42.19 C284.2 28.55, 296.93 20.64, 310.42 2.19 M275.65 42.19 C285.26 31.23, 294.97 18.87, 310.42 2.19 M280.64 42.55 C289.2 29.02, 300.33 21.11, 315.41 2.55 M280.64 42.55 C295.52 25.84, 307.6 11, 315.41 2.55 M286.28 42.16 C298.51 25.17, 314.94 11.53, 321.05 2.16 M286.28 42.16 C299.41 26.04, 313.65 10.52, 321.05 2.16 M291.27 42.52 C304.21 27.11, 316.53 15.44, 326.04 2.52 M291.27 42.52 C304.06 29.44, 314.39 15.2, 326.04 2.52 M296.91 42.12 C306.07 34.01, 310.68 23.99, 331.68 2.13 M296.91 42.12 C307.81 30.94, 316.87 18.47, 331.68 2.13 M301.9 42.48 C309.53 31.75, 320.3 23.99, 336.67 2.49 M301.9 42.48 C313.98 27.7, 327.73 14.01, 336.67 2.49 M307.54 42.09 C318.37 29.73, 331.99 16.87, 342.31 2.09 M307.54 42.09 C315.48 33.1, 322.83 23.56, 342.31 2.09 M312.53 42.45 C320.18 32.79, 328.93 24.89, 347.3 2.45 M312.53 42.45 C325.08 29.62, 335.27 17.49, 347.3 2.45 M318.17 42.06 C327.48 29.55, 338.2 17.95, 352.29 2.81 M318.17 42.06 C330.67 29.84, 340.67 15.87, 352.29 2.81 M323.16 42.42 C335.27 32.92, 342.17 19.22, 357.93 2.42 M323.16 42.42 C331.68 32.03, 339.49 22.46, 357.93 2.42 M328.8 42.02 C340.1 29.71, 350.63 19.48, 362.92 2.78 M328.8 42.02 C341.64 26.99, 355.07 12.19, 362.92 2.78 M333.79 42.38 C342.37 33.25, 351.92 20.39, 369.22 1.63 M333.79 42.38 C345.18 29.44, 354.5 18.04, 369.22 1.63 M339.43 41.99 C349.29 32.27, 359.31 22.29, 373.55 2.74 M339.43 41.99 C345.78 33.49, 352.27 25.75, 373.55 2.74 M344.42 42.35 C353.07 32.36, 361.19 22.8, 377.22 4.61 M344.42 42.35 C351.42 34.4, 359.04 25.66, 377.22 4.61 M350.06 41.95 C361.01 28.85, 370.42 16.77, 379.59 7.99 M350.06 41.95 C357.49 33.16, 365.71 23.33, 379.59 7.99 M355.05 42.31 C366.02 31.74, 372.74 22.68, 379.98 13.63 M355.05 42.31 C362.83 33.19, 368.8 25.29, 379.98 13.63 M360.69 41.92 C367.29 33.1, 374.14 27.21, 379.72 20.03 M360.69 41.92 C365.94 34.49, 373.23 28.49, 379.72 20.03 M365.68 42.28 C371.82 37.29, 374 29.9, 380.11 25.67 M365.68 42.28 C370.54 36.83, 374.68 31.25, 380.11 25.67 M369.35 44.15 C371.31 41.58, 376.86 36.9, 379.2 32.83 M369.35 44.15 C372.98 40.62, 376.57 36.48, 379.2 32.83" stroke="#4c6ef5" stroke-width="0.5" fill="none"></path><path d="M10.54 0 M10.54 0 C119.66 -2.15, 229.26 -1.42, 367.53 0 M10.54 0 C137.7 -1.23, 265 -0.97, 367.53 0 M367.53 0 C373.9 -1.2, 376.92 3.97, 378.07 10.54 M367.53 0 C374.2 2.15, 378.51 4.93, 378.07 10.54 M378.07 10.54 C379.06 17.84, 379.9 27.4, 378.07 31.63 M378.07 10.54 C378.97 17.56, 379.03 25.72, 378.07 31.63 M378.07 31.63 C378.72 39.67, 375.18 40.34, 367.53 42.18 M378.07 31.63 C376.84 37.39, 374.9 43.32, 367.53 42.18 M367.53 42.18 C242.18 42.52, 119.19 42.95, 10.54 42.18 M367.53 42.18 C257.4 41.51, 145.62 41.87, 10.54 42.18 M10.54 42.18 C3.62 42.98, -0.17 39.54, 0 31.63 M10.54 42.18 C2.12 40.31, -1.1 40.47, 0 31.63 M0 31.63 C-1.07 27.8, -0.11 19.3, 0 10.54 M0 31.63 C0.32 24.95, 0.27 19.91, 0 10.54 M0 10.54 C0.02 1.56, 5.08 0.95, 10.54 0 M0 10.54 C1.76 4.44, 1.7 -0.9, 10.54 0" stroke="#000000" stroke-width="1" fill="none"></path></g><g transform="translate(306.50831095376634 309.0490666707342) rotate(0 80.03125 9.200000000000045)"><text x="80.03125" y="0" font-family="Helvetica, Segoe UI Emoji" font-size="16px" fill="#000000" text-anchor="middle" style="white-space: pre;" direction="ltr" dominant-baseline="text-before-edge">Pre Execution Hook(s)</text></g><g stroke-linecap="round" transform="translate(212.7172342936119 494.61045583088935) rotate(0 189.0353647867837 21.088307698567633)"><path d="M2.81 2.44 C2.81 2.44, 2.81 2.44, 2.81 2.44 M2.81 2.44 C2.81 2.44, 2.81 2.44, 2.81 2.44 M3.2 8.08 C5.1 5.72, 6.7 1.98, 10.42 -0.22 M3.2 8.08 C6.42 4.88, 8.46 1.33, 10.42 -0.22 M2.94 14.48 C5.21 12.35, 6.6 8.51, 13.44 2.41 M2.94 14.48 C6.82 9.88, 10.11 4.91, 13.44 2.41 M2.68 20.88 C8.08 12.7, 13.7 4.89, 18.42 2.77 M2.68 20.88 C6.48 16, 11.52 10.59, 18.42 2.77 M2.42 27.28 C11.14 20.26, 15.87 10.25, 24.07 2.37 M2.42 27.28 C8.01 20.95, 12.31 14.78, 24.07 2.37 M2.16 33.67 C8.14 26.44, 15.43 19.91, 29.05 2.73 M2.16 33.67 C13.09 21.42, 22.85 9.59, 29.05 2.73 M3.86 37.81 C15.21 24.47, 23.81 13.88, 34.7 2.34 M3.86 37.81 C11.5 28.25, 20.71 19.87, 34.7 2.34 M5.57 41.94 C16.3 26.45, 28.22 14.89, 39.68 2.7 M5.57 41.94 C13.99 32.84, 22.29 22.71, 39.68 2.7 M10.56 42.3 C21.05 29.84, 32.8 17.32, 45.33 2.3 M10.56 42.3 C19.35 32.19, 29.4 20.47, 45.33 2.3 M16.2 41.91 C31.02 26.71, 43.76 12.51, 50.31 2.66 M16.2 41.91 C29.01 27.57, 42.44 12.06, 50.31 2.66 M21.19 42.27 C32.25 29.96, 43.39 17.54, 55.96 2.27 M21.19 42.27 C29.6 33.59, 36.45 23.37, 55.96 2.27 M26.83 41.87 C37.73 28.78, 50.45 15.55, 60.94 2.63 M26.83 41.87 C36.97 30.9, 45.86 19, 60.94 2.63 M31.82 42.23 C38.95 34.12, 48.03 26.49, 66.59 2.23 M31.82 42.23 C43.98 27.79, 55.84 13.99, 66.59 2.23 M36.8 42.59 C44.93 34.47, 54.54 24.7, 71.57 2.59 M36.8 42.59 C47.64 29.93, 57.59 17.46, 71.57 2.59 M42.45 42.2 C54.11 30.19, 66.51 16.09, 77.22 2.2 M42.45 42.2 C50.33 34.53, 57.22 26.46, 77.22 2.2 M47.43 42.56 C60.65 28.83, 71.51 16.48, 82.2 2.56 M47.43 42.56 C58.76 29.65, 71.32 16.74, 82.2 2.56 M53.08 42.16 C59.45 33.89, 67.42 25.93, 87.85 2.16 M53.08 42.16 C60.22 32.58, 68.12 25.04, 87.85 2.16 M58.06 42.52 C68.72 27.13, 80.81 16.72, 92.83 2.52 M58.06 42.52 C67.23 32.45, 77.32 20.06, 92.83 2.52 M63.71 42.13 C74.74 29.22, 85.03 19.78, 98.48 2.13 M63.71 42.13 C75.03 30.59, 85.41 17.01, 98.48 2.13 M68.69 42.49 C78.01 30.31, 84.96 21.04, 103.46 2.49 M68.69 42.49 C76.78 31.98, 86.31 23.29, 103.46 2.49 M74.34 42.09 C82.09 30.77, 92.01 19.87, 109.11 2.09 M74.34 42.09 C85.89 30.93, 95.11 18.49, 109.11 2.09 M79.32 42.45 C89.46 29.97, 97.91 19.64, 114.09 2.45 M79.32 42.45 C90.95 27.68, 103.74 15.17, 114.09 2.45 M84.97 42.06 C94 34.33, 101 21.69, 119.08 2.82 M84.97 42.06 C96.13 28.63, 108.54 15.65, 119.08 2.82 M89.95 42.42 C100.59 28.54, 111.57 17.39, 124.72 2.42 M89.95 42.42 C97.96 32.75, 108.74 21.32, 124.72 2.42 M95.6 42.03 C104.27 34.21, 111.34 26.55, 129.71 2.78 M95.6 42.03 C104.19 31.69, 113.34 21.89, 129.71 2.78 M100.58 42.39 C110.02 29.21, 123.34 19.81, 135.35 2.39 M100.58 42.39 C111.54 30.11, 121.65 18.26, 135.35 2.39 M106.23 41.99 C113.97 35.77, 120.97 27.29, 140.34 2.75 M106.23 41.99 C117.02 28.94, 129.01 15.64, 140.34 2.75 M111.21 42.35 C119.67 34.54, 125.25 23.66, 145.98 2.35 M111.21 42.35 C123.29 27.86, 135.7 12.76, 145.98 2.35 M116.86 41.96 C127.34 27.97, 138.93 16.08, 150.97 2.71 M116.86 41.96 C124.27 32.87, 130.94 25.35, 150.97 2.71 M121.84 42.32 C129.92 29.92, 143.09 16.41, 156.61 2.32 M121.84 42.32 C133.45 29.86, 143.64 16.48, 156.61 2.32 M127.49 41.92 C139.51 30.62, 147.36 19.56, 161.6 2.68 M127.49 41.92 C135.09 32.92, 140.83 26.09, 161.6 2.68 M132.47 42.28 C141.15 33.49, 149.13 22.14, 167.25 2.28 M132.47 42.28 C141.78 30.3, 151.61 20.59, 167.25 2.28 M138.12 41.89 C151 30.29, 163.25 15.31, 172.23 2.64 M138.12 41.89 C149.21 28.78, 159.59 18.04, 172.23 2.64 M143.1 42.25 C148.78 34.06, 156.97 27.5, 177.88 2.25 M143.1 42.25 C153.9 30.65, 162.46 18.58, 177.88 2.25 M148.09 42.61 C160.01 32.21, 167.61 19.04, 182.86 2.61 M148.09 42.61 C156.83 32.9, 165.44 22.88, 182.86 2.61 M153.73 42.21 C167.52 27.98, 178.8 10.53, 188.51 2.21 M153.73 42.21 C162.66 32.02, 172.23 20.77, 188.51 2.21 M158.72 42.57 C167.08 32.73, 173.83 22.25, 193.49 2.57 M158.72 42.57 C166.3 34.83, 172.17 25.46, 193.49 2.57 M164.36 42.18 C173.35 32.35, 180.64 25.91, 199.14 2.18 M164.36 42.18 C174.87 30.67, 182.76 19.75, 199.14 2.18 M169.35 42.54 C182.49 26.68, 193.59 14.02, 204.12 2.54 M169.35 42.54 C178.81 30.09, 190.54 18.95, 204.12 2.54 M174.99 42.14 C182.73 30.93, 191.08 22.86, 209.77 2.14 M174.99 42.14 C189.16 25.94, 200.62 12.27, 209.77 2.14 M179.98 42.5 C188.68 33.55, 197.49 24.25, 214.75 2.5 M179.98 42.5 C190.78 29.41, 200.76 17.07, 214.75 2.5 M185.62 42.11 C197.15 27.02, 211.27 13.99, 220.4 2.11 M185.62 42.11 C193.65 30.99, 202.84 22.07, 220.4 2.11 M190.61 42.47 C201.31 29.88, 213.01 15.73, 225.38 2.47 M190.61 42.47 C202.67 27.29, 214.44 14.45, 225.38 2.47 M196.25 42.08 C204.91 32.17, 214.39 20.27, 230.37 2.83 M196.25 42.08 C208.67 28.34, 221.1 13.64, 230.37 2.83 M201.24 42.44 C209.04 35.28, 213.73 26.22, 236.01 2.44 M201.24 42.44 C215.08 26.06, 228.71 10.67, 236.01 2.44 M206.88 42.04 C218.89 29.48, 230.86 13.52, 241 2.8 M206.88 42.04 C214.4 34.59, 219.94 25.7, 241 2.8 M211.87 42.4 C227.14 25.88, 238.42 9.85, 246.64 2.4 M211.87 42.4 C223.53 27.74, 237.05 14.14, 246.64 2.4 M217.51 42.01 C230.28 28.58, 244.54 12.44, 251.63 2.76 M217.51 42.01 C230.19 25.56, 244.45 10.7, 251.63 2.76 M222.5 42.37 C231.32 31.5, 244.43 18.34, 257.27 2.37 M222.5 42.37 C236.39 26.17, 249.13 12.19, 257.27 2.37 M228.14 41.97 C237.67 31.05, 250.14 15.37, 262.26 2.73 M228.14 41.97 C235.17 32.9, 242.8 24.8, 262.26 2.73 M233.13 42.33 C239.32 32.37, 246.81 25.67, 267.9 2.33 M233.13 42.33 C247.21 28.28, 260.22 12.37, 267.9 2.33 M238.77 41.94 C251.22 28.15, 264.02 10.48, 272.89 2.69 M238.77 41.94 C249.68 28.44, 259.07 16.5, 272.89 2.69 M243.76 42.3 C252.12 32.51, 264.73 21.52, 278.53 2.3 M243.76 42.3 C254.62 29.41, 265.09 15.8, 278.53 2.3 M249.4 41.9 C258.6 31.42, 267.95 21.6, 283.52 2.66 M249.4 41.9 C260.52 28.33, 272.51 15, 283.52 2.66 M254.39 42.26 C265.38 31.75, 273.99 23.22, 289.16 2.26 M254.39 42.26 C263.56 32.11, 273.12 19.88, 289.16 2.26 M260.03 41.87 C268.75 29.72, 276.66 22.34, 294.15 2.62 M260.03 41.87 C271.57 26.78, 284.05 13, 294.15 2.62 M265.02 42.23 C278.87 26.92, 292.26 12.99, 299.79 2.23 M265.02 42.23 C273.86 32.53, 282.07 22.77, 299.79 2.23 M270.01 42.59 C284.05 26.16, 297.35 11.79, 304.78 2.59 M270.01 42.59 C283.72 26.27, 298.75 10.27, 304.78 2.59 M275.65 42.19 C286.5 27.36, 298.32 17.42, 310.42 2.19 M275.65 42.19 C284.09 33.43, 292.73 22.35, 310.42 2.19 M280.64 42.55 C290.38 29.04, 301.48 18.87, 315.41 2.55 M280.64 42.55 C289.99 29.52, 301.02 16.78, 315.41 2.55 M286.28 42.16 C296.68 32.09, 307.21 20.7, 321.05 2.16 M286.28 42.16 C295.3 29.86, 305.87 19.94, 321.05 2.16 M291.27 42.52 C299.8 31.13, 308.43 24.22, 326.04 2.52 M291.27 42.52 C302.24 29.25, 313.66 16.79, 326.04 2.52 M296.91 42.12 C310.43 27.96, 322.42 10.67, 331.68 2.13 M296.91 42.12 C303.11 34.09, 312.18 25.17, 331.68 2.13 M301.9 42.48 C315.54 25.4, 328.96 12.77, 336.67 2.49 M301.9 42.48 C311.08 30.73, 320.92 20.49, 336.67 2.49 M307.54 42.09 C316.49 32.2, 326.17 17.45, 342.31 2.09 M307.54 42.09 C321.73 26.78, 335.24 11.22, 342.31 2.09 M312.53 42.45 C321.89 28.88, 334.42 17.37, 347.3 2.45 M312.53 42.45 C321.45 34.29, 327.28 24.31, 347.3 2.45 M318.17 42.06 C328.04 30.09, 341.6 15.34, 352.29 2.81 M318.17 42.06 C327.48 30.54, 338.14 20.51, 352.29 2.81 M323.16 42.42 C333.69 28.73, 342.86 16.89, 357.93 2.42 M323.16 42.42 C335.88 28.13, 348.62 13.61, 357.93 2.42 M328.8 42.02 C337.12 32.5, 342.39 23.27, 362.92 2.78 M328.8 42.02 C335.42 33.14, 343.51 25.13, 362.92 2.78 M333.79 42.38 C341.12 34.64, 350.31 24.41, 369.22 1.63 M333.79 42.38 C346.07 29.22, 358.25 13.42, 369.22 1.63 M339.43 41.99 C351.48 25.12, 365.71 11.97, 373.55 2.74 M339.43 41.99 C348.22 31.54, 357.33 20.22, 373.55 2.74 M344.42 42.35 C351.5 33.08, 363.07 23.01, 377.22 4.61 M344.42 42.35 C358.3 28.23, 370.13 13.54, 377.22 4.61 M350.06 41.95 C356.23 32, 366.7 22.93, 379.59 7.99 M350.06 41.95 C360.54 28.86, 373.54 15.95, 379.59 7.99 M355.05 42.31 C359.41 36.92, 366.14 28.86, 379.98 13.63 M355.05 42.31 C363.47 33.47, 371.23 24.9, 379.98 13.63 M360.69 41.92 C364.75 35.83, 369.82 34.58, 379.72 20.03 M360.69 41.92 C368.11 32.43, 375.71 24.4, 379.72 20.03 M365.68 42.28 C368.71 35.97, 376.36 30.09, 380.11 25.67 M365.68 42.28 C370.79 36.85, 375.65 31.13, 380.11 25.67 M369.35 44.15 C374.01 40.86, 376.85 35.17, 379.2 32.83 M369.35 44.15 C371.4 40.85, 373.82 37.86, 379.2 32.83" stroke="#fab005" stroke-width="0.5" fill="none"></path><path d="M10.54 0 M10.54 0 C138.24 -0.18, 267.02 -0.3, 367.53 0 M10.54 0 C101.61 2.02, 192.68 1.74, 367.53 0 M367.53 0 C374.58 -1.2, 379.03 4.24, 378.07 10.54 M367.53 0 C376.6 1.51, 380.08 5.49, 378.07 10.54 M378.07 10.54 C376.69 16.36, 379.68 25.05, 378.07 31.63 M378.07 10.54 C377.93 17.87, 378.6 26.97, 378.07 31.63 M378.07 31.63 C378.24 37.36, 372.62 43.2, 367.53 42.18 M378.07 31.63 C376.38 40.45, 375.74 40.34, 367.53 42.18 M367.53 42.18 C280.59 42.19, 193.76 43.44, 10.54 42.18 M367.53 42.18 C251.76 43.83, 136.01 43.84, 10.54 42.18 M10.54 42.18 C1.71 43.62, -1.74 37.29, 0 31.63 M10.54 42.18 C4.05 41.86, -0.68 37.4, 0 31.63 M0 31.63 C1.99 23.56, 0.3 17.82, 0 10.54 M0 31.63 C0.65 23.67, -0.43 15.74, 0 10.54 M0 10.54 C-0.28 3.58, 2.8 -1.88, 10.54 0 M0 10.54 C1.27 1.57, 5.54 -2.3, 10.54 0" stroke="#000000" stroke-width="1" fill="none"></path></g><g transform="translate(318.16275533039516 506.49876352945694) rotate(0 83.58984375 9.200000000000045)"><text x="83.58984375" y="0" font-family="Helvetica, Segoe UI Emoji" font-size="16px" fill="#000000" text-anchor="middle" style="white-space: pre;" direction="ltr" dominant-baseline="text-before-edge">Post Execution Hook(s)</text></g><g stroke-linecap="round"><g transform="translate(400.9076690673728 340.3862635294581) rotate(0 0.8051399725177362 18.341335497548016)"><path d="M-0.63 -0.65 C-0.18 5.38, 1.42 30.99, 2.24 37.33" stroke="#000000" stroke-width="1.5" fill="none" stroke-dasharray="1.5 7"></path></g><g transform="translate(400.9076690673728 340.3862635294581) rotate(0 0.8051399725177362 18.341335497548016)"><path d="M-6.86 18.42 C-4.29 26.19, -2.1 28.39, 2.19 35.62" stroke="#000000" stroke-width="1.5" fill="none" stroke-dasharray="1.5 5"></path></g><g transform="translate(400.9076690673728 340.3862635294581) rotate(0 0.8051399725177362 18.341335497548016)"><path d="M6.06 17.24 C5.29 25.25, 4.13 27.75, 2.19 35.62" stroke="#000000" stroke-width="1.5" fill="none" stroke-dasharray="1.5 5"></path></g></g><mask></mask><g stroke-linecap="round"><g transform="translate(402.5208282470603 453.45775604247865) rotate(0 -0.13194072072701601 20.12283465291057)"><path d="M0.1 -0.79 C0.04 5.89, -0.25 34.31, -0.37 41.03" stroke="#000000" stroke-width="1.5" fill="none" stroke-dasharray="1.5 7"></path></g><g transform="translate(402.5208282470603 453.45775604247865) rotate(0 -0.13194072072701601 20.12283465291057)"><path d="M-8.28 22.22 C-3.26 27.5, -3.77 33.43, -2.16 40.22" stroke="#000000" stroke-width="1.5" fill="none" stroke-dasharray="1.5 5"></path></g><g transform="translate(402.5208282470603 453.45775604247865) rotate(0 -0.13194072072701601 20.12283465291057)"><path d="M5.43 22.41 C6.31 27.64, 1.65 33.52, -2.16 40.22" stroke="#000000" stroke-width="1.5" fill="none" stroke-dasharray="1.5 5"></path></g></g><mask></mask><g mask="url(#mask-X0qiCtQnKeFaJL1KCIFks)" stroke-linecap="round"><g transform="translate(335.7507069905605 226.96036020914653) rotate(0 -0.1322609687840668 33.25828231424089)"><path d="M-0.58 -1.18 C-0.36 10.18, 0.22 56.23, 0.31 67.69" stroke="#000000" stroke-width="1.5" fill="none" stroke-dasharray="1.5 7"></path></g><g transform="translate(335.7507069905605 226.96036020914653) rotate(0 -0.1322609687840668 33.25828231424089)"><path d="M-12.21 39.09 C-9.55 44.67, -7.4 53.35, 2.28 67.21" stroke="#000000" stroke-width="1.5" fill="none" stroke-dasharray="1.5 5"></path></g><g transform="translate(335.7507069905605 226.96036020914653) rotate(0 -0.1322609687840668 33.25828231424089)"><path d="M8.31 38.87 C6.55 44.39, 4.28 53.12, 2.28 67.21" stroke="#000000" stroke-width="1.5" fill="none" stroke-dasharray="1.5 5"></path></g></g><mask id="mask-X0qiCtQnKeFaJL1KCIFks"><rect x="0" y="0" fill="#fff" width="436.3800811767587" height="395.5367151896153"></rect><rect x="324.05758158366007" y="252.0485376993811" fill="#000" width="24.015625" height="18.4" opacity="1"></rect></mask><g transform="translate(324.05758158366007 252.0485376993811) rotate(0 11.560864438116369 8.17010482400633)"><text x="12.0078125" y="0" font-family="Helvetica, Segoe UI Emoji" font-size="16px" fill="#000000" text-anchor="middle" style="white-space: pre;" direction="ltr" dominant-baseline="text-before-edge">A.2</text></g><g stroke-linecap="round"><g transform="translate(481.6925811767587 264.02268727620367) rotate(0 -0.23342442532884888 14.828516218562982)"><path d="M-0.36 -0.57 C-0.43 4.35, -0.06 25.04, -0.1 30.23" stroke="#000000" stroke-width="1.5" fill="none" stroke-dasharray="1.5 7"></path></g><g transform="translate(481.6925811767587 264.02268727620367) rotate(0 -0.23342442532884888 14.828516218562982)"><path d="M-6.2 16.13 C-4.39 20.15, -2.21 25.18, -1.24 31.08" stroke="#000000" stroke-width="1.5" fill="none" stroke-dasharray="1.5 5"></path></g><g transform="translate(481.6925811767587 264.02268727620367) rotate(0 -0.23342442532884888 14.828516218562982)"><path d="M4.35 16.06 C2.73 20.08, 1.48 25.13, -1.24 31.08" stroke="#000000" stroke-width="1.5" fill="none" stroke-dasharray="1.5 5"></path></g></g><mask></mask><g transform="translate(10.47943115234466 202.37270355224518) rotate(0 28.9111328125 11.5)"><text x="0" y="0" font-family="Helvetica, Segoe UI Emoji" font-size="20px" fill="#000000" text-anchor="start" style="white-space: pre;" direction="ltr" dominant-baseline="text-before-edge">Step 1</text></g><g transform="translate(10 303.5860214233385) rotate(0 28.9111328125 11.5)"><text x="0" y="0" font-family="Helvetica, Segoe UI Emoji" font-size="20px" fill="#000000" text-anchor="start" style="white-space: pre;" direction="ltr" dominant-baseline="text-before-edge">Step 2</text></g><g transform="translate(12.139765421549782 405.9254480997711) rotate(0 28.9111328125 11.5)"><text x="0" y="0" font-family="Helvetica, Segoe UI Emoji" font-size="20px" fill="#000000" text-anchor="start" style="white-space: pre;" direction="ltr" dominant-baseline="text-before-edge">Step 3</text></g><g transform="translate(17.071075439454034 504.1011072794586) rotate(0 28.9111328125 11.5)"><text x="0" y="0" font-family="Helvetica, Segoe UI Emoji" font-size="20px" fill="#000000" text-anchor="start" style="white-space: pre;" direction="ltr" dominant-baseline="text-before-edge">Step 4</text></g><g stroke-linecap="round"><g transform="translate(284.0869394938163 615.021273295084) rotate(0 0.3594897843208855 -0.10942665056836631)"><path d="M-0.47 -0.02 C-0.68 0.29, -1.04 0.92, -0.78 0.85 M1.49 -1.07 C1.61 -1.01, 1.62 -1.11, 1.52 -0.83" stroke="#000000" stroke-width="1" fill="none"></path></g></g><mask></mask><g mask="url(#mask-4GKFr3EeX9_210SLxlaVV)" stroke-linecap="round"><g transform="translate(197.3283894856786 614.5257695515947) rotate(0 36.10260259680899 -0.03416379869145203)"><path d="M-0.18 -1.05 C12.03 -1.2, 61.54 -0.68, 73.93 -0.59 M-1.73 1.01 C10.24 0.95, 60.35 0.52, 72.87 0.41" stroke="#000000" stroke-width="1" fill="none"></path></g><g transform="translate(197.3283894856786 614.5257695515947) rotate(0 36.10260259680899 -0.03416379869145203)"><path d="M43.02 10.57 C53.14 7.25, 63.41 2.99, 73.17 2.3 M44.82 10.21 C51.55 7.6, 59.55 4.98, 73.55 0.53" stroke="#000000" stroke-width="1" fill="none"></path></g><g transform="translate(197.3283894856786 614.5257695515947) rotate(0 36.10260259680899 -0.03416379869145203)"><path d="M42.84 -9.95 C53.07 -5.89, 63.41 -2.78, 73.17 2.3 M44.64 -10.31 C51.56 -7.28, 59.6 -4.27, 73.55 0.53" stroke="#000000" stroke-width="1" fill="none"></path></g></g><mask id="mask-4GKFr3EeX9_210SLxlaVV"><rect x="0" y="0" fill="#fff" width="371.46756490071766" height="714.9633916219072"></rect><rect x="229.06203969319813" y="605.5445805867512" fill="#000" width="10.671875" height="18.4" opacity="1"></rect></mask><g transform="translate(229.06203969319813 605.5445805867512) rotate(0 4.368952389289461 8.947025166152116)"><text x="5.3359375" y="0" font-family="Helvetica, Segoe UI Emoji" font-size="16px" fill="#000000" text-anchor="middle" style="white-space: pre;" direction="ltr" dominant-baseline="text-before-edge">A</text></g><g transform="translate(280.97999572754 604.9593144734699) rotate(0 119.1484375 9.200000000000045)"><text x="0" y="0" font-family="Helvetica, Segoe UI Emoji" font-size="16px" fill="#000000" text-anchor="start" style="white-space: pre;" direction="ltr" dominant-baseline="text-before-edge">Calls from Entrypoint (ERC-4337)</text></g><g mask="url(#mask-rcO5QXuc9GzYbItIn6HX9)" stroke-linecap="round"><g transform="translate(197.76283431328557 644.0910669962559) rotate(0 37.396215230240614 -0.028462539996780833)"><path d="M0.72 0.43 C13.06 0.25, 62.78 -0.34, 75.15 -0.54 M-0.36 -0.38 C11.81 -0.49, 62.24 0.44, 74.73 0.49" stroke="#000000" stroke-width="1" fill="none"></path></g><g transform="translate(197.76283431328557 644.0910669962559) rotate(0 37.396215230240614 -0.028462539996780833)"><path d="M47.14 12.09 C55.94 7.62, 66.74 2.9, 73.15 -0.66 M45.71 11.36 C52.9 8.29, 58.55 6.82, 74.16 -0.33" stroke="#000000" stroke-width="1" fill="none"></path></g><g transform="translate(197.76283431328557 644.0910669962559) rotate(0 37.396215230240614 -0.028462539996780833)"><path d="M47.39 -8.43 C56.18 -4.81, 66.88 -1.42, 73.15 -0.66 M45.95 -9.16 C53.05 -7.63, 58.65 -4.49, 74.16 -0.33" stroke="#000000" stroke-width="1" fill="none"></path></g></g><mask id="mask-rcO5QXuc9GzYbItIn6HX9"><rect x="0" y="0" fill="#fff" width="371.90200972832463" height="744.5082945194367"></rect><rect x="229.4964845208051" y="635.0996807578467" fill="#000" width="10.671875" height="18.4" opacity="1"></rect></mask><g transform="translate(229.4964845208051 635.0996807578467) rotate(0 5.662565022721083 8.962923698412396)"><text x="5.3359375" y="0" font-family="Helvetica, Segoe UI Emoji" font-size="16px" fill="#000000" text-anchor="middle" style="white-space: pre;" direction="ltr" dominant-baseline="text-before-edge">B</text></g><g transform="translate(281.41444055514694 634.5246119181311) rotate(0 129.828125 9.200000000000045)"><text x="0" y="0" font-family="Helvetica, Segoe UI Emoji" font-size="16px" fill="#000000" text-anchor="start" style="white-space: pre;" direction="ltr" dominant-baseline="text-before-edge">Calls from EOAs and other contracts</text></g><g transform="translate(412.5519053141279 351.73274993896393) rotate(0 26.23828125 9.200000000000045)"><text x="0" y="0" font-family="Helvetica, Segoe UI Emoji" font-size="16px" fill="#000000" text-anchor="start" style="white-space: pre;" direction="ltr" dominant-baseline="text-before-edge">A.3 B.3</text></g><g transform="translate(419.4934844970712 463.83556365966706) rotate(0 26.23828125 9.200000000000045)"><text x="0" y="0" font-family="Helvetica, Segoe UI Emoji" font-size="16px" fill="#000000" text-anchor="start" style="white-space: pre;" direction="ltr" dominant-baseline="text-before-edge">A.4 B.4</text></g><g transform="translate(489.83421325683685 267.93651580810456) rotate(0 12.0078125 9.200000000000045)"><text x="0" y="0" font-family="Helvetica, Segoe UI Emoji" font-size="16px" fill="#000000" text-anchor="start" style="white-space: pre;" direction="ltr" dominant-baseline="text-before-edge">B.2</text></g><g stroke-linecap="round" transform="translate(153.8906911214226 180.18906911214162) rotate(0 70.5 15)"><path d="M2 1.74 C2 1.74, 2 1.74, 2 1.74 M2 1.74 C2 1.74, 2 1.74, 2 1.74 M1.08 8.89 C1.93 6.52, 4.5 4.31, 8.3 0.59 M1.08 8.89 C3.38 6.7, 5.86 4.26, 8.3 0.59 M1.47 14.53 C4.38 10.39, 10.66 5.46, 13.28 0.95 M1.47 14.53 C3.54 10.4, 6.57 8.29, 13.28 0.95 M1.87 20.17 C6.16 11.25, 13.3 5.08, 18.93 0.55 M1.87 20.17 C5.72 15.61, 10.92 10.09, 18.93 0.55 M1.61 26.57 C10.63 17.87, 19.65 9.05, 23.91 0.91 M1.61 26.57 C7.61 17.9, 15.32 11.21, 23.91 0.91 M3.97 29.95 C11.13 22.39, 18.16 14.56, 29.56 0.52 M3.97 29.95 C12.07 20.34, 20.25 11.43, 29.56 0.52 M9.61 29.56 C14.6 22.3, 20.26 19.2, 34.54 0.88 M9.61 29.56 C16.19 22.6, 21.15 15.2, 34.54 0.88 M14.6 29.92 C21.41 19.83, 29.64 12.72, 40.19 0.48 M14.6 29.92 C22 20.65, 29.69 13.66, 40.19 0.48 M20.24 29.52 C27.89 18.1, 37.27 9.87, 45.17 0.84 M20.24 29.52 C28.93 21.31, 36.87 11.55, 45.17 0.84 M25.23 29.88 C34.26 21.67, 41.33 12.51, 50.82 0.45 M25.23 29.88 C31.68 21.07, 41.1 11.55, 50.82 0.45 M30.87 29.49 C37.16 21.63, 41.53 17.8, 55.8 0.81 M30.87 29.49 C37.82 22.57, 43.35 13.7, 55.8 0.81 M35.86 29.85 C44.62 18.65, 51.17 11.53, 60.79 1.17 M35.86 29.85 C45.81 18.98, 54.43 7.97, 60.79 1.17 M41.5 29.45 C51.24 19.06, 60.16 7.22, 66.43 0.77 M41.5 29.45 C51.13 19.71, 58.53 11.05, 66.43 0.77 M46.49 29.81 C53.92 19.89, 61.78 12.81, 71.42 1.13 M46.49 29.81 C56.25 19.24, 65.56 6.88, 71.42 1.13 M52.13 29.42 C61.18 20.37, 70.73 9.78, 77.06 0.74 M52.13 29.42 C62.65 17.63, 72.5 7.47, 77.06 0.74 M57.12 29.78 C63.37 21, 67.57 16.87, 82.05 1.1 M57.12 29.78 C65.88 19.88, 73.9 10.62, 82.05 1.1 M62.11 30.14 C67.68 22.99, 76.73 14.23, 87.69 0.7 M62.11 30.14 C68.97 22.34, 76.93 13.19, 87.69 0.7 M67.75 29.74 C77.73 20.34, 86.36 6.92, 92.68 1.06 M67.75 29.74 C74.5 21.63, 83.05 14.65, 92.68 1.06 M72.74 30.1 C78.85 23.42, 85.6 15.96, 98.32 0.67 M72.74 30.1 C80.04 22.88, 84.87 16.12, 98.32 0.67 M78.38 29.71 C85.04 22.03, 91.92 13.22, 103.31 1.03 M78.38 29.71 C86.32 18.71, 96.16 10.46, 103.31 1.03 M83.37 30.07 C88.63 24.29, 96.46 18.78, 108.95 0.64 M83.37 30.07 C90.51 22.12, 96.33 14.41, 108.95 0.64 M89.01 29.67 C97.37 18.97, 104.64 9.73, 113.94 1 M89.01 29.67 C98.28 19.77, 108.22 8.03, 113.94 1 M94 30.03 C102.37 23.59, 108.5 13.33, 118.93 1.36 M94 30.03 C102.7 20.29, 113.11 9.62, 118.93 1.36 M99.64 29.64 C106.07 21.81, 108.88 17.49, 124.57 0.96 M99.64 29.64 C107.5 22.41, 113.51 12.88, 124.57 0.96 M104.63 30 C111.89 19.46, 121.01 8.84, 129.56 1.32 M104.63 30 C112.58 21.78, 120.92 11.92, 129.56 1.32 M110.27 29.61 C120.8 18.98, 129.89 6.23, 135.2 0.93 M110.27 29.61 C116.49 22.98, 123.78 14.11, 135.2 0.93 M115.26 29.97 C119.61 25.66, 123.34 19.71, 138.88 2.8 M115.26 29.97 C121.32 22.62, 128.28 14.18, 138.88 2.8 M120.24 30.33 C127.81 20.75, 135.03 13.66, 141.89 5.42 M120.24 30.33 C127.58 21.22, 137.44 10.03, 141.89 5.42 M125.89 29.93 C131.54 25.38, 135.65 15.93, 141.63 11.82 M125.89 29.93 C130.39 26.97, 133.37 22.94, 141.63 11.82 M130.87 30.29 C134.7 25.43, 136.79 23.13, 142.03 17.46 M130.87 30.29 C133.39 27.27, 136.92 23.29, 142.03 17.46 M135.21 31.41 C137.07 30.1, 137.58 27.95, 141.77 23.86 M135.21 31.41 C137.05 29.88, 138.75 28.05, 141.77 23.86" stroke="#fa5252" stroke-width="0.5" fill="none"></path><path d="M7.5 0 M7.5 0 C53.06 1.51, 98.19 -1.83, 133.5 0 M7.5 0 C42.67 0.93, 79.04 0.47, 133.5 0 M133.5 0 C137.18 -1.81, 139.84 4.02, 141 7.5 M133.5 0 C139.19 -1.28, 142.37 2.74, 141 7.5 M141 7.5 C141.81 11.85, 141.75 17.13, 141 22.5 M141 7.5 C141.1 10.68, 141.58 14.38, 141 22.5 M141 22.5 C141.09 25.98, 140.27 31.67, 133.5 30 M141 22.5 C140.5 25.8, 137.07 28.65, 133.5 30 M133.5 30 C104.61 29.3, 79.21 29.46, 7.5 30 M133.5 30 C98.02 30.17, 63.91 31.45, 7.5 30 M7.5 30 C3.2 31.52, 0.78 29.17, 0 22.5 M7.5 30 C2.12 30.25, 1.21 25.77, 0 22.5 M0 22.5 C-0.71 18.08, 1.11 10.48, 0 7.5 M0 22.5 C0.34 17.05, 0.59 11.31, 0 7.5 M0 7.5 C-0.29 2.37, 2.12 1.93, 7.5 0 M0 7.5 C-0.75 2.67, 1.73 -1.14, 7.5 0" stroke="#000000" stroke-width="1" fill="none"></path></g><g transform="translate(167.1719411214226 185.9890691121418) rotate(0 57.21875 9.200000000000045)"><text x="57.21875" y="0" font-family="Helvetica, Segoe UI Emoji" font-size="16px" fill="#000000" text-anchor="middle" style="white-space: pre;" direction="ltr" dominant-baseline="text-before-edge">userOpValidator</text></g><g transform="translate(142.96063741048238 154.75719451904297) rotate(0 55.13671875 9.200000000000045)"><text x="0" y="0" font-family="Helvetica, Segoe UI Emoji" font-size="16px" fill="#000000" text-anchor="start" style="white-space: pre;" direction="ltr" dominant-baseline="text-before-edge">validateUserOp</text></g></svg>