<svg version="1.1" xmlns="http://www.w3.org/2000/svg" viewBox="0 0 895.0126088180587 300.9303995768232" width="895.0126088180587" height="300.9303995768232">
  <!-- svg-source:excalidraw -->
  
  <defs>
    <style class="style-fonts">
      @font-face {
        font-family: "Virgil";
        src: url("https://excalidraw.com/Virgil.woff2");
      }
      @font-face {
        font-family: "Cascadia";
        src: url("https://excalidraw.com/Cascadia.woff2");
      }
    </style>
  </defs>
  <rect x="0" y="0" width="895.0126088180587" height="300.9303995768232" fill="#ffffff"></rect><g stroke-linecap="round" transform="translate(170.45012489122837 18.7718658447252) rotate(0 82.78589375813817 126.37825520833348)"><path d="M7.86 8.16 C7.86 8.16, 7.86 8.16, 7.86 8.16 M7.86 8.16 C7.86 8.16, 7.86 8.16, 7.86 8.16 M3.66 19.09 C6.21 16.55, 10.23 10.56, 18.1 2.48 M3.66 19.09 C9.22 13.58, 13.55 6.64, 18.1 2.48 M2.75 26.24 C10.57 20.76, 14.11 12.82, 24.4 1.33 M2.75 26.24 C11.52 17.21, 19.06 6.76, 24.4 1.33 M2.48 32.64 C9.08 24.83, 18.45 15.96, 30.7 0.18 M2.48 32.64 C12.16 19.94, 23.64 7.82, 30.7 0.18 M2.88 38.28 C10.59 27.45, 18.96 18.76, 34.37 2.05 M2.88 38.28 C9.77 29.82, 16.12 23.74, 34.37 2.05 M2.62 44.68 C17.17 27.09, 32.05 12.65, 39.36 2.41 M2.62 44.68 C15.74 28.97, 28.26 14.46, 39.36 2.41 M2.36 51.07 C15.76 37.39, 23.88 23.39, 45 2.02 M2.36 51.07 C15.14 35.84, 28.34 21.74, 45 2.02 M2.75 56.72 C21.56 37.26, 41.77 13.16, 49.99 2.38 M2.75 56.72 C13.02 44.94, 24.16 32.39, 49.99 2.38 M2.49 63.11 C12.95 48.26, 27.67 34.53, 55.63 1.98 M2.49 63.11 C23.9 39.58, 45.04 14.08, 55.63 1.98 M2.23 69.51 C15.83 53.64, 30.35 36.89, 60.62 2.34 M2.23 69.51 C18.75 51.47, 34.45 32.75, 60.62 2.34 M2.62 75.16 C21.31 53.44, 41.39 29.4, 66.26 1.95 M2.62 75.16 C18.24 57.71, 35.79 37.85, 66.26 1.95 M2.36 81.55 C17.66 65.47, 32.65 46.68, 71.25 2.31 M2.36 81.55 C29.45 50.34, 57.6 18.81, 71.25 2.31 M2.76 87.2 C22.93 61.68, 42.5 40.44, 76.89 1.91 M2.76 87.2 C22.62 63.7, 44.2 39.37, 76.89 1.91 M2.49 93.59 C31.55 62.58, 58.58 31.64, 81.88 2.27 M2.49 93.59 C29.04 61.75, 58.02 28.16, 81.88 2.27 M2.23 99.99 C25.94 72.67, 48.73 50.16, 86.86 2.63 M2.23 99.99 C20.97 76.74, 42.29 53.24, 86.86 2.63 M2.63 105.64 C32.13 68.52, 62.38 35.8, 92.51 2.24 M2.63 105.64 C22.26 84.06, 42.35 60.53, 92.51 2.24 M2.37 112.03 C38.47 71.31, 71.69 31.68, 97.49 2.6 M2.37 112.03 C38.02 72.41, 73.23 32.87, 97.49 2.6 M2.1 118.43 C24.03 94.06, 44.41 68.08, 103.14 2.21 M2.1 118.43 C27.45 86.51, 55.14 56.46, 103.14 2.21 M2.5 124.07 C45.09 76.54, 86.05 29.55, 108.12 2.57 M2.5 124.07 C30.7 90.68, 61.04 55.95, 108.12 2.57 M2.24 130.47 C38.16 88.65, 71.51 45.95, 113.77 2.17 M2.24 130.47 C36.48 93.17, 69.9 54.24, 113.77 2.17 M2.63 136.11 C43.47 88.46, 84.87 41.67, 118.76 2.53 M2.63 136.11 C29.48 102.67, 57.75 71.69, 118.76 2.53 M2.37 142.51 C34.41 103.23, 69.53 65.62, 124.4 2.14 M2.37 142.51 C42.52 95.44, 85.45 46.64, 124.4 2.14 M2.11 148.91 C28.01 119.25, 56.33 89.25, 129.39 2.5 M2.11 148.91 C40.41 105.87, 78.66 62.69, 129.39 2.5 M2.5 154.55 C33.55 119.7, 63.6 83.41, 134.37 2.86 M2.5 154.55 C48.24 104.18, 91.23 52.6, 134.37 2.86 M2.24 160.95 C36.57 117.6, 74.01 72.42, 141.33 0.95 M2.24 160.95 C52.47 104, 100.91 47.38, 141.33 0.95 M1.98 167.35 C36.15 129.6, 70.83 90.18, 145.66 2.07 M1.98 167.35 C33.02 129.46, 65.14 93.42, 145.66 2.07 M2.38 172.99 C60.36 106.22, 117.85 40.16, 149.33 3.94 M2.38 172.99 C44.72 125.67, 86.47 77.6, 149.33 3.94 M2.11 179.39 C42.23 131.91, 82.4 84.28, 153.66 5.05 M2.11 179.39 C42.81 130.35, 86.14 81.86, 153.66 5.05 M2.51 185.03 C36.8 143.67, 72.64 105.11, 156.68 7.68 M2.51 185.03 C37.78 144.31, 73.09 104.21, 156.68 7.68 M2.25 191.43 C61.41 123.42, 123.92 53.31, 159.05 11.06 M2.25 191.43 C63 119.39, 124.04 49.42, 159.05 11.06 M1.99 197.83 C54.57 136.83, 107.89 75.09, 162.06 13.68 M1.99 197.83 C52.02 140.93, 100.88 85.27, 162.06 13.68 M2.38 203.47 C61.57 137.76, 118.28 68.13, 163.77 17.81 M2.38 203.47 C62.34 135.86, 121.46 67.22, 163.77 17.81 M2.12 209.87 C50.35 153.29, 97.25 101.92, 164.17 23.46 M2.12 209.87 C47.93 155.77, 94.46 103.43, 164.17 23.46 M1.86 216.27 C47.76 162.26, 94.6 108.46, 165.22 28.34 M1.86 216.27 C38.76 174.95, 76.48 131.23, 165.22 28.34 M1.6 222.66 C59.38 154.47, 120.03 83.96, 166.27 33.23 M1.6 222.66 C54.13 164.8, 104.28 107.05, 166.27 33.23 M2.65 227.55 C64.13 160.7, 120.59 90.34, 166.66 38.88 M2.65 227.55 C54.84 168.09, 106.13 109.47, 166.66 38.88 M3.04 233.2 C42.24 189.19, 83.1 142.53, 166.4 45.27 M3.04 233.2 C65.18 162.14, 127.59 88.63, 166.4 45.27 M4.75 237.33 C48.01 189.33, 91.5 137.5, 166.79 50.92 M4.75 237.33 C65.02 166.7, 125.96 96.11, 166.79 50.92 M6.46 241.46 C56.47 184.93, 105.76 128.11, 166.53 57.31 M6.46 241.46 C54.37 185.79, 102.22 129.75, 166.53 57.31 M8.82 244.84 C45.78 202.8, 81.33 162.45, 166.27 63.71 M8.82 244.84 C56.37 191.55, 103.68 138.79, 166.27 63.71 M11.84 247.47 C71.72 180.49, 128.57 114.59, 166.67 69.36 M11.84 247.47 C56.08 194.73, 102.47 143.01, 166.67 69.36 M14.86 250.09 C69.7 188.43, 122.24 128.26, 166.41 75.75 M14.86 250.09 C69.64 187.7, 123.97 124.42, 166.41 75.75 M19.19 251.21 C68.1 193.06, 119.64 134.36, 166.8 81.4 M19.19 251.21 C73.81 188.07, 130.14 123.54, 166.8 81.4 M23.52 252.32 C62.43 205.56, 103.37 160.34, 166.54 87.79 M23.52 252.32 C78.86 191.55, 131.49 129.53, 166.54 87.79 M28.5 252.68 C74.23 197.98, 121.62 147.15, 166.28 94.19 M28.5 252.68 C60.94 216.4, 92.18 179.93, 166.28 94.19 M32.84 253.8 C75.17 207.17, 117.16 157.49, 166.67 99.83 M32.84 253.8 C81.3 195.96, 131.78 137.53, 166.67 99.83 M38.48 253.4 C82.42 201.15, 130.52 149.01, 166.41 106.23 M38.48 253.4 C77.24 208.83, 116.9 164.39, 166.41 106.23 M43.47 253.76 C85.68 209.64, 123.29 161.3, 166.8 111.88 M43.47 253.76 C79.05 212.33, 115.89 171.51, 166.8 111.88 M49.11 253.37 C80.82 216.27, 109.79 181.47, 166.54 118.27 M49.11 253.37 C84.74 212.96, 120.03 172.5, 166.54 118.27 M54.1 253.73 C81.07 221.52, 109 191.31, 166.28 124.67 M54.1 253.73 C86.58 215.55, 121.34 177.56, 166.28 124.67 M59.74 253.33 C98.55 207.22, 139.46 157.16, 166.68 130.31 M59.74 253.33 C94.94 214, 127.24 174.97, 166.68 130.31 M64.73 253.69 C95.69 214.81, 129.51 178.92, 166.41 136.71 M64.73 253.69 C91.89 223.54, 117.41 193.83, 166.41 136.71 M70.37 253.3 C95.51 227.1, 120.23 197.21, 166.81 142.36 M70.37 253.3 C98.88 220.22, 126.97 188.84, 166.81 142.36 M75.36 253.66 C104.4 219.31, 135.67 183.64, 166.55 148.75 M75.36 253.66 C98.7 226.22, 125.06 196.93, 166.55 148.75 M81 253.26 C109.91 219.59, 140.93 184.92, 166.29 155.15 M81 253.26 C108.88 219.32, 138.76 186.33, 166.29 155.15 M85.99 253.62 C112.83 222.54, 142.18 191.64, 166.68 160.79 M85.99 253.62 C114.45 220.12, 141.97 188.62, 166.68 160.79 M90.97 253.98 C115.2 227.86, 136.72 199.75, 166.42 167.19 M90.97 253.98 C110.58 231.78, 129.93 210.35, 166.42 167.19 M96.62 253.59 C118.25 226.48, 142.39 198.59, 166.81 172.83 M96.62 253.59 C120.04 227.38, 141.54 202.06, 166.81 172.83 M101.6 253.95 C121.67 230.54, 142.36 206.97, 166.55 179.23 M101.6 253.95 C124.23 227.03, 148.49 197.91, 166.55 179.23 M107.25 253.55 C129.67 226.41, 153.45 199.76, 166.29 185.63 M107.25 253.55 C126.39 232.5, 146.54 209.46, 166.29 185.63 M112.23 253.91 C131.75 229.52, 149.05 209.3, 166.69 191.27 M112.23 253.91 C128.72 234.66, 146.94 214.5, 166.69 191.27 M117.88 253.52 C132.54 235.45, 145.31 219.02, 166.42 197.67 M117.88 253.52 C134.76 235.26, 151.13 215.48, 166.42 197.67 M122.86 253.88 C135.07 240.4, 148.86 222.05, 166.82 203.31 M122.86 253.88 C134.18 240.89, 145.31 227.76, 166.82 203.31 M128.51 253.49 C144.94 237.07, 159.77 218.8, 166.56 209.71 M128.51 253.49 C136.87 242.99, 145.25 233.36, 166.56 209.71 M134.15 253.09 C141.51 242.07, 150.48 233.67, 166.3 216.11 M134.15 253.09 C142.39 243.96, 152.25 234.24, 166.3 216.11 M139.79 252.7 C144.15 246.31, 152.75 239.35, 166.69 221.75 M139.79 252.7 C147.72 243.31, 156.11 234.07, 166.69 221.75 M146.09 251.55 C151.01 248.61, 156.29 241.03, 165.77 228.91 M146.09 251.55 C152.89 242.6, 159.02 236.6, 165.77 228.91" stroke="#ced4da" stroke-width="0.5" fill="none"></path><path d="M32 0 M32 0 C69.77 -1.36, 109.64 0.19, 133.57 0 M32 0 C69.59 -1.1, 107.24 0.4, 133.57 0 M133.57 0 C156.37 0.14, 164.42 11.08, 165.57 32 M133.57 0 C156.42 1.32, 166.53 12.94, 165.57 32 M165.57 32 C162.73 81.12, 162.84 131.18, 165.57 220.76 M165.57 32 C166.08 94.98, 165.28 157.63, 165.57 220.76 M165.57 220.76 C163.72 240.65, 155.1 253.6, 133.57 252.76 M165.57 220.76 C166.23 243.7, 154.32 251.75, 133.57 252.76 M133.57 252.76 C106.1 251.11, 75.26 251.77, 32 252.76 M133.57 252.76 C112.54 254.3, 93.07 253.8, 32 252.76 M32 252.76 C9.73 254.51, 1.16 242.38, 0 220.76 M32 252.76 C8.76 253.45, -0.88 241.64, 0 220.76 M0 220.76 C-2.1 148.3, 0.43 77.96, 0 32 M0 220.76 C1.75 170.56, 1.31 121.25, 0 32 M0 32 C0.65 8.68, 11.61 -1.96, 32 0 M0 32 C0.73 12.88, 9.45 1.67, 32 0" stroke="#000000" stroke-width="1" fill="none"></path></g><g stroke-linecap="round" transform="translate(402.8146370168788 10) rotate(0 53 39)"><path d="M5.19 4.51 C5.19 4.51, 5.19 4.51, 5.19 4.51 M5.19 4.51 C5.19 4.51, 5.19 4.51, 5.19 4.51 M0.99 15.44 C5.66 11.86, 11.43 4.49, 12.15 2.61 M0.99 15.44 C3.15 13.11, 5.89 10.18, 12.15 2.61 M0.73 21.84 C3.63 16.12, 10.57 11.34, 19.76 -0.05 M0.73 21.84 C8.83 13.61, 16.47 3.64, 19.76 -0.05 M1.13 27.48 C6.97 20.86, 13.6 13.18, 24.74 0.31 M1.13 27.48 C8.04 20.48, 14.26 12.67, 24.74 0.31 M0.86 33.88 C9.08 23.88, 18.91 11.64, 30.39 -0.09 M0.86 33.88 C7.9 26.27, 16.76 16.41, 30.39 -0.09 M1.26 39.52 C8.96 32.01, 16.47 21.82, 35.37 0.27 M1.26 39.52 C14.68 24.12, 29.02 8.48, 35.37 0.27 M1 45.92 C11.65 31.33, 21.66 21.09, 41.02 -0.12 M1 45.92 C11.67 33.35, 23.79 19.9, 41.02 -0.12 M0.74 52.32 C17.96 34.88, 33.37 17.29, 46 0.24 M0.74 52.32 C15.51 34.4, 32.34 14.78, 46 0.24 M1.13 57.96 C15.77 40.92, 29.49 28.84, 51.65 -0.15 M1.13 57.96 C11.96 44.09, 25.27 29.8, 51.65 -0.15 M1.53 63.6 C19.16 40.49, 37.51 21.46, 56.63 0.21 M1.53 63.6 C13.39 50.73, 25.94 35.88, 56.63 0.21 M3.23 67.74 C26.09 41.99, 46.21 17.43, 62.28 -0.19 M3.23 67.74 C25.54 42.97, 47.54 18.62, 62.28 -0.19 M4.94 71.87 C18.82 56.84, 30.76 40.58, 67.26 0.17 M4.94 71.87 C20.22 52.01, 37.66 33.76, 67.26 0.17 M7.3 75.25 C34.37 45.27, 59.88 16.06, 72.91 -0.22 M7.3 75.25 C24.7 54.83, 43.97 32.83, 72.91 -0.22 M10.98 77.12 C32.93 52.02, 51.84 25.95, 77.89 0.14 M10.98 77.12 C31.77 55.11, 51.73 31.65, 77.89 0.14 M15.96 77.48 C39.77 49.46, 63.82 22.62, 83.54 -0.26 M15.96 77.48 C31.63 57.86, 48.27 40.26, 83.54 -0.26 M20.29 78.59 C37.38 56.37, 57.66 35.83, 87.87 0.86 M20.29 78.59 C42.17 52.82, 66.22 25.72, 87.87 0.86 M25.28 78.95 C38.67 64.08, 54.58 48.36, 92.2 1.97 M25.28 78.95 C45.26 56.42, 65.66 33.77, 92.2 1.97 M30.92 78.56 C47.02 62.2, 61.41 43.72, 96.53 3.09 M30.92 78.56 C54.21 53.81, 74.78 27.78, 96.53 3.09 M35.91 78.92 C50.56 59.27, 67.9 36.92, 100.21 4.96 M35.91 78.92 C59.12 52.9, 81.14 26.55, 100.21 4.96 M41.55 78.52 C56.06 62.78, 71.27 45.82, 103.88 6.83 M41.55 78.52 C54.86 61.82, 68.79 46.85, 103.88 6.83 M46.54 78.88 C69.26 52.65, 92.02 26.55, 104.93 11.71 M46.54 78.88 C63.82 59.89, 80.43 40.74, 104.93 11.71 M52.18 78.49 C66.07 62.56, 79.23 45.75, 105.98 16.6 M52.18 78.49 C66.07 60.46, 82.18 43.54, 105.98 16.6 M57.17 78.85 C67.31 64.22, 79.62 53.22, 107.69 20.74 M57.17 78.85 C68.6 65.2, 79.7 53.05, 107.69 20.74 M62.81 78.45 C78.52 59.04, 98.71 37.99, 107.43 27.13 M62.81 78.45 C80.46 57.28, 97.21 38.3, 107.43 27.13 M67.8 78.81 C80.22 64.2, 92.53 49.55, 107.17 33.53 M67.8 78.81 C79.86 64.32, 91.55 51.52, 107.17 33.53 M73.44 78.42 C87.04 66.1, 96.67 49.71, 107.56 39.17 M73.44 78.42 C86.17 64.48, 98.24 49.83, 107.56 39.17 M78.43 78.78 C88.7 67.23, 96.81 61.07, 107.3 45.57 M78.43 78.78 C86.35 69.01, 95.12 60.36, 107.3 45.57 M84.07 78.39 C90.3 71.01, 96.98 63.43, 107.04 51.97 M84.07 78.39 C89.4 73.06, 95.09 66.12, 107.04 51.97 M88.41 79.5 C94.24 71.9, 102.26 61.77, 107.43 57.61 M88.41 79.5 C95.03 73.25, 100.38 67.03, 107.43 57.61 M95.36 77.6 C101.13 73.62, 102.48 66.11, 107.17 64.01 M95.36 77.6 C99.57 72.73, 103.32 68.83, 107.17 64.01" stroke="#fab005" stroke-width="0.5" fill="none"></path><path d="M19.5 0 M19.5 0 C34.51 0.73, 52.89 -1.64, 86.5 0 M19.5 0 C45.49 0.87, 70.56 -0.3, 86.5 0 M86.5 0 C98.79 0.52, 105.52 7.51, 106 19.5 M86.5 0 C100.82 2.09, 103.74 8.26, 106 19.5 M106 19.5 C105.72 35.9, 104.79 49.99, 106 58.5 M106 19.5 C107.24 28.35, 107.25 37.8, 106 58.5 M106 58.5 C107 73.31, 101.34 79.55, 86.5 78 M106 58.5 C107.97 70.71, 97.92 78.03, 86.5 78 M86.5 78 C69.53 78.56, 53.29 75.69, 19.5 78 M86.5 78 C71.07 77.65, 55.56 77.09, 19.5 78 M19.5 78 C7.27 79.49, 0.32 71.6, 0 58.5 M19.5 78 C8.03 77.81, 0.22 72.29, 0 58.5 M0 58.5 C-0.1 51.45, -0.02 42.41, 0 19.5 M0 58.5 C0.82 44.63, -0.46 29.28, 0 19.5 M0 19.5 C-0.98 6.4, 5.06 -1.43, 19.5 0 M0 19.5 C1.01 8.47, 7.53 -0.83, 19.5 0" stroke="#000000" stroke-width="1" fill="none"></path></g><g transform="translate(412.6310432668788 26) rotate(0 43.18359375 23)"><text x="43.18359375" y="0" font-family="Helvetica, Segoe UI Emoji" font-size="20px" fill="#000000" text-anchor="middle" style="white-space: pre;" direction="ltr" dominant-baseline="text-before-edge">Validation</text><text x="43.18359375" y="23" font-family="Helvetica, Segoe UI Emoji" font-size="20px" fill="#000000" text-anchor="middle" style="white-space: pre;" direction="ltr" dominant-baseline="text-before-edge">Plugins</text></g><g stroke-linecap="round" transform="translate(403.1112678762547 212.93039957682322) rotate(0 54.5 39)"><path d="M5.19 4.51 C5.19 4.51, 5.19 4.51, 5.19 4.51 M5.19 4.51 C5.19 4.51, 5.19 4.51, 5.19 4.51 M0.99 15.44 C2.69 12.7, 6.89 9.55, 12.15 2.61 M0.99 15.44 C5.25 11.06, 8.29 6.94, 12.15 2.61 M0.73 21.84 C8.99 14.55, 15.5 7.78, 19.76 -0.05 M0.73 21.84 C6.2 14.97, 11.42 9.24, 19.76 -0.05 M1.13 27.48 C8.6 22.19, 11.92 14.14, 24.74 0.31 M1.13 27.48 C10.12 17.43, 18.16 8.71, 24.74 0.31 M0.86 33.88 C10.95 22.45, 22.56 6.26, 30.39 -0.09 M0.86 33.88 C10.26 22.97, 19.85 12.31, 30.39 -0.09 M1.26 39.52 C10.27 27.82, 21.07 17.48, 35.37 0.27 M1.26 39.52 C9.04 31.55, 14.47 24.25, 35.37 0.27 M1 45.92 C8.12 36.04, 16.22 28.19, 41.02 -0.12 M1 45.92 C16.23 29.37, 31.89 11.91, 41.02 -0.12 M0.74 52.32 C13.02 38.77, 21.68 28.58, 46 0.24 M0.74 52.32 C18.1 32.8, 33.9 15.2, 46 0.24 M1.13 57.96 C15.44 38.01, 33.6 20.34, 51.65 -0.15 M1.13 57.96 C14.13 43.27, 27.28 28.24, 51.65 -0.15 M1.53 63.6 C14.4 49.21, 26.07 35.76, 56.63 0.21 M1.53 63.6 C23.55 39.68, 44.25 14.07, 56.63 0.21 M3.23 67.74 C21.83 47.27, 40.06 29.24, 62.28 -0.19 M3.23 67.74 C16.78 52.69, 29.19 36.89, 62.28 -0.19 M4.94 71.87 C30.74 45.46, 52.97 14.87, 67.26 0.17 M4.94 71.87 C23.87 50.87, 41.36 30.15, 67.26 0.17 M7.3 75.25 C31.85 47.25, 57.06 16.77, 72.91 -0.22 M7.3 75.25 C25.13 52.81, 44.49 31.95, 72.91 -0.22 M10.98 77.12 C35.49 45.68, 64.01 15.94, 77.89 0.14 M10.98 77.12 C36.66 46.72, 63.2 15.94, 77.89 0.14 M15.96 77.48 C30.31 61.74, 43.44 45.4, 83.54 -0.26 M15.96 77.48 C39.48 51.33, 64.12 22.91, 83.54 -0.26 M20.29 78.59 C45.52 49.61, 71.6 19.24, 88.52 0.1 M20.29 78.59 C35.5 61.1, 49.56 44.99, 88.52 0.1 M25.28 78.95 C48.26 51.49, 74.67 23, 92.2 1.97 M25.28 78.95 C43.04 59.63, 58.87 40.45, 92.2 1.97 M30.92 78.56 C48.89 58.95, 66.45 37.97, 97.84 1.58 M30.92 78.56 C45.44 62.27, 62.25 43.56, 97.84 1.58 M35.91 78.92 C52.7 60.58, 67.52 47.32, 101.52 3.45 M35.91 78.92 C56.57 55.31, 78.51 31.14, 101.52 3.45 M41.55 78.52 C54.78 62.69, 71.1 43.29, 105.19 5.32 M41.55 78.52 C59.1 58.65, 78.59 38.07, 105.19 5.32 M46.54 78.88 C59.5 60.99, 77.29 43.49, 106.9 9.45 M46.54 78.88 C61.55 61.02, 77.46 43.31, 106.9 9.45 M52.18 78.49 C74.49 56.33, 93.74 30.09, 109.26 12.83 M52.18 78.49 C74.11 54.55, 95.15 29.61, 109.26 12.83 M57.17 78.85 C74.82 58.65, 91.22 38.85, 110.31 17.72 M57.17 78.85 C68.62 65.59, 79.58 54.19, 110.31 17.72 M62.81 78.45 C77.04 60.67, 90.71 44.78, 112.02 21.85 M62.81 78.45 C77.72 61.77, 93.39 42.66, 112.02 21.85 M67.8 78.81 C77.83 62.77, 91.83 50.11, 111.76 28.25 M67.8 78.81 C81.15 63.82, 92.97 48.44, 111.76 28.25 M73.44 78.42 C86.07 64.01, 97.2 54.54, 111.5 34.65 M73.44 78.42 C80.33 68.62, 88.26 61.09, 111.5 34.65 M78.43 78.78 C89.29 65.99, 98.24 59.11, 111.89 40.29 M78.43 78.78 C89.49 65.87, 99.67 53.54, 111.89 40.29 M84.07 78.39 C94.27 67.61, 105.57 54.48, 111.63 46.69 M84.07 78.39 C95.4 65.45, 104.62 53.43, 111.63 46.69 M89.72 77.99 C94.57 72.83, 100.25 63.81, 111.37 53.09 M89.72 77.99 C95.39 72.41, 100.84 65.97, 111.37 53.09 M95.36 77.6 C100.87 72.52, 106.15 64.99, 111.76 58.73 M95.36 77.6 C101.56 71.22, 107.04 64.95, 111.76 58.73" stroke="#82c91e" stroke-width="0.5" fill="none"></path><path d="M19.5 0 M19.5 0 C41.25 1.64, 63.66 -0.93, 89.5 0 M19.5 0 C37.78 -0.68, 57.94 0.89, 89.5 0 M89.5 0 C103.4 -0.72, 109.99 6.66, 109 19.5 M89.5 0 C103.26 1.73, 109.28 6.6, 109 19.5 M109 19.5 C109 28.01, 111.28 37.01, 109 58.5 M109 19.5 C108.43 33.08, 108.29 44.28, 109 58.5 M109 58.5 C110.48 72.43, 100.71 79.29, 89.5 78 M109 58.5 C109.74 69.48, 104.26 76.37, 89.5 78 M89.5 78 C71.65 76.92, 56.38 77.92, 19.5 78 M89.5 78 C68.6 78.89, 46.47 78.8, 19.5 78 M19.5 78 C7.28 79.55, -0.59 73.01, 0 58.5 M19.5 78 C8.14 78.88, -2.08 72.63, 0 58.5 M0 58.5 C1.18 48.54, -1.49 40.74, 0 19.5 M0 58.5 C-0.77 46.39, -0.78 34.11, 0 19.5 M0 19.5 C1.29 5.82, 7.02 -1.74, 19.5 0 M0 19.5 C-1.79 7.36, 7.89 -2.17, 19.5 0" stroke="#000000" stroke-width="1" fill="none"></path></g><g transform="translate(424.8134163137547 228.93039957682322) rotate(0 32.7978515625 23)"><text x="32.7978515625" y="0" font-family="Helvetica, Segoe UI Emoji" font-size="20px" fill="#000000" text-anchor="middle" style="white-space: pre;" direction="ltr" dominant-baseline="text-before-edge">Hooks</text><text x="32.7978515625" y="23" font-family="Helvetica, Segoe UI Emoji" font-size="20px" fill="#000000" text-anchor="middle" style="white-space: pre;" direction="ltr" dominant-baseline="text-before-edge">Plugins</text></g><g stroke-linecap="round"><g transform="translate(10.359497856721646 134.32134501139262) rotate(0 76.13960635652074 -0.5655268227374108)"><path d="M-0.36 1.08 C25.13 0.83, 126.96 -0.24, 152.64 -0.4 M1.65 0.6 C27 0.52, 126.37 -1.83, 151.69 -2.21" stroke="#000000" stroke-width="1" fill="none"></path></g><g transform="translate(10.359497856721646 134.32134501139262) rotate(0 76.13960635652074 -0.5655268227374108)"><path d="M125.5 8.59 C132.35 7.5, 140.93 4.25, 153.4 -2.89 M124.03 8.11 C129.97 6.69, 136.61 2.75, 151.05 -2.76" stroke="#000000" stroke-width="1" fill="none"></path></g><g transform="translate(10.359497856721646 134.32134501139262) rotate(0 76.13960635652074 -0.5655268227374108)"><path d="M125.1 -11.93 C132.24 -7.34, 140.94 -4.92, 153.4 -2.89 M123.63 -12.41 C129.66 -9.08, 136.39 -8.26, 151.05 -2.76" stroke="#000000" stroke-width="1" fill="none"></path></g></g><mask></mask><g stroke-linecap="round"><g transform="translate(337.8792238097358 124.64706787673185) rotate(0 31.611588061932252 -27.528000043217844)"><path d="M0.39 0.9 C10.98 -8.44, 53.63 -46.63, 64.08 -55.96 M-0.86 0.33 C9.53 -8.81, 52.14 -44.85, 63.21 -54.4" stroke="#000000" stroke-width="1" fill="none"></path></g><g transform="translate(337.8792238097358 124.64706787673185) rotate(0 31.611588061932252 -27.528000043217844)"><path d="M49.94 -28.05 C53.66 -38.87, 60.26 -45.86, 62.91 -54.83 M47.77 -27.38 C54.06 -37.96, 59.82 -49.97, 63.95 -53.93" stroke="#000000" stroke-width="1" fill="none"></path></g><g transform="translate(337.8792238097358 124.64706787673185) rotate(0 31.611588061932252 -27.528000043217844)"><path d="M36.61 -43.65 C45 -49.07, 56.26 -50.61, 62.91 -54.83 M34.44 -42.99 C46.02 -47.38, 57.09 -53.17, 63.95 -53.93" stroke="#000000" stroke-width="1" fill="none"></path></g></g><mask></mask><g stroke-linecap="round"><g transform="translate(337.9655174306654 150.75287737788813) rotate(0 31.82954784296271 36.6895647166607)"><path d="M0.07 -0.21 C11.04 12.15, 54.25 62.38, 65 74.75 M-1.35 -1.37 C9.6 10.58, 53.61 60.15, 64.51 72.91" stroke="#000000" stroke-width="1" fill="none"></path></g><g transform="translate(337.9655174306654 150.75287737788813) rotate(0 31.82954784296271 36.6895647166607)"><path d="M37.88 59.87 C45.39 62.58, 50.32 66.47, 63.35 71.25 M38.19 58.22 C44.62 62.83, 52.03 66.07, 64.4 73.44" stroke="#000000" stroke-width="1" fill="none"></path></g><g transform="translate(337.9655174306654 150.75287737788813) rotate(0 31.82954784296271 36.6895647166607)"><path d="M53.33 46.36 C57.27 52.27, 58.56 59.34, 63.35 71.25 M53.64 44.72 C56.1 52.8, 59.45 59.59, 64.4 73.44" stroke="#000000" stroke-width="1" fill="none"></path></g></g><mask></mask><g transform="translate(30.20034868680068 116.13467407226472) rotate(0 27.5546875 9.200000000000045)"><text x="0" y="0" font-family="Helvetica, Segoe UI Emoji" font-size="16px" fill="#000000" text-anchor="start" style="white-space: pre;" direction="ltr" dominant-baseline="text-before-edge">UO / Tx</text></g><g stroke-linecap="round" transform="translate(588.3015809729104 15.522501627603106) rotate(0 82.78589375813817 126.37825520833348)"><path d="M7.86 8.16 C7.86 8.16, 7.86 8.16, 7.86 8.16 M7.86 8.16 C7.86 8.16, 7.86 8.16, 7.86 8.16 M3.66 19.09 C7.67 14.97, 11.65 10.59, 18.1 2.48 M3.66 19.09 C8.17 13.43, 12.4 9.06, 18.1 2.48 M2.75 26.24 C11.17 18.44, 14.78 12.29, 24.4 1.33 M2.75 26.24 C10.56 18.44, 16.55 11.2, 24.4 1.33 M2.48 32.64 C12.31 18.43, 25.62 6.98, 30.7 0.18 M2.48 32.64 C13.09 21.28, 24.36 8.95, 30.7 0.18 M2.88 38.28 C13.93 24.54, 23.8 13.74, 34.37 2.05 M2.88 38.28 C13.86 26.5, 24.66 13.43, 34.37 2.05 M2.62 44.68 C10.48 36.38, 18.04 25.99, 39.36 2.41 M2.62 44.68 C10.05 35.41, 18.65 26.88, 39.36 2.41 M2.36 51.07 C10.77 41.47, 20.62 30.08, 45 2.02 M2.36 51.07 C13.13 38.69, 21.74 28.38, 45 2.02 M2.75 56.72 C11.27 45.89, 20.7 34.5, 49.99 2.38 M2.75 56.72 C16.01 40.33, 27.82 25.71, 49.99 2.38 M2.49 63.11 C14.86 49.01, 25.69 34.99, 55.63 1.98 M2.49 63.11 C17.97 42.56, 35.95 23.92, 55.63 1.98 M2.23 69.51 C25.92 43.29, 45.45 18.01, 60.62 2.34 M2.23 69.51 C15.32 53.56, 28.56 39.33, 60.62 2.34 M2.62 75.16 C26.4 45.27, 53.16 18.54, 66.26 1.95 M2.62 75.16 C20.9 53.38, 38.5 33.2, 66.26 1.95 M2.36 81.55 C18.47 61.31, 36.61 44.14, 71.25 2.31 M2.36 81.55 C24.95 54.27, 48.69 26.32, 71.25 2.31 M2.76 87.2 C27.4 56.97, 54.22 24.25, 76.89 1.91 M2.76 87.2 C29.79 56.75, 55.39 28.54, 76.89 1.91 M2.49 93.59 C20.48 69.6, 40.85 46.19, 81.88 2.27 M2.49 93.59 C23.97 67.69, 48.62 40.48, 81.88 2.27 M2.23 99.99 C26.55 71.61, 46.37 44.59, 86.86 2.63 M2.23 99.99 C29.94 66.76, 56.22 36.16, 86.86 2.63 M2.63 105.64 C30.68 74.68, 58.25 40.43, 92.51 2.24 M2.63 105.64 C36.08 66.77, 68.21 29.88, 92.51 2.24 M2.37 112.03 C32.45 77.58, 62.12 44.53, 97.49 2.6 M2.37 112.03 C35.87 74.8, 67.97 36.23, 97.49 2.6 M2.1 118.43 C36.97 78.01, 70.89 38.11, 103.14 2.21 M2.1 118.43 C27.5 90.83, 53.07 61.42, 103.14 2.21 M2.5 124.07 C41.37 80.62, 78.02 37.45, 108.12 2.57 M2.5 124.07 C38.22 82.4, 75.26 39.76, 108.12 2.57 M2.24 130.47 C36.7 93.16, 67.58 53.03, 113.77 2.17 M2.24 130.47 C30.78 98.88, 58.15 65.91, 113.77 2.17 M2.63 136.11 C39.31 90.22, 80.74 44.51, 118.76 2.53 M2.63 136.11 C45.13 87.85, 88.47 40.82, 118.76 2.53 M2.37 142.51 C37.99 99.36, 74.32 59.29, 124.4 2.14 M2.37 142.51 C35.97 105.16, 68.9 68.3, 124.4 2.14 M2.11 148.91 C33.58 110.8, 68.3 74.03, 129.39 2.5 M2.11 148.91 C32.39 113.74, 63.71 77.02, 129.39 2.5 M2.5 154.55 C45.28 103.51, 91.5 54.1, 134.37 2.86 M2.5 154.55 C35.1 119.86, 65.69 82.44, 134.37 2.86 M2.24 160.95 C51.85 102.32, 104.58 47.1, 141.33 0.95 M2.24 160.95 C53.85 104.63, 103.09 48.47, 141.33 0.95 M1.98 167.35 C58.15 103.44, 114.64 43.05, 145.66 2.07 M1.98 167.35 C39.56 125.61, 77.24 83.38, 145.66 2.07 M2.38 172.99 C34.12 136.37, 65.45 101.3, 149.33 3.94 M2.38 172.99 C39.9 128.8, 77.69 86.27, 149.33 3.94 M2.11 179.39 C43.11 131.55, 83.78 84.8, 153.66 5.05 M2.11 179.39 C44.4 128.46, 87.5 79.04, 153.66 5.05 M2.51 185.03 C61.15 117.67, 117.99 51.64, 156.68 7.68 M2.51 185.03 C36.51 146.4, 70.07 107.2, 156.68 7.68 M2.25 191.43 C60.42 122.69, 119.28 51.03, 159.05 11.06 M2.25 191.43 C40.15 146.78, 78.51 104.02, 159.05 11.06 M1.99 197.83 C59.64 133.61, 115.4 69.1, 162.06 13.68 M1.99 197.83 C56.31 137.15, 109.37 76.23, 162.06 13.68 M2.38 203.47 C64 132.16, 127.89 57.22, 163.77 17.81 M2.38 203.47 C47.95 148.92, 93.53 95.96, 163.77 17.81 M2.12 209.87 C44.07 163.3, 83.82 117.89, 164.17 23.46 M2.12 209.87 C65.3 138.84, 125.55 67.74, 164.17 23.46 M1.86 216.27 C56.44 153.95, 110.65 90.7, 165.22 28.34 M1.86 216.27 C60.75 148.59, 119.76 79.82, 165.22 28.34 M1.6 222.66 C53.05 165.07, 100.37 111.03, 166.27 33.23 M1.6 222.66 C61.02 156.02, 120.98 88.55, 166.27 33.23 M2.65 227.55 C51.98 169.95, 99.51 112.21, 166.66 38.88 M2.65 227.55 C43.1 180.85, 84.59 135.12, 166.66 38.88 M3.04 233.2 C59.73 167.75, 117.46 104.35, 166.4 45.27 M3.04 233.2 C62.44 163.25, 123.43 94.42, 166.4 45.27 M4.75 237.33 C62.77 170.91, 120.69 105.66, 166.79 50.92 M4.75 237.33 C55.27 181.54, 102.34 125.91, 166.79 50.92 M6.46 241.46 C61.34 180.95, 115.03 118.01, 166.53 57.31 M6.46 241.46 C59.16 180.07, 112.77 118.78, 166.53 57.31 M8.82 244.84 C44.04 204.82, 79.45 161.34, 166.27 63.71 M8.82 244.84 C56.83 187.45, 106.82 131.59, 166.27 63.71 M11.84 247.47 C53.46 201.2, 93.2 153.25, 166.67 69.36 M11.84 247.47 C52.72 201.64, 93.63 153.62, 166.67 69.36 M14.86 250.09 C50.92 207.78, 85.03 169.43, 166.41 75.75 M14.86 250.09 C50.5 205.53, 89.42 163.51, 166.41 75.75 M19.19 251.21 C53.28 212.52, 84.85 175.09, 166.8 81.4 M19.19 251.21 C75.84 184.36, 134.67 116.41, 166.8 81.4 M23.52 252.32 C69.56 200.26, 114.16 146.42, 166.54 87.79 M23.52 252.32 C70.71 197.88, 117.99 144.15, 166.54 87.79 M28.5 252.68 C72.57 204.43, 119.57 152.02, 166.28 94.19 M28.5 252.68 C64.17 213.66, 98.74 171.22, 166.28 94.19 M32.84 253.8 C61.73 218.63, 95.07 180.5, 166.67 99.83 M32.84 253.8 C78.08 202.09, 124.7 150.21, 166.67 99.83 M38.48 253.4 C88.76 195.31, 137.07 139.23, 166.41 106.23 M38.48 253.4 C87.87 195.52, 138.08 137.83, 166.41 106.23 M43.47 253.76 C90.33 203.28, 133.95 148.52, 166.8 111.88 M43.47 253.76 C80.18 212.24, 118.06 169.19, 166.8 111.88 M49.11 253.37 C81.86 217.49, 115.77 179.39, 166.54 118.27 M49.11 253.37 C78.85 216.12, 109.04 180.5, 166.54 118.27 M54.1 253.73 C88.29 215.79, 121.68 176.93, 166.28 124.67 M54.1 253.73 C77.64 225.56, 103.39 197.71, 166.28 124.67 M59.74 253.33 C99.07 210.53, 136.14 166.94, 166.68 130.31 M59.74 253.33 C93.14 214.16, 126.96 174.23, 166.68 130.31 M64.73 253.69 C89.97 223.88, 117.52 194.59, 166.41 136.71 M64.73 253.69 C98.73 215.69, 131.36 175.66, 166.41 136.71 M70.37 253.3 C105.69 209.72, 143.7 163.72, 166.81 142.36 M70.37 253.3 C101.22 217.03, 132.1 179.56, 166.81 142.36 M75.36 253.66 C96.17 227.11, 117.93 200.27, 166.55 148.75 M75.36 253.66 C100.43 226.67, 124.09 200.95, 166.55 148.75 M81 253.26 C104.21 223.13, 131.18 195.48, 166.29 155.15 M81 253.26 C102.39 226.68, 125.43 201.48, 166.29 155.15 M85.99 253.62 C111.99 224.19, 140.22 190.56, 166.68 160.79 M85.99 253.62 C106.97 230.69, 127.13 204.9, 166.68 160.79 M90.97 253.98 C118.21 221.16, 147.93 189.31, 166.42 167.19 M90.97 253.98 C107.1 235.42, 123.5 217.49, 166.42 167.19 M96.62 253.59 C120.84 224.04, 147.72 195.38, 166.81 172.83 M96.62 253.59 C121.39 225.35, 147.2 196.22, 166.81 172.83 M101.6 253.95 C117.58 234.49, 137.81 213.18, 166.55 179.23 M101.6 253.95 C118.67 234.61, 136.22 214.25, 166.55 179.23 M107.25 253.55 C119.01 235.6, 134.34 221.4, 166.29 185.63 M107.25 253.55 C121.8 237.47, 134.93 219.14, 166.29 185.63 M112.23 253.91 C126.7 237.94, 139.93 222.96, 166.69 191.27 M112.23 253.91 C125.56 241.31, 136.08 227.5, 166.69 191.27 M117.88 253.52 C129.75 241.14, 138.51 227.66, 166.42 197.67 M117.88 253.52 C134.92 232.95, 151.14 213.76, 166.42 197.67 M122.86 253.88 C133.55 243.31, 144.88 231.11, 166.82 203.31 M122.86 253.88 C134.39 239.73, 148.51 225.46, 166.82 203.31 M128.51 253.49 C136.95 243.26, 149.47 231.08, 166.56 209.71 M128.51 253.49 C141.92 237.17, 156.14 219.8, 166.56 209.71 M134.15 253.09 C140.07 242.8, 149.85 233.63, 166.3 216.11 M134.15 253.09 C146.45 239.14, 157.16 226.67, 166.3 216.11 M139.79 252.7 C148 243.75, 152.72 234.75, 166.69 221.75 M139.79 252.7 C149.85 242.17, 159.14 229.17, 166.69 221.75 M146.09 251.55 C154.51 244.69, 160.65 235.71, 165.77 228.91 M146.09 251.55 C154.06 242.25, 161.65 233.51, 165.77 228.91" stroke="#ced4da" stroke-width="0.5" fill="none"></path><path d="M32 0 M32 0 C72.92 -0.8, 113.97 -1.25, 133.57 0 M32 0 C59.28 1.29, 85.73 0.08, 133.57 0 M133.57 0 C155.6 0.3, 167.41 9.36, 165.57 32 M133.57 0 C154.98 1.67, 163.47 12.69, 165.57 32 M165.57 32 C166.8 104.3, 166.33 177.15, 165.57 220.76 M165.57 32 C166.6 91.04, 166 149.47, 165.57 220.76 M165.57 220.76 C166.46 240.79, 155.4 254.54, 133.57 252.76 M165.57 220.76 C164.29 241.68, 156.63 253.76, 133.57 252.76 M133.57 252.76 C98.95 252.73, 66.54 252.69, 32 252.76 M133.57 252.76 C96.4 252.76, 58.86 252.85, 32 252.76 M32 252.76 C12.53 251.63, -1.36 242.1, 0 220.76 M32 252.76 C9.18 251.47, 1.07 244.04, 0 220.76 M0 220.76 C-0.41 149.62, -1.79 77.9, 0 32 M0 220.76 C0.37 164.6, 0.98 106.85, 0 32 M0 32 C-1.1 10.02, 9.59 0.33, 32 0 M0 32 C-1.77 11.4, 9.09 0.29, 32 0" stroke="#000000" stroke-width="1" fill="none"></path></g><g stroke-linecap="round"><g transform="translate(883.3505718583247 128.65585327148392) rotate(0 -61.28137339759269 0.6279120359001809)"><path d="M-0.35 -1.07 C-21 -0.5, -103.62 1.68, -124.22 2.32 M1.66 0.99 C-18.6 1.28, -101.59 0.47, -122.13 0.48" stroke="#000000" stroke-width="1" fill="none"></path></g><g transform="translate(883.3505718583247 128.65585327148392) rotate(0 -61.28137339759269 0.6279120359001809)"><path d="M-95.66 -11.59 C-100.72 -8.52, -107.53 -4.64, -120.65 -0.03 M-93.49 -9.56 C-102.7 -6.81, -110.99 -4.07, -122.31 0.63" stroke="#000000" stroke-width="1" fill="none"></path></g><g transform="translate(883.3505718583247 128.65585327148392) rotate(0 -61.28137339759269 0.6279120359001809)"><path d="M-95.77 8.93 C-100.62 6.47, -107.4 4.8, -120.65 -0.03 M-93.59 10.96 C-102.82 7.48, -111.08 3.98, -122.31 0.63" stroke="#000000" stroke-width="1" fill="none"></path></g></g><mask></mask><g transform="translate(797.5418051753832 100.09234110514217) rotate(0 27.5546875 9.200000000000045)"><text x="0" y="0" font-family="Helvetica, Segoe UI Emoji" font-size="16px" fill="#000000" text-anchor="start" style="white-space: pre;" direction="ltr" dominant-baseline="text-before-edge">UO / Tx</text></g><g transform="translate(641.0303581472499 108.11403910318859) rotate(0 28.8916015625 23)"><text x="0" y="0" font-family="Helvetica, Segoe UI Emoji" font-size="20px" fill="#000000" text-anchor="start" style="white-space: pre;" direction="ltr" dominant-baseline="text-before-edge">Bob's</text><text x="0" y="23" font-family="Helvetica, Segoe UI Emoji" font-size="20px" fill="#000000" text-anchor="start" style="white-space: pre;" direction="ltr" dominant-baseline="text-before-edge">MSCA</text></g><g stroke-linecap="round"><g transform="translate(587.1198228395506 118.9335422041836) rotate(0 -39.078110168200965 -26.06069845097045)"><path d="M0.52 0.93 C-12.49 -7.78, -64.46 -44.3, -77.58 -53.05 M-0.67 0.37 C-13.91 -8.12, -66.15 -42.9, -78.67 -51.87" stroke="#000000" stroke-width="1" fill="none"></path></g><g transform="translate(587.1198228395506 118.9335422041836) rotate(0 -39.078110168200965 -26.06069845097045)"><path d="M-48.08 -44.84 C-60.59 -48.34, -67.95 -48.97, -76.75 -51.35 M-49.36 -45.27 C-60.18 -47.85, -69.02 -50.02, -78.26 -52.55" stroke="#000000" stroke-width="1" fill="none"></path></g><g transform="translate(587.1198228395506 118.9335422041836) rotate(0 -39.078110168200965 -26.06069845097045)"><path d="M-59.69 -27.92 C-68.14 -37.23, -71.54 -43.61, -76.75 -51.35 M-60.97 -28.35 C-67.77 -36.66, -72.61 -44.67, -78.26 -52.55" stroke="#000000" stroke-width="1" fill="none"></path></g></g><mask></mask><g stroke-linecap="round"><g transform="translate(585.6930041229998 151.84922654685806) rotate(0 -36.930331085582566 34.4303636981424)"><path d="M-0.28 -0.69 C-12.97 10.75, -63.27 57.79, -75.64 69.55 M1.78 1.56 C-10.59 12.59, -60.6 56.77, -73.42 67.86" stroke="#000000" stroke-width="1" fill="none"></path></g><g transform="translate(585.6930041229998 151.84922654685806) rotate(0 -36.930331085582566 34.4303636981424)"><path d="M-60.12 40.03 C-62.34 50.93, -66.76 60.09, -72.51 67.73 M-59.5 40.96 C-61.2 46.62, -64.39 51.5, -72.9 68.62" stroke="#000000" stroke-width="1" fill="none"></path></g><g transform="translate(585.6930041229998 151.84922654685806) rotate(0 -36.930331085582566 34.4303636981424)"><path d="M-46.6 55.47 C-53.58 61.04, -62.63 64.91, -72.51 67.73 M-45.98 56.4 C-50.48 58.79, -56.43 60.51, -72.9 68.62" stroke="#000000" stroke-width="1" fill="none"></path></g></g><mask></mask><g stroke-linecap="round" transform="translate(405.05257240100036 110.81405131022166) rotate(0 53 39)"><path d="M5.19 4.51 C5.19 4.51, 5.19 4.51, 5.19 4.51 M5.19 4.51 C5.19 4.51, 5.19 4.51, 5.19 4.51 M0.99 15.44 C2.48 12.57, 5.74 8.97, 12.15 2.61 M0.99 15.44 C4 12.03, 6.35 8.17, 12.15 2.61 M0.73 21.84 C6.26 17.16, 10.97 10.98, 19.76 -0.05 M0.73 21.84 C4.65 16.64, 9.11 12.27, 19.76 -0.05 M1.13 27.48 C9.02 19.78, 13.68 15.27, 24.74 0.31 M1.13 27.48 C7.62 19.57, 14.16 13.38, 24.74 0.31 M0.86 33.88 C10.93 20.87, 22.63 10.38, 30.39 -0.09 M0.86 33.88 C6.89 27.27, 13.13 18.84, 30.39 -0.09 M1.26 39.52 C12.58 27.55, 23.56 13.25, 35.37 0.27 M1.26 39.52 C12.4 28.44, 22.95 15.44, 35.37 0.27 M1 45.92 C7.71 34.42, 17.24 24.75, 41.02 -0.12 M1 45.92 C13.25 31.98, 25.1 19.1, 41.02 -0.12 M0.74 52.32 C17.69 33.78, 34.74 11.11, 46 0.24 M0.74 52.32 C12.43 38.94, 23.14 26.19, 46 0.24 M1.13 57.96 C13.33 42.27, 26.42 30.6, 51.65 -0.15 M1.13 57.96 C11.89 46.15, 22.41 34.21, 51.65 -0.15 M1.53 63.6 C15.16 50.06, 25.45 35.76, 56.63 0.21 M1.53 63.6 C13.32 50.51, 25.18 35.22, 56.63 0.21 M3.23 67.74 C25.11 44.23, 47.41 17.05, 62.28 -0.19 M3.23 67.74 C23.88 44.52, 42.08 21.85, 62.28 -0.19 M4.94 71.87 C26.12 47.56, 49.05 19.44, 67.26 0.17 M4.94 71.87 C26.43 47.61, 49.18 22.44, 67.26 0.17 M7.3 75.25 C29.81 53.08, 50.85 28.01, 72.91 -0.22 M7.3 75.25 C25.68 53.11, 43.35 32.07, 72.91 -0.22 M10.98 77.12 C32.69 52.02, 54.95 25.17, 77.89 0.14 M10.98 77.12 C37.45 47.76, 62.46 19.37, 77.89 0.14 M15.96 77.48 C41.46 46.3, 70.42 16.15, 83.54 -0.26 M15.96 77.48 C32.87 60.1, 47.38 41.39, 83.54 -0.26 M20.29 78.59 C34.78 65.37, 47.46 47.35, 87.87 0.86 M20.29 78.59 C41.27 53.83, 61.72 31.16, 87.87 0.86 M25.28 78.95 C44.05 56.25, 66.69 32.78, 92.2 1.97 M25.28 78.95 C41.62 59.23, 58.21 40.69, 92.2 1.97 M30.92 78.56 C49.28 58.13, 69.63 35.88, 96.53 3.09 M30.92 78.56 C48.61 58.08, 68.79 36.48, 96.53 3.09 M35.91 78.92 C52.41 59.9, 70.92 37.16, 100.21 4.96 M35.91 78.92 C58.4 54.8, 80.31 29.31, 100.21 4.96 M41.55 78.52 C52.03 64.77, 67.1 48.29, 103.88 6.83 M41.55 78.52 C63.1 53.18, 83.73 28.97, 103.88 6.83 M46.54 78.88 C58.76 63.95, 73.96 47.34, 104.93 11.71 M46.54 78.88 C59.33 65.82, 71.16 51.63, 104.93 11.71 M52.18 78.49 C66.59 62.81, 80.55 47.28, 105.98 16.6 M52.18 78.49 C69.37 59.07, 84.8 40.29, 105.98 16.6 M57.17 78.85 C75.26 58.81, 91.8 41.36, 107.69 20.74 M57.17 78.85 C73.08 61.59, 88.15 43.23, 107.69 20.74 M62.81 78.45 C78.65 60.39, 95.87 38.27, 107.43 27.13 M62.81 78.45 C72.53 68.51, 80.85 56.08, 107.43 27.13 M67.8 78.81 C75.41 67.49, 85.16 58.72, 107.17 33.53 M67.8 78.81 C81.89 62.54, 97.4 45.04, 107.17 33.53 M73.44 78.42 C81.41 69.72, 90.49 56.51, 107.56 39.17 M73.44 78.42 C84.98 64.47, 96.69 50.78, 107.56 39.17 M78.43 78.78 C87.54 70.17, 96.66 59.73, 107.3 45.57 M78.43 78.78 C86.3 69.48, 96.59 60.14, 107.3 45.57 M84.07 78.39 C89.82 72.44, 94.68 66.92, 107.04 51.97 M84.07 78.39 C91.06 69.39, 100.56 60.56, 107.04 51.97 M88.41 79.5 C96.44 71.39, 100.31 65.94, 107.43 57.61 M88.41 79.5 C93.83 74.19, 98.64 69.47, 107.43 57.61 M95.36 77.6 C99.83 72.49, 101.57 69.65, 107.17 64.01 M95.36 77.6 C99.54 73.12, 104 67.32, 107.17 64.01" stroke="#15aabf" stroke-width="0.5" fill="none"></path><path d="M19.5 0 M19.5 0 C37.86 0.55, 56.42 1.82, 86.5 0 M19.5 0 C44.84 -0.36, 69.01 -0.31, 86.5 0 M86.5 0 C100.72 0.41, 105.51 5.48, 106 19.5 M86.5 0 C100.35 2.07, 108.11 5.91, 106 19.5 M106 19.5 C104.48 29.41, 106.01 37.83, 106 58.5 M106 19.5 C105.28 28.39, 105.74 38.5, 106 58.5 M106 58.5 C104.04 70.97, 98.03 76.96, 86.5 78 M106 58.5 C104.17 73.33, 101.76 77.44, 86.5 78 M86.5 78 C64.98 77.89, 39.66 77.28, 19.5 78 M86.5 78 C61.98 78.07, 35.49 76.61, 19.5 78 M19.5 78 C8.01 76.71, -0.49 72.26, 0 58.5 M19.5 78 C6.65 77.65, 2.04 69.68, 0 58.5 M0 58.5 C1.37 49.22, -0.73 41.6, 0 19.5 M0 58.5 C0.08 47.96, 0.64 38.97, 0 19.5 M0 19.5 C-0.87 4.96, 6.38 0.66, 19.5 0 M0 19.5 C-0.56 4.29, 8 1.86, 19.5 0" stroke="#000000" stroke-width="1" fill="none"></path></g><g transform="translate(414.13655677600036 126.81405131022166) rotate(0 43.916015625 23)"><text x="43.916015625" y="0" font-family="Helvetica, Segoe UI Emoji" font-size="20px" fill="#000000" text-anchor="middle" style="white-space: pre;" direction="ltr" dominant-baseline="text-before-edge">Execution</text><text x="43.916015625" y="23" font-family="Helvetica, Segoe UI Emoji" font-size="20px" fill="#000000" text-anchor="middle" style="white-space: pre;" direction="ltr" dominant-baseline="text-before-edge">Plugins</text></g><g stroke-linecap="round"><g transform="translate(338.72823158068786 138.32969414213585) rotate(0 32.12380177811838 4.323217787943349)"><path d="M-0.05 -0.81 C11.03 0.85, 55.08 7.78, 65.79 9.46 M-1.54 1.37 C9.55 2.75, 54.67 6.79, 65.47 7.77" stroke="#000000" stroke-width="1" fill="none"></path></g><g transform="translate(338.72823158068786 138.32969414213585) rotate(0 32.12380177811838 4.323217787943349)"><path d="M35.11 17.43 C44.87 12.93, 51.55 12.74, 65.51 5.79 M36.52 15.96 C41.69 13.27, 47.26 11.85, 65.7 7.52" stroke="#000000" stroke-width="1" fill="none"></path></g><g transform="translate(338.72823158068786 138.32969414213585) rotate(0 32.12380177811838 4.323217787943349)"><path d="M36.96 -3.01 C46.19 -2.57, 52.42 2.16, 65.51 5.79 M38.38 -4.48 C43.05 -3.05, 48.24 -0.36, 65.7 7.52" stroke="#000000" stroke-width="1" fill="none"></path></g></g><mask></mask><g stroke-linecap="round"><g transform="translate(586.0119636770423 139.56017049153616) rotate(0 -37.57569007429311 4.286384381864536)"><path d="M-0.7 0.34 C-13.06 1.9, -62.97 7.82, -75.21 9.11 M1.13 -0.53 C-11.32 0.71, -63.69 5.69, -76.28 7.3" stroke="#000000" stroke-width="1" fill="none"></path></g><g transform="translate(586.0119636770423 139.56017049153616) rotate(0 -37.57569007429311 4.286384381864536)"><path d="M-48.81 -6.36 C-54.13 -1.88, -61.59 0.91, -75.39 7.47 M-48.42 -6.34 C-55.8 -1.63, -62.43 0.9, -76.71 8.1" stroke="#000000" stroke-width="1" fill="none"></path></g><g transform="translate(586.0119636770423 139.56017049153616) rotate(0 -37.57569007429311 4.286384381864536)"><path d="M-46.59 14.04 C-52.33 14.16, -60.27 12.61, -75.39 7.47 M-46.2 14.06 C-54.28 13.46, -61.49 10.68, -76.71 8.1" stroke="#000000" stroke-width="1" fill="none"></path></g></g><mask></mask><g transform="translate(217.20911740427437 105.22256978353653) rotate(0 28.8916015625 23)"><text x="0" y="0" font-family="Helvetica, Segoe UI Emoji" font-size="20px" fill="#000000" text-anchor="start" style="white-space: pre;" direction="ltr" dominant-baseline="text-before-edge">Alice's</text><text x="0" y="23" font-family="Helvetica, Segoe UI Emoji" font-size="20px" fill="#000000" text-anchor="start" style="white-space: pre;" direction="ltr" dominant-baseline="text-before-edge">MSCA</text></g></svg>