<?xml version="1.0" standalone="no"?>
<svg xmlns="http://www.w3.org/2000/svg" xmlns:xlink="http://www.w3.org/1999/xlink" width="737pt" height="332pt" viewBox="0.00 0.00 736.71 332.00">
<g id="graph0" class="graph" transform="translate(4,328) scale(1)" data-name="G">

<polygon fill="white" stroke="transparent" points="-4,4 -4,-328 732.71,-328 732.71,4 -4,4" style=""/>
<!-- ERC721Buyable -->
<g id="node1" class="node" pointer-events="visible" data-name="ERC721Buyable">

<ellipse fill="none" stroke="black" cx="272.3" cy="-306" rx="76.47" ry="18" style=""/>
<text text-anchor="middle" x="272.3" y="-301.8" font-family="Times,serif" font-size="14.00" style="">ERC721Buyable</text>
</g>
<!-- ERC721 -->
<g id="node2" class="node" pointer-events="visible" data-name="ERC721">

<ellipse fill="none" stroke="black" cx="164.3" cy="-234" rx="44.11" ry="18" style=""/>
<text text-anchor="middle" x="164.3" y="-229.8" font-family="Times,serif" font-size="14.00" style="">ERC721</text>
</g>
<!-- ERC721Buyable&#45;&gt;ERC721 -->
<g id="edge1" class="edge" data-name="ERC721Buyable-&gt;ERC721">

<path fill="none" stroke="black" d="M247.53,-288.94C232.08,-278.93 212.06,-265.96 195.53,-255.24" style=""/>
<polygon fill="black" stroke="black" points="197.05,-252.06 186.76,-249.56 193.25,-257.93 197.05,-252.06" style=""/>
</g>
<!-- IERC721Buyable -->
<g id="node3" class="node" pointer-events="visible" data-name="IERC721Buyable">

<ellipse fill="none" stroke="black" cx="416.3" cy="-234" rx="79.9" ry="18" style=""/>
<text text-anchor="middle" x="416.3" y="-229.8" font-family="Times,serif" font-size="14.00" style="">IERC721Buyable</text>
</g>
<!-- ERC721Buyable&#45;&gt;IERC721Buyable -->
<g id="edge2" class="edge" data-name="ERC721Buyable-&gt;IERC721Buyable">

<path fill="none" stroke="black" d="M304.26,-289.46C325.16,-279.3 352.66,-265.94 375.19,-254.99" style=""/>
<polygon fill="black" stroke="black" points="376.72,-258.13 384.19,-250.61 373.66,-251.84 376.72,-258.13" style=""/>
</g>
<!-- Ownable -->
<g id="node4" class="node" pointer-events="visible" data-name="Ownable">

<ellipse fill="none" stroke="black" cx="272.3" cy="-234" rx="45.79" ry="18" style=""/>
<text text-anchor="middle" x="272.3" y="-229.8" font-family="Times,serif" font-size="14.00" style="">Ownable</text>
</g>
<!-- ERC721Buyable&#45;&gt;Ownable -->
<g id="edge3" class="edge" data-name="ERC721Buyable-&gt;Ownable">

<path fill="none" stroke="black" d="M272.3,-287.7C272.3,-279.98 272.3,-270.71 272.3,-262.11" style=""/>
<polygon fill="black" stroke="black" points="275.8,-262.1 272.3,-252.1 268.8,-262.1 275.8,-262.1" style=""/>
</g>
<!-- Context -->
<g id="node5" class="node" pointer-events="visible" data-name="Context">

<ellipse fill="none" stroke="black" cx="317.3" cy="-162" rx="41.73" ry="18" style=""/>
<text text-anchor="middle" x="317.3" y="-157.8" font-family="Times,serif" font-size="14.00" style="">Context</text>
</g>
<!-- ERC721&#45;&gt;Context -->
<g id="edge4" class="edge" data-name="ERC721-&gt;Context">

<path fill="none" stroke="black" d="M192.72,-220C217.54,-208.64 253.7,-192.1 280.68,-179.75" style=""/>
<polygon fill="black" stroke="black" points="282.17,-182.92 289.81,-175.58 279.26,-176.56 282.17,-182.92" style=""/>
</g>
<!-- ERC165 -->
<g id="node6" class="node" pointer-events="visible" data-name="ERC165">

<ellipse fill="none" stroke="black" cx="44.3" cy="-90" rx="44.11" ry="18" style=""/>
<text text-anchor="middle" x="44.3" y="-85.8" font-family="Times,serif" font-size="14.00" style="">ERC165</text>
</g>
<!-- ERC721&#45;&gt;ERC165 -->
<g id="edge5" class="edge" data-name="ERC721-&gt;ERC165">

<path fill="none" stroke="black" d="M132.49,-221.35C112.9,-212.69 88.69,-199.06 73.3,-180 58.99,-162.27 51.65,-137.25 47.95,-118.25" style=""/>
<polygon fill="black" stroke="black" points="51.35,-117.39 46.2,-108.13 44.45,-118.58 51.35,-117.39" style=""/>
</g>
<!-- IERC721 -->
<g id="node7" class="node" pointer-events="visible" data-name="IERC721">

<ellipse fill="none" stroke="black" cx="164.3" cy="-90" rx="47.54" ry="18" style=""/>
<text text-anchor="middle" x="164.3" y="-85.8" font-family="Times,serif" font-size="14.00" style="">IERC721</text>
</g>
<!-- ERC721&#45;&gt;IERC721 -->
<g id="edge6" class="edge" data-name="ERC721-&gt;IERC721">

<path fill="none" stroke="black" d="M132.34,-221.38C114.14,-212.92 92.92,-199.5 82.3,-180 74.65,-165.95 74.65,-158.05 82.3,-144 90.97,-128.07 106.72,-116.2 122.12,-107.77" style=""/>
<polygon fill="black" stroke="black" points="123.76,-110.86 131.08,-103.21 120.58,-104.63 123.76,-110.86" style=""/>
</g>
<!-- IERC721Metadata -->
<g id="node8" class="node" pointer-events="visible" data-name="IERC721Metadata">

<ellipse fill="none" stroke="black" cx="174.3" cy="-162" rx="83.39" ry="18" style=""/>
<text text-anchor="middle" x="174.3" y="-157.8" font-family="Times,serif" font-size="14.00" style="">IERC721Metadata</text>
</g>
<!-- ERC721&#45;&gt;IERC721Metadata -->
<g id="edge7" class="edge" data-name="ERC721-&gt;IERC721Metadata">

<path fill="none" stroke="black" d="M166.77,-215.7C167.88,-207.98 169.2,-198.71 170.43,-190.11" style=""/>
<polygon fill="black" stroke="black" points="173.91,-190.5 171.86,-180.1 166.98,-189.51 173.91,-190.5" style=""/>
</g>
<!-- IERC721Buyable&#45;&gt;IERC721 -->
<g id="edge12" class="edge" data-name="IERC721Buyable-&gt;IERC721">

<path fill="none" stroke="black" d="M411.64,-215.85C405.25,-195.62 391.78,-162.42 368.3,-144 326.23,-111 265.73,-98.4 221.54,-93.67" style=""/>
<polygon fill="black" stroke="black" points="221.82,-90.18 211.53,-92.7 221.14,-97.15 221.82,-90.18" style=""/>
</g>
<!-- Ownable&#45;&gt;Context -->
<g id="edge11" class="edge" data-name="Ownable-&gt;Context">

<path fill="none" stroke="black" d="M282.97,-216.41C288.4,-207.95 295.13,-197.49 301.18,-188.08" style=""/>
<polygon fill="black" stroke="black" points="304.25,-189.77 306.72,-179.47 298.36,-185.99 304.25,-189.77" style=""/>
</g>
<!-- IERC165 -->
<g id="node9" class="node" pointer-events="visible" data-name="IERC165">

<ellipse fill="none" stroke="black" cx="99.3" cy="-18" rx="47.54" ry="18" style=""/>
<text text-anchor="middle" x="99.3" y="-13.8" font-family="Times,serif" font-size="14.00" style="">IERC165</text>
</g>
<!-- ERC165&#45;&gt;IERC165 -->
<g id="edge10" class="edge" data-name="ERC165-&gt;IERC165">

<path fill="none" stroke="black" d="M57.34,-72.41C64.12,-63.78 72.54,-53.06 80.06,-43.5" style=""/>
<polygon fill="black" stroke="black" points="82.94,-45.5 86.36,-35.47 77.43,-41.17 82.94,-45.5" style=""/>
</g>
<!-- IERC721&#45;&gt;IERC165 -->
<g id="edge8" class="edge" data-name="IERC721-&gt;IERC165">

<path fill="none" stroke="black" d="M149.23,-72.76C140.94,-63.84 130.51,-52.61 121.33,-42.72" style=""/>
<polygon fill="black" stroke="black" points="123.67,-40.09 114.3,-35.15 118.54,-44.86 123.67,-40.09" style=""/>
</g>
<!-- IERC721Metadata&#45;&gt;IERC721 -->
<g id="edge9" class="edge" data-name="IERC721Metadata-&gt;IERC721">

<path fill="none" stroke="black" d="M171.83,-143.7C170.73,-135.98 169.4,-126.71 168.18,-118.11" style=""/>
<polygon fill="black" stroke="black" points="171.63,-117.51 166.75,-108.1 164.7,-118.5 171.63,-117.51" style=""/>
</g>
<!-- IERC721Receiver -->
<g id="node10" class="node" pointer-events="visible" data-name="IERC721Receiver">

<ellipse fill="none" stroke="black" cx="448.3" cy="-306" rx="81.66" ry="18" style=""/>
<text text-anchor="middle" x="448.3" y="-301.8" font-family="Times,serif" font-size="14.00" style="">IERC721Receiver</text>
</g>
<!-- Address -->
<g id="node11" class="node" pointer-events="visible" data-name="Address">

<ellipse fill="none" stroke="black" cx="591.3" cy="-306" rx="42.87" ry="18" style=""/>
<text text-anchor="middle" x="591.3" y="-301.8" font-family="Times,serif" font-size="14.00" style="">Address</text>
</g>
<!-- Strings -->
<g id="node12" class="node" pointer-events="visible" data-name="Strings">

<ellipse fill="none" stroke="black" cx="690.3" cy="-306" rx="38.31" ry="18" style=""/>
<text text-anchor="middle" x="690.3" y="-301.8" font-family="Times,serif" font-size="14.00" style="">Strings</text>
</g>
</g>
</svg>